<?xml version="1.0" encoding="UTF-8" standalone="no"?>
<!-- Created with Inkscape (http://www.inkscape.org/) -->

<svg
   version="1.1"
   id="svg1"
   width="880"
   height="880"
   viewBox="0 0 880 880"
   sodipodi:docname="asian-dish-with-sticks.svg"
   inkscape:version="1.3.2 (091e20e, 2023-11-25, custom)"
   xmlns:inkscape="http://www.inkscape.org/namespaces/inkscape"
   xmlns:sodipodi="http://sodipodi.sourceforge.net/DTD/sodipodi-0.dtd"
   xmlns="http://www.w3.org/2000/svg"
   xmlns:svg="http://www.w3.org/2000/svg">
  <defs
     id="defs1">
    <clipPath
       clipPathUnits="userSpaceOnUse"
       id="clipPath4">
      <path
         d="M 0,660 H 660 V 0 H 0 Z"
         transform="translate(-291.18651,-477.59771)"
         id="path4" />
    </clipPath>
    <clipPath
       clipPathUnits="userSpaceOnUse"
       id="clipPath6">
      <path
         d="M 0,660 H 660 V 0 H 0 Z"
         transform="translate(-263.9971,-176.0742)"
         id="path6" />
    </clipPath>
    <clipPath
       clipPathUnits="userSpaceOnUse"
       id="clipPath8">
      <path
         d="M 0,660 H 660 V 0 H 0 Z"
         transform="translate(-263.9971,-190.0029)"
         id="path8" />
    </clipPath>
    <clipPath
       clipPathUnits="userSpaceOnUse"
       id="clipPath10">
      <path
         d="M 0,660 H 660 V 0 H 0 Z"
         transform="translate(-263.9971,-204.98631)"
         id="path10" />
    </clipPath>
    <clipPath
       clipPathUnits="userSpaceOnUse"
       id="clipPath12">
      <path
         d="M 0,660 H 660 V 0 H 0 Z"
         transform="translate(-263.9971,-232.15821)"
         id="path12" />
    </clipPath>
    <clipPath
       clipPathUnits="userSpaceOnUse"
       id="clipPath14">
      <path
         d="M 0,660 H 660 V 0 H 0 Z"
         transform="translate(-193.209,-379.90531)"
         id="path14" />
    </clipPath>
    <clipPath
       clipPathUnits="userSpaceOnUse"
       id="clipPath16">
      <path
         d="M 0,660 H 660 V 0 H 0 Z"
         transform="translate(-328.30861,-351.51951)"
         id="path16" />
    </clipPath>
    <clipPath
       clipPathUnits="userSpaceOnUse"
       id="clipPath18">
      <path
         d="M 0,660 H 660 V 0 H 0 Z"
         transform="translate(-341.35741,-384.15381)"
         id="path18" />
    </clipPath>
    <clipPath
       clipPathUnits="userSpaceOnUse"
       id="clipPath20">
      <path
         d="M 0,660 H 660 V 0 H 0 Z"
         transform="translate(-148.4409,-288.1807)"
         id="path20" />
    </clipPath>
    <clipPath
       clipPathUnits="userSpaceOnUse"
       id="clipPath22">
      <path
         d="M 0,660 H 660 V 0 H 0 Z"
         transform="translate(-280.01271,-435.68851)"
         id="path22" />
    </clipPath>
    <clipPath
       clipPathUnits="userSpaceOnUse"
       id="clipPath24">
      <path
         d="M 0,660 H 660 V 0 H 0 Z"
         transform="translate(-316.91891,-310.98051)"
         id="path24" />
    </clipPath>
    <clipPath
       clipPathUnits="userSpaceOnUse"
       id="clipPath26">
      <path
         d="M 0,660 H 660 V 0 H 0 Z"
         transform="translate(-190.43121,-330.38821)"
         id="path26" />
    </clipPath>
    <clipPath
       clipPathUnits="userSpaceOnUse"
       id="clipPath28">
      <path
         d="M 0,660 H 660 V 0 H 0 Z"
         transform="translate(-258.2734,-346.81741)"
         id="path28" />
    </clipPath>
    <clipPath
       clipPathUnits="userSpaceOnUse"
       id="clipPath30">
      <path
         d="M 0,660 H 660 V 0 H 0 Z"
         transform="translate(-258.2734,-273.87301)"
         id="path30" />
    </clipPath>
    <clipPath
       clipPathUnits="userSpaceOnUse"
       id="clipPath32">
      <path
         d="M 0,660 H 660 V 0 H 0 Z"
         transform="translate(-316.71831,-362.01421)"
         id="path32" />
    </clipPath>
    <clipPath
       clipPathUnits="userSpaceOnUse"
       id="clipPath34">
      <path
         d="M 0,660 H 660 V 0 H 0 Z"
         transform="translate(-335.60351,-339.87651)"
         id="path34" />
    </clipPath>
    <clipPath
       clipPathUnits="userSpaceOnUse"
       id="clipPath36">
      <path
         d="M 0,660 H 660 V 0 H 0 Z"
         transform="translate(-406.32911,-553.13482)"
         id="path36" />
    </clipPath>
    <clipPath
       clipPathUnits="userSpaceOnUse"
       id="clipPath38">
      <path
         d="M 0,660 H 660 V 0 H 0 Z"
         transform="translate(-470.71291,-363.08151)"
         id="path38" />
    </clipPath>
    <clipPath
       clipPathUnits="userSpaceOnUse"
       id="clipPath40">
      <path
         d="M 0,660 H 660 V 0 H 0 Z"
         transform="translate(-402.86041,-569.31202)"
         id="path40" />
    </clipPath>
    <clipPath
       clipPathUnits="userSpaceOnUse"
       id="clipPath42">
      <path
         d="M 0,660 H 660 V 0 H 0 Z"
         transform="translate(-499.49411,-393.44971)"
         id="path42" />
    </clipPath>
  </defs>
  <sodipodi:namedview
     id="namedview1"
     pagecolor="#ffffff"
     bordercolor="#000000"
     borderopacity="0.25"
     inkscape:showpageshadow="2"
     inkscape:pageopacity="0.0"
     inkscape:pagecheckerboard="0"
     inkscape:deskcolor="#d1d1d1"
     inkscape:zoom="0.69318182"
     inkscape:cx="439.27869"
     inkscape:cy="440"
     inkscape:window-width="1440"
     inkscape:window-height="830"
     inkscape:window-x="-6"
     inkscape:window-y="-6"
     inkscape:window-maximized="1"
     inkscape:current-layer="g1">
    <inkscape:page
       x="0"
       y="0"
       inkscape:label="1"
       id="page1"
       width="880"
       height="880"
       margin="0 0.20666666 0.20933333 0"
       bleed="0" />
  </sodipodi:namedview>
  <g
     id="g1"
     inkscape:groupmode="layer"
     inkscape:label="1">
    <g
       id="group-MC0">
      <path
         id="path2"
         d="M 0,0 H 659.845 V 659.843 H 0 Z"
         style="fill:#4f3e1d;fill-opacity:1;fill-rule:nonzero;stroke:none"
         transform="matrix(1.3333333,0,0,-1.3333333,0,880)" />
      <path
         id="path3"
         d="m 0,0 c -90.618,0 -164.08,-73.461 -164.08,-164.08 0,-90.618 73.462,-164.078 164.08,-164.078 90.619,0 164.079,73.46 164.079,164.078 C 164.079,-73.461 90.619,0 0,0 m 120.815,85.809 9.937,4.259 190.509,-375.697 -26.977,-11.561 -144.304,318.601 102.633,-349.797 -28.691,-6.936 -99.679,405.877 3.137,0.758 z"
         style="fill:#2e230c;fill-opacity:1;fill-rule:evenodd;stroke:none"
         transform="matrix(1.3333333,0,0,-1.3333333,388.24867,243.20307)"
         clip-path="url(#clipPath4)" />
      <path
         id="path5"
         d="m 0,0 c 90.372,0 164.079,73.707 164.079,164.08 0,90.371 -73.707,164.08 -164.079,164.08 -90.372,0 -164.08,-73.709 -164.08,-164.08 C -164.08,73.707 -90.372,0 0,0"
         style="fill:#d9ab57;fill-opacity:1;fill-rule:evenodd;stroke:none"
         transform="matrix(1.3333333,0,0,-1.3333333,351.99613,645.2344)"
         clip-path="url(#clipPath6)" />
      <path
         id="path7"
         d="m 0,0 c 82.699,0 150.15,67.451 150.15,150.151 0,82.699 -67.451,150.15 -150.15,150.15 -82.701,0 -150.151,-67.451 -150.151,-150.15 C -150.151,67.451 -82.701,0 0,0"
         style="fill:#634206;fill-opacity:1;fill-rule:evenodd;stroke:none"
         transform="matrix(1.3333333,0,0,-1.3333333,351.99613,626.6628)"
         clip-path="url(#clipPath8)" />
      <path
         id="path9"
         d="m 0,0 c 74.447,0 135.167,60.721 135.167,135.168 0,74.448 -60.72,135.167 -135.167,135.167 -74.448,0 -135.169,-60.719 -135.169,-135.167 C -135.169,60.721 -74.448,0 0,0"
         style="fill:#a66f08;fill-opacity:1;fill-rule:evenodd;stroke:none"
         transform="matrix(1.3333333,0,0,-1.3333333,351.99613,606.68493)"
         clip-path="url(#clipPath10)" />
      <path
         id="path11"
         d="M 0,0 C 59.481,0 107.995,48.515 107.995,107.996 107.995,167.478 59.481,215.99 0,215.99 -59.482,215.99 -107.995,167.478 -107.995,107.996 -107.995,48.515 -59.482,0 0,0"
         style="fill:#7a5105;fill-opacity:1;fill-rule:evenodd;stroke:none"
         transform="matrix(1.3333333,0,0,-1.3333333,351.99613,570.45573)"
         clip-path="url(#clipPath12)" />
      <path
         id="path13"
         d="M 0,0 C -2.205,0.803 -4.308,1.885 -6.253,3.229 L -6.072,3.213 C -0.611,2.735 4.749,1.098 9.615,-1.663 6.312,-1.686 3.058,-1.112 0,0 m 42.568,-11.004 c -1.293,-0.21 -2.6,-0.316 -3.908,-0.316 -5.858,0 -11.715,2.116 -16.328,6.348 4.631,0.471 9.232,-0.242 13.409,-1.972 2.445,-1.013 4.748,-2.378 6.827,-4.06 m 70.667,20.958 c 0.654,0.4 1.312,0.791 1.975,1.175 h 0.011 c 6.971,4.024 14.452,7.135 22.261,9.227 4.032,1.08 7.51,3.361 10.07,6.413 2.56,3.051 4.205,6.875 4.568,11.033 0.364,4.173 -0.589,8.227 -2.577,11.671 -1.985,3.44 -5.017,6.29 -8.81,8.059 -3.783,1.762 -7.919,2.25 -11.844,1.558 -3.92,-0.692 -7.634,-2.563 -10.587,-5.514 -4.469,-4.471 -7.577,-9.959 -9.157,-15.852 -1.579,-5.902 -1.634,-12.21 0.001,-18.313 0.907,-3.382 2.295,-6.558 4.089,-9.457 m 59.155,-87.147 c -1.318,4.918 -3.487,9.474 -6.336,13.509 -3.561,-11.355 -11.189,-20.407 -20.829,-25.973 -10.174,-5.874 -22.585,-7.868 -34.821,-4.59 -9.311,2.494 -18.71,2.255 -27.342,-0.228 3.85,-8.946 9.427,-17.325 16.732,-24.63 6.95,-6.952 15.79,-11.133 25.014,-12.346 9.233,-1.217 18.857,0.531 27.362,5.442 8.511,4.911 14.836,12.37 18.396,20.969 3.565,8.604 4.366,18.354 1.824,27.847 m -71.061,19.037 c -7.108,-7.106 -15.214,-12.608 -23.867,-16.5 0.739,-5.061 1.968,-10.064 3.688,-14.932 9.646,2.869 20.178,3.194 30.606,0.401 10.846,-2.907 21.841,-1.144 30.846,4.055 9.011,5.203 16.037,13.844 18.942,24.688 0.151,0.569 0.292,1.137 0.419,1.708 -0.188,0.194 -0.379,0.387 -0.57,0.58 -5.188,5.187 -11.713,9.033 -19.037,10.995 -7.329,1.964 -14.905,1.898 -21.989,0 -7.079,-1.898 -13.671,-5.627 -19.038,-10.995 M 76.855,-69.158 c 7.509,3.587 14.548,8.491 20.767,14.709 6.023,6.023 13.431,10.215 21.393,12.347 7.955,2.13 16.461,2.205 24.694,0 7.214,-1.934 13.735,-5.486 19.157,-10.251 0.494,8.103 -1.473,15.991 -5.378,22.754 v 0.011 c -5.198,9.002 -13.838,16.026 -24.686,18.932 -7.011,1.88 -13.252,5.553 -18.207,10.508 -0.95,0.951 -1.852,1.948 -2.704,2.989 -4.307,-2.975 -8.358,-6.348 -12.097,-10.088 -15.443,-15.444 -23.165,-35.688 -23.165,-55.93 0,-1.994 0.075,-3.989 0.226,-5.981 m -104.212,41.155 c 1.465,-11.134 6.499,-21.792 14.86,-30.153 5.277,-5.276 11.102,-9.665 17.295,-13.171 -1.403,-0.431 -2.818,-0.837 -4.243,-1.22 -9.048,-2.426 -18.317,-1.425 -26.314,2.305 -7.994,3.725 -14.715,10.183 -18.674,18.675 -3.961,8.492 -4.587,17.794 -2.304,26.313 2.284,8.526 7.473,16.269 15.142,21.639 2.749,1.926 5.676,3.446 8.706,4.571 -4.308,-9.207 -5.745,-19.262 -4.468,-28.959 m 81.394,46.608 c -3.92,5.109 -9.478,8.96 -16.031,10.715 -11.422,3.062 -23.164,2.096 -33.53,-2.2 -7.395,-3.062 -14.089,-7.82 -19.468,-14.017 -2.098,4.004 -3.148,8.407 -3.148,12.818 0,5.547 1.66,11.085 4.981,15.828 3.322,4.744 7.955,8.199 13.159,10.093 5.201,1.894 10.975,2.222 16.58,0.721 7.413,-1.986 14.495,-4.928 21.073,-8.725 6.575,-3.795 12.665,-8.462 18.099,-13.896 4.719,-4.72 7.079,-10.904 7.079,-17.091 0,-3.773 -0.878,-7.547 -2.635,-10.988 -0.309,6.214 -2.532,12.015 -6.159,16.742 m 4.86,-27.1 c -0.998,-3.221 -2.528,-6.232 -4.501,-8.913 3.179,-6.129 4.275,-12.931 3.414,-19.472 -0.053,-0.403 -0.114,-0.805 -0.182,-1.202 13.011,14.069 22.684,31.278 27.812,50.42 3.173,11.836 1.248,23.834 -4.427,33.663 v 0.011 c -5.672,9.823 -15.101,17.487 -26.939,20.66 l 1.351,5.059 C 68.645,68.188 79.184,59.617 85.535,48.62 l 0.005,0.004 c 6.348,-10.997 8.503,-24.413 4.959,-37.638 -5.793,-21.622 -17.131,-40.875 -32.424,-56.169 -1.549,-1.548 -3.14,-3.057 -4.769,-4.524 -1.347,-2.217 -2.971,-4.301 -4.867,-6.196 L 29.368,-74.975 c 4.962,-1.007 10.004,-1.513 15.048,-1.513 9.292,0 18.585,1.714 27.364,5.134 -0.263,2.717 -0.394,5.45 -0.394,8.177 0,21.584 8.234,43.169 24.702,59.638 3.932,3.932 8.203,7.491 12.753,10.636 -2.087,3.352 -3.702,7.036 -4.753,10.962 -1.877,7.005 -1.815,14.247 0,21.015 1.815,6.778 5.38,13.081 10.507,18.207 3.729,3.73 8.429,6.095 13.393,6.97 4.958,0.875 10.179,0.26 14.958,-1.968 4.771,-2.225 8.599,-5.836 11.123,-10.208 2.521,-4.367 3.734,-9.482 3.275,-14.723 -0.459,-5.251 -2.539,-10.082 -5.778,-13.942 -3.24,-3.86 -7.637,-6.748 -12.732,-8.114 -7.398,-1.981 -14.457,-4.911 -21.004,-8.689 L 117.832,6.6 c -0.507,-0.292 -1.009,-0.587 -1.509,-0.89 0.63,-0.744 1.29,-1.463 1.979,-2.151 4.321,-4.32 9.755,-7.521 15.852,-9.155 12.23,-3.278 21.98,-11.209 27.856,-21.383 l 0.005,10e-4 c 5.129,-8.883 7.298,-19.477 5.582,-30.168 4.563,-5.327 7.972,-11.683 9.849,-18.696 2.847,-10.623 1.948,-21.543 -2.045,-31.184 -3.995,-9.647 -11.086,-18.009 -20.608,-23.509 -9.53,-5.502 -20.314,-7.461 -30.661,-6.099 -10.356,1.364 -20.269,6.045 -28.044,13.822 -7.89,7.887 -13.889,16.952 -17.998,26.627 -2.243,-0.903 -4.419,-1.961 -6.509,-3.168 -11.329,-6.541 -20.166,-17.411 -23.823,-31.059 -1.675,-6.251 -5.217,-11.645 -9.951,-15.617 -4.735,-3.973 -10.662,-6.525 -17.104,-7.087 -6.439,-0.564 -12.718,0.923 -18.075,4.013 -5.353,3.092 -9.776,7.788 -12.508,13.648 -2.734,5.861 -3.489,12.267 -2.416,18.352 1.072,6.088 3.974,11.853 8.548,16.426 l 22.975,22.974 c -2.656,0.873 -5.276,1.886 -7.847,3.042 -3.101,-1.101 -6.261,-2.084 -9.473,-2.946 -10.279,-2.752 -20.803,-1.62 -29.879,2.614 -9.08,4.233 -16.716,11.566 -21.213,21.211 -4.495,9.641 -5.205,20.202 -2.612,29.88 2.592,9.669 8.49,18.461 17.212,24.568 4.756,3.331 9.974,5.599 15.353,6.831 0.253,0.387 0.512,0.771 0.775,1.15 -3.285,5.293 -4.927,11.289 -4.927,17.274 0,6.576 1.982,13.159 5.944,18.817 3.959,5.655 9.471,9.768 15.659,12.02 6.19,2.252 13.054,2.647 19.712,0.864 7.847,-2.103 15.356,-5.224 22.343,-9.259 6.992,-4.035 13.447,-8.976 19.185,-14.713 5.744,-5.745 8.616,-13.273 8.616,-20.799 0,-7.527 -2.872,-15.055 -8.616,-20.8 -0.185,-0.184 -0.373,-0.366 -0.562,-0.546 m -4.634,2.883 c -1.794,-1.52 -3.759,-2.737 -5.825,-3.649 -3.09,3.088 -6.739,5.505 -10.71,7.151 C 31.42,0.502 24.307,1.163 17.347,-0.525 10.58,4.701 2.58,7.719 -5.621,8.435 -7.732,8.621 -9.858,8.652 -11.98,8.529 l -0.019,0.024 c 4.989,6.124 11.367,10.796 18.461,13.734 9.329,3.863 19.901,4.732 30.193,1.976 5.41,-1.449 9.995,-4.622 13.224,-8.831 3.231,-4.213 5.112,-9.466 5.112,-15.073 0,-2.048 -0.251,-4.05 -0.728,-5.971 M 23.589,-69.593 c 2.673,1.28 5.293,2.651 7.855,4.109 l -6.173,-6.173 c -0.592,0.657 -1.154,1.346 -1.682,2.064 m -4.19,8.759 c -1.881,7.023 -0.74,14.141 2.625,19.969 v 0.011 c 3.364,5.825 8.957,10.369 15.982,12.253 4.83,1.293 9.119,3.726 12.61,6.962 2.006,-4.665 2.652,-9.701 2.012,-14.567 -0.465,-3.531 -1.612,-6.975 -3.412,-10.124 -8.441,-7.502 -17.954,-13.828 -28.292,-18.731 -0.617,1.342 -1.13,2.753 -1.525,4.227 m -3.253,-6.363 c -0.73,1.59 -1.336,3.263 -1.805,5.011 -2.255,8.413 -0.883,16.947 3.157,23.944 l 0.004,-0.004 c 4.042,6.997 10.745,12.45 19.153,14.704 4.433,1.187 8.311,3.533 11.343,6.655 -0.351,0.513 -0.717,1.012 -1.099,1.497 -2.687,-0.782 -5.463,-1.173 -8.239,-1.173 -7.527,0 -15.055,2.873 -20.799,8.614 -0.595,0.598 -1.207,1.17 -1.832,1.719 -6.054,-1.243 -12.208,-0.725 -17.81,1.315 -4.608,1.676 -8.841,4.387 -12.338,7.994 -0.632,-0.076 -1.261,-0.167 -1.889,-0.274 L -16.273,2.349 V 2.341 c -5.325,-9.223 -7.22,-19.657 -5.902,-29.668 1.316,-10.001 5.85,-19.587 13.385,-27.122 6.126,-6.126 13.045,-10.973 20.428,-14.545 1.518,0.569 3.021,1.167 4.508,1.797 m 2.775,-4.856 -0.183,0.264 -0.252,-0.107 z m 34.063,-12.446 c -8.406,-2.252 -16.938,-0.883 -23.933,3.155 -0.864,0.499 -1.703,1.04 -2.516,1.616 -0.518,0.119 -1.036,0.241 -1.552,0.37 L -0.04,-104.383 c -3.799,-3.799 -6.207,-8.578 -7.095,-13.625 -0.89,-5.05 -0.263,-10.367 2.007,-15.237 2.271,-4.869 5.94,-8.769 10.378,-11.33 4.433,-2.56 9.645,-3.788 15.001,-3.32 5.352,0.47 10.271,2.584 14.197,5.879 3.924,3.293 6.862,7.769 8.252,12.956 4.028,15.032 13.776,27.016 26.28,34.235 2.318,1.338 4.73,2.511 7.219,3.511 -1.685,4.771 -2.927,9.663 -3.727,14.614 -6.582,-2.444 -13.419,-3.997 -20.327,-4.66 z"
         style="fill:#dea131;fill-opacity:1;fill-rule:evenodd;stroke:none"
         transform="matrix(1.3333333,0,0,-1.3333333,257.612,373.4596)"
         clip-path="url(#clipPath14)" />
      <path
         id="path15"
         d="m 0,0 c 0.861,-1.769 1.543,-3.625 2.031,-5.542 3.097,0.968 6.115,2.282 9.002,3.947 l -0.002,0.005 c 7.749,4.475 13.788,11.04 17.618,18.701 3.829,7.658 5.455,16.429 4.383,25.32 -0.813,6.746 -3.636,12.905 -7.892,17.812 -4.257,4.906 -9.954,8.569 -16.519,10.328 -6.57,1.76 -13.339,1.437 -19.479,-0.683 -6.143,-2.124 -11.667,-6.046 -15.745,-11.482 -2.687,-3.581 -4.479,-7.688 -5.308,-11.986 -0.83,-4.294 -0.696,-8.775 0.465,-13.111 1.162,-4.338 3.286,-8.285 6.148,-11.584 2.862,-3.301 6.467,-5.959 10.593,-7.722 C -8.064,11.168 -2.967,6.103 0,0 m -42.727,-32.683 c 4.326,-1.796 8.947,-3.032 13.774,-3.614 5.88,-0.709 11.574,0.797 16.178,3.909 4.602,3.114 8.12,7.829 9.65,13.545 0.613,2.285 0.871,4.592 0.805,6.854 -3.956,-0.723 -7.973,-0.963 -11.959,-0.723 -9.556,0.574 -18.949,3.898 -26.943,9.894 l -0.649,0.495 c 0.932,-1.903 1.676,-3.888 2.222,-5.924 1.8,-6.724 1.454,-14.028 -1.333,-20.826 -0.512,-1.251 -1.096,-2.454 -1.745,-3.61 M -74.685,10.49 c 0.061,-0.404 0.116,-0.81 0.165,-1.22 1.439,-11.932 6.864,-22.602 14.914,-30.652 3.573,-3.573 7.661,-6.628 12.149,-9.047 0.615,1.064 1.164,2.179 1.641,3.34 2.336,5.7 2.624,11.835 1.109,17.489 -1.516,5.655 -4.833,10.822 -9.705,14.589 -4.881,3.773 -10.715,5.685 -16.557,5.726 -1.241,0.011 -2.483,-0.066 -3.716,-0.225 m -41.554,-9.089 c -1.93,2.725 -4.602,4.928 -7.796,6.291 -4.824,2.061 -8.525,5.74 -10.68,10.173 -2.153,4.423 -2.761,9.599 -1.405,14.66 1.358,5.067 4.475,9.25 8.556,12.008 4.077,2.757 9.116,4.091 14.317,3.466 10.149,-1.226 19.221,-5.834 26.057,-12.673 5.377,-5.375 9.374,-12.131 11.432,-19.706 1.595,0.224 3.203,0.33 4.809,0.32 5.811,-0.043 11.607,-1.629 16.738,-4.753 -0.434,0.677 -0.85,1.364 -1.253,2.062 -3.584,6.208 -5.923,13.123 -6.796,20.364 -1.509,12.512 -7.198,23.703 -15.64,32.146 -8.442,8.44 -19.632,14.13 -32.145,15.638 -8.979,1.083 -17.76,-0.894 -25.146,-5.23 -7.39,-4.338 -13.397,-11.041 -16.825,-19.399 -3.423,-8.352 -3.847,-17.34 -1.627,-25.626 2.22,-8.283 7.079,-15.854 14.222,-21.375 6.848,-5.295 14.982,-8.088 23.182,-8.366 m 4.433,2.78 c 0.561,-0.813 1.072,-1.663 1.527,-2.542 6.914,0.791 13.666,3.38 19.52,7.773 3.049,2.287 6.396,3.973 9.885,5.057 -1.832,6.583 -5.332,12.462 -10.022,17.152 -6.033,6.03 -14.027,10.097 -22.966,11.174 -3.916,0.472 -7.708,-0.531 -10.774,-2.603 -3.064,-2.071 -5.406,-5.214 -6.425,-9.019 -1.02,-3.809 -0.563,-7.705 1.057,-11.035 1.615,-3.324 4.394,-6.086 8.017,-7.633 4.195,-1.79 7.69,-4.711 10.181,-8.324 m -54.817,-60.548 c -4.477,3.357 -7.168,8.209 -7.9,13.336 -0.731,5.125 0.495,10.534 3.853,15.01 3.359,4.477 8.21,7.167 13.336,7.901 5.125,0.73 10.535,-0.495 15.011,-3.855 2.836,-2.127 6.165,-3.343 9.576,-3.618 3.414,-0.27 6.896,0.4 10.037,2.047 3.153,1.658 5.685,4.14 7.389,7.091 1.709,2.959 2.595,6.396 2.452,9.954 -0.064,1.608 -0.337,3.175 -0.796,4.671 -0.505,-0.014 -1.009,-0.019 -1.515,-0.016 -9.695,0.072 -19.362,3.235 -27.436,9.475 -8.082,6.247 -13.579,14.806 -16.086,24.161 -2.506,9.353 -2.023,19.512 1.852,28.962 3.872,9.445 10.661,17.017 19.017,21.921 8.359,4.907 18.278,7.147 28.403,5.926 13.722,-1.655 25.99,-7.887 35.237,-17.135 9.246,-9.245 15.48,-21.514 17.135,-35.236 0.79,-6.553 2.897,-12.795 6.12,-18.379 3.227,-5.589 7.577,-10.533 12.851,-14.49 7.148,-5.363 15.556,-8.335 24.114,-8.849 3.644,-0.218 7.314,0.007 10.924,0.685 -0.4,1.566 -0.956,3.086 -1.661,4.532 -2.429,4.993 -6.601,9.141 -12.043,11.464 -4.863,2.077 -9.118,5.216 -12.498,9.114 -3.381,3.898 -5.887,8.548 -7.254,13.653 -1.369,5.106 -1.525,10.386 -0.548,15.446 0.977,5.057 3.094,9.9 6.272,14.136 4.716,6.287 11.109,10.826 18.223,13.283 7.117,2.461 14.948,2.84 22.532,0.806 7.588,-2.033 14.185,-6.276 19.117,-11.966 4.933,-5.686 8.202,-12.814 9.144,-20.617 C 39.428,33.144 37.606,23.35 33.32,14.777 29.035,6.208 22.296,-1.126 13.652,-6.117 h -0.01 c -3.45,-1.991 -7.07,-3.534 -10.78,-4.633 0.208,-3.107 -0.083,-6.29 -0.928,-9.443 -1.869,-6.979 -6.162,-12.739 -11.78,-16.537 -5.616,-3.795 -12.556,-5.634 -19.722,-4.769 -5.682,0.686 -11.103,2.19 -16.144,4.394 -2.502,-3.122 -5.543,-5.734 -8.945,-7.73 -6.013,-3.531 -13.145,-5.143 -20.422,-4.265 -8.577,1.035 -16.838,-1.272 -23.411,-5.947 -6.573,-4.674 -11.465,-11.716 -13.302,-20.149 -1.84,-8.445 -0.322,-16.888 3.71,-23.872 4.033,-6.989 10.581,-12.523 18.802,-15.147 8.224,-2.626 16.775,-1.91 24.116,1.449 7.334,3.356 13.463,9.353 16.853,17.291 2.123,4.974 5.625,9.072 9.946,11.925 4.33,2.857 9.475,4.473 14.873,4.473 5.398,0 10.543,-1.616 14.872,-4.473 4.322,-2.853 7.824,-6.951 9.947,-11.925 1.756,-4.111 2.233,-8.546 1.518,-12.78 -0.715,-4.24 -2.623,-8.278 -5.633,-11.587 -3.011,-3.309 -6.85,-5.589 -11,-6.701 -4.14,-1.109 -8.6,-1.052 -12.865,0.309 -3.762,1.203 -7.057,3.312 -9.652,6.054 v 0.011 c -2.628,2.776 -4.55,6.193 -5.531,9.965 l 5.059,1.311 c 0.757,-2.916 2.237,-5.551 4.256,-7.686 l 0.005,0.004 c 2.014,-2.127 4.554,-3.761 7.44,-4.682 3.282,-1.046 6.726,-1.088 9.936,-0.227 3.2,0.856 6.16,2.615 8.481,5.166 2.322,2.551 3.792,5.662 4.343,8.925 0.552,3.271 0.185,6.698 -1.17,9.872 -1.71,4.004 -4.534,7.305 -8.022,9.609 -3.476,2.294 -7.622,3.592 -11.984,3.592 -4.362,0 -8.508,-1.298 -11.985,-3.592 -3.486,-2.304 -6.311,-5.605 -8.021,-9.609 -3.918,-9.178 -11.008,-16.114 -19.496,-19.997 -8.481,-3.881 -18.36,-4.709 -27.863,-1.674 -9.51,3.036 -17.086,9.439 -21.752,17.522 -4.667,8.082 -6.426,17.839 -4.304,27.58 2.124,9.75 7.785,17.895 15.393,23.305 7.606,5.408 17.156,8.082 27.056,6.888 6.132,-0.74 12.126,0.609 17.164,3.568 2.528,1.482 4.819,3.373 6.77,5.606 -4.709,2.609 -9.009,5.859 -12.783,9.633 -8.855,8.856 -14.824,20.603 -16.41,33.746 l -0.087,0.668 c -2.755,-0.914 -5.398,-2.277 -7.815,-4.091 -6.246,-4.685 -13.392,-7.554 -20.74,-8.614 0.407,-1.589 0.652,-3.236 0.719,-4.915 0.182,-4.555 -0.956,-8.96 -3.148,-12.759 -2.198,-3.807 -5.448,-7 -9.479,-9.118 -4.046,-2.126 -8.517,-2.991 -12.883,-2.641 -4.367,0.348 -8.644,1.919 -12.3,4.662 -3.315,2.487 -7.33,3.392 -11.141,2.85 -3.808,-0.544 -7.408,-2.538 -9.894,-5.853 -2.487,-3.314 -3.394,-7.33 -2.85,-11.14 0.544,-3.809 2.538,-7.408 5.852,-9.894 z"
         style="fill:#fcc358;fill-opacity:1;fill-rule:evenodd;stroke:none"
         transform="matrix(1.3333333,0,0,-1.3333333,437.7448,411.30733)"
         clip-path="url(#clipPath16)" />
      <path
         id="path17"
         d="m 0,0 c 3.183,3.816 5.448,8.236 6.703,12.921 1.514,5.651 1.568,11.692 0,17.537 -1.564,5.84 -4.63,11.043 -8.767,15.179 -4.138,4.137 -9.342,7.205 -15.181,8.769 -5.845,1.567 -11.886,1.513 -17.536,0 -5.643,-1.512 -10.899,-4.487 -15.179,-8.769 -3.569,-3.568 -5.716,-8.104 -6.337,-12.83 -0.625,-4.743 0.273,-9.685 2.792,-14.051 2.517,-4.358 6.343,-7.603 10.756,-9.431 4.415,-1.83 9.42,-2.239 14.294,-0.935 7.578,2.032 15.266,0.795 21.571,-2.845 h 0.011 C -4.322,4.072 -1.999,2.206 0,0 m -5.178,-19.774 c -0.607,-4.607 0.123,-9.39 2.27,-13.732 0.705,0.889 1.344,1.831 1.913,2.813 2.967,5.142 3.974,11.421 2.312,17.62 -0.442,1.651 -1.051,3.211 -1.805,4.671 -2.573,-3.375 -4.155,-7.308 -4.69,-11.372 m -94.923,13.812 c 2.578,-6.88 3.867,-14.134 3.867,-21.386 0,-15.574 -5.941,-31.148 -17.824,-43.031 -4.181,-4.181 -7.087,-9.315 -8.564,-14.827 -1.48,-5.519 -1.531,-11.421 -0.001,-17.129 1.528,-5.704 4.524,-10.787 8.565,-14.829 4.041,-4.041 9.124,-7.035 14.828,-8.564 5.812,-1.558 11.82,-1.505 17.438,0 5.612,1.503 10.839,4.463 15.096,8.72 4.256,4.256 7.215,9.481 8.719,15.094 1.505,5.619 1.557,11.626 0,17.44 -1.524,5.689 -0.898,11.513 1.443,16.535 2.345,5.025 6.405,9.252 11.744,11.742 5.333,2.487 11.179,2.88 16.535,1.444 5.349,-1.432 10.215,-4.699 13.596,-9.53 3.381,-4.828 4.786,-10.513 4.304,-16.024 -0.484,-5.526 -2.852,-10.888 -7.017,-15.052 -2.266,-2.265 -3.702,-5.115 -4.232,-8.122 -0.531,-3.014 -0.157,-6.186 1.197,-9.091 1.359,-2.91 3.544,-5.237 6.18,-6.759 h 0.011 c 2.64,-1.526 5.749,-2.257 8.948,-1.976 3.193,0.278 6.126,1.539 8.467,3.503 2.34,1.964 4.092,4.633 4.919,7.726 1.746,6.515 5.159,12.313 9.763,16.916 4.601,4.602 10.398,8.015 16.912,9.76 2.881,0.772 5.448,2.285 7.49,4.328 2.043,2.044 3.559,4.611 4.33,7.491 0.772,2.886 0.748,5.868 0,8.656 -0.747,2.784 -2.216,5.377 -4.33,7.489 -2.113,2.115 -4.706,3.584 -7.488,4.329 -2.789,0.748 -5.772,0.774 -8.658,0 -6.376,-1.708 -12.931,-1.167 -18.718,1.229 -4.29,1.778 -8.156,4.57 -11.214,8.221 -2.877,-2.208 -6.223,-3.899 -9.942,-4.895 -7.577,-2.031 -15.266,-0.796 -21.571,2.845 -6.31,3.644 -11.23,9.688 -13.26,17.269 -2.225,8.299 -7.602,14.912 -14.499,18.893 -6.893,3.98 -15.308,5.328 -23.611,3.104 -4.437,-1.189 -8.96,-1.682 -13.423,-1.519 m -17.664,17.938 c -4.385,4.382 -9.738,7.21 -15.371,8.477 1.39,-3.449 3.479,-6.661 6.237,-9.419 5.043,-5.044 11.225,-8.561 17.867,-10.372 -2.358,4.043 -5.269,7.848 -8.733,11.314 m -15.137,-151.65 c -4.591,-4.591 -10.609,-6.887 -16.625,-6.887 -6.017,0 -12.035,2.296 -16.626,6.887 -4.59,4.59 -6.886,10.609 -6.886,16.626 0,6.015 2.296,12.034 6.886,16.624 9.667,9.667 14.501,22.336 14.501,35.006 0,12.669 -4.834,25.338 -14.501,35.006 -7.193,7.191 -10.789,16.62 -10.789,26.046 0,9.426 3.596,18.855 10.789,26.048 7.193,7.193 16.621,10.788 26.048,10.788 h 0.004 l -0.024,0.178 c -0.937,7.123 0.412,14.547 4.201,21.11 3.818,6.615 9.639,11.528 16.232,14.148 6.557,2.609 13.881,2.958 20.78,0.48 l -1.761,-4.915 c -5.654,2.03 -11.681,1.735 -17.094,-0.419 -5.53,-2.198 -10.417,-6.327 -13.63,-11.895 -3.2,-5.54 -4.338,-11.814 -3.546,-17.833 0.055,-0.416 0.118,-0.829 0.193,-1.241 7.571,-1.109 14.865,-4.574 20.692,-10.401 4.876,-4.876 8.751,-10.374 11.626,-16.24 4.76,-0.472 9.637,-0.104 14.403,1.175 9.692,2.596 19.524,1.017 27.583,-3.637 8.057,-4.65 14.338,-12.375 16.936,-22.07 1.66,-6.196 5.667,-11.127 10.803,-14.092 5.142,-2.968 11.421,-3.974 17.619,-2.315 3.118,0.838 5.917,2.268 8.306,4.136 -3.24,5.686 -4.389,12.102 -3.578,18.261 0.727,5.526 3.024,10.84 6.797,15.226 -1.7,1.961 -3.71,3.61 -5.933,4.893 l 0.003,0.005 c -5.14,2.964 -11.416,3.969 -17.61,2.308 -6.005,-1.61 -12.18,-1.099 -17.632,1.159 -5.454,2.259 -10.183,6.27 -13.297,11.662 -3.11,5.389 -4.218,11.483 -3.447,17.329 0.77,5.86 3.417,11.467 7.811,15.863 4.937,4.936 11.009,8.371 17.536,10.119 6.52,1.747 13.493,1.808 20.239,0 6.753,-1.809 12.764,-5.349 17.536,-10.119 4.772,-4.772 8.31,-10.783 10.119,-17.536 1.807,-6.746 1.747,-13.72 0,-20.24 C 10.205,5.757 7.311,0.308 3.211,-4.303 c 1.37,-2.255 2.448,-4.742 3.166,-7.418 2.029,-7.581 0.794,-15.269 -2.846,-21.573 -0.99,-1.714 -2.157,-3.325 -3.483,-4.804 2.535,-3.096 5.766,-5.46 9.355,-6.947 4.752,-1.968 10.139,-2.409 15.384,-1.005 3.784,1.015 7.698,0.98 11.359,0 3.665,-0.982 7.076,-2.909 9.845,-5.679 2.771,-2.77 4.699,-6.18 5.68,-9.847 0.979,-3.659 1.015,-7.573 0,-11.359 -1.016,-3.794 -3.003,-7.169 -5.68,-9.845 -2.677,-2.678 -6.052,-4.665 -9.845,-5.679 -5.6,-1.501 -10.591,-4.442 -14.558,-8.412 -3.968,-3.966 -6.91,-8.956 -8.41,-14.558 -1.113,-4.155 -3.47,-7.744 -6.62,-10.389 -3.15,-2.641 -7.091,-4.338 -11.375,-4.713 -4.28,-0.374 -8.456,0.616 -12.021,2.672 l 0.002,0.004 c -3.567,2.062 -6.51,5.184 -8.323,9.071 -1.818,3.9 -2.319,8.158 -1.606,12.203 0.714,4.053 2.644,7.886 5.686,10.929 3.265,3.266 5.122,7.466 5.501,11.795 0.38,4.343 -0.717,8.807 -3.362,12.585 -2.644,3.776 -6.462,6.334 -10.666,7.46 -4.199,1.125 -8.784,0.815 -12.973,-1.138 -4.184,-1.95 -7.366,-5.262 -9.202,-9.202 -1.839,-3.942 -2.333,-8.513 -1.137,-12.972 1.798,-6.711 1.738,-13.653 0,-20.141 -1.741,-6.496 -5.158,-12.537 -10.072,-17.451 -4.912,-4.913 -10.955,-8.331 -17.45,-10.071 -6.489,-1.74 -13.429,-1.798 -20.142,0 -6.618,1.774 -12.507,5.242 -17.183,9.917 -4.675,4.675 -8.144,10.567 -9.916,17.182 -1.772,6.611 -1.712,13.444 0,19.834 1.713,6.394 5.079,12.346 9.916,17.184 10.858,10.857 16.288,25.09 16.288,39.322 0,7.494 -1.506,14.987 -4.517,21.987 -1.421,0.24 -2.83,0.546 -4.221,0.918 -7.589,2.033 -14.649,6.026 -20.391,11.77 -3.974,3.972 -6.774,8.76 -8.338,13.88 -0.386,0.014 -0.774,0.021 -1.161,0.021 -8.086,0 -16.172,-3.085 -22.341,-9.252 -6.168,-6.17 -9.253,-14.256 -9.253,-22.342 0,-8.086 3.085,-16.172 9.253,-22.341 10.69,-10.689 16.036,-24.701 16.036,-38.711 0,-14.01 -5.346,-28.023 -16.036,-38.711 -3.567,-3.569 -5.35,-8.244 -5.35,-12.919 0,-4.677 1.784,-9.354 5.35,-12.919 3.567,-3.567 8.242,-5.351 12.919,-5.351 4.675,0 9.351,1.784 12.918,5.351 z"
         style="fill:#ffd587;fill-opacity:1;fill-rule:evenodd;stroke:none"
         transform="matrix(1.3333333,0,0,-1.3333333,455.1432,367.79493)"
         clip-path="url(#clipPath18)" />
      <path
         id="path19"
         d="m 0,0 c 0,4.975 2.018,9.481 5.278,12.741 3.262,3.26 7.766,5.28 12.742,5.28 4.976,0 9.48,-2.018 12.742,-5.28 3.26,-3.26 5.279,-7.766 5.279,-12.741 0,-5.942 2.408,-11.32 6.301,-15.217 3.9,-3.899 9.28,-6.311 15.216,-6.311 v 0.01 c 5.942,0 11.321,2.409 15.215,6.301 3.893,3.897 6.301,9.274 6.301,15.217 0,7.542 2.017,14.804 5.67,21.131 3.647,6.315 8.927,11.688 15.462,15.462 4.507,2.601 9.526,3.903 14.539,3.903 5.012,0 10.033,-1.302 14.54,-3.903 4.494,-2.595 8.127,-6.293 10.636,-10.638 v -0.009 c 2.514,-4.356 3.902,-9.35 3.902,-14.529 0,-4.153 1.293,-8.077 3.556,-11.31 2.266,-3.236 5.509,-5.794 9.403,-7.211 3.892,-1.417 8.023,-1.541 11.847,-0.515 3.821,1.025 7.333,3.194 9.994,6.364 2.661,3.173 4.189,7.01 4.534,10.951 0.345,3.954 -0.492,8.003 -2.558,11.583 -2.553,4.423 -3.83,9.344 -3.83,14.255 0,4.918 1.277,9.843 3.83,14.264 l 0.004,-0.002 c 2.552,4.418 6.177,7.982 10.431,10.439 4.273,2.468 9.176,3.829 14.265,3.829 2.766,0 5.36,0.928 7.436,2.521 2.073,1.59 3.638,3.851 4.353,6.52 0.716,2.673 0.491,5.419 -0.51,7.84 -1.001,2.413 -2.782,4.51 -5.179,5.894 l 0.003,0.006 c -10.258,5.919 -21.951,7.119 -32.563,4.276 -10.608,-2.843 -20.132,-9.731 -26.057,-19.993 -4.029,-6.978 -10.156,-12.17 -17.225,-15.098 -7.064,-2.927 -15.065,-3.587 -22.846,-1.502 -7.786,2.088 -14.39,6.663 -19.048,12.732 -4.648,6.061 -7.353,13.617 -7.354,21.684 0,5.616 1.497,11.019 4.208,15.715 l 0.004,-0.004 c 2.714,4.697 6.642,8.695 11.503,11.501 4.515,2.605 8.668,5.806 12.364,9.501 3.695,3.696 6.896,7.851 9.502,12.366 3.765,6.52 4.529,13.958 2.72,20.709 -1.809,6.748 -6.186,12.805 -12.701,16.567 -6.522,3.765 -13.96,4.53 -20.712,2.721 -6.744,-1.807 -12.8,-6.186 -16.566,-12.71 -4.013,-6.95 -6.019,-14.714 -6.019,-22.487 0,-7.772 2.006,-15.536 6.019,-22.484 3.22,-5.578 4.368,-11.894 3.57,-17.951 C 79.403,96.319 76.662,90.515 72.113,85.965 67.562,81.415 61.757,78.675 55.689,77.876 49.631,77.078 43.318,78.225 37.738,81.447 33.029,84.165 27.677,84.996 22.623,84.106 17.576,83.216 12.832,80.606 9.337,76.438 5.839,72.27 4.09,67.142 4.09,62.015 c 0,-5.13 1.749,-10.257 5.247,-14.426 3.495,-4.165 8.239,-6.779 13.286,-7.667 5.054,-0.892 10.406,-0.061 15.115,2.659 3.739,2.158 7.903,3.237 12.058,3.237 4.155,0 8.318,-1.079 12.057,-3.237 3.72,-2.149 6.733,-5.217 8.818,-8.83 2.079,-3.601 3.228,-7.741 3.227,-12.046 h 0.011 c 0,-0.862 -0.047,-1.783 -0.14,-2.764 -0.088,-0.956 -0.217,-1.873 -0.383,-2.749 l -5.141,0.963 c 0.145,0.772 0.254,1.526 0.322,2.256 0.066,0.692 0.098,1.456 0.098,2.294 h 0.011 c 0,3.374 -0.901,6.621 -2.531,9.446 -1.625,2.814 -3.986,5.214 -6.914,6.903 -2.912,1.68 -6.169,2.521 -9.435,2.521 -3.267,0 -6.525,-0.841 -9.436,-2.521 -5.82,-3.361 -12.42,-4.39 -18.638,-3.293 -6.226,1.096 -12.08,4.322 -16.399,9.469 -4.317,5.144 -6.476,11.466 -6.476,17.785 0,6.317 2.159,12.637 6.476,17.781 4.319,5.147 10.173,8.373 16.399,9.471 6.218,1.097 12.818,0.066 18.638,-3.295 4.554,-2.627 9.708,-3.566 14.654,-2.914 4.934,0.648 9.667,2.89 13.391,6.614 3.725,3.724 5.965,8.458 6.614,13.391 0.651,4.945 -0.286,10.099 -2.915,14.654 -4.49,7.776 -6.735,16.445 -6.735,25.106 0,8.661 2.245,17.333 6.735,25.108 4.49,7.775 11.706,12.995 19.742,15.148 8.03,2.151 16.885,1.236 24.663,-3.253 7.784,-4.494 13.008,-11.709 15.16,-19.742 2.151,-8.03 1.237,-16.886 -3.253,-24.664 -2.867,-4.965 -6.342,-9.49 -10.321,-13.47 -3.98,-3.979 -8.503,-7.454 -13.47,-10.321 -4.049,-2.337 -7.322,-5.669 -9.582,-9.582 v -0.01 c -2.262,-3.917 -3.511,-8.418 -3.511,-13.093 0,-6.875 2.313,-13.327 6.289,-18.508 3.967,-5.17 9.597,-9.068 16.242,-10.847 6.65,-1.783 13.481,-1.222 19.507,1.274 6.021,2.493 11.244,6.925 14.686,12.886 6.646,11.514 17.331,19.242 29.232,22.431 11.892,3.187 25.008,1.834 36.522,-4.814 h 0.011 c 3.413,-1.97 5.955,-4.971 7.389,-8.435 1.433,-3.458 1.756,-7.372 0.735,-11.178 -1.019,-3.811 -3.26,-7.045 -6.235,-9.326 -2.972,-2.279 -6.67,-3.606 -10.611,-3.606 -4.168,0 -8.172,-1.107 -11.643,-3.113 -3.49,-2.014 -6.455,-4.926 -8.532,-8.52 v -0.01 c -2.075,-3.595 -3.112,-7.615 -3.112,-11.644 0,-4.035 1.037,-8.059 3.112,-11.653 2.627,-4.547 3.691,-9.661 3.255,-14.635 -0.435,-4.985 -2.372,-9.841 -5.742,-13.858 -3.372,-4.02 -7.82,-6.769 -12.656,-8.064 -4.83,-1.295 -10.052,-1.137 -14.98,0.656 -4.924,1.792 -9.028,5.034 -11.902,9.136 -2.877,4.109 -4.519,9.07 -4.519,14.301 0,4.269 -1.131,8.366 -3.182,11.921 l -0.004,-0.003 c -2.06,3.565 -5.041,6.6 -8.731,8.73 -3.679,2.125 -7.795,3.188 -11.918,3.188 -4.122,0 -8.239,-1.064 -11.917,-3.188 C 97.098,28.759 92.467,24.047 89.271,18.509 86.079,12.982 84.318,6.62 84.318,0 c 0,-7.39 -2.995,-14.08 -7.839,-18.922 -4.842,-4.843 -11.532,-7.839 -18.921,-7.839 v 0.011 c -7.396,0 -14.087,2.99 -18.922,7.828 C 33.793,-14.08 30.797,-7.39 30.797,0 c 0,3.527 -1.43,6.724 -3.741,9.034 -2.313,2.314 -5.508,3.742 -9.036,3.742 -3.529,0 -6.723,-1.428 -9.035,-3.742 C 6.674,6.722 5.244,3.527 5.244,0 Z"
         style="fill:#dea131;fill-opacity:1;fill-rule:evenodd;stroke:none"
         transform="matrix(1.3333333,0,0,-1.3333333,197.9212,495.75907)"
         clip-path="url(#clipPath20)" />
      <path
         id="path21"
         d="M 0,0 C -2.73,0 -5.387,-0.37 -7.918,-1.065 -3.73,-3.118 0.639,-4.753 5.123,-5.954 10.197,-7.312 15.42,-8.117 20.697,-8.341 20.099,-7.765 19.477,-7.215 18.833,-6.69 13.663,-2.481 7.077,0 0,0 m -29.208,-23.764 c -0.468,-2.258 -0.647,-4.538 -0.556,-6.788 5.146,0.923 10.368,0.756 15.348,-0.426 5.987,-1.42 11.627,-4.306 16.366,-8.529 2.672,-2.381 5.951,-3.771 9.335,-4.117 3.39,-0.348 6.884,0.346 9.977,2.129 l -0.002,0.003 c 3.099,1.79 5.45,4.47 6.84,7.57 1.395,3.111 1.833,6.652 1.108,10.158 -0.765,3.693 -2.195,7.107 -4.149,10.129 -7.214,-0.121 -14.379,0.772 -21.288,2.621 -6.28,1.684 -12.346,4.16 -18.045,7.384 -1.614,-0.88 -3.14,-1.905 -4.561,-3.06 -5.174,-4.213 -8.94,-10.156 -10.373,-17.074 M 3.763,-56.736 c 5.348,1.109 10.692,1.14 15.795,0.237 0.478,2.132 1.28,4.221 2.42,6.195 v 0.012 c 2.611,4.522 6.629,7.817 11.232,9.568 4.607,1.756 9.8,1.971 14.755,0.33 3.339,-1.103 6.835,-1.068 10.008,-0.048 3.184,1.022 6.049,3.026 8.115,5.856 2.058,2.826 3.09,6.166 3.09,9.52 0,3.351 -1.032,6.692 -3.09,9.516 -2.066,2.833 -4.931,4.837 -8.115,5.859 -3.173,1.018 -6.669,1.052 -10.008,-0.051 -5.605,-1.853 -11.319,-3.034 -17.039,-3.568 1.547,-2.9 2.708,-6.058 3.402,-9.41 0.952,-4.6 0.376,-9.247 -1.455,-13.332 -1.835,-4.091 -4.923,-7.617 -8.991,-9.965 h -0.011 c -4.072,-2.353 -8.667,-3.265 -13.119,-2.81 -4.46,0.457 -8.777,2.282 -12.284,5.406 -4.078,3.634 -8.935,6.121 -14.093,7.344 -4.362,1.034 -8.937,1.168 -13.434,0.33 0.131,-0.563 0.279,-1.12 0.445,-1.673 1.302,-4.357 3.677,-8.399 6.999,-11.722 3.322,-3.322 7.365,-5.696 11.722,-7 4.372,-1.306 9.06,-1.546 13.656,-0.594 m 41.736,-25.532 c -3.249,6.983 -8.521,12.579 -14.894,16.259 h -0.009 c -1.983,1.144 -4.072,2.105 -6.241,2.864 0.031,-0.281 0.069,-0.561 0.113,-0.841 0.597,-3.701 2.436,-7.208 5.411,-9.86 4.534,-4.037 9.887,-6.885 15.591,-8.413 z M -53.894,-97.54 c -2.143,-1.909 -3.69,-4.266 -4.603,-6.818 4.719,1.537 9.689,2.344 14.743,2.344 6.784,0 13.419,-1.453 19.496,-4.178 6.077,-2.725 11.579,-6.713 16.095,-11.784 3.31,-3.713 5.645,-8.105 6.898,-12.787 1.252,-4.671 1.425,-9.634 0.415,-14.51 -1.328,-6.413 -0.042,-12.784 3.156,-17.973 3.196,-5.188 8.309,-9.198 14.633,-10.893 6.322,-1.692 12.755,-0.774 18.12,2.12 5.36,2.892 9.656,7.763 11.711,13.974 2.237,6.766 6.007,12.8 10.908,17.7 4.899,4.901 10.933,8.671 17.7,10.909 5.419,1.791 9.666,5.538 12.189,10.214 2.527,4.68 3.327,10.293 1.849,15.809 -1.477,5.519 -4.977,9.978 -9.502,12.766 -4.525,2.791 -10.083,3.913 -15.681,2.752 -3.723,-0.77 -7.486,-1.042 -11.197,-0.841 0.461,-3.112 0.315,-6.256 -0.399,-9.264 -1.033,-4.348 -3.249,-8.416 -6.53,-11.697 -3.28,-3.281 -7.347,-5.498 -11.696,-6.529 -4.347,-1.031 -8.973,-0.877 -13.379,0.579 -5.778,1.912 -11.343,4.411 -16.61,7.453 l 0.002,0.004 c -5.277,3.048 -10.222,6.612 -14.753,10.65 -6.206,5.527 -13.993,8.293 -21.782,8.293 -7.789,0 -15.577,-2.766 -21.783,-8.293 m -10.564,-9.213 0.04,0.262 c 0.78,4.84 3.173,9.416 7.042,12.862 7.202,6.416 16.234,9.624 25.265,9.624 9.03,0 18.062,-3.208 25.264,-9.624 4.307,-3.837 8.96,-7.198 13.88,-10.038 h 0.01 c 4.931,-2.848 10.167,-5.197 15.628,-7.003 3.468,-1.147 7.11,-1.268 10.531,-0.456 3.419,0.811 6.617,2.555 9.198,5.137 2.581,2.581 4.325,5.781 5.137,9.197 0.67,2.822 0.704,5.794 0.053,8.696 -1.168,0.212 -2.325,0.472 -3.472,0.779 -6.486,1.737 -12.571,4.973 -17.72,9.561 -3.896,3.468 -6.306,8.077 -7.091,12.95 -0.164,1.02 -0.257,2.051 -0.276,3.086 -4.586,0.862 -9.402,0.862 -14.223,-0.135 -5.462,-1.133 -11.021,-0.852 -16.195,0.695 -5.189,1.552 -9.994,4.37 -13.935,8.31 -3.94,3.941 -6.758,8.747 -8.31,13.934 -0.178,0.594 -0.338,1.195 -0.482,1.796 -4.241,-1.525 -8.07,-3.901 -11.279,-6.93 -3.847,-3.632 -6.807,-8.213 -8.524,-13.402 -3.382,-10.229 -10.338,-18.384 -19.09,-23.439 l 0.003,-0.005 c -8.747,-5.049 -19.286,-6.995 -29.841,-4.809 l -0.154,0.031 -0.069,0.02 c -6.063,1.624 -11.917,0.697 -16.627,-2.046 -4.702,-2.738 -8.282,-7.295 -9.808,-12.934 l -0.017,-0.065 c -1.524,-5.686 -0.698,-11.475 1.907,-16.302 2.601,-4.822 6.982,-8.687 12.571,-10.535 6.374,-2.108 13.067,-2.223 19.282,-0.558 6.213,1.665 11.951,5.11 16.414,10.118 4.215,4.732 9.29,8.522 14.888,11.223 m 16.393,-93.807 c -6.134,1.644 -11.021,5.619 -13.963,10.715 -2.946,5.103 -3.946,11.324 -2.303,17.455 1.643,6.134 5.618,11.021 10.715,13.963 5.101,2.946 11.324,3.947 17.454,2.303 2.711,-0.727 5.499,-0.566 8.01,0.348 2.515,0.914 4.753,2.582 6.356,4.872 1.602,2.285 2.402,4.964 2.402,7.646 0,2.686 -0.8,5.363 -2.402,7.649 -1.611,2.3 -3.859,3.97 -6.374,4.831 -2.454,0.841 -5.167,0.909 -7.788,0.043 -4.92,-1.626 -10.077,-1.414 -14.652,0.327 -4.572,1.741 -8.562,5.013 -11.156,9.506 v 0.01 c -1.496,2.593 -2.409,5.383 -2.761,8.211 -4.05,-2.275 -7.744,-5.225 -10.907,-8.778 -5.158,-5.786 -11.791,-9.769 -18.975,-11.695 -7.182,-1.922 -14.914,-1.793 -22.272,0.641 -6.904,2.284 -12.321,7.065 -15.541,13.034 -3.217,5.962 -4.238,13.111 -2.357,20.132 l 0.017,0.065 c 1.898,7.012 6.367,12.685 12.245,16.109 5.867,3.417 13.124,4.579 20.601,2.577 l 0.068,-0.019 c 9.21,-1.868 18.395,-0.158 26.022,4.245 h 0.01 c 7.66,4.422 13.753,11.574 16.722,20.556 1.991,6.021 5.436,11.342 9.917,15.573 3.968,3.744 8.747,6.629 14.048,8.38 -0.222,3.021 -0.03,6.096 0.6,9.141 1.687,8.143 6.115,15.133 12.197,20.086 0.916,0.743 1.869,1.442 2.855,2.092 -5.304,3.563 -10.217,7.818 -14.594,12.731 -3.335,3.743 -7.688,6.195 -12.354,7.203 -4.667,1.01 -9.648,0.574 -14.235,-1.458 -4.587,-2.033 -8.253,-5.425 -10.634,-9.551 v -0.01 c -2.386,-4.133 -3.493,-9.005 -2.96,-13.993 0.534,-4.991 2.646,-9.522 5.849,-13.056 3.205,-3.533 7.504,-6.077 12.413,-7.092 l -1.044,-5.121 c -6.025,1.247 -11.305,4.37 -15.24,8.711 -3.935,4.341 -6.528,9.895 -7.18,16.006 -0.654,6.115 0.706,12.094 3.635,17.167 l 0.005,-10e-4 c 2.932,5.075 7.43,9.243 13.047,11.732 5.622,2.49 11.728,3.025 17.45,1.788 5.723,-1.238 11.066,-4.247 15.16,-8.842 4.712,-5.29 10.09,-9.762 15.926,-13.362 4.323,1.892 9.077,2.931 14.033,2.931 8.303,0 16.043,-2.919 22.131,-7.875 2.049,-1.669 3.909,-3.568 5.541,-5.666 6.253,0.344 12.523,1.507 18.654,3.535 4.401,1.456 9.028,1.404 13.245,0.051 4.205,-1.351 7.997,-4.006 10.736,-7.764 2.742,-3.76 4.114,-8.181 4.114,-12.588 0,-4.411 -1.372,-8.831 -4.114,-12.592 -2.739,-3.757 -6.531,-6.413 -10.736,-7.761 -4.217,-1.355 -8.844,-1.406 -13.245,0.048 -3.782,1.252 -7.741,1.09 -11.252,-0.246 -3.513,-1.339 -6.579,-3.851 -8.57,-7.299 l -0.004,0.003 c -0.885,-1.532 -1.503,-3.159 -1.863,-4.818 2.998,-0.93 5.875,-2.19 8.58,-3.75 l -0.003,-0.006 c 8.283,-4.783 14.934,-12.38 18.412,-21.894 3.82,-0.379 7.717,-0.188 11.563,0.608 6.941,1.437 13.843,0.04 19.47,-3.429 5.631,-3.47 9.983,-9.01 11.816,-15.859 1.835,-6.85 0.839,-13.823 -2.299,-19.639 -3.143,-5.823 -8.425,-10.487 -15.161,-12.714 -5.969,-1.974 -11.299,-5.306 -15.631,-9.638 -4.331,-4.332 -7.663,-9.66 -9.637,-15.632 -2.489,-7.526 -7.703,-13.432 -14.21,-16.943 -6.501,-3.507 -14.294,-4.621 -21.95,-2.568 -7.654,2.05 -13.847,6.913 -17.726,13.204 -3.877,6.291 -5.438,14.007 -3.831,21.762 0.841,4.061 0.695,8.208 -0.353,12.114 -1.045,3.9 -2.991,7.559 -5.751,10.656 -4.03,4.525 -8.923,8.078 -14.315,10.495 -5.391,2.417 -11.301,3.707 -17.365,3.707 -5.451,0 -10.776,-1.043 -15.713,-3.007 0.048,-2.749 0.776,-5.508 2.223,-8.021 l 0.005,0.003 c 1.972,-3.416 5.01,-5.904 8.492,-7.231 3.479,-1.324 7.403,-1.486 11.15,-0.245 3.736,1.234 7.604,1.137 11.106,-0.064 3.544,-1.215 6.711,-3.561 8.975,-6.797 2.244,-3.204 3.366,-6.925 3.366,-10.639 0,-3.712 -1.122,-7.434 -3.366,-10.637 -2.239,-3.199 -5.356,-5.524 -8.854,-6.798 -3.501,-1.274 -7.381,-1.498 -11.143,-0.49 -4.742,1.27 -9.547,0.502 -13.481,-1.771 -3.937,-2.273 -7.009,-6.047 -8.279,-10.788 -1.269,-4.74 -0.5,-9.548 1.771,-13.481 2.273,-3.937 6.05,-7.007 10.789,-8.278 z"
         style="fill:#fcc358;fill-opacity:1;fill-rule:evenodd;stroke:none"
         transform="matrix(1.3333333,0,0,-1.3333333,373.35027,299.082)"
         clip-path="url(#clipPath22)" />
      <path
         id="path23"
         d="m 0,0 -9.343,16.183 c -0.541,-2.126 -0.818,-4.304 -0.829,-6.481 -0.025,-4.597 1.132,-9.209 3.471,-13.365 2.688,-4.773 4.98,-9.739 6.863,-14.845 0.743,1.344 1.316,2.77 1.712,4.247 1.216,4.539 0.744,9.531 -1.689,13.945 z m -27.603,89.337 c -2.119,-2.655 -3.641,-5.705 -4.505,-8.933 -1.62,-6.047 -0.936,-12.71 2.438,-18.552 l 10.585,-18.334 c 1.881,5.187 2.801,10.629 2.762,16.057 -0.058,8.01 -2.207,16.012 -6.44,23.165 -1.407,2.379 -3.032,4.584 -4.84,6.597 M -4.466,26.133 c 9.434,-2.501 19.201,-3.783 29.061,-3.783 2.228,0 4.4,0.247 6.488,0.714 -0.066,0.89 -0.218,1.787 -0.456,2.678 -0.858,3.203 -2.741,5.908 -5.233,7.797 -2.497,1.896 -5.614,2.983 -8.931,2.948 C 11.722,36.435 7.156,35.126 3.172,32.797 0.248,31.089 -2.352,28.833 -4.466,26.133 m -9.041,-2.739 c -3.056,1.039 -6.075,2.202 -9.047,3.49 -3.988,-4.918 -8.824,-9.02 -14.232,-12.143 l 0.002,-0.005 c -0.4,-0.231 -0.805,-0.457 -1.213,-0.677 1.168,-5.186 1.757,-10.565 1.697,-16.03 -0.039,-3.591 -0.238,-7.167 -0.595,-10.717 1.534,-1.785 2.918,-3.713 4.132,-5.768 l 0.202,-0.344 c 2.59,-4.487 6.763,-7.504 11.414,-8.748 4.644,-1.244 9.76,-0.723 14.247,1.858 l 0.026,0.015 c 1.163,0.671 2.228,1.449 3.188,2.316 -1.963,5.919 -4.499,11.66 -7.581,17.134 -2.783,4.942 -4.158,10.446 -4.128,15.948 0.023,4.249 0.884,8.491 2.583,12.468 z m 3.53,4.348 0.181,-0.057 c 2.724,3.995 6.268,7.267 10.326,9.639 4.735,2.767 10.193,4.324 15.893,4.386 4.494,0.049 8.725,-1.431 12.126,-4.01 3.404,-2.586 5.973,-6.264 7.137,-10.608 0.214,-0.796 0.374,-1.595 0.485,-2.395 3.527,1.498 6.706,3.66 9.377,6.331 5.361,5.362 8.679,12.77 8.679,20.953 0,8.939 -2.379,17.527 -6.687,24.99 -4.31,7.462 -10.556,13.815 -18.294,18.283 l 0.001,0.005 c -7.717,4.454 -16.345,6.68 -24.981,6.68 -8.637,0 -17.265,-2.226 -24.983,-6.68 l 0.003,-0.005 c -1.14,-0.659 -2.206,-1.394 -3.197,-2.198 2.118,-2.326 4.016,-4.885 5.654,-7.654 4.704,-7.948 7.093,-16.863 7.156,-25.806 0.054,-7.443 -1.504,-14.891 -4.677,-21.804 z m -9.421,3.479 c 0.597,-0.25 1.197,-0.497 1.798,-0.737 l -1.081,1.874 c -0.235,-0.382 -0.474,-0.761 -0.717,-1.137 m -15.339,1.79 c -4.006,2.315 -8.377,3.434 -12.699,3.474 0.735,-1.128 1.439,-2.28 2.107,-3.455 2.454,-4.311 4.455,-8.93 5.944,-13.762 4.464,2.58 8.498,5.913 11.909,9.885 -2.24,1.095 -4.449,2.261 -6.624,3.5 h -0.016 z m -16.338,8.526 c 6.133,0.67 12.52,-0.468 18.321,-3.641 h 0.009 l 0.63,-0.358 -0.003,-0.005 c 2.575,-1.484 5.201,-2.868 7.876,-4.141 0.636,0.943 1.241,1.913 1.812,2.911 0.247,0.43 0.487,0.865 0.718,1.303 l -12.484,21.625 c -4.101,7.101 -4.937,15.19 -2.971,22.525 1.096,4.088 3.06,7.942 5.811,11.263 -1.984,1.714 -4.123,3.234 -6.386,4.54 -6.087,3.515 -13.06,5.485 -20.309,5.564 -5.558,0.061 -10.779,-1.764 -14.968,-4.941 -4.183,-3.173 -7.341,-7.709 -8.78,-13.077 -1.438,-5.368 -0.97,-10.876 1.066,-15.718 2.028,-4.824 5.617,-8.998 10.43,-11.723 7.439,-3.945 13.949,-9.483 19.228,-16.127 m -19.262,-18.33 c -1.576,-2.819 -2.571,-5.809 -3.02,-8.83 3.465,-0.84 7.052,-1.286 10.703,-1.299 6.481,-0.024 12.774,1.314 18.528,3.81 -1.402,4.77 -3.338,9.325 -5.75,13.562 -1.064,1.869 -2.221,3.677 -3.464,5.411 -0.36,-0.08 -0.719,-0.169 -1.074,-0.264 -6.201,-1.662 -11.79,-5.612 -15.389,-11.482 v -0.377 z m -2.411,-19.37 c 0.256,-0.959 0.569,-1.904 0.935,-2.829 4.95,0.559 10.003,0.203 14.895,-1.109 5.135,-1.375 9.893,-3.744 14.034,-6.92 0.385,-0.295 0.764,-0.598 1.139,-0.907 0.126,1.994 0.201,3.993 0.222,5.997 0.05,4.656 -0.407,9.24 -1.322,13.682 -6.181,-2.557 -12.898,-3.921 -19.809,-3.897 -3.723,0.014 -7.387,0.43 -10.939,1.217 0.103,-1.772 0.388,-3.526 0.845,-5.234 M -77.05,0.059 c -0.285,0.797 -0.537,1.607 -0.757,2.425 -0.701,2.618 -1.062,5.327 -1.065,8.057 -3.355,1.13 -6.577,2.6 -9.614,4.383 -7.709,4.525 -14.236,11.053 -18.77,19.102 -2.63,4.673 -6.141,8.712 -10.281,11.925 -4.148,3.218 -8.937,5.618 -14.117,7.006 -5.182,1.387 -10.529,1.704 -15.733,0.991 -5.194,-0.712 -10.255,-2.457 -14.87,-5.187 -7.25,-4.291 -12.122,-11.087 -14.147,-18.647 -2.027,-7.561 -1.205,-15.885 2.931,-23.231 l -0.003,-0.001 0.096,-0.171 h -0.003 l 0.092,-0.161 0.004,0.002 c 4.115,-7.125 9.966,-12.879 16.837,-16.847 h 0.011 c 6.871,-3.966 14.776,-6.155 23.003,-6.155 v -0.011 c 8.071,0 16.09,1.067 23.853,3.146 7.752,2.078 15.226,5.165 22.223,9.203 h 0.01 c 3.253,1.877 6.722,3.272 10.3,4.171 m 16.702,-12.155 c 5.829,-3.388 11.351,-7.223 16.519,-11.462 0.614,3.006 1.108,6.04 1.479,9.09 -1.158,1.184 -2.397,2.282 -3.709,3.288 -3.6,2.762 -7.741,4.822 -12.211,6.022 -3.587,0.961 -7.263,1.335 -10.893,1.143 2.13,-3.145 4.988,-5.87 8.498,-7.896 z m 49.573,-60.758 h 0.01 c 0,-2.73 -0.372,-5.464 -1.115,-8.121 0.948,0.768 1.859,1.592 2.733,2.464 3.382,3.382 6.01,7.372 7.778,11.702 1.776,4.356 2.692,9.051 2.641,13.826 -0.089,8.175 -1.213,16.291 -3.323,24.167 l -0.015,0.053 c -0.595,-0.436 -1.215,-0.846 -1.859,-1.232 l -0.01,-0.01 -0.339,-0.198 c -5.747,-3.318 -12.292,-3.993 -18.225,-2.405 -5.814,1.558 -11.049,5.296 -14.383,10.857 l -0.01,0.011 -0.196,0.337 c -0.253,0.44 -0.515,0.873 -0.786,1.296 -0.404,-2.462 -0.884,-4.911 -1.441,-7.338 1.569,-1.416 3.102,-2.874 4.596,-4.37 7.698,-7.696 14.399,-16.413 19.903,-25.945 v -0.01 c 2.694,-4.667 4.041,-9.876 4.041,-15.084 m -8.816,-12.893 0.248,0.421 c 2.223,3.848 3.335,8.157 3.335,12.472 h 0.01 c 0,4.308 -1.113,8.614 -3.341,12.475 l -0.004,-0.003 c -5.261,9.113 -11.686,17.465 -19.083,24.861 -0.778,0.779 -1.566,1.545 -2.364,2.301 -2.571,-9.106 -6.221,-17.91 -10.898,-26.218 -1.721,-3.057 -2.57,-6.444 -2.552,-9.819 0.017,-3.373 0.903,-6.748 2.652,-9.777 v -0.01 c 1.738,-3.012 4.223,-5.462 7.151,-7.176 2.929,-1.71 6.282,-2.673 9.76,-2.711 4.775,-0.051 9.471,0.865 13.825,2.642 0.424,0.17 0.844,0.352 1.261,0.542 m -84.859,29.108 c 0,4.722 1.915,8.998 5.01,12.094 3.094,3.095 7.37,5.01 12.093,5.01 4.722,0 8.998,-1.915 12.093,-5.01 3.094,-3.096 5.009,-7.37 5.009,-12.094 0,-5.045 0.662,-10.038 1.952,-14.851 1.297,-4.842 3.218,-9.499 5.728,-13.847 2.223,-3.851 5.4,-6.969 9.138,-9.127 l -0.003,-0.005 c 3.72,-2.146 8.008,-3.332 12.476,-3.332 4.468,0 8.756,1.186 12.475,3.33 l -0.001,0.005 c 0.527,0.306 1.046,0.631 1.552,0.976 -2.549,-0.466 -5.156,-0.693 -7.79,-0.664 -4.436,0.049 -8.682,1.258 -12.361,3.409 -3.679,2.149 -6.813,5.254 -9.031,9.093 l -0.004,-0.004 c -2.209,3.827 -3.326,8.098 -3.349,12.38 -0.024,4.278 1.045,8.557 3.208,12.397 4.727,8.397 8.356,17.321 10.83,26.551 l 0.273,1.039 c -5.618,4.82 -11.685,9.127 -18.134,12.85 l -0.322,0.19 c -4.85,2.876 -8.639,6.868 -11.229,11.461 -3.448,-0.763 -6.791,-2.051 -9.904,-3.846 l 0.001,-0.005 c -7.408,-4.278 -15.31,-7.542 -23.491,-9.733 -8.169,-2.19 -16.641,-3.313 -25.205,-3.313 v -0.01 c -9.146,0 -17.955,2.445 -25.625,6.875 l 0.003,0.004 c -7.667,4.427 -14.185,10.83 -18.755,18.747 v 0.01 l -0.104,0.181 -0.011,0.01 -0.102,0.18 -0.01,0.011 c -4.831,8.581 -5.791,18.306 -3.423,27.143 2.367,8.837 8.064,16.782 16.543,21.801 5.211,3.083 10.941,5.053 16.838,5.863 5.888,0.806 11.933,0.452 17.78,-1.115 5.848,-1.566 11.263,-4.282 15.96,-7.927 4.702,-3.647 8.682,-8.221 11.654,-13.501 4.075,-7.239 9.934,-13.103 16.844,-17.159 2.366,-1.386 4.852,-2.565 7.434,-3.513 0.573,3.273 1.683,6.509 3.363,9.582 v 0.017 c 0.022,0.038 0.497,0.893 0.546,0.942 4.103,6.919 10.479,11.678 17.623,13.88 -4.505,5.17 -9.863,9.507 -15.882,12.702 l -0.051,0.031 c -5.874,3.305 -10.257,8.397 -12.736,14.291 -2.479,5.899 -3.054,12.589 -1.311,19.096 1.744,6.508 5.588,12.017 10.685,15.883 5.09,3.865 11.427,6.079 18.163,6.006 8.184,-0.087 16.041,-2.305 22.89,-6.26 2.647,-1.529 5.146,-3.317 7.455,-5.342 1.327,1.119 2.772,2.138 4.329,3.038 h 0.01 c 8.548,4.935 18.076,7.403 27.592,7.403 9.516,0 19.044,-2.468 27.592,-7.403 h 0.01 c 8.53,-4.925 15.428,-11.949 20.197,-20.211 4.77,-8.26 7.403,-17.743 7.403,-27.589 0,-9.631 -3.903,-18.35 -10.215,-24.66 -3.66,-3.659 -8.129,-6.51 -13.117,-8.26 C 35.89,17.435 35.441,15.849 34.809,14.34 33.152,10.402 30.224,7.003 26.303,4.794 l -2.56,4.569 c 2.887,1.623 5.038,4.12 6.252,7.007 0.168,0.4 0.32,0.81 0.451,1.227 -1.902,-0.324 -3.857,-0.491 -5.851,-0.491 -10.405,0 -20.728,1.372 -30.71,4.046 L -6.182,21.17 4.526,2.622 4.522,2.62 4.526,2.611 c 3.32,-5.748 3.996,-12.291 2.406,-18.223 -0.885,-3.304 -2.474,-6.42 -4.702,-9.107 0.272,-0.914 0.531,-1.828 0.777,-2.746 2.214,-8.261 3.393,-16.818 3.487,-25.475 0.059,-5.493 -0.984,-10.869 -3.009,-15.835 -2.035,-4.987 -5.05,-9.569 -8.927,-13.445 -3.115,-3.113 -6.687,-5.675 -10.558,-7.614 -2.586,-3.803 -5.974,-6.913 -9.86,-9.158 h -0.01 c -4.522,-2.611 -9.707,-4.051 -15.084,-4.051 -5.378,0 -10.563,1.44 -15.085,4.051 h -0.009 c -4.506,2.602 -8.344,6.377 -11.043,11.054 -2.756,4.773 -4.855,9.849 -6.26,15.096 -1.413,5.269 -2.136,10.715 -2.136,16.203 0,3.274 -1.328,6.241 -3.474,8.387 -2.145,2.144 -5.111,3.472 -8.386,3.472 -3.275,0 -6.24,-1.328 -8.386,-3.472 -2.146,-2.146 -3.473,-5.113 -3.473,-8.387 z"
         style="fill:#ffd587;fill-opacity:1;fill-rule:evenodd;stroke:none"
         transform="matrix(1.3333333,0,0,-1.3333333,422.55853,465.35933)"
         clip-path="url(#clipPath24)" />
      <path
         id="path25"
         d="m 0,0 c -5.871,1.573 -10.553,5.384 -13.376,10.274 -2.819,4.883 -3.778,10.84 -2.206,16.707 1.475,5.505 4.92,9.958 9.19,12.861 4.504,3.064 9.955,4.406 15.024,3.452 4.833,-0.909 9.737,-0.596 14.298,0.813 4.549,1.406 8.769,3.912 12.25,7.394 3.483,3.483 5.99,7.703 7.396,12.252 1.41,4.562 1.722,9.464 0.813,14.299 -1.899,10.091 -0.507,20.235 3.584,29.141 4.09,8.904 10.881,16.572 19.779,21.71 l -0.003,0.004 c 8.897,5.137 18.93,7.185 28.688,6.274 9.766,-0.909 19.25,-4.776 27.04,-11.467 4.631,-3.976 8.281,-8.87 10.773,-14.299 2.496,-5.428 3.831,-11.382 3.831,-17.473 0,-6.091 -1.335,-12.043 -3.831,-17.474 -2.492,-5.429 -6.142,-10.321 -10.773,-14.299 -5.251,-4.509 -8.527,-10.576 -9.625,-17.016 -1.098,-6.443 -0.016,-13.256 3.446,-19.253 3.46,-5.994 8.814,-10.331 14.939,-12.601 6.131,-2.271 13.029,-2.467 19.567,-0.173 5.383,1.89 11.064,2.192 16.429,1.042 5.373,-1.15 10.436,-3.761 14.573,-7.693 4.136,-3.933 6.996,-8.854 8.418,-14.162 1.421,-5.302 1.405,-10.993 -0.211,-16.467 -1.614,-5.466 -4.693,-10.253 -8.774,-13.941 -4.08,-3.688 -9.155,-6.27 -14.757,-7.322 -2.441,-0.461 -4.718,-1.44 -6.694,-2.84 -1.989,-1.41 -3.67,-3.237 -4.908,-5.379 -1.243,-2.152 -1.984,-4.52 -2.21,-6.936 -0.225,-2.419 0.067,-4.886 0.891,-7.237 1.547,-4.405 1.763,-9.06 0.766,-13.436 -1.001,-4.396 -3.211,-8.504 -6.509,-11.802 -3.299,-3.301 -7.41,-5.509 -11.803,-6.51 -4.378,-0.998 -9.032,-0.782 -13.437,0.765 -11.466,4.024 -20.602,11.929 -26.306,21.809 -5.708,9.888 -7.988,21.75 -5.743,33.686 1.389,7.378 0.373,14.792 -2.614,21.294 -2.987,6.504 -7.945,12.102 -14.438,15.851 -6.5,3.752 -13.834,5.248 -20.967,4.582 -7.118,-0.664 -14.043,-3.489 -19.74,-8.383 -2.468,-2.12 -4.412,-4.723 -5.737,-7.608 -1.323,-2.878 -2.03,-6.055 -2.03,-9.321 0,-3.269 0.707,-6.445 2.03,-9.325 1.325,-2.883 3.269,-5.487 5.737,-7.607 3.608,-3.099 6.197,-7.078 7.605,-11.439 1.406,-4.352 1.632,-9.086 0.518,-13.705 -1.118,-4.64 -3.477,-8.758 -6.706,-11.99 -3.229,-3.228 -7.349,-5.588 -11.988,-6.706 -4.62,-1.113 -9.354,-0.887 -13.705,0.519 -4.362,1.407 -8.342,3.997 -11.44,7.604 l 3.973,3.399 c 2.456,-2.861 5.61,-4.91 9.064,-6.027 3.465,-1.119 7.231,-1.299 10.899,-0.417 3.651,0.881 6.912,2.758 9.489,5.335 2.579,2.579 4.455,5.839 5.335,9.491 0.884,3.668 0.704,7.436 -0.415,10.899 -1.115,3.453 -3.168,6.607 -6.028,9.064 -3.047,2.616 -5.449,5.838 -7.09,9.409 -1.643,3.577 -2.521,7.492 -2.521,11.496 0,4.002 0.878,7.917 2.521,11.494 1.641,3.572 4.043,6.793 7.09,9.408 6.529,5.609 14.481,8.849 22.668,9.613 8.174,0.762 16.582,-0.954 24.039,-5.258 7.462,-4.31 13.158,-10.738 16.588,-18.206 3.43,-7.465 4.596,-15.97 3.004,-24.429 -2.007,-10.667 0.03,-21.27 5.129,-30.101 5.101,-8.837 13.263,-15.902 23.499,-19.497 3.465,-1.216 7.125,-1.385 10.569,-0.6 3.426,0.782 6.644,2.517 9.243,5.116 2.599,2.599 4.337,5.817 5.116,9.245 0.785,3.442 0.615,7.103 -0.601,10.567 -1.072,3.057 -1.451,6.274 -1.158,9.431 0.296,3.159 1.265,6.255 2.887,9.064 1.627,2.82 3.822,5.207 6.403,7.036 2.591,1.837 5.573,3.121 8.762,3.721 4.646,0.873 8.849,3.009 12.219,6.055 3.373,3.048 5.921,7.013 7.259,11.546 1.336,4.525 1.348,9.242 0.169,13.64 -1.177,4.395 -3.544,8.472 -6.964,11.722 -3.42,3.253 -7.609,5.409 -12.056,6.363 -4.455,0.956 -9.167,0.706 -13.622,-0.858 -7.725,-2.711 -15.863,-2.483 -23.091,0.195 -7.232,2.679 -13.562,7.815 -17.661,14.913 -4.095,7.094 -5.377,15.137 -4.081,22.736 1.295,7.603 5.171,14.77 11.386,20.108 4.054,3.483 7.246,7.758 9.422,12.497 2.175,4.733 3.339,9.946 3.339,15.303 0,5.357 -1.164,10.569 -3.339,15.305 -2.176,4.737 -5.368,9.014 -9.422,12.495 -6.956,5.974 -15.414,9.426 -24.111,10.237 -8.705,0.811 -17.658,-1.015 -25.594,-5.598 H 69.36 C 61.429,119.802 55.373,112.964 51.725,105.022 48.076,97.077 46.834,88.023 48.53,79.014 49.598,73.335 49.229,67.578 47.573,62.217 45.913,56.843 42.968,51.875 38.888,47.796 34.808,43.716 29.84,40.771 24.466,39.111 19.104,37.453 13.347,37.085 7.67,38.153 3.969,38.85 -0.072,37.827 -3.463,35.521 -6.741,33.293 -9.388,29.866 -10.523,25.629 -11.726,21.142 -10.998,16.596 -8.85,12.876 -6.705,9.16 -3.134,6.259 1.351,5.059 Z"
         style="fill:#ffd587;fill-opacity:1;fill-rule:evenodd;stroke:none"
         transform="matrix(1.3333333,0,0,-1.3333333,253.90827,439.4824)"
         clip-path="url(#clipPath26)" />
      <path
         id="path27"
         d="m 0,0 c 19.152,0 34.679,-27.245 34.679,-46.399 0,-19.153 -15.527,-34.68 -34.679,-34.68 -19.153,0 -34.68,15.527 -34.68,34.68 C -34.68,-27.245 -19.153,0 0,0"
         style="fill:#ffffff;fill-opacity:1;fill-rule:evenodd;stroke:none"
         transform="matrix(1.3333333,0,0,-1.3333333,344.36453,417.5768)"
         clip-path="url(#clipPath28)" />
      <path
         id="path29"
         d="m 0,0 c 12.074,0 21.922,9.848 21.922,21.922 0,12.076 -9.848,21.925 -21.922,21.925 -12.074,0 -21.923,-9.849 -21.923,-21.925 C -21.923,9.848 -12.074,0 0,0"
         style="fill:#ffbb00;fill-opacity:1;fill-rule:evenodd;stroke:none"
         transform="matrix(1.3333333,0,0,-1.3333333,344.36453,514.836)"
         clip-path="url(#clipPath30)" />
      <path
         id="path31"
         d="M 0,0 C 14.572,12.431 44.067,1.778 56.499,-12.792 68.927,-27.363 67.193,-49.253 52.621,-61.683 38.05,-74.114 16.162,-72.378 3.731,-57.808 -8.699,-43.237 -14.57,-12.43 0,0"
         style="fill:#ffffff;fill-opacity:1;fill-rule:evenodd;stroke:none"
         transform="matrix(1.3333333,0,0,-1.3333333,422.29107,397.3144)"
         clip-path="url(#clipPath32)" />
      <path
         id="path33"
         d="m 0,0 c 9.212,7.858 23.049,6.76 30.907,-2.45 7.857,-9.211 6.762,-23.049 -2.45,-30.905 -9.212,-7.858 -23.049,-6.763 -30.906,2.45 C -10.307,-21.695 -9.211,-7.858 0,0"
         style="fill:#ffbb00;fill-opacity:1;fill-rule:evenodd;stroke:none"
         transform="matrix(1.3333333,0,0,-1.3333333,447.47133,426.83133)"
         clip-path="url(#clipPath34)" />
      <path
         id="path35"
         d="m 0,0 10.564,2.71 118.872,-425.756 -28.671,-7.356 z"
         style="fill:#ffd587;fill-opacity:1;fill-rule:evenodd;stroke:none"
         transform="matrix(1.3333333,0,0,-1.3333333,541.77213,142.48693)"
         clip-path="url(#clipPath36)" />
      <path
         id="path37"
         d="M 0,0 46.566,-166.783 20.711,-173.415 -18.761,-4.814 Z M -29.249,104.763 -9.125,32.686 -26.498,28.229 -43.556,101.093 Z"
         style="fill:#d9ab57;fill-opacity:1;fill-rule:evenodd;stroke:none"
         transform="matrix(1.3333333,0,0,-1.3333333,627.6172,395.89133)"
         clip-path="url(#clipPath38)" />
      <path
         id="path39"
         d="m 0,0 9.927,4.516 191.509,-398.4 -26.941,-12.258 z"
         style="fill:#ffd587;fill-opacity:1;fill-rule:evenodd;stroke:none"
         transform="matrix(1.3333333,0,0,-1.3333333,537.1472,120.91733)"
         clip-path="url(#clipPath40)" />
      <path
         id="path41"
         d="M 0,0 75.021,-156.066 50.726,-167.12 -17.631,-8.02 Z M -47.124,98.031 -14.703,30.585 -31.026,23.16 -60.567,91.915 Z"
         style="fill:#d9ab57;fill-opacity:1;fill-rule:evenodd;stroke:none"
         transform="matrix(1.3333333,0,0,-1.3333333,665.99213,355.4004)"
         clip-path="url(#clipPath42)" />
    </g>
  </g>
</svg>
