<?xml version="1.0" encoding="UTF-8" standalone="no"?>
<!-- Created with Inkscape (http://www.inkscape.org/) -->

<svg
   version="1.1"
   id="svg1"
   width="880"
   height="880"
   viewBox="0 0 880 880"
   sodipodi:docname="cabin-in-the-forest-in-the-night.svg"
   inkscape:version="1.3.2 (091e20e, 2023-11-25, custom)"
   xmlns:inkscape="http://www.inkscape.org/namespaces/inkscape"
   xmlns:sodipodi="http://sodipodi.sourceforge.net/DTD/sodipodi-0.dtd"
   xmlns="http://www.w3.org/2000/svg"
   xmlns:svg="http://www.w3.org/2000/svg">
  <defs
     id="defs1">
    <clipPath
       clipPathUnits="userSpaceOnUse"
       id="clipPath10">
      <path
         d="M 0,660 H 660 V 0 H 0 Z"
         transform="translate(-505.28321,-362.85401)"
         id="path10" />
    </clipPath>
    <clipPath
       clipPathUnits="userSpaceOnUse"
       id="clipPath12">
      <path
         d="M 0,660 H 660 V 0 H 0 Z"
         transform="translate(-505.28321,-610.14702)"
         id="path12" />
    </clipPath>
    <clipPath
       clipPathUnits="userSpaceOnUse"
       id="clipPath14">
      <path
         d="M 0,660 H 660 V 0 H 0 Z"
         transform="translate(-505.28321,-576.35161)"
         id="path14" />
    </clipPath>
    <clipPath
       clipPathUnits="userSpaceOnUse"
       id="clipPath16">
      <path
         d="M 0,660 H 660 V 0 H 0 Z"
         transform="translate(-505.28321,-464.23971)"
         id="path16" />
    </clipPath>
    <clipPath
       clipPathUnits="userSpaceOnUse"
       id="clipPath18">
      <path
         d="M 0,660 H 660 V 0 H 0 Z"
         id="path18" />
    </clipPath>
    <clipPath
       clipPathUnits="userSpaceOnUse"
       id="clipPath20">
      <path
         d="M 0,660 H 660 V 0 H 0 Z"
         transform="translate(-68.054201,-470.86821)"
         id="path20" />
    </clipPath>
    <clipPath
       clipPathUnits="userSpaceOnUse"
       id="clipPath22">
      <path
         d="M 0,660 H 660 V 0 H 0 Z"
         transform="translate(-23.818801,-508.80472)"
         id="path22" />
    </clipPath>
    <clipPath
       clipPathUnits="userSpaceOnUse"
       id="clipPath24">
      <path
         d="M 0,660 H 660 V 0 H 0 Z"
         transform="translate(-75.983904,-546.27491)"
         id="path24" />
    </clipPath>
    <clipPath
       clipPathUnits="userSpaceOnUse"
       id="clipPath26">
      <path
         d="M 0,660 H 660 V 0 H 0 Z"
         transform="translate(-166.2451,-623.68262)"
         id="path26" />
    </clipPath>
    <clipPath
       clipPathUnits="userSpaceOnUse"
       id="clipPath28">
      <path
         d="M 0,660 H 660 V 0 H 0 Z"
         transform="translate(-0.23780001,-402.94821)"
         id="path28" />
    </clipPath>
    <clipPath
       clipPathUnits="userSpaceOnUse"
       id="clipPath30">
      <path
         d="M 0,660 H 660 V 0 H 0 Z"
         transform="translate(-177.40581,-659.23882)"
         id="path30" />
    </clipPath>
    <clipPath
       clipPathUnits="userSpaceOnUse"
       id="clipPath32">
      <path
         d="M 0,660 H 660 V 0 H 0 Z"
         transform="translate(-254.79051,-592.87301)"
         id="path32" />
    </clipPath>
    <clipPath
       clipPathUnits="userSpaceOnUse"
       id="clipPath34">
      <path
         d="M 0,660 H 660 V 0 H 0 Z"
         transform="translate(-433.60741,-334.53711)"
         id="path34" />
    </clipPath>
    <clipPath
       clipPathUnits="userSpaceOnUse"
       id="clipPath36">
      <path
         d="M 0,660 H 660 V 0 H 0 Z"
         transform="translate(-507.90041,-398.25051)"
         id="path36" />
    </clipPath>
    <clipPath
       clipPathUnits="userSpaceOnUse"
       id="clipPath38">
      <path
         d="M 0,660 H 660 V 0 H 0 Z"
         transform="translate(-427.19431,-429.52831)"
         id="path38" />
    </clipPath>
    <clipPath
       clipPathUnits="userSpaceOnUse"
       id="clipPath40">
      <path
         d="M 0,660 H 660 V 0 H 0 Z"
         transform="translate(-352.90141,-493.24121)"
         id="path40" />
    </clipPath>
    <clipPath
       clipPathUnits="userSpaceOnUse"
       id="clipPath42">
      <path
         d="M 0,660 H 660 V 0 H 0 Z"
         transform="translate(-429.52441,-573.92291)"
         id="path42" />
    </clipPath>
    <clipPath
       clipPathUnits="userSpaceOnUse"
       id="clipPath44">
      <path
         d="M 0,660 H 660 V 0 H 0 Z"
         transform="translate(-386.10641,-611.15722)"
         id="path44" />
    </clipPath>
    <clipPath
       clipPathUnits="userSpaceOnUse"
       id="clipPath46">
      <path
         d="M 0,660 H 660 V 0 H 0 Z"
         transform="translate(-269.93361,-423.71191)"
         id="path46" />
    </clipPath>
    <clipPath
       clipPathUnits="userSpaceOnUse"
       id="clipPath48">
      <path
         d="M 0,660 H 660 V 0 H 0 Z"
         transform="translate(-178.7983,-501.86821)"
         id="path48" />
    </clipPath>
    <clipPath
       clipPathUnits="userSpaceOnUse"
       id="clipPath50">
      <path
         d="M 0,660 H 660 V 0 H 0 Z"
         transform="translate(-621.42092,-297.7705)"
         id="path50" />
    </clipPath>
    <clipPath
       clipPathUnits="userSpaceOnUse"
       id="clipPath52">
      <path
         d="M 0,660 H 660 V 0 H 0 Z"
         transform="translate(-546.89261,-361.68411)"
         id="path52" />
    </clipPath>
    <clipPath
       clipPathUnits="userSpaceOnUse"
       id="clipPath54">
      <path
         d="M 0,660 H 660 V 0 H 0 Z"
         transform="translate(-612.76462,-555.04882)"
         id="path54" />
    </clipPath>
    <clipPath
       clipPathUnits="userSpaceOnUse"
       id="clipPath56">
      <path
         d="M 0,660 H 660 V 0 H 0 Z"
         transform="translate(-538.24021,-618.96342)"
         id="path56" />
    </clipPath>
    <clipPath
       clipPathUnits="userSpaceOnUse"
       id="clipPath58">
      <path
         d="M 0,660 H 660 V 0 H 0 Z"
         transform="translate(-516.63091,-574.53521)"
         id="path58" />
    </clipPath>
    <clipPath
       clipPathUnits="userSpaceOnUse"
       id="clipPath60">
      <path
         d="M 0,660 H 660 V 0 H 0 Z"
         transform="translate(-462.10351,-621.29692)"
         id="path60" />
    </clipPath>
    <clipPath
       clipPathUnits="userSpaceOnUse"
       id="clipPath62">
      <path
         d="M 0,660 H 660 V 0 H 0 Z"
         transform="translate(-515.61431,-382.02251)"
         id="path62" />
    </clipPath>
    <clipPath
       clipPathUnits="userSpaceOnUse"
       id="clipPath64">
      <path
         d="M 0,660 H 660 V 0 H 0 Z"
         transform="translate(-570.13961,-428.78471)"
         id="path64" />
    </clipPath>
    <clipPath
       clipPathUnits="userSpaceOnUse"
       id="clipPath66">
      <path
         d="M 0,660 H 660 V 0 H 0 Z"
         id="path66" />
    </clipPath>
    <clipPath
       clipPathUnits="userSpaceOnUse"
       id="clipPath68">
      <path
         d="M 0,660 H 660 V 0 H 0 Z"
         transform="translate(-393.53911,-110.4688)"
         id="path68" />
    </clipPath>
    <clipPath
       clipPathUnits="userSpaceOnUse"
       id="clipPath70">
      <path
         d="M 0,660 H 660 V 0 H 0 Z"
         id="path70" />
    </clipPath>
    <clipPath
       clipPathUnits="userSpaceOnUse"
       id="clipPath72">
      <path
         d="M 0,660 H 660 V 0 H 0 Z"
         transform="translate(-512.83792,-110.4688)"
         id="path72" />
    </clipPath>
    <clipPath
       clipPathUnits="userSpaceOnUse"
       id="clipPath74">
      <path
         d="M 0,660 H 660 V 0 H 0 Z"
         id="path74" />
    </clipPath>
    <clipPath
       clipPathUnits="userSpaceOnUse"
       id="clipPath76">
      <path
         d="M 0,660 H 660 V 0 H 0 Z"
         id="path76" />
    </clipPath>
    <clipPath
       clipPathUnits="userSpaceOnUse"
       id="clipPath78">
      <path
         d="M 0,660 H 660 V 0 H 0 Z"
         id="path78" />
    </clipPath>
    <clipPath
       clipPathUnits="userSpaceOnUse"
       id="clipPath80">
      <path
         d="M 0,660 H 660 V 0 H 0 Z"
         transform="translate(-205.75881,-110.4688)"
         id="path80" />
    </clipPath>
    <clipPath
       clipPathUnits="userSpaceOnUse"
       id="clipPath82">
      <path
         d="M 0,660 H 660 V 0 H 0 Z"
         id="path82" />
    </clipPath>
    <clipPath
       clipPathUnits="userSpaceOnUse"
       id="clipPath84">
      <path
         d="M 0,660 H 660 V 0 H 0 Z"
         id="path84" />
    </clipPath>
    <clipPath
       clipPathUnits="userSpaceOnUse"
       id="clipPath86">
      <path
         d="M 0,660 H 660 V 0 H 0 Z"
         transform="translate(-15.9297,-110.4688)"
         id="path86" />
    </clipPath>
    <clipPath
       clipPathUnits="userSpaceOnUse"
       id="clipPath88">
      <path
         d="M 0,660 H 660 V 0 H 0 Z"
         id="path88" />
    </clipPath>
    <clipPath
       clipPathUnits="userSpaceOnUse"
       id="clipPath90">
      <path
         d="M 0,660 H 660 V 0 H 0 Z"
         transform="translate(-263.73001,-110.4688)"
         id="path90" />
    </clipPath>
    <clipPath
       clipPathUnits="userSpaceOnUse"
       id="clipPath92">
      <path
         d="M 0,660 H 660 V 0 H 0 Z"
         id="path92" />
    </clipPath>
    <clipPath
       clipPathUnits="userSpaceOnUse"
       id="clipPath94">
      <path
         d="M 0,660 H 660 V 0 H 0 Z"
         id="path94" />
    </clipPath>
    <clipPath
       clipPathUnits="userSpaceOnUse"
       id="clipPath96">
      <path
         d="M 0,660 H 660 V 0 H 0 Z"
         transform="translate(-82.859402,-110.4688)"
         id="path96" />
    </clipPath>
    <clipPath
       clipPathUnits="userSpaceOnUse"
       id="clipPath98">
      <path
         d="M 0,660 H 660 V 0 H 0 Z"
         id="path98" />
    </clipPath>
    <clipPath
       clipPathUnits="userSpaceOnUse"
       id="clipPath100">
      <path
         d="M 0,660 H 660 V 0 H 0 Z"
         id="path100" />
    </clipPath>
    <clipPath
       clipPathUnits="userSpaceOnUse"
       id="clipPath102">
      <path
         d="M 0,660 H 660 V 0 H 0 Z"
         id="path102" />
    </clipPath>
    <clipPath
       clipPathUnits="userSpaceOnUse"
       id="clipPath104">
      <path
         d="M 0,660 H 660 V 0 H 0 Z"
         transform="translate(-635.82131,-110.4688)"
         id="path104" />
    </clipPath>
    <clipPath
       clipPathUnits="userSpaceOnUse"
       id="clipPath106">
      <path
         d="M 0,660 H 660 V 0 H 0 Z"
         id="path106" />
    </clipPath>
    <clipPath
       clipPathUnits="userSpaceOnUse"
       id="clipPath108">
      <path
         d="M 0,660 H 660 V 0 H 0 Z"
         transform="translate(-360.08111,-401.77101)"
         id="path108" />
    </clipPath>
    <clipPath
       clipPathUnits="userSpaceOnUse"
       id="clipPath110">
      <path
         d="M 0,660 H 660 V 0 H 0 Z"
         transform="translate(-350.99121,-543.48442)"
         id="path110" />
    </clipPath>
    <clipPath
       clipPathUnits="userSpaceOnUse"
       id="clipPath112">
      <path
         d="M 0,660 H 660 V 0 H 0 Z"
         transform="translate(-373.13381,-585.90481)"
         id="path112" />
    </clipPath>
    <clipPath
       clipPathUnits="userSpaceOnUse"
       id="clipPath114">
      <path
         d="M 0,660 H 660 V 0 H 0 Z"
         transform="translate(-216.03811,-536.95801)"
         id="path114" />
    </clipPath>
    <clipPath
       clipPathUnits="userSpaceOnUse"
       id="clipPath116">
      <path
         d="M 0,660 H 660 V 0 H 0 Z"
         transform="translate(-469.62991,-319.26071)"
         id="path116" />
    </clipPath>
    <clipPath
       clipPathUnits="userSpaceOnUse"
       id="clipPath118">
      <path
         d="M 0,660 H 660 V 0 H 0 Z"
         transform="translate(-572.18551,-381.25931)"
         id="path118" />
    </clipPath>
    <clipPath
       clipPathUnits="userSpaceOnUse"
       id="clipPath120">
      <path
         d="M 0,660 H 660 V 0 H 0 Z"
         transform="translate(-569.38961,-298.74901)"
         id="path120" />
    </clipPath>
    <clipPath
       clipPathUnits="userSpaceOnUse"
       id="clipPath122">
      <path
         d="M 0,660 H 660 V 0 H 0 Z"
         transform="translate(-384.08891,-323.45511)"
         id="path122" />
    </clipPath>
    <clipPath
       clipPathUnits="userSpaceOnUse"
       id="clipPath124">
      <path
         d="M 0,660 H 660 V 0 H 0 Z"
         transform="translate(-579.83891,-635.31842)"
         id="path124" />
    </clipPath>
    <clipPath
       clipPathUnits="userSpaceOnUse"
       id="clipPath126">
      <path
         d="M 0,660 H 660 V 0 H 0 Z"
         transform="translate(-376.39841,-649.30322)"
         id="path126" />
    </clipPath>
    <clipPath
       clipPathUnits="userSpaceOnUse"
       id="clipPath128">
      <path
         d="M 0,660 H 660 V 0 H 0 Z"
         transform="translate(-201.58591,-589.63381)"
         id="path128" />
    </clipPath>
    <clipPath
       clipPathUnits="userSpaceOnUse"
       id="clipPath130">
      <path
         d="M 0,660 H 660 V 0 H 0 Z"
         transform="translate(-30.971701,-570.98831)"
         id="path130" />
    </clipPath>
    <clipPath
       clipPathUnits="userSpaceOnUse"
       id="clipPath132">
      <path
         d="M 0,660 H 660 V 0 H 0 Z"
         transform="translate(-106.48971,-641.84422)"
         id="path132" />
    </clipPath>
    <clipPath
       clipPathUnits="userSpaceOnUse"
       id="clipPath134">
      <path
         d="M 0,660 H 660 V 0 H 0 Z"
         transform="translate(-229.09131,-511.31981)"
         id="path134" />
    </clipPath>
    <clipPath
       clipPathUnits="userSpaceOnUse"
       id="clipPath136">
      <path
         d="M 0,660 H 660 V 0 H 0 Z"
         transform="translate(-353.55571,-626.92772)"
         id="path136" />
    </clipPath>
    <clipPath
       clipPathUnits="userSpaceOnUse"
       id="clipPath138">
      <path
         d="M 0,660 H 660 V 0 H 0 Z"
         transform="translate(-487.80961,-241.87791)"
         id="path138" />
    </clipPath>
    <clipPath
       clipPathUnits="userSpaceOnUse"
       id="clipPath140">
      <path
         d="M 0,660 H 660 V 0 H 0 Z"
         transform="translate(-560.99801,-216.7051)"
         id="path140" />
    </clipPath>
    <clipPath
       clipPathUnits="userSpaceOnUse"
       id="clipPath142">
      <path
         d="M 0,660 H 660 V 0 H 0 Z"
         transform="translate(-476.62301,-261.4561)"
         id="path142" />
    </clipPath>
    <clipPath
       clipPathUnits="userSpaceOnUse"
       id="clipPath144">
      <path
         d="M 0,660 H 660 V 0 H 0 Z"
         transform="translate(-401.10351,-285.69631)"
         id="path144" />
    </clipPath>
    <clipPath
       clipPathUnits="userSpaceOnUse"
       id="clipPath146">
      <path
         d="M 0,660 H 660 V 0 H 0 Z"
         transform="translate(-401.57131,-387.32031)"
         id="path146" />
    </clipPath>
  </defs>
  <sodipodi:namedview
     id="namedview1"
     pagecolor="#ffffff"
     bordercolor="#000000"
     borderopacity="0.25"
     inkscape:showpageshadow="2"
     inkscape:pageopacity="0.0"
     inkscape:pagecheckerboard="0"
     inkscape:deskcolor="#d1d1d1"
     inkscape:zoom="0.67272727"
     inkscape:cx="439.25676"
     inkscape:cy="440"
     inkscape:window-width="1440"
     inkscape:window-height="830"
     inkscape:window-x="-6"
     inkscape:window-y="-6"
     inkscape:window-maximized="1"
     inkscape:current-layer="g1">
    <inkscape:page
       x="0"
       y="0"
       inkscape:label="1"
       id="page1"
       width="880"
       height="880"
       margin="0 0 1.0146667 0.31705734"
       bleed="0" />
  </sodipodi:namedview>
  <g
     id="g1"
     inkscape:groupmode="layer"
     inkscape:label="1">
    <g
       id="group-MC0">
      <path
         id="path2"
         d="M 0,0 44.235,-49.881 46.099,-39.755 5.329,0 Z"
         style="fill:#1d1d19;fill-opacity:1;fill-rule:nonzero;stroke:none"
         transform="matrix(1.3333333,0,0,-1.3333333,42.3072,1.0144)" />
      <path
         id="path3"
         d="M 0,0 38.906,-37.937 2.265,0 Z"
         style="fill:#b4ab46;fill-opacity:1;fill-rule:nonzero;stroke:none"
         transform="matrix(1.3333333,0,0,-1.3333333,49.4124,1.0144)" />
      <path
         id="path4"
         d="M 0.238,0 H 660 V 659.239 H 0.238 Z"
         style="fill:#3c4137;fill-opacity:1;fill-rule:nonzero;stroke:none"
         transform="matrix(1.3333333,0,0,-1.3333333,0,880)" />
      <path
         id="path5"
         d="M 0,0 V -258.103 L 517.176,-268.181 124.497,124.497 Z"
         style="fill:#65432b;fill-opacity:1;fill-rule:nonzero;stroke:none"
         transform="matrix(1.3333333,0,0,-1.3333333,0.3168,342.736)" />
      <path
         id="path6"
         d="M 0.238,0 H 660 V 163.404 H 0.238 Z"
         style="fill:#1d1d19;fill-opacity:1;fill-rule:nonzero;stroke:none"
         transform="matrix(1.3333333,0,0,-1.3333333,0,880)" />
      <path
         id="path7"
         d="m 0,0 v -239.544 l 37.823,108.646 80.148,230.224 6.526,25.171 z M 217.26,-239.544 H 329.881 L 217.26,-103.685 Z m -163.156,0 h 65.263 l -20.511,114.415 z"
         style="fill:#3f281b;fill-opacity:1;fill-rule:nonzero;stroke:none"
         transform="matrix(1.3333333,0,0,-1.3333333,0.3168,342.736)" />
      <path
         id="path8"
         d="M 0.238,129.115 H 660 v 34.289 H 0.238 Z"
         style="fill:#7a7640;fill-opacity:1;fill-rule:nonzero;stroke:none"
         transform="matrix(1.3333333,0,0,-1.3333333,0,880)" />
      <path
         id="path9"
         d="m 0,0 c 77.409,0 140.544,63.135 140.544,140.544 0,77.41 -63.135,140.545 -140.544,140.545 -77.41,0 -140.545,-63.135 -140.545,-140.545 C -140.545,63.135 -77.41,0 0,0"
         style="fill:#3c4137;fill-opacity:1;fill-rule:evenodd;stroke:none"
         transform="matrix(1.3333333,0,0,-1.3333333,673.71093,396.19467)"
         clip-path="url(#clipPath10)" />
      <path
         id="path11"
         d="m 0,0 c 58.953,0 106.747,-47.793 106.747,-106.749 0,-58.957 -47.794,-106.749 -106.747,-106.749 -58.956,0 -106.75,47.792 -106.75,106.749 C -106.75,-47.793 -58.956,0 0,0"
         style="fill:#717543;fill-opacity:1;fill-rule:evenodd;stroke:none"
         transform="matrix(1.3333333,0,0,-1.3333333,673.71093,66.470667)"
         clip-path="url(#clipPath12)" />
      <path
         id="path13"
         d="m 0,0 c 40.289,0 72.953,-32.662 72.953,-72.954 0,-40.29 -32.664,-72.953 -72.953,-72.953 -40.292,0 -72.953,32.663 -72.953,72.953 C -72.953,-32.662 -40.292,0 0,0"
         style="fill:#ada84c;fill-opacity:1;fill-rule:evenodd;stroke:none"
         transform="matrix(1.3333333,0,0,-1.3333333,673.71093,111.5312)"
         clip-path="url(#clipPath14)" />
      <path
         id="path15"
         d="M 0,0 C 21.566,0 39.157,17.591 39.157,39.158 39.157,60.726 21.566,78.317 0,78.317 -21.568,78.317 -39.158,60.726 -39.158,39.158 -39.158,17.591 -21.568,0 0,0"
         style="fill:#e6db54;fill-opacity:1;fill-rule:evenodd;stroke:none"
         transform="matrix(1.3333333,0,0,-1.3333333,673.71093,261.01373)"
         clip-path="url(#clipPath16)" />
      <path
         id="path17"
         d="M 0.238,153.356 H 660 v 10.048 H 0.238 Z"
         style="fill:#b4ab46;fill-opacity:1;fill-rule:evenodd;stroke:none"
         transform="matrix(1.3333333,0,0,-1.3333333,0,880)"
         clip-path="url(#clipPath18)" />
      <path
         id="path19"
         d="M 0,0 -46.099,39.753 -0.318,-10.138 Z"
         style="fill:#1d1d19;fill-opacity:1;fill-rule:evenodd;stroke:none"
         transform="matrix(1.3333333,0,0,-1.3333333,90.738933,252.17573)"
         clip-path="url(#clipPath20)" />
      <path
         id="path21"
         d="m 0,0 44.235,-37.936 -0.924,-2.885 z"
         style="fill:#b4ab46;fill-opacity:1;fill-rule:evenodd;stroke:none"
         transform="matrix(1.3333333,0,0,-1.3333333,31.7584,201.59373)"
         clip-path="url(#clipPath22)" />
      <path
         id="path23"
         d="M 0,0 94.064,81.116 0.648,-20.688 Z"
         style="fill:#1d1d19;fill-opacity:1;fill-rule:evenodd;stroke:none"
         transform="matrix(1.3333333,0,0,-1.3333333,101.31187,151.63347)"
         clip-path="url(#clipPath24)" />
      <path
         id="path25"
         d="m 0,0 -90.261,-77.408 1.887,-5.886 z"
         style="fill:#b4ab46;fill-opacity:1;fill-rule:evenodd;stroke:none"
         transform="matrix(1.3333333,0,0,-1.3333333,221.66013,48.4232)"
         clip-path="url(#clipPath26)" />
      <path
         id="path27"
         d="m 0,0 117.971,99.326 274.103,-338.87 h 96.462 L 124.497,124.497 Z"
         style="fill:#d58341;fill-opacity:1;fill-rule:evenodd;stroke:none"
         transform="matrix(1.3333333,0,0,-1.3333333,0.31706667,342.73573)"
         clip-path="url(#clipPath28)" />
      <path
         id="path29"
         d="M 0,0 77.385,-87.26 80.647,-69.545 9.324,0 Z"
         style="fill:#1d1d19;fill-opacity:1;fill-rule:evenodd;stroke:none"
         transform="matrix(1.3333333,0,0,-1.3333333,236.54107,1.0149333)"
         clip-path="url(#clipPath30)" />
      <path
         id="path31"
         d="m 0,0 -68.06,66.366 h 3.961 z"
         style="fill:#b4ab46;fill-opacity:1;fill-rule:evenodd;stroke:none"
         transform="matrix(1.3333333,0,0,-1.3333333,339.72067,89.502667)"
         clip-path="url(#clipPath32)" />
      <path
         id="path33"
         d="M 0,0 77.424,66.765 0.533,-17.029 Z"
         style="fill:#1d1d19;fill-opacity:1;fill-rule:evenodd;stroke:none"
         transform="matrix(1.3333333,0,0,-1.3333333,578.1432,433.95053)"
         clip-path="url(#clipPath34)" />
      <path
         id="path35"
         d="m 0,0 -74.293,-63.713 1.553,-4.846 z"
         style="fill:#b4ab46;fill-opacity:1;fill-rule:evenodd;stroke:none"
         transform="matrix(1.3333333,0,0,-1.3333333,677.20053,348.99933)"
         clip-path="url(#clipPath36)" />
      <path
         id="path37"
         d="M 0,0 -77.423,66.766 -0.534,-17.027 Z"
         style="fill:#1d1d19;fill-opacity:1;fill-rule:evenodd;stroke:none"
         transform="matrix(1.3333333,0,0,-1.3333333,569.5924,307.2956)"
         clip-path="url(#clipPath38)" />
      <path
         id="path39"
         d="m 0,0 74.293,-63.713 -1.554,-4.846 z"
         style="fill:#b4ab46;fill-opacity:1;fill-rule:evenodd;stroke:none"
         transform="matrix(1.3333333,0,0,-1.3333333,470.5352,222.34507)"
         clip-path="url(#clipPath40)" />
      <path
         id="path41"
         d="M 0,0 -45.248,39.018 -0.314,-9.951 Z"
         style="fill:#1d1d19;fill-opacity:1;fill-rule:evenodd;stroke:none"
         transform="matrix(1.3333333,0,0,-1.3333333,572.6992,114.76947)"
         clip-path="url(#clipPath42)" />
      <path
         id="path43"
         d="m 0,0 43.418,-37.234 -0.909,-2.832 z"
         style="fill:#b4ab46;fill-opacity:1;fill-rule:evenodd;stroke:none"
         transform="matrix(1.3333333,0,0,-1.3333333,514.80853,65.123733)"
         clip-path="url(#clipPath44)" />
      <path
         id="path45"
         d="M 0,0 -94.976,81.901 -0.654,-20.89 Z"
         style="fill:#1d1d19;fill-opacity:1;fill-rule:evenodd;stroke:none"
         transform="matrix(1.3333333,0,0,-1.3333333,359.91147,315.0508)"
         clip-path="url(#clipPath46)" />
      <path
         id="path47"
         d="M 0,0 91.135,-78.156 89.23,-84.101 Z"
         style="fill:#b4ab46;fill-opacity:1;fill-rule:evenodd;stroke:none"
         transform="matrix(1.3333333,0,0,-1.3333333,238.39773,210.8424)"
         clip-path="url(#clipPath48)" />
      <path
         id="path49"
         d="M 0,0 -77.67,66.976 -0.538,-17.082 Z"
         style="fill:#1d1d19;fill-opacity:1;fill-rule:evenodd;stroke:none"
         transform="matrix(1.3333333,0,0,-1.3333333,828.5612,482.97267)"
         clip-path="url(#clipPath50)" />
      <path
         id="path51"
         d="m 0,0 74.528,-63.914 -1.56,-4.86 z"
         style="fill:#b4ab46;fill-opacity:1;fill-rule:evenodd;stroke:none"
         transform="matrix(1.3333333,0,0,-1.3333333,729.19013,397.75453)"
         clip-path="url(#clipPath52)" />
      <path
         id="path53"
         d="M 0,0 -77.666,66.977 -0.534,-17.082 Z"
         style="fill:#1d1d19;fill-opacity:1;fill-rule:evenodd;stroke:none"
         transform="matrix(1.3333333,0,0,-1.3333333,817.01947,139.93493)"
         clip-path="url(#clipPath54)" />
      <path
         id="path55"
         d="m 0,0 74.524,-63.915 -1.556,-4.86 z"
         style="fill:#b4ab46;fill-opacity:1;fill-rule:evenodd;stroke:none"
         transform="matrix(1.3333333,0,0,-1.3333333,717.6536,54.715467)"
         clip-path="url(#clipPath56)" />
      <path
         id="path57"
         d="M 0,0 -56.824,49.002 -0.392,-12.497 Z"
         style="fill:#1d1d19;fill-opacity:1;fill-rule:evenodd;stroke:none"
         transform="matrix(1.3333333,0,0,-1.3333333,688.8412,113.95307)"
         clip-path="url(#clipPath58)" />
      <path
         id="path59"
         d="m 0,0 54.527,-46.762 -1.14,-3.555 z"
         style="fill:#b4ab46;fill-opacity:1;fill-rule:evenodd;stroke:none"
         transform="matrix(1.3333333,0,0,-1.3333333,616.138,51.604133)"
         clip-path="url(#clipPath60)" />
      <path
         id="path61"
         d="M 0,0 56.823,49.002 0.392,-12.498 Z"
         style="fill:#1d1d19;fill-opacity:1;fill-rule:evenodd;stroke:none"
         transform="matrix(1.3333333,0,0,-1.3333333,687.48573,370.63667)"
         clip-path="url(#clipPath62)" />
      <path
         id="path63"
         d="m 0,0 -54.525,-46.762 1.141,-3.555 z"
         style="fill:#b4ab46;fill-opacity:1;fill-rule:evenodd;stroke:none"
         transform="matrix(1.3333333,0,0,-1.3333333,760.18613,308.28707)"
         clip-path="url(#clipPath64)" />
      <path
         id="path65"
         d="m 420.977,163.404 h 19.802 v 495.834 h -19.802 z"
         style="fill:#1d1d19;fill-opacity:1;fill-rule:evenodd;stroke:none"
         transform="matrix(1.3333333,0,0,-1.3333333,0,880)"
         clip-path="url(#clipPath66)" />
      <path
         id="path67"
         d="M 0,0 H 19.802 L 47.24,52.935 H 27.438 Z"
         style="fill:#1d1d19;fill-opacity:1;fill-rule:evenodd;stroke:none"
         transform="matrix(1.3333333,0,0,-1.3333333,524.7188,732.70827)"
         clip-path="url(#clipPath68)" />
      <path
         id="path69"
         d="m 438.057,163.404 h 2.723 v 495.834 h -2.723 z"
         style="fill:#b4ab46;fill-opacity:1;fill-rule:evenodd;stroke:none"
         transform="matrix(1.3333333,0,0,-1.3333333,0,880)"
         clip-path="url(#clipPath70)" />
      <path
         id="path71"
         d="M 0,0 H 13.742 L 12.783,52.935 H -0.959 Z"
         style="fill:#1d1d19;fill-opacity:1;fill-rule:evenodd;stroke:none"
         transform="matrix(1.3333333,0,0,-1.3333333,683.78387,732.70827)"
         clip-path="url(#clipPath72)" />
      <path
         id="path73"
         d="m 511.879,163.404 h 13.742 v 495.834 h -13.742 z"
         style="fill:#1d1d19;fill-opacity:1;fill-rule:evenodd;stroke:none"
         transform="matrix(1.3333333,0,0,-1.3333333,0,880)"
         clip-path="url(#clipPath74)" />
      <path
         id="path75"
         d="m 522.898,163.404 h 2.723 v 495.834 h -2.723 z"
         style="fill:#b4ab46;fill-opacity:1;fill-rule:evenodd;stroke:none"
         transform="matrix(1.3333333,0,0,-1.3333333,0,880)"
         clip-path="url(#clipPath76)" />
      <path
         id="path77"
         d="m 254.79,163.404 h 37.293 V 659.238 H 254.79 Z"
         style="fill:#1d1d19;fill-opacity:1;fill-rule:evenodd;stroke:none"
         transform="matrix(1.3333333,0,0,-1.3333333,0,880)"
         clip-path="url(#clipPath78)" />
      <path
         id="path79"
         d="M 0,0 H 37.293 L 86.325,52.935 H 49.032 Z"
         style="fill:#1d1d19;fill-opacity:1;fill-rule:evenodd;stroke:none"
         transform="matrix(1.3333333,0,0,-1.3333333,274.34507,732.70827)"
         clip-path="url(#clipPath80)" />
      <path
         id="path81"
         d="m 286.955,163.404 h 5.129 v 495.834 h -5.129 z"
         style="fill:#b4ab46;fill-opacity:1;fill-rule:evenodd;stroke:none"
         transform="matrix(1.3333333,0,0,-1.3333333,0,880)"
         clip-path="url(#clipPath82)" />
      <path
         id="path83"
         d="M 64.962,163.404 H 84.763 V 659.238 H 64.962 Z"
         style="fill:#1d1d19;fill-opacity:1;fill-rule:evenodd;stroke:none"
         transform="matrix(1.3333333,0,0,-1.3333333,0,880)"
         clip-path="url(#clipPath84)" />
      <path
         id="path85"
         d="m 0,0 h 19.801 l 49.032,52.935 h -19.8 z"
         style="fill:#1d1d19;fill-opacity:1;fill-rule:evenodd;stroke:none"
         transform="matrix(1.3333333,0,0,-1.3333333,21.2396,732.70827)"
         clip-path="url(#clipPath86)" />
      <path
         id="path87"
         d="m 82.04,163.404 h 2.723 V 659.238 H 82.04 Z"
         style="fill:#b4ab46;fill-opacity:1;fill-rule:evenodd;stroke:none"
         transform="matrix(1.3333333,0,0,-1.3333333,0,880)"
         clip-path="url(#clipPath88)" />
      <path
         id="path89"
         d="M 0,0 H 13.741 L 62.774,52.935 H 49.034 Z"
         style="fill:#1d1d19;fill-opacity:1;fill-rule:evenodd;stroke:none"
         transform="matrix(1.3333333,0,0,-1.3333333,351.64,732.70827)"
         clip-path="url(#clipPath90)" />
      <path
         id="path91"
         d="m 312.764,163.404 h 13.74 v 495.834 h -13.74 z"
         style="fill:#1d1d19;fill-opacity:1;fill-rule:evenodd;stroke:none"
         transform="matrix(1.3333333,0,0,-1.3333333,0,880)"
         clip-path="url(#clipPath92)" />
      <path
         id="path93"
         d="m 323.782,163.404 h 2.722 v 495.834 h -2.722 z"
         style="fill:#b4ab46;fill-opacity:1;fill-rule:evenodd;stroke:none"
         transform="matrix(1.3333333,0,0,-1.3333333,0,880)"
         clip-path="url(#clipPath94)" />
      <path
         id="path95"
         d="M 0,0 H 13.741 L 62.774,52.935 H 49.033 Z"
         style="fill:#1d1d19;fill-opacity:1;fill-rule:evenodd;stroke:none"
         transform="matrix(1.3333333,0,0,-1.3333333,110.4792,732.70827)"
         clip-path="url(#clipPath96)" />
      <path
         id="path97"
         d="m 131.892,163.404 h 13.741 v 495.834 h -13.741 z"
         style="fill:#1d1d19;fill-opacity:1;fill-rule:evenodd;stroke:none"
         transform="matrix(1.3333333,0,0,-1.3333333,0,880)"
         clip-path="url(#clipPath98)" />
      <path
         id="path99"
         d="m 142.911,163.404 h 2.722 v 495.834 h -2.722 z"
         style="fill:#b4ab46;fill-opacity:1;fill-rule:evenodd;stroke:none"
         transform="matrix(1.3333333,0,0,-1.3333333,0,880)"
         clip-path="url(#clipPath100)" />
      <path
         id="path101"
         d="m 605.345,163.404 h 37.293 v 495.834 h -37.293 z"
         style="fill:#1d1d19;fill-opacity:1;fill-rule:evenodd;stroke:none"
         transform="matrix(1.3333333,0,0,-1.3333333,0,880)"
         clip-path="url(#clipPath102)" />
      <path
         id="path103"
         d="M 0,0 H 24.179 V 22.78 L 6.816,52.935 h -37.293 z"
         style="fill:#1d1d19;fill-opacity:1;fill-rule:evenodd;stroke:none"
         transform="matrix(1.3333333,0,0,-1.3333333,847.76173,732.70827)"
         clip-path="url(#clipPath104)" />
      <path
         id="path105"
         d="m 605.345,163.404 h 5.129 v 495.834 h -5.129 z"
         style="fill:#b4ab46;fill-opacity:1;fill-rule:evenodd;stroke:none"
         transform="matrix(1.3333333,0,0,-1.3333333,0,880)"
         clip-path="url(#clipPath106)" />
      <path
         id="path107"
         d="M 0,0 0.877,-2.853 3.729,-3.73 0.877,-4.605 0,-7.458 l -0.876,2.853 -2.853,0.875 2.853,0.877 z"
         style="fill:#e6db54;fill-opacity:1;fill-rule:evenodd;stroke:none"
         transform="matrix(1.3333333,0,0,-1.3333333,480.10813,344.30533)"
         clip-path="url(#clipPath108)" />
      <path
         id="path109"
         d="M 0,0 0.712,-2.318 3.03,-3.03 0.712,-3.742 0,-6.06 l -0.712,2.318 -2.316,0.712 2.316,0.712 z"
         style="fill:#e6db54;fill-opacity:1;fill-rule:evenodd;stroke:none"
         transform="matrix(1.3333333,0,0,-1.3333333,467.98827,155.35413)"
         clip-path="url(#clipPath110)" />
      <path
         id="path111"
         d="M 0,0 1.862,-6.062 7.924,-7.925 1.862,-9.787 0,-15.85 l -1.862,6.063 -6.064,1.862 6.064,1.863 z"
         style="fill:#e6db54;fill-opacity:1;fill-rule:evenodd;stroke:none"
         transform="matrix(1.3333333,0,0,-1.3333333,497.51173,98.7936)"
         clip-path="url(#clipPath112)" />
      <path
         id="path113"
         d="M 0,0 0.546,-1.783 2.331,-2.331 0.546,-2.879 0,-4.662 l -0.549,1.783 -1.782,0.548 1.782,0.548 z"
         style="fill:#e6db54;fill-opacity:1;fill-rule:evenodd;stroke:none"
         transform="matrix(1.3333333,0,0,-1.3333333,288.0508,164.056)"
         clip-path="url(#clipPath114)" />
      <path
         id="path115"
         d="M 0,0 0.985,-3.211 4.194,-4.195 0.985,-5.182 0,-8.392 l -0.986,3.21 -3.209,0.987 3.209,0.984 z"
         style="fill:#e6db54;fill-opacity:1;fill-rule:evenodd;stroke:none"
         transform="matrix(1.3333333,0,0,-1.3333333,626.1732,454.31907)"
         clip-path="url(#clipPath116)" />
      <path
         id="path117"
         d="M 0,0 0.986,-3.209 4.197,-4.196 0.986,-5.181 0,-8.392 l -0.986,3.211 -3.208,0.985 3.208,0.987 z"
         style="fill:#e6db54;fill-opacity:1;fill-rule:evenodd;stroke:none"
         transform="matrix(1.3333333,0,0,-1.3333333,762.914,371.65427)"
         clip-path="url(#clipPath118)" />
      <path
         id="path119"
         d="M 0,0 0.983,-3.209 4.194,-4.195 0.983,-5.182 0,-8.392 l -0.986,3.21 -3.211,0.987 3.211,0.986 z"
         style="fill:#e6db54;fill-opacity:1;fill-rule:evenodd;stroke:none"
         transform="matrix(1.3333333,0,0,-1.3333333,759.18613,481.668)"
         clip-path="url(#clipPath120)" />
      <path
         id="path121"
         d="M 0,0 0.603,-1.961 2.564,-2.563 0.603,-3.165 0,-5.128 l -0.603,1.963 -1.961,0.602 1.961,0.602 z"
         style="fill:#e6db54;fill-opacity:1;fill-rule:evenodd;stroke:none"
         transform="matrix(1.3333333,0,0,-1.3333333,512.11853,448.72653)"
         clip-path="url(#clipPath122)" />
      <path
         id="path123"
         d="m 0,0 1.69,-5.499 5.5,-1.689 -5.5,-1.689 -1.69,-5.499 -1.687,5.499 -5.5,1.689 5.5,1.689 z"
         style="fill:#e6db54;fill-opacity:1;fill-rule:evenodd;stroke:none"
         transform="matrix(1.3333333,0,0,-1.3333333,773.11853,32.9088)"
         clip-path="url(#clipPath124)" />
      <path
         id="path125"
         d="M 0,0 0.984,-3.209 4.195,-4.195 0.984,-5.181 0,-8.391 l -0.986,3.21 -3.21,0.986 3.21,0.986 z"
         style="fill:#e6db54;fill-opacity:1;fill-rule:evenodd;stroke:none"
         transform="matrix(1.3333333,0,0,-1.3333333,501.86453,14.2624)"
         clip-path="url(#clipPath126)" />
      <path
         id="path127"
         d="M 0,0 0.877,-2.852 3.729,-3.729 0.877,-4.606 0,-7.458 l -0.876,2.852 -2.852,0.877 2.852,0.877 z"
         style="fill:#e6db54;fill-opacity:1;fill-rule:evenodd;stroke:none"
         transform="matrix(1.3333333,0,0,-1.3333333,268.7812,93.8216)"
         clip-path="url(#clipPath128)" />
      <path
         id="path129"
         d="M 0,0 0.876,-2.853 3.729,-3.729 0.876,-4.605 0,-7.458 l -0.876,2.853 -2.853,0.876 2.853,0.876 z"
         style="fill:#e6db54;fill-opacity:1;fill-rule:evenodd;stroke:none"
         transform="matrix(1.3333333,0,0,-1.3333333,41.2956,118.68227)"
         clip-path="url(#clipPath130)" />
      <path
         id="path131"
         d="M 0,0 0.876,-2.853 3.729,-3.729 0.876,-4.605 0,-7.458 l -0.876,2.853 -2.853,0.876 2.853,0.876 z"
         style="fill:#e6db54;fill-opacity:1;fill-rule:evenodd;stroke:none"
         transform="matrix(1.3333333,0,0,-1.3333333,141.98627,24.207733)"
         clip-path="url(#clipPath132)" />
      <path
         id="path133"
         d="M 0,0 0.985,-3.21 4.194,-4.196 0.985,-5.182 0,-8.391 l -0.986,3.209 -3.211,0.986 3.211,0.986 z"
         style="fill:#e6db54;fill-opacity:1;fill-rule:evenodd;stroke:none"
         transform="matrix(1.3333333,0,0,-1.3333333,305.45507,198.24027)"
         clip-path="url(#clipPath134)" />
      <path
         id="path135"
         d="M 0,0 1.753,-5.706 7.458,-7.459 1.753,-9.212 0,-14.918 l -1.753,5.706 -5.707,1.753 5.707,1.753 z"
         style="fill:#e6db54;fill-opacity:1;fill-rule:evenodd;stroke:none"
         transform="matrix(1.3333333,0,0,-1.3333333,471.4076,44.0964)"
         clip-path="url(#clipPath136)" />
      <path
         id="path137"
         d="M 0,0 1.753,-5.705 7.46,-7.458 1.753,-9.211 0,-14.918 l -1.753,5.707 -5.705,1.753 5.705,1.753 z"
         style="fill:#e6db54;fill-opacity:1;fill-rule:evenodd;stroke:none"
         transform="matrix(1.3333333,0,0,-1.3333333,650.4128,557.49613)"
         clip-path="url(#clipPath138)" />
      <path
         id="path139"
         d="M 0,0 0.986,-3.209 4.194,-4.195 0.986,-5.182 0,-8.392 l -0.986,3.21 -3.211,0.987 3.211,0.986 z"
         style="fill:#e6db54;fill-opacity:1;fill-rule:evenodd;stroke:none"
         transform="matrix(1.3333333,0,0,-1.3333333,747.99733,591.05987)"
         clip-path="url(#clipPath140)" />
      <path
         id="path141"
         d="M 0,0 1.752,-5.705 7.458,-7.458 1.752,-9.211 0,-14.918 l -1.753,5.707 -5.707,1.753 5.707,1.753 z"
         style="fill:#e6db54;fill-opacity:1;fill-rule:evenodd;stroke:none"
         transform="matrix(1.3333333,0,0,-1.3333333,635.49733,531.39187)"
         clip-path="url(#clipPath142)" />
      <path
         id="path143"
         d="M 0,0 1.096,-3.566 4.662,-4.662 1.096,-5.757 0,-9.323 l -1.096,3.566 -3.565,1.095 3.565,1.096 z"
         style="fill:#e6db54;fill-opacity:1;fill-rule:evenodd;stroke:none"
         transform="matrix(1.3333333,0,0,-1.3333333,534.80467,499.0716)"
         clip-path="url(#clipPath144)" />
      <path
         id="path145"
         d="M 0,0 1.643,-5.349 6.992,-6.993 1.643,-8.636 0,-13.985 l -1.644,5.349 -5.349,1.643 5.349,1.644 z"
         style="fill:#e6db54;fill-opacity:1;fill-rule:evenodd;stroke:none"
         transform="matrix(1.3333333,0,0,-1.3333333,535.4284,363.57293)"
         clip-path="url(#clipPath146)" />
    </g>
  </g>
</svg>
