<?xml version="1.0" encoding="UTF-8" standalone="no"?>
<!-- Created with Inkscape (http://www.inkscape.org/) -->

<svg
   version="1.1"
   id="svg1"
   width="880"
   height="880"
   viewBox="0 0 880 880"
   sodipodi:docname="bonfire-in-the-forest.svg"
   inkscape:version="1.3.2 (091e20e, 2023-11-25, custom)"
   xmlns:inkscape="http://www.inkscape.org/namespaces/inkscape"
   xmlns:sodipodi="http://sodipodi.sourceforge.net/DTD/sodipodi-0.dtd"
   xmlns="http://www.w3.org/2000/svg"
   xmlns:svg="http://www.w3.org/2000/svg">
  <defs
     id="defs1">
    <clipPath
       clipPathUnits="userSpaceOnUse"
       id="clipPath4">
      <path
         d="M 0,660 H 660 V 0 H 0 Z"
         transform="translate(-378.79101,-471.75781)"
         id="path4" />
    </clipPath>
    <clipPath
       clipPathUnits="userSpaceOnUse"
       id="clipPath6">
      <path
         d="M 0,660 H 660 V 0 H 0 Z"
         transform="translate(-193.45851,-456.87451)"
         id="path6" />
    </clipPath>
    <clipPath
       clipPathUnits="userSpaceOnUse"
       id="clipPath8">
      <path
         d="M 0,660 H 660 V 0 H 0 Z"
         transform="translate(-428.86821,-381.99171)"
         id="path8" />
    </clipPath>
    <clipPath
       clipPathUnits="userSpaceOnUse"
       id="clipPath10">
      <path
         d="M 0,660 H 660 V 0 H 0 Z"
         transform="translate(-394.80081,-394.21971)"
         id="path10" />
    </clipPath>
    <clipPath
       clipPathUnits="userSpaceOnUse"
       id="clipPath12">
      <path
         d="M 0,660 H 660 V 0 H 0 Z"
         transform="translate(-245.32861,-424.79491)"
         id="path12" />
    </clipPath>
    <clipPath
       clipPathUnits="userSpaceOnUse"
       id="clipPath14">
      <path
         d="M 0,660 H 660 V 0 H 0 Z"
         transform="translate(-104.7285,-421.03711)"
         id="path14" />
    </clipPath>
    <clipPath
       clipPathUnits="userSpaceOnUse"
       id="clipPath16">
      <path
         d="M 0,660 H 660 V 0 H 0 Z"
         transform="translate(-329.90921,-158.9746)"
         id="path16" />
    </clipPath>
    <clipPath
       clipPathUnits="userSpaceOnUse"
       id="clipPath18">
      <path
         d="M 0,660 H 660 V 0 H 0 Z"
         transform="translate(-133.9351,-402.98191)"
         id="path18" />
    </clipPath>
    <clipPath
       clipPathUnits="userSpaceOnUse"
       id="clipPath20">
      <path
         d="M 0,660 H 660 V 0 H 0 Z"
         transform="translate(-128.66991,-328.50491)"
         id="path20" />
    </clipPath>
    <clipPath
       clipPathUnits="userSpaceOnUse"
       id="clipPath22">
      <path
         d="M 0,660 H 660 V 0 H 0 Z"
         transform="translate(-550.14361,-421.03711)"
         id="path22" />
    </clipPath>
    <clipPath
       clipPathUnits="userSpaceOnUse"
       id="clipPath24">
      <path
         d="M 0,660 H 660 V 0 H 0 Z"
         transform="translate(-520.93751,-402.98191)"
         id="path24" />
    </clipPath>
    <clipPath
       clipPathUnits="userSpaceOnUse"
       id="clipPath26">
      <path
         d="M 0,660 H 660 V 0 H 0 Z"
         transform="translate(-526.20211,-328.50491)"
         id="path26" />
    </clipPath>
    <clipPath
       clipPathUnits="userSpaceOnUse"
       id="clipPath28">
      <path
         d="M 0,660 H 660 V 0 H 0 Z"
         transform="translate(-329.90921,-169.1953)"
         id="path28" />
    </clipPath>
    <clipPath
       clipPathUnits="userSpaceOnUse"
       id="clipPath30">
      <path
         d="M 0,660 H 660 V 0 H 0 Z"
         id="path30" />
    </clipPath>
    <clipPath
       clipPathUnits="userSpaceOnUse"
       id="clipPath32">
      <path
         d="M 0,660 H 660 V 0 H 0 Z"
         transform="translate(-281.9512,-176.8965)"
         id="path32" />
    </clipPath>
    <clipPath
       clipPathUnits="userSpaceOnUse"
       id="clipPath34">
      <path
         d="M 0,660 H 660 V 0 H 0 Z"
         transform="translate(-329.80911,-178.8877)"
         id="path34" />
    </clipPath>
    <clipPath
       clipPathUnits="userSpaceOnUse"
       id="clipPath36">
      <path
         d="M 0,660 H 660 V 0 H 0 Z"
         transform="translate(-377.86721,-176.8965)"
         id="path36" />
    </clipPath>
    <clipPath
       clipPathUnits="userSpaceOnUse"
       id="clipPath38">
      <path
         d="M 0,660 H 660 V 0 H 0 Z"
         transform="translate(-332.69921,-182.5459)"
         id="path38" />
    </clipPath>
    <clipPath
       clipPathUnits="userSpaceOnUse"
       id="clipPath40">
      <path
         d="M 0,660 H 660 V 0 H 0 Z"
         transform="translate(-333.05571,-183.4443)"
         id="path40" />
    </clipPath>
    <clipPath
       clipPathUnits="userSpaceOnUse"
       id="clipPath42">
      <path
         d="M 0,660 H 660 V 0 H 0 Z"
         transform="translate(-329.80911,-170.791)"
         id="path42" />
    </clipPath>
  </defs>
  <sodipodi:namedview
     id="namedview1"
     pagecolor="#ffffff"
     bordercolor="#000000"
     borderopacity="0.25"
     inkscape:showpageshadow="2"
     inkscape:pageopacity="0.0"
     inkscape:pagecheckerboard="0"
     inkscape:deskcolor="#d1d1d1"
     inkscape:zoom="0.67272727"
     inkscape:cx="439.25676"
     inkscape:cy="440"
     inkscape:window-width="1440"
     inkscape:window-height="830"
     inkscape:window-x="-6"
     inkscape:window-y="-6"
     inkscape:window-maximized="1"
     inkscape:current-layer="g1">
    <inkscape:page
       x="0"
       y="0"
       inkscape:label="1"
       id="page1"
       width="880"
       height="880"
       margin="0 0.39066666 0.53733331 0.14585333"
       bleed="0" />
  </sodipodi:namedview>
  <g
     id="g1"
     inkscape:groupmode="layer"
     inkscape:label="1">
    <g
       id="group-MC0">
      <path
         id="path2"
         d="M 0.11,0 H 659.707 V 659.597 H 0.11 Z"
         style="fill:#332d2a;fill-opacity:1;fill-rule:nonzero;stroke:none"
         transform="matrix(1.3333333,0,0,-1.3333333,0,880)" />
      <path
         id="path3"
         d="m 0,0 c 8.797,0 15.931,-7.132 15.931,-15.931 0,-8.798 -7.134,-15.93 -15.931,-15.93 -8.799,0 -15.932,7.132 -15.932,15.93 C -15.932,-7.132 -8.799,0 0,0 m -1.465,-65.58 c 3.299,0 5.973,-2.675 5.973,-5.974 0,-3.301 -2.674,-5.974 -5.973,-5.974 -3.3,0 -5.974,2.673 -5.974,5.974 0,3.299 2.674,5.974 5.974,5.974 m -140.59,123.729 c 3.372,0 6.107,-2.734 6.107,-6.108 0,-3.372 -2.735,-6.107 -6.107,-6.107 -3.374,0 -6.107,2.735 -6.107,6.107 0,3.374 2.733,6.108 6.107,6.108 m 202.587,56.288 c 5.865,0 10.62,-4.754 10.62,-10.62 0,-5.866 -4.755,-10.62 -10.62,-10.62 -5.865,0 -10.621,4.754 -10.621,10.62 0,5.866 4.756,10.62 10.621,10.62 m -242.414,62.131 c 4.839,0 8.761,-3.923 8.761,-8.762 0,-4.84 -3.922,-8.763 -8.761,-8.763 -4.84,0 -8.762,3.923 -8.762,8.763 0,4.839 3.922,8.762 8.762,8.762 m 79.121,-254.628 c 3.079,0 5.576,-2.496 5.576,-5.577 0,-3.078 -2.497,-5.574 -5.576,-5.574 -3.078,0 -5.574,2.496 -5.574,5.574 0,3.081 2.496,5.577 5.574,5.577 m -33.852,60.802 c 5.204,0 9.426,-4.22 9.426,-9.425 0,-5.206 -4.222,-9.426 -9.426,-9.426 -5.205,0 -9.426,4.22 -9.426,9.426 0,5.205 4.221,9.425 9.426,9.425 m -17.243,205.097 c -2.474,-5.108 -3.863,-10.84 -3.863,-16.897 0,-3 0.342,-5.92 0.986,-8.723 -8.823,-9.045 -14.262,-21.405 -14.262,-35.037 0,-27.716 22.468,-50.183 50.182,-50.183 0.993,0 1.978,0.032 2.957,0.089 -4.35,-5.668 -6.935,-12.76 -6.935,-20.457 0,-3.57 0.556,-7.008 1.586,-10.236 -3.201,-3.248 -5.739,-7.152 -7.391,-11.491 -2.257,0.781 -4.681,1.206 -7.207,1.206 -12.171,0 -22.038,-9.866 -22.038,-22.039 0,-12.17 9.867,-22.036 22.038,-22.036 4.368,0 8.441,1.27 11.866,3.464 2.143,-5.646 6.417,-10.244 11.838,-12.811 -2.081,-3.95 -3.259,-8.448 -3.259,-13.222 0,-15.691 12.718,-28.411 28.411,-28.411 0.429,0 0.857,0.012 1.283,0.031 -2.659,-4.133 -4.205,-9.053 -4.205,-14.333 0,-7.811 3.378,-14.832 8.75,-19.686 -7.104,-3.799 -11.937,-11.291 -11.937,-19.91 0,-12.463 10.105,-22.569 22.569,-22.569 10.324,0 19.028,6.932 21.714,16.394 2.299,-0.646 4.722,-0.995 7.227,-0.995 14.664,0 26.552,11.889 26.552,26.551 0,6.966 -2.683,13.303 -7.07,18.038 5.056,5.64 8.131,13.091 8.131,21.26 0,14.994 -10.359,27.568 -24.313,30.959 5.782,4.967 9.445,12.331 9.445,20.55 0,2.238 -0.272,4.413 -0.786,6.494 10.05,2.771 18.175,10.188 21.917,19.796 4.29,-2.854 9.44,-4.517 14.98,-4.517 14.956,0 27.082,12.125 27.082,27.081 0,14.958 -12.126,27.083 -27.082,27.083 -3.302,0 -6.463,-0.591 -9.386,-1.671 -2.941,7.019 -8.299,12.772 -15.035,16.218 1.88,4.924 2.912,10.269 2.912,15.854 0,0.46 -0.009,0.918 -0.025,1.376 3.738,-0.982 7.661,-1.508 11.706,-1.508 20.658,0 38.13,13.638 43.908,32.4 7.517,-6.301 17.204,-10.096 27.781,-10.096 23.901,0 43.279,19.376 43.279,43.278 0,6.701 -1.522,13.044 -4.242,18.706 H 28.14 c -0.674,-1.403 -1.278,-2.848 -1.798,-4.33 -1.742,1.581 -3.608,3.029 -5.576,4.33 z m 94.668,-373.762 c 0.827,-1.283 1.304,-2.809 1.304,-4.45 0,-4.546 -3.684,-8.229 -8.23,-8.229 -4.546,0 -8.23,3.683 -8.23,8.229 0,0.15 0.003,0.3 0.011,0.448 -7.314,1.733 -12.758,8.304 -12.758,16.147 0,9.164 7.43,16.593 16.595,16.593 1.63,0 3.204,-0.235 4.691,-0.672 0.75,12.815 11.38,22.976 24.384,22.976 13.49,0 24.427,-10.937 24.427,-24.427 0,-13.49 -10.937,-24.426 -24.427,-24.426 -5.012,0 -9.668,1.508 -13.545,4.096 -0.911,-2.413 -2.369,-4.558 -4.222,-6.285"
         style="fill:#54493b;fill-opacity:1;fill-rule:evenodd;stroke:none"
         transform="matrix(1.3333333,0,0,-1.3333333,505.05467,250.9896)"
         clip-path="url(#clipPath4)" />
      <path
         id="path5"
         d="m 0,0 -31.676,-87.778 20.025,2.323 -22.024,-7.862 -15.37,-42.593 -9.893,-27.408 33.27,5.136 -35.923,-12.489 -17.61,-48.799 39.924,1.894 -45.356,-16.949 -13.459,-37.296 h 77.417 77.417 l -8.827,42.29 -23.793,16.802 21.788,-7.204 -14.479,69.365 -25.789,13.597 23.857,-4.34 -1.127,5.401 -14.235,68.194 -14.156,7.717 12.798,-1.218 z"
         style="fill:#4d4441;fill-opacity:1;fill-rule:evenodd;stroke:none"
         transform="matrix(1.3333333,0,0,-1.3333333,257.94467,270.834)"
         clip-path="url(#clipPath6)" />
      <path
         id="path7"
         d="m 0,0 24.191,-67.037 -15.292,1.775 16.819,-6.005 11.739,-32.528 7.554,-20.934 -25.408,3.924 27.434,-9.538 13.45,-37.268 -30.491,1.447 34.638,-12.944 10.28,-28.481 H 15.789 -43.334 l 6.741,32.296 18.171,12.832 -16.641,-5.502 11.06,52.974 19.695,10.384 -18.219,-3.315 0.861,4.125 10.871,52.079 10.809,5.894 -9.774,-0.93 z"
         style="fill:#4d4441;fill-opacity:1;fill-rule:evenodd;stroke:none"
         transform="matrix(1.3333333,0,0,-1.3333333,571.82427,370.67773)"
         clip-path="url(#clipPath8)" />
      <path
         id="path9"
         d="m 0,0 24.192,-67.039 -15.293,1.777 16.82,-6.005 11.738,-32.529 7.555,-20.933 -25.409,3.924 27.434,-9.539 13.45,-37.266 -30.49,1.446 34.638,-12.943 10.279,-28.483 H 15.789 -43.334 l 6.741,32.298 18.171,12.831 -16.641,-5.502 11.06,52.973 19.693,10.386 -18.217,-3.316 0.861,4.124 10.871,52.08 10.809,5.894 -9.774,-0.93 z"
         style="fill:#9c6c2d;fill-opacity:1;fill-rule:evenodd;stroke:none"
         transform="matrix(1.3333333,0,0,-1.3333333,526.40107,354.37373)"
         clip-path="url(#clipPath10)" />
      <path
         id="path11"
         d="m 0,0 17.724,-76.911 -17.281,2.039 18.399,-6.891 8.598,-37.32 5.535,-24.014 -28.563,4.501 30.048,-10.945 9.853,-42.755 -34.764,1.659 37.803,-14.85 7.531,-32.678 h -67.834 -67.832 l 12.568,37.055 22.767,14.722 -19.915,-6.314 20.616,60.777 24.15,11.915 -21.399,-3.804 1.605,4.731 20.267,59.751 13.282,6.762 -11.35,-1.065 z"
         style="fill:#9c6c2d;fill-opacity:1;fill-rule:evenodd;stroke:none"
         transform="matrix(1.3333333,0,0,-1.3333333,327.1048,313.6068)"
         clip-path="url(#clipPath12)" />
      <path
         id="path13"
         d="m 0,0 12.764,-76.911 -17.148,2.039 17.954,-6.891 6.193,-37.32 3.986,-24.016 -28.273,4.501 29.342,-10.943 7.096,-42.757 -34.657,1.661 36.846,-14.852 5.423,-32.676 H -28.307 -96.14 l 14.958,37.053 23.717,14.722 -20.323,-6.313 24.534,60.776 24.919,11.915 -21.645,-3.804 1.911,4.733 24.118,59.751 13.722,6.762 -11.421,-1.067 z"
         style="fill:#635a57;fill-opacity:1;fill-rule:evenodd;stroke:none"
         transform="matrix(1.3333333,0,0,-1.3333333,139.638,318.6172)"
         clip-path="url(#clipPath14)" />
      <path
         id="path15"
         d="M 0,0 C 124.791,0 226.573,7.752 226.573,17.26 226.573,26.767 124.791,34.52 0,34.52 -124.793,34.52 -226.574,26.767 -226.574,17.26 -226.574,7.752 -124.793,0 0,0"
         style="fill:#bf8539;fill-opacity:1;fill-rule:evenodd;stroke:none"
         transform="matrix(1.3333333,0,0,-1.3333333,439.87893,668.03387)"
         clip-path="url(#clipPath16)" />
      <path
         id="path17"
         d="m 0,0 12.764,-76.911 -17.149,2.037 17.954,-6.889 6.194,-37.318 3.985,-24.018 -28.273,4.502 29.342,-10.944 7.096,-42.757 -34.657,1.661 36.846,-14.851 5.423,-32.676 H -28.307 -96.14 l 14.958,37.051 23.716,14.723 -20.322,-6.313 24.534,60.778 24.919,11.914 -21.645,-3.804 1.91,4.734 24.119,59.751 13.721,6.758 -11.421,-1.065 z"
         style="fill:#332d2a;fill-opacity:1;fill-rule:evenodd;stroke:none"
         transform="matrix(1.3333333,0,0,-1.3333333,178.58013,342.6908)"
         clip-path="url(#clipPath18)" />
      <path
         id="path19"
         d="m 0,0 12.038,-11.818 4.299,-54.785 12.677,-2.019 -3.986,24.018 -6.194,37.318 -4.417,1.696 z m 0.741,-64.12 15.865,-5.917 2.731,-1.019 10.745,-4.008 7.097,-42.757 -16.886,0.808 -3.166,40.35 z m 1.78,-52.04 18.872,-14.882 2.563,-32.645 H 44.79 l -5.423,32.676 -13.88,5.594 h 0.001 z M 5.265,74.477 18.029,-2.434 11.237,-1.626 Z"
         style="fill:#ff9100;fill-opacity:1;fill-rule:evenodd;stroke:none"
         transform="matrix(1.3333333,0,0,-1.3333333,171.55987,441.99347)"
         clip-path="url(#clipPath20)" />
      <path
         id="path21"
         d="m 0,0 -12.764,-76.911 17.15,2.039 -17.953,-6.891 -6.196,-37.32 -3.985,-24.016 28.273,4.501 -29.342,-10.943 -7.096,-42.757 34.658,1.661 -36.847,-14.852 -5.423,-32.676 H 28.308 96.14 l -14.958,37.053 -23.714,14.722 20.321,-6.313 -24.534,60.776 -24.918,11.915 21.643,-3.804 -1.91,4.733 -24.119,59.751 -13.72,6.762 11.421,-1.067 z"
         style="fill:#635a57;fill-opacity:1;fill-rule:evenodd;stroke:none"
         transform="matrix(1.3333333,0,0,-1.3333333,733.5248,318.6172)"
         clip-path="url(#clipPath22)" />
      <path
         id="path23"
         d="m 0,0 -12.763,-76.911 17.148,2.037 -17.953,-6.889 -6.194,-37.318 -3.986,-24.018 28.273,4.502 -29.343,-10.944 -7.094,-42.757 34.656,1.661 -36.847,-14.851 -5.422,-32.676 h 67.832 67.832 l -14.955,37.051 -23.717,14.723 20.321,-6.313 -24.534,60.778 -24.917,11.914 21.644,-3.804 -1.911,4.734 -24.119,59.751 -13.72,6.758 11.421,-1.065 z"
         style="fill:#332d2a;fill-opacity:1;fill-rule:evenodd;stroke:none"
         transform="matrix(1.3333333,0,0,-1.3333333,694.58333,342.6908)"
         clip-path="url(#clipPath24)" />
      <path
         id="path25"
         d="m 0,0 -12.036,-11.818 -4.299,-54.785 -12.678,-2.019 3.987,24.018 6.193,37.318 4.417,1.696 z m -0.739,-64.12 -15.867,-5.917 -2.73,-1.019 -10.747,-4.008 -7.094,-42.757 16.885,0.808 3.167,40.35 z m -1.782,-52.04 -18.871,-14.882 -2.563,-32.645 H -44.79 l 5.423,32.676 13.881,5.594 z m -2.744,190.637 -12.762,-76.911 6.79,0.808 z"
         style="fill:#ff9100;fill-opacity:1;fill-rule:evenodd;stroke:none"
         transform="matrix(1.3333333,0,0,-1.3333333,701.6028,441.99347)"
         clip-path="url(#clipPath26)" />
      <path
         id="path27"
         d="m 0,0 c 49.888,0 90.577,3.865 90.577,8.604 0,4.738 -40.689,8.603 -90.577,8.603 -49.887,0 -90.577,-3.865 -90.577,-8.603 C -90.577,3.865 -49.887,0 0,0"
         style="fill:#8c7f7a;fill-opacity:1;fill-rule:evenodd;stroke:none"
         transform="matrix(1.3333333,0,0,-1.3333333,439.87893,654.40627)"
         clip-path="url(#clipPath28)" />
      <path
         id="path29"
         d="m 281.75,176.896 h 96.117 v 11.948 H 281.75 Z"
         style="fill:#8c3604;fill-opacity:1;fill-rule:evenodd;stroke:none"
         transform="matrix(1.3333333,0,0,-1.3333333,0,880)"
         clip-path="url(#clipPath30)" />
      <path
         id="path31"
         d="m 0,0 c 1.718,0 3.118,2.685 3.118,5.976 0,3.29 -1.4,5.972 -3.118,5.972 -1.718,0 -3.12,-2.682 -3.12,-5.972 C -3.12,2.685 -1.718,0 0,0"
         style="fill:#fab870;fill-opacity:1;fill-rule:evenodd;stroke:none"
         transform="matrix(1.3333333,0,0,-1.3333333,375.93493,644.138)"
         clip-path="url(#clipPath32)" />
      <path
         id="path33"
         d="m 0,0 c -22.446,15.124 -20.56,32.449 -11.543,46.415 -0.414,-3.495 -0.606,-7.065 -0.402,-10.768 2.628,10.4 6.614,19.386 13.41,25.446 4.879,4.248 9.809,7.576 13.627,9.6 -5.07,-6.255 -4.674,-14.385 -2.875,-22.946 l -5.823,3.686 c 5.051,-7.668 6.543,-17.46 6.325,-28.272 1.336,3.997 2.133,7.964 2.663,11.917 C 19.24,19.981 21.339,5.719 0,0"
         style="fill:#ffcc00;fill-opacity:1;fill-rule:evenodd;stroke:none"
         transform="matrix(1.3333333,0,0,-1.3333333,439.74547,641.48307)"
         clip-path="url(#clipPath34)" />
      <path
         id="path35"
         d="m 0,0 c 1.719,0 3.12,2.685 3.12,5.976 0,3.29 -1.401,5.972 -3.12,5.972 -1.718,0 -3.12,-2.682 -3.12,-5.972 C -3.12,2.685 -1.718,0 0,0"
         style="fill:#fab870;fill-opacity:1;fill-rule:evenodd;stroke:none"
         transform="matrix(1.3333333,0,0,-1.3333333,503.82293,644.138)"
         clip-path="url(#clipPath36)" />
      <path
         id="path37"
         d="m 0,0 c -14.119,7.554 -15.101,18.8 -11.765,28.57 0.18,-2.271 0.489,-4.571 1.034,-6.917 0.235,6.891 1.379,13.008 4.415,17.517 2.19,3.174 4.515,5.763 6.381,7.415 -2.06,-4.474 -0.895,-9.63 1.093,-14.93 l -3.634,1.807 C 1.198,29.037 3.16,22.921 4.301,15.992 4.57,18.672 4.546,21.282 4.377,23.857 8.259,14.575 11.08,5.659 0,0"
         style="fill:#ff9100;fill-opacity:1;fill-rule:evenodd;stroke:none"
         transform="matrix(1.3333333,0,0,-1.3333333,443.59893,636.60547)"
         clip-path="url(#clipPath38)" />
      <path
         id="path39"
         d="m 0,0 c -7.82,4.185 -8.365,10.415 -6.517,15.827 0.099,-1.26 0.269,-2.532 0.572,-3.832 0.13,3.817 0.766,7.204 2.446,9.702 1.213,1.758 2.501,3.194 3.535,4.11 -1.143,-2.48 -0.496,-5.335 0.605,-8.272 l -2.014,1.001 c 2.036,-2.451 3.122,-5.84 3.755,-9.677 0.148,1.485 0.136,2.93 0.043,4.358 C 4.575,8.074 6.136,3.136 0,0"
         style="fill:#fff07f;fill-opacity:1;fill-rule:evenodd;stroke:none"
         transform="matrix(1.3333333,0,0,-1.3333333,444.07427,635.4076)"
         clip-path="url(#clipPath40)" />
      <path
         id="path41"
         d="m 0,0 c 4.425,0 8.033,3.607 8.033,8.031 0,4.425 -3.608,8.032 -8.033,8.032 -4.423,0 -8.031,-3.607 -8.031,-8.032 C -8.031,3.607 -4.423,0 0,0"
         style="fill:#ffab52;fill-opacity:1;fill-rule:evenodd;stroke:none"
         transform="matrix(1.3333333,0,0,-1.3333333,439.74547,652.27867)"
         clip-path="url(#clipPath42)" />
    </g>
  </g>
</svg>
