<?xml version="1.0" encoding="UTF-8" standalone="no"?>
<!-- Created with Inkscape (http://www.inkscape.org/) -->

<svg
   version="1.1"
   id="svg1"
   width="880"
   height="880"
   viewBox="0 0 880 880"
   sodipodi:docname="bridge-city-in-the-distance.svg"
   inkscape:version="1.3.2 (091e20e, 2023-11-25, custom)"
   xmlns:inkscape="http://www.inkscape.org/namespaces/inkscape"
   xmlns:sodipodi="http://sodipodi.sourceforge.net/DTD/sodipodi-0.dtd"
   xmlns="http://www.w3.org/2000/svg"
   xmlns:svg="http://www.w3.org/2000/svg">
  <defs
     id="defs1">
    <clipPath
       clipPathUnits="userSpaceOnUse"
       id="clipPath4">
      <path
         d="M 0,660 H 660 V 0 H 0 Z"
         transform="translate(-167.65041,-451.82131)"
         id="path4" />
    </clipPath>
    <clipPath
       clipPathUnits="userSpaceOnUse"
       id="clipPath6">
      <path
         d="M 0,660 H 660 V 0 H 0 Z"
         id="path6" />
    </clipPath>
    <clipPath
       clipPathUnits="userSpaceOnUse"
       id="clipPath8">
      <path
         d="M 0,660 H 660 V 0 H 0 Z"
         id="path8" />
    </clipPath>
    <clipPath
       clipPathUnits="userSpaceOnUse"
       id="clipPath10">
      <path
         d="M 0,660 H 660 V 0 H 0 Z"
         transform="translate(-0.0957,-230.16211)"
         id="path10" />
    </clipPath>
    <clipPath
       clipPathUnits="userSpaceOnUse"
       id="clipPath12">
      <path
         d="M 0,660 H 660 V 0 H 0 Z"
         id="path12" />
    </clipPath>
    <clipPath
       clipPathUnits="userSpaceOnUse"
       id="clipPath14">
      <path
         d="M 0,660 H 660 V 0 H 0 Z"
         transform="translate(-346.79491,-84.576205)"
         id="path14" />
    </clipPath>
    <clipPath
       clipPathUnits="userSpaceOnUse"
       id="clipPath16">
      <path
         d="M 0,660 H 660 V 0 H 0 Z"
         transform="translate(-617.20511,-187.56351)"
         id="path16" />
    </clipPath>
    <clipPath
       clipPathUnits="userSpaceOnUse"
       id="clipPath18">
      <path
         d="M 0,660 H 660 V 0 H 0 Z"
         transform="translate(-627.68752,-311.24801)"
         id="path18" />
    </clipPath>
    <clipPath
       clipPathUnits="userSpaceOnUse"
       id="clipPath20">
      <path
         d="M 0,660 H 660 V 0 H 0 Z"
         transform="translate(-438.42581,-187.56351)"
         id="path20" />
    </clipPath>
    <clipPath
       clipPathUnits="userSpaceOnUse"
       id="clipPath22">
      <path
         d="M 0,660 H 660 V 0 H 0 Z"
         transform="translate(-130.0615,-187.56351)"
         id="path22" />
    </clipPath>
    <clipPath
       clipPathUnits="userSpaceOnUse"
       id="clipPath24">
      <path
         d="M 0,660 H 660 V 0 H 0 Z"
         transform="translate(-48.913601,-187.56351)"
         id="path24" />
    </clipPath>
    <clipPath
       clipPathUnits="userSpaceOnUse"
       id="clipPath26">
      <path
         d="M 0,660 H 660 V 0 H 0 Z"
         transform="translate(-119.57961,-425.23341)"
         id="path26" />
    </clipPath>
    <clipPath
       clipPathUnits="userSpaceOnUse"
       id="clipPath28">
      <path
         d="M 0,660 H 660 V 0 H 0 Z"
         transform="translate(-448.90721,-311.24801)"
         id="path28" />
    </clipPath>
    <clipPath
       clipPathUnits="userSpaceOnUse"
       id="clipPath30">
      <path
         d="M 0,660 H 660 V 0 H 0 Z"
         id="path30" />
    </clipPath>
    <clipPath
       clipPathUnits="userSpaceOnUse"
       id="clipPath32">
      <path
         d="M 0,660 H 660 V 0 H 0 Z"
         transform="translate(-357.27731,-187.56351)"
         id="path32" />
    </clipPath>
    <clipPath
       clipPathUnits="userSpaceOnUse"
       id="clipPath34">
      <path
         d="M 0,660 H 660 V 0 H 0 Z"
         transform="translate(-38.431201,-425.23341)"
         id="path34" />
    </clipPath>
    <clipPath
       clipPathUnits="userSpaceOnUse"
       id="clipPath36">
      <path
         d="M 0,660 H 660 V 0 H 0 Z"
         transform="translate(-346.79491,-425.23341)"
         id="path36" />
    </clipPath>
    <clipPath
       clipPathUnits="userSpaceOnUse"
       id="clipPath38">
      <path
         d="M 0,660 H 660 V 0 H 0 Z"
         transform="translate(-165.4189,-333.42191)"
         id="path38" />
    </clipPath>
    <clipPath
       clipPathUnits="userSpaceOnUse"
       id="clipPath40">
      <path
         d="M 0,660 H 660 V 0 H 0 Z"
         transform="translate(-366.18751,-415.74221)"
         id="path40" />
    </clipPath>
    <clipPath
       clipPathUnits="userSpaceOnUse"
       id="clipPath42">
      <path
         d="M 0,660 H 660 V 0 H 0 Z"
         transform="translate(-38.501001,-415.74221)"
         id="path42" />
    </clipPath>
    <clipPath
       clipPathUnits="userSpaceOnUse"
       id="clipPath44">
      <path
         d="M 0,660 H 660 V 0 H 0 Z"
         transform="translate(-536.05762,-187.56351)"
         id="path44" />
    </clipPath>
    <clipPath
       clipPathUnits="userSpaceOnUse"
       id="clipPath46">
      <path
         d="M 0,660 H 660 V 0 H 0 Z"
         transform="translate(-525.57521,-313.35351)"
         id="path46" />
    </clipPath>
    <clipPath
       clipPathUnits="userSpaceOnUse"
       id="clipPath48">
      <path
         d="M 0,660 H 660 V 0 H 0 Z"
         transform="translate(-248.2705,-599.69821)"
         id="path48" />
    </clipPath>
    <clipPath
       clipPathUnits="userSpaceOnUse"
       id="clipPath50">
      <path
         d="M 0,660 H 660 V 0 H 0 Z"
         transform="translate(-627.17192,-560.89651)"
         id="path50" />
    </clipPath>
    <clipPath
       clipPathUnits="userSpaceOnUse"
       id="clipPath52">
      <path
         d="M 0,660 H 660 V 0 H 0 Z"
         transform="translate(-178.8613,-471.75391)"
         id="path52" />
    </clipPath>
    <clipPath
       clipPathUnits="userSpaceOnUse"
       id="clipPath54">
      <path
         d="M 0,660 H 660 V 0 H 0 Z"
         transform="translate(-366.79101,-509.74462)"
         id="path54" />
    </clipPath>
    <clipPath
       clipPathUnits="userSpaceOnUse"
       id="clipPath56">
      <path
         d="M 0,660 H 660 V 0 H 0 Z"
         transform="translate(-149.35011,-165.5752)"
         id="path56" />
    </clipPath>
    <clipPath
       clipPathUnits="userSpaceOnUse"
       id="clipPath58">
      <path
         d="M 0,660 H 660 V 0 H 0 Z"
         transform="translate(-511.36132,-137.8398)"
         id="path58" />
    </clipPath>
    <clipPath
       clipPathUnits="userSpaceOnUse"
       id="clipPath60">
      <path
         d="M 0,660 H 660 V 0 H 0 Z"
         transform="translate(-149.35011,-82.0117)"
         id="path60" />
    </clipPath>
    <clipPath
       clipPathUnits="userSpaceOnUse"
       id="clipPath62">
      <path
         d="M 0,660 H 660 V 0 H 0 Z"
         transform="translate(-511.36132,-18.9111)"
         id="path62" />
    </clipPath>
    <clipPath
       clipPathUnits="userSpaceOnUse"
       id="clipPath64">
      <path
         d="M 0,660 H 660 V 0 H 0 Z"
         transform="translate(-507.79792,-485.21921)"
         id="path64" />
    </clipPath>
  </defs>
  <sodipodi:namedview
     id="namedview1"
     pagecolor="#ffffff"
     bordercolor="#000000"
     borderopacity="0.25"
     inkscape:showpageshadow="2"
     inkscape:pageopacity="0.0"
     inkscape:pagecheckerboard="0"
     inkscape:deskcolor="#d1d1d1"
     inkscape:zoom="0.67272727"
     inkscape:cx="439.25676"
     inkscape:cy="440"
     inkscape:window-width="1440"
     inkscape:window-height="830"
     inkscape:window-x="-6"
     inkscape:window-y="-6"
     inkscape:window-maximized="1"
     inkscape:current-layer="g1">
    <inkscape:page
       x="0"
       y="0"
       inkscape:label="1"
       id="page1"
       width="880"
       height="880"
       margin="0 0 0.64133334 0.12758388"
       bleed="0" />
  </sodipodi:namedview>
  <g
     id="g1"
     inkscape:groupmode="layer"
     inkscape:label="1">
    <g
       id="group-MC0">
      <path
         id="path2"
         d="M 0.095,0 H 659.999 V 659.519 H 0.095 Z"
         style="fill:#49a3fc;fill-opacity:1;fill-rule:nonzero;stroke:none"
         transform="matrix(1.3333333,0,0,-1.3333333,0,880)" />
      <path
         id="path3"
         d="M 0,0 C 26.389,0 47.912,21.522 47.912,47.912 47.912,74.301 26.389,95.823 0,95.823 -26.389,95.823 -47.911,74.301 -47.911,47.912 -47.911,21.522 -26.389,0 0,0"
         style="fill:#ffffff;fill-opacity:1;fill-rule:evenodd;stroke:none"
         transform="matrix(1.3333333,0,0,-1.3333333,223.53387,277.5716)"
         clip-path="url(#clipPath4)" />
      <path
         id="path5"
         d="m 538.072,414.557 h 55.009 V 242.461 H 538.072 Z M 334.449,359.104 h 64.769 v 51.46 h 98.04 V 242.461 h -98.04 -64.769 z"
         style="fill:#82cdff;fill-opacity:1;fill-rule:evenodd;stroke:none"
         transform="matrix(1.3333333,0,0,-1.3333333,0,880)"
         clip-path="url(#clipPath6)" />
      <path
         id="path7"
         d="M 480.845,457.588 H 559.81 V 242.461 h -78.965 z m -96.71,12.866 h 37.707 V 242.461 h -37.707 z m 197.411,22.18 h 79.067 V 242.461 h -79.067 z"
         style="fill:#b8e3ff;fill-opacity:1;fill-rule:evenodd;stroke:none"
         transform="matrix(1.3333333,0,0,-1.3333333,0,880)"
         clip-path="url(#clipPath8)" />
      <path
         id="path9"
         d="m 0,0 v 40.125 c 4.976,4.748 11.716,7.662 19.137,7.662 9.504,0 17.889,-4.781 22.885,-12.069 6.434,5.978 15.055,9.637 24.533,9.637 7.287,0 14.069,-2.163 19.739,-5.882 5.352,11.711 17.166,19.85 30.883,19.85 16.593,0 30.402,-11.908 33.352,-27.645 3.665,1.241 7.592,1.914 11.676,1.914 3.867,0 7.593,-0.605 11.089,-1.724 3.973,10.597 14.192,18.138 26.175,18.138 14.658,0 26.679,-11.283 27.853,-25.639 5.548,4.651 12.698,7.452 20.502,7.452 13.493,0 25.032,-8.367 29.712,-20.196 3.604,2.656 8.056,4.225 12.876,4.225 3.654,0 7.097,-0.903 10.119,-2.496 3.266,7.723 10.912,13.142 19.825,13.142 11.883,0 21.516,-9.633 21.516,-21.515 0,-11.883 -9.633,-21.515 -21.516,-21.515 -3.545,0 -6.889,0.857 -9.837,2.376 -3.255,-7.902 -11.03,-13.467 -20.107,-13.467 -6.926,0 -13.095,3.239 -17.076,8.285 -5.83,-7.725 -15.087,-12.722 -25.512,-12.722 -17.494,0 -31.701,14.067 -31.935,31.506 -4.61,-3.352 -10.283,-5.331 -16.42,-5.331 -0.341,0 -0.68,0.007 -1.019,0.02 -1.566,-18.646 -17.194,-33.291 -36.245,-33.291 -18.54,0 -33.841,13.87 -36.091,31.801 -2.848,-0.776 -5.844,-1.193 -8.937,-1.193 -6.232,0 -12.071,1.683 -17.09,4.614 -5.28,-13.352 -18.303,-22.796 -33.532,-22.796 -15.229,0 -28.251,9.443 -33.532,22.794 C 28.939,-6.308 24.197,-7.665 19.137,-7.665 11.716,-7.665 4.976,-4.75 0,0"
         style="fill:#1f7cd9;fill-opacity:1;fill-rule:evenodd;stroke:none"
         transform="matrix(1.3333333,0,0,-1.3333333,0.1276,573.1172)"
         clip-path="url(#clipPath10)" />
      <path
         id="path11"
         d="M 0.096,-1 H 660.614 V 242.461 H 0.096 Z"
         style="fill:#0c5cab;fill-opacity:1;fill-rule:evenodd;stroke:none"
         transform="matrix(1.3333333,0,0,-1.3333333,0,880)"
         clip-path="url(#clipPath12)" />
      <path
         id="path13"
         d="m 0,0 v -20.817 c -7.213,2.477 -14.526,4.569 -21.899,6.272 V 0 Z m -145.351,0 v -9.167 c -1.719,0.041 -3.438,0.06 -5.155,0.058 -9.407,-0.014 -18.781,-0.684 -28.05,-2.034 V 0 Z m 39.164,0 v -12.63 c -0.991,-0.19 -1.978,-0.39 -2.966,-0.598 -10.018,2.01 -20.128,3.296 -30.239,3.833 V 0 Z m 39.165,0 v -9.117 c -0.779,0.008 -1.558,0.01 -2.336,0.008 -10.361,-0.014 -20.684,-0.829 -30.869,-2.466 V 0 Z m 39.164,0 v -13.256 c -10.997,2.212 -22.106,3.555 -33.205,3.991 V 0 Z m -111.534,-14.293 c 6.107,-0.338 12.215,-0.959 18.302,-1.857 -6.188,-1.733 -12.296,-3.789 -18.302,-6.181 z m -39.164,-1.819 c 9.266,1.403 18.642,2.105 28.05,2.119 2.656,0.003 5.315,-0.046 7.975,-0.153 v -9.47 c -9.607,-4.035 -18.937,-8.933 -27.89,-14.724 -2.748,-1.779 -5.461,-3.642 -8.135,-5.589 z m -27.696,-6.455 c 8.05,2.567 16.255,4.546 24.557,5.949 v -29.647 c -8.643,-6.586 -16.863,-14.08 -24.557,-22.513 z m -35.463,-15.848 c 4.74,2.796 9.578,5.343 14.5,7.644 v -29.637 c -3.878,7.93 -8.748,15.29 -14.5,21.993 M -262.844,0 v -19.391 l -0.065,0.046 c -7.452,5.197 -15.652,9.664 -24.491,13.324 V 0 Z m 35.629,-25.146 c -6.154,-2.742 -12.185,-5.84 -18.07,-9.312 -4.378,4.621 -9.198,8.896 -14.419,12.8 V 0 h 32.489 z M -184.515,0 v -12.107 c -7.335,-1.302 -14.593,-3.039 -21.737,-5.216 V 0 Z m 159.796,-18.983 c 8.333,-1.875 16.592,-4.266 24.719,-7.163 v -43.612 c -7.815,7.333 -16.085,14.049 -24.719,20.116 z m -39.163,4.92 c 12.033,-0.317 24.096,-1.747 36.024,-4.239 v -29.171 c -6.244,4.235 -12.667,8.137 -19.239,11.698 -5.499,2.98 -11.1,5.721 -16.785,8.216 z m -33.072,-1.98 c 9.117,1.357 18.342,2.036 27.596,2.05 0.778,0 1.557,-0.003 2.336,-0.011 V -26.21 c -9.776,4.116 -19.787,7.513 -29.932,10.167 m -162.75,-12.674 c 3.34,-2.763 6.486,-5.698 9.423,-8.8 -0.43,-0.271 -0.86,-0.546 -1.289,-0.823 -2.748,-1.779 -5.46,-3.642 -8.134,-5.589 z M -287.4,-68.778 v 57.032 c 7.308,-3.232 14.129,-7.053 20.388,-11.417 1.419,-0.99 2.808,-2.007 4.168,-3.053 v -20.049 c -8.642,-6.586 -16.863,-14.08 -24.556,-22.513 m 340.691,48.001 c -6.509,-4.74 -12.413,-10.051 -17.637,-15.876 -0.533,0.295 -1.067,0.589 -1.602,0.878 -4.303,2.331 -8.669,4.517 -13.088,6.553 V 0 H 53.291 Z M 81.148,-5.47 C 72.238,-9.051 63.963,-13.441 56.431,-18.567 V 0 h 24.717 z m 20.964,1.343 c 7.991,2.002 16.383,3.394 25.106,4.127 h 51.995 c -15.766,-4.26 -30.006,-10.818 -42.234,-19.345 -14.944,-10.417 -26.862,-23.76 -34.867,-39.409 z M 56.431,-25.312 c 0.975,0.731 1.967,1.445 2.974,2.149 6.646,4.633 13.922,8.653 21.743,12.007 v -58.602 c -7.815,7.333 -16.083,14.049 -24.717,20.116 z M 40.778,-39.57 c 3.805,4.24 7.986,8.19 12.513,11.827 v -19.73 c -4.097,2.779 -8.27,5.413 -12.513,7.903 M 20.964,-57.734 v 22.851 c 3.27,-1.568 6.508,-3.218 9.713,-4.953 0.513,-0.28 1.029,-0.56 1.542,-0.847 -4.305,-5.308 -8.075,-11.004 -11.255,-17.051 M 280.893,14.17 v 79.033 h 17.074 V 104.65 H 242.853 V 93.203 h 17.076 V 14.17 h -60.185 v 79.033 h 17.074 V 104.65 H 161.705 V 93.203 H 178.78 V 14.17 h -76.668 v 79.033 h 17.076 V 104.65 H 64.074 V 93.203 H 81.148 V 14.17 H 20.964 V 93.203 H 38.038 V 104.65 H -17.075 V 93.203 H 0 V 14.17 h -206.252 v 79.033 h 17.075 V 104.65 H -244.29 V 93.203 h 17.075 V 14.17 H -287.4 v 79.033 h 17.075 v 11.447 h -55.114 V 93.203 h 17.075 V 14.17 h -38.335 V 0 h 11.874 c 9.218,-0.776 18.065,-2.284 26.461,-4.474 v -56.229 c -7.996,16.488 -20.277,30.511 -35.84,41.358 -0.822,0.575 -1.655,1.138 -2.495,1.693 v -6.655 c 18.507,-13.384 31.938,-31.634 38.335,-53.384 v -7.885 h 20.964 v 8.33 c 11.925,14.151 25.283,25.808 39.634,35.091 0.35,0.228 0.701,0.45 1.051,0.675 8.85,-10.368 15.502,-22.382 19.5,-35.72 v -8.376 h 20.963 v 8.33 c 11.926,14.151 25.283,25.808 39.635,35.091 17.899,11.581 37.351,19.46 57.504,23.876 20.204,-4.208 40.021,-11.469 58.64,-21.557 18.22,-9.875 35.295,-22.461 50.473,-37.558 v -8.182 h 20.964 v 12.557 c 3.764,10.796 9.311,20.66 16.382,29.416 15.721,-9.242 30.491,-20.551 43.802,-33.791 v -8.182 h 20.964 v 11.001 c 6.933,20.994 20.538,38.56 38.97,51.412 18.382,12.815 41.599,20.96 67.813,23.163 h 104.923 v 14.17 z"
         style="fill:#044a8f;fill-opacity:1;fill-rule:evenodd;stroke:none"
         transform="matrix(1.3333333,0,0,-1.3333333,462.3932,767.23173)"
         clip-path="url(#clipPath14)" />
      <path
         id="path15"
         d="M 0,0 C 23.548,0 42.755,0.746 42.755,1.663 42.755,2.58 23.548,3.327 0,3.327 -23.548,3.327 -42.754,2.58 -42.754,1.663 -42.754,0.746 -23.548,0 0,0"
         style="fill:#2b80d6;fill-opacity:1;fill-rule:evenodd;stroke:none"
         transform="matrix(1.3333333,0,0,-1.3333333,822.94013,629.91533)"
         clip-path="url(#clipPath16)" />
      <path
         id="path17"
         d="m 0,0 v -107.82 h 17.074 v -14.201 h -55.113 v 14.201 h 17.075 V 0 Z"
         style="fill:#044a8f;fill-opacity:1;fill-rule:evenodd;stroke:none"
         transform="matrix(1.3333333,0,0,-1.3333333,836.91667,465.00267)"
         clip-path="url(#clipPath18)" />
      <path
         id="path19"
         d="M 0,0 C 23.548,0 42.754,0.746 42.754,1.663 42.754,2.58 23.548,3.327 0,3.327 -23.548,3.327 -42.755,2.58 -42.755,1.663 -42.755,0.746 -23.548,0 0,0"
         style="fill:#2b80d6;fill-opacity:1;fill-rule:evenodd;stroke:none"
         transform="matrix(1.3333333,0,0,-1.3333333,584.56773,629.91533)"
         clip-path="url(#clipPath20)" />
      <path
         id="path21"
         d="M 0,0 C 23.549,0 42.754,0.746 42.754,1.663 42.754,2.58 23.549,3.327 0,3.327 -23.548,3.327 -42.754,2.58 -42.754,1.663 -42.754,0.746 -23.548,0 0,0"
         style="fill:#2b80d6;fill-opacity:1;fill-rule:evenodd;stroke:none"
         transform="matrix(1.3333333,0,0,-1.3333333,173.41533,629.91533)"
         clip-path="url(#clipPath22)" />
      <path
         id="path23"
         d="M 0,0 C 23.548,0 42.754,0.746 42.754,1.663 42.754,2.58 23.548,3.327 0,3.327 -23.549,3.327 -42.754,2.58 -42.754,1.663 -42.754,0.746 -23.549,0 0,0"
         style="fill:#2b80d6;fill-opacity:1;fill-rule:evenodd;stroke:none"
         transform="matrix(1.3333333,0,0,-1.3333333,65.218133,629.91533)"
         clip-path="url(#clipPath24)" />
      <path
         id="path25"
         d="m 0,0 h 20.963 v -10.333 c 11.926,-17.558 25.284,-32.022 39.635,-43.54 29.477,-23.656 63.166,-34.873 97.259,-34.938 34.168,-0.064 68.786,11.055 100.035,32.064 18.219,12.248 35.293,27.865 50.472,46.593 V 0 h 20.964 v -13.647 c 6.932,-26.048 20.538,-47.842 38.969,-63.785 19.393,-16.775 44.163,-27.102 72.161,-29.122 l -0.442,-6.263 c -29.378,2.119 -55.407,12.987 -75.821,30.645 -14.945,12.926 -26.863,29.482 -34.867,48.893 v -188.527 h 17.075 v -14.201 h -55.114 v 14.201 h 17.075 v 202.179 c -7.816,-9.097 -16.084,-17.427 -24.718,-24.958 V -111.1 h -3.14 v 63.826 c -6.244,-5.253 -12.668,-10.094 -19.239,-14.512 -5.499,-3.697 -11.101,-7.097 -16.786,-10.194 v -39.12 h -3.14 v 37.446 c -11.728,-6.127 -23.793,-10.968 -36.025,-14.472 V -111.1 h -3.139 v 22.105 c -11.916,-3.182 -23.976,-5.094 -36.025,-5.682 V -111.1 h -3.139 v 16.301 c -1.719,-0.051 -3.438,-0.076 -5.156,-0.073 -10.361,0.02 -20.683,1.03 -30.869,3.06 V -111.1 h -3.139 v 19.948 c -12.282,2.71 -24.348,6.919 -36.025,12.686 V -111.1 h -3.139 v 34.228 c -9.608,5.007 -18.938,11.085 -27.891,18.269 -2.748,2.206 -5.461,4.517 -8.135,6.933 V -111.1 H 45.52 v 62.329 c -8.643,8.169 -16.863,17.469 -24.557,27.931 v -200.966 h 17.076 v -14.201 h -55.114 v 14.201 H 0 v 190.579 c -7.999,-20.298 -20.225,-37.565 -35.694,-50.945 -20.414,-17.658 -46.443,-28.526 -75.822,-30.645 l -0.441,6.263 c 27.998,2.02 52.768,12.347 72.16,29.122 C -20.601,-60.829 -6.641,-37.88 0,-10.39 Z"
         style="fill:#044a8f;fill-opacity:1;fill-rule:evenodd;stroke:none"
         transform="matrix(1.3333333,0,0,-1.3333333,159.43947,313.02213)"
         clip-path="url(#clipPath26)" />
      <path
         id="path27"
         d="m 0,0 v -107.82 h 17.075 v -14.201 h -55.113 v 14.201 h 17.074 V 0 Z"
         style="fill:#044a8f;fill-opacity:1;fill-rule:evenodd;stroke:none"
         transform="matrix(1.3333333,0,0,-1.3333333,598.54293,465.00267)"
         clip-path="url(#clipPath28)" />
      <path
         id="path29"
         d="m 0.096,301.482 h 660.518 v 17.581 H 0.096 Z"
         style="fill:#ffffff;fill-opacity:1;fill-rule:evenodd;stroke:none"
         transform="matrix(1.3333333,0,0,-1.3333333,0,880)"
         clip-path="url(#clipPath30)" />
      <path
         id="path31"
         d="M 0,0 C 23.547,0 42.754,0.746 42.754,1.663 42.754,2.58 23.547,3.327 0,3.327 -23.549,3.327 -42.754,2.58 -42.754,1.663 -42.754,0.746 -23.549,0 0,0"
         style="fill:#2b80d6;fill-opacity:1;fill-rule:evenodd;stroke:none"
         transform="matrix(1.3333333,0,0,-1.3333333,476.36973,629.91533)"
         clip-path="url(#clipPath32)" />
      <path
         id="path33"
         d="m 0,0 h 20.963 v -221.806 h 17.076 v -14.201 h -55.114 v 14.201 H 0 Z"
         style="fill:#ffffff;fill-opacity:1;fill-rule:evenodd;stroke:none"
         transform="matrix(1.3333333,0,0,-1.3333333,51.2416,313.02213)"
         clip-path="url(#clipPath34)" />
      <path
         id="path35"
         d="m 0,0 h 20.964 v -221.806 h 17.074 v -14.201 h -55.113 v 14.201 H 0 Z"
         style="fill:#ffffff;fill-opacity:1;fill-rule:evenodd;stroke:none"
         transform="matrix(1.3333333,0,0,-1.3333333,462.3932,313.02213)"
         clip-path="url(#clipPath36)" />
      <path
         id="path37"
         d="M 0,0 V -19.288 H -3.139 V 0.659 c -12.281,2.71 -24.348,6.92 -36.025,12.687 v -32.634 h -3.14 V 14.94 c -9.608,5.006 -18.937,11.084 -27.889,18.269 -2.749,2.206 -5.461,4.516 -8.135,6.932 v -59.429 h -3.14 v 62.329 c -10.799,10.207 -20.937,22.177 -30.214,35.977 l 5.039,3.375 C -94.562,64.423 -80.99,49.656 -66.39,37.939 -36.913,14.282 -3.225,3.066 30.87,3.001 65.038,2.937 99.656,14.055 130.904,35.064 c 18.525,12.455 35.869,28.393 51.239,47.543 l 4.729,-3.803 C 177.474,67.093 167.344,56.548 156.658,47.227 v -66.515 h -3.14 v 63.826 c -6.244,-5.253 -12.667,-10.095 -19.239,-14.513 -5.499,-3.696 -11.1,-7.096 -16.785,-10.192 v -39.121 h -3.14 V 18.157 C 102.625,12.031 90.561,7.189 78.329,3.686 v -22.974 h -3.14 V 2.817 C 63.273,-0.365 51.214,-2.277 39.165,-2.865 v -16.423 h -3.14 v 16.3 C 34.306,-3.038 32.587,-3.063 30.87,-3.06 20.508,-3.041 10.186,-2.03 0,0"
         style="fill:#ffffff;fill-opacity:1;fill-rule:evenodd;stroke:none"
         transform="matrix(1.3333333,0,0,-1.3333333,220.55853,435.43747)"
         clip-path="url(#clipPath38)" />
      <path
         id="path39"
         d="m 0,0 c 6.553,-27.889 20.608,-51.157 40.013,-67.941 19.392,-16.774 44.163,-27.102 72.16,-29.122 l -0.442,-6.263 C 82.353,-101.207 56.323,-90.339 35.91,-72.681 15.51,-55.035 0.746,-30.63 -6.116,-1.424 Z"
         style="fill:#ffffff;fill-opacity:1;fill-rule:evenodd;stroke:none"
         transform="matrix(1.3333333,0,0,-1.3333333,488.25,325.67707)"
         clip-path="url(#clipPath40)" />
      <path
         id="path41"
         d="m 0,0 c -6.37,-27.114 -19.832,-49.858 -38.405,-66.525 v -8.256 c 0.84,0.689 1.673,1.389 2.495,2.1 20.401,17.646 35.163,42.051 42.026,71.257 z"
         style="fill:#ffffff;fill-opacity:1;fill-rule:evenodd;stroke:none"
         transform="matrix(1.3333333,0,0,-1.3333333,51.334667,325.67707)"
         clip-path="url(#clipPath42)" />
      <path
         id="path43"
         d="M 0,0 C 23.547,0 42.753,0.746 42.753,1.663 42.753,2.58 23.547,3.327 0,3.327 -23.549,3.327 -42.755,2.58 -42.755,1.663 -42.755,0.746 -23.549,0 0,0"
         style="fill:#2b80d6;fill-opacity:1;fill-rule:evenodd;stroke:none"
         transform="matrix(1.3333333,0,0,-1.3333333,714.74347,629.91533)"
         clip-path="url(#clipPath44)" />
      <path
         id="path45"
         d="m 0,0 h 20.964 v -109.926 h 17.074 v -14.201 h -55.113 v 14.201 H 0 Z"
         style="fill:#ffffff;fill-opacity:1;fill-rule:evenodd;stroke:none"
         transform="matrix(1.3333333,0,0,-1.3333333,700.76693,462.19533)"
         clip-path="url(#clipPath46)" />
      <path
         id="path47"
         d="m 0,0 33.664,-3.993 h -211.33 l 25.928,2.91 c 5.253,0.589 10.091,3.8 13.013,8.635 2.865,4.74 8.227,8.126 13.563,8.126 0.527,0 1.038,-0.032 1.532,-0.096 3.507,-0.454 6.999,0.443 10.419,2.678 3.023,1.976 6.505,3.153 9.978,3.153 4.118,0 7.452,-1.654 9.525,-4.333 2.257,-2.921 5.704,-4.211 9.952,-3.724 0.539,0.061 1.08,0.093 1.621,0.093 0.27,0 0.535,-0.009 0.799,-0.024 3.927,-0.234 7.778,1.137 11.247,4.001 4.048,3.343 9.086,5.421 14.111,5.421 4.314,0 7.901,-1.532 10.372,-4.08 2.225,-2.297 5.184,-3.295 8.849,-2.988 0.463,0.039 0.926,0.059 1.39,0.059 3.363,0 6.231,-1.042 8.373,-2.821 2.277,-1.891 5.055,-2.639 8.445,-2.275 0.481,0.052 0.964,0.078 1.445,0.078 4.312,0 7.616,-2.121 9.165,-5.377 C -6.441,2.294 -3.743,0.444 0,0"
         style="fill:#ffffff;fill-opacity:1;fill-rule:evenodd;stroke:none"
         transform="matrix(1.3333333,0,0,-1.3333333,331.02733,80.4024)"
         clip-path="url(#clipPath48)" />
      <path
         id="path49"
         d="m 0,0 13.236,-2.373 h -143.439 l 10.76,1.745 c 5.211,0.845 9.98,3.99 13.173,8.683 3.702,5.441 10.115,9.298 16.299,9.298 0.857,0 1.674,-0.074 2.449,-0.215 4.221,-0.775 8.746,0.471 12.942,3.561 4.301,3.168 9.407,5.107 14.4,5.107 6.047,0 10.596,-2.845 12.753,-7.268 1.541,-3.163 4.325,-4.958 8.219,-5.303 0.399,-0.035 0.787,-0.089 1.162,-0.163 3.547,-0.697 7.233,0.034 11.011,2.182 2.678,1.522 5.637,2.412 8.542,2.412 5.935,0 9.92,-3.712 10.396,-8.941 C -7.665,4.011 -4.73,0.847 0,0"
         style="fill:#ffffff;fill-opacity:1;fill-rule:evenodd;stroke:none"
         transform="matrix(1.3333333,0,0,-1.3333333,836.2292,132.138)"
         clip-path="url(#clipPath50)" />
      <path
         id="path51"
         d="M 0,0 11.304,-2.026 H -111.19 l 9.188,1.49 c 4.449,0.722 8.523,3.407 11.249,7.415 3.161,4.645 8.637,7.94 13.919,7.94 0.732,0 1.43,-0.063 2.09,-0.184 3.606,-0.66 7.47,0.403 11.054,3.042 3.673,2.705 8.034,4.361 12.298,4.361 5.163,0 9.048,-2.43 10.89,-6.207 1.317,-2.7 3.694,-4.233 7.02,-4.528 0.339,-0.03 0.671,-0.076 0.992,-0.14 3.028,-0.595 6.176,0.03 9.402,1.864 2.287,1.3 4.814,2.059 7.296,2.059 5.068,0 8.471,-3.169 8.878,-7.635 C -6.546,3.425 -4.04,0.724 0,0"
         style="fill:#82cdff;fill-opacity:1;fill-rule:evenodd;stroke:none"
         transform="matrix(1.3333333,0,0,-1.3333333,238.48173,250.9948)"
         clip-path="url(#clipPath52)" />
      <path
         id="path53"
         d="M 0,0 13.798,-2.472 H -97.377 l 2.893,0.49 c 4.685,0.795 8.691,3.138 11.903,6.963 2.672,3.181 6.656,5.27 10.799,5.27 0.279,0 0.555,-0.009 0.826,-0.028 3.682,-0.253 7.086,0.597 10.535,2.63 2.098,1.237 4.484,1.956 6.923,1.956 0.668,0 1.315,-0.053 1.937,-0.157 4.125,-0.688 8.125,0.136 12.083,2.485 2.173,1.29 4.648,2.04 7.178,2.04 3.562,0 6.543,-1.486 8.448,-3.871 2.113,-2.645 4.785,-4.207 8.288,-4.846 2.736,-0.499 4.943,-2.048 6.268,-4.229 C -7.215,2.806 -4.133,0.74 0,0"
         style="fill:#82cdff;fill-opacity:1;fill-rule:evenodd;stroke:none"
         transform="matrix(1.3333333,0,0,-1.3333333,489.05467,200.34053)"
         clip-path="url(#clipPath54)" />
      <path
         id="path55"
         d="M 0,0 255.632,1.421 511.263,2.839 V 0 -2.836 l -255.631,1.418 z"
         style="fill:#2b80d6;fill-opacity:1;fill-rule:evenodd;stroke:none"
         transform="matrix(1.3333333,0,0,-1.3333333,199.13347,659.23307)"
         clip-path="url(#clipPath56)" />
      <path
         id="path57"
         d="M 0,0 -255.634,1.421 -511.266,2.839 V 0 -2.839 l 255.632,1.421 z"
         style="fill:#2b80d6;fill-opacity:1;fill-rule:evenodd;stroke:none"
         transform="matrix(1.3333333,0,0,-1.3333333,681.81507,696.2136)"
         clip-path="url(#clipPath58)" />
      <path
         id="path59"
         d="M 0,0 255.632,1.421 511.263,2.839 V 0 -2.836 l -255.631,1.418 z"
         style="fill:#2b80d6;fill-opacity:1;fill-rule:evenodd;stroke:none"
         transform="matrix(1.3333333,0,0,-1.3333333,199.13347,770.65107)"
         clip-path="url(#clipPath60)" />
      <path
         id="path61"
         d="M 0,0 -255.634,1.421 -511.266,2.839 V 0 -2.836 l 255.632,1.418 z"
         style="fill:#2b80d6;fill-opacity:1;fill-rule:evenodd;stroke:none"
         transform="matrix(1.3333333,0,0,-1.3333333,681.81507,854.7852)"
         clip-path="url(#clipPath62)" />
      <path
         id="path63"
         d="m 0,0 7.564,-1.355 h -60.947 l 1.586,0.269 c 2.568,0.436 4.765,1.72 6.526,3.817 1.463,1.744 3.649,2.89 5.918,2.89 0.154,0 0.305,-0.006 0.455,-0.016 2.018,-0.139 3.883,0.327 5.774,1.441 1.151,0.679 2.458,1.074 3.797,1.074 0.365,0 0.72,-0.031 1.061,-0.087 2.261,-0.377 4.454,0.074 6.624,1.362 1.192,0.707 2.547,1.119 3.935,1.119 1.952,0 3.587,-0.815 4.632,-2.123 1.157,-1.45 2.622,-2.306 4.543,-2.657 1.5,-0.273 2.71,-1.122 3.436,-2.317 C -3.955,1.539 -2.266,0.407 0,0"
         style="fill:#82cdff;fill-opacity:1;fill-rule:evenodd;stroke:none"
         transform="matrix(1.3333333,0,0,-1.3333333,677.06387,233.04107)"
         clip-path="url(#clipPath64)" />
    </g>
  </g>
</svg>
