<?xml version="1.0" encoding="UTF-8" standalone="no"?>
<!-- Created with Inkscape (http://www.inkscape.org/) -->

<svg
   version="1.1"
   id="svg1"
   width="880"
   height="880"
   viewBox="0 0 880 880"
   sodipodi:docname="building-autumn-season.svg"
   inkscape:version="1.3.2 (091e20e, 2023-11-25, custom)"
   xmlns:inkscape="http://www.inkscape.org/namespaces/inkscape"
   xmlns:sodipodi="http://sodipodi.sourceforge.net/DTD/sodipodi-0.dtd"
   xmlns="http://www.w3.org/2000/svg"
   xmlns:svg="http://www.w3.org/2000/svg">
  <defs
     id="defs1">
    <clipPath
       clipPathUnits="userSpaceOnUse"
       id="clipPath4">
      <path
         d="M 0,660 H 660 V 0 H 0 Z"
         transform="translate(-208.34181,-338.79491)"
         id="path4" />
    </clipPath>
    <clipPath
       clipPathUnits="userSpaceOnUse"
       id="clipPath6">
      <path
         d="M 0,660 H 660 V 0 H 0 Z"
         transform="translate(-470.66991,-377.02151)"
         id="path6" />
    </clipPath>
    <clipPath
       clipPathUnits="userSpaceOnUse"
       id="clipPath8">
      <path
         d="M 0,660 H 660 V 0 H 0 Z"
         transform="translate(-331.14161,-139.4385)"
         id="path8" />
    </clipPath>
    <clipPath
       clipPathUnits="userSpaceOnUse"
       id="clipPath10">
      <path
         d="M 0,660 H 660 V 0 H 0 Z"
         transform="translate(-331.14161,-157.7119)"
         id="path10" />
    </clipPath>
    <clipPath
       clipPathUnits="userSpaceOnUse"
       id="clipPath12">
      <path
         d="M 0,660 H 660 V 0 H 0 Z"
         id="path12" />
    </clipPath>
    <clipPath
       clipPathUnits="userSpaceOnUse"
       id="clipPath14">
      <path
         d="M 0,660 H 660 V 0 H 0 Z"
         id="path14" />
    </clipPath>
    <clipPath
       clipPathUnits="userSpaceOnUse"
       id="clipPath16">
      <path
         d="M 0,660 H 660 V 0 H 0 Z"
         id="path16" />
    </clipPath>
    <clipPath
       clipPathUnits="userSpaceOnUse"
       id="clipPath18">
      <path
         d="M 0,660 H 660 V 0 H 0 Z"
         id="path18" />
    </clipPath>
    <clipPath
       clipPathUnits="userSpaceOnUse"
       id="clipPath20">
      <path
         d="M 0,660 H 660 V 0 H 0 Z"
         transform="translate(-288.4609,-271.31931)"
         id="path20" />
    </clipPath>
    <clipPath
       clipPathUnits="userSpaceOnUse"
       id="clipPath22">
      <path
         d="M 0,660 H 660 V 0 H 0 Z"
         id="path22" />
    </clipPath>
    <clipPath
       clipPathUnits="userSpaceOnUse"
       id="clipPath24">
      <path
         d="M 0,660 H 660 V 0 H 0 Z"
         id="path24" />
    </clipPath>
    <clipPath
       clipPathUnits="userSpaceOnUse"
       id="clipPath26">
      <path
         d="M 0,660 H 660 V 0 H 0 Z"
         id="path26" />
    </clipPath>
    <clipPath
       clipPathUnits="userSpaceOnUse"
       id="clipPath28">
      <path
         d="M 0,660 H 660 V 0 H 0 Z"
         id="path28" />
    </clipPath>
    <clipPath
       clipPathUnits="userSpaceOnUse"
       id="clipPath30">
      <path
         d="M 0,660 H 660 V 0 H 0 Z"
         id="path30" />
    </clipPath>
    <clipPath
       clipPathUnits="userSpaceOnUse"
       id="clipPath32">
      <path
         d="M 0,660 H 660 V 0 H 0 Z"
         id="path32" />
    </clipPath>
    <clipPath
       clipPathUnits="userSpaceOnUse"
       id="clipPath34">
      <path
         d="M 0,660 H 660 V 0 H 0 Z"
         id="path34" />
    </clipPath>
    <clipPath
       clipPathUnits="userSpaceOnUse"
       id="clipPath36">
      <path
         d="M 0,660 H 660 V 0 H 0 Z"
         id="path36" />
    </clipPath>
    <clipPath
       clipPathUnits="userSpaceOnUse"
       id="clipPath38">
      <path
         d="M 0,660 H 660 V 0 H 0 Z"
         id="path38" />
    </clipPath>
    <clipPath
       clipPathUnits="userSpaceOnUse"
       id="clipPath40">
      <path
         d="M 0,660 H 660 V 0 H 0 Z"
         id="path40" />
    </clipPath>
    <clipPath
       clipPathUnits="userSpaceOnUse"
       id="clipPath42">
      <path
         d="M 0,660 H 660 V 0 H 0 Z"
         id="path42" />
    </clipPath>
    <clipPath
       clipPathUnits="userSpaceOnUse"
       id="clipPath44">
      <path
         d="M 0,660 H 660 V 0 H 0 Z"
         id="path44" />
    </clipPath>
    <clipPath
       clipPathUnits="userSpaceOnUse"
       id="clipPath46">
      <path
         d="M 0,660 H 660 V 0 H 0 Z"
         id="path46" />
    </clipPath>
    <clipPath
       clipPathUnits="userSpaceOnUse"
       id="clipPath48">
      <path
         d="M 0,660 H 660 V 0 H 0 Z"
         id="path48" />
    </clipPath>
    <clipPath
       clipPathUnits="userSpaceOnUse"
       id="clipPath50">
      <path
         d="M 0,660 H 660 V 0 H 0 Z"
         id="path50" />
    </clipPath>
    <clipPath
       clipPathUnits="userSpaceOnUse"
       id="clipPath52">
      <path
         d="M 0,660 H 660 V 0 H 0 Z"
         id="path52" />
    </clipPath>
    <clipPath
       clipPathUnits="userSpaceOnUse"
       id="clipPath54">
      <path
         d="M 0,660 H 660 V 0 H 0 Z"
         id="path54" />
    </clipPath>
    <clipPath
       clipPathUnits="userSpaceOnUse"
       id="clipPath56">
      <path
         d="M 0,660 H 660 V 0 H 0 Z"
         id="path56" />
    </clipPath>
    <clipPath
       clipPathUnits="userSpaceOnUse"
       id="clipPath58">
      <path
         d="M 0,660 H 660 V 0 H 0 Z"
         id="path58" />
    </clipPath>
    <clipPath
       clipPathUnits="userSpaceOnUse"
       id="clipPath60">
      <path
         d="M 0,660 H 660 V 0 H 0 Z"
         id="path60" />
    </clipPath>
    <clipPath
       clipPathUnits="userSpaceOnUse"
       id="clipPath62">
      <path
         d="M 0,660 H 660 V 0 H 0 Z"
         id="path62" />
    </clipPath>
    <clipPath
       clipPathUnits="userSpaceOnUse"
       id="clipPath64">
      <path
         d="M 0,660 H 660 V 0 H 0 Z"
         id="path64" />
    </clipPath>
    <clipPath
       clipPathUnits="userSpaceOnUse"
       id="clipPath66">
      <path
         d="M 0,660 H 660 V 0 H 0 Z"
         id="path66" />
    </clipPath>
    <clipPath
       clipPathUnits="userSpaceOnUse"
       id="clipPath68">
      <path
         d="M 0,660 H 660 V 0 H 0 Z"
         id="path68" />
    </clipPath>
    <clipPath
       clipPathUnits="userSpaceOnUse"
       id="clipPath70">
      <path
         d="M 0,660 H 660 V 0 H 0 Z"
         id="path70" />
    </clipPath>
    <clipPath
       clipPathUnits="userSpaceOnUse"
       id="clipPath72">
      <path
         d="M 0,660 H 660 V 0 H 0 Z"
         id="path72" />
    </clipPath>
    <clipPath
       clipPathUnits="userSpaceOnUse"
       id="clipPath74">
      <path
         d="M 0,660 H 660 V 0 H 0 Z"
         id="path74" />
    </clipPath>
    <clipPath
       clipPathUnits="userSpaceOnUse"
       id="clipPath76">
      <path
         d="M 0,660 H 660 V 0 H 0 Z"
         id="path76" />
    </clipPath>
    <clipPath
       clipPathUnits="userSpaceOnUse"
       id="clipPath78">
      <path
         d="M 0,660 H 660 V 0 H 0 Z"
         id="path78" />
    </clipPath>
    <clipPath
       clipPathUnits="userSpaceOnUse"
       id="clipPath80">
      <path
         d="M 0,660 H 660 V 0 H 0 Z"
         id="path80" />
    </clipPath>
    <clipPath
       clipPathUnits="userSpaceOnUse"
       id="clipPath82">
      <path
         d="M 0,660 H 660 V 0 H 0 Z"
         id="path82" />
    </clipPath>
    <clipPath
       clipPathUnits="userSpaceOnUse"
       id="clipPath84">
      <path
         d="M 0,660 H 660 V 0 H 0 Z"
         id="path84" />
    </clipPath>
    <clipPath
       clipPathUnits="userSpaceOnUse"
       id="clipPath86">
      <path
         d="M 0,660 H 660 V 0 H 0 Z"
         id="path86" />
    </clipPath>
    <clipPath
       clipPathUnits="userSpaceOnUse"
       id="clipPath88">
      <path
         d="M 0,660 H 660 V 0 H 0 Z"
         id="path88" />
    </clipPath>
    <clipPath
       clipPathUnits="userSpaceOnUse"
       id="clipPath90">
      <path
         d="M 0,660 H 660 V 0 H 0 Z"
         id="path90" />
    </clipPath>
    <clipPath
       clipPathUnits="userSpaceOnUse"
       id="clipPath92">
      <path
         d="M 0,660 H 660 V 0 H 0 Z"
         id="path92" />
    </clipPath>
    <clipPath
       clipPathUnits="userSpaceOnUse"
       id="clipPath94">
      <path
         d="M 0,660 H 660 V 0 H 0 Z"
         id="path94" />
    </clipPath>
    <clipPath
       clipPathUnits="userSpaceOnUse"
       id="clipPath96">
      <path
         d="M 0,660 H 660 V 0 H 0 Z"
         id="path96" />
    </clipPath>
    <clipPath
       clipPathUnits="userSpaceOnUse"
       id="clipPath98">
      <path
         d="M 0,660 H 660 V 0 H 0 Z"
         id="path98" />
    </clipPath>
    <clipPath
       clipPathUnits="userSpaceOnUse"
       id="clipPath100">
      <path
         d="M 0,660 H 660 V 0 H 0 Z"
         id="path100" />
    </clipPath>
    <clipPath
       clipPathUnits="userSpaceOnUse"
       id="clipPath102">
      <path
         d="M 0,660 H 660 V 0 H 0 Z"
         id="path102" />
    </clipPath>
    <clipPath
       clipPathUnits="userSpaceOnUse"
       id="clipPath104">
      <path
         d="M 0,660 H 660 V 0 H 0 Z"
         id="path104" />
    </clipPath>
    <clipPath
       clipPathUnits="userSpaceOnUse"
       id="clipPath106">
      <path
         d="M 0,660 H 660 V 0 H 0 Z"
         id="path106" />
    </clipPath>
    <clipPath
       clipPathUnits="userSpaceOnUse"
       id="clipPath108">
      <path
         d="M 0,660 H 660 V 0 H 0 Z"
         id="path108" />
    </clipPath>
    <clipPath
       clipPathUnits="userSpaceOnUse"
       id="clipPath110">
      <path
         d="M 0,660 H 660 V 0 H 0 Z"
         id="path110" />
    </clipPath>
    <clipPath
       clipPathUnits="userSpaceOnUse"
       id="clipPath112">
      <path
         d="M 0,660 H 660 V 0 H 0 Z"
         id="path112" />
    </clipPath>
    <clipPath
       clipPathUnits="userSpaceOnUse"
       id="clipPath114">
      <path
         d="M 0,660 H 660 V 0 H 0 Z"
         id="path114" />
    </clipPath>
    <clipPath
       clipPathUnits="userSpaceOnUse"
       id="clipPath116">
      <path
         d="M 0,660 H 660 V 0 H 0 Z"
         id="path116" />
    </clipPath>
    <clipPath
       clipPathUnits="userSpaceOnUse"
       id="clipPath118">
      <path
         d="M 0,660 H 660 V 0 H 0 Z"
         id="path118" />
    </clipPath>
    <clipPath
       clipPathUnits="userSpaceOnUse"
       id="clipPath120">
      <path
         d="M 0,660 H 660 V 0 H 0 Z"
         id="path120" />
    </clipPath>
    <clipPath
       clipPathUnits="userSpaceOnUse"
       id="clipPath122">
      <path
         d="M 0,660 H 660 V 0 H 0 Z"
         id="path122" />
    </clipPath>
    <clipPath
       clipPathUnits="userSpaceOnUse"
       id="clipPath124">
      <path
         d="M 0,660 H 660 V 0 H 0 Z"
         id="path124" />
    </clipPath>
    <clipPath
       clipPathUnits="userSpaceOnUse"
       id="clipPath126">
      <path
         d="M 0,660 H 660 V 0 H 0 Z"
         id="path126" />
    </clipPath>
    <clipPath
       clipPathUnits="userSpaceOnUse"
       id="clipPath128">
      <path
         d="M 0,660 H 660 V 0 H 0 Z"
         transform="translate(-126.7881,-218.3311)"
         id="path128" />
    </clipPath>
    <clipPath
       clipPathUnits="userSpaceOnUse"
       id="clipPath130">
      <path
         d="M 0,660 H 660 V 0 H 0 Z"
         transform="translate(-127.0161,-358.51901)"
         id="path130" />
    </clipPath>
    <clipPath
       clipPathUnits="userSpaceOnUse"
       id="clipPath132">
      <path
         d="M 0,660 H 660 V 0 H 0 Z"
         transform="translate(-153.9834,-347.15631)"
         id="path132" />
    </clipPath>
    <clipPath
       clipPathUnits="userSpaceOnUse"
       id="clipPath134">
      <path
         d="M 0,660 H 660 V 0 H 0 Z"
         transform="translate(-533.86822,-218.3311)"
         id="path134" />
    </clipPath>
    <clipPath
       clipPathUnits="userSpaceOnUse"
       id="clipPath136">
      <path
         d="M 0,660 H 660 V 0 H 0 Z"
         transform="translate(-534.09571,-358.51901)"
         id="path136" />
    </clipPath>
    <clipPath
       clipPathUnits="userSpaceOnUse"
       id="clipPath138">
      <path
         d="M 0,660 H 660 V 0 H 0 Z"
         transform="translate(-561.06251,-347.15631)"
         id="path138" />
    </clipPath>
    <clipPath
       clipPathUnits="userSpaceOnUse"
       id="clipPath140">
      <path
         d="M 0,660 H 660 V 0 H 0 Z"
         id="path140" />
    </clipPath>
    <clipPath
       clipPathUnits="userSpaceOnUse"
       id="clipPath142">
      <path
         d="M 0,660 H 660 V 0 H 0 Z"
         id="path142" />
    </clipPath>
    <clipPath
       clipPathUnits="userSpaceOnUse"
       id="clipPath144">
      <path
         d="M 0,660 H 660 V 0 H 0 Z"
         id="path144" />
    </clipPath>
    <clipPath
       clipPathUnits="userSpaceOnUse"
       id="clipPath146">
      <path
         d="M 0,660 H 660 V 0 H 0 Z"
         id="path146" />
    </clipPath>
  </defs>
  <sodipodi:namedview
     id="namedview1"
     pagecolor="#ffffff"
     bordercolor="#000000"
     borderopacity="0.25"
     inkscape:showpageshadow="2"
     inkscape:pageopacity="0.0"
     inkscape:pagecheckerboard="0"
     inkscape:deskcolor="#d1d1d1"
     inkscape:zoom="0.69318182"
     inkscape:cx="439.27869"
     inkscape:cy="440"
     inkscape:window-width="1440"
     inkscape:window-height="830"
     inkscape:window-x="-6"
     inkscape:window-y="-6"
     inkscape:window-maximized="1"
     inkscape:current-layer="g1">
    <inkscape:page
       x="0"
       y="0"
       inkscape:label="1"
       id="page1"
       width="880"
       height="880"
       margin="0 0 1.5813333 2.3118534"
       bleed="0" />
  </sodipodi:namedview>
  <g
     id="g1"
     inkscape:groupmode="layer"
     inkscape:label="1">
    <g
       id="group-MC0">
      <path
         id="path2"
         d="M 1.734,0 H 659.999 V 658.814 H 1.734 Z"
         style="fill:#e2cda4;fill-opacity:1;fill-rule:nonzero;stroke:none"
         transform="matrix(1.3333333,0,0,-1.3333333,0,880)" />
      <path
         id="path3"
         d="m 0,0 c 18.382,0 33.284,-28.026 33.284,-62.6 0,-32.351 -13.049,-58.967 -29.787,-62.254 l 1.084,-37.789 H -4.58 l 1.084,37.789 c -16.739,3.287 -29.788,29.903 -29.788,62.254 C -33.284,-28.026 -18.382,0 0,0"
         style="fill:#d3b98b;fill-opacity:1;fill-rule:evenodd;stroke:none"
         transform="matrix(1.3333333,0,0,-1.3333333,277.78907,428.27347)"
         clip-path="url(#clipPath4)" />
      <path
         id="path5"
         d="m 0,0 c 22.702,0 41.107,-34.613 41.107,-77.312 0,-39.955 -16.117,-72.829 -36.789,-76.887 l 1.339,-46.67 H -5.657 l 1.339,46.67 c -20.672,4.058 -36.788,36.932 -36.788,76.887 C -41.106,-34.613 -22.702,0 0,0"
         style="fill:#d3b98b;fill-opacity:1;fill-rule:evenodd;stroke:none"
         transform="matrix(1.3333333,0,0,-1.3333333,627.55987,377.30467)"
         clip-path="url(#clipPath6)" />
      <path
         id="path7"
         d="M 0,0 C 148.778,0 270.122,10.885 270.122,24.231 270.122,37.58 148.778,48.466 0,48.466 -148.779,48.466 -270.123,37.58 -270.123,24.231 -270.123,10.885 -148.779,0 0,0"
         style="fill:#d3b98b;fill-opacity:1;fill-rule:evenodd;stroke:none"
         transform="matrix(1.3333333,0,0,-1.3333333,441.52213,694.082)"
         clip-path="url(#clipPath8)" />
      <path
         id="path9"
         d="M 0,0 C 127.79,0 232.015,2.679 232.015,5.958 232.015,9.24 127.79,11.917 0,11.917 -127.79,11.917 -232.016,9.24 -232.016,5.958 -232.016,2.679 -127.79,0 0,0"
         style="fill:#a3834a;fill-opacity:1;fill-rule:evenodd;stroke:none"
         transform="matrix(1.3333333,0,0,-1.3333333,441.52213,669.71747)"
         clip-path="url(#clipPath10)" />
      <path
         id="path11"
         d="m 240.66,473.91 h 111.883 v 45.466 H 240.66 Z"
         style="fill:#fffaf2;fill-opacity:1;fill-rule:evenodd;stroke:none"
         transform="matrix(1.3333333,0,0,-1.3333333,0,880)"
         clip-path="url(#clipPath12)" />
      <path
         id="path13"
         d="m 375.721,467.224 h 41.01 v 41.9 h -41.01 z"
         style="fill:#fffaf2;fill-opacity:1;fill-rule:evenodd;stroke:none"
         transform="matrix(1.3333333,0,0,-1.3333333,0,880)"
         clip-path="url(#clipPath14)" />
      <path
         id="path15"
         d="M 221.933,163.67 H 440.349 V 489.066 H 221.933 Z"
         style="fill:#f6e8d0;fill-opacity:1;fill-rule:evenodd;stroke:none"
         transform="matrix(1.3333333,0,0,-1.3333333,0,880)"
         clip-path="url(#clipPath16)" />
      <path
         id="path17"
         d="m 215.466,476.808 h 231.35 v 19.613 h -231.35 z"
         style="fill:#a3834a;fill-opacity:1;fill-rule:evenodd;stroke:none"
         transform="matrix(1.3333333,0,0,-1.3333333,0,880)"
         clip-path="url(#clipPath18)" />
      <path
         id="path19"
         d="M 0,0 94.388,8.691 103.414,0 v -11.145 h -4.459 v -96.504 h -7.353 v 96.504 H 11.813 v -96.504 H 4.457 v 96.504 H 0 Z"
         style="fill:#e5d4b3;fill-opacity:1;fill-rule:evenodd;stroke:none"
         transform="matrix(1.3333333,0,0,-1.3333333,384.61453,518.24093)"
         clip-path="url(#clipPath20)" />
      <path
         id="path21"
         d="M 279.434,268.867 H 382.848 V 280.01 H 279.434 Z"
         style="fill:#a3834a;fill-opacity:1;fill-rule:evenodd;stroke:none"
         transform="matrix(1.3333333,0,0,-1.3333333,0,880)"
         clip-path="url(#clipPath22)" />
      <path
         id="path23"
         d="m 371.035,268.867 h 7.355 V 163.67 h -7.355 z m -87.143,0 h 7.354 V 163.67 h -7.354 z"
         style="fill:#d3b98b;fill-opacity:1;fill-rule:evenodd;stroke:none"
         transform="matrix(1.3333333,0,0,-1.3333333,0,880)"
         clip-path="url(#clipPath24)" />
      <path
         id="path25"
         d="m 308.631,163.67 h 45.021 v 92.27 h -45.021 z"
         style="fill:#ffffff;fill-opacity:1;fill-rule:evenodd;stroke:none"
         transform="matrix(1.3333333,0,0,-1.3333333,0,880)"
         clip-path="url(#clipPath26)" />
      <path
         id="path27"
         d="m 235.528,197.77 h 34.552 v 82.24 h -34.552 z"
         style="fill:#ffffff;fill-opacity:1;fill-rule:evenodd;stroke:none"
         transform="matrix(1.3333333,0,0,-1.3333333,0,880)"
         clip-path="url(#clipPath28)" />
      <path
         id="path29"
         d="m 239.987,202.229 h 25.635 v 73.322 h -25.635 z"
         style="fill:#a3834a;fill-opacity:1;fill-rule:evenodd;stroke:none"
         transform="matrix(1.3333333,0,0,-1.3333333,0,880)"
         clip-path="url(#clipPath30)" />
      <path
         id="path31"
         d="m 246.889,212.145 h 11.833 v 53.49 h -11.833 z"
         style="fill:#bea067;fill-opacity:1;fill-rule:evenodd;stroke:none"
         transform="matrix(1.3333333,0,0,-1.3333333,0,880)"
         clip-path="url(#clipPath32)" />
      <path
         id="path33"
         d="m 239.987,240.45 h 25.635 v -21.84 h -25.635 z m 0,20.951 h 25.635 v -10.029 h -25.635 z"
         style="fill:#bea067;fill-opacity:1;fill-rule:evenodd;stroke:none"
         transform="matrix(1.3333333,0,0,-1.3333333,0,880)"
         clip-path="url(#clipPath34)" />
      <path
         id="path35"
         d="m 258.721,218.61 h -11.833 v 21.84 h 11.833 z m 0,32.762 h -11.833 v 10.029 h 11.833 z"
         style="fill:#ceaf76;fill-opacity:1;fill-rule:evenodd;stroke:none"
         transform="matrix(1.3333333,0,0,-1.3333333,0,880)"
         clip-path="url(#clipPath36)" />
      <path
         id="path37"
         d="m 393.549,197.77 h 34.552 v 82.24 h -34.552 z"
         style="fill:#ffffff;fill-opacity:1;fill-rule:evenodd;stroke:none"
         transform="matrix(1.3333333,0,0,-1.3333333,0,880)"
         clip-path="url(#clipPath38)" />
      <path
         id="path39"
         d="m 398.007,202.229 h 25.636 v 73.322 h -25.636 z"
         style="fill:#a3834a;fill-opacity:1;fill-rule:evenodd;stroke:none"
         transform="matrix(1.3333333,0,0,-1.3333333,0,880)"
         clip-path="url(#clipPath40)" />
      <path
         id="path41"
         d="m 404.909,212.145 h 11.833 v 53.49 h -11.833 z"
         style="fill:#bea067;fill-opacity:1;fill-rule:evenodd;stroke:none"
         transform="matrix(1.3333333,0,0,-1.3333333,0,880)"
         clip-path="url(#clipPath42)" />
      <path
         id="path43"
         d="m 398.007,240.45 h 25.636 v -21.84 h -25.636 z m 0,20.951 h 25.636 v -10.029 h -25.636 z"
         style="fill:#bea067;fill-opacity:1;fill-rule:evenodd;stroke:none"
         transform="matrix(1.3333333,0,0,-1.3333333,0,880)"
         clip-path="url(#clipPath44)" />
      <path
         id="path45"
         d="m 416.742,218.61 h -11.833 v 21.84 h 11.833 z m 0,32.762 h -11.833 v 10.029 h 11.833 z"
         style="fill:#ceaf76;fill-opacity:1;fill-rule:evenodd;stroke:none"
         transform="matrix(1.3333333,0,0,-1.3333333,0,880)"
         clip-path="url(#clipPath46)" />
      <path
         id="path47"
         d="m 270.08,373.813 h -34.552 v -82.24 h 34.552 z"
         style="fill:#ffffff;fill-opacity:1;fill-rule:evenodd;stroke:none"
         transform="matrix(1.3333333,0,0,-1.3333333,0,880)"
         clip-path="url(#clipPath48)" />
      <path
         id="path49"
         d="m 239.987,369.355 h 25.635 v -73.323 h -25.635 z"
         style="fill:#a3834a;fill-opacity:1;fill-rule:evenodd;stroke:none"
         transform="matrix(1.3333333,0,0,-1.3333333,0,880)"
         clip-path="url(#clipPath50)" />
      <path
         id="path51"
         d="m 246.889,359.438 h 11.833 v -53.49 h -11.833 z"
         style="fill:#bea067;fill-opacity:1;fill-rule:evenodd;stroke:none"
         transform="matrix(1.3333333,0,0,-1.3333333,0,880)"
         clip-path="url(#clipPath52)" />
      <path
         id="path53"
         d="m 239.987,334.253 h 25.635 v -21.842 h -25.635 z m 0,20.95 h 25.635 v -10.029 h -25.635 z"
         style="fill:#bea067;fill-opacity:1;fill-rule:evenodd;stroke:none"
         transform="matrix(1.3333333,0,0,-1.3333333,0,880)"
         clip-path="url(#clipPath54)" />
      <path
         id="path55"
         d="m 258.721,312.411 h -11.833 v 21.842 h 11.833 z m 0,32.763 h -11.833 v 10.029 h 11.833 z"
         style="fill:#ceaf76;fill-opacity:1;fill-rule:evenodd;stroke:none"
         transform="matrix(1.3333333,0,0,-1.3333333,0,880)"
         clip-path="url(#clipPath56)" />
      <path
         id="path57"
         d="m 322.753,373.813 h -34.552 v -82.24 h 34.552 z"
         style="fill:#ffffff;fill-opacity:1;fill-rule:evenodd;stroke:none"
         transform="matrix(1.3333333,0,0,-1.3333333,0,880)"
         clip-path="url(#clipPath58)" />
      <path
         id="path59"
         d="m 292.661,369.355 h 25.635 v -73.323 h -25.635 z"
         style="fill:#a3834a;fill-opacity:1;fill-rule:evenodd;stroke:none"
         transform="matrix(1.3333333,0,0,-1.3333333,0,880)"
         clip-path="url(#clipPath60)" />
      <path
         id="path61"
         d="m 299.562,359.438 h 11.832 v -53.49 h -11.832 z"
         style="fill:#bea067;fill-opacity:1;fill-rule:evenodd;stroke:none"
         transform="matrix(1.3333333,0,0,-1.3333333,0,880)"
         clip-path="url(#clipPath62)" />
      <path
         id="path63"
         d="m 292.661,334.253 h 25.635 v -21.842 h -25.635 z m 0,20.95 h 25.635 v -10.029 h -25.635 z"
         style="fill:#bea067;fill-opacity:1;fill-rule:evenodd;stroke:none"
         transform="matrix(1.3333333,0,0,-1.3333333,0,880)"
         clip-path="url(#clipPath64)" />
      <path
         id="path65"
         d="m 311.395,312.411 h -11.832 v 21.842 h 11.832 z m 0,32.763 h -11.832 v 10.029 h 11.832 z"
         style="fill:#ceaf76;fill-opacity:1;fill-rule:evenodd;stroke:none"
         transform="matrix(1.3333333,0,0,-1.3333333,0,880)"
         clip-path="url(#clipPath66)" />
      <path
         id="path67"
         d="m 375.428,373.813 h -34.553 v -82.24 h 34.553 z"
         style="fill:#ffffff;fill-opacity:1;fill-rule:evenodd;stroke:none"
         transform="matrix(1.3333333,0,0,-1.3333333,0,880)"
         clip-path="url(#clipPath68)" />
      <path
         id="path69"
         d="m 345.334,369.355 h 25.635 v -73.323 h -25.635 z"
         style="fill:#a3834a;fill-opacity:1;fill-rule:evenodd;stroke:none"
         transform="matrix(1.3333333,0,0,-1.3333333,0,880)"
         clip-path="url(#clipPath70)" />
      <path
         id="path71"
         d="m 352.235,359.438 h 11.833 v -53.49 h -11.833 z"
         style="fill:#bea067;fill-opacity:1;fill-rule:evenodd;stroke:none"
         transform="matrix(1.3333333,0,0,-1.3333333,0,880)"
         clip-path="url(#clipPath72)" />
      <path
         id="path73"
         d="m 345.334,334.253 h 25.635 v -21.842 h -25.635 z m 0,20.95 h 25.635 v -10.029 h -25.635 z"
         style="fill:#bea067;fill-opacity:1;fill-rule:evenodd;stroke:none"
         transform="matrix(1.3333333,0,0,-1.3333333,0,880)"
         clip-path="url(#clipPath74)" />
      <path
         id="path75"
         d="m 364.068,312.411 h -11.833 v 21.842 h 11.833 z m 0,32.763 h -11.833 v 10.029 h 11.833 z"
         style="fill:#ceaf76;fill-opacity:1;fill-rule:evenodd;stroke:none"
         transform="matrix(1.3333333,0,0,-1.3333333,0,880)"
         clip-path="url(#clipPath76)" />
      <path
         id="path77"
         d="m 428.101,373.813 h -34.553 v -82.24 h 34.553 z"
         style="fill:#ffffff;fill-opacity:1;fill-rule:evenodd;stroke:none"
         transform="matrix(1.3333333,0,0,-1.3333333,0,880)"
         clip-path="url(#clipPath78)" />
      <path
         id="path79"
         d="m 398.007,369.355 h 25.636 v -73.323 h -25.636 z"
         style="fill:#a3834a;fill-opacity:1;fill-rule:evenodd;stroke:none"
         transform="matrix(1.3333333,0,0,-1.3333333,0,880)"
         clip-path="url(#clipPath80)" />
      <path
         id="path81"
         d="m 404.909,359.438 h 11.833 v -53.49 h -11.833 z"
         style="fill:#bea067;fill-opacity:1;fill-rule:evenodd;stroke:none"
         transform="matrix(1.3333333,0,0,-1.3333333,0,880)"
         clip-path="url(#clipPath82)" />
      <path
         id="path83"
         d="m 398.007,334.253 h 25.636 v -21.842 h -25.636 z m 0,20.95 h 25.636 v -10.029 h -25.636 z"
         style="fill:#bea067;fill-opacity:1;fill-rule:evenodd;stroke:none"
         transform="matrix(1.3333333,0,0,-1.3333333,0,880)"
         clip-path="url(#clipPath84)" />
      <path
         id="path85"
         d="m 416.742,312.411 h -11.833 v 21.842 h 11.833 z m 0,32.763 h -11.833 v 10.029 h 11.833 z"
         style="fill:#ceaf76;fill-opacity:1;fill-rule:evenodd;stroke:none"
         transform="matrix(1.3333333,0,0,-1.3333333,0,880)"
         clip-path="url(#clipPath86)" />
      <path
         id="path87"
         d="m 235.528,385.376 h 34.552 v 82.24 h -34.552 z"
         style="fill:#ffffff;fill-opacity:1;fill-rule:evenodd;stroke:none"
         transform="matrix(1.3333333,0,0,-1.3333333,0,880)"
         clip-path="url(#clipPath88)" />
      <path
         id="path89"
         d="m 239.987,389.835 h 25.635 v 73.323 h -25.635 z"
         style="fill:#a3834a;fill-opacity:1;fill-rule:evenodd;stroke:none"
         transform="matrix(1.3333333,0,0,-1.3333333,0,880)"
         clip-path="url(#clipPath90)" />
      <path
         id="path91"
         d="m 246.889,399.751 h 11.833 v 53.49 h -11.833 z"
         style="fill:#bea067;fill-opacity:1;fill-rule:evenodd;stroke:none"
         transform="matrix(1.3333333,0,0,-1.3333333,0,880)"
         clip-path="url(#clipPath92)" />
      <path
         id="path93"
         d="m 239.987,428.056 h 25.635 v -21.841 h -25.635 z m 0,20.95 h 25.635 v -10.029 h -25.635 z"
         style="fill:#bea067;fill-opacity:1;fill-rule:evenodd;stroke:none"
         transform="matrix(1.3333333,0,0,-1.3333333,0,880)"
         clip-path="url(#clipPath94)" />
      <path
         id="path95"
         d="m 258.721,406.215 h -11.833 v 21.841 h 11.833 z m 0,32.762 h -11.833 v 10.029 h 11.833 z"
         style="fill:#ceaf76;fill-opacity:1;fill-rule:evenodd;stroke:none"
         transform="matrix(1.3333333,0,0,-1.3333333,0,880)"
         clip-path="url(#clipPath96)" />
      <path
         id="path97"
         d="m 322.753,467.616 h -34.552 v -82.24 h 34.552 z"
         style="fill:#ffffff;fill-opacity:1;fill-rule:evenodd;stroke:none"
         transform="matrix(1.3333333,0,0,-1.3333333,0,880)"
         clip-path="url(#clipPath98)" />
      <path
         id="path99"
         d="m 292.661,463.158 h 25.635 v -73.323 h -25.635 z"
         style="fill:#a3834a;fill-opacity:1;fill-rule:evenodd;stroke:none"
         transform="matrix(1.3333333,0,0,-1.3333333,0,880)"
         clip-path="url(#clipPath100)" />
      <path
         id="path101"
         d="m 299.562,453.241 h 11.832 v -53.49 h -11.832 z"
         style="fill:#bea067;fill-opacity:1;fill-rule:evenodd;stroke:none"
         transform="matrix(1.3333333,0,0,-1.3333333,0,880)"
         clip-path="url(#clipPath102)" />
      <path
         id="path103"
         d="m 292.661,428.056 h 25.635 v -21.841 h -25.635 z m 0,20.95 h 25.635 v -10.029 h -25.635 z"
         style="fill:#bea067;fill-opacity:1;fill-rule:evenodd;stroke:none"
         transform="matrix(1.3333333,0,0,-1.3333333,0,880)"
         clip-path="url(#clipPath104)" />
      <path
         id="path105"
         d="m 311.395,406.215 h -11.832 v 21.841 h 11.832 z m 0,32.762 h -11.832 v 10.029 h 11.832 z"
         style="fill:#ceaf76;fill-opacity:1;fill-rule:evenodd;stroke:none"
         transform="matrix(1.3333333,0,0,-1.3333333,0,880)"
         clip-path="url(#clipPath106)" />
      <path
         id="path107"
         d="m 375.428,467.616 h -34.553 v -82.24 h 34.553 z"
         style="fill:#ffffff;fill-opacity:1;fill-rule:evenodd;stroke:none"
         transform="matrix(1.3333333,0,0,-1.3333333,0,880)"
         clip-path="url(#clipPath108)" />
      <path
         id="path109"
         d="m 345.334,463.158 h 25.635 v -73.323 h -25.635 z"
         style="fill:#a3834a;fill-opacity:1;fill-rule:evenodd;stroke:none"
         transform="matrix(1.3333333,0,0,-1.3333333,0,880)"
         clip-path="url(#clipPath110)" />
      <path
         id="path111"
         d="m 352.235,453.241 h 11.833 v -53.49 h -11.833 z"
         style="fill:#bea067;fill-opacity:1;fill-rule:evenodd;stroke:none"
         transform="matrix(1.3333333,0,0,-1.3333333,0,880)"
         clip-path="url(#clipPath112)" />
      <path
         id="path113"
         d="m 345.334,428.056 h 25.635 v -21.841 h -25.635 z m 0,20.95 h 25.635 v -10.029 h -25.635 z"
         style="fill:#bea067;fill-opacity:1;fill-rule:evenodd;stroke:none"
         transform="matrix(1.3333333,0,0,-1.3333333,0,880)"
         clip-path="url(#clipPath114)" />
      <path
         id="path115"
         d="m 364.068,406.215 h -11.833 v 21.841 h 11.833 z m 0,32.762 h -11.833 v 10.029 h 11.833 z"
         style="fill:#ceaf76;fill-opacity:1;fill-rule:evenodd;stroke:none"
         transform="matrix(1.3333333,0,0,-1.3333333,0,880)"
         clip-path="url(#clipPath116)" />
      <path
         id="path117"
         d="m 393.549,385.376 h 34.552 v 82.24 h -34.552 z"
         style="fill:#ffffff;fill-opacity:1;fill-rule:evenodd;stroke:none"
         transform="matrix(1.3333333,0,0,-1.3333333,0,880)"
         clip-path="url(#clipPath118)" />
      <path
         id="path119"
         d="m 398.007,389.835 h 25.636 v 73.323 h -25.636 z"
         style="fill:#a3834a;fill-opacity:1;fill-rule:evenodd;stroke:none"
         transform="matrix(1.3333333,0,0,-1.3333333,0,880)"
         clip-path="url(#clipPath120)" />
      <path
         id="path121"
         d="m 404.909,399.751 h 11.833 v 53.49 h -11.833 z"
         style="fill:#bea067;fill-opacity:1;fill-rule:evenodd;stroke:none"
         transform="matrix(1.3333333,0,0,-1.3333333,0,880)"
         clip-path="url(#clipPath122)" />
      <path
         id="path123"
         d="m 398.007,428.056 h 25.636 v -21.841 h -25.636 z m 0,20.95 h 25.636 v -10.029 h -25.636 z"
         style="fill:#bea067;fill-opacity:1;fill-rule:evenodd;stroke:none"
         transform="matrix(1.3333333,0,0,-1.3333333,0,880)"
         clip-path="url(#clipPath124)" />
      <path
         id="path125"
         d="m 416.742,406.215 h -11.833 v 21.841 h 11.833 z m 0,32.762 h -11.833 v 10.029 h 11.833 z"
         style="fill:#ceaf76;fill-opacity:1;fill-rule:evenodd;stroke:none"
         transform="matrix(1.3333333,0,0,-1.3333333,0,880)"
         clip-path="url(#clipPath126)" />
      <path
         id="path127"
         d="m 0,0 c 26.761,0 48.587,41.049 48.587,91.378 0,50.33 -21.826,91.379 -48.587,91.379 -26.76,0 -48.586,-41.049 -48.586,-91.379 C -48.586,41.049 -26.76,0 0,0"
         style="fill:#f8a83a;fill-opacity:1;fill-rule:evenodd;stroke:none"
         transform="matrix(1.3333333,0,0,-1.3333333,169.0508,588.89187)"
         clip-path="url(#clipPath128)" />
      <path
         id="path129"
         d="m 0,0 2.808,-67.621 18.25,11.127 -18.065,-17.55 0.999,-34.809 26.985,23.05 -26.785,-30.041 2.266,-79.005 H -6.914 l 2.146,74.808 -16.631,16.63 16.874,-8.159 1.198,41.754 -15.733,18.113 15.839,-14.374 z"
         style="fill:#a3834a;fill-opacity:1;fill-rule:evenodd;stroke:none"
         transform="matrix(1.3333333,0,0,-1.3333333,169.3548,401.97467)"
         clip-path="url(#clipPath130)" />
      <path
         id="path131"
         d="m 0,0 c 5.292,0 9.584,-4.291 9.584,-9.583 0,-5.293 -4.292,-9.584 -9.584,-9.584 -5.293,0 -9.584,4.291 -9.584,9.584 C -9.584,-4.291 -5.293,0 0,0 m -67.976,-55.718 c 1.97,0 3.566,-1.597 3.566,-3.566 0,-1.971 -1.596,-3.567 -3.566,-3.567 -1.97,0 -3.567,1.596 -3.567,3.567 0,1.969 1.597,3.566 3.567,3.566 M -46.135,7.8 c 4.062,0 7.355,-3.292 7.355,-7.354 0,-4.062 -3.293,-7.354 -7.355,-7.354 -4.061,0 -7.354,3.292 -7.354,7.354 0,4.062 3.293,7.354 7.354,7.354 m 35.325,-71.542 c 3.016,0 5.461,-2.445 5.461,-5.46 0,-3.015 -2.445,-5.46 -5.461,-5.46 -3.015,0 -5.46,2.445 -5.46,5.46 0,3.015 2.445,5.46 5.46,5.46 m -35.993,-6.24 c 3.076,0 5.572,-2.495 5.572,-5.573 0,-3.077 -2.496,-5.571 -5.572,-5.571 -3.078,0 -5.572,2.494 -5.572,5.571 0,3.078 2.494,5.573 5.572,5.573 m 4.457,-36.106 c 1.6,0 2.897,-1.297 2.897,-2.897 0,-1.601 -1.297,-2.898 -2.897,-2.898 -1.6,0 -2.897,1.297 -2.897,2.898 0,1.6 1.297,2.897 2.897,2.897 m 52.598,58.393 c 3.323,0 6.017,-2.695 6.017,-6.018 0,-3.322 -2.694,-6.016 -6.017,-6.016 -3.323,0 -6.017,2.694 -6.017,6.016 0,3.323 2.694,6.018 6.017,6.018 m -17.161,-54.826 c 2.216,0 4.011,-1.796 4.011,-4.012 0,-2.216 -1.795,-4.012 -4.011,-4.012 -2.216,0 -4.012,1.796 -4.012,4.012 0,2.216 1.796,4.012 4.012,4.012 M -21.73,34.991 c 1.416,0 2.562,-1.147 2.562,-2.563 0,-1.415 -1.146,-2.563 -2.562,-2.563 -1.416,0 -2.563,1.148 -2.563,2.563 0,1.416 1.147,2.563 2.563,2.563"
         style="fill:#e79528;fill-opacity:1;fill-rule:evenodd;stroke:none"
         transform="matrix(1.3333333,0,0,-1.3333333,205.3112,417.12493)"
         clip-path="url(#clipPath132)" />
      <path
         id="path133"
         d="m 0,0 c 26.76,0 48.587,41.049 48.587,91.378 0,50.33 -21.827,91.379 -48.587,91.379 -26.761,0 -48.587,-41.049 -48.587,-91.379 C -48.587,41.049 -26.761,0 0,0"
         style="fill:#fab40a;fill-opacity:1;fill-rule:evenodd;stroke:none"
         transform="matrix(1.3333333,0,0,-1.3333333,711.82427,588.89187)"
         clip-path="url(#clipPath134)" />
      <path
         id="path135"
         d="m 0,0 2.81,-67.621 18.249,11.127 -18.067,-17.55 1,-34.809 26.985,23.05 -26.785,-30.041 2.267,-79.005 H -6.914 l 2.146,74.808 -16.631,16.63 16.874,-8.159 1.198,41.754 -15.734,18.113 15.84,-14.374 z"
         style="fill:#a3834a;fill-opacity:1;fill-rule:evenodd;stroke:none"
         transform="matrix(1.3333333,0,0,-1.3333333,712.1276,401.97467)"
         clip-path="url(#clipPath136)" />
      <path
         id="path137"
         d="m 0,0 c 5.294,0 9.584,-4.291 9.584,-9.583 0,-5.293 -4.29,-9.584 -9.584,-9.584 -5.293,0 -9.582,4.291 -9.582,9.584 C -9.582,-4.291 -5.293,0 0,0 m -67.977,-55.718 c 1.97,0 3.568,-1.597 3.568,-3.566 0,-1.971 -1.598,-3.567 -3.568,-3.567 -1.968,0 -3.564,1.596 -3.564,3.567 0,1.969 1.596,3.566 3.564,3.566 M -46.134,7.8 c 4.061,0 7.355,-3.292 7.355,-7.354 0,-4.062 -3.294,-7.354 -7.355,-7.354 -4.061,0 -7.355,3.292 -7.355,7.354 0,4.062 3.294,7.354 7.355,7.354 m 35.325,-71.542 c 3.016,0 5.461,-2.445 5.461,-5.46 0,-3.015 -2.445,-5.46 -5.461,-5.46 -3.016,0 -5.46,2.445 -5.46,5.46 0,3.015 2.444,5.46 5.46,5.46 m -35.994,-6.24 c 3.077,0 5.572,-2.495 5.572,-5.573 0,-3.077 -2.495,-5.571 -5.572,-5.571 -3.076,0 -5.572,2.494 -5.572,5.571 0,3.078 2.496,5.573 5.572,5.573 m 4.457,-36.106 c 1.601,0 2.898,-1.297 2.898,-2.897 0,-1.601 -1.297,-2.898 -2.898,-2.898 -1.6,0 -2.897,1.297 -2.897,2.898 0,1.6 1.297,2.897 2.897,2.897 m 52.599,58.393 c 3.323,0 6.018,-2.695 6.018,-6.018 0,-3.322 -2.695,-6.016 -6.018,-6.016 -3.324,0 -6.018,2.694 -6.018,6.016 0,3.323 2.694,6.018 6.018,6.018 m -17.161,-54.826 c 2.216,0 4.012,-1.796 4.012,-4.012 0,-2.216 -1.796,-4.012 -4.012,-4.012 -2.216,0 -4.012,1.796 -4.012,4.012 0,2.216 1.796,4.012 4.012,4.012 M -21.729,34.991 c 1.416,0 2.562,-1.147 2.562,-2.563 0,-1.415 -1.146,-2.563 -2.562,-2.563 -1.415,0 -2.563,1.148 -2.563,2.563 0,1.416 1.148,2.563 2.563,2.563"
         style="fill:#f39c0f;fill-opacity:1;fill-rule:evenodd;stroke:none"
         transform="matrix(1.3333333,0,0,-1.3333333,748.08333,417.12493)"
         clip-path="url(#clipPath138)" />
      <path
         id="path139"
         d="m 313.09,178.381 h 35.463 v 73.323 H 313.09 Z"
         style="fill:#a3834a;fill-opacity:1;fill-rule:evenodd;stroke:none"
         transform="matrix(1.3333333,0,0,-1.3333333,0,880)"
         clip-path="url(#clipPath140)" />
      <path
         id="path141"
         d="m 322.636,188.299 h 16.369 v 53.489 h -16.369 z"
         style="fill:#bea067;fill-opacity:1;fill-rule:evenodd;stroke:none"
         transform="matrix(1.3333333,0,0,-1.3333333,0,880)"
         clip-path="url(#clipPath142)" />
      <path
         id="path143"
         d="m 313.09,216.604 h 35.463 V 194.762 H 313.09 Z m 0,20.95 h 35.463 v -10.03 H 313.09 Z"
         style="fill:#bea067;fill-opacity:1;fill-rule:evenodd;stroke:none"
         transform="matrix(1.3333333,0,0,-1.3333333,0,880)"
         clip-path="url(#clipPath144)" />
      <path
         id="path145"
         d="m 339.005,194.762 h -16.367 v 21.842 h 16.367 z m 0,32.761 h -16.367 v 10.03 h 16.367 z"
         style="fill:#ceaf76;fill-opacity:1;fill-rule:evenodd;stroke:none"
         transform="matrix(1.3333333,0,0,-1.3333333,0,880)"
         clip-path="url(#clipPath146)" />
    </g>
  </g>
</svg>
