<?xml version="1.0" encoding="UTF-8" standalone="no"?>
<!-- Created with Inkscape (http://www.inkscape.org/) -->

<svg
   version="1.1"
   id="svg1"
   width="880"
   height="880"
   viewBox="0 0 880 880"
   sodipodi:docname="buildings.svg"
   inkscape:version="1.3.2 (091e20e, 2023-11-25, custom)"
   xmlns:inkscape="http://www.inkscape.org/namespaces/inkscape"
   xmlns:sodipodi="http://sodipodi.sourceforge.net/DTD/sodipodi-0.dtd"
   xmlns="http://www.w3.org/2000/svg"
   xmlns:svg="http://www.w3.org/2000/svg">
  <defs
     id="defs1">
    <clipPath
       clipPathUnits="userSpaceOnUse"
       id="clipPath5">
      <path
         d="M 0,660 H 660 V 0 H 0 Z"
         transform="translate(-71.543502,-490.41111)"
         id="path5" />
    </clipPath>
    <clipPath
       clipPathUnits="userSpaceOnUse"
       id="clipPath7">
      <path
         d="M 0,660 H 660 V 0 H 0 Z"
         transform="translate(-292.6909,-454.14361)"
         id="path7" />
    </clipPath>
    <clipPath
       clipPathUnits="userSpaceOnUse"
       id="clipPath9">
      <path
         d="M 0,660 H 660 V 0 H 0 Z"
         transform="translate(-342.39751,-604.08692)"
         id="path9" />
    </clipPath>
    <clipPath
       clipPathUnits="userSpaceOnUse"
       id="clipPath11">
      <path
         d="M 0,660 H 660 V 0 H 0 Z"
         transform="translate(-503.53031,-405.87791)"
         id="path11" />
    </clipPath>
    <clipPath
       clipPathUnits="userSpaceOnUse"
       id="clipPath13">
      <path
         d="M 0,660 H 660 V 0 H 0 Z"
         transform="translate(-70.272502,-574.16602)"
         id="path13" />
    </clipPath>
    <clipPath
       clipPathUnits="userSpaceOnUse"
       id="clipPath15">
      <path
         d="M 0,660 H 660 V 0 H 0 Z"
         transform="translate(-602.91112,-493.11231)"
         id="path15" />
    </clipPath>
    <clipPath
       clipPathUnits="userSpaceOnUse"
       id="clipPath17">
      <path
         d="M 0,660 H 660 V 0 H 0 Z"
         transform="translate(-0.66550001,-424.25291)"
         id="path17" />
    </clipPath>
    <clipPath
       clipPathUnits="userSpaceOnUse"
       id="clipPath19">
      <path
         d="M 0,660 H 660 V 0 H 0 Z"
         id="path19" />
    </clipPath>
    <clipPath
       clipPathUnits="userSpaceOnUse"
       id="clipPath21">
      <path
         d="M 0,660 H 660 V 0 H 0 Z"
         id="path21" />
    </clipPath>
    <clipPath
       clipPathUnits="userSpaceOnUse"
       id="clipPath23">
      <path
         d="M 0,660 H 660 V 0 H 0 Z"
         id="path23" />
    </clipPath>
    <clipPath
       clipPathUnits="userSpaceOnUse"
       id="clipPath25">
      <path
         d="M 0,660 H 660 V 0 H 0 Z"
         id="path25" />
    </clipPath>
    <clipPath
       clipPathUnits="userSpaceOnUse"
       id="clipPath27">
      <path
         d="M 0,660 H 660 V 0 H 0 Z"
         id="path27" />
    </clipPath>
    <clipPath
       clipPathUnits="userSpaceOnUse"
       id="clipPath29">
      <path
         d="M 0,660 H 660 V 0 H 0 Z"
         id="path29" />
    </clipPath>
    <clipPath
       clipPathUnits="userSpaceOnUse"
       id="clipPath31">
      <path
         d="M 0,660 H 660 V 0 H 0 Z"
         id="path31" />
    </clipPath>
    <clipPath
       clipPathUnits="userSpaceOnUse"
       id="clipPath33">
      <path
         d="M 0,660 H 660 V 0 H 0 Z"
         transform="translate(-63.788102,-372.94821)"
         id="path33" />
    </clipPath>
    <clipPath
       clipPathUnits="userSpaceOnUse"
       id="clipPath35">
      <path
         d="M 0,660 H 660 V 0 H 0 Z"
         transform="translate(-59.607901,-334.90631)"
         id="path35" />
    </clipPath>
    <clipPath
       clipPathUnits="userSpaceOnUse"
       id="clipPath37">
      <path
         d="M 0,660 H 660 V 0 H 0 Z"
         transform="translate(-52.710001,-328.00981)"
         id="path37" />
    </clipPath>
    <clipPath
       clipPathUnits="userSpaceOnUse"
       id="clipPath39">
      <path
         d="M 0,660 H 660 V 0 H 0 Z"
         id="path39" />
    </clipPath>
    <clipPath
       clipPathUnits="userSpaceOnUse"
       id="clipPath41">
      <path
         d="M 0,660 H 660 V 0 H 0 Z"
         id="path41" />
    </clipPath>
    <clipPath
       clipPathUnits="userSpaceOnUse"
       id="clipPath43">
      <path
         d="M 0,660 H 660 V 0 H 0 Z"
         id="path43" />
    </clipPath>
    <clipPath
       clipPathUnits="userSpaceOnUse"
       id="clipPath45">
      <path
         d="M 0,660 H 660 V 0 H 0 Z"
         id="path45" />
    </clipPath>
    <clipPath
       clipPathUnits="userSpaceOnUse"
       id="clipPath47">
      <path
         d="M 0,660 H 660 V 0 H 0 Z"
         id="path47" />
    </clipPath>
    <clipPath
       clipPathUnits="userSpaceOnUse"
       id="clipPath49">
      <path
         d="M 0,660 H 660 V 0 H 0 Z"
         id="path49" />
    </clipPath>
    <clipPath
       clipPathUnits="userSpaceOnUse"
       id="clipPath51">
      <path
         d="M 0,660 H 660 V 0 H 0 Z"
         id="path51" />
    </clipPath>
    <clipPath
       clipPathUnits="userSpaceOnUse"
       id="clipPath53">
      <path
         d="M 0,660 H 660 V 0 H 0 Z"
         id="path53" />
    </clipPath>
    <clipPath
       clipPathUnits="userSpaceOnUse"
       id="clipPath55">
      <path
         d="M 0,660 H 660 V 0 H 0 Z"
         id="path55" />
    </clipPath>
    <clipPath
       clipPathUnits="userSpaceOnUse"
       id="clipPath57">
      <path
         d="M 0,660 H 660 V 0 H 0 Z"
         id="path57" />
    </clipPath>
    <clipPath
       clipPathUnits="userSpaceOnUse"
       id="clipPath59">
      <path
         d="M 0,660 H 660 V 0 H 0 Z"
         id="path59" />
    </clipPath>
    <clipPath
       clipPathUnits="userSpaceOnUse"
       id="clipPath61">
      <path
         d="M 0,660 H 660 V 0 H 0 Z"
         id="path61" />
    </clipPath>
    <clipPath
       clipPathUnits="userSpaceOnUse"
       id="clipPath63">
      <path
         d="M 0,660 H 660 V 0 H 0 Z"
         id="path63" />
    </clipPath>
    <clipPath
       clipPathUnits="userSpaceOnUse"
       id="clipPath65">
      <path
         d="M 0,660 H 660 V 0 H 0 Z"
         id="path65" />
    </clipPath>
    <clipPath
       clipPathUnits="userSpaceOnUse"
       id="clipPath67">
      <path
         d="M 0,660 H 660 V 0 H 0 Z"
         id="path67" />
    </clipPath>
    <clipPath
       clipPathUnits="userSpaceOnUse"
       id="clipPath69">
      <path
         d="M 0,660 H 660 V 0 H 0 Z"
         id="path69" />
    </clipPath>
    <clipPath
       clipPathUnits="userSpaceOnUse"
       id="clipPath71">
      <path
         d="M 0,660 H 660 V 0 H 0 Z"
         id="path71" />
    </clipPath>
    <clipPath
       clipPathUnits="userSpaceOnUse"
       id="clipPath73">
      <path
         d="M 0,660 H 660 V 0 H 0 Z"
         id="path73" />
    </clipPath>
    <clipPath
       clipPathUnits="userSpaceOnUse"
       id="clipPath75">
      <path
         d="M 0,660 H 660 V 0 H 0 Z"
         id="path75" />
    </clipPath>
    <clipPath
       clipPathUnits="userSpaceOnUse"
       id="clipPath77">
      <path
         d="M 0,660 H 660 V 0 H 0 Z"
         id="path77" />
    </clipPath>
    <clipPath
       clipPathUnits="userSpaceOnUse"
       id="clipPath79">
      <path
         d="M 0,660 H 660 V 0 H 0 Z"
         id="path79" />
    </clipPath>
    <clipPath
       clipPathUnits="userSpaceOnUse"
       id="clipPath81">
      <path
         d="M 0,660 H 660 V 0 H 0 Z"
         id="path81" />
    </clipPath>
    <clipPath
       clipPathUnits="userSpaceOnUse"
       id="clipPath83">
      <path
         d="M 0,660 H 660 V 0 H 0 Z"
         id="path83" />
    </clipPath>
    <clipPath
       clipPathUnits="userSpaceOnUse"
       id="clipPath85">
      <path
         d="M 0,660 H 660 V 0 H 0 Z"
         id="path85" />
    </clipPath>
    <clipPath
       clipPathUnits="userSpaceOnUse"
       id="clipPath87">
      <path
         d="M 0,660 H 660 V 0 H 0 Z"
         id="path87" />
    </clipPath>
    <clipPath
       clipPathUnits="userSpaceOnUse"
       id="clipPath89">
      <path
         d="M 0,660 H 660 V 0 H 0 Z"
         id="path89" />
    </clipPath>
    <clipPath
       clipPathUnits="userSpaceOnUse"
       id="clipPath91">
      <path
         d="M 0,660 H 660 V 0 H 0 Z"
         id="path91" />
    </clipPath>
    <clipPath
       clipPathUnits="userSpaceOnUse"
       id="clipPath93">
      <path
         d="M 0,660 H 660 V 0 H 0 Z"
         id="path93" />
    </clipPath>
    <clipPath
       clipPathUnits="userSpaceOnUse"
       id="clipPath95">
      <path
         d="M 0,660 H 660 V 0 H 0 Z"
         id="path95" />
    </clipPath>
    <clipPath
       clipPathUnits="userSpaceOnUse"
       id="clipPath97">
      <path
         d="M 0,660 H 660 V 0 H 0 Z"
         id="path97" />
    </clipPath>
    <clipPath
       clipPathUnits="userSpaceOnUse"
       id="clipPath99">
      <path
         d="M 0,660 H 660 V 0 H 0 Z"
         id="path99" />
    </clipPath>
    <clipPath
       clipPathUnits="userSpaceOnUse"
       id="clipPath101">
      <path
         d="M 0,660 H 660 V 0 H 0 Z"
         id="path101" />
    </clipPath>
    <clipPath
       clipPathUnits="userSpaceOnUse"
       id="clipPath103">
      <path
         d="M 0,660 H 660 V 0 H 0 Z"
         id="path103" />
    </clipPath>
    <clipPath
       clipPathUnits="userSpaceOnUse"
       id="clipPath105">
      <path
         d="M 0,660 H 660 V 0 H 0 Z"
         id="path105" />
    </clipPath>
    <clipPath
       clipPathUnits="userSpaceOnUse"
       id="clipPath107">
      <path
         d="M 0,660 H 660 V 0 H 0 Z"
         id="path107" />
    </clipPath>
    <clipPath
       clipPathUnits="userSpaceOnUse"
       id="clipPath109">
      <path
         d="M 0,660 H 660 V 0 H 0 Z"
         id="path109" />
    </clipPath>
    <clipPath
       clipPathUnits="userSpaceOnUse"
       id="clipPath111">
      <path
         d="M 0,660 H 660 V 0 H 0 Z"
         id="path111" />
    </clipPath>
    <clipPath
       clipPathUnits="userSpaceOnUse"
       id="clipPath113">
      <path
         d="M 0,660 H 660 V 0 H 0 Z"
         id="path113" />
    </clipPath>
    <clipPath
       clipPathUnits="userSpaceOnUse"
       id="clipPath115">
      <path
         d="M 0,660 H 660 V 0 H 0 Z"
         id="path115" />
    </clipPath>
    <clipPath
       clipPathUnits="userSpaceOnUse"
       id="clipPath117">
      <path
         d="M 0,660 H 660 V 0 H 0 Z"
         id="path117" />
    </clipPath>
    <clipPath
       clipPathUnits="userSpaceOnUse"
       id="clipPath119">
      <path
         d="M 0,660 H 660 V 0 H 0 Z"
         id="path119" />
    </clipPath>
    <clipPath
       clipPathUnits="userSpaceOnUse"
       id="clipPath121">
      <path
         d="M 0,660 H 660 V 0 H 0 Z"
         id="path121" />
    </clipPath>
    <clipPath
       clipPathUnits="userSpaceOnUse"
       id="clipPath123">
      <path
         d="M 0,660 H 660 V 0 H 0 Z"
         id="path123" />
    </clipPath>
    <clipPath
       clipPathUnits="userSpaceOnUse"
       id="clipPath125">
      <path
         d="M 0,660 H 660 V 0 H 0 Z"
         id="path125" />
    </clipPath>
    <clipPath
       clipPathUnits="userSpaceOnUse"
       id="clipPath127">
      <path
         d="M 0,660 H 660 V 0 H 0 Z"
         id="path127" />
    </clipPath>
    <clipPath
       clipPathUnits="userSpaceOnUse"
       id="clipPath129">
      <path
         d="M 0,660 H 660 V 0 H 0 Z"
         id="path129" />
    </clipPath>
    <clipPath
       clipPathUnits="userSpaceOnUse"
       id="clipPath131">
      <path
         d="M 0,660 H 660 V 0 H 0 Z"
         id="path131" />
    </clipPath>
    <clipPath
       clipPathUnits="userSpaceOnUse"
       id="clipPath133">
      <path
         d="M 0,660 H 660 V 0 H 0 Z"
         id="path133" />
    </clipPath>
    <clipPath
       clipPathUnits="userSpaceOnUse"
       id="clipPath135">
      <path
         d="M 0,660 H 660 V 0 H 0 Z"
         id="path135" />
    </clipPath>
    <clipPath
       clipPathUnits="userSpaceOnUse"
       id="clipPath137">
      <path
         d="M 0,660 H 660 V 0 H 0 Z"
         id="path137" />
    </clipPath>
    <clipPath
       clipPathUnits="userSpaceOnUse"
       id="clipPath139">
      <path
         d="M 0,660 H 660 V 0 H 0 Z"
         id="path139" />
    </clipPath>
    <clipPath
       clipPathUnits="userSpaceOnUse"
       id="clipPath141">
      <path
         d="M 0,660 H 660 V 0 H 0 Z"
         id="path141" />
    </clipPath>
    <clipPath
       clipPathUnits="userSpaceOnUse"
       id="clipPath143">
      <path
         d="M 0,660 H 660 V 0 H 0 Z"
         id="path143" />
    </clipPath>
    <clipPath
       clipPathUnits="userSpaceOnUse"
       id="clipPath145">
      <path
         d="M 0,660 H 660 V 0 H 0 Z"
         id="path145" />
    </clipPath>
    <clipPath
       clipPathUnits="userSpaceOnUse"
       id="clipPath147">
      <path
         d="M 0,660 H 660 V 0 H 0 Z"
         id="path147" />
    </clipPath>
    <clipPath
       clipPathUnits="userSpaceOnUse"
       id="clipPath149">
      <path
         d="M 0,660 H 660 V 0 H 0 Z"
         transform="translate(-544.10351,0.99999753)"
         id="path149" />
    </clipPath>
  </defs>
  <sodipodi:namedview
     id="namedview1"
     pagecolor="#ffffff"
     bordercolor="#000000"
     borderopacity="0.25"
     inkscape:showpageshadow="2"
     inkscape:pageopacity="0.0"
     inkscape:pagecheckerboard="0"
     inkscape:deskcolor="#d1d1d1"
     inkscape:zoom="0.69318182"
     inkscape:cx="439.27869"
     inkscape:cy="440"
     inkscape:window-width="1440"
     inkscape:window-height="830"
     inkscape:window-x="-6"
     inkscape:window-y="-6"
     inkscape:window-maximized="1"
     inkscape:current-layer="g1">
    <inkscape:page
       x="0"
       y="0"
       inkscape:label="1"
       id="page1"
       width="880"
       height="880"
       margin="0 0 0.68000001 0.88730931"
       bleed="0" />
  </sodipodi:namedview>
  <g
     id="g1"
     inkscape:groupmode="layer"
     inkscape:label="1">
    <g
       id="group-MC0">
      <path
         id="path2"
         d="M 0,0 V -337.75 -659.489 H 659.335 V 0 Z"
         style="fill:#8ebae7;fill-opacity:1;fill-rule:nonzero;stroke:none"
         transform="matrix(1.3333333,0,0,-1.3333333,0.8868,0.6808)" />
      <path
         id="path3"
         d="m 0,0 -27.794,-112.486 h 178.596 l -2.91,13.713 -27.153,127.915 -20.5,-96.576 L 83.579,0 41.79,169.123 Z m 201.449,-27.499 -19.152,-84.987 h 114.331 l -19.154,84.987 -38.013,168.675 z"
         style="fill:#205b2b;fill-opacity:1;fill-rule:nonzero;stroke:none"
         transform="matrix(1.3333333,0,0,-1.3333333,244.968,730.018)" />
      <path
         id="path4"
         d="m 0,0 c 1.807,0 3.557,-0.246 5.217,-0.709 7.091,15.344 22.615,25.994 40.629,25.994 13.071,0 24.831,-5.608 33.011,-14.547 15.582,-1.246 27.839,-14.285 27.839,-30.188 0,-0.559 -0.018,-1.114 -0.048,-1.667 H -19.378 c -0.046,0.55 -0.072,1.105 -0.072,1.667 C -19.45,-8.708 -10.741,0 0,0"
         style="fill:#c7e2f6;fill-opacity:1;fill-rule:evenodd;stroke:none"
         transform="matrix(1.3333333,0,0,-1.3333333,95.391333,226.11853)"
         clip-path="url(#clipPath5)" />
      <path
         id="path6"
         d="m 0,0 c 2.749,0 5.351,-0.585 7.669,-1.626 5.724,10.276 17.348,17.309 30.754,17.309 11.812,0 22.235,-5.461 28.465,-13.787 2.914,1.329 6.202,2.079 9.678,2.079 8.257,0 15.444,-4.223 19.154,-10.451 4.082,8.869 13.624,15.091 24.747,15.091 14.838,0 26.868,-11.078 26.868,-24.741 0,-1.016 -0.069,-2.016 -0.197,-2.999 H -17.211 c -0.196,0.972 -0.302,1.974 -0.302,2.999 C -17.513,-7.22 -9.672,0 0,0"
         style="fill:#c7e2f6;fill-opacity:1;fill-rule:evenodd;stroke:none"
         transform="matrix(1.3333333,0,0,-1.3333333,390.25453,274.4752)"
         clip-path="url(#clipPath7)" />
      <path
         id="path8"
         d="m 0,0 c 5.305,0 10.168,-1.885 13.962,-5.022 6.88,18.683 24.837,32.006 45.907,32.006 14.486,0 27.499,-6.299 36.455,-16.306 7.768,6.99 18.047,11.247 29.319,11.247 15.045,0 28.319,-7.578 36.216,-19.123 7.952,11.791 21.436,19.545 36.728,19.545 12.285,0 23.403,-5.007 31.424,-13.087 2.873,0.833 5.911,1.28 9.054,1.28 17.93,0 32.465,-14.535 32.465,-32.465 0,-0.299 -0.005,-0.598 -0.013,-0.897 H -21.909 c -0.01,0.299 -0.019,0.596 -0.019,0.897 C -21.928,-9.817 -12.111,0 0,0"
         style="fill:#c7e2f6;fill-opacity:1;fill-rule:evenodd;stroke:none"
         transform="matrix(1.3333333,0,0,-1.3333333,456.53,74.5508)"
         clip-path="url(#clipPath9)" />
      <path
         id="path10"
         d="m 0,0 c 1.083,0 2.134,-0.149 3.13,-0.426 4.251,9.203 13.561,15.589 24.366,15.589 7.841,0 14.893,-3.362 19.8,-8.724 9.346,-0.747 16.696,-8.567 16.696,-18.105 0,-0.335 -0.011,-0.669 -0.027,-0.999 h -75.586 c -0.03,0.33 -0.043,0.662 -0.043,0.999 C -11.664,-5.223 -6.441,0 0,0"
         style="fill:#c7e2f6;fill-opacity:1;fill-rule:evenodd;stroke:none"
         transform="matrix(1.3333333,0,0,-1.3333333,671.37373,338.82947)"
         clip-path="url(#clipPath11)" />
      <path
         id="path12"
         d="m 0,0 c 3.749,0 7.298,-0.796 10.456,-2.215 7.806,14.01 23.65,23.597 41.927,23.597 16.101,0 30.316,-7.444 38.805,-18.795 3.977,1.812 8.457,2.833 13.193,2.833 11.26,0 21.057,-5.755 26.112,-14.247 5.568,12.09 18.576,20.575 33.737,20.575 20.232,0 36.629,-15.104 36.629,-33.731 0,-1.384 -0.093,-2.748 -0.266,-4.088 H -23.46 c -0.269,1.324 -0.414,2.69 -0.414,4.088 C -23.874,-9.843 -13.186,0 0,0"
         style="fill:#c7e2f6;fill-opacity:1;fill-rule:evenodd;stroke:none"
         transform="matrix(1.3333333,0,0,-1.3333333,93.696667,114.44533)"
         clip-path="url(#clipPath13)" />
      <path
         id="path14"
         d="m 0,0 c -1.981,0 -3.856,-0.422 -5.524,-1.171 -4.129,7.405 -12.503,12.472 -22.165,12.472 -8.513,0 -16.025,-3.934 -20.515,-9.935 -2.102,0.96 -4.469,1.498 -6.973,1.498 -5.952,0 -11.132,-3.042 -13.803,-7.531 -2.946,6.391 -9.82,10.875 -17.835,10.875 -10.693,0 -19.364,-7.982 -19.364,-17.831 0,-0.729 0.049,-1.45 0.141,-2.159 h 118.44 c 0.144,0.7 0.218,1.422 0.218,2.159 C 12.62,-5.204 6.973,0 0,0"
         style="fill:#c7e2f6;fill-opacity:1;fill-rule:evenodd;stroke:none"
         transform="matrix(1.3333333,0,0,-1.3333333,803.88147,222.51693)"
         clip-path="url(#clipPath15)" />
      <path
         id="path16"
         d="M 0,0 H 201.493 V -425.253 H 0 v 322.739 z"
         style="fill:#faf462;fill-opacity:1;fill-rule:evenodd;stroke:none"
         transform="matrix(1.3333333,0,0,-1.3333333,0.88733333,314.32947)"
         clip-path="url(#clipPath17)" />
      <path
         id="path18"
         d="M 0.665,432.932 H 215.53 V 407.861 H 0.665 Z"
         style="fill:#293546;fill-opacity:1;fill-rule:evenodd;stroke:none"
         transform="matrix(1.3333333,0,0,-1.3333333,0,880)"
         clip-path="url(#clipPath19)" />
      <path
         id="path20"
         d="M 0.665,407.861 H 202.158 V 394.89 H 0.665 Z"
         style="fill:#e8e149;fill-opacity:1;fill-rule:evenodd;stroke:none"
         transform="matrix(1.3333333,0,0,-1.3333333,0,880)"
         clip-path="url(#clipPath21)" />
      <path
         id="path22"
         d="M 179.165,372.948 H 87.198 V 270.53 h 91.967 z"
         style="fill:#ffffff;fill-opacity:1;fill-rule:evenodd;stroke:none"
         transform="matrix(1.3333333,0,0,-1.3333333,0,880)"
         clip-path="url(#clipPath23)" />
      <path
         id="path24"
         d="M 174.986,274.711 H 91.38 v 60.195 h 83.606 z m -83.607,94.057 h 83.606 V 339.087 H 91.379 Z"
         style="fill:#76752b;fill-opacity:1;fill-rule:evenodd;stroke:none"
         transform="matrix(1.3333333,0,0,-1.3333333,0,880)"
         clip-path="url(#clipPath25)" />
      <path
         id="path26"
         d="m 168.087,328.01 h -69.81 v -46.399 h 69.81 z m -69.81,17.976 h 69.81 v 15.883 h -69.81 z"
         style="fill:#8c8a42;fill-opacity:1;fill-rule:evenodd;stroke:none"
         transform="matrix(1.3333333,0,0,-1.3333333,0,880)"
         clip-path="url(#clipPath27)" />
      <path
         id="path28"
         d="m 159.941,274.711 h -25.395 v 60.195 h 25.395 z m -25.395,94.057 h 25.395 v -29.681 h -25.395 z m -11.288,-94.057 h -16.826 v 60.195 h 16.826 z m -16.826,94.057 h 16.826 v -29.681 h -16.826 z"
         style="fill:#8c8a42;fill-opacity:1;fill-rule:evenodd;stroke:none"
         transform="matrix(1.3333333,0,0,-1.3333333,0,880)"
         clip-path="url(#clipPath29)" />
      <path
         id="path30"
         d="m 159.941,281.61 h -25.395 v 46.399 h 25.395 z m -36.683,0 h -16.826 v 46.399 h 16.826 z m 11.288,64.376 h 25.395 v 15.883 h -25.395 z m -28.114,0 h 16.826 v 15.883 h -16.826 z"
         style="fill:#a29f51;fill-opacity:1;fill-rule:evenodd;stroke:none"
         transform="matrix(1.3333333,0,0,-1.3333333,0,880)"
         clip-path="url(#clipPath31)" />
      <path
         id="path32"
         d="m 0,0 h -63.123 v -51.209 -51.209 H 0 Z"
         style="fill:#ffffff;fill-opacity:1;fill-rule:evenodd;stroke:none"
         transform="matrix(1.3333333,0,0,-1.3333333,85.0508,382.73573)"
         clip-path="url(#clipPath33)" />
      <path
         id="path34"
         d="M 0,0 V -60.195 H -58.942 V -13.167 0 Z M -58.942,33.862 H 0 V 4.181 h -58.942 z"
         style="fill:#76752b;fill-opacity:1;fill-rule:evenodd;stroke:none"
         transform="matrix(1.3333333,0,0,-1.3333333,79.4772,433.45827)"
         clip-path="url(#clipPath35)" />
      <path
         id="path36"
         d="M 0,0 H -52.045 V -6.271 -46.399 H 0 Z M -52.045,17.976 H 0 v 15.883 h -52.045 z"
         style="fill:#8c8a42;fill-opacity:1;fill-rule:evenodd;stroke:none"
         transform="matrix(1.3333333,0,0,-1.3333333,70.28,442.6536)"
         clip-path="url(#clipPath37)" />
      <path
         id="path38"
         d="M 44.564,274.711 H 19.169 v 60.195 H 44.564 Z M 19.169,368.768 H 44.564 V 339.087 H 19.169 Z M 7.882,334.906 V 274.711 H 0.665 v 47.028 13.167 z M 0.665,368.768 H 7.881 V 339.087 H 0.665 Z"
         style="fill:#8c8a42;fill-opacity:1;fill-rule:evenodd;stroke:none"
         transform="matrix(1.3333333,0,0,-1.3333333,0,880)"
         clip-path="url(#clipPath39)" />
      <path
         id="path40"
         d="M 44.564,281.61 H 19.169 v 46.399 h 25.395 z m -36.682,46.4 v -46.4 H 0.665 v 40.129 6.271 z m 11.287,17.976 h 25.395 v 15.883 H 19.169 Z m -18.504,0 h 7.216 v 15.883 H 0.665 Z"
         style="fill:#a29f51;fill-opacity:1;fill-rule:evenodd;stroke:none"
         transform="matrix(1.3333333,0,0,-1.3333333,0,880)"
         clip-path="url(#clipPath41)" />
      <path
         id="path42"
         d="M 179.165,248.325 H 87.198 V 145.907 h 91.967 z"
         style="fill:#ffffff;fill-opacity:1;fill-rule:evenodd;stroke:none"
         transform="matrix(1.3333333,0,0,-1.3333333,0,880)"
         clip-path="url(#clipPath43)" />
      <path
         id="path44"
         d="M 174.986,150.088 H 91.38 v 60.195 h 83.606 z m -83.607,94.057 h 83.606 V 214.464 H 91.379 Z"
         style="fill:#76752b;fill-opacity:1;fill-rule:evenodd;stroke:none"
         transform="matrix(1.3333333,0,0,-1.3333333,0,880)"
         clip-path="url(#clipPath45)" />
      <path
         id="path46"
         d="m 168.087,203.384 h -69.81 v -46.396 h 69.81 z m -69.81,17.978 h 69.81 v 15.884 h -69.81 z"
         style="fill:#8c8a42;fill-opacity:1;fill-rule:evenodd;stroke:none"
         transform="matrix(1.3333333,0,0,-1.3333333,0,880)"
         clip-path="url(#clipPath47)" />
      <path
         id="path48"
         d="m 159.941,150.088 h -25.395 v 60.195 h 25.395 z m -25.395,94.057 h 25.395 v -29.681 h -25.395 z m -11.288,-94.057 h -16.826 v 60.195 h 16.826 z m -16.826,94.057 h 16.826 v -29.681 h -16.826 z"
         style="fill:#8c8a42;fill-opacity:1;fill-rule:evenodd;stroke:none"
         transform="matrix(1.3333333,0,0,-1.3333333,0,880)"
         clip-path="url(#clipPath49)" />
      <path
         id="path50"
         d="m 159.941,156.987 h -25.395 v 46.396 h 25.395 z m -36.683,0 h -16.826 v 46.396 h 16.826 z m 11.288,64.375 h 25.395 v 15.884 h -25.395 z m -28.114,0 h 16.826 v 15.884 h -16.826 z"
         style="fill:#a29f51;fill-opacity:1;fill-rule:evenodd;stroke:none"
         transform="matrix(1.3333333,0,0,-1.3333333,0,880)"
         clip-path="url(#clipPath51)" />
      <path
         id="path52"
         d="M 63.788,248.325 H 0.665 V 145.907 h 63.123 z"
         style="fill:#ffffff;fill-opacity:1;fill-rule:evenodd;stroke:none"
         transform="matrix(1.3333333,0,0,-1.3333333,0,880)"
         clip-path="url(#clipPath53)" />
      <path
         id="path54"
         d="M 59.608,150.088 H 0.666 v 60.195 H 59.608 Z M 0.665,244.145 H 59.607 V 214.464 H 0.665 Z"
         style="fill:#76752b;fill-opacity:1;fill-rule:evenodd;stroke:none"
         transform="matrix(1.3333333,0,0,-1.3333333,0,880)"
         clip-path="url(#clipPath55)" />
      <path
         id="path56"
         d="M 52.71,203.384 H 0.666 V 156.988 H 52.71 Z M 0.665,221.362 H 52.71 v 15.884 H 0.665 Z"
         style="fill:#8c8a42;fill-opacity:1;fill-rule:evenodd;stroke:none"
         transform="matrix(1.3333333,0,0,-1.3333333,0,880)"
         clip-path="url(#clipPath57)" />
      <path
         id="path58"
         d="M 44.564,150.088 H 19.169 v 60.195 H 44.564 Z M 19.169,244.145 H 44.564 V 214.464 H 19.169 Z M 7.882,150.088 H 0.666 v 60.195 H 7.882 Z M 0.665,244.145 H 7.881 V 214.464 H 0.665 Z"
         style="fill:#8c8a42;fill-opacity:1;fill-rule:evenodd;stroke:none"
         transform="matrix(1.3333333,0,0,-1.3333333,0,880)"
         clip-path="url(#clipPath59)" />
      <path
         id="path60"
         d="M 44.564,156.987 H 19.169 v 46.396 h 25.395 z m -36.682,0 H 0.666 v 46.396 h 7.216 z m 11.287,64.375 h 25.395 v 15.884 H 19.169 Z m -18.504,0 h 7.216 v 15.884 H 0.665 Z"
         style="fill:#a29f51;fill-opacity:1;fill-rule:evenodd;stroke:none"
         transform="matrix(1.3333333,0,0,-1.3333333,0,880)"
         clip-path="url(#clipPath61)" />
      <path
         id="path62"
         d="M 179.165,123.702 H 87.198 V 21.284 h 91.967 z"
         style="fill:#ffffff;fill-opacity:1;fill-rule:evenodd;stroke:none"
         transform="matrix(1.3333333,0,0,-1.3333333,0,880)"
         clip-path="url(#clipPath63)" />
      <path
         id="path64"
         d="M 174.986,25.465 H 91.38 V 85.66 h 83.606 z m -83.607,94.056 h 83.606 V 89.84 H 91.379 Z"
         style="fill:#76752b;fill-opacity:1;fill-rule:evenodd;stroke:none"
         transform="matrix(1.3333333,0,0,-1.3333333,0,880)"
         clip-path="url(#clipPath65)" />
      <path
         id="path66"
         d="M 168.087,78.761 H 98.277 V 32.364 h 69.81 z m -69.81,17.978 h 69.81 v 15.884 h -69.81 z"
         style="fill:#8c8a42;fill-opacity:1;fill-rule:evenodd;stroke:none"
         transform="matrix(1.3333333,0,0,-1.3333333,0,880)"
         clip-path="url(#clipPath67)" />
      <path
         id="path68"
         d="M 159.941,25.465 H 134.546 V 85.66 h 25.395 z m -25.395,94.056 h 25.395 V 89.84 H 134.546 Z M 123.258,25.465 H 106.432 V 85.66 h 16.826 z m -16.826,94.056 h 16.826 V 89.84 h -16.826 z"
         style="fill:#8c8a42;fill-opacity:1;fill-rule:evenodd;stroke:none"
         transform="matrix(1.3333333,0,0,-1.3333333,0,880)"
         clip-path="url(#clipPath69)" />
      <path
         id="path70"
         d="M 159.941,32.363 H 134.546 V 78.76 h 25.395 z m -36.683,0 H 106.432 V 78.76 h 16.826 z m 11.288,64.376 h 25.395 v 15.884 h -25.395 z m -28.114,0 h 16.826 v 15.884 h -16.826 z"
         style="fill:#a29f51;fill-opacity:1;fill-rule:evenodd;stroke:none"
         transform="matrix(1.3333333,0,0,-1.3333333,0,880)"
         clip-path="url(#clipPath71)" />
      <path
         id="path72"
         d="M 63.788,123.702 H 0.665 V 21.284 h 63.123 z"
         style="fill:#ffffff;fill-opacity:1;fill-rule:evenodd;stroke:none"
         transform="matrix(1.3333333,0,0,-1.3333333,0,880)"
         clip-path="url(#clipPath73)" />
      <path
         id="path74"
         d="M 59.608,25.465 H 0.666 V 85.66 H 59.608 Z M 0.665,119.521 H 59.607 V 89.84 H 0.665 Z"
         style="fill:#76752b;fill-opacity:1;fill-rule:evenodd;stroke:none"
         transform="matrix(1.3333333,0,0,-1.3333333,0,880)"
         clip-path="url(#clipPath75)" />
      <path
         id="path76"
         d="M 52.71,78.761 H 0.666 V 32.364 H 52.71 Z M 0.665,96.739 H 52.71 v 15.884 H 0.665 Z"
         style="fill:#8c8a42;fill-opacity:1;fill-rule:evenodd;stroke:none"
         transform="matrix(1.3333333,0,0,-1.3333333,0,880)"
         clip-path="url(#clipPath77)" />
      <path
         id="path78"
         d="M 44.564,25.465 H 19.169 V 85.66 H 44.564 Z M 19.169,119.521 H 44.564 V 89.84 H 19.169 Z M 7.882,25.465 H 0.666 V 85.66 H 7.882 Z M 0.665,119.521 H 7.881 V 89.84 H 0.665 Z"
         style="fill:#8c8a42;fill-opacity:1;fill-rule:evenodd;stroke:none"
         transform="matrix(1.3333333,0,0,-1.3333333,0,880)"
         clip-path="url(#clipPath79)" />
      <path
         id="path80"
         d="M 44.564,32.363 H 19.169 V 78.76 h 25.395 z m -36.682,0 H 0.666 V 78.76 h 7.216 z m 11.287,64.376 h 25.395 v 15.884 H 19.169 Z m -18.504,0 h 7.216 v 15.884 H 0.665 Z"
         style="fill:#a29f51;fill-opacity:1;fill-rule:evenodd;stroke:none"
         transform="matrix(1.3333333,0,0,-1.3333333,0,880)"
         clip-path="url(#clipPath81)" />
      <path
         id="path82"
         d="M 448.381,299.147 H 661.158 V -1 H 448.381 Z"
         style="fill:#f7af59;fill-opacity:1;fill-rule:evenodd;stroke:none"
         transform="matrix(1.3333333,0,0,-1.3333333,0,880)"
         clip-path="url(#clipPath83)" />
      <path
         id="path84"
         d="M 661.158,317.543 H 440.855 v -26.756 h 220.303 z"
         style="fill:#293546;fill-opacity:1;fill-rule:evenodd;stroke:none"
         transform="matrix(1.3333333,0,0,-1.3333333,0,880)"
         clip-path="url(#clipPath85)" />
      <path
         id="path86"
         d="M 448.381,290.787 H 661.158 V 278.053 H 448.381 Z"
         style="fill:#e59945;fill-opacity:1;fill-rule:evenodd;stroke:none"
         transform="matrix(1.3333333,0,0,-1.3333333,0,880)"
         clip-path="url(#clipPath87)" />
      <path
         id="path88"
         d="m 487.356,263.288 h 53.476 V 151.146 h -53.476 z"
         style="fill:#ffffff;fill-opacity:1;fill-rule:evenodd;stroke:none"
         transform="matrix(1.3333333,0,0,-1.3333333,0,880)"
         clip-path="url(#clipPath89)" />
      <path
         id="path90"
         d="m 534.352,157.629 h -40.514 v 75.679 h 40.514 z m -40.513,99.177 h 40.514 V 239.79 h -40.514 z"
         style="fill:#7f4d1e;fill-opacity:1;fill-rule:evenodd;stroke:none"
         transform="matrix(1.3333333,0,0,-1.3333333,0,880)"
         clip-path="url(#clipPath91)" />
      <path
         id="path92"
         d="m 529.004,227.963 h -29.82 v -64.988 h 29.82 z m -29.82,17.173 h 29.82 v 6.322 h -29.82 z"
         style="fill:#8f5a26;fill-opacity:1;fill-rule:evenodd;stroke:none"
         transform="matrix(1.3333333,0,0,-1.3333333,0,880)"
         clip-path="url(#clipPath93)" />
      <path
         id="path94"
         d="m 520.089,157.629 h -17.176 v 75.679 h 17.176 z m -17.176,99.177 h 17.176 V 239.79 h -17.176 z"
         style="fill:#8f5a26;fill-opacity:1;fill-rule:evenodd;stroke:none"
         transform="matrix(1.3333333,0,0,-1.3333333,0,880)"
         clip-path="url(#clipPath95)" />
      <path
         id="path96"
         d="m 520.089,162.975 h -17.176 v 64.988 h 17.176 z m -17.176,82.161 h 17.176 v 6.322 h -17.176 z"
         style="fill:#a87036;fill-opacity:1;fill-rule:evenodd;stroke:none"
         transform="matrix(1.3333333,0,0,-1.3333333,0,880)"
         clip-path="url(#clipPath97)" />
      <path
         id="path98"
         d="m 534.352,263.288 h 53.476 V 151.146 h -53.476 z"
         style="fill:#ffffff;fill-opacity:1;fill-rule:evenodd;stroke:none"
         transform="matrix(1.3333333,0,0,-1.3333333,0,880)"
         clip-path="url(#clipPath99)" />
      <path
         id="path100"
         d="m 581.346,157.629 h -40.514 v 75.679 h 40.514 z m -40.514,99.177 h 40.514 V 239.79 h -40.514 z"
         style="fill:#7f4d1e;fill-opacity:1;fill-rule:evenodd;stroke:none"
         transform="matrix(1.3333333,0,0,-1.3333333,0,880)"
         clip-path="url(#clipPath101)" />
      <path
         id="path102"
         d="M 576,227.963 H 546.18 V 162.975 H 576 Z m -29.82,17.173 H 576 v 6.322 h -29.82 z"
         style="fill:#8f5a26;fill-opacity:1;fill-rule:evenodd;stroke:none"
         transform="matrix(1.3333333,0,0,-1.3333333,0,880)"
         clip-path="url(#clipPath103)" />
      <path
         id="path104"
         d="m 567.084,157.629 h -17.176 v 75.679 h 17.176 z m -17.176,99.177 h 17.176 V 239.79 h -17.176 z"
         style="fill:#8f5a26;fill-opacity:1;fill-rule:evenodd;stroke:none"
         transform="matrix(1.3333333,0,0,-1.3333333,0,880)"
         clip-path="url(#clipPath105)" />
      <path
         id="path106"
         d="m 567.084,162.975 h -17.176 v 64.988 h 17.176 z m -17.176,82.161 h 17.176 v 6.322 h -17.176 z"
         style="fill:#a87036;fill-opacity:1;fill-rule:evenodd;stroke:none"
         transform="matrix(1.3333333,0,0,-1.3333333,0,880)"
         clip-path="url(#clipPath107)" />
      <path
         id="path108"
         d="m 487.356,129.354 h 53.476 V 17.212 h -53.476 z"
         style="fill:#ffffff;fill-opacity:1;fill-rule:evenodd;stroke:none"
         transform="matrix(1.3333333,0,0,-1.3333333,0,880)"
         clip-path="url(#clipPath109)" />
      <path
         id="path110"
         d="m 534.352,23.695 h -40.514 v 75.679 h 40.514 z m -40.513,99.177 h 40.514 v -17.018 h -40.514 z"
         style="fill:#7f4d1e;fill-opacity:1;fill-rule:evenodd;stroke:none"
         transform="matrix(1.3333333,0,0,-1.3333333,0,880)"
         clip-path="url(#clipPath111)" />
      <path
         id="path112"
         d="m 529.004,94.026 h -29.82 V 29.041 h 29.82 z m -29.82,17.176 h 29.82 v 6.322 h -29.82 z"
         style="fill:#8f5a26;fill-opacity:1;fill-rule:evenodd;stroke:none"
         transform="matrix(1.3333333,0,0,-1.3333333,0,880)"
         clip-path="url(#clipPath113)" />
      <path
         id="path114"
         d="m 520.089,23.695 h -17.176 v 75.679 h 17.176 z m -17.176,99.177 h 17.176 v -17.018 h -17.176 z"
         style="fill:#8f5a26;fill-opacity:1;fill-rule:evenodd;stroke:none"
         transform="matrix(1.3333333,0,0,-1.3333333,0,880)"
         clip-path="url(#clipPath115)" />
      <path
         id="path116"
         d="m 520.089,29.041 h -17.176 v 64.985 h 17.176 z m -17.176,82.161 h 17.176 v 6.322 h -17.176 z"
         style="fill:#a87036;fill-opacity:1;fill-rule:evenodd;stroke:none"
         transform="matrix(1.3333333,0,0,-1.3333333,0,880)"
         clip-path="url(#clipPath117)" />
      <path
         id="path118"
         d="m 534.352,129.354 h 53.476 V 17.212 h -53.476 z"
         style="fill:#ffffff;fill-opacity:1;fill-rule:evenodd;stroke:none"
         transform="matrix(1.3333333,0,0,-1.3333333,0,880)"
         clip-path="url(#clipPath119)" />
      <path
         id="path120"
         d="m 581.346,23.695 h -40.514 v 75.679 h 40.514 z m -40.514,99.177 h 40.514 v -17.018 h -40.514 z"
         style="fill:#7f4d1e;fill-opacity:1;fill-rule:evenodd;stroke:none"
         transform="matrix(1.3333333,0,0,-1.3333333,0,880)"
         clip-path="url(#clipPath121)" />
      <path
         id="path122"
         d="M 576,94.026 H 546.18 V 29.041 H 576 Z m -29.82,17.176 H 576 v 6.322 h -29.82 z"
         style="fill:#8f5a26;fill-opacity:1;fill-rule:evenodd;stroke:none"
         transform="matrix(1.3333333,0,0,-1.3333333,0,880)"
         clip-path="url(#clipPath123)" />
      <path
         id="path124"
         d="m 567.084,23.695 h -17.176 v 75.679 h 17.176 z m -17.176,99.177 h 17.176 v -17.018 h -17.176 z"
         style="fill:#8f5a26;fill-opacity:1;fill-rule:evenodd;stroke:none"
         transform="matrix(1.3333333,0,0,-1.3333333,0,880)"
         clip-path="url(#clipPath125)" />
      <path
         id="path126"
         d="m 567.084,29.041 h -17.176 v 64.985 h 17.176 z m -17.176,82.161 h 17.176 v 6.322 h -17.176 z"
         style="fill:#a87036;fill-opacity:1;fill-rule:evenodd;stroke:none"
         transform="matrix(1.3333333,0,0,-1.3333333,0,880)"
         clip-path="url(#clipPath127)" />
      <path
         id="path128"
         d="m 632.029,263.288 h 29.129 V 151.146 h -29.129 z"
         style="fill:#ffffff;fill-opacity:1;fill-rule:evenodd;stroke:none"
         transform="matrix(1.3333333,0,0,-1.3333333,0,880)"
         clip-path="url(#clipPath129)" />
      <path
         id="path130"
         d="m 661.158,157.629 h -22.647 v 75.679 h 22.647 z m -22.646,99.177 h 22.647 V 239.79 h -22.647 z"
         style="fill:#7f4d1e;fill-opacity:1;fill-rule:evenodd;stroke:none"
         transform="matrix(1.3333333,0,0,-1.3333333,0,880)"
         clip-path="url(#clipPath131)" />
      <path
         id="path132"
         d="m 661.158,227.963 h -17.301 v -64.988 h 17.301 z m -17.301,17.173 h 17.301 v 6.322 h -17.301 z"
         style="fill:#8f5a26;fill-opacity:1;fill-rule:evenodd;stroke:none"
         transform="matrix(1.3333333,0,0,-1.3333333,0,880)"
         clip-path="url(#clipPath133)" />
      <path
         id="path134"
         d="m 661.158,157.629 h -13.572 v 75.679 h 13.572 z m -13.572,99.177 h 13.572 V 239.79 h -13.572 z"
         style="fill:#8f5a26;fill-opacity:1;fill-rule:evenodd;stroke:none"
         transform="matrix(1.3333333,0,0,-1.3333333,0,880)"
         clip-path="url(#clipPath135)" />
      <path
         id="path136"
         d="m 661.158,162.975 h -13.572 v 64.988 h 13.572 z m -13.572,82.161 h 13.572 v 6.322 h -13.572 z"
         style="fill:#a87036;fill-opacity:1;fill-rule:evenodd;stroke:none"
         transform="matrix(1.3333333,0,0,-1.3333333,0,880)"
         clip-path="url(#clipPath137)" />
      <path
         id="path138"
         d="m 632.029,129.354 h 29.129 V 17.212 h -29.129 z"
         style="fill:#ffffff;fill-opacity:1;fill-rule:evenodd;stroke:none"
         transform="matrix(1.3333333,0,0,-1.3333333,0,880)"
         clip-path="url(#clipPath139)" />
      <path
         id="path140"
         d="m 661.158,23.695 h -22.647 v 75.679 h 22.647 z m -22.646,99.177 h 22.647 v -17.018 h -22.647 z"
         style="fill:#7f4d1e;fill-opacity:1;fill-rule:evenodd;stroke:none"
         transform="matrix(1.3333333,0,0,-1.3333333,0,880)"
         clip-path="url(#clipPath141)" />
      <path
         id="path142"
         d="M 661.158,94.026 H 643.857 V 29.041 h 17.301 z m -17.301,17.176 h 17.301 v 6.322 h -17.301 z"
         style="fill:#8f5a26;fill-opacity:1;fill-rule:evenodd;stroke:none"
         transform="matrix(1.3333333,0,0,-1.3333333,0,880)"
         clip-path="url(#clipPath143)" />
      <path
         id="path144"
         d="m 661.158,23.695 h -13.572 v 75.679 h 13.572 z m -13.572,99.177 h 13.572 v -17.018 h -13.572 z"
         style="fill:#8f5a26;fill-opacity:1;fill-rule:evenodd;stroke:none"
         transform="matrix(1.3333333,0,0,-1.3333333,0,880)"
         clip-path="url(#clipPath145)" />
      <path
         id="path146"
         d="m 661.158,29.041 h -13.572 v 64.985 h 13.572 z m -13.572,82.161 h 13.572 v 6.322 h -13.572 z"
         style="fill:#a87036;fill-opacity:1;fill-rule:evenodd;stroke:none"
         transform="matrix(1.3333333,0,0,-1.3333333,0,880)"
         clip-path="url(#clipPath147)" />
      <path
         id="path148"
         d="M 0,0 27.485,131.762 54.97,0 Z M 112.763,94.139 117.055,75.36 V 0 H 91.26 Z M -123.001,0 -122.846,0.686 -92.454,135.738 -62.06,0.686 -61.904,0 Z m -65.87,0 29.496,152.663 L -129.879,0 Z m -120.08,0 7.47,32.955 32.836,144.883 L -235.812,32.955 -228.345,0 Z m -96.057,0 0.741,3.636 27.516,134.813 L -349.238,3.636 -348.497,0 Z m -106.351,161.859 21.361,-99.073 8.906,-41.31 17.861,88.883 L -441.053,0 h -102.385 v 13.066 l 10.72,49.72 z"
         style="fill:#267837;fill-opacity:1;fill-rule:evenodd;stroke:none"
         transform="matrix(1.3333333,0,0,-1.3333333,725.47133,881.33333)"
         clip-path="url(#clipPath149)" />
    </g>
  </g>
</svg>
