<?xml version="1.0" encoding="UTF-8" standalone="no"?>
<!-- Created with Inkscape (http://www.inkscape.org/) -->

<svg
   version="1.1"
   id="svg1"
   width="880"
   height="880"
   viewBox="0 0 880 880"
   sodipodi:docname="bullhorn.svg"
   inkscape:version="1.3.2 (091e20e, 2023-11-25, custom)"
   xmlns:inkscape="http://www.inkscape.org/namespaces/inkscape"
   xmlns:sodipodi="http://sodipodi.sourceforge.net/DTD/sodipodi-0.dtd"
   xmlns="http://www.w3.org/2000/svg"
   xmlns:svg="http://www.w3.org/2000/svg">
  <defs
     id="defs1">
    <clipPath
       clipPathUnits="userSpaceOnUse"
       id="clipPath4">
      <path
         d="M 0,660 H 660 V 0 H 0 Z"
         transform="translate(-211.0918,-216.89161)"
         id="path4" />
    </clipPath>
    <clipPath
       clipPathUnits="userSpaceOnUse"
       id="clipPath6">
      <path
         d="M 0,660 H 660 V 0 H 0 Z"
         transform="translate(-212.3398,-199.6572)"
         id="path6" />
    </clipPath>
    <clipPath
       clipPathUnits="userSpaceOnUse"
       id="clipPath8">
      <path
         d="M 0,660 H 660 V 0 H 0 Z"
         transform="translate(-167.2993,-159.4609)"
         id="path8" />
    </clipPath>
    <clipPath
       clipPathUnits="userSpaceOnUse"
       id="clipPath10">
      <path
         d="M 0,660 H 660 V 0 H 0 Z"
         transform="translate(-167.2993,-159.4609)"
         id="path10" />
    </clipPath>
    <clipPath
       clipPathUnits="userSpaceOnUse"
       id="clipPath12">
      <path
         d="M 0,660 H 660 V 0 H 0 Z"
         transform="translate(-407.41991,-338.40141)"
         id="path12" />
    </clipPath>
    <clipPath
       clipPathUnits="userSpaceOnUse"
       id="clipPath14">
      <path
         d="M 0,660 H 660 V 0 H 0 Z"
         transform="translate(-221.81251,-346.71971)"
         id="path14" />
    </clipPath>
    <clipPath
       clipPathUnits="userSpaceOnUse"
       id="clipPath16">
      <path
         d="M 0,660 H 660 V 0 H 0 Z"
         transform="translate(-400.56641,-335.35011)"
         id="path16" />
    </clipPath>
    <clipPath
       clipPathUnits="userSpaceOnUse"
       id="clipPath18">
      <path
         d="M 0,660 H 660 V 0 H 0 Z"
         transform="translate(-301.14501,-216.15141)"
         id="path18" />
    </clipPath>
    <clipPath
       clipPathUnits="userSpaceOnUse"
       id="clipPath20">
      <path
         d="M 0,660 H 660 V 0 H 0 Z"
         transform="translate(-400.56641,-335.35011)"
         id="path20" />
    </clipPath>
    <clipPath
       clipPathUnits="userSpaceOnUse"
       id="clipPath22">
      <path
         d="M 0,660 H 660 V 0 H 0 Z"
         transform="translate(-213.93651,-210.71971)"
         id="path22" />
    </clipPath>
    <clipPath
       clipPathUnits="userSpaceOnUse"
       id="clipPath24">
      <path
         d="M 0,660 H 660 V 0 H 0 Z"
         transform="translate(-215.18511,-193.48731)"
         id="path24" />
    </clipPath>
    <clipPath
       clipPathUnits="userSpaceOnUse"
       id="clipPath26">
      <path
         d="M 0,660 H 660 V 0 H 0 Z"
         transform="translate(-170.14401,-153.291)"
         id="path26" />
    </clipPath>
    <clipPath
       clipPathUnits="userSpaceOnUse"
       id="clipPath28">
      <path
         d="M 0,660 H 660 V 0 H 0 Z"
         transform="translate(-170.14401,-153.291)"
         id="path28" />
    </clipPath>
    <clipPath
       clipPathUnits="userSpaceOnUse"
       id="clipPath30">
      <path
         d="M 0,660 H 660 V 0 H 0 Z"
         transform="translate(-410.26371,-332.23141)"
         id="path30" />
    </clipPath>
    <clipPath
       clipPathUnits="userSpaceOnUse"
       id="clipPath32">
      <path
         d="M 0,660 H 660 V 0 H 0 Z"
         transform="translate(-224.6572,-340.54981)"
         id="path32" />
    </clipPath>
    <clipPath
       clipPathUnits="userSpaceOnUse"
       id="clipPath34">
      <path
         d="M 0,660 H 660 V 0 H 0 Z"
         transform="translate(-403.41021,-329.17921)"
         id="path34" />
    </clipPath>
    <clipPath
       clipPathUnits="userSpaceOnUse"
       id="clipPath36">
      <path
         d="M 0,660 H 660 V 0 H 0 Z"
         transform="translate(-303.98931,-209.98141)"
         id="path36" />
    </clipPath>
    <clipPath
       clipPathUnits="userSpaceOnUse"
       id="clipPath38">
      <path
         d="M 0,660 H 660 V 0 H 0 Z"
         transform="translate(-403.41021,-329.17921)"
         id="path38" />
    </clipPath>
    <clipPath
       clipPathUnits="userSpaceOnUse"
       id="clipPath40">
      <path
         d="M 0,660 H 660 V 0 H 0 Z"
         transform="translate(-357.34081,-326.97271)"
         id="path40" />
    </clipPath>
    <clipPath
       clipPathUnits="userSpaceOnUse"
       id="clipPath42">
      <path
         d="M 0,660 H 660 V 0 H 0 Z"
         transform="translate(-355.52541,-326.91311)"
         id="path42" />
    </clipPath>
  </defs>
  <sodipodi:namedview
     id="namedview1"
     pagecolor="#ffffff"
     bordercolor="#000000"
     borderopacity="0.25"
     inkscape:showpageshadow="2"
     inkscape:pageopacity="0.0"
     inkscape:pagecheckerboard="0"
     inkscape:deskcolor="#d1d1d1"
     inkscape:zoom="0.67272727"
     inkscape:cx="439.25676"
     inkscape:cy="440"
     inkscape:window-width="1440"
     inkscape:window-height="830"
     inkscape:window-x="-6"
     inkscape:window-y="-6"
     inkscape:window-maximized="1"
     inkscape:current-layer="g1">
    <inkscape:page
       x="0"
       y="0"
       inkscape:label="1"
       id="page1"
       width="880"
       height="880"
       margin="0 0 1.1533333 1.1535853"
       bleed="0" />
  </sodipodi:namedview>
  <g
     id="g1"
     inkscape:groupmode="layer"
     inkscape:label="1">
    <g
       id="group-MC0">
      <path
         id="path2"
         d="M 0.865,0 H 660 V 659.135 H 0.865 Z"
         style="fill:#2f2825;fill-opacity:1;fill-rule:nonzero;stroke:none"
         transform="matrix(1.3333333,0,0,-1.3333333,0,880)" />
      <path
         id="path3"
         d="M 0,0 15.904,-1.768 9.517,18.233 91.888,-6.024 88.938,-23.421 c -0.147,-0.869 -0.374,-1.75 -0.677,-2.638 -1.409,-4.131 -4.279,-7.291 -8.023,-9.197 -0.454,-0.231 -0.917,-0.441 -1.394,-0.635 L 63.406,-43.909 34.519,-36.618 8.098,-20.175 Z M 22.812,5.259 26.386,-5.93 c 0.895,-2.8 2.502,-5.349 4.633,-7.457 2.179,-2.154 4.877,-3.842 7.902,-4.872 l 27.825,-9.478 c 0.791,-0.27 1.616,-0.476 2.464,-0.618 l -0.535,7.071 11.593,-1.037 -0.055,-0.305 c 0.046,0.202 0.088,0.417 0.128,0.646 l 1.664,9.809 z"
         style="fill:#ffffff;fill-opacity:1;fill-rule:evenodd;stroke:none"
         transform="matrix(1.3333333,0,0,-1.3333333,281.45573,590.8112)"
         clip-path="url(#clipPath4)" />
      <path
         id="path5"
         d="M 0,0 -8.562,26.816 73.807,2.558 70.858,-14.839 c -0.147,-0.868 -0.375,-1.752 -0.677,-2.638 -1.408,-4.132 -4.279,-7.293 -8.023,-9.198 -3.568,-1.813 -7.909,-2.468 -12.467,-1.695 -1.217,0.206 -2.494,0.534 -3.82,0.984 l -27.825,9.479 c -4.328,1.473 -8.163,3.861 -11.234,6.899 C 3.692,-7.922 1.33,-4.163 0,0 M 4.734,13.841 8.307,2.652 c 0.894,-2.801 2.501,-5.351 4.632,-7.457 2.179,-2.156 4.878,-3.842 7.903,-4.874 l 27.826,-9.478 c 0.79,-0.27 1.614,-0.473 2.463,-0.618 2.683,-0.455 5.145,-0.117 7.082,0.871 1.761,0.893 3.099,2.347 3.739,4.225 0.123,0.36 0.227,0.787 0.311,1.282 l 1.662,9.806 z"
         style="fill:#ffffff;fill-opacity:1;fill-rule:evenodd;stroke:none"
         transform="matrix(1.3333333,0,0,-1.3333333,283.11973,613.7904)"
         clip-path="url(#clipPath6)" />
      <path
         id="path7"
         d="m 0,0 c -18.764,-8.355 -45.957,11.783 -60.739,44.982 -14.78,33.198 -11.552,66.881 7.211,75.235 6.555,2.92 11.748,1.956 17.991,0.572 L 14.794,109.636 77.89,249.715 164.73,145.371 184.17,11.021 37.85,57.855 12.655,13.332 C 9.438,7.646 6.716,2.991 0,0"
         style="fill:#ffffff;fill-opacity:1;fill-rule:evenodd;stroke:none"
         transform="matrix(1.3333333,0,0,-1.3333333,223.06573,667.38547)"
         clip-path="url(#clipPath8)" />
      <path
         id="path9"
         d="m 0,0 c -18.764,-8.355 -45.957,11.783 -60.739,44.982 7.872,-17.678 29.463,-25.234 48.227,-16.879 6.716,2.991 10.035,6.302 13.992,10.329 L 32.461,69.959 97.285,68.352 C 94.648,73.355 92.139,78.517 89.772,83.83 62.341,145.441 62.869,207.8 88.134,237.407 L 164.73,145.371 184.17,11.021 37.85,57.855 12.655,13.332 C 9.438,7.646 6.716,2.991 0,0"
         style="fill:#ffffff;fill-opacity:1;fill-rule:evenodd;stroke:none"
         transform="matrix(1.3333333,0,0,-1.3333333,223.06573,667.38547)"
         clip-path="url(#clipPath10)" />
      <path
         id="path11"
         d="m 0,0 c 32.801,-73.665 25.636,-148.412 -16.002,-166.95 -41.635,-18.541 -101.977,26.148 -134.778,99.814 -32.8,73.666 -25.637,148.412 16,166.952 C -93.145,118.354 -32.798,73.665 0,0"
         style="fill:#ffffff;fill-opacity:1;fill-rule:evenodd;stroke:none"
         transform="matrix(1.3333333,0,0,-1.3333333,543.22653,428.79813)"
         clip-path="url(#clipPath12)" />
      <path
         id="path13"
         d="m 0,0 -36.967,-83.613 -56.877,6.619 c -10.003,-4.28 -10.057,-27.078 -6.561,-37.373 l 69.119,16.451 z"
         style="fill:#ffffff;fill-opacity:1;fill-rule:evenodd;stroke:none"
         transform="matrix(1.3333333,0,0,-1.3333333,295.75,417.70707)"
         clip-path="url(#clipPath14)" />
      <path
         id="path15"
         d="m 0,0 c 29.815,-66.968 23.303,-134.919 -14.548,-151.772 -37.85,-16.854 -92.707,23.771 -122.524,90.74 C -166.89,5.936 -160.377,73.887 -122.526,90.74 -84.676,107.593 -29.819,66.967 0,0"
         style="fill:#ffffff;fill-opacity:1;fill-rule:evenodd;stroke:none"
         transform="matrix(1.3333333,0,0,-1.3333333,534.08853,432.86653)"
         clip-path="url(#clipPath16)" />
      <path
         id="path17"
         d="m 0,0 c -14.354,15.488 -27.465,35.288 -37.651,58.167 -10.186,22.878 -16.13,45.869 -18.036,66.899 18.743,-1.694 40.681,-21.674 53.739,-51.001 C 11.111,44.737 11.279,15.061 0,0"
         style="fill:#ffffff;fill-opacity:1;fill-rule:evenodd;stroke:none"
         transform="matrix(1.3333333,0,0,-1.3333333,401.52667,591.79813)"
         clip-path="url(#clipPath18)" />
      <path
         id="path19"
         d="m 0,0 c 3.543,-7.96 6.567,-15.932 9.092,-23.833 -35.151,48.216 -95.709,68.732 -146.913,45.933 -6.316,-2.813 -12.232,-6.178 -17.739,-10.015 -2.016,37.686 9.399,68.131 33.034,78.655 C -84.676,107.594 -29.819,66.967 0,0"
         style="fill:#ffffff;fill-opacity:1;fill-rule:evenodd;stroke:none"
         transform="matrix(1.3333333,0,0,-1.3333333,534.08853,432.86653)"
         clip-path="url(#clipPath20)" />
      <path
         id="path21"
         d="m 0,0 15.904,-1.765 -6.386,20 82.371,-24.257 -2.951,-17.395 c -0.147,-0.87 -0.374,-1.754 -0.678,-2.64 -1.407,-4.133 -4.276,-7.293 -8.023,-9.196 -0.452,-0.229 -0.917,-0.442 -1.392,-0.634 l -15.44,-8.018 -28.886,7.289 -26.421,16.443 z m 22.813,5.263 3.574,-11.191 c 0.894,-2.802 2.501,-5.349 4.632,-7.457 2.179,-2.154 4.878,-3.844 7.904,-4.874 l 27.827,-9.478 c 0.786,-0.268 1.613,-0.472 2.461,-0.617 l -0.535,7.07 11.591,-1.034 -0.055,-0.303 c 0.046,0.197 0.093,0.414 0.131,0.644 l 1.661,9.806 z"
         style="fill:#912e1d;fill-opacity:1;fill-rule:evenodd;stroke:none"
         transform="matrix(1.3333333,0,0,-1.3333333,285.24867,599.0404)"
         clip-path="url(#clipPath22)" />
      <path
         id="path23"
         d="M 0,0 -8.562,26.816 73.81,2.558 70.859,-14.838 c -0.148,-0.871 -0.377,-1.753 -0.678,-2.638 -1.407,-4.133 -4.278,-7.292 -8.025,-9.197 -3.566,-1.817 -7.908,-2.47 -12.464,-1.697 -1.217,0.206 -2.494,0.532 -3.821,0.984 l -27.826,9.477 c -4.327,1.476 -8.163,3.866 -11.233,6.901 C 3.692,-7.922 1.329,-4.163 0,0 M 4.734,13.842 8.307,2.65 c 0.895,-2.799 2.502,-5.348 4.633,-7.455 2.178,-2.153 4.878,-3.842 7.903,-4.874 l 27.825,-9.478 c 0.789,-0.267 1.615,-0.473 2.463,-0.616 2.683,-0.454 5.145,-0.118 7.082,0.867 1.761,0.895 3.098,2.347 3.737,4.227 0.124,0.361 0.227,0.787 0.312,1.28 l 1.663,9.808 z"
         style="fill:#c23c21;fill-opacity:1;fill-rule:evenodd;stroke:none"
         transform="matrix(1.3333333,0,0,-1.3333333,286.91347,622.01693)"
         clip-path="url(#clipPath24)" />
      <path
         id="path25"
         d="m 0,0 c -18.763,-8.355 -45.956,11.784 -60.738,44.982 -14.781,33.196 -11.553,66.882 7.212,75.237 6.554,2.918 11.747,1.952 17.989,0.568 L 14.794,109.637 77.891,249.715 164.731,145.373 184.17,11.02 37.85,57.854 12.655,13.33 C 9.438,7.646 6.717,2.989 0,0"
         style="fill:#e9541e;fill-opacity:1;fill-rule:evenodd;stroke:none"
         transform="matrix(1.3333333,0,0,-1.3333333,226.85867,675.612)"
         clip-path="url(#clipPath26)" />
      <path
         id="path27"
         d="m 0,0 c -18.763,-8.355 -45.956,11.784 -60.738,44.982 7.871,-17.676 29.462,-25.234 48.226,-16.88 6.717,2.991 10.036,6.301 13.992,10.328 L 32.461,69.959 97.286,68.354 C 94.65,73.353 92.14,78.517 89.773,83.83 62.342,145.44 62.87,207.799 88.134,237.407 L 164.731,145.373 184.17,11.02 37.85,57.854 12.655,13.33 C 9.438,7.646 6.717,2.989 0,0"
         style="fill:#d64520;fill-opacity:1;fill-rule:evenodd;stroke:none"
         transform="matrix(1.3333333,0,0,-1.3333333,226.85867,675.612)"
         clip-path="url(#clipPath28)" />
      <path
         id="path29"
         d="m 0,0 c 32.801,-73.665 25.639,-148.412 -15.999,-166.952 -41.638,-18.537 -101.979,26.15 -134.78,99.816 -32.8,73.666 -25.636,148.412 16.001,166.951 C -93.14,118.354 -32.798,73.665 0,0"
         style="fill:#f6824f;fill-opacity:1;fill-rule:evenodd;stroke:none"
         transform="matrix(1.3333333,0,0,-1.3333333,547.01827,437.0248)"
         clip-path="url(#clipPath30)" />
      <path
         id="path31"
         d="m 0,0 -36.966,-83.613 -56.878,6.62 c -10.001,-4.283 -10.056,-27.081 -6.56,-37.374 l 69.118,16.452 z"
         style="fill:#f6824f;fill-opacity:1;fill-rule:evenodd;stroke:none"
         transform="matrix(1.3333333,0,0,-1.3333333,299.54293,425.9336)"
         clip-path="url(#clipPath32)" />
      <path
         id="path33"
         d="m 0,0 c 29.818,-66.967 23.306,-134.918 -14.546,-151.771 -37.851,-16.853 -92.709,23.772 -122.525,90.738 -29.818,66.969 -23.305,134.92 14.545,151.773 C -84.675,107.593 -29.817,66.968 0,0"
         style="fill:#d64520;fill-opacity:1;fill-rule:evenodd;stroke:none"
         transform="matrix(1.3333333,0,0,-1.3333333,537.88027,441.0944)"
         clip-path="url(#clipPath34)" />
      <path
         id="path35"
         d="m 0,0 c -14.354,15.488 -27.464,35.289 -37.65,58.165 -10.187,22.878 -16.13,45.869 -18.036,66.901 18.743,-1.694 40.683,-21.675 53.74,-51.003 C 11.111,44.735 11.283,15.063 0,0"
         style="fill:#912e1d;fill-opacity:1;fill-rule:evenodd;stroke:none"
         transform="matrix(1.3333333,0,0,-1.3333333,405.31907,600.0248)"
         clip-path="url(#clipPath36)" />
      <path
         id="path37"
         d="m 0,0 c 3.543,-7.96 6.567,-15.933 9.094,-23.83 -35.153,48.213 -95.709,68.729 -146.914,45.931 -6.316,-2.812 -12.231,-6.178 -17.737,-10.015 -2.016,37.687 9.397,68.131 33.031,78.654 C -84.675,107.594 -29.817,66.968 0,0"
         style="fill:#c23c21;fill-opacity:1;fill-rule:evenodd;stroke:none"
         transform="matrix(1.3333333,0,0,-1.3333333,537.88027,441.0944)"
         clip-path="url(#clipPath38)" />
      <path
         id="path39"
         d="m 0,0 c 12.132,0 21.968,-7.868 21.968,-17.572 0,-9.705 -9.836,-17.573 -21.968,-17.573 -12.131,0 -21.967,7.868 -21.967,17.573 C -21.967,-7.868 -12.131,0 0,0 m 67.153,42.991 c 19.238,0 34.833,-11.38 34.833,-25.418 0,-14.038 -15.595,-25.418 -34.833,-25.418 -19.236,0 -34.832,11.38 -34.832,25.418 0,14.038 15.596,25.418 34.832,25.418 m 43.304,179.178 c 61.698,0 111.713,-36.809 111.713,-82.215 0,-45.406 -50.015,-82.215 -111.713,-82.215 -61.696,0 -111.713,36.809 -111.713,82.215 0,45.406 50.017,82.215 111.713,82.215"
         style="fill:#d7c9c4;fill-opacity:1;fill-rule:evenodd;stroke:none"
         transform="matrix(1.3333333,0,0,-1.3333333,476.4544,444.0364)"
         clip-path="url(#clipPath40)" />
      <path
         id="path41"
         d="m 0,0 c 3.917,-3.175 6.334,-7.533 6.334,-12.344 0,-9.216 -8.868,-16.776 -20.149,-17.511 -3.917,3.171 -6.336,7.53 -6.336,12.342 0,9.215 8.87,16.774 20.151,17.513 m 72.858,42.892 c 8.21,-4.65 13.495,-11.92 13.495,-20.09 0,-14.038 -15.594,-25.418 -34.832,-25.418 -1.314,0 -2.611,0.055 -3.888,0.159 -8.212,4.65 -13.496,11.918 -13.496,20.089 0,14.038 15.595,25.419 34.832,25.419 1.314,0 2.613,-0.056 3.889,-0.159 m 39.414,179.337 c 11.42,0 22.441,-1.265 32.818,-3.608 36.45,-13.54 61.448,-41.337 61.448,-73.437 0,-45.408 -50.015,-82.216 -111.713,-82.216 -11.42,0 -22.438,1.264 -32.814,3.607 C 25.56,80.115 0.56,107.913 0.56,140.014 c 0,45.406 50.016,82.215 111.712,82.215"
         style="fill:#ffffff;fill-opacity:1;fill-rule:evenodd;stroke:none"
         transform="matrix(1.3333333,0,0,-1.3333333,474.03387,444.11587)"
         clip-path="url(#clipPath42)" />
    </g>
  </g>
</svg>
