<?xml version="1.0" encoding="UTF-8" standalone="no"?>
<!-- Created with Inkscape (http://www.inkscape.org/) -->

<svg
   version="1.1"
   id="svg1"
   width="880"
   height="880"
   viewBox="0 0 880 880"
   sodipodi:docname="cabin-in-the-night.svg"
   inkscape:version="1.3.2 (091e20e, 2023-11-25, custom)"
   xmlns:inkscape="http://www.inkscape.org/namespaces/inkscape"
   xmlns:sodipodi="http://sodipodi.sourceforge.net/DTD/sodipodi-0.dtd"
   xmlns="http://www.w3.org/2000/svg"
   xmlns:svg="http://www.w3.org/2000/svg">
  <defs
     id="defs1">
    <clipPath
       clipPathUnits="userSpaceOnUse"
       id="clipPath4">
      <path
         d="M 0,660 H 660 V 0 H 0 Z"
         transform="translate(-655.74412,-524.15581)"
         id="path4" />
    </clipPath>
    <clipPath
       clipPathUnits="userSpaceOnUse"
       id="clipPath6">
      <path
         d="M 0,660 H 660 V 0 H 0 Z"
         transform="translate(-174.2725,-272.26761)"
         id="path6" />
    </clipPath>
    <clipPath
       clipPathUnits="userSpaceOnUse"
       id="clipPath8">
      <path
         d="M 0,660 H 660 V 0 H 0 Z"
         transform="translate(-659.89942,-517.20311)"
         id="path8" />
    </clipPath>
    <clipPath
       clipPathUnits="userSpaceOnUse"
       id="clipPath10">
      <path
         d="M 0,660 H 660 V 0 H 0 Z"
         transform="translate(-382.35551,-327.10161)"
         id="path10" />
    </clipPath>
    <clipPath
       clipPathUnits="userSpaceOnUse"
       id="clipPath12">
      <path
         d="M 0,660 H 660 V 0 H 0 Z"
         transform="translate(-343.59081,-302.22561)"
         id="path12" />
    </clipPath>
    <clipPath
       clipPathUnits="userSpaceOnUse"
       id="clipPath14">
      <path
         d="M 0,660 H 660 V 0 H 0 Z"
         id="path14" />
    </clipPath>
    <clipPath
       clipPathUnits="userSpaceOnUse"
       id="clipPath16">
      <path
         d="M 0,660 H 660 V 0 H 0 Z"
         id="path16" />
    </clipPath>
    <clipPath
       clipPathUnits="userSpaceOnUse"
       id="clipPath18">
      <path
         d="M 0,660 H 660 V 0 H 0 Z"
         id="path18" />
    </clipPath>
    <clipPath
       clipPathUnits="userSpaceOnUse"
       id="clipPath20">
      <path
         d="M 0,660 H 660 V 0 H 0 Z"
         id="path20" />
    </clipPath>
    <clipPath
       clipPathUnits="userSpaceOnUse"
       id="clipPath22">
      <path
         d="M 0,660 H 660 V 0 H 0 Z"
         id="path22" />
    </clipPath>
    <clipPath
       clipPathUnits="userSpaceOnUse"
       id="clipPath24">
      <path
         d="M 0,660 H 660 V 0 H 0 Z"
         id="path24" />
    </clipPath>
    <clipPath
       clipPathUnits="userSpaceOnUse"
       id="clipPath26">
      <path
         d="M 0,660 H 660 V 0 H 0 Z"
         id="path26" />
    </clipPath>
    <clipPath
       clipPathUnits="userSpaceOnUse"
       id="clipPath28">
      <path
         d="M 0,660 H 660 V 0 H 0 Z"
         id="path28" />
    </clipPath>
    <clipPath
       clipPathUnits="userSpaceOnUse"
       id="clipPath30">
      <path
         d="M 0,660 H 660 V 0 H 0 Z"
         id="path30" />
    </clipPath>
    <clipPath
       clipPathUnits="userSpaceOnUse"
       id="clipPath32">
      <path
         d="M 0,660 H 660 V 0 H 0 Z"
         id="path32" />
    </clipPath>
    <clipPath
       clipPathUnits="userSpaceOnUse"
       id="clipPath34">
      <path
         d="M 0,660 H 660 V 0 H 0 Z"
         transform="translate(-461.79391,-332.88481)"
         id="path34" />
    </clipPath>
    <clipPath
       clipPathUnits="userSpaceOnUse"
       id="clipPath36">
      <path
         d="M 0,660 H 660 V 0 H 0 Z"
         transform="translate(-452.05081,-332.88481)"
         id="path36" />
    </clipPath>
    <clipPath
       clipPathUnits="userSpaceOnUse"
       id="clipPath38">
      <path
         d="M 0,660 H 660 V 0 H 0 Z"
         transform="translate(-463.19921,-310.69921)"
         id="path38" />
    </clipPath>
    <clipPath
       clipPathUnits="userSpaceOnUse"
       id="clipPath40">
      <path
         d="M 0,660 H 660 V 0 H 0 Z"
         transform="translate(-442.08111,-551.06011)"
         id="path40" />
    </clipPath>
    <clipPath
       clipPathUnits="userSpaceOnUse"
       id="clipPath42">
      <path
         d="M 0,660 H 660 V 0 H 0 Z"
         transform="translate(-59.236801,-336.09181)"
         id="path42" />
    </clipPath>
    <clipPath
       clipPathUnits="userSpaceOnUse"
       id="clipPath44">
      <path
         d="M 0,660 H 660 V 0 H 0 Z"
         transform="translate(-99.895,-321.11331)"
         id="path44" />
    </clipPath>
    <clipPath
       clipPathUnits="userSpaceOnUse"
       id="clipPath46">
      <path
         d="M 0,660 H 660 V 0 H 0 Z"
         transform="translate(-122.8984,-338.76761)"
         id="path46" />
    </clipPath>
    <clipPath
       clipPathUnits="userSpaceOnUse"
       id="clipPath48">
      <path
         d="M 0,660 H 660 V 0 H 0 Z"
         transform="translate(-179.60451,-299.17971)"
         id="path48" />
    </clipPath>
    <clipPath
       clipPathUnits="userSpaceOnUse"
       id="clipPath50">
      <path
         d="M 0,660 H 660 V 0 H 0 Z"
         transform="translate(-590.45902,-345.18651)"
         id="path50" />
    </clipPath>
    <clipPath
       clipPathUnits="userSpaceOnUse"
       id="clipPath52">
      <path
         d="M 0,660 H 660 V 0 H 0 Z"
         transform="translate(-613.46392,-316.83301)"
         id="path52" />
    </clipPath>
  </defs>
  <sodipodi:namedview
     id="namedview1"
     pagecolor="#ffffff"
     bordercolor="#000000"
     borderopacity="0.25"
     inkscape:showpageshadow="2"
     inkscape:pageopacity="0.0"
     inkscape:pagecheckerboard="0"
     inkscape:deskcolor="#d1d1d1"
     inkscape:zoom="0.67272727"
     inkscape:cx="439.25676"
     inkscape:cy="440"
     inkscape:window-width="1440"
     inkscape:window-height="830"
     inkscape:window-x="-6"
     inkscape:window-y="-6"
     inkscape:window-maximized="1"
     inkscape:current-layer="g1">
    <inkscape:page
       x="0"
       y="0"
       inkscape:label="1"
       id="page1"
       width="880"
       height="880"
       margin="1.3333334 0.13466667 1.3333334 2.5325067"
       bleed="0" />
  </sodipodi:namedview>
  <g
     id="g1"
     inkscape:groupmode="layer"
     inkscape:label="1">
    <g
       id="group-MC0">
      <path
         id="path2"
         d="m 1.899,1 h 658 v 658 h -658 z"
         style="fill:#524f41;fill-opacity:1;fill-rule:nonzero;stroke:none"
         transform="matrix(1.3333333,0,0,-1.3333333,0,880)" />
      <path
         id="path3"
         d="m 0,0 4.155,-0.051 v -368.884 c -17.007,1.192 -37.185,5.867 -51.485,13.769 -11.461,-38.195 -45.532,-65.899 -85.781,-65.899 -49.654,0 -89.906,42.158 -89.906,94.164 0,8.395 1.054,16.528 3.022,24.273 -3.645,1.222 -7.077,2.943 -10.224,5.085 -0.338,-0.011 -0.676,-0.02 -1.017,-0.02 -9.897,0 -18.635,5.185 -23.88,13.102 -6.893,-6.169 -15.837,-9.894 -25.613,-9.894 -7.929,0 -15.309,2.452 -21.492,6.666 -4.611,-6.73 -10.733,-12.247 -17.847,-16.005 -1.928,-40.001 -33.504,-71.813 -72.175,-71.813 -19.357,0 -36.937,7.973 -49.911,20.955 -13.163,-28.482 -41.02,-48.127 -73.258,-48.127 -26.628,0 -50.267,13.402 -65.105,34.117 -12.61,-6.265 -29.362,-9.773 -41.594,-9.773 -12.232,0 -22.99,2.528 -31.734,5.234 v 320.89 l 4.156,-0.756 c 10.538,-6.954 17.541,-19.248 17.541,-33.257 0,-5.13 -0.94,-10.032 -2.649,-14.524 1.135,0.092 2.282,0.14 3.44,0.14 16.269,0 30.478,-9.227 38.124,-22.956 5.926,4.685 13.303,7.464 21.3,7.464 19.545,0 35.39,-16.595 35.39,-37.066 0,-5.858 -1.299,-11.396 -3.61,-16.322 12.256,-2.979 21.689,-13.661 23.403,-26.911 4.686,2.183 9.874,3.399 15.333,3.399 18.096,0 33.216,-13.33 36.904,-31.124 5.218,2.915 11.175,4.569 17.501,4.569 2.189,0 4.333,-0.198 6.418,-0.578 2.291,16.593 15.927,29.346 32.407,29.346 2.957,0 5.822,-0.413 8.548,-1.184 1.17,14.913 13.094,26.633 27.635,26.633 5.903,0 11.376,-1.934 15.873,-5.228 6.575,16.087 21.825,27.357 39.589,27.357 9.101,0 17.538,-2.959 24.491,-8.006 8.998,20.402 28.704,34.561 51.572,34.561 28.13,0 51.478,-21.425 55.992,-49.544 7.119,4.41 15.426,6.945 24.296,6.945 9.378,0 18.125,-2.83 25.506,-7.717 11.337,15.727 29.044,26.132 49.102,27.015 0.613,4.205 1.921,8.17 3.797,11.761 -4.013,7.506 -6.305,16.158 -6.305,25.372 0,28.721 22.232,52.005 49.653,52.005 2.174,0 4.315,-0.148 6.413,-0.432 -2.409,4.848 -3.772,10.356 -3.772,16.199 0,19.402 15.017,35.13 33.542,35.13 C -1.498,0.08 -0.745,0.051 0,0"
         style="fill:#dfddd0;fill-opacity:1;fill-rule:evenodd;stroke:none"
         transform="matrix(1.3333333,0,0,-1.3333333,874.32547,181.1256)"
         clip-path="url(#clipPath4)" />
      <path
         id="path5"
         d="m 0,0 c 57.752,0 104.854,47.102 104.854,104.853 0,57.751 -47.102,104.854 -104.854,104.854 -57.751,0 -104.854,-47.103 -104.854,-104.854 C -104.854,47.102 -57.751,0 0,0"
         style="fill:#dfddd0;fill-opacity:1;fill-rule:evenodd;stroke:none"
         transform="matrix(1.3333333,0,0,-1.3333333,232.36333,516.97653)"
         clip-path="url(#clipPath6)" />
      <path
         id="path7"
         d="m 0,0 v -357.007 c -17.224,1.153 -33.451,5.929 -47.936,13.573 -11.607,-36.934 -46.114,-63.723 -86.879,-63.723 -50.287,0 -91.054,40.765 -91.054,91.055 0,8.115 1.067,15.982 3.059,23.47 -3.691,1.181 -7.167,2.846 -10.354,4.918 -0.341,-0.012 -0.685,-0.02 -1.029,-0.02 -10.024,0 -18.873,5.012 -24.187,12.667 -6.981,-5.963 -16.039,-9.565 -25.94,-9.565 -8.03,0 -15.504,2.37 -21.767,6.448 -4.67,-6.51 -10.869,-11.846 -18.075,-15.479 -1.952,-38.681 -33.934,-69.44 -73.098,-69.44 -19.606,0 -37.41,7.71 -50.55,20.262 -13.332,-27.542 -41.544,-46.538 -74.195,-46.538 -26.969,0 -50.909,12.96 -65.938,32.99 -12.771,-6.056 -27.052,-9.449 -42.125,-9.449 -9.704,0 -19.077,1.41 -27.932,4.027 v 310.594 c 10.673,-6.724 17.766,-18.613 17.766,-32.159 0,-4.961 -0.952,-9.7 -2.682,-14.044 1.149,0.089 2.311,0.134 3.483,0.134 16.477,0 30.868,-8.921 38.612,-22.197 6.002,4.531 13.472,7.218 21.572,7.218 19.795,0 35.843,-16.047 35.843,-35.842 0,-5.665 -1.316,-11.02 -3.656,-15.783 12.412,-2.88 21.966,-13.209 23.702,-26.022 4.746,2.112 10,3.287 15.53,3.287 18.327,0 33.639,-12.89 37.376,-30.098 5.285,2.82 11.318,4.42 17.725,4.42 2.216,0 4.388,-0.193 6.499,-0.56 2.321,16.048 16.13,28.378 32.822,28.378 2.995,0 5.896,-0.4 8.657,-1.144 1.186,14.419 13.262,25.753 27.988,25.753 5.979,0 11.52,-1.871 16.076,-5.056 6.659,15.555 22.106,26.454 40.096,26.454 9.216,0 17.763,-2.863 24.803,-7.743 9.115,19.73 29.073,33.421 52.232,33.421 28.491,0 52.137,-20.718 56.708,-47.908 7.212,4.265 15.623,6.715 24.607,6.715 9.5,0 18.356,-2.737 25.833,-7.462 11.482,15.208 29.416,25.269 49.731,26.123 0.62,4.065 1.944,7.899 3.844,11.374 -4.063,7.257 -6.385,15.623 -6.385,24.532 0,27.773 22.516,50.287 50.288,50.287 2.202,0 4.37,-0.142 6.495,-0.416 -2.439,4.687 -3.82,10.013 -3.82,15.663 0,18.762 15.209,33.971 33.97,33.971 C -1.518,0.079 -0.756,0.05 0,0"
         style="fill:#86836e;fill-opacity:1;fill-rule:evenodd;stroke:none"
         transform="matrix(1.3333333,0,0,-1.3333333,879.86587,190.39587)"
         clip-path="url(#clipPath8)" />
      <path
         id="path9"
         d="m 0,0 h 133.519 l 38.764,-24.876 V -78.909 L 0,-54.033 Z"
         style="fill:#545242;fill-opacity:1;fill-rule:evenodd;stroke:none"
         transform="matrix(1.3333333,0,0,-1.3333333,509.80733,443.86453)"
         clip-path="url(#clipPath10)" />
      <path
         id="path11"
         d="M 0,0 38.765,24.876 77.526,0 V -54.033 H 0 Z"
         style="fill:#676453;fill-opacity:1;fill-rule:evenodd;stroke:none"
         transform="matrix(1.3333333,0,0,-1.3333333,458.12107,477.03253)"
         clip-path="url(#clipPath12)" />
      <path
         id="path13"
         d="m 421.119,248.192 h 133.52 v 54.033 h -133.52 z"
         style="fill:#2f2c26;fill-opacity:1;fill-rule:evenodd;stroke:none"
         transform="matrix(1.3333333,0,0,-1.3333333,0,880)"
         clip-path="url(#clipPath14)" />
      <path
         id="path15"
         d="m 1.899,1 h 658 v 248.22 h -658 z"
         style="fill:#2f2c26;fill-opacity:1;fill-rule:evenodd;stroke:none"
         transform="matrix(1.3333333,0,0,-1.3333333,0,880)"
         clip-path="url(#clipPath16)" />
      <path
         id="path17"
         d="m 351.66,258.158 h 23.806 v 35.977 H 351.66 Z"
         style="fill:#888358;fill-opacity:1;fill-rule:evenodd;stroke:none"
         transform="matrix(1.3333333,0,0,-1.3333333,0,880)"
         clip-path="url(#clipPath18)" />
      <path
         id="path19"
         d="m 353.935,260.431 h 19.259 v 31.43 h -19.259 z"
         style="fill:#fbca07;fill-opacity:1;fill-rule:evenodd;stroke:none"
         transform="matrix(1.3333333,0,0,-1.3333333,0,880)"
         clip-path="url(#clipPath20)" />
      <path
         id="path21"
         d="m 352.996,279.725 h 21.134 v 2.54 h -21.134 z"
         style="fill:#888358;fill-opacity:1;fill-rule:evenodd;stroke:none"
         transform="matrix(1.3333333,0,0,-1.3333333,0,880)"
         clip-path="url(#clipPath22)" />
      <path
         id="path23"
         d="m 362.294,281.397 h 2.539 V 259.06 h -2.539 z"
         style="fill:#888358;fill-opacity:1;fill-rule:evenodd;stroke:none"
         transform="matrix(1.3333333,0,0,-1.3333333,0,880)"
         clip-path="url(#clipPath24)" />
      <path
         id="path25"
         d="m 389.242,258.158 h 23.806 v 35.977 h -23.806 z"
         style="fill:#888358;fill-opacity:1;fill-rule:evenodd;stroke:none"
         transform="matrix(1.3333333,0,0,-1.3333333,0,880)"
         clip-path="url(#clipPath26)" />
      <path
         id="path27"
         d="m 391.517,260.431 h 19.259 v 31.43 h -19.259 z"
         style="fill:#fbca07;fill-opacity:1;fill-rule:evenodd;stroke:none"
         transform="matrix(1.3333333,0,0,-1.3333333,0,880)"
         clip-path="url(#clipPath28)" />
      <path
         id="path29"
         d="m 390.578,279.725 h 21.134 v 2.54 h -21.134 z"
         style="fill:#888358;fill-opacity:1;fill-rule:evenodd;stroke:none"
         transform="matrix(1.3333333,0,0,-1.3333333,0,880)"
         clip-path="url(#clipPath30)" />
      <path
         id="path31"
         d="m 399.876,281.397 h 2.54 V 259.06 h -2.54 z"
         style="fill:#888358;fill-opacity:1;fill-rule:evenodd;stroke:none"
         transform="matrix(1.3333333,0,0,-1.3333333,0,880)"
         clip-path="url(#clipPath32)" />
      <path
         id="path33"
         d="M 0,0 H 15.869 V -22.186 H 1.405 Z"
         style="fill:#2f2c26;fill-opacity:1;fill-rule:evenodd;stroke:none"
         transform="matrix(1.3333333,0,0,-1.3333333,615.7252,436.1536)"
         clip-path="url(#clipPath34)" />
      <path
         id="path35"
         d="M 0,0 H 11.148 V -22.186 L 0,-15.031 Z"
         style="fill:#676453;fill-opacity:1;fill-rule:evenodd;stroke:none"
         transform="matrix(1.3333333,0,0,-1.3333333,602.7344,436.1536)"
         clip-path="url(#clipPath36)" />
      <path
         id="path37"
         d="M 0,0 28.884,-16.676 47.961,-12.264 12.04,8.476 Z"
         style="fill:#2f2c26;fill-opacity:1;fill-rule:evenodd;stroke:none"
         transform="matrix(1.3333333,0,0,-1.3333333,617.59893,465.7344)"
         clip-path="url(#clipPath38)" />
      <path
         id="path39"
         d="M 0,0 0.731,-7.754 8.485,-8.486 0.731,-9.217 0,-16.972 l -0.732,7.755 -7.754,0.731 7.754,0.732 z m -202.393,5.973 0.91,-9.649 9.65,-0.911 -9.65,-0.91 -0.91,-9.649 -0.911,9.649 -9.649,0.91 9.649,0.911 z m -176.893,-58.065 0.911,-9.65 9.648,-0.91 -9.648,-0.91 -0.911,-9.649 -0.91,9.649 -9.65,0.91 9.65,0.91 z m 13.903,102.914 0.732,-7.755 7.754,-0.731 -7.754,-0.731 -0.732,-7.755 -0.732,7.755 -7.755,0.731 7.755,0.731 z m 250.962,-105.568 0.38,-4.031 4.033,-0.38 -4.033,-0.381 -0.38,-4.031 -0.38,4.031 -4.032,0.381 4.032,0.38 z m 232.232,84.112 0.379,-4.032 4.032,-0.381 -4.032,-0.38 -0.379,-4.032 -0.381,4.032 -4.032,0.38 4.032,0.381 z m -69.657,49.609 0.91,-9.649 9.65,-0.911 -9.65,-0.91 -0.91,-9.65 -0.911,9.65 -9.649,0.91 9.649,0.911 z m -133.688,-7.468 0.382,-4.031 4.031,-0.38 -4.031,-0.381 -0.382,-4.032 -0.38,4.032 -4.031,0.381 4.031,0.38 z"
         style="fill:#dfddd0;fill-opacity:1;fill-rule:evenodd;stroke:none"
         transform="matrix(1.3333333,0,0,-1.3333333,589.44147,145.2532)"
         clip-path="url(#clipPath40)" />
      <path
         id="path41"
         d="m 0,0 12.394,-52.36 12.393,-52.359 H 0 -24.786 l 12.393,52.359 z"
         style="fill:#2f2c26;fill-opacity:1;fill-rule:evenodd;stroke:none"
         transform="matrix(1.3333333,0,0,-1.3333333,78.9824,431.8776)"
         clip-path="url(#clipPath42)" />
      <path
         id="path43"
         d="m 0,0 12.393,-52.36 12.393,-52.36 H 0 -24.787 l 12.393,52.36 z"
         style="fill:#2f2c26;fill-opacity:1;fill-rule:evenodd;stroke:none"
         transform="matrix(1.3333333,0,0,-1.3333333,133.19333,451.84893)"
         clip-path="url(#clipPath44)" />
      <path
         id="path45"
         d="M 0,0 12.393,-52.361 24.786,-104.72 H 0 -24.787 l 12.393,52.359 z"
         style="fill:#2f2c26;fill-opacity:1;fill-rule:evenodd;stroke:none"
         transform="matrix(1.3333333,0,0,-1.3333333,163.86453,428.30987)"
         clip-path="url(#clipPath46)" />
      <path
         id="path47"
         d="m 0,0 12.393,-52.359 12.394,-52.362 H 0 -24.787 l 12.393,52.362 z"
         style="fill:#2f2c26;fill-opacity:1;fill-rule:evenodd;stroke:none"
         transform="matrix(1.3333333,0,0,-1.3333333,239.47267,481.09373)"
         clip-path="url(#clipPath48)" />
      <path
         id="path49"
         d="M 0,0 12.394,-52.361 24.788,-104.72 H 0 -24.785 l 12.393,52.359 z"
         style="fill:#2f2c26;fill-opacity:1;fill-rule:evenodd;stroke:none"
         transform="matrix(1.3333333,0,0,-1.3333333,787.27867,419.75133)"
         clip-path="url(#clipPath50)" />
      <path
         id="path51"
         d="m 0,0 12.393,-52.36 12.393,-52.36 H 0 -24.786 l 12.392,52.36 z"
         style="fill:#2f2c26;fill-opacity:1;fill-rule:evenodd;stroke:none"
         transform="matrix(1.3333333,0,0,-1.3333333,817.95187,457.556)"
         clip-path="url(#clipPath52)" />
    </g>
  </g>
</svg>
