<?xml version="1.0" encoding="UTF-8" standalone="no"?>
<!-- Created with Inkscape (http://www.inkscape.org/) -->

<svg
   version="1.1"
   id="svg1"
   width="880"
   height="880"
   viewBox="0 0 880 880"
   sodipodi:docname="winter-landscape-14.svg"
   inkscape:version="1.3.2 (091e20e, 2023-11-25, custom)"
   xmlns:inkscape="http://www.inkscape.org/namespaces/inkscape"
   xmlns:sodipodi="http://sodipodi.sourceforge.net/DTD/sodipodi-0.dtd"
   xmlns="http://www.w3.org/2000/svg"
   xmlns:svg="http://www.w3.org/2000/svg">
  <defs
     id="defs1">
    <clipPath
       clipPathUnits="userSpaceOnUse"
       id="clipPath4">
      <path
         d="M 0,660 H 660 V 0 H 0 Z"
         transform="translate(-186.08151,-660.21632)"
         id="path4" />
    </clipPath>
    <clipPath
       clipPathUnits="userSpaceOnUse"
       id="clipPath6">
      <path
         d="M 0,660 H 660 V 0 H 0 Z"
         id="path6" />
    </clipPath>
    <clipPath
       clipPathUnits="userSpaceOnUse"
       id="clipPath8">
      <path
         d="M 0,660 H 660 V 0 H 0 Z"
         transform="translate(-1.0254,-94.085905)"
         id="path8" />
    </clipPath>
    <clipPath
       clipPathUnits="userSpaceOnUse"
       id="clipPath10">
      <path
         d="M 0,660 H 660 V 0 H 0 Z"
         transform="translate(-660.00002,-301.85941)"
         id="path10" />
    </clipPath>
    <clipPath
       clipPathUnits="userSpaceOnUse"
       id="clipPath12">
      <path
         d="M 0,660 H 660 V 0 H 0 Z"
         id="path12" />
    </clipPath>
    <clipPath
       clipPathUnits="userSpaceOnUse"
       id="clipPath14">
      <path
         d="M 0,660 H 660 V 0 H 0 Z"
         transform="translate(-400.98731,-387.35011)"
         id="path14" />
    </clipPath>
    <clipPath
       clipPathUnits="userSpaceOnUse"
       id="clipPath16">
      <path
         d="M 0,660 H 660 V 0 H 0 Z"
         transform="translate(-260.03661,-387.35011)"
         id="path16" />
    </clipPath>
    <clipPath
       clipPathUnits="userSpaceOnUse"
       id="clipPath18">
      <path
         d="M 0,660 H 660 V 0 H 0 Z"
         transform="translate(-210.64401,-337.95611)"
         id="path18" />
    </clipPath>
    <clipPath
       clipPathUnits="userSpaceOnUse"
       id="clipPath20">
      <path
         d="M 0,660 H 660 V 0 H 0 Z"
         id="path20" />
    </clipPath>
    <clipPath
       clipPathUnits="userSpaceOnUse"
       id="clipPath22">
      <path
         d="M 0,660 H 660 V 0 H 0 Z"
         id="path22" />
    </clipPath>
    <clipPath
       clipPathUnits="userSpaceOnUse"
       id="clipPath24">
      <path
         d="M 0,660 H 660 V 0 H 0 Z"
         id="path24" />
    </clipPath>
    <clipPath
       clipPathUnits="userSpaceOnUse"
       id="clipPath26">
      <path
         d="M 0,660 H 660 V 0 H 0 Z"
         id="path26" />
    </clipPath>
    <clipPath
       clipPathUnits="userSpaceOnUse"
       id="clipPath28">
      <path
         d="M 0,660 H 660 V 0 H 0 Z"
         id="path28" />
    </clipPath>
    <clipPath
       clipPathUnits="userSpaceOnUse"
       id="clipPath30">
      <path
         d="M 0,660 H 660 V 0 H 0 Z"
         id="path30" />
    </clipPath>
    <clipPath
       clipPathUnits="userSpaceOnUse"
       id="clipPath32">
      <path
         d="M 0,660 H 660 V 0 H 0 Z"
         id="path32" />
    </clipPath>
    <clipPath
       clipPathUnits="userSpaceOnUse"
       id="clipPath34">
      <path
         d="M 0,660 H 660 V 0 H 0 Z"
         id="path34" />
    </clipPath>
    <clipPath
       clipPathUnits="userSpaceOnUse"
       id="clipPath36">
      <path
         d="M 0,660 H 660 V 0 H 0 Z"
         id="path36" />
    </clipPath>
    <clipPath
       clipPathUnits="userSpaceOnUse"
       id="clipPath38">
      <path
         d="M 0,660 H 660 V 0 H 0 Z"
         id="path38" />
    </clipPath>
    <clipPath
       clipPathUnits="userSpaceOnUse"
       id="clipPath40">
      <path
         d="M 0,660 H 660 V 0 H 0 Z"
         transform="translate(-418.75781,-257.84281)"
         id="path40" />
    </clipPath>
    <clipPath
       clipPathUnits="userSpaceOnUse"
       id="clipPath42">
      <path
         d="M 0,660 H 660 V 0 H 0 Z"
         transform="translate(-135.66651,-307.23631)"
         id="path42" />
    </clipPath>
    <clipPath
       clipPathUnits="userSpaceOnUse"
       id="clipPath44">
      <path
         d="M 0,660 H 660 V 0 H 0 Z"
         transform="translate(-502.33691,-350.01121)"
         id="path44" />
    </clipPath>
    <clipPath
       clipPathUnits="userSpaceOnUse"
       id="clipPath46">
      <path
         d="M 0,660 H 660 V 0 H 0 Z"
         transform="translate(-64.928201,-346.64991)"
         id="path46" />
    </clipPath>
    <clipPath
       clipPathUnits="userSpaceOnUse"
       id="clipPath48">
      <path
         d="M 0,660 H 660 V 0 H 0 Z"
         transform="translate(-622.71002,-312.07321)"
         id="path48" />
    </clipPath>
    <clipPath
       clipPathUnits="userSpaceOnUse"
       id="clipPath50">
      <path
         d="M 0,660 H 660 V 0 H 0 Z"
         id="path50" />
    </clipPath>
    <clipPath
       clipPathUnits="userSpaceOnUse"
       id="clipPath52">
      <path
         d="M 0,660 H 660 V 0 H 0 Z"
         transform="translate(-570.23441,-274.29201)"
         id="path52" />
    </clipPath>
    <clipPath
       clipPathUnits="userSpaceOnUse"
       id="clipPath54">
      <path
         d="M 0,660 H 660 V 0 H 0 Z"
         id="path54" />
    </clipPath>
    <clipPath
       clipPathUnits="userSpaceOnUse"
       id="clipPath56">
      <path
         d="M 0,660 H 660 V 0 H 0 Z"
         transform="translate(-557.86522,-266.9932)"
         id="path56" />
    </clipPath>
    <clipPath
       clipPathUnits="userSpaceOnUse"
       id="clipPath58">
      <path
         d="M 0,660 H 660 V 0 H 0 Z"
         id="path58" />
    </clipPath>
    <clipPath
       clipPathUnits="userSpaceOnUse"
       id="clipPath60">
      <path
         d="M 0,660 H 660 V 0 H 0 Z"
         transform="translate(-197.3794,-271.6777)"
         id="path60" />
    </clipPath>
  </defs>
  <sodipodi:namedview
     id="namedview1"
     pagecolor="#ffffff"
     bordercolor="#000000"
     borderopacity="0.25"
     inkscape:showpageshadow="2"
     inkscape:pageopacity="0.0"
     inkscape:pagecheckerboard="0"
     inkscape:deskcolor="#d1d1d1"
     inkscape:zoom="0.67272727"
     inkscape:cx="439.25676"
     inkscape:cy="440"
     inkscape:window-width="1440"
     inkscape:window-height="830"
     inkscape:window-x="-6"
     inkscape:window-y="-6"
     inkscape:window-maximized="1"
     inkscape:current-layer="g1">
    <inkscape:page
       x="0"
       y="0"
       inkscape:label="1"
       id="page1"
       width="880"
       height="880"
       margin="1.6535866 0 0 1.3671867"
       bleed="0" />
  </sodipodi:namedview>
  <g
     id="g1"
     inkscape:groupmode="layer"
     inkscape:label="1">
    <g
       id="group-MC0">
      <path
         id="path2"
         d="M 1.025,1.24 H 660 V 660 H 1.025 Z"
         style="fill:#a1b3c9;fill-opacity:1;fill-rule:nonzero;stroke:none"
         transform="matrix(1.3333333,0,0,-1.3333333,0,880)" />
      <path
         id="path3"
         d="M 0,0 H 239.149 C 26.642,-80.546 154.42,-79.605 201.828,-123.577 c 66.949,-62.097 -94.007,-45.945 -51.048,-98.15 4.778,-5.804 2.698,-14.989 1.462,-43.774 h -18.524 c 0,48.619 -20.197,30.779 -25.306,45.375 -20.392,58.228 138.562,44.249 -41.96,108.355 C -57.423,-67.78 -50.426,-27.677 0,0"
         style="fill:#ffffff;fill-opacity:1;fill-rule:evenodd;stroke:none"
         transform="matrix(1.3333333,0,0,-1.3333333,248.10867,-0.2884)"
         clip-path="url(#clipPath4)" />
      <path
         id="path5"
         d="m 315.583,367.611 h 32.226 v 27.106 h -32.226 z"
         style="fill:#7990a9;fill-opacity:1;fill-rule:evenodd;stroke:none"
         transform="matrix(1.3333333,0,0,-1.3333333,0,880)"
         clip-path="url(#clipPath6)" />
      <path
         id="path7"
         d="m 0,0 v 260.958 c 33.781,-17.662 65.818,-46.086 109.662,-26.939 29.522,12.89 68.151,2.583 77.497,-25.548 l -1.205,-3.393 C 156.449,141.528 152.671,7.653 84.914,-5.941 53.448,-12.258 25.014,-9.308 0,0 M 658.975,306.896 V 79.139 c -4.28,-0.143 -8.619,-0.246 -13.082,-0.272 -156.25,-0.792 -254.766,-3.946 -270.301,97.941 -5.771,37.838 11.715,48.803 45.588,79.791 68.256,62.444 116.764,-4.98 166.99,15.808 32.122,13.295 42.062,34.691 70.805,34.489"
         style="fill:#7990a9;fill-opacity:1;fill-rule:evenodd;stroke:none"
         transform="matrix(1.3333333,0,0,-1.3333333,1.3672,754.55213)"
         clip-path="url(#clipPath8)" />
      <path
         id="path9"
         d="m 0,0 v -300.619 h -658.975 v 184.465 c 16.983,9.326 36.971,20.656 43.783,41.726 51.732,160.029 212.721,29.525 399.597,116.501 C -77.822,106.196 -66.357,-25.515 0,0"
         style="fill:#576679;fill-opacity:1;fill-rule:evenodd;stroke:none"
         transform="matrix(1.3333333,0,0,-1.3333333,880,477.5208)"
         clip-path="url(#clipPath10)" />
      <path
         id="path11"
         d="M 1.025,1.24 H 660 V 257.843 H 1.025 Z"
         style="fill:#e0f1fb;fill-opacity:1;fill-rule:evenodd;stroke:none"
         transform="matrix(1.3333333,0,0,-1.3333333,0,880)"
         clip-path="url(#clipPath12)" />
      <path
         id="path13"
         d="m 0,0 v 0 l 49.394,-49.394 v -80.113 h -98.786 v 80.113 z"
         style="fill:#7990a9;fill-opacity:1;fill-rule:evenodd;stroke:none"
         transform="matrix(1.3333333,0,0,-1.3333333,534.64973,363.5332)"
         clip-path="url(#clipPath14)" />
      <path
         id="path15"
         d="M 0,0 H 140.951 L 91.559,-49.394 v -89.749 H -49.393 v 89.749 z"
         style="fill:#e0f1fb;fill-opacity:1;fill-rule:evenodd;stroke:none"
         transform="matrix(1.3333333,0,0,-1.3333333,346.71547,363.5332)"
         clip-path="url(#clipPath16)" />
      <path
         id="path17"
         d="m 0,0 h 140.952 l 49.391,49.394 H 49.393 Z"
         style="fill:#ffffff;fill-opacity:1;fill-rule:evenodd;stroke:none"
         transform="matrix(1.3333333,0,0,-1.3333333,280.85867,429.39187)"
         clip-path="url(#clipPath18)" />
      <path
         id="path19"
         d="m 383.219,257.843 h 32.078 v 64.453 h -32.078 z"
         style="fill:#463d3b;fill-opacity:1;fill-rule:evenodd;stroke:none"
         transform="matrix(1.3333333,0,0,-1.3333333,0,880)"
         clip-path="url(#clipPath20)" />
      <path
         id="path21"
         d="m 415.297,257.843 h 3.461 v 64.453 h -3.461 z"
         style="fill:#e0f1fb;fill-opacity:1;fill-rule:evenodd;stroke:none"
         transform="matrix(1.3333333,0,0,-1.3333333,0,880)"
         clip-path="url(#clipPath22)" />
      <path
         id="path23"
         d="m 248.452,274.857 h 25.299 v 48.189 h -25.299 z"
         style="fill:#463d3b;fill-opacity:1;fill-rule:evenodd;stroke:none"
         transform="matrix(1.3333333,0,0,-1.3333333,0,880)"
         clip-path="url(#clipPath24)" />
      <path
         id="path25"
         d="m 273.75,274.857 h -18.673 v 42.165 h 18.673 z"
         style="fill:#766864;fill-opacity:1;fill-rule:evenodd;stroke:none"
         transform="matrix(1.3333333,0,0,-1.3333333,0,880)"
         clip-path="url(#clipPath26)" />
      <path
         id="path27"
         d="m 247.924,274.857 h 2.71 v 48.189 h -2.71 z"
         style="fill:#b0cadb;fill-opacity:1;fill-rule:evenodd;stroke:none"
         transform="matrix(1.3333333,0,0,-1.3333333,0,880)"
         clip-path="url(#clipPath28)" />
      <path
         id="path29"
         d="m 245.179,308.586 h 31.55 v 2.182 h -31.55 z"
         style="fill:#e0f1fb;fill-opacity:1;fill-rule:evenodd;stroke:none"
         transform="matrix(1.3333333,0,0,-1.3333333,0,880)"
         clip-path="url(#clipPath30)" />
      <path
         id="path31"
         d="m 283.086,274.857 h 25.3 v 48.189 h -25.3 z"
         style="fill:#463d3b;fill-opacity:1;fill-rule:evenodd;stroke:none"
         transform="matrix(1.3333333,0,0,-1.3333333,0,880)"
         clip-path="url(#clipPath32)" />
      <path
         id="path33"
         d="m 308.386,274.857 h -18.673 v 42.165 h 18.673 z"
         style="fill:#766864;fill-opacity:1;fill-rule:evenodd;stroke:none"
         transform="matrix(1.3333333,0,0,-1.3333333,0,880)"
         clip-path="url(#clipPath34)" />
      <path
         id="path35"
         d="m 282.56,274.857 h 2.709 v 48.189 h -2.709 z"
         style="fill:#b0cadb;fill-opacity:1;fill-rule:evenodd;stroke:none"
         transform="matrix(1.3333333,0,0,-1.3333333,0,880)"
         clip-path="url(#clipPath36)" />
      <path
         id="path37"
         d="m 279.815,308.586 h 31.549 v 2.182 h -31.549 z"
         style="fill:#e0f1fb;fill-opacity:1;fill-rule:evenodd;stroke:none"
         transform="matrix(1.3333333,0,0,-1.3333333,0,880)"
         clip-path="url(#clipPath38)" />
      <path
         id="path39"
         d="M 0,0 C 370.531,-16.457 272.566,-112.316 -114.923,-256.603 H -417.732 C 20.315,-132.816 392.936,-17.087 -35.539,0 Z"
         style="fill:#ffffff;fill-opacity:1;fill-rule:evenodd;stroke:none"
         transform="matrix(1.3333333,0,0,-1.3333333,558.34373,536.2096)"
         clip-path="url(#clipPath40)" />
      <path
         id="path41"
         d="m 0,0 9.143,-39.81 9.143,-39.807 H 0 -18.285 l 9.142,39.807 z"
         style="fill:#e0f1fb;fill-opacity:1;fill-rule:evenodd;stroke:none"
         transform="matrix(1.3333333,0,0,-1.3333333,180.88867,470.3516)"
         clip-path="url(#clipPath42)" />
      <path
         id="path43"
         d="m 0,0 16.361,-71.244 16.363,-71.243 H 0 -32.727 l 16.364,71.243 z"
         style="fill:#ffffff;fill-opacity:1;fill-rule:evenodd;stroke:none"
         transform="matrix(1.3333333,0,0,-1.3333333,669.78253,413.3184)"
         clip-path="url(#clipPath44)" />
      <path
         id="path45"
         d="m 0,0 22.476,-97.859 22.473,-97.856 H 0 -44.948 l 22.474,97.856 z"
         style="fill:#ffffff;fill-opacity:1;fill-rule:evenodd;stroke:none"
         transform="matrix(1.3333333,0,0,-1.3333333,86.570933,417.80013)"
         clip-path="url(#clipPath46)" />
      <path
         id="path47"
         d="M 0,0 8.138,-35.434 16.275,-70.87 H 0 -16.276 l 8.135,35.436 z"
         style="fill:#e0f1fb;fill-opacity:1;fill-rule:evenodd;stroke:none"
         transform="matrix(1.3333333,0,0,-1.3333333,830.28,463.9024)"
         clip-path="url(#clipPath48)" />
      <path
         id="path49"
         d="m 568.399,251.058 h 3.669 v 32.528 h -3.669 z"
         style="fill:#e0f1fb;fill-opacity:1;fill-rule:evenodd;stroke:none"
         transform="matrix(1.3333333,0,0,-1.3333333,0,880)"
         clip-path="url(#clipPath50)" />
      <path
         id="path51"
         d="M 0,0 C 7.812,0 14.185,6.372 14.185,14.184 14.185,21.997 7.812,28.37 0,28.37 -7.813,28.37 -14.185,21.997 -14.185,14.184 -14.185,6.372 -7.813,0 0,0"
         style="fill:#e0f1fb;fill-opacity:1;fill-rule:evenodd;stroke:none"
         transform="matrix(1.3333333,0,0,-1.3333333,760.31253,514.27733)"
         clip-path="url(#clipPath52)" />
      <path
         id="path53"
         d="m 556.59,250.825 h 2.553 v 22.637 h -2.553 z"
         style="fill:#e0f1fb;fill-opacity:1;fill-rule:evenodd;stroke:none"
         transform="matrix(1.3333333,0,0,-1.3333333,0,880)"
         clip-path="url(#clipPath54)" />
      <path
         id="path55"
         d="m 0,0 c 5.439,0 9.874,4.434 9.874,9.873 0,5.435 -4.435,9.87 -9.874,9.87 -5.436,0 -9.87,-4.435 -9.87,-9.87 C -9.87,4.434 -5.436,0 0,0"
         style="fill:#e0f1fb;fill-opacity:1;fill-rule:evenodd;stroke:none"
         transform="matrix(1.3333333,0,0,-1.3333333,743.82027,524.00907)"
         clip-path="url(#clipPath56)" />
      <path
         id="path57"
         d="m 196.102,255.507 h 2.553 v 22.638 h -2.553 z"
         style="fill:#e0f1fb;fill-opacity:1;fill-rule:evenodd;stroke:none"
         transform="matrix(1.3333333,0,0,-1.3333333,0,880)"
         clip-path="url(#clipPath58)" />
      <path
         id="path59"
         d="m 0,0 c 5.437,0 9.872,4.434 9.872,9.87 0,5.436 -4.435,9.87 -9.872,9.87 -5.437,0 -9.871,-4.434 -9.871,-9.87 C -9.871,4.434 -5.437,0 0,0"
         style="fill:#e0f1fb;fill-opacity:1;fill-rule:evenodd;stroke:none"
         transform="matrix(1.3333333,0,0,-1.3333333,263.17253,517.76307)"
         clip-path="url(#clipPath60)" />
    </g>
  </g>
</svg>
