<?xml version="1.0" encoding="UTF-8" standalone="no"?>
<!-- Created with Inkscape (http://www.inkscape.org/) -->

<svg
   version="1.1"
   id="svg1"
   width="880"
   height="880"
   viewBox="0 0 880 880"
   sodipodi:docname="campfire.svg"
   inkscape:version="1.3.2 (091e20e, 2023-11-25, custom)"
   xmlns:inkscape="http://www.inkscape.org/namespaces/inkscape"
   xmlns:sodipodi="http://sodipodi.sourceforge.net/DTD/sodipodi-0.dtd"
   xmlns="http://www.w3.org/2000/svg"
   xmlns:svg="http://www.w3.org/2000/svg">
  <defs
     id="defs1">
    <clipPath
       clipPathUnits="userSpaceOnUse"
       id="clipPath4">
      <path
         d="M 0,660 H 660 V 0 H 0 Z"
         transform="translate(-330.24271,-115.1055)"
         id="path4" />
    </clipPath>
    <clipPath
       clipPathUnits="userSpaceOnUse"
       id="clipPath6">
      <path
         d="M 0,660 H 660 V 0 H 0 Z"
         transform="translate(-399.94431,-340.81741)"
         id="path6" />
    </clipPath>
    <clipPath
       clipPathUnits="userSpaceOnUse"
       id="clipPath8">
      <path
         d="M 0,660 H 660 V 0 H 0 Z"
         transform="translate(-213.1255,-406.02201)"
         id="path8" />
    </clipPath>
    <clipPath
       clipPathUnits="userSpaceOnUse"
       id="clipPath10">
      <path
         d="M 0,660 H 660 V 0 H 0 Z"
         id="path10" />
    </clipPath>
    <clipPath
       clipPathUnits="userSpaceOnUse"
       id="clipPath12">
      <path
         d="M 0,660 H 660 V 0 H 0 Z"
         id="path12" />
    </clipPath>
    <clipPath
       clipPathUnits="userSpaceOnUse"
       id="clipPath14">
      <path
         d="M 0,660 H 660 V 0 H 0 Z"
         transform="translate(-180.68121,-76.374999)"
         id="path14" />
    </clipPath>
    <clipPath
       clipPathUnits="userSpaceOnUse"
       id="clipPath16">
      <path
         d="M 0,660 H 660 V 0 H 0 Z"
         transform="translate(-257.86281,-125.64261)"
         id="path16" />
    </clipPath>
    <clipPath
       clipPathUnits="userSpaceOnUse"
       id="clipPath18">
      <path
         d="M 0,660 H 660 V 0 H 0 Z"
         transform="translate(-149.33061,-173.9385)"
         id="path18" />
    </clipPath>
    <clipPath
       clipPathUnits="userSpaceOnUse"
       id="clipPath20">
      <path
         d="M 0,660 H 660 V 0 H 0 Z"
         transform="translate(-107.5737,-134.8047)"
         id="path20" />
    </clipPath>
    <clipPath
       clipPathUnits="userSpaceOnUse"
       id="clipPath22">
      <path
         d="M 0,660 H 660 V 0 H 0 Z"
         transform="translate(-138.064,-105.64941)"
         id="path22" />
    </clipPath>
    <clipPath
       clipPathUnits="userSpaceOnUse"
       id="clipPath24">
      <path
         d="M 0,660 H 660 V 0 H 0 Z"
         transform="translate(-479.80471,-76.374999)"
         id="path24" />
    </clipPath>
    <clipPath
       clipPathUnits="userSpaceOnUse"
       id="clipPath26">
      <path
         d="M 0,660 H 660 V 0 H 0 Z"
         transform="translate(-402.62401,-125.64261)"
         id="path26" />
    </clipPath>
    <clipPath
       clipPathUnits="userSpaceOnUse"
       id="clipPath28">
      <path
         d="M 0,660 H 660 V 0 H 0 Z"
         transform="translate(-511.15531,-173.9385)"
         id="path28" />
    </clipPath>
    <clipPath
       clipPathUnits="userSpaceOnUse"
       id="clipPath30">
      <path
         d="M 0,660 H 660 V 0 H 0 Z"
         transform="translate(-552.91312,-134.8047)"
         id="path30" />
    </clipPath>
    <clipPath
       clipPathUnits="userSpaceOnUse"
       id="clipPath32">
      <path
         d="M 0,660 H 660 V 0 H 0 Z"
         transform="translate(-522.42292,-105.64941)"
         id="path32" />
    </clipPath>
    <clipPath
       clipPathUnits="userSpaceOnUse"
       id="clipPath34">
      <path
         d="M 0,660 H 660 V 0 H 0 Z"
         transform="translate(-250.9072,-78.787104)"
         id="path34" />
    </clipPath>
    <clipPath
       clipPathUnits="userSpaceOnUse"
       id="clipPath36">
      <path
         d="M 0,660 H 660 V 0 H 0 Z"
         transform="translate(-392.34671,-140.12601)"
         id="path36" />
    </clipPath>
    <clipPath
       clipPathUnits="userSpaceOnUse"
       id="clipPath38">
      <path
         d="M 0,660 H 660 V 0 H 0 Z"
         transform="translate(-330.24271,-139.374)"
         id="path38" />
    </clipPath>
    <clipPath
       clipPathUnits="userSpaceOnUse"
       id="clipPath40">
      <path
         d="M 0,660 H 660 V 0 H 0 Z"
         transform="translate(-257.52541,-66.123999)"
         id="path40" />
    </clipPath>
    <clipPath
       clipPathUnits="userSpaceOnUse"
       id="clipPath42">
      <path
         d="M 0,660 H 660 V 0 H 0 Z"
         transform="translate(-323.13921,-57.255901)"
         id="path42" />
    </clipPath>
    <clipPath
       clipPathUnits="userSpaceOnUse"
       id="clipPath44">
      <path
         d="M 0,660 H 660 V 0 H 0 Z"
         transform="translate(-211.6699,-259.5088)"
         id="path44" />
    </clipPath>
    <clipPath
       clipPathUnits="userSpaceOnUse"
       id="clipPath46">
      <path
         d="M 0,660 H 660 V 0 H 0 Z"
         transform="translate(-423.11431,-347.20361)"
         id="path46" />
    </clipPath>
    <clipPath
       clipPathUnits="userSpaceOnUse"
       id="clipPath48">
      <path
         d="M 0,660 H 660 V 0 H 0 Z"
         transform="translate(-332.41991,-441.38921)"
         id="path48" />
    </clipPath>
    <clipPath
       clipPathUnits="userSpaceOnUse"
       id="clipPath50">
      <path
         d="M 0,660 H 660 V 0 H 0 Z"
         transform="translate(-222.436,-341.87791)"
         id="path50" />
    </clipPath>
    <clipPath
       clipPathUnits="userSpaceOnUse"
       id="clipPath52">
      <path
         d="M 0,660 H 660 V 0 H 0 Z"
         transform="translate(-270.82371,-264.2197)"
         id="path52" />
    </clipPath>
  </defs>
  <sodipodi:namedview
     id="namedview1"
     pagecolor="#ffffff"
     bordercolor="#000000"
     borderopacity="0.25"
     inkscape:showpageshadow="2"
     inkscape:pageopacity="0.0"
     inkscape:pagecheckerboard="0"
     inkscape:deskcolor="#d1d1d1"
     inkscape:zoom="0.69318182"
     inkscape:cx="439.27869"
     inkscape:cy="440"
     inkscape:window-width="1440"
     inkscape:window-height="830"
     inkscape:window-x="-6"
     inkscape:window-y="-6"
     inkscape:window-maximized="1"
     inkscape:current-layer="g1">
    <inkscape:page
       x="0"
       y="0"
       inkscape:label="1"
       id="page1"
       width="880"
       height="880"
       margin="1.8906667 0 0 0.51944935"
       bleed="0" />
  </sodipodi:namedview>
  <g
     id="g1"
     inkscape:groupmode="layer"
     inkscape:label="1">
    <g
       id="group-MC0">
      <path
         id="path2"
         d="M 0.39,1.418 H 660 V 659.999 H 0.39 Z"
         style="fill:#2f2825;fill-opacity:1;fill-rule:nonzero;stroke:none"
         transform="matrix(1.3333333,0,0,-1.3333333,0,880)" />
      <path
         id="path3"
         d="M 0,0 C 133.338,0 242.09,108.752 242.09,242.089 242.09,375.429 133.338,484.18 0,484.18 -133.338,484.18 -242.089,375.429 -242.089,242.089 -242.089,108.752 -133.338,0 0,0"
         style="fill:#463d3b;fill-opacity:1;fill-rule:evenodd;stroke:none"
         transform="matrix(1.3333333,0,0,-1.3333333,440.3236,726.526)"
         clip-path="url(#clipPath4)" />
      <path
         id="path5"
         d="M 0,0 C 14.657,34.823 16.908,65.621 -1.779,89.627 -23.56,43.038 -53.105,34.62 -78.769,7.116 c -5.107,-19.56 -10.211,-39.121 -15.316,-58.682 0.412,0.374 0.827,0.749 1.241,1.123 C -61.895,-33.629 -30.947,-16.814 0,0"
         style="fill:#d74b1f;fill-opacity:1;fill-rule:evenodd;stroke:none"
         transform="matrix(1.3333333,0,0,-1.3333333,533.25907,425.5768)"
         clip-path="url(#clipPath6)" />
      <path
         id="path7"
         d="M 0,0 C 3.259,37.325 15.91,67.761 44.413,86.568 42.035,36.108 64.959,20.832 75.232,-12.037 70.55,-32.251 65.866,-52.465 61.183,-72.679 c -0.199,0.461 -0.397,0.925 -0.597,1.387 C 40.391,-47.528 20.196,-23.764 0,0"
         style="fill:#d74b1f;fill-opacity:1;fill-rule:evenodd;stroke:none"
         transform="matrix(1.3333333,0,0,-1.3333333,284.16733,338.63733)"
         clip-path="url(#clipPath8)" />
      <path
         id="path9"
         d="m 92.019,162.115 h 209.209 v 67.041 H 92.019 Z"
         style="fill:#882e1b;fill-opacity:1;fill-rule:evenodd;stroke:none"
         transform="matrix(1.3333333,0,0,-1.3333333,0,880)"
         clip-path="url(#clipPath10)" />
      <path
         id="path11"
         d="m 359.259,162.115 h 209.209 v 67.041 H 359.259 Z"
         style="fill:#882e1b;fill-opacity:1;fill-rule:evenodd;stroke:none"
         transform="matrix(1.3333333,0,0,-1.3333333,0,880)"
         clip-path="url(#clipPath12)" />
      <path
         id="path13"
         d="m 0,0 118.96,75.935 41.907,40.288 -28.019,25.91 -183.022,-40.052 z"
         style="fill:#a5391f;fill-opacity:1;fill-rule:evenodd;stroke:none"
         transform="matrix(1.3333333,0,0,-1.3333333,240.90827,778.16667)"
         clip-path="url(#clipPath14)" />
      <path
         id="path15"
         d="M 0,0 41.778,26.667 83.685,66.955 55.667,92.865 -34.734,73.082 C 27.396,49.917 -35.239,35.945 -13.125,17.952 -5.931,12.1 -1.809,6.018 0,0"
         style="fill:#ae401f;fill-opacity:1;fill-rule:evenodd;stroke:none"
         transform="matrix(1.3333333,0,0,-1.3333333,343.81707,712.47653)"
         clip-path="url(#clipPath16)" />
      <path
         id="path17"
         d="m 0,0 c 21.663,-14.881 35.699,-58.561 31.351,-97.563 l -20.597,14.148 -0.23,14.528 -1.336,-13.452 -30.363,20.856 1.25,16.425 -4.218,-14.386 -22.954,15.768 C -42.749,-4.675 -21.663,14.88 0,0"
         style="fill:#882e1b;fill-opacity:1;fill-rule:evenodd;stroke:none"
         transform="matrix(1.3333333,0,0,-1.3333333,199.10747,648.082)"
         clip-path="url(#clipPath18)" />
      <path
         id="path19"
         d="m 0,0 -0.851,-7.627 18.465,-12.684 4.218,14.387 -1.25,-16.426 30.363,-20.855 1.336,13.452 0.23,-14.528 16.106,-11.065 0.851,7.627 C 70.855,-15.088 58.797,19.217 40.906,31.506 23.016,43.796 5.568,29.759 0,0"
         style="fill:#f5bb9c;fill-opacity:1;fill-rule:evenodd;stroke:none"
         transform="matrix(1.3333333,0,0,-1.3333333,143.4316,700.2604)"
         clip-path="url(#clipPath20)" />
      <path
         id="path21"
         d="M 0,0 C 0.704,5.635 3.793,8.431 6.968,6.251 10.142,4.07 12.213,-2.27 11.65,-8.003 l -1.292,0.888 C 10.778,-2.667 9.169,2.235 6.708,3.926 4.248,5.615 1.852,3.464 1.292,-0.887 Z m -3.819,2.624 c 0.595,4.22 2.043,7.397 3.945,9.162 2.023,1.876 4.561,2.153 7.132,0.388 2.572,-1.767 4.69,-5.243 6.037,-9.434 1.266,-3.94 1.85,-8.514 1.487,-12.893 l -1.293,0.887 c 0.293,3.739 -0.211,7.631 -1.29,10.989 -1.16,3.611 -2.985,6.605 -5.2,8.126 C 4.785,11.37 2.599,11.131 0.856,9.516 -0.765,8.012 -2.004,5.315 -2.526,1.735 Z m -5.792,3.979 c 0.937,6.656 3.218,11.667 6.217,14.447 3.187,2.955 7.184,3.391 11.234,0.61 4.049,-2.78 7.387,-8.257 9.508,-14.857 1.996,-6.213 2.916,-13.422 2.34,-20.327 l -1.292,0.889 C 18.901,-6.374 18.061,0.155 16.252,5.785 14.318,11.806 11.274,16.799 7.58,19.336 3.887,21.872 0.242,21.475 -2.664,18.778 -5.381,16.259 -7.454,11.73 -8.318,5.713 Z m -6.167,4.236 0.021,0.191 c 1.109,9.941 4.35,17.405 8.695,21.435 4.346,4.029 9.794,4.624 15.316,0.831 5.521,-3.793 10.072,-11.257 12.964,-20.258 2.893,-9.001 4.128,-19.54 3.02,-29.481 l -0.022,-0.19 -1.293,0.886 0.023,0.191 c 1.037,9.3 -0.118,19.159 -2.824,27.577 -2.705,8.419 -6.962,15.403 -12.127,18.95 -5.166,3.549 -10.262,2.992 -14.327,-0.778 -4.064,-3.768 -7.096,-10.75 -8.133,-20.05 l -0.021,-0.192 z m -3.417,2.346 c 1.365,12.158 5.333,21.284 10.65,26.214 5.325,4.939 12.003,5.668 18.77,1.021 6.768,-4.65 12.344,-13.796 15.889,-24.827 3.539,-11.015 5.053,-23.907 3.705,-36.076 l -1.291,0.887 c 1.276,11.527 -0.158,23.74 -3.51,34.171 -3.358,10.449 -8.641,19.116 -15.052,23.52 -6.411,4.403 -12.737,3.711 -17.781,-0.966 -5.036,-4.67 -8.796,-13.316 -10.088,-24.83 z m -9.484,6.514 1.292,-0.885 c 0.024,0.227 0.048,0.456 0.074,0.683 1.661,14.899 6.519,26.085 13.031,32.124 6.511,6.038 14.677,6.932 22.952,1.246 8.275,-5.684 15.094,-16.87 19.429,-30.359 4.335,-13.488 6.185,-29.281 4.524,-44.182 -0.025,-0.227 -0.051,-0.455 -0.079,-0.681 l 1.292,-0.887 c 0.026,0.227 0.053,0.453 0.078,0.682 1.733,15.542 -0.197,32.015 -4.719,46.083 -4.521,14.073 -11.633,25.74 -20.265,31.669 -8.633,5.93 -17.15,4.998 -23.942,-1.3 -6.792,-6.299 -11.86,-17.966 -13.593,-33.507 -0.025,-0.228 -0.05,-0.456 -0.074,-0.686"
         style="fill:#e5a583;fill-opacity:1;fill-rule:evenodd;stroke:none"
         transform="matrix(1.3333333,0,0,-1.3333333,184.08533,739.13413)"
         clip-path="url(#clipPath22)" />
      <path
         id="path23"
         d="m 0,0 -118.959,75.935 -41.907,40.288 28.019,25.91 183.021,-40.052 z"
         style="fill:#a5391f;fill-opacity:1;fill-rule:evenodd;stroke:none"
         transform="matrix(1.3333333,0,0,-1.3333333,639.7396,778.16667)"
         clip-path="url(#clipPath24)" />
      <path
         id="path25"
         d="m 0,0 -41.778,26.667 -41.907,40.288 28.019,25.91 90.399,-19.783 C -27.397,49.917 35.238,35.945 13.124,17.952 5.932,12.1 1.809,6.018 0,0"
         style="fill:#ae401f;fill-opacity:1;fill-rule:evenodd;stroke:none"
         transform="matrix(1.3333333,0,0,-1.3333333,536.832,712.47653)"
         clip-path="url(#clipPath26)" />
      <path
         id="path27"
         d="m 0,0 c -21.662,-14.881 -35.699,-58.561 -31.351,-97.563 l 20.598,14.148 0.229,14.528 1.336,-13.452 30.364,20.856 -1.251,16.425 4.218,-14.386 22.956,15.768 C 42.749,-4.675 21.664,14.88 0,0"
         style="fill:#882e1b;fill-opacity:1;fill-rule:evenodd;stroke:none"
         transform="matrix(1.3333333,0,0,-1.3333333,681.5404,648.082)"
         clip-path="url(#clipPath28)" />
      <path
         id="path29"
         d="m 0,0 0.85,-7.627 -18.465,-12.684 -4.218,14.387 1.251,-16.426 -30.363,-20.855 -1.337,13.452 -0.229,-14.528 -16.106,-11.065 -0.852,7.627 c -1.386,32.631 10.671,66.936 28.563,79.225 C -23.016,43.796 -5.569,29.759 0,0"
         style="fill:#f5bb9c;fill-opacity:1;fill-rule:evenodd;stroke:none"
         transform="matrix(1.3333333,0,0,-1.3333333,737.21747,700.2604)"
         clip-path="url(#clipPath30)" />
      <path
         id="path31"
         d="M 0,0 C -0.705,5.635 -3.794,8.431 -6.968,6.251 -10.142,4.07 -12.214,-2.27 -11.65,-8.003 l 1.292,0.888 c -0.421,4.448 1.188,9.35 3.649,11.041 2.461,1.689 4.855,-0.462 5.418,-4.813 z m 3.818,2.624 c -0.594,4.22 -2.043,7.397 -3.944,9.162 -2.024,1.876 -4.563,2.153 -7.133,0.388 -2.571,-1.767 -4.689,-5.243 -6.037,-9.434 -1.266,-3.94 -1.851,-8.514 -1.487,-12.893 l 1.293,0.887 c -0.292,3.739 0.211,7.631 1.29,10.989 1.16,3.611 2.985,6.605 5.2,8.126 2.216,1.521 4.4,1.282 6.142,-0.333 C 0.765,8.012 2.003,5.315 2.525,1.735 Z M 9.61,6.603 C 8.674,13.259 6.391,18.27 3.393,21.05 0.206,24.005 -3.79,24.441 -7.841,21.66 -11.89,18.88 -15.228,13.403 -17.35,6.803 -19.345,0.59 -20.266,-6.619 -19.689,-13.524 l 1.292,0.889 c -0.504,6.261 0.334,12.79 2.145,18.42 1.933,6.021 4.977,11.014 8.671,13.551 3.693,2.536 7.339,2.139 10.244,-0.558 2.719,-2.519 4.79,-7.048 5.654,-13.065 z m 6.166,4.236 -0.019,0.191 c -1.11,9.941 -4.351,17.405 -8.696,21.435 -4.345,4.029 -9.794,4.624 -15.316,0.831 -5.521,-3.793 -10.072,-11.257 -12.964,-20.258 -2.892,-9.001 -4.128,-19.54 -3.018,-29.481 l 0.02,-0.19 1.292,0.886 -0.021,0.191 c -1.037,9.3 0.118,19.159 2.824,27.577 2.705,8.419 6.961,15.403 12.126,18.95 5.166,3.549 10.263,2.992 14.327,-0.778 4.065,-3.768 7.098,-10.75 8.134,-20.05 l 0.021,-0.192 z m 3.418,2.346 C 17.83,25.343 13.861,34.469 8.545,39.399 3.219,44.338 -3.458,45.067 -10.226,40.42 -16.993,35.77 -22.569,26.624 -26.113,15.593 -29.653,4.578 -31.168,-8.314 -29.819,-20.483 l 1.292,0.887 c -1.277,11.527 0.158,23.74 3.508,34.171 3.358,10.449 8.642,19.116 15.052,23.52 6.41,4.403 12.736,3.711 17.782,-0.966 5.035,-4.67 8.794,-13.316 10.087,-24.83 z m 9.485,6.514 -1.293,-0.885 c -0.023,0.227 -0.048,0.456 -0.073,0.683 -1.662,14.899 -6.52,26.085 -13.032,32.124 -6.512,6.038 -14.676,6.932 -22.952,1.246 -8.276,-5.684 -15.095,-16.87 -19.429,-30.359 -4.334,-13.488 -6.184,-29.281 -4.524,-44.182 0.026,-0.227 0.052,-0.455 0.079,-0.681 l -1.292,-0.887 c -0.027,0.227 -0.053,0.453 -0.078,0.682 -1.734,15.542 0.197,32.015 4.72,46.083 4.52,14.073 11.633,25.74 20.265,31.669 8.632,5.93 17.149,4.998 23.943,-1.3 6.791,-6.299 11.859,-17.966 13.59,-33.507 0.026,-0.228 0.051,-0.456 0.076,-0.686"
         style="fill:#e5a583;fill-opacity:1;fill-rule:evenodd;stroke:none"
         transform="matrix(1.3333333,0,0,-1.3333333,696.56387,739.13413)"
         clip-path="url(#clipPath32)" />
      <path
         id="path33"
         d="m 0,0 h 158.603 l -21.756,77.752 c -13.828,49.422 -101.886,48.25 -115.273,0 z"
         style="fill:#ae401f;fill-opacity:1;fill-rule:evenodd;stroke:none"
         transform="matrix(1.3333333,0,0,-1.3333333,334.54293,774.95053)"
         clip-path="url(#clipPath34)" />
      <path
         id="path35"
         d="m 0,0 -4.593,16.413 c -13.828,49.422 -101.885,48.25 -115.273,0 l -4.745,-17.102 c 5.889,0.534 12.809,2.726 21.005,7.107 29.442,15.74 38.881,14.434 68.22,-2.999 C -26.276,-1.995 -12.23,-3.09 0,0"
         style="fill:#bd4c1f;fill-opacity:1;fill-rule:evenodd;stroke:none"
         transform="matrix(1.3333333,0,0,-1.3333333,523.12893,693.16533)"
         clip-path="url(#clipPath36)" />
      <path
         id="path37"
         d="M 0,0 C 45.353,0 82.118,-36.767 82.118,-82.118 H 38.999 l -3.598,15.521 0.318,-15.521 h -63.566 l -1.13,18.668 -5.084,-18.668 H -82.118 C -82.118,-36.767 -45.352,0 0,0"
         style="fill:#882e1b;fill-opacity:1;fill-rule:evenodd;stroke:none"
         transform="matrix(1.3333333,0,0,-1.3333333,440.3236,694.168)"
         clip-path="url(#clipPath38)" />
      <path
         id="path39"
         d="M 0,0 V -8.868 H 38.656 L 43.74,9.8 44.871,-8.868 h 63.565 l -0.318,15.521 3.598,-15.521 h 33.72 V 0 C 141.059,36.273 110.172,64.38 72.717,64.38 35.262,64.38 4.377,36.273 0,0"
         style="fill:#f5bb9c;fill-opacity:1;fill-rule:evenodd;stroke:none"
         transform="matrix(1.3333333,0,0,-1.3333333,343.3672,791.83467)"
         clip-path="url(#clipPath40)" />
      <path
         id="path41"
         d="M 0,0 C 0.147,6.608 5.551,11.92 12.194,11.92 18.839,11.92 24.242,6.608 24.39,0 H 21.686 C 21.538,5.114 17.346,9.217 12.194,9.217 7.043,9.217 2.851,5.114 2.703,0 Z m -7.996,0 c 0.242,5 2.371,9.506 5.685,12.822 3.53,3.528 8.403,5.71 13.786,5.71 5.383,0 10.258,-2.182 13.785,-5.71 C 28.576,9.506 30.704,5 30.947,0 H 28.24 C 27.999,4.254 26.175,8.085 23.348,10.912 20.31,13.95 16.112,15.829 11.475,15.829 6.838,15.829 2.64,13.95 -0.398,10.912 -3.225,8.085 -5.048,4.254 -5.288,0 Z M -20.12,0 c 0.377,7.883 3.729,14.989 8.958,20.217 5.556,5.556 13.232,8.994 21.712,8.994 8.478,0 16.155,-3.438 21.712,-8.994 C 37.49,14.989 40.841,7.883 41.219,0 h -2.706 c -0.376,7.137 -3.424,13.567 -8.164,18.307 -5.065,5.066 -12.067,8.2 -19.799,8.2 -7.734,0 -14.735,-3.134 -19.801,-8.2 C -13.989,13.567 -17.039,7.137 -17.413,0 Z m -12.911,0 -10e-4,0.222 c 0,11.559 4.685,22.027 12.261,29.602 7.578,7.577 18.043,12.264 29.602,12.264 11.562,0 22.028,-4.687 29.605,-12.264 C 46.011,22.249 50.698,11.781 50.698,0.222 L 50.697,0 h -2.704 l 0.002,0.222 c 0,10.813 -4.384,20.605 -11.471,27.691 C 29.438,35 19.647,39.384 8.831,39.384 -1.982,39.384 -11.772,35 -18.859,27.913 -25.945,20.827 -30.329,11.035 -30.329,0.222 L -30.328,0 Z m -7.154,0 c 0.017,14.142 5.756,26.944 15.026,36.215 9.286,9.284 22.113,15.027 36.28,15.027 14.168,0 26.996,-5.743 36.28,-15.027 C 56.671,26.944 62.412,14.142 62.428,0 H 59.724 C 59.707,13.395 54.271,25.523 45.49,34.304 36.694,43.099 24.543,48.54 11.121,48.54 -2.3,48.54 -14.452,43.099 -23.246,34.304 -32.028,25.523 -37.464,13.395 -37.482,0 Z M -60.04,0 h 2.704 c -0.003,0.264 -0.006,0.529 -0.006,0.794 0,17.325 7.024,33.012 18.376,44.363 11.354,11.355 27.038,18.377 44.365,18.377 17.325,0 33.01,-7.022 44.364,-18.377 C 61.117,33.806 68.139,18.119 68.139,0.794 68.139,0.529 68.137,0.264 68.134,0 h 2.704 c 0.003,0.264 0.004,0.529 0.004,0.794 0,18.071 -7.325,34.433 -19.168,46.275 C 39.831,58.912 23.47,66.237 5.399,66.237 c -18.071,0 -34.434,-7.325 -46.276,-19.168 -11.842,-11.842 -19.168,-28.204 -19.168,-46.275 0,-0.265 0.002,-0.53 0.005,-0.794"
         style="fill:#e5a583;fill-opacity:1;fill-rule:evenodd;stroke:none"
         transform="matrix(1.3333333,0,0,-1.3333333,430.85227,803.6588)"
         clip-path="url(#clipPath42)" />
      <path
         id="path43"
         d="m 0,0 c -0.416,-14.505 4.339,-28.976 14.115,-41.115 14.313,-17.774 34.327,-30.281 58.171,-35.742 21.767,-4.988 43.787,-6.787 67.778,-5.703 l 2.958,0.133 c 11.853,0.536 22.979,2.96 33.199,7.176 19.043,7.856 32.477,21.78 39.65,41.092 4.381,11.798 5.679,23.598 3.905,35.186 -5.08,33.184 0.933,64.13 17.72,91.653 11.967,19.622 14.408,41.307 7.101,63.099 l -6.667,19.879 -1.369,-5.094 c -6.84,-25.46 -23.504,-44.475 -47.848,-54.598 l -25.949,-10.791 -0.18,0.353 c -16.635,32.689 -14.085,69.796 5.945,99.129 19.456,28.49 22.589,62.249 8.709,93.834 l -6.134,13.956 -5,-16.218 C 157.899,269.623 140.916,249.783 115.894,237.571 74.941,217.588 48.539,182.268 40.952,137.32 l -1.762,-10.435 -11.214,6.657 c -24.187,14.357 -36.744,40.28 -33.017,68.159 l 0.12,0.895 -9.782,-13.128 C -39.35,156.391 -41.385,114.001 -20.023,78.713 -6.034,55.604 0.83,28.951 0,0"
         style="fill:#f36530;fill-opacity:1;fill-rule:evenodd;stroke:none"
         transform="matrix(1.3333333,0,0,-1.3333333,282.22653,533.98827)"
         clip-path="url(#clipPath44)" />
      <path
         id="path45"
         d="m 0,0 c -30.266,-5.485 -45.859,-12.809 -61.569,-41.202 -29.445,29.758 -53.958,65.482 -43.054,122.678 -43.914,-40.577 -51.949,-92.091 -37.729,-145.129 -20.964,5.736 -32.594,17.576 -42.821,38.192 -5.515,-44.112 -11.393,-89.986 31.626,-116.047 78.005,-47.256 157.035,2.602 134.865,79.251 C -24.436,-42.36 -21.286,-24.133 0,0"
         style="fill:#f9de1c;fill-opacity:1;fill-rule:evenodd;stroke:none"
         transform="matrix(1.3333333,0,0,-1.3333333,564.1524,417.06187)"
         clip-path="url(#clipPath46)" />
      <path
         id="path47"
         d="M 0,0 C 29.018,13.53 43.906,36.585 39.589,72.585 33.21,44.367 6.23,41.206 0,0"
         style="fill:#f9de1c;fill-opacity:1;fill-rule:evenodd;stroke:none"
         transform="matrix(1.3333333,0,0,-1.3333333,443.22653,291.48107)"
         clip-path="url(#clipPath48)" />
      <path
         id="path49"
         d="M 0,0 C -24.908,14.414 -33.267,33.036 -21.758,56.71 -16.588,34.565 4.089,25.153 0,0"
         style="fill:#f9de1c;fill-opacity:1;fill-rule:evenodd;stroke:none"
         transform="matrix(1.3333333,0,0,-1.3333333,296.58133,424.1628)"
         clip-path="url(#clipPath50)" />
      <path
         id="path51"
         d="m 0,0 c 15.767,-25.482 28.525,-5.35 44.52,-20.136 -7.717,20.764 6.442,36.495 7.462,52.225 4.077,-13.843 29.571,-33.349 25.13,-50.651 10.605,13.423 30.229,7.655 34.334,30.516 C 125.499,-38.608 88.895,-56.089 64.253,-60.518 28.927,-66.866 6.362,-46.197 0,0"
         style="fill:#fcf894;fill-opacity:1;fill-rule:evenodd;stroke:none"
         transform="matrix(1.3333333,0,0,-1.3333333,361.09827,527.70707)"
         clip-path="url(#clipPath52)" />
    </g>
  </g>
</svg>
