<?xml version="1.0" encoding="UTF-8" standalone="no"?>
<!-- Created with Inkscape (http://www.inkscape.org/) -->

<svg
   version="1.1"
   id="svg1"
   width="880"
   height="880"
   viewBox="0 0 880 880"
   sodipodi:docname="city-park-urban.svg"
   inkscape:version="1.3.2 (091e20e, 2023-11-25, custom)"
   xmlns:inkscape="http://www.inkscape.org/namespaces/inkscape"
   xmlns:sodipodi="http://sodipodi.sourceforge.net/DTD/sodipodi-0.dtd"
   xmlns="http://www.w3.org/2000/svg"
   xmlns:svg="http://www.w3.org/2000/svg">
  <defs
     id="defs1">
    <clipPath
       clipPathUnits="userSpaceOnUse"
       id="clipPath11">
      <path
         d="M 0,660 H 660 V 0 H 0 Z"
         transform="translate(-37.019501,-452.40671)"
         id="path11" />
    </clipPath>
    <clipPath
       clipPathUnits="userSpaceOnUse"
       id="clipPath13">
      <path
         d="M 0,660 H 660 V 0 H 0 Z"
         transform="translate(-61.885702,-658.79102)"
         id="path13" />
    </clipPath>
    <clipPath
       clipPathUnits="userSpaceOnUse"
       id="clipPath15">
      <path
         d="M 0,660 H 660 V 0 H 0 Z"
         transform="translate(-55.543901,-595.64161)"
         id="path15" />
    </clipPath>
    <clipPath
       clipPathUnits="userSpaceOnUse"
       id="clipPath17">
      <path
         d="M 0,660 H 660 V 0 H 0 Z"
         transform="translate(-123.0498,-483.73051)"
         id="path17" />
    </clipPath>
    <clipPath
       clipPathUnits="userSpaceOnUse"
       id="clipPath19">
      <path
         d="M 0,660 H 660 V 0 H 0 Z"
         transform="translate(-623.44631,-452.40671)"
         id="path19" />
    </clipPath>
    <clipPath
       clipPathUnits="userSpaceOnUse"
       id="clipPath21">
      <path
         d="M 0,660 H 660 V 0 H 0 Z"
         transform="translate(-598.58011,-658.79102)"
         id="path21" />
    </clipPath>
    <clipPath
       clipPathUnits="userSpaceOnUse"
       id="clipPath23">
      <path
         d="M 0,660 H 660 V 0 H 0 Z"
         transform="translate(-604.92191,-595.64161)"
         id="path23" />
    </clipPath>
    <clipPath
       clipPathUnits="userSpaceOnUse"
       id="clipPath25">
      <path
         d="M 0,660 H 660 V 0 H 0 Z"
         transform="translate(-537.41701,-483.73051)"
         id="path25" />
    </clipPath>
    <clipPath
       clipPathUnits="userSpaceOnUse"
       id="clipPath27">
      <path
         d="M 0,660 H 660 V 0 H 0 Z"
         transform="translate(-659.62892,-160.7031)"
         id="path27" />
    </clipPath>
    <clipPath
       clipPathUnits="userSpaceOnUse"
       id="clipPath29">
      <path
         d="M 0,660 H 660 V 0 H 0 Z"
         transform="translate(-459.26171,-216.72951)"
         id="path29" />
    </clipPath>
  </defs>
  <sodipodi:namedview
     id="namedview1"
     pagecolor="#ffffff"
     bordercolor="#000000"
     borderopacity="0.25"
     inkscape:showpageshadow="2"
     inkscape:pageopacity="0.0"
     inkscape:pagecheckerboard="0"
     inkscape:deskcolor="#d1d1d1"
     inkscape:zoom="0.67272727"
     inkscape:cx="439.25676"
     inkscape:cy="440"
     inkscape:window-width="1440"
     inkscape:window-height="830"
     inkscape:window-x="-6"
     inkscape:window-y="-6"
     inkscape:window-maximized="1"
     inkscape:current-layer="g1">
    <inkscape:page
       x="0"
       y="0"
       inkscape:label="1"
       id="page1"
       width="880"
       height="880"
       margin="0 0.49466667 1.612 1.1158453"
       bleed="0" />
  </sodipodi:namedview>
  <g
     id="g1"
     inkscape:groupmode="layer"
     inkscape:label="1">
    <g
       id="group-MC0">
      <path
         id="path2"
         d="M 0.837,0 H 659.629 V 658.791 H 0.837 Z"
         style="fill:#ceeee4;fill-opacity:1;fill-rule:nonzero;stroke:none"
         transform="matrix(1.3333333,0,0,-1.3333333,0,880)" />
      <path
         id="path3"
         d="m 0.837,584.026 h 658.792 v 4.135 H 0.837 Z m 0,-135.755 h 658.792 v 4.135 H 0.837 Z m 0,-219.485 H 659.629 V 425.53 H 0.837 Z"
         style="fill:#e3f5f2;fill-opacity:1;fill-rule:nonzero;stroke:none"
         transform="matrix(1.3333333,0,0,-1.3333333,0,880)" />
      <path
         id="path4"
         d="M 0,0 H 13.094 V 12.404 H 35.146 V 26.186 H 46.172 V 45.48 h 22.051 v 15.162 h 15.16 v 6.891 H 97.856 V 60.642 H 110.26 V 23.428 h 24.119 v 61.333 h 7.578 v 28.941 h 11.027 v 33.767 h 18.605 v 17.227 h 24.119 v -17.227 h 17.228 V 13.782 h 19.296 V 45.48 h 24.808 v 57.195 h 31.698 v 37.214 h 17.228 v 26.875 h 30.321 v -26.875 h 24.808 V 20.673 h 6.891 v 13.782 h 35.832 V 53.06 h 8.96 v 13.094 h 33.767 V 53.06 h 6.891 v -78.557 h 18.091 v 22.051 h 9.474 v 6.891 h 7.236 V 31.01 h 12.062 V 17.057 h 4.134 V 3.445 h 15.158 V -124.04 h -38.59 v 0.688 H 453.436 V -133 h -49.618 v 14.471 h -35.832 v 19.297 h -6.891 v -64.089 h -72.357 v 25.499 H 257.04 v 33.766 h -24.808 v 7.58 h -19.296 v -10.336 h -38.59 v -2.757 h -18.607 v -26.876 H 97.856 v 13.782 H 80.628 v -9.649 H 35.146 v 19.297 H 0 Z"
         style="fill:#9edac7;fill-opacity:1;fill-rule:evenodd;stroke:none"
         transform="matrix(1.3333333,0,0,-1.3333333,93.915333,478.4752)" />
      <path
         id="path5"
         d="m 0,0 h 33.767 v 10.336 h 30.32 V 24.808 H 84.761 V 4.134 h 20.673 V 39.28 h 46.172 V 11.716 h 11.025 v 22.739 h 37.21 V 11.716 h 19.299 v 12.402 h 38.587 V -2.068 h 16.539 v 32.389 h 15.85 v 35.833 h 9.649 v 5.514 h 9.645 v -5.514 h 9.651 V 8.269 h 18.605 v 16.539 h 19.982 v 17.918 h 11.373 v 7.923 h 23.428 v -7.923 h 10.682 V 12.061 h 10.337 V -2.757 h 17.917 v 8.959 h 22.051 v 13.094 h 33.078 V -7.923 h 22.741 V 9.305 h 21.362 v -12.06 h 39.969 v -36.179 h -39.969 v -17.573 h -12.405 v -27.907 h -40.658 v 19.637 h -24.118 v 15.162 h -22.051 v 9.645 h -28.254 v -24.119 h -45.483 v 26.188 h -19.982 v 2.066 h -18.605 v -24.808 h -4.826 v -14.471 h -39.969 v 29.633 h -16.539 v -4.134 h -31.696 v -2.757 h -26.19 -19.294 -17.916 v 4.134 h -31.01 v 3.446 h -26.187 v 1.377 H 73.735 v 2.068 H 33.767 v 8.269 l -33.767,0 z"
         style="fill:#82c9b3;fill-opacity:1;fill-rule:evenodd;stroke:none"
         transform="matrix(1.3333333,0,0,-1.3333333,59.921867,551.06253)" />
      <path
         id="path6"
         d="M 0.837,0 H 659.629 V 228.786 H 0.837 Z"
         style="fill:#769a2a;fill-opacity:1;fill-rule:nonzero;stroke:none"
         transform="matrix(1.3333333,0,0,-1.3333333,0,880)" />
      <path
         id="path7"
         d="m 0.837,192.608 h 658.792 v 36.178 H 0.837 Z"
         style="fill:#7da529;fill-opacity:1;fill-rule:nonzero;stroke:none"
         transform="matrix(1.3333333,0,0,-1.3333333,0,880)" />
      <path
         id="path8"
         d="m 0.837,114.393 h 658.792 v 64.09 H 0.837 Z"
         style="fill:#2f2825;fill-opacity:1;fill-rule:nonzero;stroke:none"
         transform="matrix(1.3333333,0,0,-1.3333333,0,880)" />
      <path
         id="path9"
         d="m 0.837,149.541 h 658.792 v 2.066 H 0.837 Z"
         style="fill:#d7c9c4;fill-opacity:1;fill-rule:nonzero;stroke:none"
         transform="matrix(1.3333333,0,0,-1.3333333,0,880)" />
      <path
         id="path10"
         d="M 0,0 -16.193,7.232 V -81.662 Z M 15.55,-452.407 H -36.183 V 7.764 l 5.171,7.392 C -13.492,11.034 4.03,6.912 21.551,2.791 19.55,-9.67 17.55,-22.133 15.55,-34.595 c -37.381,-150.173 -28.791,-286.939 0,-417.812"
         style="fill:#7e2b1a;fill-opacity:1;fill-rule:evenodd;stroke:none"
         transform="matrix(1.3333333,0,0,-1.3333333,49.359333,276.79107)"
         clip-path="url(#clipPath11)" />
      <path
         id="path12"
         d="m 0,0 c 6.066,-8.471 9.582,-17.722 9.582,-26.825 0,-4.576 -0.892,-8.801 -2.546,-12.614 12.381,-7.233 22.69,-16.376 29.691,-26.299 5.012,-0.186 10.287,-0.85 15.733,-2.036 20.197,-4.397 38.046,-14.924 48.82,-27.424 4.684,-0.14 9.586,-0.737 14.633,-1.836 33.235,-7.237 60.178,-33.361 60.178,-58.35 0,-21.132 -19.269,-34.683 -45.315,-33.989 0.637,-2.796 0.974,-5.6 0.974,-8.389 0,-18.628 -14.854,-31.564 -36.622,-34.918 0.277,-1.426 0.426,-2.846 0.426,-4.256 0,-18.743 -25.324,-28.422 -56.561,-21.621 -23.425,5.099 -43.527,18.021 -52.114,32.07 -13.662,-2.899 -30.131,-2.895 -47.928,0.602 l 0,225.885 z"
         style="fill:#9ac421;fill-opacity:1;fill-rule:evenodd;stroke:none"
         transform="matrix(1.3333333,0,0,-1.3333333,82.514267,1.612)"
         clip-path="url(#clipPath13)" />
      <path
         id="path14"
         d="m 0,0 c -4.516,-1.919 -10.231,-3.065 -16.449,-3.065 -14.607,0 -26.448,6.324 -26.448,14.125 0,7.339 10.477,13.372 23.88,14.061 2.768,13.049 21.609,23.145 44.443,23.145 24.74,0 44.793,-11.852 44.793,-26.471 C 70.219,7.175 50.166,-4.677 25.426,-4.677 15.983,-4.677 7.224,-2.949 0,0 m 85.831,-111.007 c 18.868,0 34.162,-9.42 34.162,-21.04 0,-11.62 -15.294,-21.039 -34.162,-21.039 -18.867,0 -34.161,9.419 -34.161,21.039 0,11.62 15.294,21.04 34.161,21.04 m -98.639,0 c 13.62,0 24.66,-6.077 24.66,-13.575 0,-7.497 -11.04,-13.573 -24.66,-13.573 -13.619,0 -24.659,6.076 -24.659,13.573 0,7.498 11.04,13.575 24.659,13.575 m 39.14,81.896 c 7.541,0 14.75,-0.857 21.383,-2.414 8.538,9.216 26.046,15.536 46.261,15.536 28.613,0 51.807,-12.661 51.807,-28.28 0,-15.618 -23.194,-28.278 -51.807,-28.278 -3.243,0 -6.416,0.163 -9.495,0.475 -5.361,-16.52 -29.355,-28.98 -58.149,-28.98 -32.736,0 -59.274,16.104 -59.274,35.971 0,4.067 1.114,7.977 3.165,11.624 -7.322,2.3 -12.214,6.466 -12.214,11.226 0,7.246 11.344,13.12 25.338,13.12 6.695,0 12.779,-1.344 17.309,-3.54 7.768,2.269 16.478,3.54 25.676,3.54"
         style="fill:#adda1a;fill-opacity:1;fill-rule:evenodd;stroke:none"
         transform="matrix(1.3333333,0,0,-1.3333333,74.058533,85.8112)"
         clip-path="url(#clipPath15)" />
      <path
         id="path16"
         d="m 0,0 c 10.995,0 19.908,-4.051 19.908,-9.049 0,-4.997 -8.913,-9.048 -19.908,-9.048 -10.995,0 -19.908,4.051 -19.908,9.048 C -19.908,-4.051 -10.995,0 0,0 m 69.455,28.506 c 7.869,0 14.253,-3.344 14.253,-7.467 0,-4.123 -6.384,-7.465 -14.253,-7.465 -7.874,0 -14.253,3.342 -14.253,7.465 0,4.123 6.379,7.467 14.253,7.467 M -46.153,57.464 c 5.999,0 10.861,-3.039 10.861,-6.788 0,-3.747 -4.862,-6.785 -10.861,-6.785 -5.996,0 -10.858,3.038 -10.858,6.785 0,3.749 4.862,6.788 10.858,6.788 m 83.708,29.862 c 9.746,0 17.647,-4.153 17.647,-9.276 0,-5.122 -7.901,-9.276 -17.647,-9.276 -9.746,0 -17.645,4.154 -17.645,9.276 0,5.123 7.899,9.276 17.645,9.276 m -74.657,65.238 c 9.745,0 17.645,-3.348 17.645,-7.479 0,-4.132 -7.9,-7.482 -17.645,-7.482 -9.747,0 -17.646,3.35 -17.646,7.482 0,4.131 7.899,7.479 17.646,7.479"
         style="fill:#d6ea60;fill-opacity:1;fill-rule:evenodd;stroke:none"
         transform="matrix(1.3333333,0,0,-1.3333333,164.0664,235.026)"
         clip-path="url(#clipPath17)" />
      <path
         id="path18"
         d="M 0,0 16.193,7.232 V -81.662 Z M -15.55,-452.407 H 36.183 V 7.764 l -5.171,7.392 C 13.49,11.034 -4.029,6.912 -21.551,2.791 c 2.001,-12.461 4,-24.924 6.001,-37.386 37.381,-150.173 28.791,-286.939 0,-417.812"
         style="fill:#7e2b1a;fill-opacity:1;fill-rule:evenodd;stroke:none"
         transform="matrix(1.3333333,0,0,-1.3333333,831.26173,276.79107)"
         clip-path="url(#clipPath19)" />
      <path
         id="path20"
         d="m 0,0 c -6.065,-8.471 -9.58,-17.722 -9.58,-26.825 0,-4.576 0.89,-8.801 2.543,-12.614 -12.38,-7.233 -22.688,-16.376 -29.691,-26.299 -5.011,-0.186 -10.285,-0.85 -15.731,-2.036 -20.198,-4.397 -38.047,-14.924 -48.821,-27.424 -4.684,-0.14 -9.585,-0.737 -14.633,-1.836 -33.235,-7.237 -60.178,-33.361 -60.178,-58.35 0,-21.132 19.267,-34.683 45.315,-33.989 -0.64,-2.796 -0.974,-5.6 -0.974,-8.389 0,-18.628 14.853,-31.564 36.623,-34.918 -0.278,-1.426 -0.424,-2.846 -0.424,-4.256 0,-18.743 25.321,-28.422 56.558,-21.621 23.426,5.099 43.526,18.021 52.114,32.07 13.663,-2.899 30.13,-2.895 47.928,0.602 L 61.049,0 Z"
         style="fill:#9ac421;fill-opacity:1;fill-rule:evenodd;stroke:none"
         transform="matrix(1.3333333,0,0,-1.3333333,798.1068,1.612)"
         clip-path="url(#clipPath21)" />
      <path
         id="path22"
         d="m 0,0 c 4.516,-1.919 10.231,-3.065 16.449,-3.065 14.608,0 26.447,6.324 26.447,14.125 0,7.339 -10.477,13.372 -23.878,14.061 -2.768,13.049 -21.612,23.145 -44.445,23.145 -24.738,0 -44.792,-11.852 -44.792,-26.471 0,-14.62 20.054,-26.472 44.792,-26.472 9.444,0 18.203,1.728 25.427,4.677 m -85.832,-111.007 c -18.867,0 -34.161,-9.42 -34.161,-21.04 0,-11.62 15.294,-21.039 34.161,-21.039 18.868,0 34.162,9.419 34.162,21.039 0,11.62 -15.294,21.04 -34.162,21.04 m 98.639,0 c -13.619,0 -24.661,-6.077 -24.661,-13.575 0,-7.497 11.042,-13.573 24.661,-13.573 13.62,0 24.661,6.076 24.661,13.573 0,7.498 -11.041,13.575 -24.661,13.575 m -39.138,81.896 c -7.541,0 -14.751,-0.857 -21.384,-2.414 -8.538,9.216 -26.046,15.536 -46.262,15.536 -28.612,0 -51.806,-12.661 -51.806,-28.28 0,-15.618 23.194,-28.278 51.806,-28.278 3.244,0 6.416,0.163 9.495,0.475 5.362,-16.52 29.357,-28.98 58.151,-28.98 32.735,0 59.272,16.104 59.272,35.971 0,4.067 -1.113,7.977 -3.163,11.624 7.323,2.3 12.212,6.466 12.212,11.226 0,7.246 -11.344,13.12 -25.337,13.12 -6.693,0 -12.779,-1.344 -17.308,-3.54 -7.771,2.269 -16.479,3.54 -25.676,3.54"
         style="fill:#adda1a;fill-opacity:1;fill-rule:evenodd;stroke:none"
         transform="matrix(1.3333333,0,0,-1.3333333,806.56253,85.8112)"
         clip-path="url(#clipPath23)" />
      <path
         id="path24"
         d="m 0,0 c -10.996,0 -19.908,-4.051 -19.908,-9.049 0,-4.997 8.912,-9.048 19.908,-9.048 10.994,0 19.906,4.051 19.906,9.048 C 19.906,-4.051 10.994,0 0,0 m -69.456,28.506 c -7.869,0 -14.253,-3.344 -14.253,-7.467 0,-4.123 6.384,-7.465 14.253,-7.465 7.874,0 14.253,3.342 14.253,7.465 0,4.123 -6.379,7.467 -14.253,7.467 M 46.151,57.464 c -5.998,0 -10.859,-3.039 -10.859,-6.788 0,-3.747 4.861,-6.785 10.859,-6.785 5.996,0 10.86,3.038 10.86,6.785 0,3.749 -4.864,6.788 -10.86,6.788 m -83.707,29.862 c -9.746,0 -17.647,-4.153 -17.647,-9.276 0,-5.122 7.901,-9.276 17.647,-9.276 9.747,0 17.646,4.154 17.646,9.276 0,5.123 -7.899,9.276 -17.646,9.276 m 74.658,65.238 c -9.746,0 -17.647,-3.348 -17.647,-7.479 0,-4.132 7.901,-7.482 17.647,-7.482 9.745,0 17.646,3.35 17.646,7.482 0,4.131 -7.901,7.479 -17.646,7.479"
         style="fill:#d6ea60;fill-opacity:1;fill-rule:evenodd;stroke:none"
         transform="matrix(1.3333333,0,0,-1.3333333,716.556,235.026)"
         clip-path="url(#clipPath25)" />
      <path
         id="path26"
         d="m 0,0 v -113.151 -39.795 -7.757 H -15.481 -82 -658.792 V 25.725 c 2.818,0.214 5.694,0.325 8.618,0.325 34.635,0 62.71,-15.426 62.71,-34.455 0,-4.352 -1.473,-8.513 -4.151,-12.347 37.957,-9.834 65.003,-27.623 70.605,-48.493 12.175,6.247 26.458,9.845 41.737,9.845 38.273,0 70.32,-22.567 78.565,-52.834 8.929,2.073 18.695,3.219 28.938,3.219 7.775,0 15.276,-0.662 22.347,-1.884 14.419,20.588 47.118,34.96 85.151,34.96 11.607,0 22.71,-1.341 32.954,-3.785 14.32,29.858 59.94,52.528 115.939,56.29 7.49,14.228 43.648,25.02 87.128,25.02 C -18.374,1.586 -8.872,1.027 0,0"
         style="fill:#414f1e;fill-opacity:1;fill-rule:evenodd;stroke:none"
         transform="matrix(1.3333333,0,0,-1.3333333,879.5052,665.7292)"
         clip-path="url(#clipPath27)" />
      <path
         id="path28"
         d="m 0,0 c 7.8,0 15.373,-2.853 16.916,-6.373 0.05,-0.114 0.092,-0.229 0.128,-0.341 h -28.206 c -0.063,0.112 -0.119,0.227 -0.168,0.341 C -12.871,-2.853 -7.8,0 0,0 m -62.984,1.034 c 10.179,0 19.816,-3.161 21.525,-7.061 0.104,-0.232 0.171,-0.46 0.213,-0.687 h -36.692 c -0.157,0.227 -0.287,0.455 -0.388,0.687 -1.707,3.9 5.16,7.061 15.342,7.061 m -148.575,-4.007 c -0.567,0.678 -1.022,1.387 -1.341,2.114 -2.081,4.753 2.336,8.64 9.94,8.939 1.319,5.898 8.349,10.011 18.621,10.011 10.33,0 21.029,-4.161 27.506,-10.112 1.877,0.63 4.103,0.98 6.599,0.98 7.14,0 14.543,-2.855 19.146,-6.972 1.526,0.276 3.217,0.426 5.045,0.426 9.37,0 18.692,-3.932 20.816,-8.784 0.052,-0.116 0.095,-0.229 0.137,-0.343 h -117.588 c 1.765,1.747 5.77,3.107 11.119,3.741 m -171.434,-0.131 c 6.053,0 11.866,-1.244 15.396,-3.079 -0.205,0.337 -0.386,0.678 -0.538,1.024 -2.958,6.752 6.059,12.227 20.142,12.227 2.374,0 4.743,-0.155 7.051,-0.446 3.045,3.217 11.522,5.435 22.458,5.435 13.826,0 26.828,-3.549 30.836,-8.172 2.026,0.276 4.269,0.427 6.671,0.427 11.418,0 22.161,-3.395 23.994,-7.581 0.545,-1.24 0.244,-2.411 -0.743,-3.445 h -138.431 c 1.515,2.122 6.545,3.61 13.164,3.61 M 90.962,8.271 c 14.367,0 28.009,-4.552 30.467,-10.165 0.141,-0.323 0.24,-0.641 0.302,-0.955 1.602,-0.13 3.162,-0.392 4.611,-0.76 1.909,1.063 4.827,1.715 8.351,1.715 6.261,0 12.408,-2.054 15.014,-4.82 H 34.761 c -0.564,0.601 -1.003,1.236 -1.29,1.891 -1.667,3.806 2.38,6.891 9.043,6.891 1.632,0 3.272,-0.186 4.843,-0.523 -0.082,4.256 5.096,7.414 12.917,7.414 5.066,0 10.185,-1.325 14.153,-3.416 3.906,1.691 9.684,2.728 16.535,2.728"
         style="fill:#9ac421;fill-opacity:1;fill-rule:evenodd;stroke:none"
         transform="matrix(1.3333333,0,0,-1.3333333,612.34893,591.02733)"
         clip-path="url(#clipPath29)" />
    </g>
  </g>
</svg>
