<?xml version="1.0" encoding="UTF-8" standalone="no"?>
<!-- Created with Inkscape (http://www.inkscape.org/) -->

<svg
   version="1.1"
   id="svg1"
   width="880"
   height="880"
   viewBox="0 0 880 880"
   sodipodi:docname="cityscape-vector.svg"
   inkscape:version="1.3.2 (091e20e, 2023-11-25, custom)"
   xmlns:inkscape="http://www.inkscape.org/namespaces/inkscape"
   xmlns:sodipodi="http://sodipodi.sourceforge.net/DTD/sodipodi-0.dtd"
   xmlns="http://www.w3.org/2000/svg"
   xmlns:svg="http://www.w3.org/2000/svg">
  <defs
     id="defs1">
    <clipPath
       clipPathUnits="userSpaceOnUse"
       id="clipPath5">
      <path
         d="M 0,660 H 660 V 0 H 0 Z"
         transform="translate(-330.33351,-332.02151)"
         id="path5" />
    </clipPath>
    <clipPath
       clipPathUnits="userSpaceOnUse"
       id="clipPath7">
      <path
         d="M 0,660 H 660 V 0 H 0 Z"
         transform="translate(-660.00002,-408.57571)"
         id="path7" />
    </clipPath>
    <clipPath
       clipPathUnits="userSpaceOnUse"
       id="clipPath9">
      <path
         d="M 0,660 H 660 V 0 H 0 Z"
         transform="translate(-660.00002,-338.43411)"
         id="path9" />
    </clipPath>
    <clipPath
       clipPathUnits="userSpaceOnUse"
       id="clipPath11">
      <path
         d="M 0,660 H 660 V 0 H 0 Z"
         id="path11" />
    </clipPath>
    <clipPath
       clipPathUnits="userSpaceOnUse"
       id="clipPath13">
      <path
         d="M 0,660 H 660 V 0 H 0 Z"
         transform="translate(-330.33351,-75.806604)"
         id="path13" />
    </clipPath>
    <clipPath
       clipPathUnits="userSpaceOnUse"
       id="clipPath15">
      <path
         d="M 0,660 H 660 V 0 H 0 Z"
         transform="translate(-660.00002,-198.2988)"
         id="path15" />
    </clipPath>
    <clipPath
       clipPathUnits="userSpaceOnUse"
       id="clipPath17">
      <path
         d="M 0,660 H 660 V 0 H 0 Z"
         transform="translate(-83.984905,-482.00391)"
         id="path17" />
    </clipPath>
    <clipPath
       clipPathUnits="userSpaceOnUse"
       id="clipPath19">
      <path
         d="M 0,660 H 660 V 0 H 0 Z"
         transform="translate(-83.984905,-155.5381)"
         id="path19" />
    </clipPath>
    <clipPath
       clipPathUnits="userSpaceOnUse"
       id="clipPath21">
      <path
         d="M 0,660 H 660 V 0 H 0 Z"
         transform="translate(-660.00002,-237.77151)"
         id="path21" />
    </clipPath>
    <clipPath
       clipPathUnits="userSpaceOnUse"
       id="clipPath23">
      <path
         d="M 0,660 H 660 V 0 H 0 Z"
         transform="translate(-326.99411,-228.19531)"
         id="path23" />
    </clipPath>
    <clipPath
       clipPathUnits="userSpaceOnUse"
       id="clipPath25">
      <path
         d="M 0,660 H 660 V 0 H 0 Z"
         transform="translate(-318.49121,-172.458)"
         id="path25" />
    </clipPath>
    <clipPath
       clipPathUnits="userSpaceOnUse"
       id="clipPath27">
      <path
         d="M 0,660 H 660 V 0 H 0 Z"
         transform="translate(-307.63131,-43.668001)"
         id="path27" />
    </clipPath>
    <clipPath
       clipPathUnits="userSpaceOnUse"
       id="clipPath29">
      <path
         d="M 0,660 H 660 V 0 H 0 Z"
         transform="translate(-429.70311,-79.881804)"
         id="path29" />
    </clipPath>
    <clipPath
       clipPathUnits="userSpaceOnUse"
       id="clipPath31">
      <path
         d="M 0,660 H 660 V 0 H 0 Z"
         transform="translate(-461.63571,-140.4678)"
         id="path31" />
    </clipPath>
    <clipPath
       clipPathUnits="userSpaceOnUse"
       id="clipPath33">
      <path
         d="M 0,660 H 660 V 0 H 0 Z"
         transform="translate(-397.44731,-212.70121)"
         id="path33" />
    </clipPath>
  </defs>
  <sodipodi:namedview
     id="namedview1"
     pagecolor="#ffffff"
     bordercolor="#000000"
     borderopacity="0.25"
     inkscape:showpageshadow="2"
     inkscape:pageopacity="0.0"
     inkscape:pagecheckerboard="0"
     inkscape:deskcolor="#d1d1d1"
     inkscape:zoom="0.67272727"
     inkscape:cx="439.25676"
     inkscape:cy="440"
     inkscape:window-width="1440"
     inkscape:window-height="830"
     inkscape:window-x="-6"
     inkscape:window-y="-6"
     inkscape:window-maximized="1"
     inkscape:current-layer="g1">
    <inkscape:page
       x="0"
       y="0"
       inkscape:label="1"
       id="page1"
       width="880"
       height="880"
       margin="0.89066535 0 0 0.8893227"
       bleed="0" />
  </sodipodi:namedview>
  <g
     id="g1"
     inkscape:groupmode="layer"
     inkscape:label="1">
    <g
       id="group-MC0">
      <path
         id="path2"
         d="M 0.667,0.668 H 660 V 660 H 0.667 Z"
         style="fill:#c0e9d0;fill-opacity:1;fill-rule:nonzero;stroke:none"
         transform="matrix(1.3333333,0,0,-1.3333333,0,880)" />
      <path
         id="path3"
         d="m 0,0 v -138.441 h -647.999 v 97.347 h 16.243 V 1.417 h 6.035 v 7.085 h 17.409 v 10.392 h 16.479 V 8.502 h 11.142 l 4.642,-7.085 v -15.115 h 12.766 v -8.503 h 18.802 v -26.451 h 24.14 V 0.472 h 5.802 v 9.447 l 16.015,16.769 h 17.873 V 9.919 h 7.893 V 0.472 h 7.196 v -42.511 h 14.39 V 36.37 h 12.766 v 5.669 h 9.982 v 4.724 h 22.747 l 8.82,-4.724 V 36.37 h 11.141 V -89.746 h 24.14 v 75.575 h 13.928 v 25.98 h 45.495 v -25.98 h 11.602 v -19.838 h 15.322 v -45.345 h 14.855 v 27.396 h 17.176 V 5.668 h 2.785 v 12.754 l 24.14,25.034 h 16.713 v 14.642 h 40.851 L -145.71,43.456 V 18.422 h 9.748 V 5.668 H -122.5 V -78.41 h 25.998 v 21.432 h 24.14 v 38.716 l 18.103,5.037 h 19.961 V 0 Z"
         style="fill:#ffffff;fill-opacity:1;fill-rule:evenodd;stroke:none"
         transform="matrix(1.3333333,0,0,-1.3333333,872.444,329.56387)" />
      <path
         id="path4"
         d="m 0,0 c 75.986,0 137.96,61.974 137.96,137.96 0,75.986 -61.974,137.96 -137.96,137.96 -75.986,0 -137.96,-61.974 -137.96,-137.96 C -137.96,61.974 -75.986,0 0,0"
         style="fill:#ffffff;fill-opacity:1;fill-rule:evenodd;stroke:none"
         transform="matrix(1.3333333,0,0,-1.3333333,440.44467,437.30467)"
         clip-path="url(#clipPath5)" />
      <path
         id="path6"
         d="m 0,0 v -138.441 h -659.333 v 97.347 h 16.527 V 1.418 h 6.139 v 7.085 h 17.713 v 10.392 h 16.769 V 8.503 h 11.336 l 4.724,-7.085 v -15.116 h 12.989 v -8.503 h 19.131 v -26.45 h 24.562 V 0.473 h 5.904 V 9.92 l 16.295,16.768 h 18.186 V 9.92 h 8.03 V 0.473 h 7.321 v -42.512 h 14.643 v 78.41 h 12.99 v 5.668 h 10.156 v 4.724 h 23.145 l 8.974,-4.724 v -5.668 h 11.336 V -89.746 h 24.563 v 75.576 h 14.17 v 25.98 h 46.29 v -25.98 h 11.808 v -19.838 h 15.59 v -45.346 h 15.114 v 27.397 h 17.476 V 5.668 h 2.834 v 12.754 l 24.561,25.034 h 17.006 v 14.643 h 41.568 l 13.224,-14.643 V 18.422 h 9.92 V 5.668 h 13.696 v -84.077 h 26.453 v 21.431 h 24.561 v 38.716 l 18.424,5.037 h 20.308 V 0 Z"
         style="fill:#7acca2;fill-opacity:1;fill-rule:evenodd;stroke:none"
         transform="matrix(1.3333333,0,0,-1.3333333,880,335.2324)"
         clip-path="url(#clipPath7)" />
      <path
         id="path8"
         d="m 0,0 v -68.299 h -659.333 v 59.56 h 37.93 V 5.432 h 44.873 v -37.317 h 15.587 v 11.339 h 39.677 V 6.376 h 45.345 v -41.093 h 20.312 v 20.31 h 41.566 v -20.31 h 21.58 v -9.447 h 28.961 v 8.029 h 16.532 v 17.476 h 55.738 V -43.22 h 11.808 v 20.782 h 38.26 v -9.917 h 3.307 v 29.756 h 31.174 v -20.783 h 41.094 v -14.17 h 24.798 v 15.588 h 29.049 V -43.22 h 12.282 v 21.018 h 17.477 v 3.072 h 16.058 v 14.643 h 42.277 v -35.19 h 12.279 V 0 Z"
         style="fill:#69b591;fill-opacity:1;fill-rule:evenodd;stroke:none"
         transform="matrix(1.3333333,0,0,-1.3333333,880,428.75453)"
         clip-path="url(#clipPath9)" />
      <path
         id="path10"
         d="M 0.667,0.668 H 660 V 270.135 H 0.667 Z"
         style="fill:#4f97b5;fill-opacity:1;fill-rule:evenodd;stroke:none"
         transform="matrix(1.3333333,0,0,-1.3333333,0,880)"
         clip-path="url(#clipPath11)" />
      <path
         id="path12"
         d="m 0,0 c 75.986,0 137.96,36.878 137.96,82.089 0,45.213 -61.974,82.089 -137.96,82.089 -75.986,0 -137.96,-36.876 -137.96,-82.089 C -137.96,36.878 -75.986,0 0,0"
         style="fill:#78c1d7;fill-opacity:1;fill-rule:evenodd;stroke:none"
         transform="matrix(1.3333333,0,0,-1.3333333,440.44467,778.92453)"
         clip-path="url(#clipPath13)" />
      <path
         id="path14"
         d="M 0,0 V 71.836 H -659.333 V 21.323 h 16.527 V -0.735 h 6.139 v -3.676 h 17.713 v -5.393 h 16.769 v 5.393 h 11.336 l 4.724,3.676 v 7.843 h 12.989 v 4.412 h 19.131 v 13.725 h 24.562 v -25.49 h 5.904 v -4.901 l 16.295,-8.702 h 18.186 v 8.702 h 8.03 v 4.901 h 7.321 v 22.058 h 14.643 v -40.685 h 12.99 v -2.941 h 10.156 v -2.452 h 23.145 l 8.974,2.452 v 2.941 h 11.336 v 65.44 H -367.9 V 7.353 h 14.17 V -6.128 h 46.29 V 7.353 h 11.808 v 10.293 h 15.59 v 23.531 h 15.114 V 26.961 h 17.476 V -2.941 h 2.834 V -9.56 l 24.561,-12.989 h 17.006 v -7.598 h 41.568 l 13.224,7.598 V -9.56 h 9.92 v 6.619 h 13.696 v 43.627 h 26.453 v -11.12 h 24.561 V 9.476 l 18.424,-2.614 h 20.308 V 0 Z"
         style="fill:#4182a0;fill-opacity:1;fill-rule:evenodd;stroke:none"
         transform="matrix(1.3333333,0,0,-1.3333333,880,615.6016)"
         clip-path="url(#clipPath15)" />
      <path
         id="path16"
         d="m 0,0 c 1.733,0 3.273,-0.574 4.458,-1.543 2.438,3.428 6.445,5.72 10.747,5.72 4.191,0 7.646,-2.174 9.412,-5.454 0.729,0.248 1.5,0.382 2.289,0.382 1.438,0 2.725,-0.447 3.742,-1.21 2.001,2.448 5.03,4.045 8.265,4.045 4.971,0 8.667,-3.771 8.667,-8.608 l 7.331,-1.014 -7.543,-1.015 c -1.014,-4.837 -5.499,-8.607 -10.471,-8.607 -3.235,0 -5.929,1.597 -7.417,4.045 -1.178,-0.763 -2.559,-1.211 -3.996,-1.211 -0.789,0 -1.531,0.136 -2.211,0.383 -2.452,-3.281 -6.363,-5.454 -10.553,-5.454 -4.303,0 -7.83,2.292 -9.549,5.72 -1.387,-0.968 -3.047,-1.543 -4.782,-1.543 -3.778,0 -6.634,2.727 -6.9,6.322 l -9.822,1.36 10.108,1.36 C -7.207,-2.728 -3.779,0 0,0 m 409.586,139.49 c 4.361,0 8.231,-1.446 11.207,-3.882 6.129,8.621 16.206,14.382 27.025,14.382 10.535,0 19.22,-5.464 23.657,-13.713 1.836,0.622 3.776,0.961 5.76,0.961 3.613,0 6.848,-1.124 9.407,-3.042 5.03,6.156 12.647,10.169 20.778,10.169 12.501,0 21.791,-9.477 21.791,-21.639 l 18.433,-2.552 -18.968,-2.551 c -2.55,-12.161 -13.826,-21.639 -26.323,-21.639 -8.134,0 -14.908,4.014 -18.651,10.169 -2.958,-1.917 -6.43,-3.043 -10.043,-3.043 -1.984,0 -3.851,0.339 -5.558,0.962 -6.168,-8.249 -15.996,-13.713 -26.532,-13.713 -10.82,0 -19.687,5.762 -24.009,14.382 -3.488,-2.436 -7.661,-3.881 -12.021,-3.881 -9.501,0 -16.681,6.859 -17.348,15.896 l -24.695,3.418 25.412,3.42 c 2.561,9.036 11.177,15.896 20.678,15.896 M 378.395,34.991 c 5.637,0 10.249,-2.56 12.925,-6.581 2.32,1.312 4.931,2.073 7.593,2.073 4.724,0 8.495,-2.39 10.357,-6.026 1.681,1.045 3.611,1.656 5.584,1.656 2.33,0 4.317,-0.853 5.72,-2.263 3.953,6.936 11.561,11.833 19.504,11.833 5.415,0 9.919,-2.279 12.761,-5.929 0.378,0.032 0.757,0.049 1.135,0.049 6.876,0 11.624,-5.328 10.987,-12.082 L 475.91,16.775 464.648,15.828 C 463.042,9.075 456.527,3.747 449.651,3.747 c -0.379,0 -0.751,0.017 -1.116,0.048 -4.054,-3.649 -9.316,-5.928 -14.733,-5.928 -7.942,0 -13.926,4.896 -15.576,11.834 -1.869,-1.411 -4.143,-2.264 -6.472,-2.264 -1.972,0 -3.699,0.611 -5.034,1.655 -3.068,-3.635 -7.631,-6.026 -12.354,-6.026 -2.663,0 -5.022,0.761 -6.907,2.074 -4.008,-4.021 -9.471,-6.581 -15.108,-6.581 -9.742,0 -16.431,7.649 -15.327,17.27 l -10.936,0.946 11.249,0.946 c 2.09,9.62 11.316,17.27 21.058,17.27 M -13.937,94.883 c 6.412,0 11.658,-2.912 14.7,-7.486 2.64,1.495 5.611,2.359 8.638,2.359 5.373,0 9.661,-2.718 11.778,-6.854 1.912,1.188 4.107,1.884 6.351,1.884 2.65,0 4.912,-0.971 6.507,-2.575 4.495,7.891 13.149,13.459 22.181,13.459 6.161,0 11.286,-2.592 14.518,-6.743 0.427,0.036 0.857,0.055 1.288,0.055 7.821,0 13.221,-6.059 12.498,-13.74 L 96.972,74.165 84.165,73.088 C 82.339,65.406 74.929,59.347 67.107,59.347 c -0.43,0 -0.854,0.019 -1.27,0.055 -4.609,-4.151 -10.595,-6.743 -16.756,-6.743 -9.032,0 -15.838,5.569 -17.714,13.46 -2.127,-1.605 -4.711,-2.576 -7.362,-2.576 -2.243,0 -4.209,0.696 -5.726,1.884 -3.49,-4.135 -8.679,-6.854 -14.051,-6.854 -3.029,0 -5.712,0.865 -7.856,2.359 -4.56,-4.574 -10.773,-7.486 -17.183,-7.486 -11.083,0 -18.688,8.7 -17.433,19.643 l -12.437,1.076 12.794,1.076 c 2.376,10.942 12.869,19.642 23.95,19.642"
         style="fill:#ffffff;fill-opacity:1;fill-rule:evenodd;stroke:none"
         transform="matrix(1.3333333,0,0,-1.3333333,111.97987,237.32813)"
         clip-path="url(#clipPath17)" />
      <path
         id="path18"
         d="m 0,0 c 1.733,0 3.273,0.377 4.458,1.012 2.438,-2.246 6.445,-3.747 10.747,-3.747 4.191,0 7.646,1.423 9.412,3.573 0.729,-0.162 1.5,-0.252 2.289,-0.252 1.438,0 2.725,0.294 3.742,0.794 2.001,-1.605 5.03,-2.65 8.265,-2.65 4.971,0 8.667,2.469 8.667,5.638 l 7.331,0.665 -7.543,0.664 c -1.014,3.169 -5.499,5.638 -10.471,5.638 -3.235,0 -5.929,-1.047 -7.417,-2.65 -1.178,0.5 -2.559,0.792 -3.996,0.792 -0.789,0 -1.531,-0.086 -2.211,-0.25 -2.452,2.15 -6.363,3.574 -10.553,3.574 -4.303,0 -7.83,-1.502 -9.549,-3.747 -1.387,0.634 -3.047,1.009 -4.782,1.009 -3.778,0 -6.634,-1.786 -6.9,-4.14 L -18.333,5.033 -8.225,4.141 C -7.207,1.787 -3.779,0 0,0 m 409.586,-91.361 c 4.361,0 8.231,0.947 11.207,2.543 6.129,-5.65 16.206,-9.422 27.025,-9.422 10.535,0 19.22,3.579 23.657,8.982 1.836,-0.409 3.776,-0.631 5.76,-0.631 3.613,0 6.848,0.739 9.407,1.994 5.03,-4.033 12.647,-6.662 20.778,-6.662 12.501,0 21.791,6.209 21.791,14.174 l 18.433,1.673 -18.968,1.67 c -2.55,7.968 -13.826,14.173 -26.323,14.173 -8.134,0 -14.908,-2.629 -18.651,-6.66 -2.958,1.257 -6.43,1.992 -10.043,1.992 -1.984,0 -3.851,-0.222 -5.558,-0.627 -6.168,5.399 -15.996,8.979 -26.532,8.979 -10.82,0 -19.687,-3.773 -24.009,-9.42 -3.488,1.597 -7.661,2.544 -12.021,2.544 -9.501,0 -16.681,-4.493 -17.348,-10.413 l -24.695,-2.238 25.412,-2.242 c 2.561,-5.916 11.177,-10.409 20.678,-10.409 m -31.191,68.444 c 5.637,0 10.249,1.679 12.925,4.31 2.32,-0.86 4.931,-1.358 7.593,-1.358 4.724,0 8.495,1.565 10.357,3.947 1.681,-0.684 3.611,-1.085 5.584,-1.085 2.33,0 4.317,0.56 5.72,1.482 3.953,-4.541 11.561,-7.748 19.504,-7.748 5.415,0 9.919,1.491 12.761,3.881 0.378,-0.019 0.757,-0.032 1.135,-0.032 6.876,0 11.624,3.49 10.987,7.913 l 10.949,0.62 -11.262,0.621 c -1.606,4.424 -8.121,7.912 -14.997,7.912 -0.379,0 -0.751,-0.011 -1.116,-0.03 -4.054,2.389 -9.316,3.882 -14.733,3.882 -7.942,0 -13.926,-3.208 -15.576,-7.751 -1.869,0.924 -4.143,1.484 -6.472,1.484 -1.972,0 -3.699,-0.402 -5.034,-1.086 -3.068,2.382 -7.631,3.947 -12.354,3.947 -2.663,0 -5.022,-0.498 -6.907,-1.357 -4.008,2.633 -9.471,4.309 -15.108,4.309 -9.742,0 -16.431,-5.009 -15.327,-11.31 l -10.936,-0.621 11.249,-0.618 c 2.09,-6.303 11.316,-11.312 21.058,-11.312 M -13.937,-62.145 c 6.412,0 11.658,1.908 14.7,4.903 2.64,-0.979 5.611,-1.544 8.638,-1.544 5.373,0 9.661,1.78 11.778,4.486 1.912,-0.777 4.107,-1.232 6.351,-1.232 2.65,0 4.912,0.636 6.507,1.687 4.495,-5.169 13.149,-8.816 22.181,-8.816 6.161,0 11.286,1.697 14.518,4.416 0.427,-0.022 0.857,-0.037 1.288,-0.037 7.821,0 13.221,3.971 12.498,9.001 l 12.45,0.708 -12.807,0.704 c -1.826,5.031 -9.236,9.001 -17.058,9.001 -0.43,0 -0.854,-0.013 -1.27,-0.037 -4.609,2.719 -10.595,4.416 -16.756,4.416 -9.032,0 -15.838,-3.648 -17.714,-8.817 -2.127,1.052 -4.711,1.689 -7.362,1.689 -2.243,0 -4.209,-0.455 -5.726,-1.234 -3.49,2.706 -8.679,4.487 -14.051,4.487 -3.029,0 -5.712,-0.566 -7.856,-1.543 -4.56,2.995 -10.773,4.901 -17.183,4.901 -11.083,0 -18.688,-5.698 -17.433,-12.863 l -12.437,-0.704 12.794,-0.708 c 2.376,-7.165 12.869,-12.864 23.95,-12.864"
         style="fill:#78c1d7;fill-opacity:1;fill-rule:evenodd;stroke:none"
         transform="matrix(1.3333333,0,0,-1.3333333,111.97987,672.61587)"
         clip-path="url(#clipPath19)" />
      <path
         id="path20"
         d="M 0,0 V 32.363 H -659.333 V 4.143 h 37.93 v -6.715 h 44.873 v 17.68 h 15.587 V 9.737 h 39.677 V -3.02 h 45.345 v 19.47 h 20.312 V 6.827 h 41.566 v 9.623 h 21.58 v 4.478 h 28.961 v -3.805 h 16.532 V 8.841 h 55.738 V 20.48 h 11.808 v -9.847 h 38.26 v 4.698 h 3.307 v -14.1 h 31.174 v 9.849 h 41.094 v 6.715 h 24.798 v -7.387 h 29.049 V 20.48 h 12.282 v -9.959 h 17.477 V 9.065 h 16.058 V 2.127 h 42.277 v 16.675 h 12.279 l 0,-18.802 z"
         style="fill:#336b88;fill-opacity:1;fill-rule:evenodd;stroke:none"
         transform="matrix(1.3333333,0,0,-1.3333333,880,562.97133)"
         clip-path="url(#clipPath21)" />
      <path
         id="path22"
         d="M 0,0 166.503,0.974 333.006,1.945 V 0 -1.945 l -166.503,0.971 z"
         style="fill:#78c1d7;fill-opacity:1;fill-rule:evenodd;stroke:none"
         transform="matrix(1.3333333,0,0,-1.3333333,435.99213,575.7396)"
         clip-path="url(#clipPath23)" />
      <path
         id="path24"
         d="M 0,0 170.753,0.974 341.509,1.945 V 0 -1.945 l -170.756,0.971 z"
         style="fill:#abe4f2;fill-opacity:1;fill-rule:evenodd;stroke:none"
         transform="matrix(1.3333333,0,0,-1.3333333,424.65493,650.056)"
         clip-path="url(#clipPath25)" />
      <path
         id="path26"
         d="M 0,0 176.184,0.972 352.369,1.947 V 0 -1.946 l -176.185,0.974 z"
         style="fill:#d4f1f9;fill-opacity:1;fill-rule:evenodd;stroke:none"
         transform="matrix(1.3333333,0,0,-1.3333333,410.17507,821.776)"
         clip-path="url(#clipPath27)" />
      <path
         id="path28"
         d="M 0,0 -214.518,0.972 -429.036,1.943 V 0 -1.947 l 214.518,0.972 z"
         style="fill:#d4f1f9;fill-opacity:1;fill-rule:evenodd;stroke:none"
         transform="matrix(1.3333333,0,0,-1.3333333,572.93747,773.49093)"
         clip-path="url(#clipPath29)" />
      <path
         id="path30"
         d="M 0,0 -230.485,0.971 -460.969,1.944 V 0 -1.946 l 230.484,0.971 z"
         style="fill:#abe4f2;fill-opacity:1;fill-rule:evenodd;stroke:none"
         transform="matrix(1.3333333,0,0,-1.3333333,615.51427,692.7096)"
         clip-path="url(#clipPath31)" />
      <path
         id="path32"
         d="M 0,0 -198.39,0.974 -396.78,1.945 V 0 -1.945 l 198.39,0.971 z"
         style="fill:#78c1d7;fill-opacity:1;fill-rule:evenodd;stroke:none"
         transform="matrix(1.3333333,0,0,-1.3333333,529.92973,596.3984)"
         clip-path="url(#clipPath33)" />
    </g>
  </g>
</svg>
