<?xml version="1.0" encoding="UTF-8" standalone="no"?>
<!-- Created with Inkscape (http://www.inkscape.org/) -->

<svg
   version="1.1"
   id="svg1"
   width="880"
   height="880"
   viewBox="0 0 880 880"
   sodipodi:docname="desert-landscape-in-the-sunset.svg"
   inkscape:version="1.3.2 (091e20e, 2023-11-25, custom)"
   xmlns:inkscape="http://www.inkscape.org/namespaces/inkscape"
   xmlns:sodipodi="http://sodipodi.sourceforge.net/DTD/sodipodi-0.dtd"
   xmlns="http://www.w3.org/2000/svg"
   xmlns:svg="http://www.w3.org/2000/svg">
  <defs
     id="defs1">
    <linearGradient
       x1="0"
       y1="0"
       x2="1"
       y2="0"
       gradientUnits="userSpaceOnUse"
       gradientTransform="matrix(0,660.76605,660.76605,0,331.21414,-1.4023)"
       spreadMethod="pad"
       id="linearGradient3">
      <stop
         style="stop-opacity:1;stop-color:#fabb00"
         offset="0"
         id="stop2" />
      <stop
         style="stop-opacity:1;stop-color:#ca2260"
         offset="1"
         id="stop3" />
    </linearGradient>
    <clipPath
       clipPathUnits="userSpaceOnUse"
       id="clipPath5">
      <path
         d="M 0,660 H 660 V 0 H 0 Z"
         transform="translate(-661.59772,-515.78962)"
         id="path5" />
    </clipPath>
    <clipPath
       clipPathUnits="userSpaceOnUse"
       id="clipPath7">
      <path
         d="M 0,660 H 660 V 0 H 0 Z"
         transform="translate(-331.21481,-209.23831)"
         id="path7" />
    </clipPath>
    <clipPath
       clipPathUnits="userSpaceOnUse"
       id="clipPath9">
      <path
         d="M 0,660 H 660 V 0 H 0 Z"
         transform="translate(-0.83150005,-438.08691)"
         id="path9" />
    </clipPath>
    <clipPath
       clipPathUnits="userSpaceOnUse"
       id="clipPath11">
      <path
         d="M 0,660 H 660 V 0 H 0 Z"
         transform="translate(-0.83150005,-432.64551)"
         id="path11" />
    </clipPath>
    <clipPath
       clipPathUnits="userSpaceOnUse"
       id="clipPath13">
      <path
         d="M 0,660 H 660 V 0 H 0 Z"
         transform="translate(-0.83150005,-383.57131)"
         id="path13" />
    </clipPath>
    <linearGradient
       x1="0"
       y1="0"
       x2="1"
       y2="0"
       gradientUnits="userSpaceOnUse"
       gradientTransform="matrix(0,-338.21381,-338.21381,0,331.2146,380.24017)"
       spreadMethod="pad"
       id="linearGradient14">
      <stop
         style="stop-opacity:1;stop-color:#fabb00"
         offset="0"
         id="stop13" />
      <stop
         style="stop-opacity:1;stop-color:#ca2260"
         offset="1"
         id="stop14" />
    </linearGradient>
    <linearGradient
       x1="0"
       y1="0"
       x2="1"
       y2="0"
       gradientUnits="userSpaceOnUse"
       gradientTransform="matrix(0,-338.21329,-338.21329,0,331.2146,336.811)"
       spreadMethod="pad"
       id="linearGradient16">
      <stop
         style="stop-opacity:1;stop-color:#fabb00"
         offset="0"
         id="stop15" />
      <stop
         style="stop-opacity:1;stop-color:#ca2260"
         offset="1"
         id="stop16" />
    </linearGradient>
    <clipPath
       clipPathUnits="userSpaceOnUse"
       id="clipPath18">
      <path
         d="M 0,660 H 660 V 0 H 0 Z"
         transform="translate(-118.4556,-280.7119)"
         id="path18" />
    </clipPath>
    <clipPath
       clipPathUnits="userSpaceOnUse"
       id="clipPath20">
      <path
         d="M 0,660 H 660 V 0 H 0 Z"
         transform="translate(-116.1943,-278.9023)"
         id="path20" />
    </clipPath>
    <clipPath
       clipPathUnits="userSpaceOnUse"
       id="clipPath22">
      <path
         d="M 0,660 H 660 V 0 H 0 Z"
         transform="translate(-110.7676,-170.1592)"
         id="path22" />
    </clipPath>
    <clipPath
       clipPathUnits="userSpaceOnUse"
       id="clipPath24">
      <path
         d="M 0,660 H 660 V 0 H 0 Z"
         transform="translate(-130.67331,-129.7852)"
         id="path24" />
    </clipPath>
    <clipPath
       clipPathUnits="userSpaceOnUse"
       id="clipPath26">
      <path
         d="M 0,660 H 660 V 0 H 0 Z"
         transform="translate(-544.32131,-320.97561)"
         id="path26" />
    </clipPath>
    <clipPath
       clipPathUnits="userSpaceOnUse"
       id="clipPath28">
      <path
         d="M 0,660 H 660 V 0 H 0 Z"
         transform="translate(-563.51561,-149.52441)"
         id="path28" />
    </clipPath>
    <clipPath
       clipPathUnits="userSpaceOnUse"
       id="clipPath30">
      <path
         d="M 0,660 H 660 V 0 H 0 Z"
         transform="translate(-547.06741,-318.91991)"
         id="path30" />
    </clipPath>
    <clipPath
       clipPathUnits="userSpaceOnUse"
       id="clipPath32">
      <path
         d="M 0,660 H 660 V 0 H 0 Z"
         transform="translate(-540.90331,-195.3877)"
         id="path32" />
    </clipPath>
    <linearGradient
       x1="0"
       y1="0"
       x2="1"
       y2="0"
       gradientUnits="userSpaceOnUse"
       gradientTransform="matrix(0,-135.541,-135.541,0,331.2146,134.13869)"
       spreadMethod="pad"
       id="linearGradient33">
      <stop
         style="stop-opacity:1;stop-color:#bf313b"
         offset="0"
         id="stop32" />
      <stop
         style="stop-opacity:1;stop-color:#900f19"
         offset="1"
         id="stop33" />
    </linearGradient>
    <clipPath
       clipPathUnits="userSpaceOnUse"
       id="clipPath35">
      <path
         d="M 0,660 H 660 V 0 H 0 Z"
         transform="translate(-82.2412,-341.44531)"
         id="path35" />
    </clipPath>
    <clipPath
       clipPathUnits="userSpaceOnUse"
       id="clipPath37">
      <path
         d="M 0,660 H 660 V 0 H 0 Z"
         transform="translate(-163.7017,-322.68261)"
         id="path37" />
    </clipPath>
    <clipPath
       clipPathUnits="userSpaceOnUse"
       id="clipPath39">
      <path
         d="M 0,660 H 660 V 0 H 0 Z"
         transform="translate(-536.97851,-375.07571)"
         id="path39" />
    </clipPath>
    <clipPath
       clipPathUnits="userSpaceOnUse"
       id="clipPath41">
      <path
         d="M 0,660 H 660 V 0 H 0 Z"
         transform="translate(-490.02341,-364.11621)"
         id="path41" />
    </clipPath>
  </defs>
  <sodipodi:namedview
     id="namedview1"
     pagecolor="#ffffff"
     bordercolor="#000000"
     borderopacity="0.25"
     inkscape:showpageshadow="2"
     inkscape:pageopacity="0.0"
     inkscape:pagecheckerboard="0"
     inkscape:deskcolor="#d1d1d1"
     inkscape:zoom="0.67272727"
     inkscape:cx="439.25676"
     inkscape:cy="440"
     inkscape:window-width="1440"
     inkscape:window-height="830"
     inkscape:window-x="-6"
     inkscape:window-y="-6"
     inkscape:window-maximized="1"
     inkscape:current-layer="g1">
    <inkscape:page
       x="0"
       y="0"
       inkscape:label="1"
       id="page1"
       width="880"
       height="880"
       margin="0 0 0.84799999 1.1074626"
       bleed="0" />
  </sodipodi:namedview>
  <g
     id="g1"
     inkscape:groupmode="layer"
     inkscape:label="1">
    <g
       id="group-MC0">
      <path
         id="path3"
         d="M 0.831,0 H 660 V 659.363 H 0.831 Z"
         transform="matrix(1.3333333,0,0,-1.3333333,0,880)"
         style="fill:url(#linearGradient3);stroke:none" />
      <path
         id="path4"
         d="m 0,0 c -22.861,8.13 -46.534,3.496 -68.056,-13.802 l -63.84,-51.317 c -29.364,-23.604 -62.973,-23.604 -92.336,0 l -31.281,25.142 c -26.288,21.132 -55.519,23.363 -83.311,6.361 -26.902,-16.457 -56.446,-14.17 -82.613,6.864 l -50.866,40.888 c -29.362,23.602 -62.973,23.602 -92.335,0 l -2.09,-1.68 c -29.478,-23.695 -63.258,-23.597 -92.665,0.267 l -1.374,1.114 V -275.792 H 0 Z"
         style="fill:#e2615f;fill-opacity:1;fill-rule:evenodd;stroke:none"
         transform="matrix(1.3333333,0,0,-1.3333333,882.13027,192.28053)"
         clip-path="url(#clipPath5)" />
      <path
         id="path6"
         d="m 0,0 c 93.19,0 169.193,76.004 169.193,169.193 0,93.19 -76.003,169.196 -169.193,169.196 -93.189,0 -169.195,-76.006 -169.195,-169.196 C -169.195,76.004 -93.189,0 0,0"
         style="fill:#ffcb00;fill-opacity:1;fill-rule:evenodd;stroke:none"
         transform="matrix(1.3333333,0,0,-1.3333333,441.61973,601.0156)"
         clip-path="url(#clipPath7)" />
      <path
         id="path8"
         d="m 0,0 c 22.861,5.839 46.533,2.511 68.053,-9.913 l 63.843,-36.859 c 29.362,-16.954 62.973,-16.954 92.335,0 l 31.279,18.059 c 26.29,15.178 55.52,16.78 83.313,4.569 26.901,-11.822 56.445,-10.179 82.612,4.93 l 50.866,29.368 c 29.363,16.952 62.973,16.952 92.335,0 l 2.09,-1.208 c 29.478,-17.018 63.259,-16.948 92.666,0.192 l 1.374,0.801 V -198.089 H 0 Z"
         style="fill:#e9812b;fill-opacity:1;fill-rule:evenodd;stroke:none"
         transform="matrix(1.3333333,0,0,-1.3333333,1.1086667,295.88413)"
         clip-path="url(#clipPath9)" />
      <path
         id="path10"
         d="m 0,0 c 22.861,5.68 46.533,2.443 68.053,-9.64 l 63.843,-35.847 c 29.362,-16.488 62.973,-16.488 92.335,0 l 31.279,17.563 c 26.29,14.76 55.52,16.32 83.313,4.444 26.901,-11.498 56.445,-9.899 82.612,4.794 l 50.866,28.562 c 29.363,16.485 62.973,16.485 92.335,0 l 2.09,-1.174 c 29.478,-16.551 63.259,-16.484 92.666,0.187 l 1.374,0.777 V -192.647 H 0 Z"
         style="fill:#a92430;fill-opacity:1;fill-rule:evenodd;stroke:none"
         transform="matrix(1.3333333,0,0,-1.3333333,1.1086667,303.13933)"
         clip-path="url(#clipPath11)" />
      <path
         id="path12"
         d="M 0,0 C 22.861,4.232 46.533,1.82 68.053,-7.185 L 131.896,-33.9 c 29.362,-12.288 62.973,-12.288 92.335,0 l 31.279,13.089 c 26.29,11 55.52,12.162 83.313,3.312 26.901,-8.568 56.445,-7.376 82.612,3.574 L 472.301,7.36 c 29.363,12.286 62.973,12.286 92.335,0 l 2.09,-0.875 c 29.478,-12.334 63.259,-12.284 92.666,0.139 l 1.374,0.58 v -150.777 l -660.766,0 z"
         style="fill:#8e1721;fill-opacity:1;fill-rule:evenodd;stroke:none"
         transform="matrix(1.3333333,0,0,-1.3333333,1.1086667,368.5716)"
         clip-path="url(#clipPath13)" />
      <path
         id="path14"
         d="M 0.832,283.428 V 42.026 H 660 v 337.98 z"
         transform="matrix(1.3333333,0,0,-1.3333333,0,880)"
         style="fill:url(#linearGradient14);stroke:none" />
      <path
         id="path16"
         d="M 0.832,0 H 660 V 240.232 L 0.832,336.811 Z"
         transform="matrix(1.3333333,0,0,-1.3333333,0,880)"
         style="fill:url(#linearGradient16);stroke:none" />
      <path
         id="path17"
         d="m 0,0 h 0.001 c 12.192,0 22.166,-9.974 22.166,-22.167 v -105.577 h 7.454 c 2.349,0 4.487,0.963 6.039,2.515 1.552,1.552 2.514,3.69 2.514,6.038 v 63.548 c 0,5.903 4.785,10.685 10.687,10.685 5.903,0 10.686,-4.782 10.686,-10.685 v -63.548 c 0,-8.247 -3.359,-15.733 -8.776,-21.151 -5.417,-5.416 -12.901,-8.775 -21.15,-8.775 h -7.454 v -65.317 h -44.333 v 84.317 h -17.253 c -7.542,0 -14.385,3.072 -19.337,8.024 -4.953,4.954 -8.025,11.796 -8.025,19.337 v 67.924 c 0,5.901 4.785,10.686 10.687,10.686 5.902,0 10.686,-4.785 10.686,-10.686 v -67.924 c 0,-1.641 0.676,-3.137 1.763,-4.225 1.088,-1.087 2.584,-1.764 4.226,-1.764 h 17.253 v 86.578 C -22.166,-9.974 -12.192,0 0,0"
         style="fill:#ffa863;fill-opacity:1;fill-rule:evenodd;stroke:none"
         transform="matrix(1.3333333,0,0,-1.3333333,157.9408,505.71747)"
         clip-path="url(#clipPath18)" />
      <path
         id="path19"
         d="M 0,0 V 0 C 12.192,0 22.167,-9.975 22.167,-22.166 V -214.434 H -22.167 V -22.166 C -22.167,-9.975 -12.192,0 0,0"
         style="fill:#b23037;fill-opacity:1;fill-rule:evenodd;stroke:none"
         transform="matrix(1.3333333,0,0,-1.3333333,154.92573,508.13027)"
         clip-path="url(#clipPath20)" />
      <path
         id="path21"
         d="M 0,0 C 5.902,0 10.687,-4.785 10.687,-10.688 10.687,-16.59 5.902,-21.374 0,-21.374 h -33.993 c -7.542,0 -14.385,3.072 -19.337,8.024 -4.954,4.954 -8.024,11.796 -8.024,19.337 v 67.922 c 0,5.902 4.785,10.689 10.686,10.689 5.902,0 10.687,-4.787 10.687,-10.689 V 5.987 c 0,-1.64 0.674,-3.136 1.763,-4.224 C -37.131,0.674 -35.635,0 -33.993,0 Z"
         style="fill:#b23037;fill-opacity:1;fill-rule:evenodd;stroke:none"
         transform="matrix(1.3333333,0,0,-1.3333333,147.69013,653.12107)"
         clip-path="url(#clipPath22)" />
      <path
         id="path23"
         d="m 0,0 c -5.902,0 -10.687,4.784 -10.687,10.686 0,5.902 4.785,10.686 10.687,10.686 h 15.142 c 2.348,0 4.486,0.963 6.038,2.516 1.552,1.551 2.515,3.69 2.515,6.039 v 63.548 c 0,5.901 4.785,10.686 10.686,10.686 5.903,0 10.687,-4.785 10.687,-10.686 V 29.927 c 0,-8.248 -3.36,-15.733 -8.776,-21.15 C 30.874,3.359 23.39,0 15.142,0 Z"
         style="fill:#8b181d;fill-opacity:1;fill-rule:evenodd;stroke:none"
         transform="matrix(1.3333333,0,0,-1.3333333,174.23107,706.95307)"
         clip-path="url(#clipPath24)" />
      <path
         id="path25"
         d="m 0,0 v 0 c 13.85,0 25.182,-11.33 25.182,-25.181 v -119.935 h 8.467 c 2.668,0 5.097,1.094 6.86,2.857 1.762,1.764 2.857,4.193 2.857,6.86 v 72.189 c 0,6.705 5.436,12.141 12.139,12.141 6.705,0 12.141,-5.436 12.141,-12.141 v -72.189 c 0,-9.37 -3.818,-17.872 -9.97,-24.027 -6.157,-6.152 -14.658,-9.969 -24.027,-9.969 h -8.467 v -74.199 h -50.365 v 95.783 H -44.78 c -8.568,0 -16.342,3.489 -21.967,9.116 -5.627,5.627 -9.116,13.399 -9.116,21.966 v 77.16 c 0,6.705 5.435,12.139 12.14,12.139 6.705,0 12.139,-5.434 12.139,-12.139 v -77.16 c 0,-1.865 0.768,-3.565 2.003,-4.8 1.235,-1.236 2.935,-2.003 4.801,-2.003 h 19.597 v 98.351 C -25.183,-11.33 -13.851,0 0,0"
         style="fill:#ffa863;fill-opacity:1;fill-rule:evenodd;stroke:none"
         transform="matrix(1.3333333,0,0,-1.3333333,725.76173,452.03253)"
         clip-path="url(#clipPath26)" />
      <path
         id="path27"
         d="m 0,0 c -6.705,0 -12.139,5.436 -12.139,12.141 0,6.704 5.434,12.138 12.139,12.138 h 17.201 c 2.669,0 5.098,1.094 6.861,2.859 1.762,1.762 2.856,4.191 2.856,6.858 v 72.19 c 0,6.705 5.436,12.14 12.141,12.14 6.703,0 12.138,-5.435 12.138,-12.14 V 33.996 C 51.197,24.627 47.382,16.125 41.228,9.97 35.073,3.817 26.57,0 17.201,0 Z"
         style="fill:#8b181d;fill-opacity:1;fill-rule:evenodd;stroke:none"
         transform="matrix(1.3333333,0,0,-1.3333333,751.35413,680.63413)"
         clip-path="url(#clipPath28)" />
      <path
         id="path29"
         d="M 0,0 H 0.002 C 13.851,0 25.183,-11.33 25.183,-25.181 V -243.594 H -25.182 V -25.181 C -25.182,-11.33 -13.85,0 0,0"
         style="fill:#b23037;fill-opacity:1;fill-rule:evenodd;stroke:none"
         transform="matrix(1.3333333,0,0,-1.3333333,729.4232,454.77347)"
         clip-path="url(#clipPath30)" />
      <path
         id="path31"
         d="m 0,0 c 6.705,0 12.141,-5.436 12.141,-12.139 0,-6.705 -5.436,-12.14 -12.141,-12.14 h -38.615 c -8.569,0 -16.341,3.489 -21.968,9.116 -5.627,5.627 -9.115,13.399 -9.115,21.967 v 77.159 c 0,6.704 5.435,12.14 12.14,12.14 6.705,0 12.14,-5.436 12.14,-12.14 V 6.804 c 0,-1.866 0.766,-3.566 2.002,-4.801 C -42.18,0.768 -40.479,0 -38.615,0 Z"
         style="fill:#b23037;fill-opacity:1;fill-rule:evenodd;stroke:none"
         transform="matrix(1.3333333,0,0,-1.3333333,721.2044,619.48307)"
         clip-path="url(#clipPath32)" />
      <path
         id="path33"
         d="M 0.832,93.423 V 0 H 660 v 134.04 z"
         transform="matrix(1.3333333,0,0,-1.3333333,0,880)"
         style="fill:url(#linearGradient33);stroke:none" />
      <path
         id="path34"
         d="m 0,0 h 2.197 c 0.693,0 1.322,0.283 1.781,0.741 0.457,0.458 0.741,1.088 0.741,1.78 v 18.735 c 0,1.741 1.411,3.151 3.15,3.151 1.741,0 3.151,-1.41 3.151,-3.151 V 2.521 C 11.02,0.09 10.029,-2.118 8.433,-3.714 6.835,-5.31 4.628,-6.302 2.197,-6.302 H 0 V -25.558 H -13.07 V -0.7 h -5.086 c -2.223,0 -4.241,0.906 -5.701,2.365 -1.46,1.461 -2.366,3.477 -2.366,5.701 v 20.025 c 0,1.74 1.411,3.152 3.151,3.152 1.739,0 3.151,-1.412 3.151,-3.152 V 7.366 c 0,-0.483 0.198,-0.925 0.519,-1.246 0.32,-0.321 0.761,-0.518 1.246,-0.518 h 5.086 v 25.524 c 0,3.593 2.941,6.535 6.535,6.535 3.594,0 6.535,-2.942 6.535,-6.535 z"
         style="fill:#fcb405;fill-opacity:1;fill-rule:evenodd;stroke:none"
         transform="matrix(1.3333333,0,0,-1.3333333,109.65493,424.7396)"
         clip-path="url(#clipPath35)" />
      <path
         id="path36"
         d="m 0,0 h 1.547 c 0.488,0 0.932,0.2 1.254,0.522 0.323,0.322 0.523,0.766 0.523,1.253 v 13.191 c 0,1.225 0.992,2.22 2.218,2.22 1.225,0 2.217,-0.995 2.217,-2.22 V 1.775 C 7.759,0.064 7.062,-1.489 5.937,-2.614 4.813,-3.739 3.26,-4.437 1.547,-4.437 H 0 v -13.557 h -9.203 v 17.502 h -3.581 c -1.566,0 -2.986,0.638 -4.014,1.666 -1.028,1.027 -1.665,2.447 -1.665,4.013 v 14.1 c 0,1.225 0.992,2.217 2.217,2.217 1.226,0 2.219,-0.992 2.219,-2.217 v -14.1 c 0,-0.34 0.141,-0.65 0.366,-0.876 0.226,-0.226 0.537,-0.366 0.877,-0.366 h 3.581 v 17.97 c 0,2.532 2.071,4.603 4.602,4.603 2.53,0 4.601,-2.071 4.601,-4.603 z"
         style="fill:#fcb405;fill-opacity:1;fill-rule:evenodd;stroke:none"
         transform="matrix(1.3333333,0,0,-1.3333333,218.26893,449.75653)"
         clip-path="url(#clipPath37)" />
      <path
         id="path38"
         d="m 0,0 h -1.256 c -0.396,0 -0.756,0.162 -1.017,0.423 -0.263,0.262 -0.425,0.622 -0.425,1.019 v 10.709 c 0,0.994 -0.805,1.799 -1.801,1.799 -0.994,0 -1.801,-0.805 -1.801,-1.799 V 1.442 c 0,-1.39 0.568,-2.651 1.48,-3.564 0.913,-0.913 2.173,-1.48 3.564,-1.48 H 0 v -11.006 h 7.471 v 14.209 h 2.907 c 1.272,0 2.424,0.517 3.259,1.352 0.835,0.833 1.351,1.988 1.351,3.257 v 11.447 c 0,0.994 -0.805,1.801 -1.8,1.801 -0.995,0 -1.8,-0.807 -1.8,-1.801 V 4.21 C 11.388,3.934 11.273,3.683 11.091,3.499 10.906,3.315 10.654,3.202 10.378,3.202 H 7.471 v 14.589 c 0,2.056 -1.681,3.736 -3.735,3.736 C 1.681,21.527 0,19.847 0,17.791 Z"
         style="fill:#fcb405;fill-opacity:1;fill-rule:evenodd;stroke:none"
         transform="matrix(1.3333333,0,0,-1.3333333,715.97133,379.89907)"
         clip-path="url(#clipPath39)" />
      <path
         id="path40"
         d="M 0,0 H 1.044 C 1.373,0 1.672,0.136 1.89,0.352 2.108,0.57 2.241,0.871 2.241,1.197 v 8.898 c 0,0.826 0.671,1.496 1.496,1.496 0.827,0 1.497,-0.67 1.497,-1.496 V 1.197 C 5.234,0.043 4.765,-1.004 4.006,-1.763 3.246,-2.522 2.199,-2.992 1.044,-2.992 H 0 v -9.144 h -6.207 v 11.805 h -2.415 c -1.056,0 -2.015,0.43 -2.707,1.124 -0.693,0.693 -1.123,1.65 -1.123,2.706 v 9.509 c 0,0.828 0.67,1.496 1.496,1.496 0.826,0 1.496,-0.668 1.496,-1.496 V 3.499 c 0,-0.229 0.095,-0.44 0.246,-0.592 0.154,-0.152 0.362,-0.246 0.592,-0.246 h 2.415 v 12.12 c 0,1.708 1.398,3.104 3.105,3.104 1.707,0 3.102,-1.396 3.102,-3.104 z"
         style="fill:#fcb405;fill-opacity:1;fill-rule:evenodd;stroke:none"
         transform="matrix(1.3333333,0,0,-1.3333333,653.36453,394.51173)"
         clip-path="url(#clipPath41)" />
    </g>
  </g>
</svg>
