<?xml version="1.0" encoding="UTF-8" standalone="no"?>
<!-- Created with Inkscape (http://www.inkscape.org/) -->

<svg
   version="1.1"
   id="svg1"
   width="880"
   height="880"
   viewBox="0 0 880 880"
   sodipodi:docname="egyptian-pyramids.svg"
   inkscape:version="1.3.2 (091e20e, 2023-11-25, custom)"
   xmlns:inkscape="http://www.inkscape.org/namespaces/inkscape"
   xmlns:sodipodi="http://sodipodi.sourceforge.net/DTD/sodipodi-0.dtd"
   xmlns="http://www.w3.org/2000/svg"
   xmlns:svg="http://www.w3.org/2000/svg">
  <defs
     id="defs1">
    <clipPath
       clipPathUnits="userSpaceOnUse"
       id="clipPath8">
      <path
         d="M 0,660 H 660 V 0 H 0 Z"
         transform="translate(-660.53612,-224.48541)"
         id="path8" />
    </clipPath>
    <clipPath
       clipPathUnits="userSpaceOnUse"
       id="clipPath10">
      <path
         d="M 0,660 H 660 V 0 H 0 Z"
         transform="translate(-116.7241,-289.08201)"
         id="path10" />
    </clipPath>
    <clipPath
       clipPathUnits="userSpaceOnUse"
       id="clipPath12">
      <path
         d="M 0,660 H 660 V 0 H 0 Z"
         transform="translate(-308.70751,-481.06541)"
         id="path12" />
    </clipPath>
    <clipPath
       clipPathUnits="userSpaceOnUse"
       id="clipPath14">
      <path
         d="M 0,660 H 660 V 0 H 0 Z"
         transform="translate(-54.540502,-289.08201)"
         id="path14" />
    </clipPath>
    <clipPath
       clipPathUnits="userSpaceOnUse"
       id="clipPath16">
      <path
         d="M 0,660 H 660 V 0 H 0 Z"
         transform="translate(-146.2285,-380.76901)"
         id="path16" />
    </clipPath>
    <clipPath
       clipPathUnits="userSpaceOnUse"
       id="clipPath18">
      <path
         d="M 0,660 H 660 V 0 H 0 Z"
         transform="translate(0,-343.69871)"
         id="path18" />
    </clipPath>
    <clipPath
       clipPathUnits="userSpaceOnUse"
       id="clipPath20">
      <path
         d="M 0,660 H 660 V 0 H 0 Z"
         transform="translate(-37.071301,-380.76901)"
         id="path20" />
    </clipPath>
    <clipPath
       clipPathUnits="userSpaceOnUse"
       id="clipPath22">
      <path
         d="M 0,660 H 660 V 0 H 0 Z"
         transform="translate(-660.53612,-122.8984)"
         id="path22" />
    </clipPath>
    <clipPath
       clipPathUnits="userSpaceOnUse"
       id="clipPath24">
      <path
         d="M 0,660 H 660 V 0 H 0 Z"
         transform="translate(-600.74122,-96.385705)"
         id="path24" />
    </clipPath>
    <clipPath
       clipPathUnits="userSpaceOnUse"
       id="clipPath26">
      <path
         d="M 0,660 H 660 V 0 H 0 Z"
         transform="translate(-566.27152,-592.38232)"
         id="path26" />
    </clipPath>
    <clipPath
       clipPathUnits="userSpaceOnUse"
       id="clipPath28">
      <path
         d="M 0,660 H 660 V 0 H 0 Z"
         transform="translate(-552.61621,-598.36672)"
         id="path28" />
    </clipPath>
    <clipPath
       clipPathUnits="userSpaceOnUse"
       id="clipPath30">
      <path
         d="M 0,660 H 660 V 0 H 0 Z"
         transform="translate(-591.65531,-587.90721)"
         id="path30" />
    </clipPath>
    <clipPath
       clipPathUnits="userSpaceOnUse"
       id="clipPath32">
      <path
         d="M 0,660 H 660 V 0 H 0 Z"
         transform="translate(-551.50201,-640.25832)"
         id="path32" />
    </clipPath>
    <clipPath
       clipPathUnits="userSpaceOnUse"
       id="clipPath34">
      <path
         d="M 0,660 H 660 V 0 H 0 Z"
         transform="translate(-578.94922,-585.64361)"
         id="path34" />
    </clipPath>
    <clipPath
       clipPathUnits="userSpaceOnUse"
       id="clipPath36">
      <path
         d="M 0,660 H 660 V 0 H 0 Z"
         transform="translate(-578.21881,-11.960903)"
         id="path36" />
    </clipPath>
    <clipPath
       clipPathUnits="userSpaceOnUse"
       id="clipPath38">
      <path
         d="M 0,660 H 660 V 0 H 0 Z"
         transform="translate(-548.26951,-442.90041)"
         id="path38" />
    </clipPath>
    <clipPath
       clipPathUnits="userSpaceOnUse"
       id="clipPath40">
      <path
         d="M 0,660 H 660 V 0 H 0 Z"
         transform="translate(-536.40431,-448.09911)"
         id="path40" />
    </clipPath>
    <clipPath
       clipPathUnits="userSpaceOnUse"
       id="clipPath42">
      <path
         d="M 0,660 H 660 V 0 H 0 Z"
         transform="translate(-570.32422,-439.01171)"
         id="path42" />
    </clipPath>
    <clipPath
       clipPathUnits="userSpaceOnUse"
       id="clipPath44">
      <path
         d="M 0,660 H 660 V 0 H 0 Z"
         transform="translate(-535.43752,-484.49561)"
         id="path44" />
    </clipPath>
    <clipPath
       clipPathUnits="userSpaceOnUse"
       id="clipPath46">
      <path
         d="M 0,660 H 660 V 0 H 0 Z"
         transform="translate(-559.28422,-437.04491)"
         id="path46" />
    </clipPath>
    <clipPath
       clipPathUnits="userSpaceOnUse"
       id="clipPath48">
      <path
         d="M 0,660 H 660 V 0 H 0 Z"
         transform="translate(-32.287601,-73.536099)"
         id="path48" />
    </clipPath>
    <clipPath
       clipPathUnits="userSpaceOnUse"
       id="clipPath50">
      <path
         d="M 0,660 H 660 V 0 H 0 Z"
         transform="translate(-62.235401,-504.47411)"
         id="path50" />
    </clipPath>
    <clipPath
       clipPathUnits="userSpaceOnUse"
       id="clipPath52">
      <path
         d="M 0,660 H 660 V 0 H 0 Z"
         transform="translate(-74.100102,-509.67331)"
         id="path52" />
    </clipPath>
    <clipPath
       clipPathUnits="userSpaceOnUse"
       id="clipPath54">
      <path
         d="M 0,660 H 660 V 0 H 0 Z"
         transform="translate(-40.181201,-500.58691)"
         id="path54" />
    </clipPath>
    <clipPath
       clipPathUnits="userSpaceOnUse"
       id="clipPath56">
      <path
         d="M 0,660 H 660 V 0 H 0 Z"
         transform="translate(-75.067899,-546.06931)"
         id="path56" />
    </clipPath>
    <clipPath
       clipPathUnits="userSpaceOnUse"
       id="clipPath58">
      <path
         d="M 0,660 H 660 V 0 H 0 Z"
         transform="translate(-51.221701,-498.61911)"
         id="path58" />
    </clipPath>
  </defs>
  <sodipodi:namedview
     id="namedview1"
     pagecolor="#ffffff"
     bordercolor="#000000"
     borderopacity="0.25"
     inkscape:showpageshadow="2"
     inkscape:pageopacity="0.0"
     inkscape:pagecheckerboard="0"
     inkscape:deskcolor="#d1d1d1"
     inkscape:zoom="0.67272727"
     inkscape:cx="439.25676"
     inkscape:cy="440"
     inkscape:window-width="1440"
     inkscape:window-height="830"
     inkscape:window-x="-6"
     inkscape:window-y="-6"
     inkscape:window-maximized="1"
     inkscape:current-layer="g1">
    <inkscape:page
       x="0"
       y="0"
       inkscape:label="1"
       id="page1"
       width="880"
       height="880"
       margin="0"
       bleed="0" />
  </sodipodi:namedview>
  <g
     id="g1"
     inkscape:groupmode="layer"
     inkscape:label="1">
    <g
       id="group-MC0">
      <path
         id="path2"
         d="M 0,0 V -46.074 -660 H 660 V 0 Z"
         style="fill:#cadadb;fill-opacity:1;fill-rule:nonzero;stroke:none"
         transform="matrix(1.3333333,0,0,-1.3333333,0,4e-4)" />
      <path
         id="path3"
         d="M 0,580.894 H 660 V 660 H 0 Z M 0,471.741 h 660 v 38.776 H 0 Z m 0,-39.737 h 660 v 18.193 H 0 Z"
         style="fill:#ddeded;fill-opacity:1;fill-rule:nonzero;stroke:none"
         transform="matrix(1.3333333,0,0,-1.3333333,0,880)" />
      <path
         id="path4"
         d="M 0,0 H 272.164 V 31.859 L 152.011,152.012 Z"
         style="fill:#f7942c;fill-opacity:1;fill-rule:nonzero;stroke:none"
         transform="matrix(1.3333333,0,0,-1.3333333,517.1136,541.7956)" />
      <path
         id="path5"
         d="M 0,0 H 70.494 V 31.859 L -49.659,152.012 Z"
         style="fill:#e16f19;fill-opacity:1;fill-rule:nonzero;stroke:none"
         transform="matrix(1.3333333,0,0,-1.3333333,786.0072,541.7956)" />
      <path
         id="path6"
         d="M 0,0 H 660 V 289.082 H 0 Z"
         style="fill:#f7942c;fill-opacity:1;fill-rule:nonzero;stroke:none"
         transform="matrix(1.3333333,0,0,-1.3333333,0,880)" />
      <path
         id="path7"
         d="M 0,0 V -225.023 H -660.536 V 4.559 c 27.693,-4.902 56.713,-4.012 85.298,2.725 64.617,15.228 129.865,15.957 195.607,2.185 l 42.756,-8.958 c 62.01,-12.989 122.105,-13.64 185.626,-2.012 C -101.454,7.613 -49.916,8.127 0,0"
         style="fill:#e16f19;fill-opacity:1;fill-rule:evenodd;stroke:none"
         transform="matrix(1.3333333,0,0,-1.3333333,880.7148,580.68613)"
         clip-path="url(#clipPath8)" />
      <path
         id="path9"
         d="M 0,0 191.983,191.983 383.965,0 Z"
         style="fill:#f7942c;fill-opacity:1;fill-rule:evenodd;stroke:none"
         transform="matrix(1.3333333,0,0,-1.3333333,155.63213,494.55733)"
         clip-path="url(#clipPath10)" />
      <path
         id="path11"
         d="M 0,0 62.717,-191.983 H 191.982 Z"
         style="fill:#e16f19;fill-opacity:1;fill-rule:evenodd;stroke:none"
         transform="matrix(1.3333333,0,0,-1.3333333,411.61,238.57947)"
         clip-path="url(#clipPath12)" />
      <path
         id="path13"
         d="M 0,0 91.688,91.687 183.376,0 Z"
         style="fill:#f7942c;fill-opacity:1;fill-rule:evenodd;stroke:none"
         transform="matrix(1.3333333,0,0,-1.3333333,72.720667,494.55733)"
         clip-path="url(#clipPath14)" />
      <path
         id="path15"
         d="M 0,0 29.953,-91.687 H 91.688 Z"
         style="fill:#e16f19;fill-opacity:1;fill-rule:evenodd;stroke:none"
         transform="matrix(1.3333333,0,0,-1.3333333,194.97133,372.308)"
         clip-path="url(#clipPath16)" />
      <path
         id="path17"
         d="m 0,0 37.071,37.07 91.687,-91.687 H 0 Z"
         style="fill:#f7942c;fill-opacity:1;fill-rule:evenodd;stroke:none"
         transform="matrix(1.3333333,0,0,-1.3333333,0,421.73507)"
         clip-path="url(#clipPath18)" />
      <path
         id="path19"
         d="M 0,0 29.953,-91.687 H 91.687 Z"
         style="fill:#e16f19;fill-opacity:1;fill-rule:evenodd;stroke:none"
         transform="matrix(1.3333333,0,0,-1.3333333,49.4284,372.308)"
         clip-path="url(#clipPath20)" />
      <path
         id="path21"
         d="m 0,0 v -123.437 h -660.536 v 30.802 112.084 c 27.693,-9.119 56.714,-8.053 85.298,3.331 64.617,25.737 129.865,25.897 195.607,0.476 l 42.756,-16.532 c 62.01,-23.979 122.105,-26.164 185.626,-6.758 C -101.454,15.177 -49.916,15.193 0,0"
         style="fill:#7b3a19;fill-opacity:1;fill-rule:evenodd;stroke:none"
         transform="matrix(1.3333333,0,0,-1.3333333,880.7148,716.13547)"
         clip-path="url(#clipPath22)" />
      <path
         id="path23"
         d="m 0,0 c 15.643,248.342 15.821,459.395 -55.536,497.911 10.851,3.511 21.703,7.023 32.556,10.534 C 30.794,466.586 51.312,356 59.795,220.541 V 9.535 Z"
         style="fill:#7b3a19;fill-opacity:1;fill-rule:evenodd;stroke:none"
         transform="matrix(1.3333333,0,0,-1.3333333,800.98827,751.48573)"
         clip-path="url(#clipPath24)" />
      <path
         id="path25"
         d="m 0,0 c -44.046,82.505 -212.09,5.107 -186.717,-91.443 l 33.457,16.385 -9.928,29.109 19.914,-24.218 49.783,24.38 -9.372,24.734 16.895,-21.049 34.981,17.131 -7.351,23.068 15.565,-19.046 z"
         style="fill:#7b3a19;fill-opacity:1;fill-rule:evenodd;stroke:none"
         transform="matrix(1.3333333,0,0,-1.3333333,755.02867,90.156933)"
         clip-path="url(#clipPath26)" />
      <path
         id="path27"
         d="m 0,0 c 20.152,40.423 66.256,50.808 107.92,40.625 v -79.148 l -14.43,5.15 9.374,25.978 L 85.969,-30.687 50.988,-18.2 58.339,5.844 42.774,-15.269 Z"
         style="fill:#7b3a19;fill-opacity:1;fill-rule:evenodd;stroke:none"
         transform="matrix(1.3333333,0,0,-1.3333333,736.8216,82.177733)"
         clip-path="url(#clipPath28)" />
      <path
         id="path29"
         d="m 0,0 c -70.355,69.259 -211.397,-37.422 -154.945,-123.683 l 27.763,22.164 -19.271,25.552 27.558,-18.939 41.312,32.977 -17.302,21.525 23.545,-16.542 29.029,23.172 -14.763,20.353 21.577,-14.913 z"
         style="fill:#7b3a19;fill-opacity:1;fill-rule:evenodd;stroke:none"
         transform="matrix(1.3333333,0,0,-1.3333333,788.87373,96.123733)"
         clip-path="url(#clipPath30)" />
      <path
         id="path31"
         d="M 0,0 C 27.06,0 48.999,-10.462 48.999,-23.369 48.999,-36.274 27.06,-46.736 0,-46.736 c -27.063,0 -49,10.462 -49,23.367 C -49,-10.462 -27.063,0 0,0"
         style="fill:#7b3a19;fill-opacity:1;fill-rule:evenodd;stroke:none"
         transform="matrix(1.3333333,0,0,-1.3333333,735.336,26.322267)"
         clip-path="url(#clipPath32)" />
      <path
         id="path33"
         d="m 0,0 c 22.692,22.339 54.655,21.598 81.587,8.255 v -73.381 l -20.056,16.009 13.724,17.072 -18.674,-13.12 -23.024,18.378 11.709,16.142 -17.114,-11.827 z"
         style="fill:#7b3a19;fill-opacity:1;fill-rule:evenodd;stroke:none"
         transform="matrix(1.3333333,0,0,-1.3333333,771.93227,99.141867)"
         clip-path="url(#clipPath34)" />
      <path
         id="path35"
         d="m 0,0 c 13.589,215.769 13.747,399.138 -48.252,432.603 9.429,3.05 18.857,6.102 28.286,9.151 C 49.451,387.718 55.086,201.864 57.402,9.151 38.269,6.104 19.135,3.052 0,0"
         style="fill:#7b3a19;fill-opacity:1;fill-rule:evenodd;stroke:none"
         transform="matrix(1.3333333,0,0,-1.3333333,770.9584,864.05213)"
         clip-path="url(#clipPath36)" />
      <path
         id="path37"
         d="m 0,0 c -38.268,71.684 -184.27,4.437 -162.225,-79.45 l 29.069,14.237 -8.626,25.291 17.302,-21.043 43.253,21.184 -8.144,21.489 14.679,-18.288 30.392,14.884 -6.385,20.042 13.522,-16.547 z"
         style="fill:#7b3a19;fill-opacity:1;fill-rule:evenodd;stroke:none"
         transform="matrix(1.3333333,0,0,-1.3333333,731.026,289.46613)"
         clip-path="url(#clipPath38)" />
      <path
         id="path39"
         d="M 0,0 C 22.678,45.488 83.179,47.214 124.132,23.008 V -44.309 L 81.228,-28.995 89.373,-6.424 74.694,-26.662 44.302,-15.813 50.688,5.078 37.165,-13.266 Z"
         style="fill:#7b3a19;fill-opacity:1;fill-rule:evenodd;stroke:none"
         transform="matrix(1.3333333,0,0,-1.3333333,715.20573,282.53453)"
         clip-path="url(#clipPath40)" />
      <path
         id="path41"
         d="m 0,0 c -61.127,60.175 -183.669,-32.514 -134.621,-107.459 l 24.122,19.255 -16.746,22.202 23.944,-16.455 35.895,28.651 -15.033,18.702 20.457,-14.372 25.22,20.132 -12.826,17.683 18.748,-12.956 z"
         style="fill:#7b3a19;fill-opacity:1;fill-rule:evenodd;stroke:none"
         transform="matrix(1.3333333,0,0,-1.3333333,760.43227,294.65107)"
         clip-path="url(#clipPath42)" />
      <path
         id="path43"
         d="m 0,0 c 23.512,0 42.572,-9.089 42.572,-20.302 0,-11.213 -19.06,-20.303 -42.572,-20.303 -23.513,0 -42.573,9.09 -42.573,20.303 C -42.573,-9.089 -23.513,0 0,0"
         style="fill:#7b3a19;fill-opacity:1;fill-rule:evenodd;stroke:none"
         transform="matrix(1.3333333,0,0,-1.3333333,713.91667,234.00587)"
         clip-path="url(#clipPath44)" />
      <path
         id="path45"
         d="M 0,0 C 29.617,29.156 77.411,13.061 101.252,-17.428 V -80.822 L 87.639,-69.956 100.92,-52.348 81.929,-65.398 53.462,-42.673 65.384,-27.842 49.16,-39.24 29.156,-23.273 39.328,-9.249 24.46,-19.524 Z"
         style="fill:#7b3a19;fill-opacity:1;fill-rule:evenodd;stroke:none"
         transform="matrix(1.3333333,0,0,-1.3333333,745.71227,297.27347)"
         clip-path="url(#clipPath46)" />
      <path
         id="path47"
         d="m 0,0 c -13.591,215.769 -13.748,399.137 48.251,432.602 -9.428,3.05 -18.857,6.101 -28.285,9.151 -24.455,-19.037 -40.987,-54.448 -52.254,-100.74 V 5.146 Z"
         style="fill:#7b3a19;fill-opacity:1;fill-rule:evenodd;stroke:none"
         transform="matrix(1.3333333,0,0,-1.3333333,43.050133,781.95187)"
         clip-path="url(#clipPath48)" />
      <path
         id="path49"
         d="m 0,0 c 38.269,71.684 184.271,4.436 162.225,-79.449 l -29.068,14.236 8.626,25.291 -17.302,-21.042 -43.253,21.183 8.143,21.489 -14.679,-18.288 -30.393,14.884 6.389,20.043 -13.524,-16.548 z"
         style="fill:#7b3a19;fill-opacity:1;fill-rule:evenodd;stroke:none"
         transform="matrix(1.3333333,0,0,-1.3333333,82.980533,207.36787)"
         clip-path="url(#clipPath50)" />
      <path
         id="path51"
         d="M 0,0 C -14.373,28.832 -43.944,40.081 -74.1,38.292 V -26.45 l 29.8,10.637 -6.388,20.891 13.523,-18.345 z"
         style="fill:#7b3a19;fill-opacity:1;fill-rule:evenodd;stroke:none"
         transform="matrix(1.3333333,0,0,-1.3333333,98.800133,200.4356)"
         clip-path="url(#clipPath52)" />
      <path
         id="path53"
         d="m 0,0 c 61.127,60.173 183.669,-32.514 134.622,-107.461 l -24.123,19.256 16.745,22.201 L 103.3,-82.458 67.406,-53.807 82.44,-35.105 61.983,-49.478 36.762,-29.345 49.588,-11.662 30.84,-24.619 Z"
         style="fill:#7b3a19;fill-opacity:1;fill-rule:evenodd;stroke:none"
         transform="matrix(1.3333333,0,0,-1.3333333,53.574933,212.5508)"
         clip-path="url(#clipPath54)" />
      <path
         id="path55"
         d="m 0,0 c -23.512,0 -42.572,-9.089 -42.572,-20.302 0,-11.213 19.06,-20.302 42.572,-20.302 23.513,0 42.573,9.089 42.573,20.302 C 42.573,-9.089 23.513,0 0,0"
         style="fill:#7b3a19;fill-opacity:1;fill-rule:evenodd;stroke:none"
         transform="matrix(1.3333333,0,0,-1.3333333,100.09053,151.9076)"
         clip-path="url(#clipPath56)" />
      <path
         id="path57"
         d="m 0,0 c -14.393,14.168 -33.078,17.651 -51.222,13.989 v -51.781 l 2.061,-1.449 20.004,15.967 -10.172,14.025 14.869,-10.276 z"
         style="fill:#7b3a19;fill-opacity:1;fill-rule:evenodd;stroke:none"
         transform="matrix(1.3333333,0,0,-1.3333333,68.2956,215.17453)"
         clip-path="url(#clipPath58)" />
    </g>
  </g>
</svg>
