<?xml version="1.0" encoding="UTF-8" standalone="no"?>
<!-- Created with Inkscape (http://www.inkscape.org/) -->

<svg
   version="1.1"
   id="svg1"
   width="880"
   height="880"
   viewBox="0 0 880 880"
   sodipodi:docname="float-fishing.svg"
   inkscape:version="1.3.2 (091e20e, 2023-11-25, custom)"
   xmlns:inkscape="http://www.inkscape.org/namespaces/inkscape"
   xmlns:sodipodi="http://sodipodi.sourceforge.net/DTD/sodipodi-0.dtd"
   xmlns="http://www.w3.org/2000/svg"
   xmlns:svg="http://www.w3.org/2000/svg">
  <defs
     id="defs1">
    <clipPath
       clipPathUnits="userSpaceOnUse"
       id="clipPath4">
      <path
         d="M 0,660 H 660 V 0 H 0 Z"
         transform="translate(-331.44041,-209.4307)"
         id="path4" />
    </clipPath>
    <clipPath
       clipPathUnits="userSpaceOnUse"
       id="clipPath6">
      <path
         d="M 0,660 H 660 V 0 H 0 Z"
         transform="translate(-381.56051,-250.41411)"
         id="path6" />
    </clipPath>
    <clipPath
       clipPathUnits="userSpaceOnUse"
       id="clipPath8">
      <path
         d="M 0,660 H 660 V 0 H 0 Z"
         transform="translate(-304.98291,-189.6885)"
         id="path8" />
    </clipPath>
    <clipPath
       clipPathUnits="userSpaceOnUse"
       id="clipPath10">
      <path
         d="M 0,660 H 660 V 0 H 0 Z"
         transform="translate(-385.49901,-211.38771)"
         id="path10" />
    </clipPath>
    <clipPath
       clipPathUnits="userSpaceOnUse"
       id="clipPath12">
      <path
         d="M 0,660 H 660 V 0 H 0 Z"
         transform="translate(-333.44141,-200.20611)"
         id="path12" />
    </clipPath>
    <clipPath
       clipPathUnits="userSpaceOnUse"
       id="clipPath14">
      <path
         d="M 0,660 H 660 V 0 H 0 Z"
         transform="translate(-373.85351,-210.62701)"
         id="path14" />
    </clipPath>
    <clipPath
       clipPathUnits="userSpaceOnUse"
       id="clipPath16">
      <path
         d="M 0,660 H 660 V 0 H 0 Z"
         transform="translate(-394.82321,-234.33891)"
         id="path16" />
    </clipPath>
    <clipPath
       clipPathUnits="userSpaceOnUse"
       id="clipPath18">
      <path
         d="M 0,660 H 660 V 0 H 0 Z"
         transform="translate(-342.82521,-275.81541)"
         id="path18" />
    </clipPath>
    <clipPath
       clipPathUnits="userSpaceOnUse"
       id="clipPath20">
      <path
         d="M 0,660 H 660 V 0 H 0 Z"
         transform="translate(-341.65821,-266.4463)"
         id="path20" />
    </clipPath>
    <clipPath
       clipPathUnits="userSpaceOnUse"
       id="clipPath22">
      <path
         d="M 0,660 H 660 V 0 H 0 Z"
         transform="translate(-240.4033,-76.326204)"
         id="path22" />
    </clipPath>
    <clipPath
       clipPathUnits="userSpaceOnUse"
       id="clipPath24">
      <path
         d="M 0,660 H 660 V 0 H 0 Z"
         transform="translate(-228.72171,-63.665004)"
         id="path24" />
    </clipPath>
    <clipPath
       clipPathUnits="userSpaceOnUse"
       id="clipPath26">
      <path
         d="M 0,660 H 660 V 0 H 0 Z"
         transform="translate(-234.81591,-56.755899)"
         id="path26" />
    </clipPath>
    <clipPath
       clipPathUnits="userSpaceOnUse"
       id="clipPath28">
      <path
         d="M 0,660 H 660 V 0 H 0 Z"
         transform="translate(-273.208,-116.14551)"
         id="path28" />
    </clipPath>
    <clipPath
       clipPathUnits="userSpaceOnUse"
       id="clipPath30">
      <path
         d="M 0,660 H 660 V 0 H 0 Z"
         transform="translate(-381.56051,-338.41061)"
         id="path30" />
    </clipPath>
    <clipPath
       clipPathUnits="userSpaceOnUse"
       id="clipPath32">
      <path
         d="M 0,660 H 660 V 0 H 0 Z"
         transform="translate(-304.98291,-399.13621)"
         id="path32" />
    </clipPath>
    <clipPath
       clipPathUnits="userSpaceOnUse"
       id="clipPath34">
      <path
         d="M 0,660 H 660 V 0 H 0 Z"
         transform="translate(-333.44141,-388.61871)"
         id="path34" />
    </clipPath>
    <clipPath
       clipPathUnits="userSpaceOnUse"
       id="clipPath36">
      <path
         d="M 0,660 H 660 V 0 H 0 Z"
         transform="translate(-394.82321,-354.48581)"
         id="path36" />
    </clipPath>
    <clipPath
       clipPathUnits="userSpaceOnUse"
       id="clipPath38">
      <path
         d="M 0,660 H 660 V 0 H 0 Z"
         transform="translate(-342.82521,-313.00981)"
         id="path38" />
    </clipPath>
    <clipPath
       clipPathUnits="userSpaceOnUse"
       id="clipPath40">
      <path
         d="M 0,660 H 660 V 0 H 0 Z"
         transform="translate(-240.4033,-512.49802)"
         id="path40" />
    </clipPath>
    <clipPath
       clipPathUnits="userSpaceOnUse"
       id="clipPath42">
      <path
         d="M 0,660 H 660 V 0 H 0 Z"
         transform="translate(-228.72171,-525.15922)"
         id="path42" />
    </clipPath>
    <clipPath
       clipPathUnits="userSpaceOnUse"
       id="clipPath44">
      <path
         d="M 0,660 H 660 V 0 H 0 Z"
         transform="translate(-234.81591,-532.07032)"
         id="path44" />
    </clipPath>
    <clipPath
       clipPathUnits="userSpaceOnUse"
       id="clipPath46">
      <path
         d="M 0,660 H 660 V 0 H 0 Z"
         transform="translate(-273.208,-472.67921)"
         id="path46" />
    </clipPath>
  </defs>
  <sodipodi:namedview
     id="namedview1"
     pagecolor="#ffffff"
     bordercolor="#000000"
     borderopacity="0.25"
     inkscape:showpageshadow="2"
     inkscape:pageopacity="0.0"
     inkscape:pagecheckerboard="0"
     inkscape:deskcolor="#d1d1d1"
     inkscape:zoom="0.69318182"
     inkscape:cx="439.27869"
     inkscape:cy="440"
     inkscape:window-width="1440"
     inkscape:window-height="830"
     inkscape:window-x="-6"
     inkscape:window-y="-6"
     inkscape:window-maximized="1"
     inkscape:current-layer="g1">
    <inkscape:page
       x="0"
       y="0"
       inkscape:label="1"
       id="page1"
       width="880"
       height="880"
       margin="0 0 0.62400001 2.2305067"
       bleed="0" />
  </sodipodi:namedview>
  <g
     id="g1"
     inkscape:groupmode="layer"
     inkscape:label="1">
    <g
       id="group-MC0">
      <path
         id="path2"
         d="M 1.673,0 H 660 V 659.532 H 1.673 Z"
         style="fill:#6398d7;fill-opacity:1;fill-rule:nonzero;stroke:none"
         transform="matrix(1.3333333,0,0,-1.3333333,0,880)" />
      <path
         id="path3"
         d="m 0,0 c 129.53,0 235.176,33.054 235.176,73.581 0,40.525 -105.646,73.58 -235.176,73.58 -129.532,0 -235.178,-33.055 -235.178,-73.58 C -235.178,33.054 -129.532,0 0,0"
         style="fill:#81b2e3;fill-opacity:1;fill-rule:evenodd;stroke:none"
         transform="matrix(1.3333333,0,0,-1.3333333,441.92053,600.75907)"
         clip-path="url(#clipPath4)" />
      <path
         id="path5"
         d="m 0,0 c -4.378,-49.909 -42.746,-74.146 -71.84,-92.524 -14.68,-9.272 -27.036,-17.078 -31.784,-26.072 l -9.946,-18.842 c -4.044,-7.662 0.229,-13.015 5.971,-20.204 6.319,-7.911 14.531,-18.194 14.528,-36.573 0,-0.878 0.013,-1.766 0.041,-2.661 0.704,-22.822 10.514,-41.007 25.822,-53.538 h 3.552 c -0.618,0.467 -1.229,0.943 -1.83,1.43 -15.023,12.15 -24.664,29.878 -25.351,52.175 -0.026,0.841 -0.04,1.707 -0.039,2.592 0.003,19.149 -8.48,29.772 -15.009,37.945 -5.225,6.541 -9.114,11.412 -5.739,17.806 l 9.945,18.843 c 4.483,8.492 16.607,16.15 31.009,25.248 29.489,18.628 68.381,43.193 72.853,94.184 z"
         style="fill:#badbf4;fill-opacity:1;fill-rule:evenodd;stroke:none"
         transform="matrix(1.3333333,0,0,-1.3333333,508.74733,546.11453)"
         clip-path="url(#clipPath6)" />
      <path
         id="path7"
         d="m 0,0 c 29.911,-15.789 66.958,-4.34 82.745,25.571 10.6,20.083 14.606,54.154 7.04,79.154 H 89.766 C 83.491,116.148 9.658,117.505 -6.263,107.2 -14.482,99.403 -21.279,90.875 -25.571,82.743 -41.359,52.834 -29.91,15.787 0,0"
         style="fill:#98c3ea;fill-opacity:1;fill-rule:evenodd;stroke:none"
         transform="matrix(1.3333333,0,0,-1.3333333,406.64387,627.082)"
         clip-path="url(#clipPath8)" />
      <path
         id="path9"
         d="M 0,0 C 0.782,1.254 1.528,2.544 2.228,3.872 12.829,23.955 16.835,58.025 9.269,83.025 H 9.25 c -6.275,11.424 -80.108,12.781 -96.029,2.476 -8.219,-7.797 -15.016,-16.325 -19.308,-24.457 -10.61,-20.102 -8.918,-43.426 2.412,-61.355 15.997,-1.075 32.592,-1.646 49.614,-1.646 18.606,0 36.704,0.679 54.061,1.957"
         style="fill:#a9cfef;fill-opacity:1;fill-rule:evenodd;stroke:none"
         transform="matrix(1.3333333,0,0,-1.3333333,513.99867,598.14973)"
         clip-path="url(#clipPath10)" />
      <path
         id="path11"
         d="M 0,0 C 16.263,-8.585 38.84,2.25 50.427,24.199 62.012,46.148 58.22,70.902 41.957,79.485 25.692,88.07 3.117,77.235 -8.468,55.286 -20.053,33.337 -16.263,8.585 0,0"
         style="fill:#a9cfef;fill-opacity:1;fill-rule:evenodd;stroke:none"
         transform="matrix(1.3333333,0,0,-1.3333333,444.58853,613.05853)"
         clip-path="url(#clipPath12)" />
      <path
         id="path13"
         d="m 0,0 c 3.812,3.874 7.23,8.506 10.015,13.778 11.585,21.949 7.793,46.703 -8.47,55.286 -16.265,8.585 -38.84,-2.25 -50.425,-24.199 -8.665,-16.416 -8.727,-34.399 -1.404,-46.016 2.614,-0.026 5.235,-0.045 7.869,-0.045 14.482,0 28.656,0.412 42.415,1.196"
         style="fill:#badbf4;fill-opacity:1;fill-rule:evenodd;stroke:none"
         transform="matrix(1.3333333,0,0,-1.3333333,498.47133,599.164)"
         clip-path="url(#clipPath14)" />
      <path
         id="path15"
         d="m 0,0 c 4.827,18.908 5.444,41.891 -0.059,60.074 h -0.015 c -6.276,11.424 -80.111,12.779 -96.029,2.476 -2.685,-2.546 -5.216,-5.17 -7.558,-7.833 C -87.398,66.67 0.614,16.527 0,0"
         style="fill:#739acd;fill-opacity:1;fill-rule:evenodd;stroke:none"
         transform="matrix(1.3333333,0,0,-1.3333333,526.43093,567.54813)"
         clip-path="url(#clipPath16)" />
      <path
         id="path17"
         d="M 0,0 C 19.401,-9.928 38.602,-22.84 47.246,-32.555 49.486,-16.761 44.239,-2.281 32.573,3.876 22.748,9.063 10.618,7.158 0,0"
         style="fill:#90b4e0;fill-opacity:1;fill-rule:evenodd;stroke:none"
         transform="matrix(1.3333333,0,0,-1.3333333,457.10027,512.24613)"
         clip-path="url(#clipPath18)" />
      <path
         id="path19"
         d="M 0,0 C 40.956,0 74.359,10.451 74.359,23.266 74.359,36.08 40.956,46.53 0,46.53 -40.958,46.53 -74.362,36.08 -74.362,23.266 -74.362,10.451 -40.958,0 0,0"
         style="fill:#d5eaf9;fill-opacity:1;fill-rule:evenodd;stroke:none"
         transform="matrix(1.3333333,0,0,-1.3333333,455.54427,524.73827)"
         clip-path="url(#clipPath20)" />
      <path
         id="path21"
         d="m 0,0 7.419,-3.916 62.174,117.788 c 1.305,2.474 -6.114,6.39 -7.419,3.917 z"
         style="fill:#98c3ea;fill-opacity:1;fill-rule:evenodd;stroke:none"
         transform="matrix(1.3333333,0,0,-1.3333333,320.53773,778.23173)"
         clip-path="url(#clipPath22)" />
      <path
         id="path23"
         d="M 0,0 C -3.03,-4.878 12.92,-13.296 15.238,-8.042 L 27.956,20.79 c 1.723,3.904 -9.073,9.605 -11.325,5.979 z"
         style="fill:#739acd;fill-opacity:1;fill-rule:evenodd;stroke:none"
         transform="matrix(1.3333333,0,0,-1.3333333,304.96227,795.11333)"
         clip-path="url(#clipPath24)" />
      <path
         id="path25"
         d="M 0,0 C 3.071,-1.622 6.146,-1.829 6.867,-0.463 7.588,0.903 5.683,3.325 2.612,4.947 -0.46,6.568 -3.535,6.774 -4.255,5.408 -4.977,4.043 -3.071,1.62 0,0"
         style="fill:#537cb3;fill-opacity:1;fill-rule:evenodd;stroke:none"
         transform="matrix(1.3333333,0,0,-1.3333333,313.08787,804.32547)"
         clip-path="url(#clipPath26)" />
      <path
         id="path27"
         d="m 0,0 5.53,10.476 1.372,2.599 c 1.938,3.672 -9.08,9.488 -11.019,5.815 l -1.371,-2.598 -5.53,-10.477 -1.371,-2.598 c -0.497,-0.94 -0.142,-2.023 0.691,-3.049 l 1.011,1.916 c 1.305,2.473 8.725,-1.442 7.419,-3.915 l -1.011,-1.916 c 1.318,-0.109 2.411,0.209 2.907,1.148 z"
         style="fill:#739acd;fill-opacity:1;fill-rule:evenodd;stroke:none"
         transform="matrix(1.3333333,0,0,-1.3333333,364.27733,725.13933)"
         clip-path="url(#clipPath28)" />
      <path
         id="path29"
         d="m 0,0 c -4.378,49.91 -42.746,74.146 -71.84,92.524 -14.68,9.272 -27.036,17.077 -31.784,26.071 l -9.946,18.844 c -4.044,7.661 0.229,13.014 5.971,20.202 6.319,7.911 14.531,18.194 14.528,36.574 0,0.879 0.013,1.767 0.041,2.66 0.709,22.993 10.66,41.28 26.165,53.82 15.456,12.502 36.43,19.272 59.248,19.276 1.184,0 2.387,-0.018 3.612,-0.056 18.654,-0.576 30.032,8.235 37.303,21.294 4.787,8.599 7.823,19.052 9.985,29.912 h 2.235 C 43.314,309.917 40.193,299.086 35.212,290.14 27.559,276.391 15.575,267.115 -4.072,267.722 c -1.17,0.036 -2.353,0.053 -3.544,0.053 -22.315,-0.004 -42.801,-6.603 -57.87,-18.791 -15.023,-12.15 -24.664,-29.877 -25.351,-52.176 -0.026,-0.841 -0.04,-1.706 -0.039,-2.591 0.003,-19.148 -8.48,-29.772 -15.009,-37.945 -5.225,-6.542 -9.114,-11.412 -5.739,-17.807 l 9.945,-18.842 C -97.196,111.13 -85.072,103.472 -70.67,94.375 -41.181,75.747 -2.289,51.181 2.183,0.191 Z"
         style="fill:#ffffff;fill-opacity:1;fill-rule:evenodd;stroke:none"
         transform="matrix(1.3333333,0,0,-1.3333333,508.74733,428.78587)"
         clip-path="url(#clipPath30)" />
      <path
         id="path31"
         d="m 0,0 c 29.911,15.789 66.958,4.339 82.745,-25.571 10.6,-20.084 14.606,-54.154 7.04,-79.152 h -0.019 c -6.275,-11.426 -80.108,-12.781 -96.029,-2.478 -8.219,7.797 -15.016,16.327 -19.308,24.457 C -41.359,-52.833 -29.91,-15.788 0,0"
         style="fill:#e1f1fb;fill-opacity:1;fill-rule:evenodd;stroke:none"
         transform="matrix(1.3333333,0,0,-1.3333333,406.64387,347.8184)"
         clip-path="url(#clipPath32)" />
      <path
         id="path33"
         d="m 0,0 c 16.263,8.585 38.84,-2.25 50.427,-24.2 11.585,-21.948 7.793,-46.701 -8.47,-55.286 -16.265,-8.584 -38.84,2.251 -50.425,24.2 C -20.053,-33.336 -16.263,-8.584 0,0"
         style="fill:#fafcfe;fill-opacity:1;fill-rule:evenodd;stroke:none"
         transform="matrix(1.3333333,0,0,-1.3333333,444.58853,361.84173)"
         clip-path="url(#clipPath34)" />
      <path
         id="path35"
         d="m 0,0 c 4.827,-18.909 5.444,-41.89 -0.059,-60.073 h -0.015 c -6.276,-11.425 -80.111,-12.781 -96.029,-2.475 -2.685,2.545 -5.216,5.169 -7.558,7.831 C -87.398,-66.67 0.614,-16.527 0,0"
         style="fill:#f36530;fill-opacity:1;fill-rule:evenodd;stroke:none"
         transform="matrix(1.3333333,0,0,-1.3333333,526.43093,407.35227)"
         clip-path="url(#clipPath36)" />
      <path
         id="path37"
         d="M 0,0 C 19.401,9.929 38.602,22.84 47.246,32.555 49.486,16.76 44.239,2.281 32.573,-3.877 22.748,-9.064 10.618,-7.159 0,0"
         style="fill:#f68756;fill-opacity:1;fill-rule:evenodd;stroke:none"
         transform="matrix(1.3333333,0,0,-1.3333333,457.10027,462.6536)"
         clip-path="url(#clipPath38)" />
      <path
         id="path39"
         d="m 0,0 7.419,3.916 62.174,-117.787 c 1.305,-2.474 -6.114,-6.39 -7.419,-3.917 z"
         style="fill:#ffffff;fill-opacity:1;fill-rule:evenodd;stroke:none"
         transform="matrix(1.3333333,0,0,-1.3333333,320.53773,196.66933)"
         clip-path="url(#clipPath40)" />
      <path
         id="path41"
         d="M 0,0 C -3.03,4.879 12.92,13.298 15.238,8.042 L 27.956,-20.79 c 1.723,-3.905 -9.073,-9.604 -11.325,-5.978 z"
         style="fill:#f36530;fill-opacity:1;fill-rule:evenodd;stroke:none"
         transform="matrix(1.3333333,0,0,-1.3333333,304.96227,179.78773)"
         clip-path="url(#clipPath42)" />
      <path
         id="path43"
         d="M 0,0 C 3.071,1.621 6.146,1.827 6.867,0.461 7.588,-0.905 5.683,-3.328 2.612,-4.948 -0.46,-6.57 -3.535,-6.776 -4.255,-5.411 -4.977,-4.044 -3.071,-1.622 0,0"
         style="fill:#d64520;fill-opacity:1;fill-rule:evenodd;stroke:none"
         transform="matrix(1.3333333,0,0,-1.3333333,313.08787,170.57293)"
         clip-path="url(#clipPath44)" />
      <path
         id="path45"
         d="m 0,0 5.53,-10.476 1.372,-2.599 c 1.938,-3.672 -9.08,-9.488 -11.019,-5.815 l -1.371,2.598 -5.53,10.476 -1.371,2.599 c -0.497,0.941 -0.142,2.022 0.691,3.049 l 1.011,-1.917 c 1.305,-2.472 8.725,1.445 7.419,3.917 l -1.011,1.916 c 1.318,0.109 2.411,-0.209 2.907,-1.149 z"
         style="fill:#f36530;fill-opacity:1;fill-rule:evenodd;stroke:none"
         transform="matrix(1.3333333,0,0,-1.3333333,364.27733,249.76107)"
         clip-path="url(#clipPath46)" />
    </g>
  </g>
</svg>
