<?xml version="1.0" encoding="UTF-8" standalone="no"?>
<!-- Created with Inkscape (http://www.inkscape.org/) -->

<svg
   version="1.1"
   id="svg1"
   width="880"
   height="880"
   viewBox="0 0 880 880"
   sodipodi:docname="forest-sunrise.svg"
   inkscape:version="1.3.2 (091e20e, 2023-11-25, custom)"
   xmlns:inkscape="http://www.inkscape.org/namespaces/inkscape"
   xmlns:sodipodi="http://sodipodi.sourceforge.net/DTD/sodipodi-0.dtd"
   xmlns="http://www.w3.org/2000/svg"
   xmlns:svg="http://www.w3.org/2000/svg">
  <defs
     id="defs1">
    <clipPath
       clipPathUnits="userSpaceOnUse"
       id="clipPath4">
      <path
         d="M 0,660 H 660 V 0 H 0 Z"
         transform="translate(-330.25291,-91.682605)"
         id="path4" />
    </clipPath>
    <clipPath
       clipPathUnits="userSpaceOnUse"
       id="clipPath6">
      <path
         d="M 0,660 H 660 V 0 H 0 Z"
         transform="translate(-330.25291,-552.65872)"
         id="path6" />
    </clipPath>
    <clipPath
       clipPathUnits="userSpaceOnUse"
       id="clipPath8">
      <path
         d="M 0,660 H 660 V 0 H 0 Z"
         transform="translate(-330.25291,-485.89751)"
         id="path8" />
    </clipPath>
    <clipPath
       clipPathUnits="userSpaceOnUse"
       id="clipPath10">
      <path
         d="M 0,660 H 660 V 0 H 0 Z"
         transform="translate(-330.25291,-291.9697)"
         id="path10" />
    </clipPath>
    <clipPath
       clipPathUnits="userSpaceOnUse"
       id="clipPath12">
      <path
         d="M 0,660 H 660 V 0 H 0 Z"
         transform="translate(-659.72072,-507.02051)"
         id="path12" />
    </clipPath>
    <clipPath
       clipPathUnits="userSpaceOnUse"
       id="clipPath14">
      <path
         d="M 0,660 H 660 V 0 H 0 Z"
         transform="translate(-659.72072,-497.66111)"
         id="path14" />
    </clipPath>
    <clipPath
       clipPathUnits="userSpaceOnUse"
       id="clipPath16">
      <path
         d="M 0,660 H 660 V 0 H 0 Z"
         transform="translate(-659.72072,-398.28761)"
         id="path16" />
    </clipPath>
    <clipPath
       clipPathUnits="userSpaceOnUse"
       id="clipPath18">
      <path
         d="M 0,660 H 660 V 0 H 0 Z"
         transform="translate(-659.72072,-203.07031)"
         id="path18" />
    </clipPath>
    <clipPath
       clipPathUnits="userSpaceOnUse"
       id="clipPath20">
      <path
         d="M 0,660 H 660 V 0 H 0 Z"
         transform="translate(-29.730001,-268.78131)"
         id="path20" />
    </clipPath>
    <clipPath
       clipPathUnits="userSpaceOnUse"
       id="clipPath22">
      <path
         d="M 0,660 H 660 V 0 H 0 Z"
         transform="translate(-85.843802,-241.83501)"
         id="path22" />
    </clipPath>
    <clipPath
       clipPathUnits="userSpaceOnUse"
       id="clipPath24">
      <path
         d="M 0,660 H 660 V 0 H 0 Z"
         transform="translate(-117.084,-236.7988)"
         id="path24" />
    </clipPath>
    <clipPath
       clipPathUnits="userSpaceOnUse"
       id="clipPath26">
      <path
         d="M 0,660 H 660 V 0 H 0 Z"
         transform="translate(-138.7026,-258.418)"
         id="path26" />
    </clipPath>
    <clipPath
       clipPathUnits="userSpaceOnUse"
       id="clipPath28">
      <path
         d="M 0,660 H 660 V 0 H 0 Z"
         transform="translate(-164.63961,-233.94241)"
         id="path28" />
    </clipPath>
    <clipPath
       clipPathUnits="userSpaceOnUse"
       id="clipPath30">
      <path
         d="M 0,660 H 660 V 0 H 0 Z"
         transform="translate(-189.0391,-207.18751)"
         id="path30" />
    </clipPath>
    <clipPath
       clipPathUnits="userSpaceOnUse"
       id="clipPath32">
      <path
         d="M 0,660 H 660 V 0 H 0 Z"
         transform="translate(-320.71391,-226.14061)"
         id="path32" />
    </clipPath>
    <clipPath
       clipPathUnits="userSpaceOnUse"
       id="clipPath34">
      <path
         d="M 0,660 H 660 V 0 H 0 Z"
         transform="translate(-377.42291,-222.5869)"
         id="path34" />
    </clipPath>
    <clipPath
       clipPathUnits="userSpaceOnUse"
       id="clipPath36">
      <path
         d="M 0,660 H 660 V 0 H 0 Z"
         transform="translate(-602.71091,-272.92681)"
         id="path36" />
    </clipPath>
    <clipPath
       clipPathUnits="userSpaceOnUse"
       id="clipPath38">
      <path
         d="M 0,660 H 660 V 0 H 0 Z"
         transform="translate(-647.42291,-298.98241)"
         id="path38" />
    </clipPath>
    <clipPath
       clipPathUnits="userSpaceOnUse"
       id="clipPath40">
      <path
         d="M 0,660 H 660 V 0 H 0 Z"
         transform="translate(-582.27832,-259.89841)"
         id="path40" />
    </clipPath>
    <clipPath
       clipPathUnits="userSpaceOnUse"
       id="clipPath42">
      <path
         d="M 0,660 H 660 V 0 H 0 Z"
         transform="translate(-560.13571,-284.25391)"
         id="path42" />
    </clipPath>
    <clipPath
       clipPathUnits="userSpaceOnUse"
       id="clipPath44">
      <path
         d="M 0,660 H 660 V 0 H 0 Z"
         transform="translate(-531.05081,-253.38181)"
         id="path44" />
    </clipPath>
    <clipPath
       clipPathUnits="userSpaceOnUse"
       id="clipPath46">
      <path
         d="M 0,660 H 660 V 0 H 0 Z"
         transform="translate(-500.55271,-243.90721)"
         id="path46" />
    </clipPath>
    <clipPath
       clipPathUnits="userSpaceOnUse"
       id="clipPath48">
      <path
         d="M 0,660 H 660 V 0 H 0 Z"
         transform="translate(-66.747101,-278.25681)"
         id="path48" />
    </clipPath>
    <clipPath
       clipPathUnits="userSpaceOnUse"
       id="clipPath50">
      <path
         d="M 0,660 H 660 V 0 H 0 Z"
         transform="translate(-56.532202,-287.2891)"
         id="path50" />
    </clipPath>
    <clipPath
       clipPathUnits="userSpaceOnUse"
       id="clipPath52">
      <path
         d="M 0,660 H 660 V 0 H 0 Z"
         transform="translate(-65.120602,-40.920901)"
         id="path52" />
    </clipPath>
    <clipPath
       clipPathUnits="userSpaceOnUse"
       id="clipPath54">
      <path
         d="M 0,660 H 660 V 0 H 0 Z"
         transform="translate(-87.329102,-68.461899)"
         id="path54" />
    </clipPath>
    <clipPath
       clipPathUnits="userSpaceOnUse"
       id="clipPath56">
      <path
         d="M 0,660 H 660 V 0 H 0 Z"
         transform="translate(-68.388202,-92.834005)"
         id="path56" />
    </clipPath>
    <clipPath
       clipPathUnits="userSpaceOnUse"
       id="clipPath58">
      <path
         d="M 0,660 H 660 V 0 H 0 Z"
         transform="translate(-610.14062,-286.2148)"
         id="path58" />
    </clipPath>
    <clipPath
       clipPathUnits="userSpaceOnUse"
       id="clipPath60">
      <path
         d="M 0,660 H 660 V 0 H 0 Z"
         transform="translate(-542.43071,-42.696301)"
         id="path60" />
    </clipPath>
    <clipPath
       clipPathUnits="userSpaceOnUse"
       id="clipPath62">
      <path
         d="M 0,660 H 660 V 0 H 0 Z"
         transform="translate(-49.182601,-600.46682)"
         id="path62" />
    </clipPath>
    <clipPath
       clipPathUnits="userSpaceOnUse"
       id="clipPath64">
      <path
         d="M 0,660 H 660 V 0 H 0 Z"
         transform="translate(-64.876001,-590.21392)"
         id="path64" />
    </clipPath>
    <clipPath
       clipPathUnits="userSpaceOnUse"
       id="clipPath66">
      <path
         d="M 0,660 H 660 V 0 H 0 Z"
         transform="translate(-51.491201,-600.61132)"
         id="path66" />
    </clipPath>
    <clipPath
       clipPathUnits="userSpaceOnUse"
       id="clipPath68">
      <path
         d="M 0,660 H 660 V 0 H 0 Z"
         transform="translate(-592.08112,-560.41462)"
         id="path68" />
    </clipPath>
    <clipPath
       clipPathUnits="userSpaceOnUse"
       id="clipPath70">
      <path
         d="M 0,660 H 660 V 0 H 0 Z"
         transform="translate(-274.77591,-243.46191)"
         id="path70" />
    </clipPath>
    <clipPath
       clipPathUnits="userSpaceOnUse"
       id="clipPath72">
      <path
         d="M 0,660 H 660 V 0 H 0 Z"
         transform="translate(-274.7749,-313.93551)"
         id="path72" />
    </clipPath>
  </defs>
  <sodipodi:namedview
     id="namedview1"
     pagecolor="#ffffff"
     bordercolor="#000000"
     borderopacity="0.25"
     inkscape:showpageshadow="2"
     inkscape:pageopacity="0.0"
     inkscape:pagecheckerboard="0"
     inkscape:deskcolor="#d1d1d1"
     inkscape:zoom="0.69318182"
     inkscape:cx="439.27869"
     inkscape:cy="440"
     inkscape:window-width="1440"
     inkscape:window-height="830"
     inkscape:window-x="-6"
     inkscape:window-y="-6"
     inkscape:window-maximized="1"
     inkscape:current-layer="g1">
    <inkscape:page
       x="0"
       y="0"
       inkscape:label="1"
       id="page1"
       width="880"
       height="880"
       margin="1.3333334 0.37200001 0.081333332 1.0422573"
       bleed="0" />
  </sodipodi:namedview>
  <g
     id="g1"
     inkscape:groupmode="layer"
     inkscape:label="1">
    <g
       id="group-MC0">
      <path
         id="path2"
         d="M 0.782,1 H 659.721 V 659.94 H 0.782 Z"
         style="fill:#84d7f3;fill-opacity:1;fill-rule:nonzero;stroke:none"
         transform="matrix(1.3333333,0,0,-1.3333333,0,880)" />
      <path
         id="path3"
         d="M 0,0 C 145.334,0 263.868,118.534 263.868,263.868 263.868,409.203 145.334,527.737 0,527.737 -145.334,527.737 -263.87,409.203 -263.87,263.868 -263.87,118.534 -145.334,0 0,0"
         style="fill:#abe4f5;fill-opacity:1;fill-rule:evenodd;stroke:none"
         transform="matrix(1.3333333,0,0,-1.3333333,440.3372,757.75653)"
         clip-path="url(#clipPath4)" />
      <path
         id="path5"
         d="m 0,0 c 108.857,0 197.103,-88.247 197.103,-197.107 0,-108.859 -88.246,-197.106 -197.103,-197.106 -108.861,0 -197.108,88.247 -197.108,197.106 C -197.108,-88.247 -108.861,0 0,0"
         style="fill:#c7edf8;fill-opacity:1;fill-rule:evenodd;stroke:none"
         transform="matrix(1.3333333,0,0,-1.3333333,440.3372,143.12173)"
         clip-path="url(#clipPath6)" />
      <path
         id="path7"
         d="m 0,0 c 71.986,0 130.344,-58.357 130.344,-130.346 0,-71.987 -58.358,-130.346 -130.344,-130.346 -71.99,0 -130.347,58.359 -130.347,130.346 C -130.347,-58.357 -71.99,0 0,0"
         style="fill:#e4f6fc;fill-opacity:1;fill-rule:evenodd;stroke:none"
         transform="matrix(1.3333333,0,0,-1.3333333,440.3372,232.13667)"
         clip-path="url(#clipPath8)" />
      <path
         id="path9"
         d="m 0,0 c 35.02,0 63.583,28.562 63.583,63.582 0,35.021 -28.563,63.585 -63.583,63.585 -35.022,0 -63.584,-28.564 -63.584,-63.585 C -63.584,28.562 -35.022,0 0,0"
         style="fill:#ffffff;fill-opacity:1;fill-rule:evenodd;stroke:none"
         transform="matrix(1.3333333,0,0,-1.3333333,440.3372,490.70707)"
         clip-path="url(#clipPath10)" />
      <path
         id="path11"
         d="M 0,0 V -506.02 H -658.939 V 3.635 c 36.859,-15.801 71.839,-37.758 103.529,-65.822 l 11.506,-10.19 c 118.171,-104.65 293.058,-105.544 412.301,-2.119 C -92.068,-40.206 -47.253,-15.308 0,0"
         style="fill:#ffffff;fill-opacity:1;fill-rule:evenodd;stroke:none"
         transform="matrix(1.3333333,0,0,-1.3333333,879.6276,203.97267)"
         clip-path="url(#clipPath12)" />
      <path
         id="path13"
         d="M 0,0 V -496.661 H -658.939 V 3.568 c 36.859,-15.51 71.839,-37.061 103.529,-64.606 l 11.506,-10 c 118.171,-102.716 293.058,-103.593 412.301,-2.081 C -92.068,-39.462 -47.253,-15.024 0,0"
         style="fill:#275571;fill-opacity:1;fill-rule:evenodd;stroke:none"
         transform="matrix(1.3333333,0,0,-1.3333333,879.6276,216.45187)"
         clip-path="url(#clipPath14)" />
      <path
         id="path15"
         d="M 0,0 V -397.288 H -658.939 V 2.854 c 36.859,-12.406 71.839,-29.646 103.529,-51.679 l 11.506,-8 c 118.171,-82.164 293.058,-82.866 412.301,-1.664 C -92.068,-31.566 -47.253,-12.019 0,0"
         style="fill:#1c3c4f;fill-opacity:1;fill-rule:evenodd;stroke:none"
         transform="matrix(1.3333333,0,0,-1.3333333,879.6276,348.94987)"
         clip-path="url(#clipPath16)" />
      <path
         id="path17"
         d="M 0,0 V -202.07 H -658.939 V 1.453 c 36.859,-6.311 71.839,-15.079 103.529,-26.287 l 11.506,-4.068 c 118.171,-41.791 293.058,-42.148 412.301,-0.844 C -92.068,-16.055 -47.253,-6.111 0,0"
         style="fill:#151f24;fill-opacity:1;fill-rule:evenodd;stroke:none"
         transform="matrix(1.3333333,0,0,-1.3333333,879.6276,609.2396)"
         clip-path="url(#clipPath18)" />
      <path
         id="path19"
         d="M 0,0 8.591,-44.196 17.182,-88.39 H 0 -17.181 l 8.591,44.194 z"
         style="fill:#151f24;fill-opacity:1;fill-rule:evenodd;stroke:none"
         transform="matrix(1.3333333,0,0,-1.3333333,39.64,521.62493)"
         clip-path="url(#clipPath20)" />
      <path
         id="path21"
         d="m 0,0 8.72,-40.864 8.719,-40.865 H 0 -17.438 l 8.72,40.865 z"
         style="fill:#151f24;fill-opacity:1;fill-rule:evenodd;stroke:none"
         transform="matrix(1.3333333,0,0,-1.3333333,114.4584,557.55333)"
         clip-path="url(#clipPath22)" />
      <path
         id="path23"
         d="m 0,0 8.207,-45.082 8.205,-45.082 H 0 -16.411 l 8.204,45.082 z"
         style="fill:#151f24;fill-opacity:1;fill-rule:evenodd;stroke:none"
         transform="matrix(1.3333333,0,0,-1.3333333,156.112,564.26827)"
         clip-path="url(#clipPath24)" />
      <path
         id="path25"
         d="m 0,0 11.284,-57.521 11.283,-57.52 H 0 -22.566 l 11.283,57.52 z"
         style="fill:#151f24;fill-opacity:1;fill-rule:evenodd;stroke:none"
         transform="matrix(1.3333333,0,0,-1.3333333,184.9368,535.44267)"
         clip-path="url(#clipPath26)" />
      <path
         id="path27"
         d="M 0,0 11.463,-42.679 22.926,-85.358 H 0 -22.926 l 11.463,42.679 z"
         style="fill:#151f24;fill-opacity:1;fill-rule:evenodd;stroke:none"
         transform="matrix(1.3333333,0,0,-1.3333333,219.51947,568.0768)"
         clip-path="url(#clipPath28)" />
      <path
         id="path29"
         d="M 0,0 7.821,-38.864 15.643,-77.73 H 0 -15.644 l 7.823,38.866 z"
         style="fill:#151f24;fill-opacity:1;fill-rule:evenodd;stroke:none"
         transform="matrix(1.3333333,0,0,-1.3333333,252.05213,603.75)"
         clip-path="url(#clipPath30)" />
      <path
         id="path31"
         d="m 0,0 14.316,-50.033 14.32,-50.034 H 0 -28.639 l 14.319,50.034 z"
         style="fill:#151f24;fill-opacity:1;fill-rule:evenodd;stroke:none"
         transform="matrix(1.3333333,0,0,-1.3333333,427.61853,578.4792)"
         clip-path="url(#clipPath32)" />
      <path
         id="path33"
         d="m 0,0 9.057,-49.969 9.058,-49.969 H 0 -18.118 l 9.056,49.969 z"
         style="fill:#151f24;fill-opacity:1;fill-rule:evenodd;stroke:none"
         transform="matrix(1.3333333,0,0,-1.3333333,503.23053,583.21747)"
         clip-path="url(#clipPath34)" />
      <path
         id="path35"
         d="m 0,0 13.848,-60.63 13.847,-60.63 H 0 -27.696 l 13.846,60.63 z"
         style="fill:#151f24;fill-opacity:1;fill-rule:evenodd;stroke:none"
         transform="matrix(1.3333333,0,0,-1.3333333,803.61453,516.0976)"
         clip-path="url(#clipPath36)" />
      <path
         id="path37"
         d="m 0,0 12.298,-59.554 v -68.364 H 0 -26.413 l 13.206,63.959 z"
         style="fill:#151f24;fill-opacity:1;fill-rule:evenodd;stroke:none"
         transform="matrix(1.3333333,0,0,-1.3333333,863.23053,481.3568)"
         clip-path="url(#clipPath38)" />
      <path
         id="path39"
         d="m 0,0 14.489,-69.292 14.489,-69.291 H 0 -28.977 l 14.488,69.291 z"
         style="fill:#151f24;fill-opacity:1;fill-rule:evenodd;stroke:none"
         transform="matrix(1.3333333,0,0,-1.3333333,776.37107,533.4688)"
         clip-path="url(#clipPath40)" />
      <path
         id="path41"
         d="m 0,0 12.565,-61.74 12.566,-61.741 H 0 -25.132 l 12.567,61.741 z"
         style="fill:#151f24;fill-opacity:1;fill-rule:evenodd;stroke:none"
         transform="matrix(1.3333333,0,0,-1.3333333,746.8476,500.9948)"
         clip-path="url(#clipPath42)" />
      <path
         id="path43"
         d="m 0,0 17.183,-69.065 17.18,-69.071 H 0 -34.361 l 17.18,69.071 z"
         style="fill:#151f24;fill-opacity:1;fill-rule:evenodd;stroke:none"
         transform="matrix(1.3333333,0,0,-1.3333333,708.06773,542.1576)"
         clip-path="url(#clipPath44)" />
      <path
         id="path45"
         d="m 0,0 13.205,-57.077 13.206,-57.075 H 0 -26.415 l 13.207,57.075 z"
         style="fill:#151f24;fill-opacity:1;fill-rule:evenodd;stroke:none"
         transform="matrix(1.3333333,0,0,-1.3333333,667.4036,554.7904)"
         clip-path="url(#clipPath46)" />
      <path
         id="path47"
         d="m 0,0 9.36,-57.521 9.361,-57.518 H 0 -18.72 l 9.36,57.518 z"
         style="fill:#151f24;fill-opacity:1;fill-rule:evenodd;stroke:none"
         transform="matrix(1.3333333,0,0,-1.3333333,88.996133,508.99093)"
         clip-path="url(#clipPath48)" />
      <path
         id="path49"
         d="m 0,0 c 15.494,0 28.13,12.637 28.13,28.131 0,15.494 -12.636,28.13 -28.13,28.13 -15.494,0 -28.131,-12.636 -28.131,-28.13 C -28.131,12.637 -15.494,0 0,0"
         style="fill:#275571;fill-opacity:1;fill-rule:evenodd;stroke:none"
         transform="matrix(1.3333333,0,0,-1.3333333,75.376267,496.94787)"
         clip-path="url(#clipPath50)" />
      <path
         id="path51"
         d="M 0,0 C 14.352,0 26.059,11.708 26.059,26.059 26.059,40.411 14.352,52.117 0,52.117 -14.352,52.117 -26.058,40.411 -26.058,26.059 -26.058,11.708 -14.352,0 0,0"
         style="fill:#1c3c4f;fill-opacity:1;fill-rule:evenodd;stroke:none"
         transform="matrix(1.3333333,0,0,-1.3333333,86.827467,825.4388)"
         clip-path="url(#clipPath52)" />
      <path
         id="path53"
         d="m 0,0 c 10.764,0 19.543,8.777 19.543,19.542 0,10.766 -8.779,19.543 -19.543,19.543 -10.764,0 -19.543,-8.777 -19.543,-19.543 C -19.543,8.777 -10.764,0 0,0"
         style="fill:#1c3c4f;fill-opacity:1;fill-rule:evenodd;stroke:none"
         transform="matrix(1.3333333,0,0,-1.3333333,116.4388,788.71747)"
         clip-path="url(#clipPath54)" />
      <path
         id="path55"
         d="m 0,0 c 12.247,-1.531 21.851,-11.565 22.725,-24.006 -1.226,-0.241 -2.49,-0.368 -3.784,-0.368 -10.794,0 -19.544,8.751 -19.544,19.544 0,1.668 0.21,3.285 0.603,4.83"
         style="fill:#275571;fill-opacity:1;fill-rule:evenodd;stroke:none"
         transform="matrix(1.3333333,0,0,-1.3333333,91.184267,756.22133)"
         clip-path="url(#clipPath56)" />
      <path
         id="path57"
         d="m 0,0 c 6.495,0 11.791,5.296 11.791,11.789 0,6.492 -5.296,11.788 -11.791,11.788 -6.492,0 -11.788,-5.296 -11.788,-11.788 C -11.788,5.296 -6.492,0 0,0"
         style="fill:#275571;fill-opacity:1;fill-rule:evenodd;stroke:none"
         transform="matrix(1.3333333,0,0,-1.3333333,813.5208,498.38027)"
         clip-path="url(#clipPath58)" />
      <path
         id="path59"
         d="M 0,0 C 14.173,0 25.734,11.561 25.734,25.735 25.734,39.908 14.173,51.47 0,51.47 -14.174,51.47 -25.734,39.908 -25.734,25.735 -25.734,11.561 -14.174,0 0,0"
         style="fill:#1c3c4f;fill-opacity:1;fill-rule:evenodd;stroke:none"
         transform="matrix(1.3333333,0,0,-1.3333333,723.24093,823.0716)"
         clip-path="url(#clipPath60)" />
      <path
         id="path61"
         d="m 0,0 c 10.142,0 18.414,8.272 18.414,18.414 0,10.143 -8.272,18.415 -18.414,18.415 -10.144,0 -18.416,-8.272 -18.416,-18.415 C -18.416,8.272 -10.144,0 0,0"
         style="fill:#abe4f5;fill-opacity:1;fill-rule:evenodd;stroke:none"
         transform="matrix(1.3333333,0,0,-1.3333333,65.5768,79.3776)"
         clip-path="url(#clipPath62)" />
      <path
         id="path63"
         d="m 0,0 c 7.607,0 13.811,6.204 13.811,13.811 0,7.607 -6.204,13.811 -13.811,13.811 -7.607,0 -13.811,-6.204 -13.811,-13.811 C -13.811,6.204 -7.607,0 0,0"
         style="fill:#abe4f5;fill-opacity:1;fill-rule:evenodd;stroke:none"
         transform="matrix(1.3333333,0,0,-1.3333333,86.501333,93.048133)"
         clip-path="url(#clipPath64)" />
      <path
         id="path65"
         d="m 0,0 c 8.654,1.083 15.442,8.172 16.058,16.965 -0.865,0.169 -1.759,0.259 -2.673,0.259 C 5.757,17.224 -0.426,11.041 -0.426,3.413 -0.426,2.235 -0.278,1.092 0,0"
         style="fill:#c7edf8;fill-opacity:1;fill-rule:evenodd;stroke:none"
         transform="matrix(1.3333333,0,0,-1.3333333,68.654933,79.184933)"
         clip-path="url(#clipPath66)" />
      <path
         id="path67"
         d="m 0,0 c 11.548,0 20.967,9.419 20.967,20.968 0,11.548 -9.419,20.968 -20.967,20.968 -11.55,0 -20.969,-9.42 -20.969,-20.968 C -20.969,9.419 -11.55,0 0,0"
         style="fill:#abe4f5;fill-opacity:1;fill-rule:evenodd;stroke:none"
         transform="matrix(1.3333333,0,0,-1.3333333,789.44147,132.78053)"
         clip-path="url(#clipPath68)" />
      <path
         id="path69"
         d="M 0,0 C 19.408,0 35.237,15.829 35.237,35.236 35.237,54.645 19.408,70.474 0,70.474 -19.408,70.474 -35.238,54.645 -35.238,35.236 -35.238,15.829 -19.408,0 0,0"
         style="fill:#275571;fill-opacity:1;fill-rule:evenodd;stroke:none"
         transform="matrix(1.3333333,0,0,-1.3333333,366.36787,555.38413)"
         clip-path="url(#clipPath70)" />
      <path
         id="path71"
         d="m 0,0 c 19.161,0 34.75,-15.292 35.226,-34.339 -23.304,0.778 -46.516,3.61 -69.192,8.504 C -29.852,-10.938 -16.204,0 0,0"
         style="fill:#34708f;fill-opacity:1;fill-rule:evenodd;stroke:none"
         transform="matrix(1.3333333,0,0,-1.3333333,366.36653,461.41933)"
         clip-path="url(#clipPath72)" />
    </g>
  </g>
</svg>
