<?xml version="1.0" encoding="UTF-8" standalone="no"?>
<!-- Created with Inkscape (http://www.inkscape.org/) -->

<svg
   version="1.1"
   id="svg1"
   width="880"
   height="880"
   viewBox="0 0 880 880"
   sodipodi:docname="autumn-park.svg"
   inkscape:version="1.3.2 (091e20e, 2023-11-25, custom)"
   xmlns:inkscape="http://www.inkscape.org/namespaces/inkscape"
   xmlns:sodipodi="http://sodipodi.sourceforge.net/DTD/sodipodi-0.dtd"
   xmlns="http://www.w3.org/2000/svg"
   xmlns:svg="http://www.w3.org/2000/svg">
  <defs
     id="defs1">
    <clipPath
       clipPathUnits="userSpaceOnUse"
       id="clipPath4">
      <path
         d="M 0,660 H 660 V 0 H 0 Z"
         transform="translate(-168.4761,-346.36131)"
         id="path4" />
    </clipPath>
    <clipPath
       clipPathUnits="userSpaceOnUse"
       id="clipPath6">
      <path
         d="M 0,660 H 660 V 0 H 0 Z"
         id="path6" />
    </clipPath>
    <clipPath
       clipPathUnits="userSpaceOnUse"
       id="clipPath8">
      <path
         d="M 0,660 H 660 V 0 H 0 Z"
         transform="translate(-604.64842,-180.25881)"
         id="path8" />
    </clipPath>
    <clipPath
       clipPathUnits="userSpaceOnUse"
       id="clipPath10">
      <path
         d="M 0,660 H 660 V 0 H 0 Z"
         transform="translate(-604.64842,-358.13431)"
         id="path10" />
    </clipPath>
    <clipPath
       clipPathUnits="userSpaceOnUse"
       id="clipPath12">
      <path
         d="M 0,660 H 660 V 0 H 0 Z"
         transform="translate(-604.64842,-358.13431)"
         id="path12" />
    </clipPath>
    <clipPath
       clipPathUnits="userSpaceOnUse"
       id="clipPath14">
      <path
         d="M 0,660 H 660 V 0 H 0 Z"
         id="path14" />
    </clipPath>
    <clipPath
       clipPathUnits="userSpaceOnUse"
       id="clipPath16">
      <path
         d="M 0,660 H 660 V 0 H 0 Z"
         transform="translate(-321.43311,-112.13481)"
         id="path16" />
    </clipPath>
    <clipPath
       clipPathUnits="userSpaceOnUse"
       id="clipPath18">
      <path
         d="M 0,660 H 660 V 0 H 0 Z"
         transform="translate(-467.24021,-75.081099)"
         id="path18" />
    </clipPath>
    <clipPath
       clipPathUnits="userSpaceOnUse"
       id="clipPath20">
      <path
         d="M 0,660 H 660 V 0 H 0 Z"
         transform="translate(-182.1133,-362.45701)"
         id="path20" />
    </clipPath>
    <clipPath
       clipPathUnits="userSpaceOnUse"
       id="clipPath22">
      <path
         d="M 0,660 H 660 V 0 H 0 Z"
         transform="translate(-123.2808,-560.34571)"
         id="path22" />
    </clipPath>
    <clipPath
       clipPathUnits="userSpaceOnUse"
       id="clipPath24">
      <path
         d="M 0,660 H 660 V 0 H 0 Z"
         transform="translate(-321.43311,-208.32321)"
         id="path24" />
    </clipPath>
    <clipPath
       clipPathUnits="userSpaceOnUse"
       id="clipPath26">
      <path
         d="M 0,660 H 660 V 0 H 0 Z"
         transform="translate(-321.43311,-470.22361)"
         id="path26" />
    </clipPath>
    <clipPath
       clipPathUnits="userSpaceOnUse"
       id="clipPath28">
      <path
         d="M 0,660 H 660 V 0 H 0 Z"
         id="path28" />
    </clipPath>
    <clipPath
       clipPathUnits="userSpaceOnUse"
       id="clipPath30">
      <path
         d="M 0,660 H 660 V 0 H 0 Z"
         id="path30" />
    </clipPath>
    <clipPath
       clipPathUnits="userSpaceOnUse"
       id="clipPath32">
      <path
         d="M 0,660 H 660 V 0 H 0 Z"
         transform="translate(-547.50391,-356.69821)"
         id="path32" />
    </clipPath>
    <clipPath
       clipPathUnits="userSpaceOnUse"
       id="clipPath34">
      <path
         d="M 0,660 H 660 V 0 H 0 Z"
         transform="translate(-471.36131,-612.81402)"
         id="path34" />
    </clipPath>
    <clipPath
       clipPathUnits="userSpaceOnUse"
       id="clipPath36">
      <path
         d="M 0,660 H 660 V 0 H 0 Z"
         transform="translate(-120.09771,-144.86331)"
         id="path36" />
    </clipPath>
    <clipPath
       clipPathUnits="userSpaceOnUse"
       id="clipPath38">
      <path
         d="M 0,660 H 660 V 0 H 0 Z"
         id="path38" />
    </clipPath>
    <clipPath
       clipPathUnits="userSpaceOnUse"
       id="clipPath40">
      <path
         d="M 0,660 H 660 V 0 H 0 Z"
         transform="translate(-132.59031,-114.2275)"
         id="path40" />
    </clipPath>
    <clipPath
       clipPathUnits="userSpaceOnUse"
       id="clipPath42">
      <path
         d="M 0,660 H 660 V 0 H 0 Z"
         transform="translate(-90.899905,0.0518025)"
         id="path42" />
    </clipPath>
    <clipPath
       clipPathUnits="userSpaceOnUse"
       id="clipPath44">
      <path
         d="M 0,660 H 660 V 0 H 0 Z"
         transform="translate(-527.90431,-152.88381)"
         id="path44" />
    </clipPath>
    <clipPath
       clipPathUnits="userSpaceOnUse"
       id="clipPath46">
      <path
         d="M 0,660 H 660 V 0 H 0 Z"
         transform="translate(-527.90431,-152.88381)"
         id="path46" />
    </clipPath>
  </defs>
  <sodipodi:namedview
     id="namedview1"
     pagecolor="#ffffff"
     bordercolor="#000000"
     borderopacity="0.25"
     inkscape:showpageshadow="2"
     inkscape:pageopacity="0.0"
     inkscape:pagecheckerboard="0"
     inkscape:deskcolor="#d1d1d1"
     inkscape:zoom="0.67272727"
     inkscape:cx="439.25676"
     inkscape:cy="440"
     inkscape:window-width="1440"
     inkscape:window-height="830"
     inkscape:window-x="-6"
     inkscape:window-y="-6"
     inkscape:window-maximized="1"
     inkscape:current-layer="g1">
    <inkscape:page
       x="0"
       y="0"
       inkscape:label="1"
       id="page1"
       width="880"
       height="880"
       margin="0 1.4346666 1.5026667 0"
       bleed="0" />
  </sodipodi:namedview>
  <g
     id="g1"
     inkscape:groupmode="layer"
     inkscape:label="1">
    <g
       id="group-MC0">
      <path
         id="path2"
         d="M 0,0 H 658.924 V 658.873 H 0 Z"
         style="fill:#b2e4cd;fill-opacity:1;fill-rule:nonzero;stroke:none"
         transform="matrix(1.3333333,0,0,-1.3333333,0,880)" />
      <path
         id="path3"
         d="m 0,0 c 79.031,0 143.489,64.457 143.489,143.488 0,79.031 -64.458,143.49 -143.489,143.49 -79.031,0 -143.489,-64.459 -143.489,-143.49 C -143.489,64.457 -79.031,0 0,0"
         style="fill:#e2f5ec;fill-opacity:1;fill-rule:evenodd;stroke:none"
         transform="matrix(1.3333333,0,0,-1.3333333,224.6348,418.18493)"
         clip-path="url(#clipPath4)" />
      <path
         id="path5"
         d="M 0,-0.052 H 658.924 V 191.187 H 0 Z"
         style="fill:#5ab993;fill-opacity:1;fill-rule:evenodd;stroke:none"
         transform="matrix(1.3333333,0,0,-1.3333333,0,880)"
         clip-path="url(#clipPath6)" />
      <path
         id="path7"
         d="m 0,0 c 15.543,0 28.141,-0.998 28.141,-2.23 0,-1.232 -12.598,-2.231 -28.141,-2.231 -15.541,0 -28.139,0.999 -28.139,2.231 C -28.139,-0.998 -15.541,0 0,0"
         style="fill:#4aa281;fill-opacity:1;fill-rule:evenodd;stroke:none"
         transform="matrix(1.3333333,0,0,-1.3333333,806.19787,639.65493)"
         clip-path="url(#clipPath8)" />
      <path
         id="path9"
         d="m 0,0 c 22.381,0 42.182,-11.025 54.275,-27.939 v -77.48 C 42.182,-122.332 22.381,-133.358 0,-133.358 c -36.824,0 -66.68,29.853 -66.68,66.679 C -66.68,-29.853 -36.824,0 0,0"
         style="fill:#f9de1c;fill-opacity:1;fill-rule:evenodd;stroke:none"
         transform="matrix(1.3333333,0,0,-1.3333333,806.19787,402.4876)"
         clip-path="url(#clipPath10)" />
      <path
         id="path11"
         d="m 0,0 c 0.574,0 1.145,-0.006 1.713,-0.021 v -42.593 l 32.926,32.923 c 0.996,-0.607 1.976,-1.244 2.937,-1.901 L 1.713,-47.455 v -64.376 l 52.562,52.564 v -4.841 L 1.713,-116.671 v -16.665 c -0.568,-0.015 -1.139,-0.022 -1.713,-0.022 -0.57,0 -1.143,0.007 -1.713,0.022 v 16.665 l -63.578,63.58 c 0.273,1.317 0.586,2.618 0.936,3.904 l 62.642,-62.644 v 64.376 l -35.861,35.863 c 0.963,0.657 1.941,1.294 2.937,1.901 L -1.713,-42.614 V -0.021 C -1.143,-0.006 -0.57,0 0,0"
         style="fill:#faf462;fill-opacity:1;fill-rule:evenodd;stroke:none"
         transform="matrix(1.3333333,0,0,-1.3333333,806.19787,402.4876)"
         clip-path="url(#clipPath12)" />
      <path
         id="path13"
         d="m 602.935,234.38 h 3.426 v -56.352 h -3.426 z"
         style="fill:#faf462;fill-opacity:1;fill-rule:evenodd;stroke:none"
         transform="matrix(1.3333333,0,0,-1.3333333,0,880)"
         clip-path="url(#clipPath14)" />
      <path
         id="path15"
         d="m 0,0 c 30.438,0 55.266,1.968 55.266,4.381 0,2.412 -24.828,4.38 -55.266,4.38 -30.438,0 -55.266,-1.968 -55.266,-4.38 C -55.266,1.968 -30.438,0 0,0"
         style="fill:#4aa281;fill-opacity:1;fill-rule:evenodd;stroke:none"
         transform="matrix(1.3333333,0,0,-1.3333333,428.57747,730.48693)"
         clip-path="url(#clipPath16)" />
      <path
         id="path17"
         d="M 0,0 C 39.397,0 71.527,2.547 71.527,5.671 71.527,8.793 39.397,11.34 0,11.34 -39.395,11.34 -71.527,8.793 -71.527,5.671 -71.527,2.547 -39.395,0 0,0"
         style="fill:#4aa281;fill-opacity:1;fill-rule:evenodd;stroke:none"
         transform="matrix(1.3333333,0,0,-1.3333333,622.98693,779.89187)"
         clip-path="url(#clipPath18)" />
      <path
         id="path19"
         d="m 0,0 c 22.199,-18.042 36.382,-45.563 36.382,-76.398 0,-54.346 -44.055,-98.401 -98.4,-98.401 -54.344,0 -98.399,44.055 -98.399,98.401 0,30.834 14.184,58.356 36.383,76.398 14.732,11.972 18.681,32.34 9.492,48.952 -4.753,8.592 -7.459,18.475 -7.459,28.988 0,19.521 9.325,36.86 23.761,47.812 8.476,6.431 11.319,17.523 6.979,27.237 -1.779,3.984 -2.77,8.398 -2.77,13.044 0,17.681 14.333,32.013 32.013,32.013 17.681,0 32.014,-14.332 32.014,-32.013 0,-4.646 -0.99,-9.06 -2.77,-13.044 -4.34,-9.714 -1.497,-20.806 6.978,-27.237 C -11.358,114.8 -2.035,97.461 -2.035,77.94 -2.035,67.427 -4.74,57.544 -9.493,48.952 -18.682,32.34 -14.732,11.972 0,0"
         style="fill:#3d8c6f;fill-opacity:1;fill-rule:evenodd;stroke:none"
         transform="matrix(1.3333333,0,0,-1.3333333,242.81773,396.724)"
         clip-path="url(#clipPath20)" />
      <path
         id="path21"
         d="m 0,0 v -39.472 l 24.203,24.202 c 1.164,-1.919 2.13,-3.971 2.876,-6.128 L 0,-48.476 v -94.202 l 50.168,50.167 c 1.037,-2.014 1.963,-4.094 2.772,-6.233 L 0,-151.683 v -148.972 l 79.591,79.59 c 1.184,-1.837 2.308,-3.716 3.369,-5.634 L 0,-309.661 v -62.97 c -1.058,-0.034 -2.118,-0.056 -3.185,-0.056 -1.065,0 -2.126,0.022 -3.183,0.056 v 62.968 l -82.962,82.962 c 1.061,1.919 2.186,3.798 3.37,5.635 l 79.592,-79.592 v 148.972 l -52.943,52.942 c 0.809,2.139 1.736,4.219 2.774,6.233 l 50.169,-50.17 v 94.202 l -27.081,27.081 c 0.745,2.157 1.712,4.209 2.877,6.128 L -6.368,-39.474 V 0 C -5.32,0.104 -4.259,0.158 -3.185,0.158 -2.11,0.158 -1.047,0.104 0,0"
         style="fill:#8ed7b6;fill-opacity:1;fill-rule:evenodd;stroke:none"
         transform="matrix(1.3333333,0,0,-1.3333333,164.3744,132.8724)"
         clip-path="url(#clipPath22)" />
      <path
         id="path23"
         d="m 0,0 c 72.126,0 130.952,58.825 130.952,130.95 0,72.126 -58.826,130.951 -130.952,130.951 -72.126,0 -130.951,-58.825 -130.951,-130.951 C -130.951,58.825 -72.126,0 0,0"
         style="fill:#fbca07;fill-opacity:1;fill-rule:evenodd;stroke:none"
         transform="matrix(1.3333333,0,0,-1.3333333,428.57747,602.23573)"
         clip-path="url(#clipPath24)" />
      <path
         id="path25"
         d="M 0,0 C 1.125,0 2.245,-0.014 3.362,-0.043 V -83.69 l 64.658,64.659 c 1.961,-1.195 3.885,-2.443 5.774,-3.735 L 3.362,-93.199 v -126.423 l 123.025,123.025 c 0.686,-2.528 1.305,-5.084 1.84,-7.67 L 3.362,-229.13 v -32.729 C 2.245,-261.888 1.125,-261.9 0,-261.9 c -1.124,0 -2.245,0.012 -3.363,0.041 v 32.729 l -124.864,124.863 c 0.535,2.586 1.154,5.142 1.839,7.67 L -3.363,-219.622 v 126.423 l -70.432,70.433 c 1.891,1.292 3.813,2.54 5.775,3.735 L -3.363,-83.69 V -0.043 C -2.245,-0.014 -1.124,0 0,0"
         style="fill:#faf462;fill-opacity:1;fill-rule:evenodd;stroke:none"
         transform="matrix(1.3333333,0,0,-1.3333333,428.57747,253.0352)"
         clip-path="url(#clipPath26)" />
      <path
         id="path27"
         d="m 318.07,116.515 h 6.725 v 110.668 h -6.725 z"
         style="fill:#faf462;fill-opacity:1;fill-rule:evenodd;stroke:none"
         transform="matrix(1.3333333,0,0,-1.3333333,0,880)"
         clip-path="url(#clipPath28)" />
      <path
         id="path29"
         d="m 463.119,80.75 h 8.242 v 93.334 h -8.242 z"
         style="fill:#8ed7b6;fill-opacity:1;fill-rule:evenodd;stroke:none"
         transform="matrix(1.3333333,0,0,-1.3333333,0,880)"
         clip-path="url(#clipPath30)" />
      <path
         id="path31"
         d="m 0,0 c 28.73,-23.35 47.088,-58.97 47.088,-98.878 0,-70.334 -57.018,-127.351 -127.354,-127.351 -70.334,0 -127.351,57.017 -127.351,127.351 0,39.908 18.357,75.528 47.088,98.878 19.064,15.495 24.177,41.857 12.285,63.355 -6.153,11.12 -9.653,23.911 -9.653,37.519 0,25.263 12.067,47.705 30.752,61.88 10.969,8.322 14.649,22.679 9.032,35.249 -2.303,5.157 -3.586,10.871 -3.586,16.883 0,22.883 18.551,41.433 41.433,41.433 22.885,0 41.434,-18.55 41.434,-41.433 0,-6.012 -1.283,-11.726 -3.586,-16.883 -5.617,-12.571 -1.936,-26.926 9.033,-35.249 18.684,-14.175 30.754,-36.617 30.754,-61.88 0,-13.608 -3.504,-26.399 -9.654,-37.519 C -24.18,41.857 -19.066,15.496 0,0"
         style="fill:#2c6d55;fill-opacity:1;fill-rule:evenodd;stroke:none"
         transform="matrix(1.3333333,0,0,-1.3333333,730.0052,404.4024)"
         clip-path="url(#clipPath32)" />
      <path
         id="path33"
         d="m 0,0 v -51.087 l 31.322,31.324 c 1.508,-2.485 2.76,-5.141 3.723,-7.932 L 0,-62.741 V -184.66 l 64.928,64.927 c 1.342,-2.605 2.541,-5.298 3.588,-8.065 L 0,-196.314 V -389.12 l 103.008,103.008 c 1.533,-2.378 2.988,-4.808 4.363,-7.291 L 0,-400.774 v -81.499 c -1.369,-0.044 -2.742,-0.072 -4.123,-0.072 -1.379,0 -2.75,0.028 -4.119,0.072 v 81.496 l -107.373,107.372 c 1.375,2.484 2.83,4.915 4.361,7.293 L -8.242,-389.124 v 192.806 l -68.52,68.52 c 1.047,2.767 2.244,5.46 3.588,8.065 l 64.932,-64.93 v 121.919 l -35.049,35.049 c 0.963,2.791 2.215,5.447 3.723,7.932 L -8.242,-51.089 V 0 c 1.355,0.134 2.728,0.204 4.119,0.204 C -2.732,0.204 -1.355,0.134 0,0"
         style="fill:#4aa281;fill-opacity:1;fill-rule:evenodd;stroke:none"
         transform="matrix(1.3333333,0,0,-1.3333333,628.48173,62.914667)"
         clip-path="url(#clipPath34)" />
      <path
         id="path35"
         d="m 0,0 c 30.439,0 55.266,1.968 55.266,4.381 0,2.412 -24.827,4.38 -55.266,4.38 -30.439,0 -55.266,-1.968 -55.266,-4.38 C -55.266,1.968 -30.439,0 0,0"
         style="fill:#4aa281;fill-opacity:1;fill-rule:evenodd;stroke:none"
         transform="matrix(1.3333333,0,0,-1.3333333,160.13027,686.84893)"
         clip-path="url(#clipPath36)" />
      <path
         id="path37"
         d="m 116.913,149.243 h 6.368 v 72.116 h -6.368 z"
         style="fill:#8ed7b6;fill-opacity:1;fill-rule:evenodd;stroke:none"
         transform="matrix(1.3333333,0,0,-1.3333333,0,880)"
         clip-path="url(#clipPath38)" />
      <path
         id="path39"
         d="M 0,0 C 33.784,-27.458 56.332,-68.205 59.678,-114.279 H -132.59 v 432.071 c 8.549,5.936 18.929,9.418 30.126,9.418 29.212,0 52.892,-23.681 52.892,-52.893 0,-7.675 -1.635,-14.969 -4.576,-21.551 -7.171,-16.049 -2.474,-34.375 11.53,-44.999 23.851,-18.095 39.257,-46.746 39.257,-78.995 0,-17.372 -4.47,-33.7 -12.323,-47.895 C -30.866,53.433 -24.339,19.78 0,0"
         style="fill:#22503f;fill-opacity:1;fill-rule:evenodd;stroke:none"
         transform="matrix(1.3333333,0,0,-1.3333333,176.78707,727.69667)"
         clip-path="url(#clipPath40)" />
      <path
         id="path41"
         d="m 0,0 h 14.877 l 66.678,66.679 c -1.754,3.169 -3.612,6.273 -5.568,9.308 z M -55.511,441.229 V 376.014 L -15.525,416 c 1.924,-3.171 3.523,-6.563 4.754,-10.125 l -44.74,-44.739 V 205.497 l 82.886,82.885 c 1.714,-3.326 3.245,-6.764 4.581,-10.296 L -55.511,190.62 V 0 H -66.032 V 190.616 L -90.9,215.483 v 14.878 l 24.868,-24.868 V 361.132 L -90.9,386 v 14.877 l 24.868,-24.868 v 65.22 c 1.729,0.171 3.483,0.26 5.258,0.26 1.776,0 3.532,-0.088 5.263,-0.26"
         style="fill:#4aa281;fill-opacity:1;fill-rule:evenodd;stroke:none"
         transform="matrix(1.3333333,0,0,-1.3333333,121.19987,880.06907)"
         clip-path="url(#clipPath42)" />
      <path
         id="path43"
         d="M 0,0 C 49.133,0 94.488,-16.187 131.019,-43.517 V -152.936 H -208.807 C -180.807,-64.278 -97.914,0 0,0"
         style="fill:#fbca07;fill-opacity:1;fill-rule:evenodd;stroke:none"
         transform="matrix(1.3333333,0,0,-1.3333333,703.8724,676.15493)"
         clip-path="url(#clipPath44)" />
      <path
         id="path45"
         d="M 0,0 C 1.879,0 3.754,-0.024 5.621,-0.071 V -139.925 L 113.725,-31.82 c 3.277,-1.996 6.494,-4.083 9.654,-6.244 L 8.51,-152.936 H -8.51 l -114.873,114.872 c 3.162,2.161 6.379,4.248 9.654,6.244 L -5.623,-139.925 V -0.071 C -3.754,-0.024 -1.881,0 0,0"
         style="fill:#faf462;fill-opacity:1;fill-rule:evenodd;stroke:none"
         transform="matrix(1.3333333,0,0,-1.3333333,703.8724,676.15493)"
         clip-path="url(#clipPath46)" />
    </g>
  </g>
</svg>
