<?xml version="1.0" encoding="UTF-8" standalone="no"?>
<!-- Created with Inkscape (http://www.inkscape.org/) -->

<svg
   version="1.1"
   id="svg1"
   width="880"
   height="880"
   viewBox="0 0 880 880"
   sodipodi:docname="forest-trees.svg"
   inkscape:version="1.3.2 (091e20e, 2023-11-25, custom)"
   xmlns:inkscape="http://www.inkscape.org/namespaces/inkscape"
   xmlns:sodipodi="http://sodipodi.sourceforge.net/DTD/sodipodi-0.dtd"
   xmlns="http://www.w3.org/2000/svg"
   xmlns:svg="http://www.w3.org/2000/svg">
  <defs
     id="defs1">
    <clipPath
       clipPathUnits="userSpaceOnUse"
       id="clipPath9">
      <path
         d="M 0,660 H 660 V 0 H 0 Z"
         transform="translate(-215.7979,-529.11721)"
         id="path9" />
    </clipPath>
    <clipPath
       clipPathUnits="userSpaceOnUse"
       id="clipPath11">
      <path
         d="M 0,660 H 660 V 0 H 0 Z"
         transform="translate(-212.37841,-529.11721)"
         id="path11" />
    </clipPath>
  </defs>
  <sodipodi:namedview
     id="namedview1"
     pagecolor="#ffffff"
     bordercolor="#000000"
     borderopacity="0.25"
     inkscape:showpageshadow="2"
     inkscape:pageopacity="0.0"
     inkscape:pagecheckerboard="0"
     inkscape:deskcolor="#d1d1d1"
     inkscape:zoom="0.67272727"
     inkscape:cx="439.25676"
     inkscape:cy="440"
     inkscape:window-width="1440"
     inkscape:window-height="830"
     inkscape:window-x="-6"
     inkscape:window-y="-6"
     inkscape:window-maximized="1"
     inkscape:current-layer="g1">
    <inkscape:page
       x="0"
       y="0"
       inkscape:label="1"
       id="page1"
       width="880"
       height="880"
       margin="0 0 0.25066668 0.15358533"
       bleed="0" />
  </sodipodi:namedview>
  <g
     id="g1"
     inkscape:groupmode="layer"
     inkscape:label="1">
    <g
       id="group-MC0">
      <path
         id="path2"
         d="M 0.115,0 H 660 V 659.812 H 0.115 Z"
         style="fill:#90dad8;fill-opacity:1;fill-rule:nonzero;stroke:none"
         transform="matrix(1.3333333,0,0,-1.3333333,0,880)" />
      <path
         id="path3"
         d="m 0,0 -644.468,-623.626 v -36.186 h 132.955 L 15.416,-149.923 V 0 Z M -306.095,0 -644.468,-327.429 V -499.995 L -127.761,0 Z m -101.612,-659.812 h 260.847 l 162.276,157.028 v 252.413 z"
         style="fill:#aae3e6;fill-opacity:1;fill-rule:nonzero;stroke:none"
         transform="matrix(1.3333333,0,0,-1.3333333,859.4448,0.2512)" />
      <path
         id="path4"
         d="M 0.115,0 H 660 V 136.784 H 0.115 Z"
         style="fill:#65bdbb;fill-opacity:1;fill-rule:nonzero;stroke:none"
         transform="matrix(1.3333333,0,0,-1.3333333,0,880)" />
      <path
         id="path5"
         d="M 0,0 -11.753,-552.964 12.818,-597.835 10.682,0 Z m -157.048,0 23.502,-554.034 38.462,-47.006 L -139.955,0 Z m -126.218,0 -14.806,-565.784 33.119,-38.462 L -258.542,0 Z m -120.573,0 -3.204,-624.544 23.504,28.846 v 4.272 L -391.018,0 Z m -89.741,0 -23.504,-540.146 32.051,-30.98 L -475.418,0 Z"
         style="fill:#65bdbb;fill-opacity:1;fill-rule:nonzero;stroke:none"
         transform="matrix(1.3333333,0,0,-1.3333333,738.654,0.2512)" />
      <path
         id="path6"
         d="M 0,0 4.726,-111.428 24.017,-92.761 17.093,0 Z m -127.977,-67.274 -4.634,-177.051 28.82,27.89 1.851,174.355 z m 283.123,-22.231 -3.578,-168.302 17.025,16.475 -0.587,164.272 z m -402.876,-93.649 -0.89,-173.427 18.927,18.314 -2.155,170.481 z m 257.495,-47.03 6.716,-158.341 27.622,26.729 -11.477,153.734 z m -358.519,-50.728 -7.84,-180.152 30.967,29.965 2.954,175.424 z m 212.824,-90.255 -3.974,-151.859 h -87.452 l -0.792,62.625 -21.11,-20.426 -0.216,-42.199 h -43.392 l -34.878,-33.749 -7.539,-7.296 -61.544,-59.555 v -36.186 h 132.955 l 123.516,119.523 33.474,32.39 1.766,166.551 z m 285.317,10.802 -3.456,-162.661 H 56.138 l -5.042,67.548 -30.521,-29.535 1.613,-38.013 H -18.71 l -141.356,-136.786 h 260.847 l 67.341,65.165 1.729,1.672 72.286,69.949 H 169.6 l -0.648,181.59 z"
         style="fill:#7ed4d3;fill-opacity:1;fill-rule:nonzero;stroke:none"
         transform="matrix(1.3333333,0,0,-1.3333333,529.2564,0.2512)" />
      <path
         id="path7"
         d="m 0,0 23.983,-659.812 h 26.743 v 23.047 L 12.821,0 Z m -144.759,0 -12.683,-659.812 h 43.622 L -131.938,0 Z m -92.946,0 v -659.812 h 21.349 L -223.816,0 Z m -40.78,0 -49.914,-659.812 h 36.276 L -262.279,0 Z m -144.045,0 -34.108,-659.812 h 27.739 L -410.779,0 Z m -93.215,0 v -654.458 -5.354 h 33.072 L -502.924,0 Z m -66.237,0 -27.114,-659.812 h 18.611 L -571.298,0 Z"
         style="fill:#4fa3a5;fill-opacity:1;fill-rule:nonzero;stroke:none"
         transform="matrix(1.3333333,0,0,-1.3333333,812.3652,0.2512)" />
      <path
         id="path8"
         d="m 0,0 c -25.911,32.495 -45.432,75.408 -57.369,130.695 h 6.41 C -42.99,93.427 -20.924,45.059 -0.463,38.996 l -1.09,91.699 H 36.908 L 57.661,-114.66 c 42.4,62.317 73.714,137.136 75.403,245.355 h 10.674 C 144.517,-2.523 106.972,-91.504 62.558,-172.553 L 92.845,-530.654 H 6.304 Z m -120.275,-168.553 c -35.7,39.983 -54.617,93.522 -58.083,159.54 1.649,1.046 3.298,2.092 4.948,3.138 1.262,-57.551 19.303,-99.266 55.364,-123.971 l 15.006,260.541 h 28.578 l -1.497,-661.349 h -65.169 z M 278.354,130.695 275.63,29.351 c -24.998,10.375 -49.528,40.882 -55.734,86.565 0.496,-49.817 21.506,-83.211 55.2,-106.45 l -9.764,-363.093 c -30.223,25.243 -45.438,64.65 -46.592,117.329 -1.648,-1.045 -3.299,-2.092 -4.949,-3.138 3.217,-61.216 19.715,-111.703 50.563,-150.6 l -3.783,-140.618 h 65.171 l -5.424,456.535 c 15.196,16.265 28.089,34.2 38.683,53.913 l -5.48,-510.448 H 405.87 L 380.279,31.477 c 8.989,29.767 14.017,62.752 15.066,99.218 h -7.782 c 0.049,-26.667 -2.796,-49.854 -8.611,-70.026 l -3.188,70.026 H 360.621 L 359.411,18.063 C 349.082,2.792 335.863,-9.957 319.682,-20.611 l -1.798,151.306 z"
         style="fill:#c5ecf2;fill-opacity:1;fill-rule:evenodd;stroke:none"
         transform="matrix(1.3333333,0,0,-1.3333333,287.73053,174.5104)"
         clip-path="url(#clipPath9)" />
      <path
         id="path10"
         d="m 0,0 c -25.524,32.495 -44.536,75.408 -55.816,130.695 h 6.41 C -41.88,93.427 -20.39,45.059 0,38.996 v 91.699 H 38.46 L 56.298,-114.66 C 99.44,-52.343 131.64,22.476 134.617,130.695 H 145.29 C 144.487,-2.523 105.886,-91.504 60.507,-172.553 L 86.541,-530.654 H 0 Z m -122.277,-168.553 c -35.225,39.983 -53.506,93.522 -56.188,159.54 1.661,1.046 3.323,2.092 4.985,3.138 0.578,-57.551 18.124,-99.266 53.893,-123.971 l 18.1,260.541 h 28.577 l -9.353,-661.349 h -65.17 z M 279.909,130.695 275.978,29.351 C 251.104,39.726 226.936,70.233 221.274,115.916 221.177,66.099 241.79,32.705 275.208,9.466 L 261.13,-353.627 c -29.922,25.243 -44.669,64.65 -45.198,117.329 -1.662,-1.045 -3.322,-2.092 -4.985,-3.138 2.488,-61.216 18.386,-111.703 48.771,-150.6 l -5.451,-140.618 h 65.171 v 456.535 c 15.389,16.265 28.496,34.2 39.323,53.913 l -11.544,-510.448 h 52.349 L 380.654,31.477 c 9.343,29.767 14.761,62.752 16.242,99.218 h -7.781 c -0.266,-26.667 -3.387,-49.854 -9.444,-70.026 l -2.356,70.026 H 362.173 L 359.626,18.063 C 349.117,2.792 335.747,-9.957 319.438,-20.611 v 151.306 z"
         style="fill:#203f43;fill-opacity:1;fill-rule:evenodd;stroke:none"
         transform="matrix(1.3333333,0,0,-1.3333333,283.1712,174.5104)"
         clip-path="url(#clipPath11)" />
    </g>
  </g>
</svg>
