<?xml version="1.0" encoding="UTF-8" standalone="no"?>
<!-- Created with Inkscape (http://www.inkscape.org/) -->

<svg
   version="1.1"
   id="svg1"
   width="880"
   height="880"
   viewBox="0 0 880 880"
   sodipodi:docname="great-wall-of-china.svg"
   inkscape:version="1.3.2 (091e20e, 2023-11-25, custom)"
   xmlns:inkscape="http://www.inkscape.org/namespaces/inkscape"
   xmlns:sodipodi="http://sodipodi.sourceforge.net/DTD/sodipodi-0.dtd"
   xmlns="http://www.w3.org/2000/svg"
   xmlns:svg="http://www.w3.org/2000/svg">
  <defs
     id="defs1">
    <clipPath
       clipPathUnits="userSpaceOnUse"
       id="clipPath4">
      <path
         d="M 0,660 H 660 V 0 H 0 Z"
         transform="translate(0,-351.25681)"
         id="path4" />
    </clipPath>
    <clipPath
       clipPathUnits="userSpaceOnUse"
       id="clipPath6">
      <path
         d="M 0,660 H 660 V 0 H 0 Z"
         transform="translate(-612.08591,-513.16852)"
         id="path6" />
    </clipPath>
    <clipPath
       clipPathUnits="userSpaceOnUse"
       id="clipPath8">
      <path
         d="M 0,660 H 660 V 0 H 0 Z"
         transform="translate(-250.64941,-401.54391)"
         id="path8" />
    </clipPath>
    <clipPath
       clipPathUnits="userSpaceOnUse"
       id="clipPath10">
      <path
         d="M 0,660 H 660 V 0 H 0 Z"
         transform="translate(-540.59771,-438.26811)"
         id="path10" />
    </clipPath>
    <clipPath
       clipPathUnits="userSpaceOnUse"
       id="clipPath12">
      <path
         d="M 0,660 H 660 V 0 H 0 Z"
         id="path12" />
    </clipPath>
    <clipPath
       clipPathUnits="userSpaceOnUse"
       id="clipPath14">
      <path
         d="M 0,660 H 660 V 0 H 0 Z"
         transform="translate(-598.93552,-477.73681)"
         id="path14" />
    </clipPath>
    <clipPath
       clipPathUnits="userSpaceOnUse"
       id="clipPath16">
      <path
         d="M 0,660 H 660 V 0 H 0 Z"
         transform="translate(-597.13672,-477.52781)"
         id="path16" />
    </clipPath>
    <clipPath
       clipPathUnits="userSpaceOnUse"
       id="clipPath18">
      <path
         d="M 0,660 H 660 V 0 H 0 Z"
         id="path18" />
    </clipPath>
    <clipPath
       clipPathUnits="userSpaceOnUse"
       id="clipPath20">
      <path
         d="M 0,660 H 660 V 0 H 0 Z"
         transform="translate(-34.103001,-270.00291)"
         id="path20" />
    </clipPath>
    <clipPath
       clipPathUnits="userSpaceOnUse"
       id="clipPath22">
      <path
         d="M 0,660 H 660 V 0 H 0 Z"
         transform="translate(-302.21731,-391.92291)"
         id="path22" />
    </clipPath>
    <clipPath
       clipPathUnits="userSpaceOnUse"
       id="clipPath24">
      <path
         d="M 0,660 H 660 V 0 H 0 Z"
         transform="translate(-186.2061,-462.84961)"
         id="path24" />
    </clipPath>
    <clipPath
       clipPathUnits="userSpaceOnUse"
       id="clipPath26">
      <path
         d="M 0,660 H 660 V 0 H 0 Z"
         id="path26" />
    </clipPath>
    <clipPath
       clipPathUnits="userSpaceOnUse"
       id="clipPath28">
      <path
         d="M 0,660 H 660 V 0 H 0 Z"
         transform="translate(-204.7837,-412.78811)"
         id="path28" />
    </clipPath>
    <clipPath
       clipPathUnits="userSpaceOnUse"
       id="clipPath30">
      <path
         d="M 0,660 H 660 V 0 H 0 Z"
         transform="translate(-207.32671,-412.49371)"
         id="path30" />
    </clipPath>
    <clipPath
       clipPathUnits="userSpaceOnUse"
       id="clipPath32">
      <path
         d="M 0,660 H 660 V 0 H 0 Z"
         transform="translate(0,-277.7578)"
         id="path32" />
    </clipPath>
    <clipPath
       clipPathUnits="userSpaceOnUse"
       id="clipPath34">
      <path
         d="M 0,660 H 660 V 0 H 0 Z"
         transform="translate(-286.21581,-363.70901)"
         id="path34" />
    </clipPath>
    <clipPath
       clipPathUnits="userSpaceOnUse"
       id="clipPath36">
      <path
         d="M 0,660 H 660 V 0 H 0 Z"
         transform="translate(-519.35941,-309.19141)"
         id="path36" />
    </clipPath>
    <clipPath
       clipPathUnits="userSpaceOnUse"
       id="clipPath38">
      <path
         d="M 0,660 H 660 V 0 H 0 Z"
         transform="translate(-246.77641,-363.70901)"
         id="path38" />
    </clipPath>
    <clipPath
       clipPathUnits="userSpaceOnUse"
       id="clipPath40">
      <path
         d="M 0,660 H 660 V 0 H 0 Z"
         transform="translate(-463.24411,-293.1553)"
         id="path40" />
    </clipPath>
    <clipPath
       clipPathUnits="userSpaceOnUse"
       id="clipPath42">
      <path
         d="M 0,660 H 660 V 0 H 0 Z"
         transform="translate(-589.91992,-366.26861)"
         id="path42" />
    </clipPath>
    <clipPath
       clipPathUnits="userSpaceOnUse"
       id="clipPath44">
      <path
         d="M 0,660 H 660 V 0 H 0 Z"
         id="path44" />
    </clipPath>
    <clipPath
       clipPathUnits="userSpaceOnUse"
       id="clipPath46">
      <path
         d="M 0,660 H 660 V 0 H 0 Z"
         transform="translate(-567.62891,-306.19431)"
         id="path46" />
    </clipPath>
    <clipPath
       clipPathUnits="userSpaceOnUse"
       id="clipPath48">
      <path
         d="M 0,660 H 660 V 0 H 0 Z"
         transform="translate(-564.57811,-305.84081)"
         id="path48" />
    </clipPath>
    <clipPath
       clipPathUnits="userSpaceOnUse"
       id="clipPath50">
      <path
         d="M 0,660 H 660 V 0 H 0 Z"
         transform="translate(0,-258.51561)"
         id="path50" />
    </clipPath>
    <clipPath
       clipPathUnits="userSpaceOnUse"
       id="clipPath52">
      <path
         d="M 0,660 H 660 V 0 H 0 Z"
         transform="translate(-105.3384,-71.442399)"
         id="path52" />
    </clipPath>
    <clipPath
       clipPathUnits="userSpaceOnUse"
       id="clipPath54">
      <path
         d="M 0,660 H 660 V 0 H 0 Z"
         transform="translate(-120.58251,-60.969699)"
         id="path54" />
    </clipPath>
    <clipPath
       clipPathUnits="userSpaceOnUse"
       id="clipPath56">
      <path
         d="M 0,660 H 660 V 0 H 0 Z"
         transform="translate(-191.2837,-49.634799)"
         id="path56" />
    </clipPath>
    <clipPath
       clipPathUnits="userSpaceOnUse"
       id="clipPath58">
      <path
         d="M 0,660 H 660 V 0 H 0 Z"
         transform="translate(-206.52691,-39.162098)"
         id="path58" />
    </clipPath>
    <clipPath
       clipPathUnits="userSpaceOnUse"
       id="clipPath60">
      <path
         d="M 0,660 H 660 V 0 H 0 Z"
         transform="translate(-35.918501,-280)"
         id="path60" />
    </clipPath>
    <clipPath
       clipPathUnits="userSpaceOnUse"
       id="clipPath62">
      <path
         d="M 0,660 H 660 V 0 H 0 Z"
         id="path62" />
    </clipPath>
    <clipPath
       clipPathUnits="userSpaceOnUse"
       id="clipPath64">
      <path
         d="M 0,660 H 660 V 0 H 0 Z"
         transform="translate(-66.382301,-197.90331)"
         id="path64" />
    </clipPath>
    <clipPath
       clipPathUnits="userSpaceOnUse"
       id="clipPath66">
      <path
         d="M 0,660 H 660 V 0 H 0 Z"
         transform="translate(-70.551802,-197.4189)"
         id="path66" />
    </clipPath>
    <clipPath
       clipPathUnits="userSpaceOnUse"
       id="clipPath68">
      <path
         d="M 0,660 H 660 V 0 H 0 Z"
         transform="translate(-227.64111,0.92870252)"
         id="path68" />
    </clipPath>
    <clipPath
       clipPathUnits="userSpaceOnUse"
       id="clipPath70">
      <path
         d="M 0,660 H 660 V 0 H 0 Z"
         transform="translate(-210.9658,0.92870252)"
         id="path70" />
    </clipPath>
    <clipPath
       clipPathUnits="userSpaceOnUse"
       id="clipPath72">
      <path
         d="M 0,660 H 660 V 0 H 0 Z"
         transform="translate(-143.6689,0.92870252)"
         id="path72" />
    </clipPath>
    <clipPath
       clipPathUnits="userSpaceOnUse"
       id="clipPath74">
      <path
         d="M 0,660 H 660 V 0 H 0 Z"
         transform="translate(-126.9922,0.92870252)"
         id="path74" />
    </clipPath>
    <clipPath
       clipPathUnits="userSpaceOnUse"
       id="clipPath76">
      <path
         d="M 0,660 H 660 V 0 H 0 Z"
         transform="translate(-573.24412,-438.26811)"
         id="path76" />
    </clipPath>
    <clipPath
       clipPathUnits="userSpaceOnUse"
       id="clipPath78">
      <path
         d="M 0,660 H 660 V 0 H 0 Z"
         transform="translate(-660.63092,-213.6436)"
         id="path78" />
    </clipPath>
    <clipPath
       clipPathUnits="userSpaceOnUse"
       id="clipPath80">
      <path
         d="M 0,660 H 660 V 0 H 0 Z"
         transform="translate(-168.6919,-504.33301)"
         id="path80" />
    </clipPath>
    <clipPath
       clipPathUnits="userSpaceOnUse"
       id="clipPath82">
      <path
         d="M 0,660 H 660 V 0 H 0 Z"
         transform="translate(-284.8525,-623.95312)"
         id="path82" />
    </clipPath>
    <clipPath
       clipPathUnits="userSpaceOnUse"
       id="clipPath84">
      <path
         d="M 0,660 H 660 V 0 H 0 Z"
         transform="translate(-483.53711,-584.82761)"
         id="path84" />
    </clipPath>
    <clipPath
       clipPathUnits="userSpaceOnUse"
       id="clipPath86">
      <path
         d="M 0,660 H 660 V 0 H 0 Z"
         transform="translate(-48.936001,-512.14162)"
         id="path86" />
    </clipPath>
  </defs>
  <sodipodi:namedview
     id="namedview1"
     pagecolor="#ffffff"
     bordercolor="#000000"
     borderopacity="0.25"
     inkscape:showpageshadow="2"
     inkscape:pageopacity="0.0"
     inkscape:pagecheckerboard="0"
     inkscape:deskcolor="#d1d1d1"
     inkscape:zoom="0.67272727"
     inkscape:cx="439.25676"
     inkscape:cy="440"
     inkscape:window-width="1440"
     inkscape:window-height="830"
     inkscape:window-x="-6"
     inkscape:window-y="-6"
     inkscape:window-maximized="1"
     inkscape:current-layer="g1">
    <inkscape:page
       x="0"
       y="0"
       inkscape:label="1"
       id="page1"
       width="880"
       height="880"
       margin="0 0 0.40000001"
       bleed="0" />
  </sodipodi:namedview>
  <g
     id="g1"
     inkscape:groupmode="layer"
     inkscape:label="1">
    <g
       id="group-MC0">
      <path
         id="path2"
         d="M 0,0 H 660 V 659.7 H 0 Z"
         style="fill:#f1f8c4;fill-opacity:1;fill-rule:nonzero;stroke:none"
         transform="matrix(1.3333333,0,0,-1.3333333,0,880)" />
      <path
         id="path3"
         d="m 0,0 v 71.506 c 5.203,3.333 10.914,5.244 16.657,5.244 3.711,0 7.131,-0.797 10.178,-2.261 4.782,18.568 20.033,33.048 35.513,33.048 13.323,0 22.746,-10.727 24.048,-25.553 7.313,8.563 17.002,14.008 26.779,14.008 15.732,0 26.339,-14.099 25.644,-32.602 6.616,6.671 14.845,10.795 23.138,10.795 16.674,0 27.297,-16.656 23.725,-37.201 -3.57,-20.545 -19.981,-37.2 -36.656,-37.2 -14.684,0 -24.672,12.921 -24.407,30.04 -7.074,-7.444 -16.023,-12.081 -25.043,-12.081 -4.332,0 -8.275,1.071 -11.7,3.006 C 79.935,4.364 65.031,-7.271 49.942,-7.271 38.788,-7.271 29.947,-0.911 25.186,9.023 18.725,3.264 11.031,-0.216 3.281,-0.216 2.16,-0.216 1.066,-0.142 0,0"
         style="fill:#c6e446;fill-opacity:1;fill-rule:evenodd;stroke:none"
         transform="matrix(1.3333333,0,0,-1.3333333,0,411.6576)"
         clip-path="url(#clipPath4)" />
      <path
         id="path5"
         d="m 0,0 h -10.555 v -9.827 h -8.193 V 0 H -28.84 v -9.827 h -8.191 V 0 h -10.092 v -9.827 h -8.193 V 0 H -65.408 V -9.827 H -73.6 V 0 H -84.154 V -121.246 H 0 Z"
         style="fill:#bd4c1f;fill-opacity:1;fill-rule:evenodd;stroke:none"
         transform="matrix(1.3333333,0,0,-1.3333333,816.11453,195.77533)"
         clip-path="url(#clipPath6)" />
      <path
         id="path7"
         d="M 0,0 289.948,36.724 V -9.621 L -13.75,-64.935 Z"
         style="fill:#d76027;fill-opacity:1;fill-rule:evenodd;stroke:none"
         transform="matrix(1.3333333,0,0,-1.3333333,334.1992,344.60813)"
         clip-path="url(#clipPath8)" />
      <path
         id="path9"
         d="M 0,0 H -9.621 L -287.063,-31.106 V -36.23 Z"
         style="fill:#f69e6d;fill-opacity:1;fill-rule:evenodd;stroke:none"
         transform="matrix(1.3333333,0,0,-1.3333333,720.79693,295.64253)"
         clip-path="url(#clipPath10)" />
      <path
         id="path11"
         d="m 521.15,485.487 h 97.717 v 7.474 H 521.15 Z"
         style="fill:#f07338;fill-opacity:1;fill-rule:evenodd;stroke:none"
         transform="matrix(1.3333333,0,0,-1.3333333,0,880)"
         clip-path="url(#clipPath12)" />
      <path
         id="path13"
         d="M 0,0 V 0 C -4.338,0 -7.887,-3.55 -7.887,-7.889 V -26.574 H 7.891 V -7.889 C 7.891,-3.55 4.342,0 0,0"
         style="fill:#f07338;fill-opacity:1;fill-rule:evenodd;stroke:none"
         transform="matrix(1.3333333,0,0,-1.3333333,798.58067,243.0176)"
         clip-path="url(#clipPath14)" />
      <path
         id="path15"
         d="M 0,0 C -3.478,-0.82 -6.09,-3.959 -6.09,-7.68 V -26.365 H 6.09 V -7.68 C 6.09,-3.959 3.481,-0.82 0,0"
         style="fill:#762d18;fill-opacity:1;fill-rule:evenodd;stroke:none"
         transform="matrix(1.3333333,0,0,-1.3333333,796.18227,243.29627)"
         clip-path="url(#clipPath16)" />
      <path
         id="path17"
         d="M 0,-0.929 H 660.631 V 391.923 H 0 Z"
         style="fill:#c6e446;fill-opacity:1;fill-rule:evenodd;stroke:none"
         transform="matrix(1.3333333,0,0,-1.3333333,0,880)"
         clip-path="url(#clipPath18)" />
      <path
         id="path19"
         d="m 0,0 c -16.673,0 -27.295,16.657 -23.724,37.201 3.57,20.545 19.981,37.201 36.655,37.201 14.686,0 24.673,-12.922 24.408,-30.041 7.075,7.445 16.022,12.081 25.044,12.081 4.331,0 8.274,-1.071 11.699,-3.005 7.942,16.384 22.844,28.02 37.933,28.02 11.154,0 19.995,-6.36 24.759,-16.295 6.459,5.759 14.153,9.24 21.903,9.24 17.248,0 28.237,-17.23 24.543,-38.482 -3.693,-21.255 -20.67,-38.483 -37.919,-38.483 -3.713,0 -7.133,0.796 -10.178,2.258 -4.783,-18.565 -20.034,-33.047 -35.513,-33.047 -13.323,0 -22.747,10.728 -24.049,25.552 -7.312,-8.56 -17.001,-14.006 -26.779,-14.006 -15.73,0 -26.338,14.098 -25.642,32.6 C 16.523,4.124 8.294,0 0,0"
         style="fill:#adda1a;fill-opacity:1;fill-rule:evenodd;stroke:none"
         transform="matrix(1.3333333,0,0,-1.3333333,45.470667,519.99613)"
         clip-path="url(#clipPath20)" />
      <path
         id="path21"
         d="M 0,0 271.027,46.345 V 0 L -13.749,-64.935 Z"
         style="fill:#d76027;fill-opacity:1;fill-rule:evenodd;stroke:none"
         transform="matrix(1.3333333,0,0,-1.3333333,402.9564,357.43613)"
         clip-path="url(#clipPath22)" />
      <path
         id="path23"
         d="M 0,0 H 14.911 V -13.884 H 26.486 V 0 h 14.26 V -13.884 H 52.319 V 0 h 14.26 V -13.884 H 78.152 V 0 h 14.26 v -13.884 h 11.575 V 0 h 14.911 V -171.307 H 0 Z"
         style="fill:#a33b1f;fill-opacity:1;fill-rule:evenodd;stroke:none"
         transform="matrix(1.3333333,0,0,-1.3333333,248.2748,262.8672)"
         clip-path="url(#clipPath24)" />
      <path
         id="path25"
         d="m 176.624,423.739 h 138.062 v 10.56 H 176.624 Z"
         style="fill:#e1652b;fill-opacity:1;fill-rule:evenodd;stroke:none"
         transform="matrix(1.3333333,0,0,-1.3333333,0,880)"
         clip-path="url(#clipPath26)" />
      <path
         id="path27"
         d="m 0,0 v 0 c 6.13,0 11.145,-5.015 11.145,-11.146 v -26.4 h -22.292 v 26.4 C -11.147,-5.015 -6.132,0 0,0"
         style="fill:#e1652b;fill-opacity:1;fill-rule:evenodd;stroke:none"
         transform="matrix(1.3333333,0,0,-1.3333333,273.04493,329.61587)"
         clip-path="url(#clipPath28)" />
      <path
         id="path29"
         d="M 0,0 C 4.915,-1.158 8.602,-5.594 8.602,-10.852 V -37.251 H -8.607 v 26.399 C -8.607,-5.594 -4.919,-1.158 0,0"
         style="fill:#5f2514;fill-opacity:1;fill-rule:evenodd;stroke:none"
         transform="matrix(1.3333333,0,0,-1.3333333,276.4356,330.0084)"
         clip-path="url(#clipPath30)" />
      <path
         id="path31"
         d="M 0,0 660.631,73.116 V -278.686 L 0,-278.686 Z"
         style="fill:#adda1a;fill-opacity:1;fill-rule:evenodd;stroke:none"
         transform="matrix(1.3333333,0,0,-1.3333333,0,509.65627)"
         clip-path="url(#clipPath32)" />
      <path
         id="path33"
         d="m 0,0 h 7.535 l 215.189,-41.37 -6.737,-16.034 z"
         style="fill:#e87238;fill-opacity:1;fill-rule:evenodd;stroke:none"
         transform="matrix(1.3333333,0,0,-1.3333333,381.62107,395.05467)"
         clip-path="url(#clipPath34)" />
      <path
         id="path35"
         d="M 0,0 -233.144,54.518 V -4.01 L 3.529,-72.799 Z"
         style="fill:#c9551f;fill-opacity:1;fill-rule:evenodd;stroke:none"
         transform="matrix(1.3333333,0,0,-1.3333333,692.4792,467.7448)"
         clip-path="url(#clipPath36)" />
      <path
         id="path37"
         d="m 0,0 h 7.535 l 198.511,-57.404 -6.734,-16.037 z"
         style="fill:#e87238;fill-opacity:1;fill-rule:evenodd;stroke:none"
         transform="matrix(1.3333333,0,0,-1.3333333,329.0352,395.05467)"
         clip-path="url(#clipPath38)" />
      <path
         id="path39"
         d="M 0,0 -216.468,70.554 V 12.026 L 3.527,-72.797 Z"
         style="fill:#c9551f;fill-opacity:1;fill-rule:evenodd;stroke:none"
         transform="matrix(1.3333333,0,0,-1.3333333,617.6588,489.12627)"
         clip-path="url(#clipPath40)" />
      <path
         id="path41"
         d="M 0,0 H -17.893 V -16.661 H -31.781 V 0 H -48.893 V -16.661 H -62.781 V 0 H -79.893 V -16.661 H -93.781 V 0 h -17.113 v -16.661 h -13.887 V 0 h -17.893 V -205.568 H 0 Z"
         style="fill:#892f1b;fill-opacity:1;fill-rule:evenodd;stroke:none"
         transform="matrix(1.3333333,0,0,-1.3333333,786.55987,391.64187)"
         clip-path="url(#clipPath42)" />
      <path
         id="path43"
         d="M 435.746,319.336 H 601.42 v 12.671 H 435.746 Z"
         style="fill:#cd5720;fill-opacity:1;fill-rule:evenodd;stroke:none"
         transform="matrix(1.3333333,0,0,-1.3333333,0,880)"
         clip-path="url(#clipPath44)" />
      <path
         id="path45"
         d="m 0,0 v 0 c -7.357,0 -13.375,-6.018 -13.375,-13.375 v -31.682 h 26.752 v 31.682 C 13.377,-6.018 7.357,0 0,0"
         style="fill:#cd5720;fill-opacity:1;fill-rule:evenodd;stroke:none"
         transform="matrix(1.3333333,0,0,-1.3333333,756.83853,471.74093)"
         clip-path="url(#clipPath46)" />
      <path
         id="path47"
         d="m 0,0 c -5.9,-1.391 -10.326,-6.712 -10.326,-13.021 v -31.682 h 20.652 v 31.682 C 10.326,-6.712 5.9,-1.391 0,0"
         style="fill:#522115;fill-opacity:1;fill-rule:evenodd;stroke:none"
         transform="matrix(1.3333333,0,0,-1.3333333,752.7708,472.21227)"
         clip-path="url(#clipPath48)" />
      <path
         id="path49"
         d="M 0,0 660.631,-102.622 V -259.444 H 0 Z"
         style="fill:#9ac421;fill-opacity:1;fill-rule:evenodd;stroke:none"
         transform="matrix(1.3333333,0,0,-1.3333333,0,535.31253)"
         clip-path="url(#clipPath50)" />
      <path
         id="path51"
         d="M 0,0 372.974,190.28 H 360.146 L 0,138.539 Z"
         style="fill:#d75f27;fill-opacity:1;fill-rule:evenodd;stroke:none"
         transform="matrix(1.3333333,0,0,-1.3333333,140.4512,784.74347)"
         clip-path="url(#clipPath52)" />
      <path
         id="path53"
         d="m 0,0 357.73,113.779 v 86.974 L 0,138.539 Z"
         style="fill:#b3451f;fill-opacity:1;fill-rule:evenodd;stroke:none"
         transform="matrix(1.3333333,0,0,-1.3333333,160.77667,798.70707)"
         clip-path="url(#clipPath54)" />
      <path
         id="path55"
         d="M 0,0 347.96,212.088 H 335.132 L 0,138.539 Z"
         style="fill:#d75f27;fill-opacity:1;fill-rule:evenodd;stroke:none"
         transform="matrix(1.3333333,0,0,-1.3333333,255.04493,813.82027)"
         clip-path="url(#clipPath56)" />
      <path
         id="path57"
         d="m 0,0 332.717,135.587 v 86.974 L 0,138.539 Z"
         style="fill:#b3451f;fill-opacity:1;fill-rule:evenodd;stroke:none"
         transform="matrix(1.3333333,0,0,-1.3333333,275.3692,827.78387)"
         clip-path="url(#clipPath58)" />
      <path
         id="path59"
         d="M 0,0 H 24.453 V -22.771 H 43.432 V 0 h 23.386 v -22.771 h 18.98 V 0 h 23.385 v -22.771 h 18.98 V 0 h 23.385 v -22.771 h 18.979 V 0 H 194.98 V -280.929 H 0 Z"
         style="fill:#7e2b1a;fill-opacity:1;fill-rule:evenodd;stroke:none"
         transform="matrix(1.3333333,0,0,-1.3333333,47.891333,506.66667)"
         clip-path="url(#clipPath60)" />
      <path
         id="path61"
         d="m 20.204,215.861 h 226.407 v 17.316 H 20.204 Z"
         style="fill:#bd4c1f;fill-opacity:1;fill-rule:evenodd;stroke:none"
         transform="matrix(1.3333333,0,0,-1.3333333,0,880)"
         clip-path="url(#clipPath62)" />
      <path
         id="path63"
         d="m 0,0 v 0 c 10.054,0 18.279,-8.226 18.279,-18.279 v -43.296 h -36.558 v 43.296 C -18.279,-8.226 -10.054,0 0,0"
         style="fill:#a33b1f;fill-opacity:1;fill-rule:evenodd;stroke:none"
         transform="matrix(1.3333333,0,0,-1.3333333,88.509733,616.12893)"
         clip-path="url(#clipPath64)" />
      <path
         id="path65"
         d="m 0,0 c 8.063,-1.899 14.109,-9.174 14.109,-17.795 v -43.296 h -28.22 v 43.296 C -14.111,-9.174 -8.064,-1.899 0,0"
         style="fill:#3b1b14;fill-opacity:1;fill-rule:evenodd;stroke:none"
         transform="matrix(1.3333333,0,0,-1.3333333,94.069067,616.7748)"
         clip-path="url(#clipPath66)" />
      <path
         id="path67"
         d="M 0,0 -16.675,145.276 H 0 L 432.99,12.177 V 0 Z"
         style="fill:#bd4c1f;fill-opacity:1;fill-rule:evenodd;stroke:none"
         transform="matrix(1.3333333,0,0,-1.3333333,303.52147,881.23827)"
         clip-path="url(#clipPath68)" />
      <path
         id="path69"
         d="M 0,0 V 145.276 L 419.468,0 Z"
         style="fill:#9b3a1e;fill-opacity:1;fill-rule:evenodd;stroke:none"
         transform="matrix(1.3333333,0,0,-1.3333333,281.28773,881.23827)"
         clip-path="url(#clipPath70)" />
      <path
         id="path71"
         d="M 0,0 -16.677,145.276 H 0 L 350.038,0 Z"
         style="fill:#bd4c1f;fill-opacity:1;fill-rule:evenodd;stroke:none"
         transform="matrix(1.3333333,0,0,-1.3333333,191.55853,881.23827)"
         clip-path="url(#clipPath72)" />
      <path
         id="path73"
         d="M 0,0 V 145.276 L 323.26,0 Z"
         style="fill:#9b3a1e;fill-opacity:1;fill-rule:evenodd;stroke:none"
         transform="matrix(1.3333333,0,0,-1.3333333,169.32293,881.23827)"
         clip-path="url(#clipPath74)" />
      <path
         id="path75"
         d="M 0,0 H -9.619 L -268.14,-40.727 v -5.124 z"
         style="fill:#f69e6d;fill-opacity:1;fill-rule:evenodd;stroke:none"
         transform="matrix(1.3333333,0,0,-1.3333333,764.32547,295.64253)"
         clip-path="url(#clipPath76)" />
      <path
         id="path77"
         d="m 0,0 v -76.206 c -3.189,-1.147 -6.471,-1.767 -9.766,-1.767 -4.332,0 -8.273,1.072 -11.701,3.007 -7.939,-16.384 -22.842,-28.019 -37.931,-28.019 -11.153,0 -19.995,6.359 -24.758,16.294 -6.459,-5.761 -14.153,-9.24 -21.903,-9.24 -17.25,0 -28.238,17.23 -24.543,38.484 3.694,21.253 20.67,38.483 37.918,38.483 3.711,0 7.131,-0.798 10.178,-2.261 4.783,18.568 20.033,33.046 35.514,33.046 13.322,0 22.744,-10.724 24.049,-25.551 C -16.592,-6.291 -8.441,-1.204 0,0"
         style="fill:#9ac421;fill-opacity:1;fill-rule:evenodd;stroke:none"
         transform="matrix(1.3333333,0,0,-1.3333333,880.8412,595.14187)"
         clip-path="url(#clipPath78)" />
      <path
         id="path79"
         d="m 0,0 c 32.501,0 59.008,26.507 59.008,59.008 0,32.5 -26.507,59.008 -59.008,59.008 -32.501,0 -59.008,-26.508 -59.008,-59.008 C -59.008,26.507 -32.501,0 0,0"
         style="fill:#fdfef0;fill-opacity:1;fill-rule:evenodd;stroke:none"
         transform="matrix(1.3333333,0,0,-1.3333333,224.92253,207.556)"
         clip-path="url(#clipPath80)" />
      <path
         id="path81"
         d="m 0,0 c 0.175,0 0.351,-0.005 0.522,-0.013 5.973,6.738 14.636,11.236 23.104,11.236 9.575,0 16.214,-5.746 17.567,-13.977 6.185,8.958 16.749,15.26 27.046,15.26 6.989,0 12.496,-2.904 15.698,-7.57 3.449,1.753 7.181,2.76 10.873,2.76 6.877,0 11.976,-3.494 14.076,-8.803 3.885,3.243 8.73,5.276 13.488,5.276 7.916,0 12.965,-5.624 12.41,-13.095 l 35.5,-3.261 -37.302,-3.262 c -3.577,-7.47 -11.735,-13.093 -19.649,-13.093 -4.76,0 -8.48,2.031 -10.572,5.275 -5.037,-5.31 -12.067,-8.803 -18.945,-8.803 -3.692,0 -6.868,1.007 -9.346,2.76 -5.783,-4.667 -12.895,-7.571 -19.885,-7.571 -10.297,0 -17.375,6.303 -18.607,15.26 -5.905,-8.23 -15.722,-13.977 -25.294,-13.977 -8.471,0 -14.647,4.498 -16.893,11.236 -0.176,-0.008 -0.351,-0.011 -0.528,-0.011 -5.598,0 -9.27,3.773 -9.279,8.914 l -35.616,3.272 37.427,3.272 C -11.356,-3.774 -5.595,0 0,0"
         style="fill:#ffffff;fill-opacity:1;fill-rule:evenodd;stroke:none"
         transform="matrix(1.3333333,0,0,-1.3333333,379.80333,48.062533)"
         clip-path="url(#clipPath82)" />
      <path
         id="path83"
         d="m 0,0 c 4.635,0 8.322,-2.008 10.44,-5.201 5.876,8.197 15.597,13.86 25.292,13.86 7.069,0 12.715,-3.009 16.022,-7.813 4.592,3.27 10.021,5.247 15.437,5.247 6.723,0 12.01,-3.043 14.872,-7.826 3.115,1.807 6.597,2.862 10.078,2.862 8.14,0 13.558,-5.777 13.297,-13.457 l 24.871,-3.386 -26.483,-3.386 c -3.396,-7.679 -11.564,-13.457 -19.707,-13.457 -3.478,0 -6.461,1.055 -8.715,2.862 -5.138,-4.784 -11.873,-7.826 -18.595,-7.826 -5.418,0 -9.905,1.977 -12.94,5.248 -5.596,-4.805 -12.676,-7.813 -19.742,-7.813 -9.697,0 -16.721,5.662 -18.695,13.859 -3.635,-3.193 -8.28,-5.201 -12.916,-5.201 -7.516,0 -12.541,5.276 -12.412,12.324 l -24.895,3.39 26.51,3.39 C -15.055,-5.275 -7.518,0 0,0"
         style="fill:#ffffff;fill-opacity:1;fill-rule:evenodd;stroke:none"
         transform="matrix(1.3333333,0,0,-1.3333333,644.71613,100.22987)"
         clip-path="url(#clipPath84)" />
      <path
         id="path85"
         d="m 0,0 c 3.202,0 5.749,-1.388 7.211,-3.592 4.06,5.662 10.775,9.573 17.473,9.573 4.882,0 8.782,-2.078 11.067,-5.397 3.173,2.259 6.92,3.625 10.664,3.625 4.644,0 8.296,-2.102 10.272,-5.405 2.152,1.248 4.558,1.976 6.961,1.976 5.625,0 9.367,-3.991 9.186,-9.297 l 17.18,-2.338 -18.293,-2.338 c -2.346,-5.306 -7.989,-9.296 -13.613,-9.296 -2.403,0 -4.463,0.728 -6.019,1.977 -3.551,-3.304 -8.203,-5.407 -12.848,-5.407 -3.742,0 -6.841,1.366 -8.937,3.626 -3.866,-3.319 -8.756,-5.398 -13.637,-5.398 -6.699,0 -11.551,3.911 -12.914,9.575 -2.512,-2.206 -5.721,-3.594 -8.922,-3.594 -5.192,0 -8.663,3.644 -8.574,8.514 l -17.198,2.341 18.313,2.342 C -10.398,-3.644 -5.191,0 0,0"
         style="fill:#ffffff;fill-opacity:1;fill-rule:evenodd;stroke:none"
         transform="matrix(1.3333333,0,0,-1.3333333,65.248,197.14453)"
         clip-path="url(#clipPath86)" />
    </g>
  </g>
</svg>
