<?xml version="1.0" encoding="UTF-8" standalone="no"?>
<!-- Created with Inkscape (http://www.inkscape.org/) -->

<svg
   version="1.1"
   id="svg1"
   width="880"
   height="880"
   viewBox="0 0 880 880"
   sodipodi:docname="green-scarecrow.svg"
   inkscape:version="1.3.2 (091e20e, 2023-11-25, custom)"
   xmlns:inkscape="http://www.inkscape.org/namespaces/inkscape"
   xmlns:sodipodi="http://sodipodi.sourceforge.net/DTD/sodipodi-0.dtd"
   xmlns="http://www.w3.org/2000/svg"
   xmlns:svg="http://www.w3.org/2000/svg">
  <defs
     id="defs1">
    <clipPath
       clipPathUnits="userSpaceOnUse"
       id="clipPath4">
      <path
         d="M 0,660 H 660 V 0 H 0 Z"
         transform="translate(-661.30082,-321.36231)"
         id="path4" />
    </clipPath>
    <clipPath
       clipPathUnits="userSpaceOnUse"
       id="clipPath6">
      <path
         d="M 0,660 H 660 V 0 H 0 Z"
         transform="translate(-363.29101,-408.79541)"
         id="path6" />
    </clipPath>
    <clipPath
       clipPathUnits="userSpaceOnUse"
       id="clipPath8">
      <path
         d="M 0,660 H 660 V 0 H 0 Z"
         transform="translate(-661.30082,-273.59961)"
         id="path8" />
    </clipPath>
    <clipPath
       clipPathUnits="userSpaceOnUse"
       id="clipPath10">
      <path
         d="M 0,660 H 660 V 0 H 0 Z"
         transform="translate(-661.30082,-167.34471)"
         id="path10" />
    </clipPath>
    <clipPath
       clipPathUnits="userSpaceOnUse"
       id="clipPath12">
      <path
         d="M 0,660 H 660 V 0 H 0 Z"
         transform="translate(-461.27731,-244.24611)"
         id="path12" />
    </clipPath>
    <clipPath
       clipPathUnits="userSpaceOnUse"
       id="clipPath14">
      <path
         d="M 0,660 H 660 V 0 H 0 Z"
         transform="translate(-9.9999752e-4,-244.8271)"
         id="path14" />
    </clipPath>
    <clipPath
       clipPathUnits="userSpaceOnUse"
       id="clipPath16">
      <path
         d="M 0,660 H 660 V 0 H 0 Z"
         transform="translate(-661.30082,-156.51561)"
         id="path16" />
    </clipPath>
    <clipPath
       clipPathUnits="userSpaceOnUse"
       id="clipPath18">
      <path
         d="M 0,660 H 660 V 0 H 0 Z"
         transform="translate(-451.32811)"
         id="path18" />
    </clipPath>
    <clipPath
       clipPathUnits="userSpaceOnUse"
       id="clipPath20">
      <path
         d="M 0,660 H 660 V 0 H 0 Z"
         transform="translate(-526.05862,-386.45701)"
         id="path20" />
    </clipPath>
    <clipPath
       clipPathUnits="userSpaceOnUse"
       id="clipPath22">
      <path
         d="M 0,660 H 660 V 0 H 0 Z"
         transform="translate(-413.66021,-493.21041)"
         id="path22" />
    </clipPath>
    <clipPath
       clipPathUnits="userSpaceOnUse"
       id="clipPath24">
      <path
         d="M 0,660 H 660 V 0 H 0 Z"
         transform="translate(-495.97461,-606.28322)"
         id="path24" />
    </clipPath>
    <clipPath
       clipPathUnits="userSpaceOnUse"
       id="clipPath26">
      <path
         d="M 0,660 H 660 V 0 H 0 Z"
         transform="translate(-247.64061,-559.45511)"
         id="path26" />
    </clipPath>
    <clipPath
       clipPathUnits="userSpaceOnUse"
       id="clipPath28">
      <path
         d="M 0,660 H 660 V 0 H 0 Z"
         transform="translate(-369.04101,-437.44531)"
         id="path28" />
    </clipPath>
    <clipPath
       clipPathUnits="userSpaceOnUse"
       id="clipPath30">
      <path
         d="M 0,660 H 660 V 0 H 0 Z"
         transform="translate(-355.26761,-414.37601)"
         id="path30" />
    </clipPath>
    <clipPath
       clipPathUnits="userSpaceOnUse"
       id="clipPath32">
      <path
         d="M 0,660 H 660 V 0 H 0 Z"
         transform="translate(-222.44241,-342.17381)"
         id="path32" />
    </clipPath>
    <clipPath
       clipPathUnits="userSpaceOnUse"
       id="clipPath34">
      <path
         d="M 0,660 H 660 V 0 H 0 Z"
         transform="translate(-222.44241,-342.17381)"
         id="path34" />
    </clipPath>
    <clipPath
       clipPathUnits="userSpaceOnUse"
       id="clipPath36">
      <path
         d="M 0,660 H 660 V 0 H 0 Z"
         transform="translate(-229.57371,-291.96091)"
         id="path36" />
    </clipPath>
    <clipPath
       clipPathUnits="userSpaceOnUse"
       id="clipPath38">
      <path
         d="M 0,660 H 660 V 0 H 0 Z"
         transform="translate(-311.32281,-443.67431)"
         id="path38" />
    </clipPath>
    <clipPath
       clipPathUnits="userSpaceOnUse"
       id="clipPath40">
      <path
         d="M 0,660 H 660 V 0 H 0 Z"
         transform="translate(-48.826701,-435.99561)"
         id="path40" />
    </clipPath>
    <clipPath
       clipPathUnits="userSpaceOnUse"
       id="clipPath42">
      <path
         d="M 0,660 H 660 V 0 H 0 Z"
         transform="translate(-566.42771,-357.16991)"
         id="path42" />
    </clipPath>
    <clipPath
       clipPathUnits="userSpaceOnUse"
       id="clipPath44">
      <path
         d="M 0,660 H 660 V 0 H 0 Z"
         transform="translate(-335.04101,-581.82521)"
         id="path44" />
    </clipPath>
    <clipPath
       clipPathUnits="userSpaceOnUse"
       id="clipPath46">
      <path
         d="M 0,660 H 660 V 0 H 0 Z"
         transform="translate(-421.26561,-551.10301)"
         id="path46" />
    </clipPath>
    <clipPath
       clipPathUnits="userSpaceOnUse"
       id="clipPath48">
      <path
         d="M 0,660 H 660 V 0 H 0 Z"
         transform="translate(-314.11081,-629.75592)"
         id="path48" />
    </clipPath>
    <clipPath
       clipPathUnits="userSpaceOnUse"
       id="clipPath50">
      <path
         d="M 0,660 H 660 V 0 H 0 Z"
         transform="translate(-560.21681,-170.0859)"
         id="path50" />
    </clipPath>
  </defs>
  <sodipodi:namedview
     id="namedview1"
     pagecolor="#ffffff"
     bordercolor="#000000"
     borderopacity="0.25"
     inkscape:showpageshadow="2"
     inkscape:pageopacity="0.0"
     inkscape:pagecheckerboard="0"
     inkscape:deskcolor="#d1d1d1"
     inkscape:zoom="0.69318182"
     inkscape:cx="439.27869"
     inkscape:cy="440"
     inkscape:window-width="1440"
     inkscape:window-height="830"
     inkscape:window-x="-6"
     inkscape:window-y="-6"
     inkscape:window-maximized="1"
     inkscape:current-layer="g1">
    <inkscape:page
       x="0"
       y="0"
       inkscape:label="1"
       id="page1"
       width="880"
       height="880"
       margin="0"
       bleed="0" />
  </sodipodi:namedview>
  <g
     id="g1"
     inkscape:groupmode="layer"
     inkscape:label="1">
    <g
       id="group-MC0">
      <path
         id="path2"
         d="M 0,0 H 660 V 660 H 0 Z"
         style="fill:#bae7d1;fill-opacity:1;fill-rule:nonzero;stroke:none"
         transform="matrix(1.3333333,0,0,-1.3333333,0,880)" />
      <path
         id="path3"
         d="M 0,0 V -321.362 H -661.3 V 3.173 c 68.576,5.983 139.741,10.174 212.759,12.296 C -287.268,20.152 -134.932,14.304 0,0"
         style="fill:#4bbf7d;fill-opacity:1;fill-rule:evenodd;stroke:none"
         transform="matrix(1.3333333,0,0,-1.3333333,881.7344,451.51693)"
         clip-path="url(#clipPath4)" />
      <path
         id="path5"
         d="m 0,0 c 48.793,0 88.59,33.686 88.59,74.989 0,41.303 -39.797,74.989 -88.59,74.989 -48.794,0 -88.593,-33.686 -88.593,-74.989 C -88.593,33.686 -48.794,0 0,0"
         style="fill:#e5f6eb;fill-opacity:1;fill-rule:evenodd;stroke:none"
         transform="matrix(1.3333333,0,0,-1.3333333,484.388,334.93947)"
         clip-path="url(#clipPath6)" />
      <path
         id="path7"
         d="M 0,0 V -273.6 H -661.3 V -15.954 C -534.85,-0.435 -394.31,8.221 -246.244,8.221 -161.268,8.221 -78.781,5.363 0,0"
         style="fill:#359d66;fill-opacity:1;fill-rule:evenodd;stroke:none"
         transform="matrix(1.3333333,0,0,-1.3333333,881.7344,515.20053)"
         clip-path="url(#clipPath8)" />
      <path
         id="path9"
         d="m 0,0 v -167.345 h -661.3 v 285.34 c 28.114,1.354 56.745,2.062 85.8,2.062 C -335.402,120.057 -123.926,72.373 0,0"
         style="fill:#63c88e;fill-opacity:1;fill-rule:evenodd;stroke:none"
         transform="matrix(1.3333333,0,0,-1.3333333,881.7344,656.87373)"
         clip-path="url(#clipPath10)" />
      <path
         id="path11"
         d="M 0,0 C 26.988,-6.814 52.678,-14.342 76.895,-22.515 -4.125,-43.78 -72.234,-104.598 -131.469,-209.708 l -54.82,92.069 C -142.032,-39.107 -66.293,-6.156 0,0"
         style="fill:#7cd19e;fill-opacity:1;fill-rule:evenodd;stroke:none"
         transform="matrix(1.3333333,0,0,-1.3333333,615.0364,554.33853)"
         clip-path="url(#clipPath12)" />
      <path
         id="path13"
         d="M 0,0 C 31.664,19.837 73.903,37.388 116.111,42.314 106.06,42.483 95.958,42.574 85.8,42.574 56.745,42.574 28.114,41.866 0,40.513 Z m 274.184,32.444 c 27.621,-3.04 54.541,-6.732 80.641,-11.033 C 265.708,11.972 191.839,-23.255 128.208,-87.6 l -54.82,52.469 c 47.523,48.056 131.347,66.165 200.796,67.575"
         style="fill:#7cd19e;fill-opacity:1;fill-rule:evenodd;stroke:none"
         transform="matrix(1.3333333,0,0,-1.3333333,0.00133333,553.56387)"
         clip-path="url(#clipPath14)" />
      <path
         id="path15"
         d="m 0,0 v -156.516 h -661.3 v 33.21 c 48.96,80.939 235.56,141.184 458.306,141.184 C -130.305,17.878 -61.467,11.458 0,0"
         style="fill:#359d66;fill-opacity:1;fill-rule:evenodd;stroke:none"
         transform="matrix(1.3333333,0,0,-1.3333333,881.7344,671.31253)"
         clip-path="url(#clipPath16)" />
      <path
         id="path17"
         d="M 0,0 H -451.327 V 228.864 C -213.657,204.215 -30.762,112.999 0,0"
         style="fill:#4bbf7d;fill-opacity:1;fill-rule:evenodd;stroke:none"
         transform="matrix(1.3333333,0,0,-1.3333333,601.7708,880)"
         clip-path="url(#clipPath18)" />
      <path
         id="path19"
         d="M 0,0 -263.029,4.751 -526.058,9.504 V 0 -9.505 l 263.029,4.752 z"
         style="fill:#d6f1e5;fill-opacity:1;fill-rule:evenodd;stroke:none"
         transform="matrix(1.3333333,0,0,-1.3333333,701.41147,364.724)"
         clip-path="url(#clipPath20)" />
      <path
         id="path21"
         d="M 0,0 -206.828,3.736 -413.659,7.474 V 0 -7.473 l 206.831,3.737 z"
         style="fill:#d6f1e5;fill-opacity:1;fill-rule:evenodd;stroke:none"
         transform="matrix(1.3333333,0,0,-1.3333333,551.54693,222.38613)"
         clip-path="url(#clipPath22)" />
      <path
         id="path23"
         d="M 0,0 -247.986,4.48 -495.974,8.961 V 0 -8.961 l 247.988,4.481 z"
         style="fill:#d6f1e5;fill-opacity:1;fill-rule:evenodd;stroke:none"
         transform="matrix(1.3333333,0,0,-1.3333333,661.29947,71.6224)"
         clip-path="url(#clipPath24)" />
      <path
         id="path25"
         d="M 0,0 206.83,3.736 413.66,7.474 V 0 -7.475 l -206.83,3.737 z"
         style="fill:#d6f1e5;fill-opacity:1;fill-rule:evenodd;stroke:none"
         transform="matrix(1.3333333,0,0,-1.3333333,330.18747,134.05987)"
         clip-path="url(#clipPath26)" />
      <path
         id="path27"
         d="M 0,0 146.131,2.64 292.26,5.28 V 0 -5.282 l -146.129,2.641 z"
         style="fill:#d6f1e5;fill-opacity:1;fill-rule:evenodd;stroke:none"
         transform="matrix(1.3333333,0,0,-1.3333333,492.05467,296.7396)"
         clip-path="url(#clipPath28)" />
      <path
         id="path29"
         d="m 0,0 c 48.795,0 88.592,33.686 88.592,74.989 0,41.302 -39.797,74.989 -88.592,74.989 -48.795,0 -88.591,-33.687 -88.591,-74.989 C -88.591,33.686 -48.795,0 0,0"
         style="fill:#29784e;fill-opacity:1;fill-rule:evenodd;stroke:none"
         transform="matrix(1.3333333,0,0,-1.3333333,473.69013,327.49867)"
         clip-path="url(#clipPath30)" />
      <path
         id="path31"
         d="m 0,0 30.668,-161.723 -60.534,-123.585 -6.568,-56.866 h 245.537 l -77.075,132.205 38.778,149.576 z"
         style="fill:#e5f6eb;fill-opacity:1;fill-rule:evenodd;stroke:none"
         transform="matrix(1.3333333,0,0,-1.3333333,296.58987,423.76827)"
         clip-path="url(#clipPath32)" />
      <path
         id="path33"
         d="m 0,0 22.971,-161.723 -66.416,-123.585 -9.275,-56.866 h 245.539 l -70.781,132.205 45.895,149.576 z"
         style="fill:#29784e;fill-opacity:1;fill-rule:evenodd;stroke:none"
         transform="matrix(1.3333333,0,0,-1.3333333,296.58987,423.76827)"
         clip-path="url(#clipPath34)" />
      <path
         id="path35"
         d="m 0,0 42.415,1.033 56.287,-90.684 -10.89,-48.133 -51.381,15.241 48.527,-44.759 0.901,-124.659 h 99.829 l -70.781,132.205 34.295,111.771 -99.709,79.712 H 48.761 L -1.761,12.407 Z"
         style="fill:#215e3e;fill-opacity:1;fill-rule:evenodd;stroke:none"
         transform="matrix(1.3333333,0,0,-1.3333333,306.09827,490.7188)"
         clip-path="url(#clipPath36)" />
      <path
         id="path37"
         d="M 0,0 C 3.111,13.857 35.347,5.198 32.007,-9.671 L 16.946,-76.733 h -34.181 z"
         style="fill:#d63d71;fill-opacity:1;fill-rule:evenodd;stroke:none"
         transform="matrix(1.3333333,0,0,-1.3333333,415.09707,288.43427)"
         clip-path="url(#clipPath38)" />
      <path
         id="path39"
         d="m 0,0 -31.574,5.059 -1.831,-16.741 65.921,-11.51 z m 517.601,-78.826 66.258,-10.479 -2.838,-31.032 -178.531,31.262 z"
         style="fill:#d63d71;fill-opacity:1;fill-rule:evenodd;stroke:none"
         transform="matrix(1.3333333,0,0,-1.3333333,65.102267,298.67253)"
         clip-path="url(#clipPath40)" />
      <path
         id="path41"
         d="m 0,0 -517.601,78.826 -19.532,-115.798 43.425,9.934 18.659,-14.816 62.084,2.79 42.552,-20.926 71.153,14.645 118.717,-86.367 79.395,37.54 94.937,-92.912 z"
         style="fill:#193e28;fill-opacity:1;fill-rule:evenodd;stroke:none"
         transform="matrix(1.3333333,0,0,-1.3333333,755.23693,403.77347)"
         clip-path="url(#clipPath42)" />
      <path
         id="path43"
         d="m 0,0 c 106.139,7.88 192.182,-9.937 192.182,-39.794 0,-29.858 -86.043,-60.451 -192.182,-68.33 -106.14,-7.879 -192.183,9.937 -192.183,39.795 0,29.858 86.043,60.45 192.183,68.329"
         style="fill:#193e28;fill-opacity:1;fill-rule:evenodd;stroke:none"
         transform="matrix(1.3333333,0,0,-1.3333333,446.72133,104.23307)"
         clip-path="url(#clipPath44)" />
      <path
         id="path45"
         d="m 0,0 c 0.406,-0.932 0.621,-1.895 0.621,-2.888 0,-13.602 -39.195,-27.538 -87.543,-31.127 -48.351,-3.59 -87.546,4.526 -87.546,18.128 L -186.913,49.05 -27.301,62.658 0.006,0.001 Z"
         style="fill:#215e3e;fill-opacity:1;fill-rule:evenodd;stroke:none"
         transform="matrix(1.3333333,0,0,-1.3333333,561.68747,145.196)"
         clip-path="url(#clipPath46)" />
      <path
         id="path47"
         d="m 0,0 c 44.114,3.274 79.876,-4.13 79.876,-16.54 0,-12.408 -35.762,-25.124 -79.876,-28.399 -44.111,-3.274 -79.872,4.13 -79.872,16.54 0,12.41 35.761,25.124 79.872,28.399"
         style="fill:#29784e;fill-opacity:1;fill-rule:evenodd;stroke:none"
         transform="matrix(1.3333333,0,0,-1.3333333,418.8144,40.325467)"
         clip-path="url(#clipPath48)" />
      <path
         id="path49"
         d="M 0,0 19.691,154.317 5.207,156.854 Z"
         style="fill:#151f18;fill-opacity:1;fill-rule:evenodd;stroke:none"
         transform="matrix(1.3333333,0,0,-1.3333333,746.95573,653.2188)"
         clip-path="url(#clipPath50)" />
    </g>
  </g>
</svg>
