<?xml version="1.0" encoding="UTF-8" standalone="no"?>
<!-- Created with Inkscape (http://www.inkscape.org/) -->

<svg
   version="1.1"
   id="svg1"
   width="880"
   height="880"
   viewBox="0 0 880 880"
   sodipodi:docname="downtown-city-skyline.svg"
   inkscape:version="1.3.2 (091e20e, 2023-11-25, custom)"
   xmlns:inkscape="http://www.inkscape.org/namespaces/inkscape"
   xmlns:sodipodi="http://sodipodi.sourceforge.net/DTD/sodipodi-0.dtd"
   xmlns="http://www.w3.org/2000/svg"
   xmlns:svg="http://www.w3.org/2000/svg">
  <defs
     id="defs1">
    <clipPath
       clipPathUnits="userSpaceOnUse"
       id="clipPath7">
      <path
         d="M 0,660 H 660 V 0 H 0 Z"
         transform="translate(-505.39451,-536.12842)"
         id="path7" />
    </clipPath>
    <clipPath
       clipPathUnits="userSpaceOnUse"
       id="clipPath9">
      <path
         d="M 0,660 H 660 V 0 H 0 Z"
         id="path9" />
    </clipPath>
    <clipPath
       clipPathUnits="userSpaceOnUse"
       id="clipPath11">
      <path
         d="M 0,660 H 660 V 0 H 0 Z"
         id="path11" />
    </clipPath>
    <clipPath
       clipPathUnits="userSpaceOnUse"
       id="clipPath13">
      <path
         d="M 0,660 H 660 V 0 H 0 Z"
         transform="translate(-198.0625,-222.1084)"
         id="path13" />
    </clipPath>
    <clipPath
       clipPathUnits="userSpaceOnUse"
       id="clipPath15">
      <path
         d="M 0,660 H 660 V 0 H 0 Z"
         transform="translate(-377.12401,-406.16061)"
         id="path15" />
    </clipPath>
    <clipPath
       clipPathUnits="userSpaceOnUse"
       id="clipPath17">
      <path
         d="M 0,660 H 660 V 0 H 0 Z"
         transform="translate(-273.8887,-563.56451)"
         id="path17" />
    </clipPath>
    <clipPath
       clipPathUnits="userSpaceOnUse"
       id="clipPath19">
      <path
         d="M 0,660 H 660 V 0 H 0 Z"
         transform="translate(0.28080001,-287.4199)"
         id="path19" />
    </clipPath>
    <clipPath
       clipPathUnits="userSpaceOnUse"
       id="clipPath21">
      <path
         d="M 0,660 H 660 V 0 H 0 Z"
         transform="translate(-660.53612,-214.90531)"
         id="path21" />
    </clipPath>
    <clipPath
       clipPathUnits="userSpaceOnUse"
       id="clipPath23">
      <path
         d="M 0,660 H 660 V 0 H 0 Z"
         id="path23" />
    </clipPath>
    <clipPath
       clipPathUnits="userSpaceOnUse"
       id="clipPath25">
      <path
         d="M 0,660 H 660 V 0 H 0 Z"
         id="path25" />
    </clipPath>
    <clipPath
       clipPathUnits="userSpaceOnUse"
       id="clipPath27">
      <path
         d="M 0,660 H 660 V 0 H 0 Z"
         transform="translate(-414.02251,-468.95511)"
         id="path27" />
    </clipPath>
    <clipPath
       clipPathUnits="userSpaceOnUse"
       id="clipPath29">
      <path
         d="M 0,660 H 660 V 0 H 0 Z"
         transform="translate(-283.48141,-458.08011)"
         id="path29" />
    </clipPath>
    <clipPath
       clipPathUnits="userSpaceOnUse"
       id="clipPath31">
      <path
         d="M 0,660 H 660 V 0 H 0 Z"
         transform="translate(-28.542001,-506.30081)"
         id="path31" />
    </clipPath>
    <clipPath
       clipPathUnits="userSpaceOnUse"
       id="clipPath33">
      <path
         d="M 0,660 H 660 V 0 H 0 Z"
         transform="translate(0.28080001,-273.25101)"
         id="path33" />
    </clipPath>
    <clipPath
       clipPathUnits="userSpaceOnUse"
       id="clipPath35">
      <path
         d="M 0,660 H 660 V 0 H 0 Z"
         id="path35" />
    </clipPath>
    <clipPath
       clipPathUnits="userSpaceOnUse"
       id="clipPath37">
      <path
         d="M 0,660 H 660 V 0 H 0 Z"
         transform="translate(0.28080001,-256.4434)"
         id="path37" />
    </clipPath>
    <clipPath
       clipPathUnits="userSpaceOnUse"
       id="clipPath39">
      <path
         d="M 0,660 H 660 V 0 H 0 Z"
         id="path39" />
    </clipPath>
    <clipPath
       clipPathUnits="userSpaceOnUse"
       id="clipPath41">
      <path
         d="M 0,660 H 660 V 0 H 0 Z"
         transform="translate(0.28080001,-196.5742)"
         id="path41" />
    </clipPath>
    <clipPath
       clipPathUnits="userSpaceOnUse"
       id="clipPath43">
      <path
         d="M 0,660 H 660 V 0 H 0 Z"
         id="path43" />
    </clipPath>
  </defs>
  <sodipodi:namedview
     id="namedview1"
     pagecolor="#ffffff"
     bordercolor="#000000"
     borderopacity="0.25"
     inkscape:showpageshadow="2"
     inkscape:pageopacity="0.0"
     inkscape:pagecheckerboard="0"
     inkscape:deskcolor="#d1d1d1"
     inkscape:zoom="0.67272727"
     inkscape:cx="439.25676"
     inkscape:cy="440"
     inkscape:window-width="1440"
     inkscape:window-height="830"
     inkscape:window-x="-6"
     inkscape:window-y="-6"
     inkscape:window-maximized="1"
     inkscape:current-layer="g1">
    <inkscape:page
       x="0"
       y="0"
       inkscape:label="1"
       id="page1"
       width="880"
       height="880"
       margin="0 0 1.1573334"
       bleed="0" />
  </sodipodi:namedview>
  <g
     id="g1"
     inkscape:groupmode="layer"
     inkscape:label="1">
    <g
       id="group-MC0">
      <path
         id="path2"
         d="M 0,0 H 660 V 659.132 H 0 Z"
         style="fill:#8ebae7;fill-opacity:1;fill-rule:nonzero;stroke:none"
         transform="matrix(1.3333333,0,0,-1.3333333,0,880)" />
      <path
         id="path3"
         d="m 0,556.841 h 660 v 6.724 H 0 Z"
         style="fill:#a6ccee;fill-opacity:1;fill-rule:nonzero;stroke:none"
         transform="matrix(1.3333333,0,0,-1.3333333,0,880)" />
      <path
         id="path4"
         d="M 0,278.779 H 660 V 527.545 H 0 Z"
         style="fill:#a6ccee;fill-opacity:1;fill-rule:nonzero;stroke:none"
         transform="matrix(1.3333333,0,0,-1.3333333,0,880)" />
      <path
         id="path5"
         d="m 0,414.208 h 660 v 33.137 H 0 Z"
         style="fill:#bbdcf4;fill-opacity:1;fill-rule:nonzero;stroke:none"
         transform="matrix(1.3333333,0,0,-1.3333333,0,880)" />
      <path
         id="path6"
         d="m 0,0 c 4.049,0 7.028,-2.038 8.254,-5.142 5.67,9.613 16.618,16.622 27.164,16.622 8.467,0 14.564,-4.517 16.676,-11.272 4.853,4.478 11.178,7.351 17.335,7.351 6.764,0 11.71,-3.468 13.646,-8.721 3.213,2.295 6.99,3.693 10.686,3.693 7.364,0 11.816,-5.549 10.556,-12.695 l 20.096,-1.654 -21.092,-1.736 c -2.924,-7.107 -10.579,-12.613 -17.917,-12.613 -3.695,0 -6.658,1.398 -8.534,3.693 -4.994,-5.253 -11.959,-8.722 -18.723,-8.722 -6.158,0 -10.809,2.874 -13.053,7.352 -6.047,-6.756 -14.774,-11.272 -23.24,-11.272 -10.546,0 -17.414,7.009 -17.488,16.621 -3.031,-3.104 -7.199,-5.141 -11.248,-5.141 -5.969,0 -9.614,4.424 -8.742,10.171 l -20.012,1.647 21.007,1.729 C -12.131,-4.382 -5.94,0 0,0"
         style="fill:#a6ccee;fill-opacity:1;fill-rule:evenodd;stroke:none"
         transform="matrix(1.3333333,0,0,-1.3333333,673.85933,165.16213)"
         clip-path="url(#clipPath7)" />
      <path
         id="path8"
         d="m -0.282,399.437 h 660.818 v 6.724 H -0.282 Z"
         style="fill:#bbdcf4;fill-opacity:1;fill-rule:evenodd;stroke:none"
         transform="matrix(1.3333333,0,0,-1.3333333,0,880)"
         clip-path="url(#clipPath9)" />
      <path
         id="path10"
         d="m -0.282,513.619 h 660.818 v 6.724 H -0.282 Z"
         style="fill:#8ebae7;fill-opacity:1;fill-rule:evenodd;stroke:none"
         transform="matrix(1.3333333,0,0,-1.3333333,0,880)"
         clip-path="url(#clipPath11)" />
      <path
         id="path12"
         d="m 0,0 c 98.663,0 179.132,80.47 179.132,179.132 0,98.663 -80.469,179.133 -179.132,179.133 -98.662,0 -179.131,-80.47 -179.131,-179.133 C -179.131,80.47 -98.662,0 0,0"
         style="fill:#e4f3fc;fill-opacity:1;fill-rule:evenodd;stroke:none"
         transform="matrix(1.3333333,0,0,-1.3333333,264.08333,583.85547)"
         clip-path="url(#clipPath13)" />
      <path
         id="path14"
         d="m 0,0 c 0.044,-1.635 0.07,-3.273 0.07,-4.92 0,-0.602 -0.016,-1.202 -0.023,-1.804 h -358.218 c -0.005,0.602 -0.022,1.202 -0.022,1.804 0,1.647 0.026,3.285 0.07,4.92 z m -45.274,114.182 c 1.954,-2.194 3.855,-4.435 5.701,-6.724 h -278.978 c 1.847,2.289 3.747,4.53 5.701,6.724 z"
         style="fill:#d0e8f8;fill-opacity:1;fill-rule:evenodd;stroke:none"
         transform="matrix(1.3333333,0,0,-1.3333333,502.832,338.45253)"
         clip-path="url(#clipPath15)" />
      <path
         id="path16"
         d="m 0,0 c 4.427,-2.071 8.758,-4.31 12.978,-6.724 h -177.609 c 4.22,2.414 8.552,4.653 12.978,6.724 z"
         style="fill:#ffffff;fill-opacity:1;fill-rule:evenodd;stroke:none"
         transform="matrix(1.3333333,0,0,-1.3333333,365.18493,128.58067)"
         clip-path="url(#clipPath17)" />
      <path
         id="path18"
         d="m 0,0 76.839,76.839 141.673,-141.672 98.45,98.45 45.624,-45.623 L 513.382,138.793 660.817,-8.642 V -289.105 H 0 Z"
         style="fill:#6fa3dd;fill-opacity:1;fill-rule:evenodd;stroke:none"
         transform="matrix(1.3333333,0,0,-1.3333333,-0.3744,496.77347)"
         clip-path="url(#clipPath19)" />
      <path
         id="path20"
         d="M 0,0 V -9.605 H -661.162 L -661.177,0 Z m -261.73,97.011 24.971,24.971 h 178.648 l 24.972,-24.971 z m -24.013,-24.013 10.565,10.566 H -19.691 L -9.127,72.998 Z m -67.234,24.013 9.122,9.121 9.122,-9.121 z m -24.012,-24.013 10.565,10.566 h 45.138 l 10.566,-10.566 z m -54.748,-54.748 35.538,35.538 H 0 V 18.25 Z m -56.674,35.538 35.54,-35.538 h -207.946 v 35.537 z m -147.911,43.223 24.972,24.971 h 54.744 l 24.973,-24.971 z m -24.012,-24.013 10.565,10.566 h 131.583 l 10.565,-10.566 z"
         style="fill:#7fb0e2;fill-opacity:1;fill-rule:evenodd;stroke:none"
         transform="matrix(1.3333333,0,0,-1.3333333,880.7148,593.4596)"
         clip-path="url(#clipPath21)" />
      <path
         id="path22"
         d="m -0.282,615.911 h 660.818 v 6.724 H -0.282 Z"
         style="fill:#7dabe0;fill-opacity:1;fill-rule:evenodd;stroke:none"
         transform="matrix(1.3333333,0,0,-1.3333333,0,880)"
         clip-path="url(#clipPath23)" />
      <path
         id="path24"
         d="m -0.282,631.76 h 660.818 v 16.808 H -0.282 Z"
         style="fill:#7dabe0;fill-opacity:1;fill-rule:evenodd;stroke:none"
         transform="matrix(1.3333333,0,0,-1.3333333,0,880)"
         clip-path="url(#clipPath25)" />
      <path
         id="path26"
         d="m 0,0 c 3.884,0 7.256,-0.972 9.959,-2.683 5.516,8.299 15.235,14.209 24.615,14.209 9.625,0 15.984,-6.223 16.379,-14.864 1.885,0.606 3.82,0.937 5.737,0.937 6.134,0 10.493,-3.385 11.827,-8.388 5.851,7.524 15.08,12.71 24.01,12.71 12.466,0 19.627,-10.106 15.995,-22.571 -3.632,-12.466 -16.681,-22.571 -29.147,-22.571 -9.817,0 -16.343,6.268 -16.9,15.021 -4.169,-4.151 -9.812,-6.858 -15.299,-6.858 -5.55,0 -9.646,2.77 -11.363,7.001 -4.346,-2.591 -9.203,-4.119 -13.97,-4.119 -3.427,0 -6.44,0.789 -8.915,2.195 -5.656,-9.086 -16.126,-15.642 -26.219,-15.642 -12.599,0 -19.837,10.213 -16.166,22.812 C -25.786,-10.213 -12.599,0 0,0"
         style="fill:#bbdcf4;fill-opacity:1;fill-rule:evenodd;stroke:none"
         transform="matrix(1.3333333,0,0,-1.3333333,552.03,254.72653)"
         clip-path="url(#clipPath27)" />
      <path
         id="path28"
         d="m 0,0 c 9.767,0 15.334,-7.167 13.482,-16.53 l 42.599,-3.006 -44.799,-3.161 C 6.5,-31.983 -4.055,-39.071 -13.767,-39.071 c -5.971,0 -10.374,2.681 -12.468,6.904 -5.037,-4.173 -11.272,-6.818 -17.19,-6.818 -7.567,0 -12.601,4.32 -13.595,10.629 -6.467,-8.49 -16.918,-14.471 -26.661,-14.471 -6.459,0 -11.377,2.631 -14.1,6.878 -4.411,-2.656 -9.311,-4.237 -14.024,-4.237 -7.035,0 -12.008,3.52 -13.843,8.894 -1.72,-0.624 -3.489,-0.969 -5.216,-0.969 -6,0 -9.565,4.152 -8.94,9.74 l -42.317,2.985 44.515,3.142 c 3.339,5.509 9.766,9.583 15.71,9.583 1.728,0 3.253,-0.343 4.534,-0.967 5.622,5.374 13.075,8.893 20.111,8.893 4.712,0 8.499,-1.58 11.037,-4.237 5.717,4.248 12.489,6.878 18.948,6.878 9.743,0 15.977,-5.981 16.463,-14.47 5.439,6.309 13.518,10.629 21.084,10.629 5.919,0 10.288,-2.646 12.385,-6.818 C -12.261,-2.681 -5.972,0 0,0"
         style="fill:#ffffff;fill-opacity:1;fill-rule:evenodd;stroke:none"
         transform="matrix(1.3333333,0,0,-1.3333333,377.9752,269.22653)"
         clip-path="url(#clipPath29)" />
      <path
         id="path30"
         d="m 0,0 c 2.879,0 4.998,-1.449 5.87,-3.657 4.032,6.836 11.817,11.821 19.317,11.821 6.021,0 10.357,-3.212 11.86,-8.017 3.451,3.185 7.949,5.229 12.327,5.229 4.811,0 8.328,-2.467 9.705,-6.203 2.284,1.633 4.97,2.627 7.599,2.627 5.237,0 8.404,-3.946 7.507,-9.028 l 14.292,-1.176 -15,-1.235 c -2.08,-5.054 -7.523,-8.97 -12.741,-8.97 -2.629,0 -4.736,0.994 -6.07,2.627 -3.552,-3.737 -8.503,-6.203 -13.314,-6.203 -4.38,0 -7.688,2.043 -9.284,5.228 -4.3,-4.804 -10.506,-8.016 -16.527,-8.016 -7.5,0 -12.383,4.985 -12.435,11.821 -2.157,-2.208 -5.12,-3.657 -8,-3.657 -4.244,0 -6.838,3.146 -6.216,7.233 l -14.232,1.172 14.939,1.228 C -8.627,-3.117 -4.224,0 0,0"
         style="fill:#ffffff;fill-opacity:1;fill-rule:evenodd;stroke:none"
         transform="matrix(1.3333333,0,0,-1.3333333,38.056,204.93227)"
         clip-path="url(#clipPath31)" />
      <path
         id="path32"
         d="m 0,0 h 20.652 v 34.82 h 33.859 v -56.91 h 15.368 v 47.309 h 46.104 v 51.62 h 48.025 V -9.605 h 13.447 v 23.052 h 66.274 v -7.92 h 23.051 v -47.788 h 15.369 v 37.703 h 26.893 v 19.21 h 21.366 v 40.82 h 40.104 v -89.089 h 30.737 v 29.059 h 8.645 v 29.777 h 28.814 V 38.665 H 480.97 V 5.527 h 14.408 v -45.623 h 16.329 v 91.962 h 35.537 v -62.432 h 12.485 v 25.218 h 26.896 V -4.803 h 18.248 v 30.022 h 23.052 v 28.569 h 32.892 V -274.937 H 0 Z"
         style="fill:#598fd2;fill-opacity:1;fill-rule:evenodd;stroke:none"
         transform="matrix(1.3333333,0,0,-1.3333333,-0.3744,515.66533)"
         clip-path="url(#clipPath33)" />
      <path
         id="path34"
         d="m 163.727,350.09 h -19.21 V 209.379 h 19.21 z m 79.721,-63.392 h -11.526 v -68.675 h 11.526 z m 23.051,-7.92 h -4.802 v -63.873 h 4.802 z m 42.262,9.125 h 14.406 v -58.354 h -14.406 z m -26.893,-19.21 h 12.966 v -53.788 h -12.966 z m 48.259,60.03 h 8.889 v -92.929 h -8.889 z m 70.841,-60.03 h 6.244 v -53.788 h -6.244 z m 8.645,29.777 h 10.084 v -55.954 h -10.084 z m 28.815,13.446 h 9.605 V 249.72 h -9.605 z m 72.998,13.201 h 8.643 V 194.491 h -8.643 z m 48.022,-37.214 h 12.007 v -43.946 h -12.007 z m 45.144,10.567 h 5.763 v -55.472 h -5.763 z m 23.052,28.569 h 8.163 V 270.85 h -8.163 z M 54.23,308.071 H 45.586 V 202.655 h 8.644 z"
         style="fill:#bbdcf4;fill-opacity:1;fill-rule:evenodd;stroke:none"
         transform="matrix(1.3333333,0,0,-1.3333333,0,880)"
         clip-path="url(#clipPath35)" />
      <path
         id="path36"
         d="m 0,0 h 33.38 v -84.761 h 36.499 v 209.145 h 38.899 V 31.46 h 25.934 v -82.604 h 22.091 v 200.861 h 12.966 v 8.047 H 190.9 v -8.047 h 23.533 v -274.58 h 34.815 V -3.118 h 42.504 v -48.026 h 23.532 v 66.992 h 32.658 v 156.081 h 7.442 v 7.924 h 33.136 v -7.924 h 2.644 V -2.881 h 39.859 V -116.22 h 14.888 v 322.726 h 9.845 v 11.046 h 29.775 v -11.046 h 18.97 V 22.335 h 36.019 v -147.679 h 39.381 v 240.605 h 40.82 V -23.288 h 40.096 V -258.129 H 0 Z"
         style="fill:#325da7;fill-opacity:1;fill-rule:evenodd;stroke:none"
         transform="matrix(1.3333333,0,0,-1.3333333,-0.3744,538.07547)"
         clip-path="url(#clipPath37)" />
      <path
         id="path38"
         d="m 214.152,406.161 h -16.33 V 108.525 h 16.33 z M 134.432,287.903 H 123.867 V 151.746 h 10.565 z M 33.1,256.443 H 17.729 V 129.655 H 33.1 Z m 314.561,171.929 h 14.283 V 214.905 h -14.283 z m 97.969,34.578 h 19.088 V 83.073 H 445.63 Z m 133.99,-91.246 h 19.566 V 54.258 H 579.62 Z M 315.003,272.291 h 11.884 V 135.899 h -11.884 z m -66.036,-18.966 h 19.81 V 80.671 h -19.81 z M 108.498,380.827 H 97.451 v -92.924 h 11.047 z"
         style="fill:#4172be;fill-opacity:1;fill-rule:evenodd;stroke:none"
         transform="matrix(1.3333333,0,0,-1.3333333,0,880)"
         clip-path="url(#clipPath39)" />
      <path
         id="path40"
         d="M 0,0 H 19.811 V -35.461 H 34.813 V -171.838 H 99.934 V -2.729 h 34.434 V 27.274 H 225.74 V -2.729 h 27.277 v -90.009 h 98.191 V 46.367 h 68.187 V 92.734 H 528.037 V 46.367 h 38.186 v -166.382 h 76.833 v 95.464 h 17.761 V -198.26 L 0,-198.26 Z"
         style="fill:#1e335b;fill-opacity:1;fill-rule:evenodd;stroke:none"
         transform="matrix(1.3333333,0,0,-1.3333333,-0.3744,617.90107)"
         clip-path="url(#clipPath41)" />
      <path
         id="path42"
         d="M 419.114,289.309 H 445.63 V 205.3 H 419.114 Z M 34.532,161.113 H 18.318 V -1.686 h 16.214 z m 218.204,32.732 H 239.025 V 39.126 h 13.711 z m -27.277,30.003 h -14.074 v -69.942 h 14.074 z m 125.468,19.093 h 36.708 V 65.54 h -36.708 z"
         style="fill:#23447c;fill-opacity:1;fill-rule:evenodd;stroke:none"
         transform="matrix(1.3333333,0,0,-1.3333333,0,880)"
         clip-path="url(#clipPath43)" />
    </g>
  </g>
</svg>
