<?xml version="1.0" encoding="UTF-8" standalone="no"?>
<!-- Created with Inkscape (http://www.inkscape.org/) -->

<svg
   version="1.1"
   id="svg1"
   width="880"
   height="880"
   viewBox="0 0 880 880"
   sodipodi:docname="green-trees-in-the-forest.svg"
   inkscape:version="1.3.2 (091e20e, 2023-11-25, custom)"
   xmlns:inkscape="http://www.inkscape.org/namespaces/inkscape"
   xmlns:sodipodi="http://sodipodi.sourceforge.net/DTD/sodipodi-0.dtd"
   xmlns="http://www.w3.org/2000/svg"
   xmlns:svg="http://www.w3.org/2000/svg">
  <defs
     id="defs1">
    <clipPath
       clipPathUnits="userSpaceOnUse"
       id="clipPath4">
      <path
         d="M 0,660 H 660 V 0 H 0 Z"
         transform="translate(-541.26271,-215.11911)"
         id="path4" />
    </clipPath>
    <clipPath
       clipPathUnits="userSpaceOnUse"
       id="clipPath6">
      <path
         d="M 0,660 H 660 V 0 H 0 Z"
         transform="translate(-586.23832,-230.2246)"
         id="path6" />
    </clipPath>
    <clipPath
       clipPathUnits="userSpaceOnUse"
       id="clipPath8">
      <path
         d="M 0,660 H 660 V 0 H 0 Z"
         transform="translate(-551.78812,-274.08111)"
         id="path8" />
    </clipPath>
    <clipPath
       clipPathUnits="userSpaceOnUse"
       id="clipPath10">
      <path
         d="M 0,660 H 660 V 0 H 0 Z"
         transform="translate(-553.72661,-157.0566)"
         id="path10" />
    </clipPath>
    <clipPath
       clipPathUnits="userSpaceOnUse"
       id="clipPath12">
      <path
         d="M 0,660 H 660 V 0 H 0 Z"
         transform="translate(-583.11622,-221.46781)"
         id="path12" />
    </clipPath>
    <clipPath
       clipPathUnits="userSpaceOnUse"
       id="clipPath14">
      <path
         d="M 0,660 H 660 V 0 H 0 Z"
         transform="translate(-559.36331,-261.91111)"
         id="path14" />
    </clipPath>
    <clipPath
       clipPathUnits="userSpaceOnUse"
       id="clipPath16">
      <path
         d="M 0,660 H 660 V 0 H 0 Z"
         transform="translate(-545.97851,-285.84861)"
         id="path16" />
    </clipPath>
    <clipPath
       clipPathUnits="userSpaceOnUse"
       id="clipPath18">
      <path
         d="M 0,660 H 660 V 0 H 0 Z"
         transform="translate(-610.19342,-268.4014)"
         id="path18" />
    </clipPath>
    <clipPath
       clipPathUnits="userSpaceOnUse"
       id="clipPath20">
      <path
         d="M 0,660 H 660 V 0 H 0 Z"
         transform="translate(-600.53711,-247.5322)"
         id="path20" />
    </clipPath>
    <clipPath
       clipPathUnits="userSpaceOnUse"
       id="clipPath22">
      <path
         d="M 0,660 H 660 V 0 H 0 Z"
         transform="translate(-615.77342,-235.2646)"
         id="path22" />
    </clipPath>
    <clipPath
       clipPathUnits="userSpaceOnUse"
       id="clipPath24">
      <path
         d="M 0,660 H 660 V 0 H 0 Z"
         transform="translate(-551.65141,-227.6914)"
         id="path24" />
    </clipPath>
    <clipPath
       clipPathUnits="userSpaceOnUse"
       id="clipPath26">
      <path
         d="M 0,660 H 660 V 0 H 0 Z"
         transform="translate(-562.71682,-218.7793)"
         id="path26" />
    </clipPath>
    <clipPath
       clipPathUnits="userSpaceOnUse"
       id="clipPath28">
      <path
         d="M 0,660 H 660 V 0 H 0 Z"
         transform="translate(-343.96391,-230.99901)"
         id="path28" />
    </clipPath>
    <clipPath
       clipPathUnits="userSpaceOnUse"
       id="clipPath30">
      <path
         d="M 0,660 H 660 V 0 H 0 Z"
         transform="translate(-401.24221,-250.23631)"
         id="path30" />
    </clipPath>
    <clipPath
       clipPathUnits="userSpaceOnUse"
       id="clipPath32">
      <path
         d="M 0,660 H 660 V 0 H 0 Z"
         transform="translate(-357.36911,-306.09081)"
         id="path32" />
    </clipPath>
    <clipPath
       clipPathUnits="userSpaceOnUse"
       id="clipPath34">
      <path
         d="M 0,660 H 660 V 0 H 0 Z"
         transform="translate(-359.83791,-157.0566)"
         id="path34" />
    </clipPath>
    <clipPath
       clipPathUnits="userSpaceOnUse"
       id="clipPath36">
      <path
         d="M 0,660 H 660 V 0 H 0 Z"
         transform="translate(-397.26661,-239.08401)"
         id="path36" />
    </clipPath>
    <clipPath
       clipPathUnits="userSpaceOnUse"
       id="clipPath38">
      <path
         d="M 0,660 H 660 V 0 H 0 Z"
         transform="translate(-367.01761,-290.5918)"
         id="path38" />
    </clipPath>
    <clipPath
       clipPathUnits="userSpaceOnUse"
       id="clipPath40">
      <path
         d="M 0,660 H 660 V 0 H 0 Z"
         transform="translate(-349.96971,-321.07521)"
         id="path40" />
    </clipPath>
    <clipPath
       clipPathUnits="userSpaceOnUse"
       id="clipPath42">
      <path
         d="M 0,660 H 660 V 0 H 0 Z"
         transform="translate(-431.74901,-298.85451)"
         id="path42" />
    </clipPath>
    <clipPath
       clipPathUnits="userSpaceOnUse"
       id="clipPath44">
      <path
         d="M 0,660 H 660 V 0 H 0 Z"
         transform="translate(-419.45311,-272.27931)"
         id="path44" />
    </clipPath>
    <clipPath
       clipPathUnits="userSpaceOnUse"
       id="clipPath46">
      <path
         d="M 0,660 H 660 V 0 H 0 Z"
         transform="translate(-438.85641,-256.65631)"
         id="path46" />
    </clipPath>
    <clipPath
       clipPathUnits="userSpaceOnUse"
       id="clipPath48">
      <path
         d="M 0,660 H 660 V 0 H 0 Z"
         transform="translate(-357.19431,-247.0117)"
         id="path48" />
    </clipPath>
    <clipPath
       clipPathUnits="userSpaceOnUse"
       id="clipPath50">
      <path
         d="M 0,660 H 660 V 0 H 0 Z"
         transform="translate(-371.28911,-235.66111)"
         id="path50" />
    </clipPath>
    <clipPath
       clipPathUnits="userSpaceOnUse"
       id="clipPath52">
      <path
         d="M 0,660 H 660 V 0 H 0 Z"
         transform="translate(-168.5371,-258.25681)"
         id="path52" />
    </clipPath>
    <clipPath
       clipPathUnits="userSpaceOnUse"
       id="clipPath54">
      <path
         d="M 0,660 H 660 V 0 H 0 Z"
         transform="translate(-246.92821,-284.5879)"
         id="path54" />
    </clipPath>
    <clipPath
       clipPathUnits="userSpaceOnUse"
       id="clipPath56">
      <path
         d="M 0,660 H 660 V 0 H 0 Z"
         transform="translate(-186.8833,-361.03081)"
         id="path56" />
    </clipPath>
    <clipPath
       clipPathUnits="userSpaceOnUse"
       id="clipPath58">
      <path
         d="M 0,660 H 660 V 0 H 0 Z"
         transform="translate(-190.2603,-157.0566)"
         id="path58" />
    </clipPath>
    <clipPath
       clipPathUnits="userSpaceOnUse"
       id="clipPath60">
      <path
         d="M 0,660 H 660 V 0 H 0 Z"
         transform="translate(-241.48681,-269.32321)"
         id="path60" />
    </clipPath>
    <clipPath
       clipPathUnits="userSpaceOnUse"
       id="clipPath62">
      <path
         d="M 0,660 H 660 V 0 H 0 Z"
         transform="translate(-200.08591,-339.81881)"
         id="path62" />
    </clipPath>
    <clipPath
       clipPathUnits="userSpaceOnUse"
       id="clipPath64">
      <path
         d="M 0,660 H 660 V 0 H 0 Z"
         transform="translate(-176.75631,-381.54151)"
         id="path64" />
    </clipPath>
    <clipPath
       clipPathUnits="userSpaceOnUse"
       id="clipPath66">
      <path
         d="M 0,660 H 660 V 0 H 0 Z"
         transform="translate(-288.68311,-351.12791)"
         id="path66" />
    </clipPath>
    <clipPath
       clipPathUnits="userSpaceOnUse"
       id="clipPath68">
      <path
         d="M 0,660 H 660 V 0 H 0 Z"
         transform="translate(-271.85301,-314.75681)"
         id="path68" />
    </clipPath>
    <clipPath
       clipPathUnits="userSpaceOnUse"
       id="clipPath70">
      <path
         d="M 0,660 H 660 V 0 H 0 Z"
         transform="translate(-298.40971,-293.37111)"
         id="path70" />
    </clipPath>
    <clipPath
       clipPathUnits="userSpaceOnUse"
       id="clipPath72">
      <path
         d="M 0,660 H 660 V 0 H 0 Z"
         transform="translate(-186.6421,-280.17091)"
         id="path72" />
    </clipPath>
    <clipPath
       clipPathUnits="userSpaceOnUse"
       id="clipPath74">
      <path
         d="M 0,660 H 660 V 0 H 0 Z"
         transform="translate(-205.9336,-264.63871)"
         id="path74" />
    </clipPath>
    <clipPath
       clipPathUnits="userSpaceOnUse"
       id="clipPath76">
      <path
         d="M 0,660 H 660 V 0 H 0 Z"
         transform="translate(-449.69821,-254.6797)"
         id="path76" />
    </clipPath>
    <clipPath
       clipPathUnits="userSpaceOnUse"
       id="clipPath78">
      <path
         d="M 0,660 H 660 V 0 H 0 Z"
         transform="translate(-525.31841,-280.07811)"
         id="path78" />
    </clipPath>
    <clipPath
       clipPathUnits="userSpaceOnUse"
       id="clipPath80">
      <path
         d="M 0,660 H 660 V 0 H 0 Z"
         transform="translate(-467.39551,-353.81881)"
         id="path80" />
    </clipPath>
    <clipPath
       clipPathUnits="userSpaceOnUse"
       id="clipPath82">
      <path
         d="M 0,660 H 660 V 0 H 0 Z"
         transform="translate(-470.65431,-157.0566)"
         id="path82" />
    </clipPath>
    <clipPath
       clipPathUnits="userSpaceOnUse"
       id="clipPath84">
      <path
         d="M 0,660 H 660 V 0 H 0 Z"
         transform="translate(-520.06931,-265.35451)"
         id="path84" />
    </clipPath>
    <clipPath
       clipPathUnits="userSpaceOnUse"
       id="clipPath86">
      <path
         d="M 0,660 H 660 V 0 H 0 Z"
         transform="translate(-480.13281,-333.35691)"
         id="path86" />
    </clipPath>
    <clipPath
       clipPathUnits="userSpaceOnUse"
       id="clipPath88">
      <path
         d="M 0,660 H 660 V 0 H 0 Z"
         transform="translate(-457.62791,-373.60351)"
         id="path88" />
    </clipPath>
    <clipPath
       clipPathUnits="userSpaceOnUse"
       id="clipPath90">
      <path
         d="M 0,660 H 660 V 0 H 0 Z"
         transform="translate(-565.59772,-344.26661)"
         id="path90" />
    </clipPath>
    <clipPath
       clipPathUnits="userSpaceOnUse"
       id="clipPath92">
      <path
         d="M 0,660 H 660 V 0 H 0 Z"
         transform="translate(-549.36232,-309.18071)"
         id="path92" />
    </clipPath>
    <clipPath
       clipPathUnits="userSpaceOnUse"
       id="clipPath94">
      <path
         d="M 0,660 H 660 V 0 H 0 Z"
         transform="translate(-574.97951,-288.5527)"
         id="path94" />
    </clipPath>
    <clipPath
       clipPathUnits="userSpaceOnUse"
       id="clipPath96">
      <path
         d="M 0,660 H 660 V 0 H 0 Z"
         transform="translate(-467.16311,-275.81931)"
         id="path96" />
    </clipPath>
    <clipPath
       clipPathUnits="userSpaceOnUse"
       id="clipPath98">
      <path
         d="M 0,660 H 660 V 0 H 0 Z"
         transform="translate(-485.77251,-260.83501)"
         id="path98" />
    </clipPath>
    <clipPath
       clipPathUnits="userSpaceOnUse"
       id="clipPath100">
      <path
         d="M 0,660 H 660 V 0 H 0 Z"
         transform="translate(-25.061001,-281.3809)"
         id="path100" />
    </clipPath>
    <clipPath
       clipPathUnits="userSpaceOnUse"
       id="clipPath102">
      <path
         d="M 0,660 H 660 V 0 H 0 Z"
         transform="translate(-121.36521,-313.72851)"
         id="path102" />
    </clipPath>
    <clipPath
       clipPathUnits="userSpaceOnUse"
       id="clipPath104">
      <path
         d="M 0,660 H 660 V 0 H 0 Z"
         transform="translate(-47.599101,-407.63821)"
         id="path104" />
    </clipPath>
    <clipPath
       clipPathUnits="userSpaceOnUse"
       id="clipPath106">
      <path
         d="M 0,660 H 660 V 0 H 0 Z"
         transform="translate(-51.748501,-157.0566)"
         id="path106" />
    </clipPath>
    <clipPath
       clipPathUnits="userSpaceOnUse"
       id="clipPath108">
      <path
         d="M 0,660 H 660 V 0 H 0 Z"
         transform="translate(-114.6807,-294.97461)"
         id="path108" />
    </clipPath>
    <clipPath
       clipPathUnits="userSpaceOnUse"
       id="clipPath110">
      <path
         d="M 0,660 H 660 V 0 H 0 Z"
         transform="translate(-63.819802,-381.58061)"
         id="path110" />
    </clipPath>
    <clipPath
       clipPathUnits="userSpaceOnUse"
       id="clipPath112">
      <path
         d="M 0,660 H 660 V 0 H 0 Z"
         transform="translate(-35.159201,-432.83451)"
         id="path112" />
    </clipPath>
    <clipPath
       clipPathUnits="userSpaceOnUse"
       id="clipPath114">
      <path
         d="M 0,660 H 660 V 0 H 0 Z"
         transform="translate(-172.6611,-395.47311)"
         id="path114" />
    </clipPath>
    <clipPath
       clipPathUnits="userSpaceOnUse"
       id="clipPath116">
      <path
         d="M 0,660 H 660 V 0 H 0 Z"
         transform="translate(-151.98441,-350.79001)"
         id="path116" />
    </clipPath>
    <clipPath
       clipPathUnits="userSpaceOnUse"
       id="clipPath118">
      <path
         d="M 0,660 H 660 V 0 H 0 Z"
         transform="translate(-184.6084,-324.51951)"
         id="path118" />
    </clipPath>
    <clipPath
       clipPathUnits="userSpaceOnUse"
       id="clipPath120">
      <path
         d="M 0,660 H 660 V 0 H 0 Z"
         transform="translate(-47.303701,-308.30471)"
         id="path120" />
    </clipPath>
    <clipPath
       clipPathUnits="userSpaceOnUse"
       id="clipPath122">
      <path
         d="M 0,660 H 660 V 0 H 0 Z"
         transform="translate(-71.002902,-289.22271)"
         id="path122" />
    </clipPath>
    <clipPath
       clipPathUnits="userSpaceOnUse"
       id="clipPath124">
      <path
         d="M 0,660 H 660 V 0 H 0 Z"
         transform="translate(-216.49711,-313.27441)"
         id="path124" />
    </clipPath>
    <clipPath
       clipPathUnits="userSpaceOnUse"
       id="clipPath126">
      <path
         d="M 0,660 H 660 V 0 H 0 Z"
         transform="translate(-337.50681,-353.91891)"
         id="path126" />
    </clipPath>
    <clipPath
       clipPathUnits="userSpaceOnUse"
       id="clipPath128">
      <path
         d="M 0,660 H 660 V 0 H 0 Z"
         transform="translate(-244.81641,-471.91801)"
         id="path128" />
    </clipPath>
    <clipPath
       clipPathUnits="userSpaceOnUse"
       id="clipPath130">
      <path
         d="M 0,660 H 660 V 0 H 0 Z"
         transform="translate(-250.02981,-157.0566)"
         id="path130" />
    </clipPath>
    <clipPath
       clipPathUnits="userSpaceOnUse"
       id="clipPath132">
      <path
         d="M 0,660 H 660 V 0 H 0 Z"
         transform="translate(-329.10451,-330.35601)"
         id="path132" />
    </clipPath>
    <clipPath
       clipPathUnits="userSpaceOnUse"
       id="clipPath134">
      <path
         d="M 0,660 H 660 V 0 H 0 Z"
         transform="translate(-265.19781,-439.17631)"
         id="path134" />
    </clipPath>
    <clipPath
       clipPathUnits="userSpaceOnUse"
       id="clipPath136">
      <path
         d="M 0,660 H 660 V 0 H 0 Z"
         transform="translate(-229.18461,-503.57911)"
         id="path136" />
    </clipPath>
    <clipPath
       clipPathUnits="userSpaceOnUse"
       id="clipPath138">
      <path
         d="M 0,660 H 660 V 0 H 0 Z"
         transform="translate(-401.96001,-456.63331)"
         id="path138" />
    </clipPath>
    <clipPath
       clipPathUnits="userSpaceOnUse"
       id="clipPath140">
      <path
         d="M 0,660 H 660 V 0 H 0 Z"
         transform="translate(-375.97851,-400.48681)"
         id="path140" />
    </clipPath>
    <clipPath
       clipPathUnits="userSpaceOnUse"
       id="clipPath142">
      <path
         d="M 0,660 H 660 V 0 H 0 Z"
         transform="translate(-416.97271,-367.47751)"
         id="path142" />
    </clipPath>
    <clipPath
       clipPathUnits="userSpaceOnUse"
       id="clipPath144">
      <path
         d="M 0,660 H 660 V 0 H 0 Z"
         transform="translate(-244.44531,-347.10301)"
         id="path144" />
    </clipPath>
    <clipPath
       clipPathUnits="userSpaceOnUse"
       id="clipPath146">
      <path
         d="M 0,660 H 660 V 0 H 0 Z"
         transform="translate(-274.22461,-323.12401)"
         id="path146" />
    </clipPath>
    <clipPath
       clipPathUnits="userSpaceOnUse"
       id="clipPath148">
      <path
         d="M 0,660 H 660 V 0 H 0 Z"
         id="path148" />
    </clipPath>
    <clipPath
       clipPathUnits="userSpaceOnUse"
       id="clipPath150">
      <path
         d="M 0,660 H 660 V 0 H 0 Z"
         id="path150" />
    </clipPath>
  </defs>
  <sodipodi:namedview
     id="namedview1"
     pagecolor="#ffffff"
     bordercolor="#000000"
     borderopacity="0.25"
     inkscape:showpageshadow="2"
     inkscape:pageopacity="0.0"
     inkscape:pagecheckerboard="0"
     inkscape:deskcolor="#d1d1d1"
     inkscape:zoom="0.67272727"
     inkscape:cx="439.25676"
     inkscape:cy="440"
     inkscape:window-width="1440"
     inkscape:window-height="830"
     inkscape:window-x="-6"
     inkscape:window-y="-6"
     inkscape:window-maximized="1"
     inkscape:current-layer="g1">
    <inkscape:page
       x="0"
       y="0"
       inkscape:label="1"
       id="page1"
       width="880"
       height="880"
       margin="0 1.7493334 2.72 0.97332799"
       bleed="0" />
  </sodipodi:namedview>
  <g
     id="g1"
     inkscape:groupmode="layer"
     inkscape:label="1">
    <g
       id="group-MC0">
      <path
         id="path2"
         d="M 0.73,0 H 658.688 V 657.96 H 0.73 Z"
         style="fill:#d4efcf;fill-opacity:1;fill-rule:nonzero;stroke:none"
         transform="matrix(1.3333333,0,0,-1.3333333,0,880)" />
      <path
         id="path3"
         d="m 0,0 c -3.234,1.161 -5.55,3.208 -5.55,5.163 0,2.077 2.628,3.392 6.197,3.316 0.777,2.221 5.462,3.251 11.127,2.308 4.183,-0.695 7.833,-2.289 9.767,-4.073 0.817,0.054 1.702,0.01 2.628,-0.144 4.082,-0.677 7.391,-3.247 7.391,-5.733 0,-1.74 -1.617,-2.979 -3.987,-3.336 0.091,-0.292 0.138,-0.583 0.138,-0.873 0,-2.83 -4.464,-4.379 -9.972,-3.463 -1.926,0.32 -3.722,0.901 -5.247,1.64 -1.301,-0.771 -3.243,-1.073 -5.415,-0.714 -3.912,0.651 -7.083,3.213 -7.083,5.722 0,0.062 0.002,0.125 0.006,0.187"
         style="fill:#9ada9b;fill-opacity:1;fill-rule:evenodd;stroke:none"
         transform="matrix(1.3333333,0,0,-1.3333333,721.6836,593.17453)"
         clip-path="url(#clipPath4)" />
      <path
         id="path5"
         d="m 0,0 c -4.455,1.602 -7.642,4.419 -7.642,7.107 0,2.862 3.617,4.67 8.532,4.566 1.071,3.057 7.52,4.475 15.317,3.179 5.758,-0.958 10.781,-3.151 13.447,-5.608 1.124,0.073 2.342,0.013 3.617,-0.199 5.619,-0.934 10.174,-4.467 10.174,-7.892 0,-2.395 -2.226,-4.102 -5.487,-4.591 0.125,-0.402 0.189,-0.805 0.189,-1.205 0,-3.892 -6.145,-6.026 -13.726,-4.765 -2.652,0.441 -5.128,1.24 -7.226,2.257 -1.789,-1.062 -4.463,-1.481 -7.454,-0.981 -5.385,0.896 -9.751,4.421 -9.751,7.873 0,0.089 0.004,0.174 0.01,0.259"
         style="fill:#9ada9b;fill-opacity:1;fill-rule:evenodd;stroke:none"
         transform="matrix(1.3333333,0,0,-1.3333333,781.65107,573.03387)"
         clip-path="url(#clipPath6)" />
      <path
         id="path7"
         d="m 0,0 c 3.226,-0.238 6.25,-0.787 8.86,-1.545 1.708,1.903 5.804,3.029 10.586,2.674 3.924,-0.29 7.387,-1.511 9.447,-3.13 3.514,0.795 7.977,1.095 12.836,0.734 11.324,-0.838 20.502,-4.945 20.502,-9.172 0,-1.396 -1.002,-2.63 -2.752,-3.626 2.476,-1.303 4.015,-2.981 4.015,-4.711 0,-3.405 -5.954,-5.724 -13.297,-5.179 -3.89,0.288 -7.389,1.322 -9.821,2.738 -3.788,-1.443 -9.56,-2.117 -16.027,-1.637 -11.405,0.845 -20.65,4.957 -20.65,9.18 0,0.042 0.002,0.085 0.004,0.125 -1.194,-0.006 -2.432,0.034 -3.703,0.129 -9.837,0.731 -17.813,4.326 -17.813,8.031 0,3.706 7.976,6.118 17.813,5.389"
         style="fill:#9ada9b;fill-opacity:1;fill-rule:evenodd;stroke:none"
         transform="matrix(1.3333333,0,0,-1.3333333,735.71747,514.55853)"
         clip-path="url(#clipPath8)" />
      <path
         id="path9"
         d="m 0,0 c 4.745,0.044 6.405,2.783 7.982,6.903 1.932,5.516 5.533,18.533 2.307,23.872 C 7.801,34.898 4.292,36.189 1.932,41.92 -0.329,47.416 0.024,58.926 0.161,64.901 0.678,58.449 0.839,42.531 9.4,40.91 c 4.354,-0.482 5.353,2.807 6.095,6.438 1.105,5.33 2.47,9.912 3.789,15.107 2.864,11.582 0.234,13.907 -3.16,24.588 -2.027,6.371 -4.925,9.275 -9.796,13.75 -4.124,3.762 -8.018,8.626 -9.799,13.952 -1.196,3.578 3.409,-4.054 3.558,-4.267 3.848,-5.465 11.561,-11.641 15.613,-3.045 0.985,2.088 1.708,4.383 2.693,6.549 3.44,7.257 1.978,4.054 1.198,-1.261 -0.845,-5.922 -3.279,-18.817 6.794,-18.121 4.854,0.335 8.7,3.828 11.966,7.012 3.057,2.981 -1.031,-1.968 -1.4,-2.37 -3.171,-3.426 -5.214,-4.959 -8.722,-7.833 -7.345,-6.014 -1.332,-11.005 -0.08,-18.515 0.231,-1.721 0.291,-3.611 0.449,-5.361 0.464,-5.008 3.448,-6.801 8.131,-5.508 6.529,1.803 10.35,9.112 15.243,13.164 C 51.893,74.477 44.243,63.02 43.187,61.725 39.097,56.715 35.999,55.993 30.851,52.99 24.745,49.431 25.492,44.441 25.557,38.02 25.641,29.775 27.309,4.802 44.133,0 Z"
         style="fill:#9ada9b;fill-opacity:1;fill-rule:evenodd;stroke:none"
         transform="matrix(1.3333333,0,0,-1.3333333,738.30213,670.5912)"
         clip-path="url(#clipPath10)" />
      <path
         id="path11"
         d="M 0,0 C 1.249,-2.582 3.813,-3.36 7.34,-2.386 13.868,-0.583 17.689,6.726 22.582,10.777 22.503,10.065 14.855,-1.392 13.797,-2.686 9.707,-7.696 6.609,-8.418 1.461,-11.421 -0.114,-12.339 -1.231,-13.354 -2.024,-14.46 -2.454,-9.759 -1.74,-4.671 0,0"
         style="fill:#9ada9b;fill-opacity:1;fill-rule:evenodd;stroke:none"
         transform="matrix(1.3333333,0,0,-1.3333333,777.48827,584.7096)"
         clip-path="url(#clipPath12)" />
      <path
         id="path13"
         d="m 0,0 c 3.56,-2.396 7.528,-2.801 10.063,2.578 0.985,2.089 1.708,4.384 2.693,6.55 3.44,7.257 1.978,4.054 1.198,-1.262 C 13.331,3.502 11.847,-4.647 15.14,-8.355 9.775,-7.316 4.338,-4.241 0,0"
         style="fill:#9ada9b;fill-opacity:1;fill-rule:evenodd;stroke:none"
         transform="matrix(1.3333333,0,0,-1.3333333,745.81773,530.7852)"
         clip-path="url(#clipPath14)" />
      <path
         id="path15"
         d="M 0,0 C 0.214,-0.017 0.425,-0.034 0.637,-0.055 0.608,0.147 0.595,0.349 0.595,0.551 c 0,4.757 7.649,8.049 17.084,7.348 4.969,-0.369 9.44,-1.77 12.562,-3.711 3.666,1.144 8.529,1.646 13.861,1.249 11.415,-0.845 20.67,-5.477 20.67,-10.344 0,-1.436 -0.807,-2.731 -2.235,-3.822 2.613,-0.789 4.715,-1.809 6.008,-2.932 11.385,-1.259 20.293,-5.601 20.293,-10.082 0,-4.759 -10.044,-7.871 -22.433,-6.951 -12.326,0.913 -22.329,5.475 -22.43,10.209 -3.929,-1.132 -9.432,-1.608 -15.527,-1.157 -8.632,0.642 -16.082,2.969 -19.545,5.79 -2.429,-0.861 -5.527,-1.255 -8.903,-1.003 -7.793,0.579 -14.111,4.372 -14.111,8.474 0,4.102 6.318,6.96 14.111,6.381"
         style="fill:#9ada9b;fill-opacity:1;fill-rule:evenodd;stroke:none"
         transform="matrix(1.3333333,0,0,-1.3333333,727.97133,498.86853)"
         clip-path="url(#clipPath16)" />
      <path
         id="path17"
         d="m 0,0 c 3.139,0 5.684,-0.915 5.684,-2.045 0,-1.127 -2.545,-2.041 -5.684,-2.041 -3.104,0 -5.627,0.896 -5.681,2.005 -0.539,-0.049 -1.097,-0.075 -1.67,-0.075 -4.286,0 -7.76,1.44 -7.76,3.216 0,1.776 3.474,3.215 7.76,3.215 4.286,0 7.76,-1.439 7.76,-3.215 C 0.409,0.687 0.256,0.331 -0.024,0 Z m 14.41,-2.156 c 2.236,0 4.05,-0.796 4.05,-1.781 0,-0.986 -1.814,-1.783 -4.05,-1.783 -2.234,0 -4.048,0.797 -4.048,1.783 0,0.985 1.814,1.781 4.048,1.781 M -13.072,17.9 c 1.785,0 3.23,-0.633 3.23,-1.411 0,-0.78 -1.445,-1.412 -3.23,-1.412 -1.785,0 -3.231,0.632 -3.231,1.412 0,0.778 1.446,1.411 3.231,1.411 m -53.369,-5.572 c 2.215,0 4.01,-0.93 4.01,-2.079 0,-1.149 -1.795,-2.081 -4.01,-2.081 -2.215,0 -4.012,0.932 -4.012,2.081 0,1.149 1.797,2.079 4.012,2.079 m 21.651,2.229 c 0.992,0 1.946,-0.052 2.842,-0.149 2.039,1.407 6.369,2.377 11.383,2.377 6.973,0 12.628,-1.877 12.628,-4.196 0,-2.037 -4.368,-3.736 -10.158,-4.116 0.512,-0.455 0.798,-0.958 0.798,-1.491 0,-1.97 -3.908,-3.565 -8.728,-3.565 -4.82,0 -8.729,1.595 -8.729,3.565 0,0.476 0.231,0.928 0.646,1.343 -0.226,-0.004 -0.452,-0.008 -0.682,-0.008 -5.106,0 -9.247,1.398 -9.247,3.121 0,1.723 4.141,3.119 9.247,3.119"
         style="fill:#9ada9b;fill-opacity:1;fill-rule:evenodd;stroke:none"
         transform="matrix(1.3333333,0,0,-1.3333333,813.5912,522.13147)"
         clip-path="url(#clipPath18)" />
      <path
         id="path19"
         d="m 0,0 c 3.842,-0.383 7.248,-1.69 9.372,-3.386 0.23,-0.016 0.464,-0.037 0.698,-0.058 6.849,-0.689 12.401,-4.067 12.401,-7.551 0,-1.055 -0.512,-1.999 -1.413,-2.783 1.213,-0.852 1.965,-1.933 1.965,-3.048 0,-2.225 -2.995,-3.727 -6.689,-3.358 -2.363,0.239 -4.441,1.182 -5.631,2.416 -1.781,-0.766 -4.279,-1.105 -7.047,-0.827 -5.412,0.541 -9.803,3.236 -9.803,6.014 0,0.645 0.236,1.234 0.664,1.759 -3.675,1.384 -6.175,3.64 -6.175,5.95 0,3.335 5.221,5.517 11.658,4.872"
         style="fill:#9ada9b;fill-opacity:1;fill-rule:evenodd;stroke:none"
         transform="matrix(1.3333333,0,0,-1.3333333,800.71613,549.95707)"
         clip-path="url(#clipPath20)" />
      <path
         id="path21"
         d="m 0,0 c 1.946,0 3.523,-0.878 3.523,-1.963 0,-1.081 -1.577,-1.96 -3.523,-1.96 -1.945,0 -3.524,0.879 -3.524,1.96 C -3.524,-0.878 -1.945,0 0,0 m -13.064,8.478 c 2.489,0 4.505,-0.783 4.505,-1.748 0,-0.178 -0.068,-0.347 -0.193,-0.508 2.692,-0.197 4.751,-1.259 4.751,-2.539 0,-1.42 -2.526,-2.57 -5.645,-2.57 -3.116,0 -5.642,1.15 -5.642,2.57 0,0.506 0.322,0.979 0.879,1.377 -1.831,0.221 -3.158,0.887 -3.158,1.67 0,0.965 2.016,1.748 4.503,1.748"
         style="fill:#9ada9b;fill-opacity:1;fill-rule:evenodd;stroke:none"
         transform="matrix(1.3333333,0,0,-1.3333333,821.0312,566.31387)"
         clip-path="url(#clipPath22)" />
      <path
         id="path23"
         d="m 0,0 c 2.789,-0.278 5.264,-1.227 6.807,-2.461 0.169,-0.012 0.336,-0.025 0.507,-0.044 4.974,-0.496 9.007,-2.952 9.007,-5.481 0,-0.767 -0.371,-1.452 -1.026,-2.021 0.884,-0.619 1.428,-1.406 1.428,-2.215 0,-1.617 -2.176,-2.708 -4.859,-2.44 -1.716,0.174 -3.226,0.859 -4.09,1.755 -1.295,-0.557 -3.109,-0.803 -5.118,-0.601 -3.932,0.395 -7.121,2.352 -7.121,4.37 0,0.466 0.169,0.898 0.48,1.277 -2.668,1.004 -4.486,2.643 -4.486,4.32 0,2.424 3.794,4.009 8.471,3.541"
         style="fill:#9ada9b;fill-opacity:1;fill-rule:evenodd;stroke:none"
         transform="matrix(1.3333333,0,0,-1.3333333,735.5352,576.41147)"
         clip-path="url(#clipPath24)" />
      <path
         id="path25"
         d="M 0,0 C 1.416,0 2.561,-0.64 2.561,-1.424 2.561,-2.212 1.416,-2.85 0,-2.85 c -1.413,0 -2.559,0.638 -2.559,1.426 C -2.559,-0.64 -1.413,0 0,0 m -9.488,6.159 c 1.806,0 3.273,-0.568 3.273,-1.27 0,-0.129 -0.051,-0.252 -0.141,-0.369 1.956,-0.142 3.451,-0.915 3.451,-1.844 0,-1.032 -1.836,-1.867 -4.099,-1.867 -2.265,0 -4.1,0.835 -4.1,1.867 0,0.367 0.234,0.71 0.637,1.001 -1.329,0.161 -2.293,0.643 -2.293,1.212 0,0.702 1.465,1.27 3.272,1.27"
         style="fill:#9ada9b;fill-opacity:1;fill-rule:evenodd;stroke:none"
         transform="matrix(1.3333333,0,0,-1.3333333,750.28907,588.29427)"
         clip-path="url(#clipPath26)" />
      <path
         id="path27"
         d="m 0,0 c -4.118,1.482 -7.066,4.09 -7.066,6.574 0,2.651 3.343,4.321 7.891,4.224 0.99,2.831 6.956,4.141 14.17,2.94 5.326,-0.883 9.975,-2.912 12.439,-5.187 1.041,0.068 2.168,0.015 3.346,-0.182 5.199,-0.865 9.414,-4.134 9.414,-7.303 0,-2.215 -2.061,-3.793 -5.078,-4.247 0.114,-0.373 0.175,-0.744 0.175,-1.115 0,-3.599 -5.685,-5.574 -12.697,-4.408 -2.454,0.409 -4.743,1.147 -6.686,2.089 -1.655,-0.981 -4.128,-1.367 -6.895,-0.907 -4.981,0.826 -9.021,4.089 -9.021,7.284 0,0.081 0.004,0.159 0.008,0.238"
         style="fill:#9ada9b;fill-opacity:1;fill-rule:evenodd;stroke:none"
         transform="matrix(1.3333333,0,0,-1.3333333,458.61853,572.00133)"
         clip-path="url(#clipPath28)" />
      <path
         id="path29"
         d="m 0,0 c -5.674,2.039 -9.732,5.629 -9.732,9.05 0,3.645 4.607,5.949 10.865,5.816 1.361,3.896 9.576,5.699 19.506,4.049 7.333,-1.222 13.732,-4.013 17.125,-7.143 1.431,0.095 2.984,0.018 4.608,-0.252 7.155,-1.19 12.957,-5.689 12.957,-10.051 0,-3.05 -2.837,-5.222 -6.99,-5.847 0.16,-0.513 0.24,-1.024 0.24,-1.535 0,-4.957 -7.825,-7.674 -17.479,-6.068 -3.376,0.56 -6.53,1.579 -9.203,2.876 -2.278,-1.352 -5.684,-1.884 -9.491,-1.25 -6.858,1.141 -12.419,5.63 -12.419,10.027 0,0.11 0.007,0.222 0.013,0.328"
         style="fill:#9ada9b;fill-opacity:1;fill-rule:evenodd;stroke:none"
         transform="matrix(1.3333333,0,0,-1.3333333,534.9896,546.3516)"
         clip-path="url(#clipPath30)" />
      <path
         id="path31"
         d="m 0,0 c 4.108,-0.305 7.958,-1.003 11.282,-1.969 2.176,2.424 7.394,3.857 13.484,3.405 4.996,-0.371 9.406,-1.922 12.03,-3.986 4.476,1.013 10.158,1.394 16.348,0.937 14.42,-1.07 26.109,-6.301 26.109,-11.682 0,-1.776 -1.277,-3.348 -3.506,-4.618 3.153,-1.66 5.113,-3.796 5.113,-6.002 0,-4.336 -7.581,-7.288 -16.932,-6.595 -4.955,0.367 -9.412,1.687 -12.508,3.489 -4.822,-1.839 -12.174,-2.698 -20.412,-2.087 -14.523,1.079 -26.297,6.314 -26.297,11.695 0,0.053 0.003,0.105 0.005,0.157 -1.521,-0.008 -3.098,0.045 -4.716,0.164 -12.529,0.93 -22.686,5.507 -22.686,10.229 0,4.72 10.157,7.791 22.686,6.863"
         style="fill:#9ada9b;fill-opacity:1;fill-rule:evenodd;stroke:none"
         transform="matrix(1.3333333,0,0,-1.3333333,476.49213,471.87893)"
         clip-path="url(#clipPath32)" />
      <path
         id="path33"
         d="m 0,0 c 6.042,0.057 8.156,3.543 10.164,8.793 2.463,7.023 7.047,23.6 2.94,30.4 -3.171,5.252 -7.64,6.894 -10.641,14.191 -2.883,7.002 -2.431,21.655 -2.259,29.27 0.657,-8.215 0.863,-28.49 11.768,-30.553 5.546,-0.614 6.814,3.574 7.762,8.196 1.406,6.788 3.144,12.625 4.824,19.24 3.648,14.75 0.298,17.715 -4.026,31.316 -2.579,8.111 -6.269,11.81 -12.472,17.509 -5.252,4.79 -10.211,10.984 -12.481,17.768 -1.524,4.557 4.341,-5.163 4.532,-5.434 4.901,-6.959 14.722,-14.825 19.883,-3.88 1.255,2.663 2.174,5.582 3.431,8.342 4.38,9.244 2.516,5.164 1.522,-1.605 -1.075,-7.543 -4.175,-23.964 8.655,-23.078 6.182,0.425 11.08,4.875 15.238,8.93 3.892,3.797 -1.311,-2.506 -1.783,-3.017 -4.037,-4.367 -6.637,-6.319 -11.106,-9.977 -9.356,-7.66 -1.698,-14.016 -0.101,-23.58 0.293,-2.19 0.369,-4.599 0.569,-6.824 0.591,-6.38 4.392,-8.662 10.355,-7.017 8.316,2.295 13.182,11.603 19.414,16.766 C 66.087,94.848 56.346,80.257 54.999,78.609 49.79,72.23 45.845,71.309 39.288,67.484 31.514,62.951 32.464,56.598 32.547,48.418 32.653,37.919 34.779,6.115 56.203,0 Z"
         style="fill:#9ada9b;fill-opacity:1;fill-rule:evenodd;stroke:none"
         transform="matrix(1.3333333,0,0,-1.3333333,479.78387,670.5912)"
         clip-path="url(#clipPath34)" />
      <path
         id="path35"
         d="M 0,0 C 1.59,-3.287 4.855,-4.277 9.346,-3.037 17.661,-0.742 22.527,8.565 28.759,13.729 28.658,12.82 18.917,-1.771 17.57,-3.418 12.361,-9.798 8.416,-10.719 1.859,-14.543 c -2.006,-1.17 -3.43,-2.46 -4.438,-3.872 C -3.128,-12.425 -2.216,-5.947 0,0"
         style="fill:#9ada9b;fill-opacity:1;fill-rule:evenodd;stroke:none"
         transform="matrix(1.3333333,0,0,-1.3333333,529.6888,561.22133)"
         clip-path="url(#clipPath36)" />
      <path
         id="path37"
         d="m 0,0 c 4.531,-3.052 9.586,-3.567 12.814,3.281 1.255,2.662 2.174,5.582 3.431,8.342 4.38,9.244 2.517,5.164 1.523,-1.605 C 16.975,4.459 15.085,-5.919 19.278,-10.643 12.447,-9.319 5.522,-5.402 0,0"
         style="fill:#9ada9b;fill-opacity:1;fill-rule:evenodd;stroke:none"
         transform="matrix(1.3333333,0,0,-1.3333333,489.3568,492.54427)"
         clip-path="url(#clipPath38)" />
      <path
         id="path39"
         d="m 0,0 c 0.272,-0.021 0.543,-0.045 0.811,-0.068 -0.035,0.253 -0.052,0.511 -0.052,0.77 0,6.058 9.74,10.249 21.757,9.358 6.326,-0.469 12.021,-2.255 15.996,-4.724 4.671,1.456 10.862,2.094 17.655,1.59 14.536,-1.079 26.32,-6.979 26.32,-13.174 0,-1.827 -1.026,-3.477 -2.843,-4.868 3.328,-1.005 6.003,-2.304 7.652,-3.734 14.498,-1.603 25.84,-7.132 25.84,-12.84 0,-6.058 -12.79,-10.024 -28.568,-8.854 -15.698,1.166 -28.437,6.975 -28.564,13.002 -5.004,-1.437 -12.013,-2.047 -19.773,-1.47 -10.995,0.815 -20.482,3.78 -24.892,7.373 C 8.245,-18.735 4.3,-19.238 0,-18.917 -9.926,-18.184 -17.973,-13.351 -17.973,-8.128 -17.973,-2.9 -9.926,0.738 0,0"
         style="fill:#9ada9b;fill-opacity:1;fill-rule:evenodd;stroke:none"
         transform="matrix(1.3333333,0,0,-1.3333333,466.62627,451.89973)"
         clip-path="url(#clipPath40)" />
      <path
         id="path41"
         d="m 0,0 c 3.997,0 7.236,-1.166 7.236,-2.602 0,-1.435 -3.239,-2.601 -7.236,-2.601 -3.952,0 -7.165,1.142 -7.233,2.558 -0.687,-0.066 -1.399,-0.098 -2.128,-0.098 -5.457,0 -9.882,1.834 -9.882,4.095 0,2.262 4.425,4.093 9.882,4.093 5.459,0 9.881,-1.831 9.881,-4.093 C 0.52,0.879 0.327,0.424 -0.03,0 Z m 18.353,-2.743 c 2.847,0 5.155,-1.016 5.155,-2.271 0,-1.255 -2.308,-2.27 -5.155,-2.27 -2.848,0 -5.155,1.015 -5.155,2.27 0,1.255 2.307,2.271 5.155,2.271 m -35.001,25.54 c 2.273,0 4.114,-0.805 4.114,-1.797 0,-0.994 -1.841,-1.797 -4.114,-1.797 -2.273,0 -4.115,0.803 -4.115,1.797 0,0.992 1.842,1.797 4.115,1.797 m -67.966,-7.095 c 2.821,0 5.108,-1.185 5.108,-2.647 0,-1.463 -2.287,-2.649 -5.108,-2.649 -2.82,0 -5.107,1.186 -5.107,2.649 0,1.462 2.287,2.647 5.107,2.647 m 27.574,2.84 c 1.261,0 2.477,-0.068 3.616,-0.193 2.598,1.793 8.113,3.029 14.499,3.029 8.882,0 16.081,-2.393 16.081,-5.345 0,-2.594 -5.561,-4.756 -12.937,-5.241 0.653,-0.579 1.018,-1.221 1.018,-1.9 0,-2.507 -4.977,-4.539 -11.116,-4.539 -6.137,0 -11.114,2.032 -11.114,4.539 0,0.607 0.293,1.183 0.818,1.714 -0.284,-0.008 -0.574,-0.01 -0.865,-0.01 -6.506,0 -11.777,1.779 -11.777,3.973 0,2.195 5.271,3.973 11.777,3.973"
         style="fill:#9ada9b;fill-opacity:1;fill-rule:evenodd;stroke:none"
         transform="matrix(1.3333333,0,0,-1.3333333,575.66533,481.52733)"
         clip-path="url(#clipPath42)" />
      <path
         id="path43"
         d="m 0,0 c 4.891,-0.489 9.23,-2.151 11.936,-4.314 0.292,-0.02 0.588,-0.043 0.886,-0.076 8.721,-0.872 15.793,-5.175 15.793,-9.612 0,-1.343 -0.65,-2.545 -1.799,-3.545 1.545,-1.083 2.501,-2.463 2.501,-3.881 0,-2.833 -3.811,-4.747 -8.516,-4.275 -3.011,0.301 -5.656,1.505 -7.172,3.077 -2.269,-0.978 -5.451,-1.409 -8.973,-1.057 -6.894,0.691 -12.485,4.122 -12.485,7.662 0,0.819 0.299,1.572 0.845,2.237 -4.681,1.762 -7.864,4.637 -7.864,7.577 C -14.848,-1.958 -8.2,0.821 0,0"
         style="fill:#9ada9b;fill-opacity:1;fill-rule:evenodd;stroke:none"
         transform="matrix(1.3333333,0,0,-1.3333333,559.2708,516.96093)"
         clip-path="url(#clipPath44)" />
      <path
         id="path45"
         d="m 0,0 c 2.479,0 4.487,-1.117 4.487,-2.497 0,-1.38 -2.008,-2.497 -4.487,-2.497 -2.478,0 -4.489,1.117 -4.489,2.497 C -4.489,-1.117 -2.478,0 0,0 m -16.639,10.798 c 3.169,0 5.739,-0.997 5.739,-2.227 0,-0.226 -0.087,-0.444 -0.248,-0.649 3.43,-0.248 6.051,-1.602 6.051,-3.232 0,-1.808 -3.218,-3.275 -7.187,-3.275 -3.969,0 -7.188,1.467 -7.188,3.275 0,0.646 0.412,1.247 1.119,1.755 -2.329,0.283 -4.021,1.125 -4.021,2.126 0,1.23 2.569,2.227 5.735,2.227"
         style="fill:#9ada9b;fill-opacity:1;fill-rule:evenodd;stroke:none"
         transform="matrix(1.3333333,0,0,-1.3333333,585.14187,537.7916)"
         clip-path="url(#clipPath46)" />
      <path
         id="path47"
         d="m 0,0 c 3.553,-0.354 6.705,-1.562 8.67,-3.134 0.214,-0.014 0.428,-0.032 0.646,-0.054 6.334,-0.635 11.47,-3.761 11.47,-6.985 0,-0.975 -0.471,-1.848 -1.306,-2.573 1.123,-0.786 1.817,-1.791 1.817,-2.819 0,-2.059 -2.77,-3.449 -6.188,-3.106 -2.186,0.218 -4.108,1.093 -5.207,2.235 -1.65,-0.71 -3.961,-1.025 -6.52,-0.767 -5.008,0.5 -9.069,2.993 -9.069,5.566 0,0.593 0.217,1.142 0.613,1.624 -3.399,1.281 -5.712,3.368 -5.712,5.503 0,3.088 4.828,5.107 10.786,4.51"
         style="fill:#9ada9b;fill-opacity:1;fill-rule:evenodd;stroke:none"
         transform="matrix(1.3333333,0,0,-1.3333333,476.25907,550.65107)"
         clip-path="url(#clipPath48)" />
      <path
         id="path49"
         d="m 0,0 c 1.801,0 3.259,-0.812 3.259,-1.814 0,-1.001 -1.458,-1.812 -3.259,-1.812 -1.801,0 -3.261,0.811 -3.261,1.812 C -3.261,-0.812 -1.801,0 0,0 m -12.084,7.846 c 2.301,0 4.166,-0.727 4.166,-1.619 0,-0.165 -0.062,-0.322 -0.18,-0.471 2.491,-0.181 4.397,-1.161 4.397,-2.347 0,-1.315 -2.339,-2.38 -5.221,-2.38 -2.884,0 -5.222,1.065 -5.222,2.38 0,0.468 0.299,0.906 0.813,1.275 -1.691,0.205 -2.92,0.818 -2.92,1.543 0,0.892 1.865,1.619 4.167,1.619"
         style="fill:#9ada9b;fill-opacity:1;fill-rule:evenodd;stroke:none"
         transform="matrix(1.3333333,0,0,-1.3333333,495.05213,565.7852)"
         clip-path="url(#clipPath50)" />
      <path
         id="path51"
         d="m 0,0 c -5.64,2.029 -9.674,5.595 -9.674,8.999 0,3.624 4.579,5.913 10.8,5.782 1.355,3.874 9.521,5.665 19.395,4.024 7.291,-1.212 13.652,-3.99 17.026,-7.099 1.423,0.093 2.965,0.016 4.579,-0.251 7.115,-1.185 12.883,-5.658 12.883,-9.994 0,-3.031 -2.821,-5.191 -6.949,-5.813 0.157,-0.51 0.239,-1.02 0.239,-1.524 0,-4.93 -7.78,-7.632 -17.379,-6.034 -3.358,0.558 -6.492,1.568 -9.15,2.857 -2.263,-1.343 -5.65,-1.874 -9.436,-1.244 -6.818,1.135 -12.345,5.599 -12.345,9.973 0,0.108 0.005,0.218 0.011,0.324"
         style="fill:#9ada9b;fill-opacity:1;fill-rule:evenodd;stroke:none"
         transform="matrix(1.3333333,0,0,-1.3333333,224.71613,535.6576)"
         clip-path="url(#clipPath52)" />
      <path
         id="path53"
         d="m 0,0 c -7.765,2.791 -13.317,7.702 -13.317,12.387 0,4.989 6.302,8.139 14.869,7.958 1.864,5.333 13.106,7.801 26.697,5.542 10.039,-1.67 18.794,-5.494 23.438,-9.777 1.96,0.129 4.084,0.026 6.305,-0.343 9.795,-1.629 17.735,-7.788 17.735,-13.758 0,-4.173 -3.884,-7.148 -9.568,-8.003 0.219,-0.701 0.331,-1.403 0.331,-2.099 0,-6.787 -10.711,-10.504 -23.923,-8.307 -4.622,0.77 -8.938,2.162 -12.596,3.936 -3.118,-1.85 -7.781,-2.577 -12.992,-1.712 -9.386,1.562 -16.994,7.706 -16.994,13.727 0,0.15 0.006,0.3 0.015,0.449"
         style="fill:#9ada9b;fill-opacity:1;fill-rule:evenodd;stroke:none"
         transform="matrix(1.3333333,0,0,-1.3333333,329.2376,500.54947)"
         clip-path="url(#clipPath54)" />
      <path
         id="path55"
         d="m 0,0 c 5.621,-0.418 10.893,-1.371 15.44,-2.692 2.978,3.317 10.118,5.277 18.454,4.659 6.839,-0.507 12.875,-2.633 16.465,-5.454 6.124,1.383 13.903,1.907 22.375,1.278 19.734,-1.463 35.733,-8.621 35.733,-15.985 0,-2.433 -1.749,-4.585 -4.798,-6.322 4.318,-2.273 6.998,-5.196 6.998,-8.212 0,-5.935 -10.374,-9.977 -23.174,-9.026 -6.783,0.501 -12.881,2.306 -17.12,4.771 -6.599,-2.517 -16.661,-3.69 -27.934,-2.853 -19.878,1.473 -35.992,8.639 -35.992,16.004 0,0.071 0.004,0.143 0.007,0.216 -2.083,-0.012 -4.241,0.06 -6.454,0.226 -17.148,1.27 -31.049,7.538 -31.049,13.997 0,6.459 13.901,10.665 31.049,9.393"
         style="fill:#9ada9b;fill-opacity:1;fill-rule:evenodd;stroke:none"
         transform="matrix(1.3333333,0,0,-1.3333333,249.17773,398.6256)"
         clip-path="url(#clipPath56)" />
      <path
         id="path57"
         d="m 0,0 c 8.271,0.076 11.164,4.849 13.914,12.032 3.369,9.614 9.642,32.302 4.022,41.608 -4.341,7.187 -10.457,9.438 -14.566,19.423 -3.943,9.582 -3.326,29.642 -3.09,40.061 0.9,-11.246 1.181,-38.992 16.105,-41.817 7.59,-0.839 9.328,4.892 10.623,11.218 1.925,9.289 4.304,17.28 6.605,26.331 4.993,20.192 0.408,24.246 -5.51,42.86 -3.53,11.104 -8.583,16.167 -17.07,23.965 -7.19,6.557 -13.978,15.035 -17.083,24.321 -2.085,6.235 5.941,-7.067 6.202,-7.439 6.707,-9.524 20.152,-20.29 27.213,-5.31 1.719,3.642 2.977,7.642 4.696,11.417 5.994,12.651 3.445,7.068 2.085,-2.197 -1.474,-10.323 -5.714,-32.797 11.842,-31.585 8.465,0.583 15.165,6.671 20.858,12.223 5.329,5.195 -1.795,-3.432 -2.44,-4.13 -5.525,-5.978 -9.085,-8.648 -15.202,-13.654 -12.805,-10.482 -2.323,-19.185 -0.137,-32.275 0.4,-2.997 0.505,-6.293 0.777,-9.342 0.811,-8.729 6.013,-11.853 14.175,-9.6 11.378,3.142 18.04,15.88 26.568,22.943 C 90.451,129.814 77.12,109.843 75.276,107.586 68.145,98.857 62.746,97.595 53.772,92.363 43.131,86.155 44.433,77.464 44.547,66.267 44.692,51.896 47.601,8.369 76.922,0 Z"
         style="fill:#9ada9b;fill-opacity:1;fill-rule:evenodd;stroke:none"
         transform="matrix(1.3333333,0,0,-1.3333333,253.6804,670.5912)"
         clip-path="url(#clipPath58)" />
      <path
         id="path59"
         d="m 0,0 c 2.178,-4.499 6.645,-5.854 12.792,-4.156 11.379,3.141 18.04,15.88 26.569,22.942 C 39.224,17.548 25.893,-2.424 24.05,-4.681 16.919,-13.409 11.52,-14.672 2.545,-19.903 c -2.746,-1.602 -4.694,-3.368 -6.074,-5.3 C -4.279,-17.008 -3.032,-8.14 0,0"
         style="fill:#9ada9b;fill-opacity:1;fill-rule:evenodd;stroke:none"
         transform="matrix(1.3333333,0,0,-1.3333333,321.9824,520.9024)"
         clip-path="url(#clipPath60)" />
      <path
         id="path61"
         d="m 0,0 c 6.204,-4.175 13.122,-4.883 17.54,4.491 1.718,3.642 2.978,7.642 4.695,11.417 5.994,12.651 3.445,7.068 2.085,-2.197 C 23.235,6.104 20.647,-8.1 26.386,-14.565 17.037,-12.754 7.56,-7.393 0,0"
         style="fill:#9ada9b;fill-opacity:1;fill-rule:evenodd;stroke:none"
         transform="matrix(1.3333333,0,0,-1.3333333,266.7812,426.90827)"
         clip-path="url(#clipPath62)" />
      <path
         id="path63"
         d="m 0,0 c 0.372,-0.028 0.741,-0.061 1.109,-0.097 -0.047,0.35 -0.073,0.702 -0.073,1.054 0,8.295 13.331,14.03 29.777,12.81 8.66,-0.642 16.455,-3.084 21.895,-6.465 6.392,1.991 14.866,2.865 24.164,2.175 19.895,-1.476 36.025,-9.549 36.025,-18.03 0,-2.502 -1.406,-4.759 -3.893,-6.661 4.554,-1.375 8.217,-3.154 10.471,-5.111 19.843,-2.194 35.368,-9.762 35.368,-17.573 0,-8.294 -17.506,-13.719 -39.099,-12.118 -21.486,1.594 -38.923,9.544 -39.096,17.795 -6.848,-1.971 -16.441,-2.8 -27.062,-2.012 -15.047,1.116 -28.032,5.172 -34.069,10.089 -4.233,-1.499 -9.633,-2.187 -15.517,-1.75 -13.586,1.008 -24.599,7.621 -24.599,14.771 0,7.15 11.013,12.129 24.599,11.123"
         style="fill:#9ada9b;fill-opacity:1;fill-rule:evenodd;stroke:none"
         transform="matrix(1.3333333,0,0,-1.3333333,235.67507,371.278)"
         clip-path="url(#clipPath64)" />
      <path
         id="path65"
         d="m 0,0 c 5.471,0 9.904,-1.595 9.904,-3.56 0,-1.967 -4.433,-3.561 -9.904,-3.561 -5.411,0 -9.808,1.56 -9.9,3.497 -0.94,-0.085 -1.913,-0.13 -2.913,-0.13 -7.47,0 -13.526,2.509 -13.526,5.604 0,3.094 6.056,5.604 13.526,5.604 7.47,0 13.525,-2.51 13.525,-5.604 C 0.712,1.202 0.445,0.58 -0.042,0 Z m 25.116,-3.754 c 3.899,0 7.057,-1.391 7.057,-3.107 0,-1.717 -3.158,-3.107 -7.057,-3.107 -3.896,0 -7.056,1.39 -7.056,3.107 0,1.716 3.16,3.107 7.056,3.107 m -47.904,34.956 c 3.11,0 5.633,-1.101 5.633,-2.46 0,-1.359 -2.523,-2.46 -5.633,-2.46 -3.109,0 -5.63,1.101 -5.63,2.46 0,1.359 2.521,2.46 5.63,2.46 m -93.02,-9.711 c 3.861,0 6.992,-1.622 6.992,-3.625 0,-2.001 -3.131,-3.625 -6.992,-3.625 -3.861,0 -6.991,1.624 -6.991,3.625 0,2.003 3.13,3.625 6.991,3.625 m 37.739,3.884 c 1.728,0 3.391,-0.091 4.951,-0.261 3.554,2.453 11.103,4.146 19.842,4.146 12.155,0 22.01,-3.276 22.01,-7.315 0,-3.55 -7.611,-6.51 -17.706,-7.175 0.893,-0.791 1.392,-1.671 1.392,-2.599 0,-3.433 -6.81,-6.215 -15.212,-6.215 -8.4,0 -15.212,2.782 -15.212,6.215 0,0.828 0.399,1.621 1.121,2.344 -0.391,-0.01 -0.786,-0.015 -1.186,-0.015 -8.902,0 -16.118,2.436 -16.118,5.439 0,3.002 7.216,5.436 16.118,5.436"
         style="fill:#9ada9b;fill-opacity:1;fill-rule:evenodd;stroke:none"
         transform="matrix(1.3333333,0,0,-1.3333333,384.9108,411.82947)"
         clip-path="url(#clipPath66)" />
      <path
         id="path67"
         d="m 0,0 c 6.696,-0.672 12.633,-2.944 16.336,-5.903 0.401,-0.029 0.807,-0.065 1.214,-0.105 11.937,-1.194 21.614,-7.087 21.614,-13.157 0,-1.84 -0.89,-3.485 -2.463,-4.851 2.117,-1.482 3.427,-3.372 3.427,-5.314 0,-3.876 -5.222,-6.496 -11.659,-5.851 -4.119,0.414 -7.741,2.062 -9.814,4.213 -3.106,-1.339 -7.462,-1.928 -12.282,-1.447 -9.438,0.947 -17.088,5.643 -17.088,10.486 0,1.122 0.409,2.153 1.156,3.062 -6.405,2.414 -10.762,6.346 -10.762,10.37 0,5.816 9.098,9.62 20.321,8.497"
         style="fill:#9ada9b;fill-opacity:1;fill-rule:evenodd;stroke:none"
         transform="matrix(1.3333333,0,0,-1.3333333,362.47067,460.32427)"
         clip-path="url(#clipPath68)" />
      <path
         id="path69"
         d="m 0,0 c 3.392,0 6.141,-1.531 6.141,-3.417 0,-1.888 -2.749,-3.418 -6.141,-3.418 -3.392,0 -6.143,1.53 -6.143,3.418 C -6.143,-1.531 -3.392,0 0,0 m -22.771,14.78 c 4.336,0 7.851,-1.365 7.851,-3.049 0,-0.308 -0.117,-0.605 -0.339,-0.887 4.695,-0.339 8.283,-2.191 8.283,-4.425 0,-2.473 -4.402,-4.48 -9.836,-4.48 -5.433,0 -9.837,2.007 -9.837,4.48 0,0.884 0.56,1.71 1.532,2.404 -3.19,0.387 -5.506,1.543 -5.506,2.908 0,1.684 3.518,3.049 7.852,3.049"
         style="fill:#9ada9b;fill-opacity:1;fill-rule:evenodd;stroke:none"
         transform="matrix(1.3333333,0,0,-1.3333333,397.8796,488.83853)"
         clip-path="url(#clipPath70)" />
      <path
         id="path71"
         d="m 0,0 c 4.864,-0.485 9.177,-2.138 11.867,-4.285 0.291,-0.023 0.586,-0.047 0.882,-0.077 8.671,-0.869 15.701,-5.147 15.701,-9.557 0,-1.335 -0.647,-2.531 -1.788,-3.523 1.536,-1.078 2.488,-2.451 2.488,-3.861 0,-2.815 -3.792,-4.718 -8.469,-4.249 -2.993,0.299 -5.623,1.496 -7.129,3.058 -2.256,-0.973 -5.419,-1.401 -8.921,-1.049 -6.856,0.686 -12.413,4.098 -12.413,7.617 0,0.815 0.297,1.563 0.839,2.225 -4.652,1.752 -7.817,4.61 -7.817,7.532 0,4.226 6.608,6.988 14.76,6.169"
         style="fill:#9ada9b;fill-opacity:1;fill-rule:evenodd;stroke:none"
         transform="matrix(1.3333333,0,0,-1.3333333,248.85613,506.4388)"
         clip-path="url(#clipPath72)" />
      <path
         id="path73"
         d="m 0,0 c 2.463,0 4.462,-1.111 4.462,-2.482 0,-1.371 -1.999,-2.484 -4.462,-2.484 -2.464,0 -4.462,1.113 -4.462,2.484 C -4.462,-1.111 -2.464,0 0,0 m -16.54,10.736 c 3.15,0 5.703,-0.992 5.703,-2.214 0,-0.225 -0.086,-0.441 -0.246,-0.645 3.41,-0.246 6.017,-1.591 6.017,-3.215 0,-1.795 -3.2,-3.253 -7.146,-3.253 -3.947,0 -7.146,1.458 -7.146,3.253 0,0.644 0.409,1.242 1.112,1.747 -2.316,0.282 -3.998,1.121 -3.998,2.113 0,1.222 2.554,2.214 5.704,2.214"
         style="fill:#9ada9b;fill-opacity:1;fill-rule:evenodd;stroke:none"
         transform="matrix(1.3333333,0,0,-1.3333333,274.57813,527.1484)"
         clip-path="url(#clipPath74)" />
      <path
         id="path75"
         d="m 0,0 c -5.441,1.956 -9.331,5.397 -9.331,8.68 0,3.497 4.416,5.704 10.418,5.578 1.307,3.735 9.185,5.466 18.71,3.881 7.032,-1.17 13.169,-3.848 16.422,-6.849 1.374,0.091 2.862,0.016 4.419,-0.242 6.863,-1.142 12.427,-5.458 12.427,-9.641 0,-2.924 -2.72,-5.01 -6.704,-5.606 0.152,-0.492 0.232,-0.985 0.232,-1.472 0,-4.754 -7.506,-7.361 -16.765,-5.82 -3.239,0.54 -6.263,1.514 -8.825,2.759 -2.187,-1.297 -5.451,-1.808 -9.103,-1.201 -6.578,1.095 -11.91,5.401 -11.91,9.619 0,0.104 0.004,0.21 0.01,0.314"
         style="fill:#5bba69;fill-opacity:1;fill-rule:evenodd;stroke:none"
         transform="matrix(1.3333333,0,0,-1.3333333,599.5976,540.42707)"
         clip-path="url(#clipPath76)" />
      <path
         id="path77"
         d="m 0,0 c -7.49,2.692 -12.845,7.43 -12.845,11.947 0,4.817 6.079,7.856 14.342,7.68 1.799,5.144 12.643,7.525 25.754,5.345 9.682,-1.612 18.128,-5.298 22.609,-9.431 1.89,0.125 3.939,0.024 6.08,-0.33 9.45,-1.573 17.109,-7.515 17.109,-13.272 0,-4.026 -3.745,-6.896 -9.229,-7.72 0.21,-0.676 0.319,-1.354 0.319,-2.026 0,-6.544 -10.332,-10.132 -23.077,-8.012 -4.459,0.742 -8.623,2.086 -12.152,3.796 -3.007,-1.784 -7.504,-2.485 -12.53,-1.65 -9.055,1.504 -16.394,7.434 -16.394,13.241 0,0.146 0.006,0.291 0.014,0.432"
         style="fill:#5bba69;fill-opacity:1;fill-rule:evenodd;stroke:none"
         transform="matrix(1.3333333,0,0,-1.3333333,700.42453,506.56253)"
         clip-path="url(#clipPath78)" />
      <path
         id="path79"
         d="m 0,0 c 5.423,-0.402 10.509,-1.323 14.896,-2.597 2.872,3.199 9.761,5.092 17.799,4.495 6.599,-0.489 12.419,-2.539 15.884,-5.262 5.907,1.334 13.414,1.84 21.584,1.235 19.038,-1.413 34.47,-8.318 34.47,-15.421 0,-2.347 -1.686,-4.422 -4.628,-6.098 4.164,-2.192 6.752,-5.014 6.752,-7.922 0,-5.725 -10.01,-9.624 -22.356,-8.709 -6.543,0.485 -12.427,2.225 -16.515,4.605 -6.365,-2.428 -16.071,-3.56 -26.946,-2.753 -19.175,1.42 -34.72,8.333 -34.72,15.436 0,0.071 0.004,0.141 0.008,0.21 -2.011,-0.012 -4.092,0.058 -6.228,0.218 -16.542,1.226 -29.951,7.272 -29.951,13.502 0,6.232 13.409,10.289 29.951,9.061"
         style="fill:#5bba69;fill-opacity:1;fill-rule:evenodd;stroke:none"
         transform="matrix(1.3333333,0,0,-1.3333333,623.194,408.2416)"
         clip-path="url(#clipPath80)" />
      <path
         id="path81"
         d="m 0,0 c 7.978,0.076 10.77,4.679 13.422,11.608 3.249,9.274 9.301,31.16 3.88,40.136 C 13.115,58.676 7.214,60.848 3.251,70.482 -0.553,79.723 0.043,99.073 0.27,109.122 1.138,98.276 1.41,71.51 15.806,68.783 c 7.322,-0.806 8.999,4.722 10.249,10.826 1.855,8.958 4.15,16.666 6.371,25.399 4.813,19.478 0.392,23.387 -5.317,41.344 -3.406,10.712 -8.278,15.593 -16.466,23.118 -6.936,6.326 -13.485,14.502 -16.479,23.46 -2.011,6.016 5.731,-6.817 5.983,-7.174 6.47,-9.19 19.438,-19.573 26.25,-5.124 1.659,3.513 2.873,7.373 4.53,11.014 5.782,12.204 3.324,6.817 2.011,-2.12 -1.42,-9.957 -5.51,-31.636 11.424,-30.468 8.164,0.564 14.63,6.437 20.119,11.789 5.139,5.014 -1.732,-3.309 -2.353,-3.983 -5.33,-5.763 -8.765,-8.341 -14.663,-13.172 -12.354,-10.111 -2.241,-18.505 -0.134,-31.134 0.388,-2.89 0.488,-6.067 0.751,-9.009 0.782,-8.42 5.8,-11.435 13.673,-9.261 10.977,3.031 17.403,15.319 25.629,22.132 C 87.251,125.225 74.393,105.96 72.613,103.782 65.734,95.36 60.527,94.146 51.871,89.096 41.605,83.11 42.862,74.725 42.971,63.925 43.11,50.06 45.918,8.071 74.202,0 Z"
         style="fill:#5bba69;fill-opacity:1;fill-rule:evenodd;stroke:none"
         transform="matrix(1.3333333,0,0,-1.3333333,627.53907,670.5912)"
         clip-path="url(#clipPath82)" />
      <path
         id="path83"
         d="M 0,0 C 2.101,-4.343 6.411,-5.647 12.34,-4.012 23.317,-0.98 29.743,11.308 37.969,18.122 37.836,16.927 24.978,-2.338 23.198,-4.516 16.319,-12.936 11.112,-14.151 2.456,-19.202 -0.192,-20.747 -2.073,-22.449 -3.404,-24.314 -4.127,-16.406 -2.925,-7.852 0,0"
         style="fill:#5bba69;fill-opacity:1;fill-rule:evenodd;stroke:none"
         transform="matrix(1.3333333,0,0,-1.3333333,693.42573,526.194)"
         clip-path="url(#clipPath84)" />
      <path
         id="path85"
         d="m 0,0 c 5.984,-4.027 12.657,-4.708 16.919,4.332 1.658,3.513 2.872,7.373 4.529,11.014 5.782,12.203 3.324,6.818 2.011,-2.12 C 22.412,5.889 19.918,-7.813 25.454,-14.048 16.435,-12.304 7.293,-7.131 0,0"
         style="fill:#5bba69;fill-opacity:1;fill-rule:evenodd;stroke:none"
         transform="matrix(1.3333333,0,0,-1.3333333,640.17707,435.52413)"
         clip-path="url(#clipPath86)" />
      <path
         id="path87"
         d="m 0,0 c 0.359,-0.026 0.714,-0.058 1.069,-0.092 -0.045,0.338 -0.07,0.677 -0.07,1.018 0,8 12.86,13.533 28.725,12.356 8.353,-0.62 15.873,-2.976 21.121,-6.237 6.165,1.92 14.339,2.764 23.307,2.098 19.194,-1.424 34.751,-9.211 34.751,-17.392 0,-2.414 -1.353,-4.592 -3.754,-6.427 4.395,-1.325 7.926,-3.041 10.101,-4.929 19.143,-2.117 34.117,-9.417 34.117,-16.951 0,-8.002 -16.887,-13.236 -37.716,-11.691 -20.725,1.539 -37.546,9.207 -37.712,17.167 -6.607,-1.902 -15.86,-2.701 -26.107,-1.942 -14.515,1.077 -27.041,4.989 -32.863,9.733 -4.084,-1.446 -9.293,-2.109 -14.969,-1.688 -13.106,0.972 -23.729,7.351 -23.729,14.249 0,6.897 10.623,11.7 23.729,10.728"
         style="fill:#5bba69;fill-opacity:1;fill-rule:evenodd;stroke:none"
         transform="matrix(1.3333333,0,0,-1.3333333,610.17053,381.862)"
         clip-path="url(#clipPath88)" />
      <path
         id="path89"
         d="m 0,0 c 5.275,0 9.553,-1.538 9.553,-3.436 0,-1.895 -4.278,-3.432 -9.553,-3.432 -5.22,0 -9.461,1.505 -9.552,3.372 -0.905,-0.081 -1.845,-0.125 -2.809,-0.125 -7.206,0 -13.046,2.42 -13.046,5.405 0,2.986 5.84,5.406 13.046,5.406 C -5.155,7.19 0.687,4.77 0.687,1.784 0.687,1.159 0.429,0.559 -0.043,0 Z m 24.229,-3.621 c 3.759,0 6.806,-1.343 6.806,-2.997 0,-1.658 -3.047,-2.999 -6.806,-2.999 -3.759,0 -6.807,1.341 -6.807,2.999 0,1.654 3.048,2.997 6.807,2.997 m -46.21,33.719 c 3.001,0 5.433,-1.062 5.433,-2.372 0,-1.311 -2.432,-2.374 -5.433,-2.374 -3.001,0 -5.433,1.063 -5.433,2.374 0,1.31 2.432,2.372 5.433,2.372 m -89.734,-9.367 c 3.726,0 6.744,-1.564 6.744,-3.497 0,-1.931 -3.018,-3.497 -6.744,-3.497 -3.724,0 -6.744,1.566 -6.744,3.497 0,1.933 3.02,3.497 6.744,3.497 m 36.407,3.747 c 1.665,0 3.271,-0.088 4.776,-0.251 3.427,2.365 10.709,3.999 19.138,3.999 11.726,0 21.233,-3.16 21.233,-7.057 0,-3.424 -7.341,-6.279 -17.08,-6.92 0.861,-0.764 1.344,-1.614 1.344,-2.509 0,-3.311 -6.572,-5.995 -14.674,-5.995 -8.106,0 -14.674,2.684 -14.674,5.995 0,0.799 0.383,1.564 1.081,2.262 -0.378,-0.009 -0.761,-0.015 -1.144,-0.015 -8.588,0 -15.549,2.349 -15.549,5.246 0,2.898 6.961,5.245 15.549,5.245"
         style="fill:#5bba69;fill-opacity:1;fill-rule:evenodd;stroke:none"
         transform="matrix(1.3333333,0,0,-1.3333333,754.13027,420.97787)"
         clip-path="url(#clipPath90)" />
      <path
         id="path91"
         d="m 0,0 c 6.458,-0.647 12.186,-2.84 15.757,-5.693 0.387,-0.029 0.778,-0.063 1.172,-0.102 11.515,-1.153 20.848,-6.834 20.848,-12.691 0,-1.775 -0.856,-3.362 -2.373,-4.681 2.041,-1.43 3.304,-3.251 3.304,-5.124 0,-3.739 -5.034,-6.269 -11.246,-5.646 -3.973,0.398 -7.466,1.989 -9.467,4.065 -2.996,-1.291 -7.197,-1.861 -11.848,-1.397 -9.104,0.912 -16.483,5.442 -16.483,10.117 0,1.081 0.396,2.075 1.113,2.953 -6.177,2.329 -10.38,6.122 -10.38,10.005 0,5.61 8.777,9.279 19.603,8.194"
         style="fill:#5bba69;fill-opacity:1;fill-rule:evenodd;stroke:none"
         transform="matrix(1.3333333,0,0,-1.3333333,732.48307,467.75907)"
         clip-path="url(#clipPath92)" />
      <path
         id="path93"
         d="m 0,0 c 3.271,0 5.925,-1.477 5.925,-3.297 0,-1.821 -2.654,-3.298 -5.925,-3.298 -3.273,0 -5.926,1.477 -5.926,3.298 C -5.926,-1.477 -3.273,0 0,0 m -21.965,14.257 c 4.183,0 7.573,-1.318 7.573,-2.943 0,-0.296 -0.113,-0.585 -0.325,-0.855 4.526,-0.326 7.988,-2.113 7.988,-4.268 0,-2.385 -4.248,-4.319 -9.488,-4.319 -5.242,0 -9.491,1.934 -9.491,4.319 0,0.854 0.543,1.648 1.479,2.318 -3.077,0.373 -5.311,1.488 -5.311,2.805 0,1.625 3.392,2.943 7.575,2.943"
         style="fill:#5bba69;fill-opacity:1;fill-rule:evenodd;stroke:none"
         transform="matrix(1.3333333,0,0,-1.3333333,766.63933,495.26307)"
         clip-path="url(#clipPath94)" />
      <path
         id="path95"
         d="m 0,0 c 4.693,-0.468 8.853,-2.062 11.447,-4.135 0.282,-0.019 0.568,-0.044 0.852,-0.074 8.365,-0.837 15.145,-4.966 15.145,-9.219 0,-1.291 -0.623,-2.442 -1.724,-3.4 1.482,-1.038 2.4,-2.361 2.4,-3.723 0,-2.717 -3.658,-4.552 -8.17,-4.1 -2.886,0.289 -5.423,1.446 -6.877,2.951 -2.177,-0.937 -5.227,-1.352 -8.605,-1.013 -6.614,0.661 -11.976,3.953 -11.976,7.349 0,0.787 0.288,1.507 0.811,2.146 -4.488,1.69 -7.541,4.445 -7.541,7.266 0,4.076 6.375,6.74 14.238,5.952"
         style="fill:#5bba69;fill-opacity:1;fill-rule:evenodd;stroke:none"
         transform="matrix(1.3333333,0,0,-1.3333333,622.88413,512.24093)"
         clip-path="url(#clipPath96)" />
      <path
         id="path97"
         d="m 0,0 c 2.377,0 4.306,-1.073 4.306,-2.395 0,-1.322 -1.929,-2.393 -4.306,-2.393 -2.376,0 -4.304,1.071 -4.304,2.393 C -4.304,-1.073 -2.376,0 0,0 m -15.955,10.357 c 3.039,0 5.502,-0.958 5.502,-2.137 0,-0.216 -0.083,-0.423 -0.238,-0.621 3.29,-0.239 5.804,-1.535 5.804,-3.1 0,-1.734 -3.086,-3.14 -6.893,-3.14 -3.808,0 -6.894,1.406 -6.894,3.14 0,0.619 0.396,1.196 1.075,1.684 -2.234,0.27 -3.858,1.081 -3.858,2.037 0,1.179 2.465,2.137 5.502,2.137"
         style="fill:#5bba69;fill-opacity:1;fill-rule:evenodd;stroke:none"
         transform="matrix(1.3333333,0,0,-1.3333333,647.69667,532.22)"
         clip-path="url(#clipPath98)" />
      <path
         id="path99"
         d="m 0,0 c -6.929,2.493 -11.883,6.874 -11.883,11.055 0,4.452 5.624,7.265 13.268,7.102 1.664,4.76 11.696,6.962 23.825,4.946 8.957,-1.491 16.771,-4.902 20.916,-8.723 1.748,0.115 3.644,0.02 5.627,-0.309 8.741,-1.454 15.827,-6.949 15.827,-12.276 0,-3.727 -3.466,-6.381 -8.538,-7.143 0.193,-0.626 0.294,-1.251 0.294,-1.872 0,-6.055 -9.559,-9.374 -21.349,-7.413 -4.125,0.686 -7.977,1.928 -11.241,3.511 -2.782,-1.649 -6.942,-2.301 -11.592,-1.526 -8.377,1.391 -15.167,6.877 -15.167,12.25 0,0.132 0.005,0.267 0.013,0.398"
         style="fill:#5bba69;fill-opacity:1;fill-rule:evenodd;stroke:none"
         transform="matrix(1.3333333,0,0,-1.3333333,33.414667,504.82547)"
         clip-path="url(#clipPath100)" />
      <path
         id="path101"
         d="m 0,0 c -9.539,3.43 -16.36,9.46 -16.36,15.216 0,6.131 7.742,10.001 18.266,9.777 2.291,6.552 16.1,9.585 32.798,6.808 12.331,-2.051 23.088,-6.747 28.794,-12.009 2.406,0.159 5.017,0.03 7.745,-0.424 12.032,-2.002 21.787,-9.567 21.787,-16.9 0,-5.128 -4.77,-8.782 -11.752,-9.831 0.266,-0.862 0.404,-1.723 0.404,-2.58 0,-8.335 -13.158,-12.904 -29.39,-10.202 -5.678,0.943 -10.98,2.653 -15.473,4.832 -3.831,-2.272 -9.558,-3.167 -15.959,-2.102 -11.532,1.918 -20.88,9.467 -20.88,16.864 0,0.186 0.008,0.369 0.02,0.551"
         style="fill:#5bba69;fill-opacity:1;fill-rule:evenodd;stroke:none"
         transform="matrix(1.3333333,0,0,-1.3333333,161.82027,461.69533)"
         clip-path="url(#clipPath102)" />
      <path
         id="path103"
         d="m 0,0 c 6.906,-0.512 13.382,-1.684 18.969,-3.308 3.659,4.074 12.43,6.484 22.67,5.725 8.402,-0.623 15.816,-3.234 20.228,-6.702 7.524,1.7 17.081,2.344 27.488,1.572 24.243,-1.799 43.897,-10.591 43.897,-19.639 0,-2.988 -2.147,-5.631 -5.893,-7.765 5.302,-2.792 8.598,-6.384 8.598,-10.09 0,-7.291 -12.747,-12.256 -28.471,-11.089 -8.331,0.618 -15.825,2.834 -21.032,5.864 -8.107,-3.092 -20.468,-4.535 -34.318,-3.507 -24.42,1.811 -44.216,10.613 -44.216,19.662 0,0.088 0.005,0.176 0.009,0.264 -2.557,-0.013 -5.209,0.076 -7.929,0.277 -21.066,1.562 -38.143,9.262 -38.143,17.197 C -38.143,-3.604 -21.066,1.563 0,0"
         style="fill:#5bba69;fill-opacity:1;fill-rule:evenodd;stroke:none"
         transform="matrix(1.3333333,0,0,-1.3333333,63.465467,336.4824)"
         clip-path="url(#clipPath104)" />
      <path
         id="path105"
         d="m 0,0 c 10.161,0.095 13.715,5.957 17.092,14.783 4.14,11.808 11.846,39.682 4.942,51.112 C 16.702,74.725 9.189,77.489 4.14,89.758 -0.704,101.527 0.054,126.172 0.344,138.971 1.449,125.157 1.794,91.07 20.129,87.6 c 9.325,-1.033 11.458,6.009 13.051,13.782 2.364,11.411 5.287,21.228 8.114,32.348 6.132,24.803 0.501,29.785 -6.77,52.654 -4.337,13.64 -10.543,19.857 -20.97,29.44 -8.832,8.056 -17.172,18.47 -20.987,29.877 -2.562,7.661 7.299,-8.681 7.619,-9.137 8.24,-11.702 24.757,-24.926 33.434,-6.524 2.109,4.475 3.656,9.388 5.766,14.026 7.365,15.541 4.234,8.683 2.562,-2.7 -1.809,-12.68 -7.019,-40.29 14.549,-38.803 10.397,0.719 18.63,8.197 25.621,15.016 6.547,6.385 -2.205,-4.217 -2.996,-5.074 -6.787,-7.341 -11.161,-10.622 -18.676,-16.773 -15.73,-12.877 -2.852,-23.568 -0.168,-39.65 0.492,-3.68 0.62,-7.729 0.955,-11.475 0.996,-10.723 7.387,-14.563 17.413,-11.795 13.982,3.859 22.163,19.509 32.641,28.187 C 111.117,159.475 94.74,134.941 92.476,132.17 83.716,121.444 77.084,119.895 66.059,113.467 52.986,105.843 54.586,95.162 54.725,81.41 54.903,63.754 58.477,10.281 94.499,0 Z"
         style="fill:#5bba69;fill-opacity:1;fill-rule:evenodd;stroke:none"
         transform="matrix(1.3333333,0,0,-1.3333333,68.998,670.5912)"
         clip-path="url(#clipPath106)" />
      <path
         id="path107"
         d="M 0,0 C 2.675,-5.526 8.163,-7.19 15.713,-5.106 29.695,-1.247 37.876,14.403 48.354,23.081 48.185,21.557 31.808,-2.977 29.543,-5.748 20.784,-16.474 14.151,-18.022 3.127,-24.451 -0.246,-26.418 -2.64,-28.59 -4.336,-30.962 -5.257,-20.893 -3.725,-9.997 0,0"
         style="fill:#5bba69;fill-opacity:1;fill-rule:evenodd;stroke:none"
         transform="matrix(1.3333333,0,0,-1.3333333,152.9076,486.70053)"
         clip-path="url(#clipPath108)" />
      <path
         id="path109"
         d="m 0,0 c 7.62,-5.129 16.119,-5.999 21.548,5.516 2.11,4.475 3.657,9.388 5.767,14.026 7.364,15.541 4.233,8.683 2.562,-2.7 C 28.544,7.497 25.365,-9.952 32.416,-17.893 20.929,-15.671 9.286,-9.083 0,0"
         style="fill:#5bba69;fill-opacity:1;fill-rule:evenodd;stroke:none"
         transform="matrix(1.3333333,0,0,-1.3333333,85.093067,371.22587)"
         clip-path="url(#clipPath110)" />
      <path
         id="path111"
         d="m 0,0 c 0.456,-0.034 0.91,-0.074 1.362,-0.118 -0.058,0.43 -0.09,0.863 -0.09,1.297 0,10.188 16.378,17.234 36.581,15.735 10.639,-0.789 20.215,-3.79 26.899,-7.943 7.851,2.447 18.262,3.52 29.684,2.672 24.441,-1.812 44.256,-11.73 44.256,-22.149 0,-3.074 -1.726,-5.847 -4.783,-8.184 5.598,-1.688 10.096,-3.874 12.865,-6.278 24.377,-2.695 43.45,-11.993 43.45,-21.589 0,-10.19 -21.505,-16.854 -48.033,-14.886 -26.397,1.958 -47.815,11.725 -48.028,21.86 -8.414,-2.421 -20.199,-3.439 -33.247,-2.471 -18.486,1.371 -34.437,6.353 -41.854,12.394 -5.2,-1.842 -11.834,-2.686 -19.062,-2.149 -16.691,1.237 -30.22,9.361 -30.22,18.145 C -30.22,-4.879 -16.691,1.238 0,0"
         style="fill:#5bba69;fill-opacity:1;fill-rule:evenodd;stroke:none"
         transform="matrix(1.3333333,0,0,-1.3333333,46.878933,302.88733)"
         clip-path="url(#clipPath112)" />
      <path
         id="path113"
         d="M 0,0 C 6.72,0 12.167,-1.958 12.167,-4.374 12.167,-6.789 6.72,-8.747 0,-8.747 c -6.647,0 -12.049,1.915 -12.165,4.295 -1.151,-0.105 -2.349,-0.16 -3.577,-0.16 -9.176,0 -16.616,3.081 -16.616,6.884 0,3.802 7.44,6.884 16.616,6.884 9.178,0 16.618,-3.082 16.618,-6.884 C 0.876,1.476 0.547,0.711 -0.052,0 Z m 30.855,-4.612 c 4.787,0 8.668,-1.71 8.668,-3.818 0,-2.108 -3.881,-3.816 -8.668,-3.816 -4.787,0 -8.668,1.708 -8.668,3.816 0,2.108 3.881,3.818 8.668,3.818 M -27.994,38.33 c 3.821,0 6.919,-1.352 6.919,-3.021 0,-1.67 -3.098,-3.022 -6.919,-3.022 -3.82,0 -6.918,1.352 -6.918,3.022 0,1.669 3.098,3.021 6.918,3.021 M -142.269,26.402 c 4.743,0 8.587,-1.993 8.587,-4.454 0,-2.459 -3.844,-4.453 -8.587,-4.453 -4.744,0 -8.59,1.994 -8.59,4.453 0,2.461 3.846,4.454 8.59,4.454 m 46.361,4.772 c 2.122,0 4.167,-0.113 6.083,-0.322 4.365,3.014 13.639,5.093 24.375,5.093 14.933,0 27.039,-4.023 27.039,-8.986 0,-4.361 -9.35,-7.997 -21.751,-8.814 1.098,-0.973 1.71,-2.055 1.71,-3.195 0,-4.216 -8.367,-7.633 -18.688,-7.633 -10.321,0 -18.688,3.417 -18.688,7.633 0,1.02 0.49,1.993 1.377,2.882 -0.481,-0.012 -0.966,-0.018 -1.457,-0.018 -10.937,0 -19.801,2.991 -19.801,6.679 0,3.69 8.864,6.681 19.801,6.681"
         style="fill:#5bba69;fill-opacity:1;fill-rule:evenodd;stroke:none"
         transform="matrix(1.3333333,0,0,-1.3333333,230.2148,352.70253)"
         clip-path="url(#clipPath114)" />
      <path
         id="path115"
         d="m 0,0 c 8.226,-0.824 15.52,-3.616 20.069,-7.251 0.493,-0.036 0.99,-0.078 1.491,-0.128 14.665,-1.47 26.553,-8.707 26.553,-16.165 0,-2.259 -1.093,-4.279 -3.025,-5.957 2.6,-1.823 4.208,-4.143 4.208,-6.528 0,-4.764 -6.411,-7.981 -14.321,-7.19 -5.06,0.508 -9.51,2.532 -12.057,5.175 -3.815,-1.644 -9.165,-2.368 -15.088,-1.775 -11.594,1.162 -20.993,6.927 -20.993,12.883 0,1.375 0.504,2.642 1.419,3.759 -7.867,2.965 -13.22,7.797 -13.22,12.742 C -24.964,-3.292 -13.788,1.38 0,0"
         style="fill:#5bba69;fill-opacity:1;fill-rule:evenodd;stroke:none"
         transform="matrix(1.3333333,0,0,-1.3333333,202.64587,412.28)"
         clip-path="url(#clipPath116)" />
      <path
         id="path117"
         d="m 0,0 c 4.167,0 7.547,-1.88 7.547,-4.199 0,-2.318 -3.38,-4.198 -7.547,-4.198 -4.168,0 -7.547,1.88 -7.547,4.198 C -7.547,-1.88 -4.168,0 0,0 m -27.972,18.155 c 5.326,0 9.645,-1.676 9.645,-3.743 0,-0.379 -0.146,-0.746 -0.416,-1.091 5.767,-0.418 10.175,-2.691 10.175,-5.435 0,-3.037 -5.411,-5.502 -12.084,-5.502 -6.675,0 -12.086,2.465 -12.086,5.502 0,1.085 0.691,2.097 1.883,2.952 -3.918,0.476 -6.763,1.896 -6.763,3.574 0,2.067 4.319,3.743 9.646,3.743"
         style="fill:#5bba69;fill-opacity:1;fill-rule:evenodd;stroke:none"
         transform="matrix(1.3333333,0,0,-1.3333333,246.14453,447.30733)"
         clip-path="url(#clipPath118)" />
      <path
         id="path119"
         d="m 0,0 c 5.976,-0.599 11.274,-2.626 14.578,-5.268 0.358,-0.026 0.72,-0.056 1.084,-0.092 10.653,-1.069 19.289,-6.325 19.289,-11.742 0,-1.641 -0.795,-3.11 -2.198,-4.328 1.889,-1.325 3.057,-3.009 3.057,-4.743 0,-3.461 -4.658,-5.797 -10.404,-5.222 -3.676,0.37 -6.907,1.839 -8.758,3.757 -2.772,-1.193 -6.658,-1.717 -10.961,-1.286 -8.42,0.843 -15.248,5.031 -15.248,9.356 0,1.002 0.365,1.922 1.03,2.732 -5.714,2.154 -9.603,5.663 -9.603,9.255 0,5.189 8.119,8.584 18.134,7.581"
         style="fill:#5bba69;fill-opacity:1;fill-rule:evenodd;stroke:none"
         transform="matrix(1.3333333,0,0,-1.3333333,63.0716,468.92707)"
         clip-path="url(#clipPath120)" />
      <path
         id="path121"
         d="m 0,0 c 3.027,0 5.481,-1.367 5.481,-3.052 0,-1.683 -2.454,-3.049 -5.481,-3.049 -3.027,0 -5.482,1.366 -5.482,3.049 C -5.482,-1.367 -3.027,0 0,0 m -20.32,13.186 c 3.87,0 7.006,-1.217 7.006,-2.719 0,-0.275 -0.104,-0.541 -0.301,-0.791 4.188,-0.302 7.391,-1.956 7.391,-3.948 0,-2.208 -3.931,-3.998 -8.779,-3.998 -4.848,0 -8.779,1.79 -8.779,3.998 0,0.788 0.502,1.524 1.367,2.143 -2.845,0.345 -4.911,1.378 -4.911,2.596 0,1.502 3.137,2.719 7.006,2.719"
         style="fill:#5bba69;fill-opacity:1;fill-rule:evenodd;stroke:none"
         transform="matrix(1.3333333,0,0,-1.3333333,94.670533,494.36973)"
         clip-path="url(#clipPath122)" />
      <path
         id="path123"
         d="m 0,0 c -8.706,3.13 -14.932,8.638 -14.932,13.89 0,5.596 7.067,9.129 16.672,8.924 2.09,5.98 14.696,8.748 29.936,6.213 11.257,-1.872 21.075,-6.157 26.282,-10.961 2.198,0.145 4.58,0.028 7.07,-0.387 10.984,-1.827 19.885,-8.733 19.885,-15.424 0,-4.682 -4.351,-8.019 -10.725,-8.975 0.243,-0.787 0.37,-1.573 0.37,-2.355 0,-7.608 -12.01,-11.778 -26.828,-9.314 -5.182,0.864 -10.021,2.424 -14.123,4.412 -3.497,-2.073 -8.724,-2.889 -14.567,-1.918 -10.525,1.75 -19.057,8.643 -19.057,15.393 0,0.167 0.007,0.336 0.017,0.502"
         style="fill:#267837;fill-opacity:1;fill-rule:evenodd;stroke:none"
         transform="matrix(1.3333333,0,0,-1.3333333,288.6628,462.3008)"
         clip-path="url(#clipPath124)" />
      <path
         id="path125"
         d="m 0,0 c -11.988,4.309 -20.559,11.889 -20.559,19.119 0,7.703 9.729,12.567 22.951,12.287 2.88,8.231 20.232,12.042 41.212,8.553 15.495,-2.578 29.011,-8.479 36.18,-15.089 3.026,0.198 6.305,0.037 9.734,-0.533 15.119,-2.515 27.375,-12.021 27.375,-21.236 0,-6.443 -5.995,-11.035 -14.767,-12.355 0.335,-1.082 0.508,-2.164 0.508,-3.239 0,-10.473 -16.533,-16.215 -36.929,-12.82 -7.135,1.186 -13.798,3.334 -19.445,6.072 -4.81,-2.854 -12.008,-3.979 -20.051,-2.642 -14.49,2.41 -26.233,11.897 -26.233,21.189 0,0.233 0.007,0.465 0.024,0.694"
         style="fill:#267837;fill-opacity:1;fill-rule:evenodd;stroke:none"
         transform="matrix(1.3333333,0,0,-1.3333333,450.00907,408.10813)"
         clip-path="url(#clipPath126)" />
      <path
         id="path127"
         d="m 0,0 c 8.676,-0.643 16.816,-2.117 23.834,-4.155 4.598,5.119 15.618,8.147 28.487,7.192 10.557,-0.782 19.871,-4.062 25.417,-8.42 9.452,2.136 21.462,2.945 34.536,1.975 30.466,-2.26 55.161,-13.308 55.161,-24.676 0,-3.755 -2.697,-7.077 -7.406,-9.758 6.663,-3.508 10.802,-8.022 10.802,-12.679 0,-9.161 -16.015,-15.398 -35.773,-13.933 -10.467,0.776 -19.885,3.56 -26.425,7.368 -10.187,-3.885 -25.72,-5.699 -43.123,-4.407 -30.685,2.276 -55.559,13.337 -55.559,24.705 0,0.112 0.008,0.223 0.012,0.333 -3.215,-0.017 -6.546,0.095 -9.963,0.348 -26.47,1.963 -47.928,11.639 -47.928,21.608 C -47.928,-4.526 -26.47,1.964 0,0"
         style="fill:#267837;fill-opacity:1;fill-rule:evenodd;stroke:none"
         transform="matrix(1.3333333,0,0,-1.3333333,326.42187,250.776)"
         clip-path="url(#clipPath128)" />
      <path
         id="path129"
         d="M 0,0 C 12.768,0.121 17.233,7.484 21.477,18.574 26.678,33.413 36.36,68.437 27.688,82.8 20.986,93.895 11.546,97.369 5.201,112.785 c -6.085,14.788 -5.132,45.752 -4.767,61.836 1.387,-17.358 1.823,-60.19 24.858,-64.551 11.717,-1.295 14.4,7.553 16.4,17.321 2.969,14.339 6.643,26.672 10.195,40.645 7.706,31.166 0.629,37.424 -8.507,66.159 -5.447,17.141 -13.248,24.951 -26.348,36.992 -11.101,10.123 -21.578,23.211 -26.37,37.542 -3.22,9.628 9.171,-10.908 9.572,-11.48 10.354,-14.704 31.108,-31.322 42.009,-8.198 2.652,5.623 4.596,11.796 7.246,17.624 9.253,19.529 5.32,10.91 3.219,-3.392 -2.273,-15.934 -8.817,-50.625 18.282,-48.757 13.064,0.902 23.408,10.3 32.195,18.868 8.225,8.023 -2.771,-5.298 -3.767,-6.376 -8.527,-9.224 -14.023,-13.347 -23.465,-21.076 -19.766,-16.181 -3.586,-29.614 -0.212,-49.821 0.619,-4.626 0.781,-9.711 1.2,-14.42 1.25,-13.471 9.281,-18.296 21.88,-14.819 17.568,4.85 27.847,24.514 41.012,35.417 -0.211,-1.915 -20.789,-32.742 -23.636,-36.226 C 105.192,152.6 96.859,150.651 83.003,142.574 66.579,132.995 68.588,119.575 68.765,102.294 68.987,80.109 73.479,12.917 118.741,0 Z"
         style="fill:#603616;fill-opacity:1;fill-rule:evenodd;stroke:none"
         transform="matrix(1.3333333,0,0,-1.3333333,333.37307,670.5912)"
         clip-path="url(#clipPath130)" />
      <path
         id="path131"
         d="M 0,0 C 3.364,-6.946 10.26,-9.035 19.746,-6.417 37.314,-1.569 47.596,18.097 60.759,29 60.547,27.085 39.97,-3.743 37.122,-7.226 26.117,-20.7 17.784,-22.648 3.929,-30.725 -0.306,-33.196 -3.315,-35.926 -5.447,-38.907 -6.604,-26.254 -4.679,-12.564 0,0"
         style="fill:#2f1d15;fill-opacity:1;fill-rule:evenodd;stroke:none"
         transform="matrix(1.3333333,0,0,-1.3333333,438.806,439.52533)"
         clip-path="url(#clipPath132)" />
      <path
         id="path133"
         d="m 0,0 c 9.576,-6.446 20.254,-7.538 27.075,6.931 2.652,5.623 4.596,11.796 7.246,17.625 9.253,19.528 5.32,10.909 3.219,-3.393 C 35.866,9.421 31.873,-12.504 40.73,-22.482 26.298,-19.691 11.669,-11.413 0,0"
         style="fill:#2f1d15;fill-opacity:1;fill-rule:evenodd;stroke:none"
         transform="matrix(1.3333333,0,0,-1.3333333,353.59707,294.4316)"
         clip-path="url(#clipPath134)" />
      <path
         id="path135"
         d="M 0,0 C 0.574,-0.044 1.144,-0.094 1.712,-0.148 1.64,0.392 1.599,0.935 1.599,1.48 c 0,12.803 20.579,21.656 45.966,19.772 13.367,-0.991 25.399,-4.762 33.799,-9.98 9.864,3.074 22.945,4.422 37.298,3.357 30.711,-2.277 55.607,-14.738 55.607,-27.832 0,-3.861 -2.168,-7.345 -6.007,-10.282 7.032,-2.122 12.685,-4.867 16.164,-7.889 30.631,-3.386 54.595,-15.069 54.595,-27.127 0,-12.802 -27.02,-21.178 -60.355,-18.705 -33.167,2.461 -60.081,14.733 -60.347,27.469 -10.572,-3.041 -25.381,-4.322 -41.777,-3.106 C 53.315,-51.121 33.27,-44.86 23.953,-37.268 17.419,-39.583 9.083,-40.644 0,-39.97 c -20.971,1.555 -37.971,11.763 -37.971,22.801 0,11.038 17,18.724 37.971,17.169"
         style="fill:#2f9a3f;fill-opacity:1;fill-rule:evenodd;stroke:none"
         transform="matrix(1.3333333,0,0,-1.3333333,305.57947,208.5612)"
         clip-path="url(#clipPath136)" />
      <path
         id="path137"
         d="m 0,0 c 8.444,0 15.289,-2.46 15.289,-5.496 0,-3.036 -6.845,-5.497 -15.289,-5.497 -8.352,0 -15.14,2.408 -15.285,5.398 -1.448,-0.131 -2.952,-0.201 -4.495,-0.201 -11.531,0 -20.878,3.873 -20.878,8.65 0,4.778 9.347,8.65 20.878,8.65 11.531,0 20.879,-3.872 20.879,-8.65 0,-1 -0.412,-1.961 -1.165,-2.854 z m 38.77,-5.796 c 6.016,0 10.892,-2.147 10.892,-4.796 0,-2.65 -4.876,-4.797 -10.892,-4.797 -6.014,0 -10.89,2.147 -10.89,4.797 0,2.649 4.876,4.796 10.89,4.796 m -73.944,53.96 c 4.802,0 8.694,-1.7 8.694,-3.798 0,-2.097 -3.892,-3.797 -8.694,-3.797 -4.803,0 -8.694,1.7 -8.694,3.797 0,2.098 3.891,3.798 8.694,3.798 m -143.592,-14.99 c 5.96,0 10.791,-2.506 10.791,-5.595 0,-3.091 -4.831,-5.597 -10.791,-5.597 -5.961,0 -10.792,2.506 -10.792,5.597 0,3.089 4.831,5.595 10.792,5.595 m 58.255,5.996 c 2.666,0 5.235,-0.142 7.643,-0.404 5.486,3.787 17.139,6.4 30.629,6.4 18.763,0 33.974,-5.055 33.974,-11.292 0,-5.48 -11.748,-10.048 -27.329,-11.075 1.377,-1.221 2.148,-2.58 2.148,-4.013 0,-5.298 -10.514,-9.593 -23.481,-9.593 -12.97,0 -23.483,4.295 -23.483,9.593 0,1.28 0.615,2.503 1.73,3.62 -0.605,-0.015 -1.214,-0.022 -1.831,-0.022 -13.743,0 -24.881,3.757 -24.881,8.392 0,4.636 11.138,8.394 24.881,8.394"
         style="fill:#47bc53;fill-opacity:1;fill-rule:evenodd;stroke:none"
         transform="matrix(1.3333333,0,0,-1.3333333,535.94667,271.1556)"
         clip-path="url(#clipPath138)" />
      <path
         id="path139"
         d="m 0,0 c 10.335,-1.035 19.502,-4.544 25.217,-9.112 0.619,-0.043 1.244,-0.098 1.876,-0.16 18.425,-1.846 33.363,-10.938 33.363,-20.309 0,-2.841 -1.374,-5.379 -3.8,-7.489 3.265,-2.289 5.288,-5.204 5.288,-8.201 0,-5.985 -8.059,-10.029 -17.998,-9.034 -6.358,0.637 -11.947,3.183 -15.147,6.502 -4.796,-2.065 -11.518,-2.976 -18.96,-2.231 -14.568,1.459 -26.379,8.706 -26.379,16.188 0,1.729 0.634,3.32 1.785,4.726 -9.887,3.725 -16.614,9.795 -16.614,16.008 C -31.369,-4.134 -17.324,1.735 0,0"
         style="fill:#2f9a3f;fill-opacity:1;fill-rule:evenodd;stroke:none"
         transform="matrix(1.3333333,0,0,-1.3333333,501.30467,346.0176)"
         clip-path="url(#clipPath140)" />
      <path
         id="path141"
         d="m 0,0 c 5.235,0 9.48,-2.362 9.48,-5.276 0,-2.912 -4.245,-5.275 -9.48,-5.275 -5.237,0 -9.483,2.363 -9.483,5.275 C -9.483,-2.362 -5.237,0 0,0 m -35.148,22.814 c 6.694,0 12.119,-2.107 12.119,-4.706 0,-0.477 -0.182,-0.935 -0.523,-1.369 7.246,-0.524 12.784,-3.382 12.784,-6.83 0,-3.819 -6.798,-6.914 -15.183,-6.914 -8.386,0 -15.185,3.095 -15.185,6.914 0,1.365 0.867,2.637 2.364,3.709 -4.921,0.597 -8.497,2.382 -8.497,4.49 0,2.599 5.427,4.706 12.121,4.706"
         style="fill:#47bc53;fill-opacity:1;fill-rule:evenodd;stroke:none"
         transform="matrix(1.3333333,0,0,-1.3333333,555.9636,390.03)"
         clip-path="url(#clipPath142)" />
      <path
         id="path143"
         d="m 0,0 c 7.506,-0.752 14.166,-3.301 18.316,-6.619 0.452,-0.032 0.906,-0.07 1.364,-0.117 13.385,-1.341 24.237,-7.946 24.237,-14.752 0,-2.063 -1,-3.907 -2.763,-5.439 2.374,-1.664 3.842,-3.781 3.842,-5.958 0,-4.348 -5.853,-7.284 -13.073,-6.563 -4.62,0.462 -8.678,2.312 -11.005,4.724 -3.481,-1.501 -8.366,-2.162 -13.77,-1.621 -10.583,1.06 -19.163,6.324 -19.163,11.759 0,1.256 0.46,2.41 1.296,3.432 -7.18,2.707 -12.067,7.117 -12.067,11.629 0,6.521 10.202,10.786 22.786,9.525"
         style="fill:#2f9a3f;fill-opacity:1;fill-rule:evenodd;stroke:none"
         transform="matrix(1.3333333,0,0,-1.3333333,325.92707,417.196)"
         clip-path="url(#clipPath144)" />
      <path
         id="path145"
         d="m 0,0 c 3.804,0 6.885,-1.714 6.885,-3.832 0,-2.117 -3.081,-3.832 -6.885,-3.832 -3.806,0 -6.889,1.715 -6.889,3.832 C -6.889,-1.714 -3.806,0 0,0 m -25.533,16.574 c 4.862,0 8.802,-1.533 8.802,-3.421 0,-0.344 -0.133,-0.677 -0.379,-0.992 5.264,-0.383 9.289,-2.456 9.289,-4.961 0,-2.775 -4.941,-5.024 -11.031,-5.024 -6.092,0 -11.031,2.249 -11.031,5.024 0,0.99 0.63,1.916 1.719,2.692 -3.576,0.434 -6.173,1.731 -6.173,3.261 0,1.888 3.942,3.421 8.804,3.421"
         style="fill:#47bc53;fill-opacity:1;fill-rule:evenodd;stroke:none"
         transform="matrix(1.3333333,0,0,-1.3333333,365.6328,449.168)"
         clip-path="url(#clipPath146)" />
      <path
         id="path147"
         d="M 0.73,0 H 658.688 V 157.057 H 0.73 Z"
         style="fill:#603616;fill-opacity:1;fill-rule:evenodd;stroke:none"
         transform="matrix(1.3333333,0,0,-1.3333333,0,880)"
         clip-path="url(#clipPath148)" />
      <path
         id="path149"
         d="M 0.73,0 H 658.688 V 115.853 H 0.73 Z"
         style="fill:#3d2316;fill-opacity:1;fill-rule:evenodd;stroke:none"
         transform="matrix(1.3333333,0,0,-1.3333333,0,880)"
         clip-path="url(#clipPath150)" />
    </g>
  </g>
</svg>
