<?xml version="1.0" encoding="UTF-8" standalone="no"?>
<!-- Created with Inkscape (http://www.inkscape.org/) -->

<svg
   version="1.1"
   id="svg1"
   width="880"
   height="880"
   viewBox="0 0 880 880"
   sodipodi:docname="hand-with-kite.svg"
   inkscape:version="1.3.2 (091e20e, 2023-11-25, custom)"
   xmlns:inkscape="http://www.inkscape.org/namespaces/inkscape"
   xmlns:sodipodi="http://sodipodi.sourceforge.net/DTD/sodipodi-0.dtd"
   xmlns="http://www.w3.org/2000/svg"
   xmlns:svg="http://www.w3.org/2000/svg">
  <defs
     id="defs1">
    <clipPath
       clipPathUnits="userSpaceOnUse"
       id="clipPath5">
      <path
         d="M 0,660 H 660 V 0 H 0 Z"
         transform="translate(-516.51371,-312.28521)"
         id="path5" />
    </clipPath>
    <clipPath
       clipPathUnits="userSpaceOnUse"
       id="clipPath7">
      <path
         d="M 0,660 H 660 V 0 H 0 Z"
         transform="translate(-523.25392,-312.28521)"
         id="path7" />
    </clipPath>
    <clipPath
       clipPathUnits="userSpaceOnUse"
       id="clipPath9">
      <path
         d="M 0,660 H 660 V 0 H 0 Z"
         transform="translate(-346.15631,-426.72661)"
         id="path9" />
    </clipPath>
    <clipPath
       clipPathUnits="userSpaceOnUse"
       id="clipPath11">
      <path
         d="M 0,660 H 660 V 0 H 0 Z"
         id="path11" />
    </clipPath>
    <clipPath
       clipPathUnits="userSpaceOnUse"
       id="clipPath13">
      <path
         d="M 0,660 H 660 V 0 H 0 Z"
         transform="translate(-149.5732,-221.57131)"
         id="path13" />
    </clipPath>
    <clipPath
       clipPathUnits="userSpaceOnUse"
       id="clipPath15">
      <path
         d="M 0,660 H 660 V 0 H 0 Z"
         transform="translate(0,-151.36131)"
         id="path15" />
    </clipPath>
    <clipPath
       clipPathUnits="userSpaceOnUse"
       id="clipPath17">
      <path
         d="M 0,660 H 660 V 0 H 0 Z"
         transform="translate(-190.4419,-215.34771)"
         id="path17" />
    </clipPath>
    <clipPath
       clipPathUnits="userSpaceOnUse"
       id="clipPath19">
      <path
         d="M 0,660 H 660 V 0 H 0 Z"
         transform="translate(0,-164.7451)"
         id="path19" />
    </clipPath>
    <clipPath
       clipPathUnits="userSpaceOnUse"
       id="clipPath21">
      <path
         d="M 0,660 H 660 V 0 H 0 Z"
         transform="translate(-89.255402,-141.5127)"
         id="path21" />
    </clipPath>
    <clipPath
       clipPathUnits="userSpaceOnUse"
       id="clipPath23">
      <path
         d="M 0,660 H 660 V 0 H 0 Z"
         transform="translate(-439.74611,-554.58251)"
         id="path23" />
    </clipPath>
    <clipPath
       clipPathUnits="userSpaceOnUse"
       id="clipPath25">
      <path
         d="M 0,660 H 660 V 0 H 0 Z"
         transform="translate(-389.76761,-390.25291)"
         id="path25" />
    </clipPath>
    <clipPath
       clipPathUnits="userSpaceOnUse"
       id="clipPath27">
      <path
         d="M 0,660 H 660 V 0 H 0 Z"
         transform="translate(-459.20411,-486.15381)"
         id="path27" />
    </clipPath>
    <clipPath
       clipPathUnits="userSpaceOnUse"
       id="clipPath29">
      <path
         d="M 0,660 H 660 V 0 H 0 Z"
         transform="translate(-346.15631,-426.72661)"
         id="path29" />
    </clipPath>
    <clipPath
       clipPathUnits="userSpaceOnUse"
       id="clipPath31">
      <path
         d="M 0,660 H 660 V 0 H 0 Z"
         transform="translate(-361.91021,-383.07081)"
         id="path31" />
    </clipPath>
    <clipPath
       clipPathUnits="userSpaceOnUse"
       id="clipPath33">
      <path
         d="M 0,660 H 660 V 0 H 0 Z"
         transform="translate(-513.95611,-307.11821)"
         id="path33" />
    </clipPath>
  </defs>
  <sodipodi:namedview
     id="namedview1"
     pagecolor="#ffffff"
     bordercolor="#000000"
     borderopacity="0.25"
     inkscape:showpageshadow="2"
     inkscape:pageopacity="0.0"
     inkscape:pagecheckerboard="0"
     inkscape:deskcolor="#d1d1d1"
     inkscape:zoom="0.67272727"
     inkscape:cx="439.25676"
     inkscape:cy="440"
     inkscape:window-width="1440"
     inkscape:window-height="830"
     inkscape:window-x="-6"
     inkscape:window-y="-6"
     inkscape:window-maximized="1"
     inkscape:current-layer="g1">
    <inkscape:page
       x="0"
       y="0"
       inkscape:label="1"
       id="page1"
       width="880"
       height="880"
       margin="0.61973065 1.0066667 0.38533333 0"
       bleed="0" />
  </sodipodi:namedview>
  <g
     id="g1"
     inkscape:groupmode="layer"
     inkscape:label="1">
    <g
       id="group-MC0">
      <path
         id="path2"
         d="M 0,0 V -104.885 -659.247 H 659.245 V 0 Z"
         style="fill:#e3f1a3;fill-opacity:1;fill-rule:nonzero;stroke:none"
         transform="matrix(1.3333333,0,0,-1.3333333,0,0.3844)" />
      <path
         id="path3"
         d="M 0,0 -381.289,-113.152 72.331,0 Z m -426.614,-179.284 v -78.531 l 659.244,70.266 v 160.161 z m 55.658,-130.195 603.586,17.566 v 23.765 z"
         style="fill:#edf6b9;fill-opacity:1;fill-rule:nonzero;stroke:none"
         transform="matrix(1.3333333,0,0,-1.3333333,568.8192,0.3844)" />
      <path
         id="path4"
         d="m 0,0 c 12.304,-43.372 40.782,-57.61 42.994,-88.383 3.382,-47.075 -47.866,-53.17 -69.317,-88.313 -19.795,-32.428 -12.34,-90.919 -1.213,-135.124 h -13.485 c -11.125,44.205 -18.581,102.696 1.212,135.124 21.452,35.143 72.702,41.238 69.32,88.313 C 27.299,-57.61 -1.179,-43.372 -13.483,0 Z"
         style="fill:#ffffff;fill-opacity:1;fill-rule:evenodd;stroke:none"
         transform="matrix(1.3333333,0,0,-1.3333333,688.68493,463.61973)"
         clip-path="url(#clipPath5)" />
      <path
         id="path6"
         d="m 0,0 c -25.096,-58.337 -64.893,-74.56 -33.318,-112.617 46.494,-56.036 94.158,-46.807 35.385,-129.176 h -13.483 c 58.772,82.369 11.108,73.14 -35.385,129.176 -31.574,38.057 8.223,54.28 33.319,112.617 z"
         style="fill:#fab40a;fill-opacity:1;fill-rule:evenodd;stroke:none"
         transform="matrix(1.3333333,0,0,-1.3333333,697.67187,463.61973)"
         clip-path="url(#clipPath7)" />
      <path
         id="path8"
         d="M 0,0 93.59,127.856 232.495,61.998 170.497,-142.597 Z"
         style="fill:#d64520;fill-opacity:1;fill-rule:evenodd;stroke:none"
         transform="matrix(1.3333333,0,0,-1.3333333,461.54173,311.0312)"
         clip-path="url(#clipPath9)" />
      <path
         id="path10"
         d="m 156.286,92.969 h 25.955 V 0.465 h -25.955 z"
         style="fill:#ffffff;fill-opacity:1;fill-rule:evenodd;stroke:none"
         transform="matrix(1.3333333,0,0,-1.3333333,0,880)"
         clip-path="url(#clipPath11)" />
      <path
         id="path12"
         d="M 0,0 C 123.741,72.284 239.444,143.731 290.173,333.011 254.73,147.505 138.825,64.412 25.362,-15.585 1.826,-32.208 7.004,-6.883 0,0"
         style="fill:#ffffff;fill-opacity:1;fill-rule:evenodd;stroke:none"
         transform="matrix(1.3333333,0,0,-1.3333333,199.43093,584.5716)"
         clip-path="url(#clipPath13)" />
      <path
         id="path14"
         d="m 0,0 77.836,15.682 15.954,48.498 60.223,15.836 12.748,1.193 -5.59,-11.833 0.641,-11.817 17.147,3.849 39.231,1.156 25.124,-17.172 1.934,-125.124 L 20.695,-119.682 0,-94.677 Z"
         style="fill:#f28f62;fill-opacity:1;fill-rule:evenodd;stroke:none"
         transform="matrix(1.3333333,0,0,-1.3333333,0,678.18493)"
         clip-path="url(#clipPath15)" />
      <path
         id="path16"
         d="m 0,0 -51.463,-11.556 52.827,8.137 24.89,-2.274 12.696,-17.746 2.103,-93.736 -231.495,-30.613 v -27.687 l 5.164,-17.161 240.084,48.914 -1.934,125.127 -25.124,17.173 z"
         style="fill:#da6b3e;fill-opacity:1;fill-rule:evenodd;stroke:none"
         transform="matrix(1.3333333,0,0,-1.3333333,253.92253,592.86973)"
         clip-path="url(#clipPath17)" />
      <path
         id="path18"
         d="m 0,0 44.947,7.013 c 48.788,7.614 96.905,-132.365 49.082,-144.663 L 0,-161.828 Z"
         style="fill:#2f9a3f;fill-opacity:1;fill-rule:evenodd;stroke:none"
         transform="matrix(1.3333333,0,0,-1.3333333,0,660.33987)"
         clip-path="url(#clipPath19)" />
      <path
         id="path20"
         d="m 0,0 c 25.687,-40.028 36.96,-106.14 4.774,-114.418 l -94.029,-24.178 v 51.955 l 89.897,19.24 C 12.726,-59.258 15.121,-39.829 0,0"
         style="fill:#267837;fill-opacity:1;fill-rule:evenodd;stroke:none"
         transform="matrix(1.3333333,0,0,-1.3333333,119.0072,691.3164)"
         clip-path="url(#clipPath21)" />
      <path
         id="path22"
         d="m 0,0 76.907,-270.453 61.998,204.595 z"
         style="fill:#ea521c;fill-opacity:1;fill-rule:evenodd;stroke:none"
         transform="matrix(1.3333333,0,0,-1.3333333,586.32813,140.55667)"
         clip-path="url(#clipPath23)" />
      <path
         id="path24"
         d="M 0,0 69.436,95.901 88.432,29.103 37.711,-31.54 Z"
         style="fill:#fab40a;fill-opacity:1;fill-rule:evenodd;stroke:none"
         transform="matrix(1.3333333,0,0,-1.3333333,519.69013,359.6628)"
         clip-path="url(#clipPath25)" />
      <path
         id="path26"
         d="M 0,0 105.056,-44.914 90.628,-92.529 18.995,-66.797 Z"
         style="fill:#fbca07;fill-opacity:1;fill-rule:evenodd;stroke:none"
         transform="matrix(1.3333333,0,0,-1.3333333,612.27213,231.79493)"
         clip-path="url(#clipPath27)" />
      <path
         id="path28"
         d="m 0,0 c 1.318,-29.488 4.447,-44.482 8.521,-51.922 2.411,2.755 4.821,5.51 7.233,8.266 C 8.423,-38.643 3.199,-23.96 0,0"
         style="fill:#ffffff;fill-opacity:1;fill-rule:evenodd;stroke:none"
         transform="matrix(1.3333333,0,0,-1.3333333,461.54173,311.0312)"
         clip-path="url(#clipPath29)" />
      <path
         id="path30"
         d="M 0,0 C 78.376,18.894 151.359,46.809 216.741,105.654 154.39,47.124 79.811,9.018 -7.233,-8.266 -4.822,-5.511 -2.412,-2.756 0,0"
         style="fill:#ffffff;fill-opacity:1;fill-rule:evenodd;stroke:none"
         transform="matrix(1.3333333,0,0,-1.3333333,482.54693,369.23893)"
         clip-path="url(#clipPath31)" />
      <path
         id="path32"
         d="m 0,0 c 0,-115.039 -32.24,-84.857 -39.266,-161.196 -7.457,-81.017 63.556,-71.225 44.425,-145.457 H -8.323 c 19.13,74.232 -51.883,64.44 -44.427,145.457 7.026,76.339 39.265,46.157 39.265,161.196 z"
         style="fill:#d64520;fill-opacity:1;fill-rule:evenodd;stroke:none"
         transform="matrix(1.3333333,0,0,-1.3333333,685.2748,470.50907)"
         clip-path="url(#clipPath33)" />
    </g>
  </g>
</svg>
