<?xml version="1.0" encoding="UTF-8" standalone="no"?>
<!-- Created with Inkscape (http://www.inkscape.org/) -->

<svg
   version="1.1"
   id="svg1"
   width="880"
   height="880"
   viewBox="0 0 880 880"
   sodipodi:docname="house-on-the-hill.svg"
   inkscape:version="1.3.2 (091e20e, 2023-11-25, custom)"
   xmlns:inkscape="http://www.inkscape.org/namespaces/inkscape"
   xmlns:sodipodi="http://sodipodi.sourceforge.net/DTD/sodipodi-0.dtd"
   xmlns="http://www.w3.org/2000/svg"
   xmlns:svg="http://www.w3.org/2000/svg">
  <defs
     id="defs1">
    <clipPath
       clipPathUnits="userSpaceOnUse"
       id="clipPath3">
      <path
         d="M 0,660 H 660 V 0 H 0 Z"
         transform="translate(-258.18951,-305.49801)"
         id="path3" />
    </clipPath>
    <clipPath
       clipPathUnits="userSpaceOnUse"
       id="clipPath5">
      <path
         d="M 0,660 H 660 V 0 H 0 Z"
         transform="translate(-223.14061,-446.02101)"
         id="path5" />
    </clipPath>
    <clipPath
       clipPathUnits="userSpaceOnUse"
       id="clipPath7">
      <path
         d="M 0,660 H 660 V 0 H 0 Z"
         transform="translate(-409.19921,-444.20651)"
         id="path7" />
    </clipPath>
    <clipPath
       clipPathUnits="userSpaceOnUse"
       id="clipPath9">
      <path
         d="M 0,660 H 660 V 0 H 0 Z"
         transform="translate(-108.02001,-213.83791)"
         id="path9" />
    </clipPath>
    <clipPath
       clipPathUnits="userSpaceOnUse"
       id="clipPath11">
      <path
         d="M 0,660 H 660 V 0 H 0 Z"
         transform="translate(-124.54101,-329.96631)"
         id="path11" />
    </clipPath>
    <clipPath
       clipPathUnits="userSpaceOnUse"
       id="clipPath13">
      <path
         d="M 0,660 H 660 V 0 H 0 Z"
         transform="translate(-156.6421,-293.6152)"
         id="path13" />
    </clipPath>
    <clipPath
       clipPathUnits="userSpaceOnUse"
       id="clipPath15">
      <path
         d="M 0,660 H 660 V 0 H 0 Z"
         transform="translate(-497.59081,-316.23831)"
         id="path15" />
    </clipPath>
    <clipPath
       clipPathUnits="userSpaceOnUse"
       id="clipPath17">
      <path
         d="M 0,660 H 660 V 0 H 0 Z"
         transform="translate(-535.24121,-351.21001)"
         id="path17" />
    </clipPath>
    <clipPath
       clipPathUnits="userSpaceOnUse"
       id="clipPath19">
      <path
         d="M 0,660 H 660 V 0 H 0 Z"
         transform="translate(-563.56541,-280.87111)"
         id="path19" />
    </clipPath>
    <clipPath
       clipPathUnits="userSpaceOnUse"
       id="clipPath21">
      <path
         d="M 0,660 H 660 V 0 H 0 Z"
         transform="translate(-25.879401,-152.65431)"
         id="path21" />
    </clipPath>
    <clipPath
       clipPathUnits="userSpaceOnUse"
       id="clipPath23">
      <path
         d="M 0,660 H 660 V 0 H 0 Z"
         transform="translate(-218.95461,-152.65431)"
         id="path23" />
    </clipPath>
    <clipPath
       clipPathUnits="userSpaceOnUse"
       id="clipPath25">
      <path
         d="M 0,660 H 660 V 0 H 0 Z"
         transform="translate(-380.22071,-378.58841)"
         id="path25" />
    </clipPath>
    <clipPath
       clipPathUnits="userSpaceOnUse"
       id="clipPath27">
      <path
         d="M 0,660 H 660 V 0 H 0 Z"
         transform="translate(-287.69341,-378.58841)"
         id="path27" />
    </clipPath>
    <clipPath
       clipPathUnits="userSpaceOnUse"
       id="clipPath29">
      <path
         d="M 0,660 H 660 V 0 H 0 Z"
         transform="translate(-380.22071,-378.58841)"
         id="path29" />
    </clipPath>
    <clipPath
       clipPathUnits="userSpaceOnUse"
       id="clipPath31">
      <path
         d="M 0,660 H 660 V 0 H 0 Z"
         transform="translate(-263.80131,-277.80271)"
         id="path31" />
    </clipPath>
    <clipPath
       clipPathUnits="userSpaceOnUse"
       id="clipPath33">
      <path
         d="M 0,660 H 660 V 0 H 0 Z"
         id="path33" />
    </clipPath>
    <clipPath
       clipPathUnits="userSpaceOnUse"
       id="clipPath35">
      <path
         d="M 0,660 H 660 V 0 H 0 Z"
         id="path35" />
    </clipPath>
    <clipPath
       clipPathUnits="userSpaceOnUse"
       id="clipPath37">
      <path
         d="M 0,660 H 660 V 0 H 0 Z"
         id="path37" />
    </clipPath>
    <clipPath
       clipPathUnits="userSpaceOnUse"
       id="clipPath39">
      <path
         d="M 0,660 H 660 V 0 H 0 Z"
         transform="translate(-493.91111,-234.3379)"
         id="path39" />
    </clipPath>
  </defs>
  <sodipodi:namedview
     id="namedview1"
     pagecolor="#ffffff"
     bordercolor="#000000"
     borderopacity="0.25"
     inkscape:showpageshadow="2"
     inkscape:pageopacity="0.0"
     inkscape:pagecheckerboard="0"
     inkscape:deskcolor="#d1d1d1"
     inkscape:zoom="0.69318182"
     inkscape:cx="439.27869"
     inkscape:cy="440"
     inkscape:window-width="1440"
     inkscape:window-height="830"
     inkscape:window-x="-6"
     inkscape:window-y="-6"
     inkscape:window-maximized="1"
     inkscape:current-layer="g1">
    <inkscape:page
       x="0"
       y="0"
       inkscape:label="1"
       id="page1"
       width="880"
       height="880"
       margin="203.53867 29.76 164.716 34.505867"
       bleed="0" />
  </sodipodi:namedview>
  <g
     id="g1"
     inkscape:groupmode="layer"
     inkscape:label="1">
    <g
       id="group-MC0">
      <path
         id="path2"
         d="m 0,0 c 4.323,-7.023 6.682,-14.607 6.682,-22.517 0,-36.233 -49.464,-65.602 -110.48,-65.602 -61.017,0 -110.48,29.369 -110.48,65.602 0,21.119 16.807,39.906 42.913,51.904 18.51,8.507 29.778,25.758 30.128,46.125 0.437,25.291 25.621,47.588 63.883,60.991 17.561,6.149 29.666,19.928 33.515,38.133 6.684,31.606 65.776,56.329 137.685,56.329 63.044,0 116.235,-19.004 132.892,-44.989 7.055,-11.005 15.676,-18.799 27.34,-24.699 29.033,-14.689 47.29,-35.973 47.29,-59.655 v -0.069 c -0.043,-28.049 13.035,-52.18 36.56,-67.458 17.753,-11.529 28.436,-26.372 28.436,-42.57 0,-36.705 -54.86,-66.461 -122.532,-66.461 -67.674,0 -122.531,29.756 -122.531,66.461 0,11.161 5.077,21.676 14.037,30.909 -6.293,0.58 -12.448,1.39 -18.436,2.417 C 89.814,9.549 50.486,-0.08 6.712,-0.08 4.462,-0.08 2.225,-0.049 0,0"
         style="fill:#dceefa;fill-opacity:1;fill-rule:evenodd;stroke:none"
         transform="matrix(1.3333333,0,0,-1.3333333,344.25267,472.66933)"
         clip-path="url(#clipPath3)" />
      <path
         id="path4"
         d="m 0,0 21.511,-89.421 8.159,-33.916 17.537,72.898 19.419,80.724 19.419,-80.724 18.303,-76.08 18.121,75.335 21.511,89.421 21.511,-89.421 13.314,-55.343 6.106,25.381 23.4,97.27 23.399,-97.27 23.4,-97.269 h -46.799 -46.799 l 9.096,37.812 H 143.98 100.958 l 2.27,9.441 H 66.626 31.553 l 11.469,-47.679 H 0 -43.022 l 21.51,89.42 z"
         style="fill:#dbdb55;fill-opacity:1;fill-rule:evenodd;stroke:none"
         transform="matrix(1.3333333,0,0,-1.3333333,297.5208,285.30533)"
         clip-path="url(#clipPath5)" />
      <path
         id="path6"
         d="m 0,0 18.806,-75.059 18.805,-75.058 H 0 -37.611 l 18.804,75.058 z m -211.014,-30.213 16.966,-82.14 7.066,-34.207 16.973,70.558 19.42,80.722 19.419,-80.722 5.99,-24.904 13.157,59.599 24.124,109.285 24.126,-109.285 24.124,-109.284 h -48.25 -25.329 l 1.477,-6.137 h -38.838 -34.293 l 7.8,-37.766 h -33.932 -33.932 l 16.966,82.141 z"
         style="fill:#c4c43f;fill-opacity:1;fill-rule:evenodd;stroke:none"
         transform="matrix(1.3333333,0,0,-1.3333333,545.59893,287.72467)"
         clip-path="url(#clipPath7)" />
      <path
         id="path8"
         d="M 0,0 107.159,107.158 H 321.007 L 416.599,11.564 Z"
         style="fill:#baba3a;fill-opacity:1;fill-rule:evenodd;stroke:none"
         transform="matrix(1.3333333,0,0,-1.3333333,144.02667,594.8828)"
         clip-path="url(#clipPath9)" />
      <path
         id="path10"
         d="m 0,0 15.127,-63.374 15.126,-63.375 H 0 -30.252 l 15.126,63.375 z"
         style="fill:#787816;fill-opacity:1;fill-rule:evenodd;stroke:none"
         transform="matrix(1.3333333,0,0,-1.3333333,166.05467,440.04493)"
         clip-path="url(#clipPath11)" />
      <path
         id="path12"
         d="M 0,0 11.447,-44.432 22.894,-88.865 H 0 -22.894 l 11.447,44.433 z"
         style="fill:#787816;fill-opacity:1;fill-rule:evenodd;stroke:none"
         transform="matrix(1.3333333,0,0,-1.3333333,208.85613,488.51307)"
         clip-path="url(#clipPath13)" />
      <path
         id="path14"
         d="M 0,0 13.441,-44.242 26.884,-88.484 H 0 -26.882 l 13.442,44.242 z"
         style="fill:#787816;fill-opacity:1;fill-rule:evenodd;stroke:none"
         transform="matrix(1.3333333,0,0,-1.3333333,663.4544,458.34893)"
         clip-path="url(#clipPath15)" />
      <path
         id="path16"
         d="M 0,0 14.103,-67.271 28.209,-134.54 H 0 -28.209 l 14.103,67.269 z"
         style="fill:#787816;fill-opacity:1;fill-rule:evenodd;stroke:none"
         transform="matrix(1.3333333,0,0,-1.3333333,713.65493,411.72)"
         clip-path="url(#clipPath17)" />
      <path
         id="path18"
         d="M 0,0 11.447,-44.436 22.894,-88.865 H 0 -22.894 l 11.448,44.429 z"
         style="fill:#787816;fill-opacity:1;fill-rule:evenodd;stroke:none"
         transform="matrix(1.3333333,0,0,-1.3333333,751.42053,505.5052)"
         clip-path="url(#clipPath19)" />
      <path
         id="path20"
         d="m 0,0 74.763,74.766 h 79.72 l 50.384,50.382 h 212.656 l 24.65,-24.65 h 69.13 L 611.8,0 Z"
         style="fill:#969623;fill-opacity:1;fill-rule:evenodd;stroke:none"
         transform="matrix(1.3333333,0,0,-1.3333333,34.505867,676.46093)"
         clip-path="url(#clipPath21)" />
      <path
         id="path22"
         d="m 0,0 49.474,49.475 h 79.401 l 27.806,27.806 h 76.992 L 310.552,0.402 Z"
         style="fill:#baba3a;fill-opacity:1;fill-rule:evenodd;stroke:none"
         transform="matrix(1.3333333,0,0,-1.3333333,291.93947,676.46093)"
         clip-path="url(#clipPath23)" />
      <path
         id="path24"
         d="m 0,0 h 0.002 l 49.38,-49.379 v -51.407 h -98.761 v 51.407 z"
         style="fill:#f5f5c9;fill-opacity:1;fill-rule:evenodd;stroke:none"
         transform="matrix(1.3333333,0,0,-1.3333333,506.96093,375.21547)"
         clip-path="url(#clipPath25)" />
      <path
         id="path26"
         d="m 0,0 h 0.002 l 49.38,-49.379 v -51.407 h -98.761 v 51.407 z"
         style="fill:#ffffff;fill-opacity:1;fill-rule:evenodd;stroke:none"
         transform="matrix(1.3333333,0,0,-1.3333333,383.5912,375.21547)"
         clip-path="url(#clipPath27)" />
      <path
         id="path28"
         d="m 0,0 h -92.525 l 49.379,-49.379 h 92.528 z"
         style="fill:#990000;fill-opacity:1;fill-rule:evenodd;stroke:none"
         transform="matrix(1.3333333,0,0,-1.3333333,506.96093,375.21547)"
         clip-path="url(#clipPath29)" />
      <path
         id="path30"
         d="m 0,0 -83.557,-83.557 h -48.859 l -41.591,-41.591 h 48.765 l 16.619,16.619 h 48.669 L 48.576,0 Z"
         style="fill:#e6e698;fill-opacity:1;fill-rule:evenodd;stroke:none"
         transform="matrix(1.3333333,0,0,-1.3333333,351.73507,509.5964)"
         clip-path="url(#clipPath31)" />
      <path
         id="path32"
         d="m 274.476,277.803 h 26.436 v 38.676 h -26.436 z"
         style="fill:#696951;fill-opacity:1;fill-rule:evenodd;stroke:none"
         transform="matrix(1.3333333,0,0,-1.3333333,0,880)"
         clip-path="url(#clipPath33)" />
      <path
         id="path34"
         d="m 354.594,293.615 h 22.226 v 22.863 h -22.226 z"
         style="fill:#696951;fill-opacity:1;fill-rule:evenodd;stroke:none"
         transform="matrix(1.3333333,0,0,-1.3333333,0,880)"
         clip-path="url(#clipPath35)" />
      <path
         id="path36"
         d="m 391.652,293.615 h 22.226 v 22.863 h -22.226 z"
         style="fill:#696951;fill-opacity:1;fill-rule:evenodd;stroke:none"
         transform="matrix(1.3333333,0,0,-1.3333333,0,880)"
         clip-path="url(#clipPath37)" />
      <path
         id="path38"
         d="m 0,0 c 3.649,0 6.609,-2.961 6.609,-6.607 0,-3.653 -2.96,-6.612 -6.609,-6.612 -3.649,0 -6.607,2.959 -6.607,6.612 C -6.607,-2.961 -3.649,0 0,0 m -117.073,27.852 c 1.302,0 2.36,-1.057 2.36,-2.36 0,-1.305 -1.058,-2.361 -2.36,-2.361 -1.304,0 -2.361,1.056 -2.361,2.361 0,1.303 1.057,2.36 2.361,2.36 M -176.554,9.441 c 2.086,0 3.777,-1.691 3.777,-3.777 0,-2.084 -1.691,-3.777 -3.777,-3.777 -2.085,0 -3.776,1.693 -3.776,3.777 0,2.086 1.691,3.777 3.776,3.777 m 21.951,-20.771 c 1.956,0 3.541,-1.584 3.541,-3.539 0,-1.957 -1.585,-3.541 -3.541,-3.541 -1.955,0 -3.54,1.584 -3.54,3.541 0,1.955 1.585,3.539 3.54,3.539 m -120.954,26.705 c 1.769,0 3.204,-1.434 3.204,-3.203 0,-1.77 -1.435,-3.203 -3.204,-3.203 -1.769,0 -3.203,1.433 -3.203,3.203 0,1.769 1.434,3.203 3.203,3.203 m -96.199,-32.369 c 2.215,0 4.012,-1.797 4.012,-4.014 0,-2.215 -1.797,-4.012 -4.012,-4.012 -2.216,0 -4.012,1.797 -4.012,4.012 0,2.217 1.796,4.014 4.012,4.014 m -38.946,-35.877 c 4.171,0 7.553,-3.383 7.553,-7.555 0,-4.17 -3.382,-7.551 -7.553,-7.551 -4.172,0 -7.554,3.381 -7.554,7.551 0,4.172 3.382,7.555 7.554,7.555 m 461.551,10.539 c 2.259,0 4.088,-1.832 4.088,-4.092 0,-2.258 -1.829,-4.086 -4.088,-4.086 -2.259,0 -4.089,1.828 -4.089,4.086 0,2.26 1.83,4.092 4.089,4.092"
         style="fill:#baba3a;fill-opacity:1;fill-rule:evenodd;stroke:none"
         transform="matrix(1.3333333,0,0,-1.3333333,658.54813,567.54947)"
         clip-path="url(#clipPath39)" />
    </g>
  </g>
</svg>
