<?xml version="1.0" encoding="UTF-8" standalone="no"?>
<!-- Created with Inkscape (http://www.inkscape.org/) -->

<svg
   version="1.1"
   id="svg1"
   width="880"
   height="880"
   viewBox="0 0 880 880"
   sodipodi:docname="iceberg.svg"
   inkscape:version="1.3.2 (091e20e, 2023-11-25, custom)"
   xmlns:inkscape="http://www.inkscape.org/namespaces/inkscape"
   xmlns:sodipodi="http://sodipodi.sourceforge.net/DTD/sodipodi-0.dtd"
   xmlns="http://www.w3.org/2000/svg"
   xmlns:svg="http://www.w3.org/2000/svg">
  <defs
     id="defs1">
    <clipPath
       clipPathUnits="userSpaceOnUse"
       id="clipPath4">
      <path
         d="M 0,660 H 660 V 0 H 0 Z"
         transform="translate(-330.47611,-245.50101)"
         id="path4" />
    </clipPath>
    <clipPath
       clipPathUnits="userSpaceOnUse"
       id="clipPath6">
      <path
         d="M 0,660 H 660 V 0 H 0 Z"
         transform="translate(-542.21581,-562.38532)"
         id="path6" />
    </clipPath>
    <clipPath
       clipPathUnits="userSpaceOnUse"
       id="clipPath8">
      <path
         d="M 0,660 H 660 V 0 H 0 Z"
         id="path8" />
    </clipPath>
    <clipPath
       clipPathUnits="userSpaceOnUse"
       id="clipPath10">
      <path
         d="M 0,660 H 660 V 0 H 0 Z"
         transform="translate(-353.07321,-364.35891)"
         id="path10" />
    </clipPath>
    <clipPath
       clipPathUnits="userSpaceOnUse"
       id="clipPath12">
      <path
         d="M 0,660 H 660 V 0 H 0 Z"
         transform="translate(-361.22751,-380.69971)"
         id="path12" />
    </clipPath>
    <clipPath
       clipPathUnits="userSpaceOnUse"
       id="clipPath14">
      <path
         d="M 0,660 H 660 V 0 H 0 Z"
         transform="translate(-214.4287,-356.63571)"
         id="path14" />
    </clipPath>
    <clipPath
       clipPathUnits="userSpaceOnUse"
       id="clipPath16">
      <path
         d="M 0,660 H 660 V 0 H 0 Z"
         transform="translate(-234.28081,-350.31791)"
         id="path16" />
    </clipPath>
    <clipPath
       clipPathUnits="userSpaceOnUse"
       id="clipPath18">
      <path
         d="M 0,660 H 660 V 0 H 0 Z"
         transform="translate(-282.83401,-511.07371)"
         id="path18" />
    </clipPath>
    <clipPath
       clipPathUnits="userSpaceOnUse"
       id="clipPath20">
      <path
         d="M 0,660 H 660 V 0 H 0 Z"
         transform="translate(-327.11381,-361.89941)"
         id="path20" />
    </clipPath>
    <clipPath
       clipPathUnits="userSpaceOnUse"
       id="clipPath22">
      <path
         d="M 0,660 H 660 V 0 H 0 Z"
         transform="translate(-95.943805,-281.52051)"
         id="path22" />
    </clipPath>
    <clipPath
       clipPathUnits="userSpaceOnUse"
       id="clipPath24">
      <path
         d="M 0,660 H 660 V 0 H 0 Z"
         transform="translate(-227.1235,-281.52051)"
         id="path24" />
    </clipPath>
    <clipPath
       clipPathUnits="userSpaceOnUse"
       id="clipPath26">
      <path
         d="M 0,660 H 660 V 0 H 0 Z"
         transform="translate(-121.29051,-281.52051)"
         id="path26" />
    </clipPath>
    <clipPath
       clipPathUnits="userSpaceOnUse"
       id="clipPath28">
      <path
         d="M 0,660 H 660 V 0 H 0 Z"
         transform="translate(-316.73341,-281.52051)"
         id="path28" />
    </clipPath>
    <clipPath
       clipPathUnits="userSpaceOnUse"
       id="clipPath30">
      <path
         d="M 0,660 H 660 V 0 H 0 Z"
         transform="translate(-361.22751,-380.69971)"
         id="path30" />
    </clipPath>
    <clipPath
       clipPathUnits="userSpaceOnUse"
       id="clipPath32">
      <path
         d="M 0,660 H 660 V 0 H 0 Z"
         transform="translate(-429.11131,-375.59131)"
         id="path32" />
    </clipPath>
    <clipPath
       clipPathUnits="userSpaceOnUse"
       id="clipPath34">
      <path
         d="M 0,660 H 660 V 0 H 0 Z"
         transform="translate(-458.84571,-361.85641)"
         id="path34" />
    </clipPath>
    <clipPath
       clipPathUnits="userSpaceOnUse"
       id="clipPath36">
      <path
         d="M 0,660 H 660 V 0 H 0 Z"
         transform="translate(-353.07321,-203.98731)"
         id="path36" />
    </clipPath>
    <clipPath
       clipPathUnits="userSpaceOnUse"
       id="clipPath38">
      <path
         d="M 0,660 H 660 V 0 H 0 Z"
         transform="translate(-361.22751,-188.6914)"
         id="path38" />
    </clipPath>
    <clipPath
       clipPathUnits="userSpaceOnUse"
       id="clipPath40">
      <path
         d="M 0,660 H 660 V 0 H 0 Z"
         transform="translate(-214.4287,-211.21581)"
         id="path40" />
    </clipPath>
    <clipPath
       clipPathUnits="userSpaceOnUse"
       id="clipPath42">
      <path
         d="M 0,660 H 660 V 0 H 0 Z"
         transform="translate(-234.28081,-217.12891)"
         id="path42" />
    </clipPath>
    <clipPath
       clipPathUnits="userSpaceOnUse"
       id="clipPath44">
      <path
         d="M 0,660 H 660 V 0 H 0 Z"
         transform="translate(-282.83401,-66.666002)"
         id="path44" />
    </clipPath>
    <clipPath
       clipPathUnits="userSpaceOnUse"
       id="clipPath46">
      <path
         d="M 0,660 H 660 V 0 H 0 Z"
         transform="translate(-327.11381,-206.28711)"
         id="path46" />
    </clipPath>
    <clipPath
       clipPathUnits="userSpaceOnUse"
       id="clipPath48">
      <path
         d="M 0,660 H 660 V 0 H 0 Z"
         transform="translate(-95.943805,-281.52051)"
         id="path48" />
    </clipPath>
    <clipPath
       clipPathUnits="userSpaceOnUse"
       id="clipPath50">
      <path
         d="M 0,660 H 660 V 0 H 0 Z"
         transform="translate(-227.1235,-281.52051)"
         id="path50" />
    </clipPath>
    <clipPath
       clipPathUnits="userSpaceOnUse"
       id="clipPath52">
      <path
         d="M 0,660 H 660 V 0 H 0 Z"
         transform="translate(-121.29051,-281.52051)"
         id="path52" />
    </clipPath>
    <clipPath
       clipPathUnits="userSpaceOnUse"
       id="clipPath54">
      <path
         d="M 0,660 H 660 V 0 H 0 Z"
         transform="translate(-316.73341,-281.52051)"
         id="path54" />
    </clipPath>
    <clipPath
       clipPathUnits="userSpaceOnUse"
       id="clipPath56">
      <path
         d="M 0,660 H 660 V 0 H 0 Z"
         transform="translate(-361.22751,-188.6914)"
         id="path56" />
    </clipPath>
    <clipPath
       clipPathUnits="userSpaceOnUse"
       id="clipPath58">
      <path
         d="M 0,660 H 660 V 0 H 0 Z"
         transform="translate(-429.11131,-193.4736)"
         id="path58" />
    </clipPath>
    <clipPath
       clipPathUnits="userSpaceOnUse"
       id="clipPath60">
      <path
         d="M 0,660 H 660 V 0 H 0 Z"
         transform="translate(-458.84571,-206.3281)"
         id="path60" />
    </clipPath>
  </defs>
  <sodipodi:namedview
     id="namedview1"
     pagecolor="#ffffff"
     bordercolor="#000000"
     borderopacity="0.25"
     inkscape:showpageshadow="2"
     inkscape:pageopacity="0.0"
     inkscape:pagecheckerboard="0"
     inkscape:deskcolor="#d1d1d1"
     inkscape:zoom="0.67272727"
     inkscape:cx="439.25676"
     inkscape:cy="440"
     inkscape:window-width="1440"
     inkscape:window-height="830"
     inkscape:window-x="-6"
     inkscape:window-y="-6"
     inkscape:window-maximized="1"
     inkscape:current-layer="g1">
    <inkscape:page
       x="0"
       y="0"
       inkscape:label="1"
       id="page1"
       width="880"
       height="880"
       margin="0 0 0 0.55145198"
       bleed="0" />
  </sodipodi:namedview>
  <g
     id="g1"
     inkscape:groupmode="layer"
     inkscape:label="1">
    <g
       id="group-MC0">
      <path
         id="path2"
         d="M 0.414,0 H 660 V 660 H 0.414 Z"
         style="fill:#9adcc7;fill-opacity:1;fill-rule:nonzero;stroke:none"
         transform="matrix(1.3333333,0,0,-1.3333333,0,880)" />
      <path
         id="path3"
         d="m 0,0 c 97.806,0 177.579,79.772 177.579,177.581 0,97.808 -79.773,177.58 -177.579,177.58 -97.809,0 -177.58,-79.772 -177.58,-177.58 C -177.58,79.772 -97.809,0 0,0"
         style="fill:#a8e1d0;fill-opacity:1;fill-rule:evenodd;stroke:none"
         transform="matrix(1.3333333,0,0,-1.3333333,440.6348,552.66533)"
         clip-path="url(#clipPath4)" />
      <path
         id="path5"
         d="m 0,0 -241.586,-8.785 279.235,-11.295 28.865,-44.551 -246.606,-11.923 251.626,-7.53 8.785,-61.494 -219.624,-10.667 208.956,-14.433 35.766,63.378 L 25.1,4.392 Z m -439.246,-36.394 271.077,-4.393 -288.019,-14.432 7.53,-59.612 353.278,-10.04 -380.888,-15.059 13.178,107.301 z"
         style="fill:#9adcc7;fill-opacity:1;fill-rule:evenodd;stroke:none"
         transform="matrix(1.3333333,0,0,-1.3333333,722.9544,130.15293)"
         clip-path="url(#clipPath6)" />
      <path
         id="path7"
         d="m 0.414,-0.121 h 660.122 v 355.16 H 0.414 Z"
         style="fill:#75c7b0;fill-opacity:1;fill-rule:evenodd;stroke:none"
         transform="matrix(1.3333333,0,0,-1.3333333,0,880)"
         clip-path="url(#clipPath8)" />
      <path
         id="path9"
         d="m 0,0 23.819,47.736 52.219,-36.504 44.587,5.264 91.307,-99.334 H 33.284 Z"
         style="fill:#d0efe6;fill-opacity:1;fill-rule:evenodd;stroke:none"
         transform="matrix(1.3333333,0,0,-1.3333333,470.76427,394.18813)"
         clip-path="url(#clipPath10)" />
      <path
         id="path11"
         d="m 0,0 12.611,4.368 50.998,-54.406 21.072,0.703 70.237,-49.844 H 37.958 Z"
         style="fill:#9adcc7;fill-opacity:1;fill-rule:evenodd;stroke:none"
         transform="matrix(1.3333333,0,0,-1.3333333,481.63667,372.4004)"
         clip-path="url(#clipPath12)" />
      <path
         id="path13"
         d="M 0,0 68.405,154.438 206.437,-75.115 H 57.718 Z"
         style="fill:#ffffff;fill-opacity:1;fill-rule:evenodd;stroke:none"
         transform="matrix(1.3333333,0,0,-1.3333333,285.90493,404.48573)"
         clip-path="url(#clipPath14)" />
      <path
         id="path15"
         d="m 0,0 29.62,58.616 4.276,-78.975 z"
         style="fill:#9adcc7;fill-opacity:1;fill-rule:evenodd;stroke:none"
         transform="matrix(1.3333333,0,0,-1.3333333,312.3744,412.90947)"
         clip-path="url(#clipPath16)" />
      <path
         id="path17"
         d="m 0,0 -9.465,-85.994 53.745,-63.18 4.886,-80.379 h 88.866 z"
         style="fill:#d0efe6;fill-opacity:1;fill-rule:evenodd;stroke:none"
         transform="matrix(1.3333333,0,0,-1.3333333,377.112,198.5684)"
         clip-path="url(#clipPath18)" />
      <path
         id="path19"
         d="M 0,0 59.244,-80.379 H 4.886 Z"
         style="fill:#9adcc7;fill-opacity:1;fill-rule:evenodd;stroke:none"
         transform="matrix(1.3333333,0,0,-1.3333333,436.15173,397.46747)"
         clip-path="url(#clipPath20)" />
      <path
         id="path21"
         d="M 0,0 97.763,103.194 159.613,71.663 260.367,0 H 126.192 Z"
         style="fill:#ffffff;fill-opacity:1;fill-rule:evenodd;stroke:none"
         transform="matrix(1.3333333,0,0,-1.3333333,127.92507,504.63933)"
         clip-path="url(#clipPath22)" />
      <path
         id="path23"
         d="M 0,0 -33.417,103.194 28.433,71.663 129.187,0 Z"
         style="fill:#d0efe6;fill-opacity:1;fill-rule:evenodd;stroke:none"
         transform="matrix(1.3333333,0,0,-1.3333333,302.83133,504.63933)"
         clip-path="url(#clipPath24)" />
      <path
         id="path25"
         d="M 0,0 46.722,51.948 40.31,17.55 75.123,0 Z"
         style="fill:#d0efe6;fill-opacity:1;fill-rule:evenodd;stroke:none"
         transform="matrix(1.3333333,0,0,-1.3333333,161.72067,504.63933)"
         clip-path="url(#clipPath26)" />
      <path
         id="path27"
         d="M 0,0 -93.446,56.862 -99.157,29.483 -89.61,0 h 28.227 l 0.46,10.705 L -17.714,0 Z"
         style="fill:#9adcc7;fill-opacity:1;fill-rule:evenodd;stroke:none"
         transform="matrix(1.3333333,0,0,-1.3333333,422.3112,504.63933)"
         clip-path="url(#clipPath28)" />
      <path
         id="path29"
         d="M 0,0 20.551,21.391 36.14,17.083 15.665,31.395 Z"
         style="fill:#ffffff;fill-opacity:1;fill-rule:evenodd;stroke:none"
         transform="matrix(1.3333333,0,0,-1.3333333,481.63667,372.4004)"
         clip-path="url(#clipPath30)" />
      <path
         id="path31"
         d="M 0,0 49.132,0.318 36.606,12.942 Z"
         style="fill:#ffffff;fill-opacity:1;fill-rule:evenodd;stroke:none"
         transform="matrix(1.3333333,0,0,-1.3333333,572.1484,379.2116)"
         clip-path="url(#clipPath32)" />
      <path
         id="path33"
         d="M 0,0 2.139,-19.654 57.108,-58.266 Z"
         style="fill:#9adcc7;fill-opacity:1;fill-rule:evenodd;stroke:none"
         transform="matrix(1.3333333,0,0,-1.3333333,611.79427,397.5248)"
         clip-path="url(#clipPath34)" />
      <path
         id="path35"
         d="m 0,0 23.819,-44.681 52.219,34.167 44.587,-4.928 91.307,92.975 H 33.284 Z"
         style="fill:#85d3bb;fill-opacity:1;fill-rule:evenodd;stroke:none"
         transform="matrix(1.3333333,0,0,-1.3333333,470.76427,608.01693)"
         clip-path="url(#clipPath36)" />
      <path
         id="path37"
         d="m 0,0 12.611,-4.089 50.998,50.922 21.072,-0.657 70.237,46.653 H 37.958 Z"
         style="fill:#75c7b0;fill-opacity:1;fill-rule:evenodd;stroke:none"
         transform="matrix(1.3333333,0,0,-1.3333333,481.63667,628.41147)"
         clip-path="url(#clipPath38)" />
      <path
         id="path39"
         d="M 0,0 68.405,-144.55 206.437,70.305 H 57.718 Z"
         style="fill:#a3dfcc;fill-opacity:1;fill-rule:evenodd;stroke:none"
         transform="matrix(1.3333333,0,0,-1.3333333,285.90493,598.37893)"
         clip-path="url(#clipPath40)" />
      <path
         id="path41"
         d="m 0,0 29.62,-54.864 4.276,73.918 z"
         style="fill:#75c7b0;fill-opacity:1;fill-rule:evenodd;stroke:none"
         transform="matrix(1.3333333,0,0,-1.3333333,312.3744,590.4948)"
         clip-path="url(#clipPath42)" />
      <path
         id="path43"
         d="m 0,0 -9.465,80.487 53.745,59.134 4.886,75.234 h 88.866 z"
         style="fill:#85d3bb;fill-opacity:1;fill-rule:evenodd;stroke:none"
         transform="matrix(1.3333333,0,0,-1.3333333,377.112,791.112)"
         clip-path="url(#clipPath44)" />
      <path
         id="path45"
         d="M 0,0 59.244,75.233 H 4.886 Z"
         style="fill:#9adcc7;fill-opacity:1;fill-rule:evenodd;stroke:none"
         transform="matrix(1.3333333,0,0,-1.3333333,436.15173,604.95053)"
         clip-path="url(#clipPath46)" />
      <path
         id="path47"
         d="m 0,0 97.763,-96.587 61.85,29.514 L 260.367,0 H 126.192 Z"
         style="fill:#a3dfcc;fill-opacity:1;fill-rule:evenodd;stroke:none"
         transform="matrix(1.3333333,0,0,-1.3333333,127.92507,504.63933)"
         clip-path="url(#clipPath48)" />
      <path
         id="path49"
         d="M 0,0 -33.417,-96.587 28.433,-67.073 129.187,0 Z"
         style="fill:#85d3bb;fill-opacity:1;fill-rule:evenodd;stroke:none"
         transform="matrix(1.3333333,0,0,-1.3333333,302.83133,504.63933)"
         clip-path="url(#clipPath50)" />
      <path
         id="path51"
         d="M 0,0 46.722,-48.622 40.31,-16.427 75.123,0 Z"
         style="fill:#85d3bb;fill-opacity:1;fill-rule:evenodd;stroke:none"
         transform="matrix(1.3333333,0,0,-1.3333333,161.72067,504.63933)"
         clip-path="url(#clipPath52)" />
      <path
         id="path53"
         d="M 0,0 -93.446,-53.223 -99.157,-27.596 -89.61,0 h 28.227 l 0.46,-10.022 L -17.714,0 Z"
         style="fill:#75c7b0;fill-opacity:1;fill-rule:evenodd;stroke:none"
         transform="matrix(1.3333333,0,0,-1.3333333,422.3112,504.63933)"
         clip-path="url(#clipPath54)" />
      <path
         id="path55"
         d="M 0,0 20.551,-20.021 36.14,-15.989 15.665,-29.385 Z"
         style="fill:#a3dfcc;fill-opacity:1;fill-rule:evenodd;stroke:none"
         transform="matrix(1.3333333,0,0,-1.3333333,481.63667,628.41147)"
         clip-path="url(#clipPath56)" />
      <path
         id="path57"
         d="M 0,0 49.132,-0.301 36.606,-12.115 Z"
         style="fill:#a3dfcc;fill-opacity:1;fill-rule:evenodd;stroke:none"
         transform="matrix(1.3333333,0,0,-1.3333333,572.1484,622.0352)"
         clip-path="url(#clipPath58)" />
      <path
         id="path59"
         d="M 0,0 2.139,18.398 57.108,54.535 Z"
         style="fill:#75c7b0;fill-opacity:1;fill-rule:evenodd;stroke:none"
         transform="matrix(1.3333333,0,0,-1.3333333,611.79427,604.89587)"
         clip-path="url(#clipPath60)" />
    </g>
  </g>
</svg>
