<?xml version="1.0" encoding="UTF-8" standalone="no"?>
<!-- Created with Inkscape (http://www.inkscape.org/) -->

<svg
   version="1.1"
   id="svg1"
   width="880"
   height="880"
   viewBox="0 0 880 880"
   sodipodi:docname="lake-nature-landscape.svg"
   inkscape:version="1.3.2 (091e20e, 2023-11-25, custom)"
   xmlns:inkscape="http://www.inkscape.org/namespaces/inkscape"
   xmlns:sodipodi="http://sodipodi.sourceforge.net/DTD/sodipodi-0.dtd"
   xmlns="http://www.w3.org/2000/svg"
   xmlns:svg="http://www.w3.org/2000/svg">
  <defs
     id="defs1">
    <clipPath
       clipPathUnits="userSpaceOnUse"
       id="clipPath7">
      <path
         d="M 0,660 H 660 V 0 H 0 Z"
         transform="translate(0,-226.3438)"
         id="path7" />
    </clipPath>
    <clipPath
       clipPathUnits="userSpaceOnUse"
       id="clipPath9">
      <path
         d="M 0,660 H 660 V 0 H 0 Z"
         transform="translate(-59.414101,-196.1563)"
         id="path9" />
    </clipPath>
    <clipPath
       clipPathUnits="userSpaceOnUse"
       id="clipPath11">
      <path
         d="M 0,660 H 660 V 0 H 0 Z"
         transform="translate(-659.00002,-527.37011)"
         id="path11" />
    </clipPath>
    <clipPath
       clipPathUnits="userSpaceOnUse"
       id="clipPath13">
      <path
         d="M 0,660 H 660 V 0 H 0 Z"
         transform="translate(-250.70071,-238.3018)"
         id="path13" />
    </clipPath>
    <clipPath
       clipPathUnits="userSpaceOnUse"
       id="clipPath15">
      <path
         d="M 0,660 H 660 V 0 H 0 Z"
         transform="translate(-1.9766001,-238.3018)"
         id="path15" />
    </clipPath>
    <clipPath
       clipPathUnits="userSpaceOnUse"
       id="clipPath17">
      <path
         d="M 0,660 H 660 V 0 H 0 Z"
         transform="translate(0,-226.3438)"
         id="path17" />
    </clipPath>
    <clipPath
       clipPathUnits="userSpaceOnUse"
       id="clipPath19">
      <path
         d="M 0,660 H 660 V 0 H 0 Z"
         transform="translate(-557.76862,-561.67381)"
         id="path19" />
    </clipPath>
    <clipPath
       clipPathUnits="userSpaceOnUse"
       id="clipPath21">
      <path
         d="M 0,660 H 660 V 0 H 0 Z"
         transform="translate(-557.76862,-561.67381)"
         id="path21" />
    </clipPath>
    <clipPath
       clipPathUnits="userSpaceOnUse"
       id="clipPath23">
      <path
         d="M 0,660 H 660 V 0 H 0 Z"
         transform="translate(-506.41211,-155.2441)"
         id="path23" />
    </clipPath>
    <clipPath
       clipPathUnits="userSpaceOnUse"
       id="clipPath25">
      <path
         d="M 0,660 H 660 V 0 H 0 Z"
         transform="translate(-659.00002,-284.54301)"
         id="path25" />
    </clipPath>
    <clipPath
       clipPathUnits="userSpaceOnUse"
       id="clipPath27">
      <path
         d="M 0,660 H 660 V 0 H 0 Z"
         transform="translate(-643.57421,-103.3486)"
         id="path27" />
    </clipPath>
    <clipPath
       clipPathUnits="userSpaceOnUse"
       id="clipPath29">
      <path
         d="M 0,660 H 660 V 0 H 0 Z"
         transform="translate(-151.81791,-507.45211)"
         id="path29" />
    </clipPath>
    <clipPath
       clipPathUnits="userSpaceOnUse"
       id="clipPath31">
      <path
         d="M 0,660 H 660 V 0 H 0 Z"
         transform="translate(-291.67381,-184.9482)"
         id="path31" />
    </clipPath>
    <clipPath
       clipPathUnits="userSpaceOnUse"
       id="clipPath33">
      <path
         d="M 0,660 H 660 V 0 H 0 Z"
         transform="translate(-399.35061,-211.26171)"
         id="path33" />
    </clipPath>
    <clipPath
       clipPathUnits="userSpaceOnUse"
       id="clipPath35">
      <path
         d="M 0,660 H 660 V 0 H 0 Z"
         transform="translate(-506.41211,-73.206099)"
         id="path35" />
    </clipPath>
    <clipPath
       clipPathUnits="userSpaceOnUse"
       id="clipPath37">
      <path
         d="M 0,660 H 660 V 0 H 0 Z"
         transform="translate(-21.491701,-31.332998)"
         id="path37" />
    </clipPath>
    <clipPath
       clipPathUnits="userSpaceOnUse"
       id="clipPath39">
      <path
         d="M 0,660 H 660 V 0 H 0 Z"
         transform="translate(-246.73581,-51.717804)"
         id="path39" />
    </clipPath>
  </defs>
  <sodipodi:namedview
     id="namedview1"
     pagecolor="#ffffff"
     bordercolor="#000000"
     borderopacity="0.25"
     inkscape:showpageshadow="2"
     inkscape:pageopacity="0.0"
     inkscape:pagecheckerboard="0"
     inkscape:deskcolor="#d1d1d1"
     inkscape:zoom="0.69318182"
     inkscape:cx="439.27869"
     inkscape:cy="440"
     inkscape:window-width="1440"
     inkscape:window-height="830"
     inkscape:window-x="-6"
     inkscape:window-y="-6"
     inkscape:window-maximized="1"
     inkscape:current-layer="g1">
    <inkscape:page
       x="0"
       y="0"
       inkscape:label="1"
       id="page1"
       width="880"
       height="880"
       margin="0 1.3333334 1.3333334 0"
       bleed="0" />
  </sodipodi:namedview>
  <g
     id="g1"
     inkscape:groupmode="layer"
     inkscape:label="1">
    <g
       id="group-MC0">
      <path
         id="path2"
         d="M 0,0 H 659 V 659 H 0 Z"
         style="fill:#b8dcff;fill-opacity:1;fill-rule:nonzero;stroke:none"
         transform="matrix(1.3333333,0,0,-1.3333333,0,880)" />
      <path
         id="path3"
         d="M 0,0 H 659 V 226.344 H 0 Z"
         style="fill:#4ea0f2;fill-opacity:1;fill-rule:nonzero;stroke:none"
         transform="matrix(1.3333333,0,0,-1.3333333,0,880)" />
      <path
         id="path4"
         d="m 0,0 343.578,-52.622 v -50.727 h 55.104 v 42.286 l 34.999,-5.36 v -36.926 h 21.782 v 33.59 l 25.744,-3.943 v -29.647 h 36.636 v 24.036 l 17.069,-2.615 V 0 Z"
         style="fill:#2e83d9;fill-opacity:1;fill-rule:nonzero;stroke:none"
         transform="matrix(1.3333333,0,0,-1.3333333,165.45,742.2016)" />
      <path
         id="path5"
         d="m 0,0 -250.74,0.266 240.762,-82.472 124.984,42.811 89.001,-30.486 203.517,69.714 -408.3,0.433 z"
         style="fill:#2e83d9;fill-opacity:1;fill-rule:nonzero;stroke:none"
         transform="matrix(1.3333333,0,0,-1.3333333,335.3016,562.618)" />
      <path
         id="path6"
         d="m 0,0 v -28.572 c 14.672,0.03 27.549,3.727 34.905,9.29 4.52,-0.905 9.475,-1.405 14.674,-1.405 13.566,0 25.486,3.399 32.309,8.528 5.928,-2.199 13.35,-3.508 21.405,-3.508 5.154,0 10.049,0.535 14.459,1.497 4.965,-5.655 16.572,-9.623 30.097,-9.623 13.686,0 25.404,4.061 30.268,9.824 1.82,-0.174 3.7,-0.265 5.625,-0.265 6.08,0 11.722,0.905 16.381,2.451 4.273,-11.713 25.458,-20.613 50.948,-20.613 22.751,0 42.071,7.088 49,16.94 1.777,-0.139 3.6,-0.211 5.458,-0.211 9.099,0 17.362,1.73 23.453,4.546 3.432,-6.727 16.01,-11.716 31.004,-11.716 1.48,0 2.937,0.05 4.363,0.144 4.312,-3.385 12.052,-5.641 20.887,-5.641 12.415,0 22.675,4.459 24.284,10.239 4.233,-0.898 8.915,-1.396 13.834,-1.396 10.299,0 19.539,2.183 25.844,5.644 9.584,-4.386 22.533,-7.079 36.784,-7.079 26.069,0 47.777,9.007 52.506,20.926 L 389.467,0 c -0.134,-0.37 -0.243,-0.748 -0.327,-1.125 -0.357,0.384 -0.745,0.758 -1.164,1.125 z"
         style="fill:#2e83d9;fill-opacity:1;fill-rule:evenodd;stroke:none"
         transform="matrix(1.3333333,0,0,-1.3333333,0,578.20827)"
         clip-path="url(#clipPath7)" />
      <path
         id="path8"
         d="M 0,0 199.676,-1.131 399.35,-2.261 V 0 2.261 L 199.676,1.13 Z"
         style="fill:#82c1ff;fill-opacity:1;fill-rule:evenodd;stroke:none"
         transform="matrix(1.3333333,0,0,-1.3333333,79.2188,618.45827)"
         clip-path="url(#clipPath9)" />
      <path
         id="path10"
         d="m 0,0 v -301.026 h -659 v 251.145 c 8.384,3.281 17.509,5.084 27.055,5.084 41.013,0 74.26,-33.249 74.26,-74.26 0,-14.049 -3.904,-27.185 -10.683,-38.386 9.255,4.305 19.571,6.713 30.451,6.713 39.144,0 71.019,-31.116 72.245,-69.963 3.97,1.063 8.142,1.632 12.446,1.632 20.403,0 37.832,-12.726 44.789,-30.671 5.173,1.906 10.764,2.948 16.6,2.948 1.047,0 2.085,-0.039 3.116,-0.104 10.142,26.684 35.951,45.649 66.194,45.649 19.072,0 36.381,-7.545 49.111,-19.809 12.925,20.805 35.983,34.661 62.278,34.661 11.768,0 22.886,-2.775 32.74,-7.706 -2.61,8.019 -4.025,16.575 -4.025,25.462 0,45.423 36.824,82.247 82.247,82.247 11.932,0 23.268,-2.543 33.501,-7.113 5.844,9.892 14.024,18.236 23.782,24.277 -5.542,7.318 -8.832,16.436 -8.832,26.324 0,24.105 19.54,43.646 43.645,43.646 C -5.318,0.75 -2.617,0.49 0,0"
         style="fill:#e8f4ff;fill-opacity:1;fill-rule:evenodd;stroke:none"
         transform="matrix(1.3333333,0,0,-1.3333333,878.66667,176.83987)"
         clip-path="url(#clipPath11)" />
      <path
         id="path12"
         d="M 0,0 204.782,123.97 408.299,0.764 Z"
         style="fill:#b33204;fill-opacity:1;fill-rule:evenodd;stroke:none"
         transform="matrix(1.3333333,0,0,-1.3333333,334.2676,562.26427)"
         clip-path="url(#clipPath13)" />
      <path
         id="path14"
         d="M 0,0 240.762,145.753 480.041,0.899 Z"
         style="fill:#d15326;fill-opacity:1;fill-rule:evenodd;stroke:none"
         transform="matrix(1.3333333,0,0,-1.3333333,2.6354667,562.26427)"
         clip-path="url(#clipPath15)" />
      <path
         id="path16"
         d="m 0,0 v 59.19 c 14.672,-0.06 27.549,-7.718 34.905,-19.245 4.52,1.873 9.475,2.909 14.674,2.909 13.566,0 25.486,-7.039 32.309,-17.666 5.928,4.558 13.35,7.269 21.405,7.269 5.154,0 10.049,-1.109 14.459,-3.101 4.965,11.716 16.572,19.935 30.097,19.935 13.686,0 25.404,-8.415 30.268,-20.351 1.82,0.358 3.7,0.548 5.625,0.548 6.08,0 11.722,-1.876 16.381,-5.078 4.273,24.266 25.458,42.703 50.948,42.703 22.751,0 42.071,-14.686 49,-35.094 1.777,0.287 3.6,0.438 5.458,0.438 9.099,0 17.362,-3.584 23.453,-9.418 3.432,13.937 16.01,24.272 31.004,24.272 1.48,0 2.937,-0.102 4.363,-0.298 4.312,7.009 12.052,11.683 20.887,11.683 12.415,0 22.675,-9.234 24.284,-21.212 4.233,1.862 8.915,2.895 13.834,2.895 10.299,0 19.539,-4.525 25.844,-11.693 9.584,9.087 22.533,14.664 36.784,14.664 26.069,0 47.777,-18.66 52.506,-43.35 z"
         style="fill:#bad526;fill-opacity:1;fill-rule:evenodd;stroke:none"
         transform="matrix(1.3333333,0,0,-1.3333333,0,578.20827)"
         clip-path="url(#clipPath17)" />
      <path
         id="path18"
         d="M 0,0 V 85.538 L -34.999,47.655 V 32.611 Z m -90.104,97.326 h 55.105 V 64.689 L 0,92.581 v 4.745 h 5.953 4.939 10.89 V 31.264 l 25.744,28.333 v 37.729 h 36.636 v -83.34 l 17.069,13.601 V 25.113 L 84.162,5.682 V -282.913 L 47.526,-295.321 V 51.753 L 21.782,18.592 V -304.043 L 0,-311.421 v 298.267 l -34.999,40.715 v -350.836 l -55.105,-18.667 V 30.309 l -50.977,67.017 h 2.97 l 48.007,-55.194 z"
         style="fill:#663c12;fill-opacity:1;fill-rule:evenodd;stroke:none"
         transform="matrix(1.3333333,0,0,-1.3333333,743.69147,131.1016)"
         clip-path="url(#clipPath19)" />
      <path
         id="path20"
         d="M 0,0 V 85.538 L -34.999,47.655 V 32.611 Z m -90.104,97.326 h 55.105 V 64.689 L 0,92.581 v 4.745 h 5.953 4.939 10.89 V 31.264 l 25.744,28.333 v 37.729 h 36.636 v -83.34 l 17.069,13.601 V 25.113 L 84.162,5.682 V -110.97 L 47.526,-89.82 V 51.753 L 21.782,18.592 V -74.956 L 0,-62.38 v 49.226 l -34.999,40.715 v -69.734 l -55.105,31.814 v 40.668 l -50.977,67.017 h 2.97 l 48.007,-55.194 z"
         style="fill:#784b1e;fill-opacity:1;fill-rule:evenodd;stroke:none"
         transform="matrix(1.3333333,0,0,-1.3333333,743.69147,131.1016)"
         clip-path="url(#clipPath21)" />
      <path
         id="path22"
         d="M 0,0 -253.207,-1.13 -506.412,-2.26 V 0 2.263 l 253.205,-1.132 z"
         style="fill:#82c1ff;fill-opacity:1;fill-rule:evenodd;stroke:none"
         transform="matrix(1.3333333,0,0,-1.3333333,675.21613,673.00787)"
         clip-path="url(#clipPath23)" />
      <path
         id="path24"
         d="M 0,0 -534.912,-181.194 H 0 Z"
         style="fill:#acc906;fill-opacity:1;fill-rule:evenodd;stroke:none"
         transform="matrix(1.3333333,0,0,-1.3333333,878.66667,500.60933)"
         clip-path="url(#clipPath25)" />
      <path
         id="path26"
         d="M 0,0 -175.909,116.383 -120.805,135.05 15.426,50.382 V 0 Z m -80.041,148.857 16.018,5.425 79.449,-52.071 V 79.347 l -101.232,67.557 z m 59.924,20.299 -18.162,-6.152 53.705,-36.666 v 38.111 l -17.069,10.963 z"
         style="fill:#556307;fill-opacity:1;fill-rule:evenodd;stroke:none"
         transform="matrix(1.3333333,0,0,-1.3333333,858.09893,742.20187)"
         clip-path="url(#clipPath27)" />
      <path
         id="path28"
         d="m 0,0 c 31.902,0 57.923,26.02 57.923,57.922 0,31.904 -26.021,57.924 -57.923,57.924 -31.903,0 -57.923,-26.02 -57.923,-57.924 C -57.923,26.02 -31.903,0 0,0"
         style="fill:#ffffff;fill-opacity:1;fill-rule:evenodd;stroke:none"
         transform="matrix(1.3333333,0,0,-1.3333333,202.42387,203.3972)"
         clip-path="url(#clipPath29)" />
      <path
         id="path30"
         d="M 0,0 -145.837,-1.13 -291.674,-2.261 V 0 2.261 l 145.837,-1.13 z"
         style="fill:#82c1ff;fill-opacity:1;fill-rule:evenodd;stroke:none"
         transform="matrix(1.3333333,0,0,-1.3333333,388.8984,633.4024)"
         clip-path="url(#clipPath31)" />
      <path
         id="path32"
         d="m 0,0 -199.676,-1.132 -199.675,-1.13 V 0 2.261 l 199.675,-1.132 z"
         style="fill:#82c1ff;fill-opacity:1;fill-rule:evenodd;stroke:none"
         transform="matrix(1.3333333,0,0,-1.3333333,532.46747,598.31773)"
         clip-path="url(#clipPath33)" />
      <path
         id="path34"
         d="M 0,0 -253.207,-1.678 -506.412,-3.355 V 0 3.355 l 253.205,-1.677 z"
         style="fill:#82c1ff;fill-opacity:1;fill-rule:evenodd;stroke:none"
         transform="matrix(1.3333333,0,0,-1.3333333,675.21613,782.39187)"
         clip-path="url(#clipPath35)" />
      <path
         id="path36"
         d="M 0,0 318.755,-1.677 637.508,-3.355 V 0 3.355 L 318.755,1.678 Z"
         style="fill:#82c1ff;fill-opacity:1;fill-rule:evenodd;stroke:none"
         transform="matrix(1.3333333,0,0,-1.3333333,28.6556,838.22267)"
         clip-path="url(#clipPath37)" />
      <path
         id="path38"
         d="m 0,0 206.134,-1.678 206.13,-1.677 V 0 3.355 L 206.134,1.678 Z"
         style="fill:#82c1ff;fill-opacity:1;fill-rule:evenodd;stroke:none"
         transform="matrix(1.3333333,0,0,-1.3333333,328.98107,811.04293)"
         clip-path="url(#clipPath39)" />
    </g>
  </g>
</svg>
