<?xml version="1.0" encoding="UTF-8" standalone="no"?>
<!-- Created with Inkscape (http://www.inkscape.org/) -->

<svg
   version="1.1"
   id="svg1"
   width="880"
   height="880"
   viewBox="0 0 880 880"
   sodipodi:docname="life-buoy-in-the-sand.svg"
   inkscape:version="1.3.2 (091e20e, 2023-11-25, custom)"
   xmlns:inkscape="http://www.inkscape.org/namespaces/inkscape"
   xmlns:sodipodi="http://sodipodi.sourceforge.net/DTD/sodipodi-0.dtd"
   xmlns="http://www.w3.org/2000/svg"
   xmlns:svg="http://www.w3.org/2000/svg">
  <defs
     id="defs1">
    <clipPath
       clipPathUnits="userSpaceOnUse"
       id="clipPath4">
      <path
         d="M 0,660 H 660 V 0 H 0 Z"
         transform="translate(-659.06542,-427.24801)"
         id="path4" />
    </clipPath>
    <clipPath
       clipPathUnits="userSpaceOnUse"
       id="clipPath6">
      <path
         d="M 0,660 H 660 V 0 H 0 Z"
         id="path6" />
    </clipPath>
    <clipPath
       clipPathUnits="userSpaceOnUse"
       id="clipPath8">
      <path
         d="M 0,660 H 660 V 0 H 0 Z"
         transform="translate(-659.06542,-250.68361)"
         id="path8" />
    </clipPath>
    <clipPath
       clipPathUnits="userSpaceOnUse"
       id="clipPath10">
      <path
         d="M 0,660 H 660 V 0 H 0 Z"
         transform="translate(-659.06542,-209.96481)"
         id="path10" />
    </clipPath>
    <clipPath
       clipPathUnits="userSpaceOnUse"
       id="clipPath12">
      <path
         d="M 0,660 H 660 V 0 H 0 Z"
         transform="translate(-659.06542,-167.376)"
         id="path12" />
    </clipPath>
    <clipPath
       clipPathUnits="userSpaceOnUse"
       id="clipPath14">
      <path
         d="M 0,660 H 660 V 0 H 0 Z"
         transform="translate(-329.33011,-308.42971)"
         id="path14" />
    </clipPath>
    <clipPath
       clipPathUnits="userSpaceOnUse"
       id="clipPath16">
      <path
         d="M 0,660 H 660 V 0 H 0 Z"
         transform="translate(-329.33011,-308.42971)"
         id="path16" />
    </clipPath>
    <clipPath
       clipPathUnits="userSpaceOnUse"
       id="clipPath18">
      <path
         d="M 0,660 H 660 V 0 H 0 Z"
         transform="translate(-164.2456,-263.94531)"
         id="path18" />
    </clipPath>
    <clipPath
       clipPathUnits="userSpaceOnUse"
       id="clipPath20">
      <path
         d="M 0,660 H 660 V 0 H 0 Z"
         transform="translate(-202.27831,-236.95021)"
         id="path20" />
    </clipPath>
    <clipPath
       clipPathUnits="userSpaceOnUse"
       id="clipPath22">
      <path
         d="M 0,660 H 660 V 0 H 0 Z"
         transform="translate(-494.04591,-263.94531)"
         id="path22" />
    </clipPath>
    <clipPath
       clipPathUnits="userSpaceOnUse"
       id="clipPath24">
      <path
         d="M 0,660 H 660 V 0 H 0 Z"
         transform="translate(-456.01371,-236.95021)"
         id="path24" />
    </clipPath>
    <clipPath
       clipPathUnits="userSpaceOnUse"
       id="clipPath26">
      <path
         d="M 0,660 H 660 V 0 H 0 Z"
         transform="translate(-164.2456,-148.41891)"
         id="path26" />
    </clipPath>
    <clipPath
       clipPathUnits="userSpaceOnUse"
       id="clipPath28">
      <path
         d="M 0,660 H 660 V 0 H 0 Z"
         transform="translate(-265.9897,-78.112299)"
         id="path28" />
    </clipPath>
    <clipPath
       clipPathUnits="userSpaceOnUse"
       id="clipPath30">
      <path
         d="M 0,660 H 660 V 0 H 0 Z"
         transform="translate(-494.04591,-148.41891)"
         id="path30" />
    </clipPath>
    <clipPath
       clipPathUnits="userSpaceOnUse"
       id="clipPath32">
      <path
         d="M 0,660 H 660 V 0 H 0 Z"
         transform="translate(0.40720001,-73.128902)"
         id="path32" />
    </clipPath>
    <clipPath
       clipPathUnits="userSpaceOnUse"
       id="clipPath34">
      <path
         d="M 0,660 H 660 V 0 H 0 Z"
         transform="translate(-100.9165,0.47360251)"
         id="path34" />
    </clipPath>
    <clipPath
       clipPathUnits="userSpaceOnUse"
       id="clipPath36">
      <path
         d="M 0,660 H 660 V 0 H 0 Z"
         transform="translate(-461.08691,-173.82711)"
         id="path36" />
    </clipPath>
    <clipPath
       clipPathUnits="userSpaceOnUse"
       id="clipPath38">
      <path
         d="M 0,660 H 660 V 0 H 0 Z"
         transform="translate(-529.58692,-475.60691)"
         id="path38" />
    </clipPath>
  </defs>
  <sodipodi:namedview
     id="namedview1"
     pagecolor="#ffffff"
     bordercolor="#000000"
     borderopacity="0.25"
     inkscape:showpageshadow="2"
     inkscape:pageopacity="0.0"
     inkscape:pagecheckerboard="0"
     inkscape:deskcolor="#d1d1d1"
     inkscape:zoom="0.69318182"
     inkscape:cx="439.27869"
     inkscape:cy="440"
     inkscape:window-width="1440"
     inkscape:window-height="830"
     inkscape:window-x="-6"
     inkscape:window-y="-6"
     inkscape:window-maximized="1"
     inkscape:current-layer="g1">
    <inkscape:page
       x="0"
       y="0"
       inkscape:label="1"
       id="page1"
       width="880"
       height="880"
       margin="0 1.244 1.3333334 0"
       bleed="0" />
  </sodipodi:namedview>
  <g
     id="g1"
     inkscape:groupmode="layer"
     inkscape:label="1">
    <g
       id="group-MC0">
      <path
         id="path2"
         d="M 0,0 H 659.065 V 659 H 0 Z"
         style="fill:#c9e4ff;fill-opacity:1;fill-rule:nonzero;stroke:none"
         transform="matrix(1.3333333,0,0,-1.3333333,0,880)" />
      <path
         id="path3"
         d="m 0,0 v -155.978 c -6.259,-4.079 -13.734,-6.449 -21.763,-6.449 -20.186,0 -36.87,14.982 -39.547,34.432 -3.22,3.77 -5.917,7.996 -7.979,12.574 -8.787,-10.363 -21.902,-16.944 -36.555,-16.944 -8.616,0 -16.7,2.276 -23.686,6.257 -6.21,-20.997 -25.64,-36.319 -48.651,-36.319 -22.73,0 -41.967,14.949 -48.42,35.551 -4.18,-1.127 -8.576,-1.731 -13.115,-1.731 -1.176,0 -2.343,0.043 -3.501,0.122 -2.562,-30.584 -28.194,-54.61 -59.442,-54.61 -31.529,0 -57.343,24.463 -59.504,55.444 -0.43,-0.011 -0.86,-0.017 -1.292,-0.017 -3.437,0 -6.797,0.331 -10.052,0.957 -12.368,-20.291 -34.704,-33.838 -60.204,-33.838 -27.695,0 -51.655,15.982 -63.169,39.223 -11.385,-12.006 -27.487,-19.493 -45.338,-19.493 -17.073,0 -32.543,6.851 -43.819,17.949 -7.863,-7.621 -18.582,-12.314 -30.398,-12.314 -19.411,0 -35.863,12.663 -41.552,30.178 -0.478,-0.44 -0.974,-0.864 -1.487,-1.265 V -1.564 c 21.531,-3.852 37.872,-22.673 37.872,-45.312 0,-0.416 -0.006,-0.832 -0.017,-1.246 1.701,0.2 3.43,0.307 5.184,0.307 6.324,0 12.332,-1.346 17.757,-3.762 10.026,21.107 31.538,35.703 56.46,35.703 1.658,0 3.301,-0.066 4.927,-0.192 3.739,20.937 22.041,36.831 44.054,36.831 9.283,0 17.906,-2.826 25.054,-7.666 2.996,31.189 29.271,55.578 61.246,55.578 33.985,0 61.534,-27.549 61.534,-61.535 0,-10.859 -2.816,-21.063 -7.755,-29.92 20.986,-4.138 37.519,-20.673 41.65,-41.661 2.887,0.428 5.841,0.654 8.849,0.654 4.943,0 9.743,-0.605 14.337,-1.74 5.668,21.547 25.281,37.438 48.606,37.438 22.349,0 41.286,-14.588 47.822,-34.757 4.362,1.222 8.96,1.876 13.713,1.876 9.946,0 19.222,-2.864 27.051,-7.81 6.494,18.762 24.316,32.236 45.286,32.236 18.454,0 34.469,-10.436 42.473,-25.725 8.271,11.002 20.757,18.655 35.058,20.563 -0.932,3.014 -1.435,6.219 -1.435,9.54 0,16.971 13.106,30.881 29.748,32.164"
         style="fill:#f2f9ff;fill-opacity:1;fill-rule:evenodd;stroke:none"
         transform="matrix(1.3333333,0,0,-1.3333333,878.75387,310.336)"
         clip-path="url(#clipPath4)" />
      <path
         id="path5"
         d="M -0.408,-0.474 H 659.066 V 329.261 H -0.408 Z"
         style="fill:#91bfed;fill-opacity:1;fill-rule:evenodd;stroke:none"
         transform="matrix(1.3333333,0,0,-1.3333333,0,880)"
         clip-path="url(#clipPath6)" />
      <path
         id="path7"
         d="M 0,0 V -251.157 H -659.474 V -8.795 l 83.072,21.159 c 44.021,11.211 84.737,12.377 128.16,3.487 49.554,-10.148 93.891,-9.049 142.64,3.531 l 46.329,11.959 c 61.128,15.778 117.654,14.097 178.108,-5.301 z"
         style="fill:#ffd38c;fill-opacity:1;fill-rule:evenodd;stroke:none"
         transform="matrix(1.3333333,0,0,-1.3333333,878.75387,545.7552)"
         clip-path="url(#clipPath8)" />
      <path
         id="path9"
         d="M 0,0 V -210.438 H -659.474 V 5.657 c 49.495,7.768 97.772,4.695 146.756,-9.322 68.062,-19.479 130.666,-20.038 198.083,-1.775 51.883,14.055 104.556,15.531 157.704,4.419 C -102.097,-12.486 -52.229,-12.243 0,0"
         style="fill:#f5be65;fill-opacity:1;fill-rule:evenodd;stroke:none"
         transform="matrix(1.3333333,0,0,-1.3333333,878.75387,600.04693)"
         clip-path="url(#clipPath10)" />
      <path
         id="path11"
         d="m 0,0 v -167.85 h -659.474 v 140.822 l 2.676,-0.845 c 68.019,-21.451 134.074,-25.89 202.182,-13.261 58.936,10.928 110.556,10.962 168.332,0.107 73.522,-13.812 144.224,-7.941 219.246,17.919 z"
         style="fill:#e6a43a;fill-opacity:1;fill-rule:evenodd;stroke:none"
         transform="matrix(1.3333333,0,0,-1.3333333,878.75387,656.832)"
         clip-path="url(#clipPath12)" />
      <path
         id="path13"
         d="m 0,0 c -56.273,0 -101.891,-45.619 -101.891,-101.892 0,-56.273 45.618,-101.89 101.891,-101.89 56.273,0 101.892,45.617 101.892,101.89 C 101.892,-45.619 56.273,0 0,0 m 0,72.336 c 96.225,0 174.23,-78.003 174.23,-174.228 0,-96.224 -78.005,-174.23 -174.23,-174.23 -96.225,0 -174.229,78.006 -174.229,174.23 0,96.225 78.004,174.228 174.229,174.228"
         style="fill:#d65311;fill-opacity:1;fill-rule:evenodd;stroke:none"
         transform="matrix(1.3333333,0,0,-1.3333333,439.1068,468.7604)"
         clip-path="url(#clipPath14)" />
      <path
         id="path15"
         d="m 0,0 c -56.273,0 -101.891,-45.619 -101.891,-101.892 0,-56.273 45.618,-101.89 101.891,-101.89 56.273,0 101.892,45.617 101.892,101.89 C 101.892,-45.619 56.273,0 0,0 m 0,20.832 c 73.759,0 133.551,-59.792 133.551,-133.551 0,-73.758 -59.792,-133.55 -133.551,-133.55 -73.758,0 -133.551,59.792 -133.551,133.55 0,73.759 59.793,133.551 133.551,133.551"
         style="fill:#e86625;fill-opacity:1;fill-rule:evenodd;stroke:none"
         transform="matrix(1.3333333,0,0,-1.3333333,439.1068,468.7604)"
         clip-path="url(#clipPath16)" />
      <path
         id="path17"
         d="M 0,0 C 13.293,37.83 39.118,69.757 72.503,90.794 85.58,98.286 127.977,43.067 113.697,30.205 92.644,17.674 76.431,-2.137 68.542,-25.763 64.82,-40.424 -5.018,-16.935 0,0"
         style="fill:#edd4c7;fill-opacity:1;fill-rule:evenodd;stroke:none"
         transform="matrix(1.3333333,0,0,-1.3333333,218.99413,528.07293)"
         clip-path="url(#clipPath18)" />
      <path
         id="path19"
         d="M 0,0 C 11.834,36.478 38.936,66.076 73.772,81.25 78.481,71.68 80.344,62.764 76.465,58.052 54.241,45.316 37.278,24.446 29.627,-0.496 26.011,-4.902 13.398,-3.866 0,0"
         style="fill:#ffebe0;fill-opacity:1;fill-rule:evenodd;stroke:none"
         transform="matrix(1.3333333,0,0,-1.3333333,269.7044,564.0664)"
         clip-path="url(#clipPath20)" />
      <path
         id="path21"
         d="M 0,0 C -13.292,37.83 -39.116,69.757 -72.502,90.794 -85.58,98.286 -127.978,43.067 -113.696,30.205 -92.644,17.674 -76.43,-2.137 -68.542,-25.763 -64.819,-40.424 5.019,-16.935 0,0"
         style="fill:#edd4c7;fill-opacity:1;fill-rule:evenodd;stroke:none"
         transform="matrix(1.3333333,0,0,-1.3333333,658.72787,528.07293)"
         clip-path="url(#clipPath22)" />
      <path
         id="path23"
         d="M 0,0 C -11.835,36.478 -38.936,66.076 -73.773,81.25 -78.48,71.68 -80.344,62.764 -76.465,58.052 -54.24,45.316 -37.278,24.446 -29.627,-0.496 -26.013,-4.902 -13.398,-3.866 0,0"
         style="fill:#ffebe0;fill-opacity:1;fill-rule:evenodd;stroke:none"
         transform="matrix(1.3333333,0,0,-1.3333333,608.01827,564.0664)"
         clip-path="url(#clipPath24)" />
      <path
         id="path25"
         d="m 0,0 c 13.293,-37.828 39.118,-69.757 72.503,-90.793 13.077,-7.491 55.474,47.726 41.194,60.588 C 92.644,-17.674 76.431,2.138 68.542,25.764 64.82,40.424 -5.018,16.935 0,0"
         style="fill:#edd4c7;fill-opacity:1;fill-rule:evenodd;stroke:none"
         transform="matrix(1.3333333,0,0,-1.3333333,218.99413,682.10813)"
         clip-path="url(#clipPath26)" />
      <path
         id="path27"
         d="m 0,0 c 11.313,14.901 19.454,33.345 11.953,40.102 -11.664,6.942 -21.842,16.121 -29.942,26.944 -6.803,9 -12.145,19.168 -15.677,30.144 -3.268,5.668 -19.139,3.859 -34.768,-1.359 C -61.63,54.334 -35.707,19.271 0,0"
         style="fill:#ffebe0;fill-opacity:1;fill-rule:evenodd;stroke:none"
         transform="matrix(1.3333333,0,0,-1.3333333,354.65293,775.85027)"
         clip-path="url(#clipPath28)" />
      <path
         id="path29"
         d="m 0,0 c -13.292,-37.828 -39.116,-69.757 -72.502,-90.793 -13.078,-7.491 -55.476,47.726 -41.194,60.588 21.052,12.531 37.266,32.343 45.154,55.969 C -64.819,40.424 5.019,16.935 0,0"
         style="fill:#edd4c7;fill-opacity:1;fill-rule:evenodd;stroke:none"
         transform="matrix(1.3333333,0,0,-1.3333333,658.72787,682.10813)"
         clip-path="url(#clipPath30)" />
      <path
         id="path31"
         d="M 0,0 V -73.603 H 659.475 V -4.946 L 576.402,6.952 c -44.019,6.305 -84.737,6.961 -128.16,1.962 -49.553,-5.706 -93.891,-5.09 -142.64,1.986 l -46.328,6.725 c -61.128,8.873 -117.655,7.927 -178.109,-2.98 z"
         style="fill:#ffd38c;fill-opacity:1;fill-rule:evenodd;stroke:none"
         transform="matrix(1.3333333,0,0,-1.3333333,-0.54293333,782.4948)"
         clip-path="url(#clipPath32)" />
      <path
         id="path33"
         d="m 0,0 h 72.46 c 0.626,1.895 1.36,3.809 2.209,5.743 17.715,40.374 77.694,73.106 133.967,73.106 56.273,0 87.529,-32.732 69.816,-73.106 C 277.603,3.809 276.657,1.895 275.619,0 h 72.46 c 0.956,1.903 1.865,3.818 2.711,5.743 12.717,28.982 10.67,55.659 -3.098,76.861 l -0.774,-0.087 c -49.552,-5.706 -93.891,-5.09 -142.64,1.986 L 157.95,91.228 C 137.303,94.225 117.181,96.1 97.255,96.852 53.43,74.049 18.093,41.668 2.331,5.743 1.486,3.818 0.716,1.903 0,0"
         style="fill:#e6a43a;fill-opacity:1;fill-rule:evenodd;stroke:none"
         transform="matrix(1.3333333,0,0,-1.3333333,134.55533,880.63147)"
         clip-path="url(#clipPath34)" />
      <path
         id="path35"
         d="m 0,0 c -6.851,-41.547 -32.87,-76.63 -68.679,-95.854 -11.368,14.926 -19.584,33.463 -12.058,40.241 2.419,1.44 4.774,2.977 7.061,4.604 18.401,12.79 32.387,31.487 39.206,53.347 C -30.079,6.972 -14.889,5.019 0,0"
         style="fill:#ffebe0;fill-opacity:1;fill-rule:evenodd;stroke:none"
         transform="matrix(1.3333333,0,0,-1.3333333,614.78253,648.23053)"
         clip-path="url(#clipPath36)" />
      <path
         id="path37"
         d="m 0,0 c 42.688,0 77.505,34.817 77.505,77.505 0,42.688 -34.817,77.505 -77.505,77.505 -42.689,0 -77.505,-34.817 -77.505,-77.505 C -77.505,34.817 -42.689,0 0,0"
         style="fill:#ffffff;fill-opacity:1;fill-rule:evenodd;stroke:none"
         transform="matrix(1.3333333,0,0,-1.3333333,706.11587,245.85747)"
         clip-path="url(#clipPath38)" />
    </g>
  </g>
</svg>
