<?xml version="1.0" encoding="UTF-8" standalone="no"?>
<!-- Created with Inkscape (http://www.inkscape.org/) -->

<svg
   version="1.1"
   id="svg1"
   width="880"
   height="880"
   viewBox="0 0 880 880"
   sodipodi:docname="autumn-trees.svg"
   inkscape:version="1.3.2 (091e20e, 2023-11-25, custom)"
   xmlns:inkscape="http://www.inkscape.org/namespaces/inkscape"
   xmlns:sodipodi="http://sodipodi.sourceforge.net/DTD/sodipodi-0.dtd"
   xmlns="http://www.w3.org/2000/svg"
   xmlns:svg="http://www.w3.org/2000/svg">
  <defs
     id="defs1">
    <clipPath
       clipPathUnits="userSpaceOnUse"
       id="clipPath4">
      <path
         d="M 0,660 H 660 V 0 H 0 Z"
         transform="translate(-378.44821,-180.3789)"
         id="path4" />
    </clipPath>
    <clipPath
       clipPathUnits="userSpaceOnUse"
       id="clipPath6">
      <path
         d="M 0,660 H 660 V 0 H 0 Z"
         transform="translate(-289.00591,-195.41211)"
         id="path6" />
    </clipPath>
    <clipPath
       clipPathUnits="userSpaceOnUse"
       id="clipPath8">
      <path
         d="M 0,660 H 660 V 0 H 0 Z"
         transform="translate(-329.51321,-112.4727)"
         id="path8" />
    </clipPath>
    <clipPath
       clipPathUnits="userSpaceOnUse"
       id="clipPath10">
      <path
         d="M 0,660 H 660 V 0 H 0 Z"
         transform="translate(-356.25001,-183.2373)"
         id="path10" />
    </clipPath>
    <clipPath
       clipPathUnits="userSpaceOnUse"
       id="clipPath12">
      <path
         d="M 0,660 H 660 V 0 H 0 Z"
         transform="translate(-356.25001,-173.09961)"
         id="path12" />
    </clipPath>
    <clipPath
       clipPathUnits="userSpaceOnUse"
       id="clipPath14">
      <path
         d="M 0,660 H 660 V 0 H 0 Z"
         transform="translate(-152.647,-171.4512)"
         id="path14" />
    </clipPath>
    <clipPath
       clipPathUnits="userSpaceOnUse"
       id="clipPath16">
      <path
         d="M 0,660 H 660 V 0 H 0 Z"
         transform="translate(-152.647,-162.01761)"
         id="path16" />
    </clipPath>
    <clipPath
       clipPathUnits="userSpaceOnUse"
       id="clipPath18">
      <path
         d="M 0,660 H 660 V 0 H 0 Z"
         transform="translate(-202.94821,-377.06641)"
         id="path18" />
    </clipPath>
    <clipPath
       clipPathUnits="userSpaceOnUse"
       id="clipPath20">
      <path
         d="M 0,660 H 660 V 0 H 0 Z"
         transform="translate(-269.12601,-314.93461)"
         id="path20" />
    </clipPath>
    <clipPath
       clipPathUnits="userSpaceOnUse"
       id="clipPath22">
      <path
         d="M 0,660 H 660 V 0 H 0 Z"
         transform="translate(-227.1001,-322.78421)"
         id="path22" />
    </clipPath>
    <clipPath
       clipPathUnits="userSpaceOnUse"
       id="clipPath24">
      <path
         d="M 0,660 H 660 V 0 H 0 Z"
         transform="translate(-269.12601,-314.93461)"
         id="path24" />
    </clipPath>
    <clipPath
       clipPathUnits="userSpaceOnUse"
       id="clipPath26">
      <path
         d="M 0,660 H 660 V 0 H 0 Z"
         transform="translate(-463.86821,-361.22461)"
         id="path26" />
    </clipPath>
    <clipPath
       clipPathUnits="userSpaceOnUse"
       id="clipPath28">
      <path
         d="M 0,660 H 660 V 0 H 0 Z"
         transform="translate(-525.95902,-302.93071)"
         id="path28" />
    </clipPath>
    <clipPath
       clipPathUnits="userSpaceOnUse"
       id="clipPath30">
      <path
         d="M 0,660 H 660 V 0 H 0 Z"
         transform="translate(-486.52831,-310.29591)"
         id="path30" />
    </clipPath>
    <clipPath
       clipPathUnits="userSpaceOnUse"
       id="clipPath32">
      <path
         d="M 0,660 H 660 V 0 H 0 Z"
         transform="translate(-525.95902,-302.93071)"
         id="path32" />
    </clipPath>
    <clipPath
       clipPathUnits="userSpaceOnUse"
       id="clipPath34">
      <path
         d="M 0,660 H 660 V 0 H 0 Z"
         transform="translate(-128.4136,-348.59521)"
         id="path34" />
    </clipPath>
    <clipPath
       clipPathUnits="userSpaceOnUse"
       id="clipPath36">
      <path
         d="M 0,660 H 660 V 0 H 0 Z"
         transform="translate(-317.49711,-480.82421)"
         id="path36" />
    </clipPath>
    <clipPath
       clipPathUnits="userSpaceOnUse"
       id="clipPath38">
      <path
         d="M 0,660 H 660 V 0 H 0 Z"
         transform="translate(-96.285602,-550.89161)"
         id="path38" />
    </clipPath>
    <clipPath
       clipPathUnits="userSpaceOnUse"
       id="clipPath40">
      <path
         d="M 0,660 H 660 V 0 H 0 Z"
         transform="translate(-448.75101,-520.52341)"
         id="path40" />
    </clipPath>
  </defs>
  <sodipodi:namedview
     id="namedview1"
     pagecolor="#ffffff"
     bordercolor="#000000"
     borderopacity="0.25"
     inkscape:showpageshadow="2"
     inkscape:pageopacity="0.0"
     inkscape:pagecheckerboard="0"
     inkscape:deskcolor="#d1d1d1"
     inkscape:zoom="0.69318182"
     inkscape:cx="439.27869"
     inkscape:cy="440"
     inkscape:window-width="1440"
     inkscape:window-height="830"
     inkscape:window-x="-6"
     inkscape:window-y="-6"
     inkscape:window-maximized="1"
     inkscape:current-layer="g1">
    <inkscape:page
       x="0"
       y="0"
       inkscape:label="1"
       id="page1"
       width="880"
       height="880"
       margin="0 0.70266664 1.4413333 0"
       bleed="0" />
  </sodipodi:namedview>
  <g
     id="g1"
     inkscape:groupmode="layer"
     inkscape:label="1">
    <g
       id="group-MC0">
      <path
         id="path2"
         d="M 0,0 H 659.472 V 658.919 H 0 Z"
         style="fill:#fddeaf;fill-opacity:1;fill-rule:nonzero;stroke:none"
         transform="matrix(1.3333333,0,0,-1.3333333,0,880)" />
      <path
         id="path3"
         d="M 0,0 0.895,-59.814 H -11.958 L -11.063,0 c -28.281,2.777 -50.375,26.624 -50.375,55.633 0,11.555 3.506,22.289 9.511,31.199 4.904,7.276 6.754,15.129 5.618,23.829 -0.231,1.76 -0.35,3.554 -0.35,5.376 0,10.652 4.051,20.359 10.695,27.663 5.01,5.509 6.899,12.452 5.366,19.74 -0.357,1.706 -0.545,3.476 -0.545,5.29 0,14.146 11.466,25.612 25.611,25.612 14.145,0 25.613,-11.466 25.613,-25.612 0,-1.814 -0.189,-3.584 -0.549,-5.29 -1.53,-7.288 0.357,-14.231 5.368,-19.74 6.644,-7.304 10.695,-17.011 10.695,-27.663 0,-1.822 -0.119,-3.616 -0.349,-5.376 -1.138,-8.7 0.714,-16.553 5.617,-23.829 6.005,-8.91 9.511,-19.644 9.511,-31.199 C 50.374,26.624 28.278,2.777 0,0"
         style="fill:#d05f1d;fill-opacity:1;fill-rule:evenodd;stroke:none"
         transform="matrix(1.3333333,0,0,-1.3333333,504.5976,639.4948)"
         clip-path="url(#clipPath4)" />
      <path
         id="path5"
         d="M 0,0 1.118,-74.848 H -14.964 L -13.846,0 c -35.386,3.478 -63.035,33.317 -63.035,69.618 0,14.458 4.388,27.89 11.901,39.04 6.137,9.106 8.454,18.932 7.03,29.819 -0.287,2.202 -0.436,4.447 -0.436,6.728 0,13.329 5.068,25.476 13.383,34.616 6.269,6.893 8.631,15.581 6.715,24.7 -0.448,2.136 -0.685,4.35 -0.685,6.62 0,17.701 14.35,32.051 32.05,32.051 17.7,0 32.051,-14.35 32.051,-32.051 0,-2.27 -0.237,-4.484 -0.686,-6.62 -1.916,-9.119 0.445,-17.807 6.716,-24.7 8.315,-9.14 13.383,-21.287 13.383,-34.616 0,-2.281 -0.149,-4.526 -0.438,-6.728 -1.422,-10.887 0.894,-20.713 7.03,-29.819 C 58.648,97.508 63.035,84.076 63.035,69.618 63.035,33.317 35.387,3.478 0,0"
         style="fill:#ad511e;fill-opacity:1;fill-rule:evenodd;stroke:none"
         transform="matrix(1.3333333,0,0,-1.3333333,385.3412,619.45053)"
         clip-path="url(#clipPath6)" />
      <path
         id="path7"
         d="m 0,0 c 151.289,0 274.679,3.636 274.679,8.092 0,4.456 -123.39,8.091 -274.679,8.091 -151.288,0 -274.679,-3.635 -274.679,-8.091 C -274.679,3.636 -151.288,0 0,0"
         style="fill:#ef6d17;fill-opacity:1;fill-rule:evenodd;stroke:none"
         transform="matrix(1.3333333,0,0,-1.3333333,439.35093,730.0364)"
         clip-path="url(#clipPath8)" />
      <path
         id="path9"
         d="m 0,0 c 11.688,11.124 27.843,18.007 45.691,18.007 16.477,0 31.511,-5.865 42.92,-15.519 15.371,-13.005 34.865,-17.485 54.788,-12.592 4.783,1.174 9.799,1.8 14.97,1.8 32.128,0 58.321,-24.134 59.616,-54.369 h -305.91 c 0.217,26.106 22.418,47.234 49.874,47.48 C -23.21,-15.06 -10.487,-9.981 0,0"
         style="fill:#ef6d17;fill-opacity:1;fill-rule:evenodd;stroke:none"
         transform="matrix(1.3333333,0,0,-1.3333333,475,635.6836)"
         clip-path="url(#clipPath10)" />
      <path
         id="path11"
         d="m 0,0 c 11.688,9.325 27.843,15.095 45.691,15.095 16.477,0 31.511,-4.917 42.92,-13.009 15.371,-10.901 34.865,-14.657 54.788,-10.555 4.783,0.985 9.799,1.508 14.97,1.508 32.128,0 58.321,-20.229 59.616,-45.574 h -305.91 c 0.217,21.883 22.418,39.594 49.874,39.799 C -23.21,-12.625 -10.487,-8.366 0,0"
         style="fill:#da641c;fill-opacity:1;fill-rule:evenodd;stroke:none"
         transform="matrix(1.3333333,0,0,-1.3333333,475,649.20053)"
         clip-path="url(#clipPath12)" />
      <path
         id="path13"
         d="m 0,0 c 9.02,9.032 21.488,14.621 35.262,14.621 12.715,0 24.318,-4.762 33.122,-12.601 11.863,-10.56 26.906,-14.197 42.282,-10.224 3.691,0.955 7.563,1.463 11.553,1.463 24.796,0 45.01,-19.597 46.008,-44.146 H -67.855 c 0.167,21.196 17.301,38.352 38.49,38.55 C -17.912,-12.229 -8.094,-8.105 0,0"
         style="fill:#f7971d;fill-opacity:1;fill-rule:evenodd;stroke:none"
         transform="matrix(1.3333333,0,0,-1.3333333,203.52933,651.3984)"
         clip-path="url(#clipPath14)" />
      <path
         id="path15"
         d="m 0,0 c 9.02,7.358 21.488,11.911 35.262,11.911 12.715,0 24.318,-3.879 33.122,-10.265 11.863,-8.602 26.906,-11.566 42.282,-8.328 3.691,0.777 7.563,1.19 11.553,1.19 24.796,0 45.01,-15.963 46.008,-35.961 H -67.855 c 0.167,17.267 17.301,31.242 38.49,31.404 C -17.912,-9.962 -8.094,-6.602 0,0"
         style="fill:#f68413;fill-opacity:1;fill-rule:evenodd;stroke:none"
         transform="matrix(1.3333333,0,0,-1.3333333,203.52933,663.97653)"
         clip-path="url(#clipPath16)" />
      <path
         id="path17"
         d="m 0,0 h 9.37 l 3.832,-256.502 H -3.833 Z"
         style="fill:#97471d;fill-opacity:1;fill-rule:evenodd;stroke:none"
         transform="matrix(1.3333333,0,0,-1.3333333,270.5976,377.2448)"
         clip-path="url(#clipPath18)" />
      <path
         id="path19"
         d="m 0,0 c 7.959,-11.811 12.607,-26.038 12.607,-41.351 0,-40.925 -33.176,-74.101 -74.1,-74.101 -40.924,0 -74.1,33.176 -74.1,74.101 0,15.313 4.648,29.54 12.606,41.351 6.5,9.645 8.954,20.053 7.446,31.584 -0.305,2.333 -0.462,4.711 -0.462,7.126 0,14.119 5.368,26.985 14.174,36.666 6.641,7.301 9.144,16.503 7.114,26.162 -0.476,2.263 -0.726,4.609 -0.726,7.013 0,18.748 15.2,33.947 33.948,33.947 18.748,0 33.948,-15.199 33.948,-33.947 0,-2.404 -0.251,-4.75 -0.726,-7.013 -2.03,-9.659 0.473,-18.861 7.113,-26.162 8.806,-9.681 14.175,-22.547 14.175,-36.666 0,-2.415 -0.158,-4.793 -0.462,-7.126 C -8.953,20.053 -6.499,9.645 0,0"
         style="fill:#f68413;fill-opacity:1;fill-rule:evenodd;stroke:none"
         transform="matrix(1.3333333,0,0,-1.3333333,358.83467,460.0872)"
         clip-path="url(#clipPath20)" />
      <path
         id="path21"
         d="m 0,0 c 3.984,-10.217 6.21,-22.533 5.539,-35.773 -2.663,-52.567 -84.433,-54.011 -81.688,0 0.673,13.24 3.568,25.556 8.359,35.773 3.911,8.343 5.618,17.348 5.18,27.325 -0.088,2.017 -0.094,4.075 -0.012,6.164 0.482,12.214 3.879,23.344 9.063,31.719 3.91,6.317 5.603,14.278 4.813,22.634 -0.185,1.957 -0.242,3.987 -0.16,6.067 0.638,16.219 9.535,29.368 19.869,29.368 10.334,0 18.194,-13.149 17.555,-29.368 -0.083,-2.08 -0.3,-4.11 -0.639,-6.067 C -13.57,79.486 -12.504,71.525 -9.092,65.208 -4.569,56.833 -2.048,45.703 -2.53,33.489 -2.611,31.4 -2.78,29.342 -3.027,27.325 -4.251,17.348 -3.254,8.343 0,0"
         style="fill:#f7971d;fill-opacity:1;fill-rule:evenodd;stroke:none"
         transform="matrix(1.3333333,0,0,-1.3333333,302.80013,449.62107)"
         clip-path="url(#clipPath22)" />
      <path
         id="path23"
         d="m 0,0 c 7.959,-11.811 12.607,-26.038 12.607,-41.351 0,-40.925 -33.176,-74.101 -74.1,-74.101 -22.208,0 -42.131,9.773 -55.713,25.25 8.517,-3.369 17.978,-5.234 28.032,-5.234 40.924,0 76.151,30.821 78.683,68.839 0.947,14.227 -2.82,27.444 -10.048,38.416 -5.903,8.96 -7.714,18.63 -5.492,29.343 0.449,2.167 0.754,4.376 0.903,6.62 0.874,13.116 -3.699,25.068 -11.906,34.062 -6.19,6.784 -8.123,15.332 -5.496,24.305 0.615,2.103 1.011,4.281 1.159,6.515 0.921,13.82 -7.867,25.563 -20.902,29.824 0.259,0.006 0.52,0.01 0.78,0.01 18.748,0 33.948,-15.199 33.948,-33.947 0,-2.404 -0.251,-4.75 -0.726,-7.013 -2.03,-9.659 0.473,-18.861 7.113,-26.162 8.806,-9.681 14.175,-22.547 14.175,-36.666 0,-2.415 -0.158,-4.793 -0.462,-7.126 C -8.953,20.053 -6.499,9.645 0,0"
         style="fill:#ef6d17;fill-opacity:1;fill-rule:evenodd;stroke:none"
         transform="matrix(1.3333333,0,0,-1.3333333,358.83467,460.0872)"
         clip-path="url(#clipPath24)" />
      <path
         id="path25"
         d="m 0,0 h 8.79 l 3.597,-240.66 H -3.596 Z"
         style="fill:#97471d;fill-opacity:1;fill-rule:evenodd;stroke:none"
         transform="matrix(1.3333333,0,0,-1.3333333,618.49093,398.3672)"
         clip-path="url(#clipPath26)" />
      <path
         id="path27"
         d="m 0,0 c 7.468,-11.081 11.827,-24.43 11.827,-38.799 0,-38.396 -31.125,-69.523 -69.522,-69.523 -38.397,0 -69.524,31.127 -69.524,69.523 0,14.369 4.361,27.718 11.828,38.799 6.098,9.049 8.401,18.814 6.986,29.634 -0.286,2.188 -0.435,4.419 -0.435,6.685 0,13.247 5.038,25.318 13.3,34.402 6.231,6.85 8.578,15.484 6.675,24.546 -0.446,2.123 -0.682,4.324 -0.682,6.58 0,17.59 14.262,31.85 31.852,31.85 17.591,0 31.851,-14.26 31.851,-31.85 0,-2.256 -0.236,-4.457 -0.68,-6.58 -1.906,-9.062 0.442,-17.696 6.672,-24.546 8.264,-9.084 13.3,-21.155 13.3,-34.402 0,-2.266 -0.148,-4.497 -0.433,-6.685 C -8.4,18.814 -6.098,9.049 0,0"
         style="fill:#f68413;fill-opacity:1;fill-rule:evenodd;stroke:none"
         transform="matrix(1.3333333,0,0,-1.3333333,701.27867,476.0924)"
         clip-path="url(#clipPath28)" />
      <path
         id="path29"
         d="m 0,0 c 3.738,-9.587 5.826,-21.142 5.197,-33.565 -2.498,-49.321 -79.219,-50.676 -76.643,0 0.632,12.423 3.348,23.978 7.842,33.565 3.668,7.827 5.271,16.275 4.861,25.637 -0.083,1.892 -0.089,3.822 -0.011,5.783 0.452,11.459 3.639,21.902 8.503,29.761 3.668,5.926 5.257,13.395 4.517,21.236 -0.175,1.836 -0.229,3.739 -0.152,5.691 0.601,15.218 8.947,27.555 18.643,27.555 9.695,0 17.069,-12.337 16.471,-27.555 -0.079,-1.952 -0.282,-3.855 -0.601,-5.691 -1.358,-7.841 -0.359,-15.31 2.842,-21.236 C -4.286,53.322 -1.922,42.879 -2.373,31.42 -2.451,29.459 -2.607,27.529 -2.841,25.637 -3.988,16.275 -3.053,7.827 0,0"
         style="fill:#f7971d;fill-opacity:1;fill-rule:evenodd;stroke:none"
         transform="matrix(1.3333333,0,0,-1.3333333,648.7044,466.27213)"
         clip-path="url(#clipPath30)" />
      <path
         id="path31"
         d="m 0,0 c 7.468,-11.081 11.827,-24.43 11.827,-38.799 0,-38.396 -31.125,-69.523 -69.522,-69.523 -20.836,0 -39.531,9.17 -52.272,23.691 7.99,-3.163 16.867,-4.911 26.301,-4.911 38.394,0 71.447,28.917 73.822,64.587 0.89,13.35 -2.645,25.75 -9.427,36.044 -5.538,8.406 -7.237,17.479 -5.152,27.531 0.42,2.032 0.707,4.105 0.847,6.211 0.819,12.306 -3.471,23.52 -11.171,31.958 -5.808,6.365 -7.621,14.386 -5.156,22.805 0.578,1.972 0.948,4.016 1.088,6.112 0.863,12.966 -7.382,23.983 -19.612,27.982 0.244,0.005 0.487,0.009 0.732,0.009 17.591,0 31.851,-14.26 31.851,-31.85 0,-2.256 -0.236,-4.457 -0.68,-6.58 -1.906,-9.062 0.442,-17.696 6.672,-24.546 8.264,-9.084 13.3,-21.155 13.3,-34.402 0,-2.266 -0.148,-4.497 -0.433,-6.685 C -8.4,18.814 -6.098,9.049 0,0"
         style="fill:#ef6d17;fill-opacity:1;fill-rule:evenodd;stroke:none"
         transform="matrix(1.3333333,0,0,-1.3333333,701.27867,476.0924)"
         clip-path="url(#clipPath32)" />
      <path
         id="path33"
         d="m 0,0 c 5.174,0 9.369,-4.194 9.369,-9.369 0,-5.173 -4.195,-9.368 -9.369,-9.368 -5.174,0 -9.368,4.195 -9.368,9.368 C -9.368,-4.194 -5.174,0 0,0 m 215.485,82.616 c 7.527,0 13.628,-6.101 13.628,-13.627 0,-7.526 -6.101,-13.627 -13.628,-13.627 -7.526,0 -13.627,6.101 -13.627,13.627 0,7.526 6.101,13.627 13.627,13.627 m 187.38,-232.519 c 2.35,0 4.257,-1.907 4.257,-4.259 0,-2.35 -1.907,-4.258 -4.257,-4.258 -2.353,0 -4.259,1.908 -4.259,4.258 0,2.352 1.906,4.259 4.259,4.259 M 415.64,30.662 c 8.938,0 16.182,-7.245 16.182,-16.183 0,-8.937 -7.244,-16.183 -16.182,-16.183 -8.937,0 -16.182,7.246 -16.182,16.183 0,8.938 7.245,16.183 16.182,16.183 m 15.757,-91.986 c 3.527,0 6.388,-2.859 6.388,-6.387 0,-3.53 -2.861,-6.388 -6.388,-6.388 -3.528,0 -6.389,2.858 -6.389,6.388 0,3.528 2.861,6.387 6.389,6.387 M 290.863,118.389 c 6.35,0 11.498,-5.148 11.498,-11.498 0,-6.351 -5.148,-11.499 -11.498,-11.499 -6.351,0 -11.499,5.148 -11.499,11.499 0,6.35 5.148,11.498 11.499,11.498 M 0,97.948 c 5.174,0 9.369,-4.195 9.369,-9.369 0,-5.175 -4.195,-9.368 -9.369,-9.368 -5.174,0 -9.368,4.193 -9.368,9.368 0,5.174 4.194,9.369 9.368,9.369 m -22.996,-208.672 c 9.172,0 16.608,-7.437 16.608,-16.607 0,-9.175 -7.436,-16.61 -16.608,-16.61 -9.173,0 -16.608,7.435 -16.608,16.61 0,9.17 7.435,16.607 16.608,16.607"
         style="fill:#fab753;fill-opacity:1;fill-rule:evenodd;stroke:none"
         transform="matrix(1.3333333,0,0,-1.3333333,171.21813,415.2064)"
         clip-path="url(#clipPath34)" />
      <path
         id="path35"
         d="m 0,0 c 28.85,0 52.38,23.531 52.38,52.381 0,28.85 -23.53,52.381 -52.38,52.381 -28.851,0 -52.381,-23.531 -52.381,-52.381 C -52.381,23.531 -28.851,0 0,0"
         style="fill:#ffffff;fill-opacity:1;fill-rule:evenodd;stroke:none"
         transform="matrix(1.3333333,0,0,-1.3333333,423.32947,238.90107)"
         clip-path="url(#clipPath36)" />
      <path
         id="path37"
         d="m 0,0 c 1.614,0 3.177,-0.217 4.664,-0.622 5.501,8.192 14.851,13.583 25.46,13.583 11.038,0 20.711,-5.836 26.108,-14.589 2.142,0.934 4.507,1.453 6.994,1.453 9.673,0 17.514,-7.841 17.514,-17.514 H -17.688 C -17.688,-7.919 -9.769,0 0,0"
         style="fill:#ffffff;fill-opacity:1;fill-rule:evenodd;stroke:none"
         transform="matrix(1.3333333,0,0,-1.3333333,128.3808,145.47787)"
         clip-path="url(#clipPath38)" />
      <path
         id="path39"
         d="m 0,0 c 3.922,0 7.541,-1.286 10.464,-3.458 4.216,5.447 10.816,8.954 18.237,8.954 8.483,0 15.894,-4.583 19.898,-11.408 2.661,2.259 6.106,3.622 9.87,3.622 3.903,0 7.465,-1.465 10.162,-3.875 4.081,7.665 12.151,12.882 21.438,12.882 13.406,0 24.274,-10.866 24.274,-24.273 H -17.556 C -17.556,-7.86 -9.695,0 0,0"
         style="fill:#ffffff;fill-opacity:1;fill-rule:evenodd;stroke:none"
         transform="matrix(1.3333333,0,0,-1.3333333,598.33467,185.9688)"
         clip-path="url(#clipPath40)" />
    </g>
  </g>
</svg>
