<?xml version="1.0" encoding="UTF-8" standalone="no"?>
<!-- Created with Inkscape (http://www.inkscape.org/) -->

<svg
   version="1.1"
   id="svg1"
   width="880"
   height="880"
   viewBox="0 0 880 880"
   sodipodi:docname="lighthouse-in-the-distance.svg"
   inkscape:version="1.3.2 (091e20e, 2023-11-25, custom)"
   xmlns:inkscape="http://www.inkscape.org/namespaces/inkscape"
   xmlns:sodipodi="http://sodipodi.sourceforge.net/DTD/sodipodi-0.dtd"
   xmlns="http://www.w3.org/2000/svg"
   xmlns:svg="http://www.w3.org/2000/svg">
  <defs
     id="defs1">
    <clipPath
       clipPathUnits="userSpaceOnUse"
       id="clipPath16">
      <path
         d="M 0,660 H 660 V 0 H 0 Z"
         transform="translate(-523.34381,-468.55621)"
         id="path16" />
    </clipPath>
    <clipPath
       clipPathUnits="userSpaceOnUse"
       id="clipPath18">
      <path
         d="M 0,660 H 660 V 0 H 0 Z"
         id="path18" />
    </clipPath>
    <clipPath
       clipPathUnits="userSpaceOnUse"
       id="clipPath20">
      <path
         d="M 0,660 H 660 V 0 H 0 Z"
         transform="translate(-0.90630002,-315.60351)"
         id="path20" />
    </clipPath>
    <clipPath
       clipPathUnits="userSpaceOnUse"
       id="clipPath22">
      <path
         d="M 0,660 H 660 V 0 H 0 Z"
         id="path22" />
    </clipPath>
    <clipPath
       clipPathUnits="userSpaceOnUse"
       id="clipPath24">
      <path
         d="M 0,660 H 660 V 0 H 0 Z"
         transform="translate(-0.90630002,-68.431599)"
         id="path24" />
    </clipPath>
    <clipPath
       clipPathUnits="userSpaceOnUse"
       id="clipPath26">
      <path
         d="M 0,660 H 660 V 0 H 0 Z"
         id="path26" />
    </clipPath>
    <clipPath
       clipPathUnits="userSpaceOnUse"
       id="clipPath28">
      <path
         d="M 0,660 H 660 V 0 H 0 Z"
         transform="translate(-0.90630002,-288.49711)"
         id="path28" />
    </clipPath>
    <clipPath
       clipPathUnits="userSpaceOnUse"
       id="clipPath30">
      <path
         d="M 0,660 H 660 V 0 H 0 Z"
         transform="translate(-194.4609,-278.6719)"
         id="path30" />
    </clipPath>
    <clipPath
       clipPathUnits="userSpaceOnUse"
       id="clipPath32">
      <path
         d="M 0,660 H 660 V 0 H 0 Z"
         transform="translate(-50.582002,-278.6719)"
         id="path32" />
    </clipPath>
    <clipPath
       clipPathUnits="userSpaceOnUse"
       id="clipPath34">
      <path
         d="M 0,660 H 660 V 0 H 0 Z"
         transform="translate(-68.756302,-253.9531)"
         id="path34" />
    </clipPath>
    <clipPath
       clipPathUnits="userSpaceOnUse"
       id="clipPath36">
      <path
         d="M 0,660 H 660 V 0 H 0 Z"
         transform="translate(-400.03911,-278.6719)"
         id="path36" />
    </clipPath>
    <clipPath
       clipPathUnits="userSpaceOnUse"
       id="clipPath38">
      <path
         d="M 0,660 H 660 V 0 H 0 Z"
         id="path38" />
    </clipPath>
    <clipPath
       clipPathUnits="userSpaceOnUse"
       id="clipPath40">
      <path
         d="M 0,660 H 660 V 0 H 0 Z"
         transform="translate(-20.6587,-156.34671)"
         id="path40" />
    </clipPath>
    <clipPath
       clipPathUnits="userSpaceOnUse"
       id="clipPath42">
      <path
         d="M 0,660 H 660 V 0 H 0 Z"
         id="path42" />
    </clipPath>
    <clipPath
       clipPathUnits="userSpaceOnUse"
       id="clipPath44">
      <path
         d="M 0,660 H 660 V 0 H 0 Z"
         transform="translate(-141.0376,-156.34671)"
         id="path44" />
    </clipPath>
    <clipPath
       clipPathUnits="userSpaceOnUse"
       id="clipPath46">
      <path
         d="M 0,660 H 660 V 0 H 0 Z"
         id="path46" />
    </clipPath>
    <clipPath
       clipPathUnits="userSpaceOnUse"
       id="clipPath48">
      <path
         d="M 0,660 H 660 V 0 H 0 Z"
         transform="translate(-261.41701,-156.34671)"
         id="path48" />
    </clipPath>
    <clipPath
       clipPathUnits="userSpaceOnUse"
       id="clipPath50">
      <path
         d="M 0,660 H 660 V 0 H 0 Z"
         id="path50" />
    </clipPath>
    <clipPath
       clipPathUnits="userSpaceOnUse"
       id="clipPath52">
      <path
         d="M 0,660 H 660 V 0 H 0 Z"
         transform="translate(-381.79491,-156.34671)"
         id="path52" />
    </clipPath>
    <clipPath
       clipPathUnits="userSpaceOnUse"
       id="clipPath54">
      <path
         d="M 0,660 H 660 V 0 H 0 Z"
         id="path54" />
    </clipPath>
    <clipPath
       clipPathUnits="userSpaceOnUse"
       id="clipPath56">
      <path
         d="M 0,660 H 660 V 0 H 0 Z"
         transform="translate(-502.17481,-156.34671)"
         id="path56" />
    </clipPath>
    <clipPath
       clipPathUnits="userSpaceOnUse"
       id="clipPath58">
      <path
         d="M 0,660 H 660 V 0 H 0 Z"
         id="path58" />
    </clipPath>
    <clipPath
       clipPathUnits="userSpaceOnUse"
       id="clipPath60">
      <path
         d="M 0,660 H 660 V 0 H 0 Z"
         transform="translate(-622.55272,-156.34671)"
         id="path60" />
    </clipPath>
    <clipPath
       clipPathUnits="userSpaceOnUse"
       id="clipPath62">
      <path
         d="M 0,660 H 660 V 0 H 0 Z"
         id="path62" />
    </clipPath>
    <clipPath
       clipPathUnits="userSpaceOnUse"
       id="clipPath64">
      <path
         d="M 0,660 H 660 V 0 H 0 Z"
         transform="translate(-300.61961,-214.5928)"
         id="path64" />
    </clipPath>
    <clipPath
       clipPathUnits="userSpaceOnUse"
       id="clipPath66">
      <path
         d="M 0,660 H 660 V 0 H 0 Z"
         transform="translate(-549.20902,-261.6973)"
         id="path66" />
    </clipPath>
    <clipPath
       clipPathUnits="userSpaceOnUse"
       id="clipPath68">
      <path
         d="M 0,660 H 660 V 0 H 0 Z"
         transform="translate(-548.44241,-187.9648)"
         id="path68" />
    </clipPath>
    <clipPath
       clipPathUnits="userSpaceOnUse"
       id="clipPath70">
      <path
         d="M 0,660 H 660 V 0 H 0 Z"
         transform="translate(-584.41211,-234.04881)"
         id="path70" />
    </clipPath>
    <clipPath
       clipPathUnits="userSpaceOnUse"
       id="clipPath72">
      <path
         d="M 0,660 H 660 V 0 H 0 Z"
         transform="translate(-257.10061,-247.61721)"
         id="path72" />
    </clipPath>
    <clipPath
       clipPathUnits="userSpaceOnUse"
       id="clipPath74">
      <path
         d="M 0,660 H 660 V 0 H 0 Z"
         transform="translate(-164.93601,-193.34181)"
         id="path74" />
    </clipPath>
  </defs>
  <sodipodi:namedview
     id="namedview1"
     pagecolor="#ffffff"
     bordercolor="#000000"
     borderopacity="0.25"
     inkscape:showpageshadow="2"
     inkscape:pageopacity="0.0"
     inkscape:pagecheckerboard="0"
     inkscape:deskcolor="#d1d1d1"
     inkscape:zoom="0.69318182"
     inkscape:cx="439.27869"
     inkscape:cy="440"
     inkscape:window-width="1440"
     inkscape:window-height="830"
     inkscape:window-x="-6"
     inkscape:window-y="-6"
     inkscape:window-maximized="1"
     inkscape:current-layer="g1">
    <inkscape:page
       x="0"
       y="0"
       inkscape:label="1"
       id="page1"
       width="880"
       height="880"
       margin="0 0 0.192 1.2083746"
       bleed="0" />
  </sodipodi:namedview>
  <g
     id="g1"
     inkscape:groupmode="layer"
     inkscape:label="1">
    <g
       id="group-MC0">
      <path
         id="path2"
         d="M 0.906,0 H 659.999 V 659.857 H 0.906 Z"
         style="fill:#dcf2db;fill-opacity:1;fill-rule:nonzero;stroke:none"
         transform="matrix(1.3333333,0,0,-1.3333333,0,880)" />
      <path
         id="path3"
         d="M 0,0 -201.312,-17.998 0,-35.996 199.549,-53.836 V 17.84 Z"
         style="fill:#f9fdfb;fill-opacity:1;fill-rule:nonzero;stroke:none"
         transform="matrix(1.3333333,0,0,-1.3333333,613.9344,337.2916)" />
      <path
         id="path4"
         d="M 0,0 109.821,73.551 206.524,24.487 267.95,8.932 306.081,-9.825 H 2.347 Z"
         style="fill:#f9fdfb;fill-opacity:1;fill-rule:evenodd;stroke:none"
         transform="matrix(1.3333333,0,0,-1.3333333,24.637333,495.3372)" />
      <path
         id="path5"
         d="m 0,0 1.452,-84.031 h -17.838 l 0.189,-10.918 H -29.263 L -29.452,-84.031 -30.903,0 h -5.542 l -0.204,11.824 h 7.557 l -0.241,13.911 h -4.45 l -0.134,7.824 h 4.519 l 5.524,7.804 7.525,10.628 7.892,-10.628 5.794,-7.804 H 1.856 L 1.991,25.735 H -2.46 L -2.219,11.824 H 5.338 L 5.543,0 Z"
         style="fill:#ffffff;fill-opacity:1;fill-rule:evenodd;stroke:none"
         transform="matrix(1.3333333,0,0,-1.3333333,362.86,386.10747)" />
      <path
         id="path6"
         d="m 239.02,289.218 h 30.903 v 84.86 H 239.02 Z"
         style="fill:#4b8257;fill-opacity:1;fill-rule:evenodd;stroke:none"
         transform="matrix(1.3333333,0,0,-1.3333333,0,880)" />
      <path
         id="path7"
         d="m 241.036,377.772 h 26.873 v 21.497 h -26.873 z"
         style="fill:#4b8257;fill-opacity:1;fill-rule:evenodd;stroke:none"
         transform="matrix(1.3333333,0,0,-1.3333333,0,880)" />
      <path
         id="path8"
         d="m 0,0 7.708,-10.266 7.709,-10.266 H 0 -15.418 l 7.709,10.266 z"
         style="fill:#4b8257;fill-opacity:1;fill-rule:evenodd;stroke:none"
         transform="matrix(1.3333333,0,0,-1.3333333,339.29747,319.20053)" />
      <path
         id="path9"
         d="m 233.478,370.383 h 41.988 v 11.42 h -41.988 z"
         style="fill:#6eaf79;fill-opacity:1;fill-rule:evenodd;stroke:none"
         transform="matrix(1.3333333,0,0,-1.3333333,0,880)" />
      <path
         id="path10"
         d="m 236.585,395.239 h 35.774 v 7.558 h -35.774 z"
         style="fill:#6eaf79;fill-opacity:1;fill-rule:evenodd;stroke:none"
         transform="matrix(1.3333333,0,0,-1.3333333,0,880)" />
      <path
         id="path11"
         d="m 239.02,278.672 h 13.066 v 91.711 H 239.02 Z"
         style="fill:#3e6c4a;fill-opacity:1;fill-rule:evenodd;stroke:none"
         transform="matrix(1.3333333,0,0,-1.3333333,0,880)" />
      <path
         id="path12"
         d="m 233.478,370.383 h 16.307 v 11.42 h -16.307 z"
         style="fill:#4b8257;fill-opacity:1;fill-rule:evenodd;stroke:none"
         transform="matrix(1.3333333,0,0,-1.3333333,0,880)" />
      <path
         id="path13"
         d="m 241.036,381.803 h 11.051 v 13.436 h -11.051 z"
         style="fill:#3e6c4a;fill-opacity:1;fill-rule:evenodd;stroke:none"
         transform="matrix(1.3333333,0,0,-1.3333333,0,880)" />
      <path
         id="path14"
         d="m 236.585,395.239 h 13.841 v 7.558 h -13.841 z"
         style="fill:#4b8257;fill-opacity:1;fill-rule:evenodd;stroke:none"
         transform="matrix(1.3333333,0,0,-1.3333333,0,880)" />
      <path
         id="path15"
         d="m 0,0 c 38.919,0 70.66,31.742 70.66,70.659 0,38.918 -31.741,70.66 -70.66,70.66 -38.917,0 -70.658,-31.742 -70.658,-70.66 C -70.658,31.742 -38.917,0 0,0"
         style="fill:#f9fdfb;fill-opacity:1;fill-rule:evenodd;stroke:none"
         transform="matrix(1.3333333,0,0,-1.3333333,697.79173,255.2584)"
         clip-path="url(#clipPath16)" />
      <path
         id="path17"
         d="m 0.906,278.672 h 660.856 v 5.426 H 0.906 Z"
         style="fill:#f9fdfb;fill-opacity:1;fill-rule:evenodd;stroke:none"
         transform="matrix(1.3333333,0,0,-1.3333333,0,880)"
         clip-path="url(#clipPath18)" />
      <path
         id="path19"
         d="m 0,0 44.375,25.62 118.971,-68.687 -3.584,-7.689 H 0 Z"
         style="fill:#68a774;fill-opacity:1;fill-rule:evenodd;stroke:none"
         transform="matrix(1.3333333,0,0,-1.3333333,1.2084,459.19533)"
         clip-path="url(#clipPath20)" />
      <path
         id="path21"
         d="M 0.906,-1 H 661.762 V 278.672 H 0.906 Z"
         style="fill:#4b8257;fill-opacity:1;fill-rule:evenodd;stroke:none"
         transform="matrix(1.3333333,0,0,-1.3333333,0,880)"
         clip-path="url(#clipPath22)" />
      <path
         id="path23"
         d="m 0,0 h 660.856 l -0.002,22.534 h -41.903 l 21.476,33.237 c 4.608,7.135 -14.847,7.135 -19.457,0 L 599.493,22.534 h -100.92 c 7.159,11.079 14.318,22.158 21.475,33.237 4.61,7.135 -14.848,7.135 -19.456,0 C 493.433,44.692 486.276,33.613 479.115,22.534 H 378.192 c 7.16,11.079 14.32,22.158 21.476,33.237 4.61,7.135 -14.846,7.135 -19.456,0 C 373.054,44.692 365.894,33.613 358.736,22.534 H 257.814 c 7.161,11.079 14.319,22.158 21.476,33.237 4.61,7.135 -14.847,7.135 -19.457,0 C 252.675,44.692 245.517,33.613 238.358,22.534 H 137.436 c 7.16,11.079 14.317,22.158 21.475,33.237 4.61,7.135 -14.847,7.135 -19.457,0 C 132.296,44.692 125.139,33.613 117.979,22.534 H 17.058 l 21.475,33.237 c 4.609,7.135 -14.847,7.135 -19.457,0 L 0,26.248 Z"
         style="fill:#40724b;fill-opacity:1;fill-rule:evenodd;stroke:none"
         transform="matrix(1.3333333,0,0,-1.3333333,1.2084,788.75787)"
         clip-path="url(#clipPath24)" />
      <path
         id="path25"
         d="M 0.906,138.835 H 661.762 V 278.672 H 0.906 Z"
         style="fill:#254f2c;fill-opacity:1;fill-rule:evenodd;stroke:none"
         transform="matrix(1.3333333,0,0,-1.3333333,0,880)"
         clip-path="url(#clipPath26)" />
      <path
         id="path27"
         d="M 0,0 127.393,73.551 219.869,20.16 279.449,4.196 303.733,-9.825 H 0 Z"
         style="fill:#4b8257;fill-opacity:1;fill-rule:evenodd;stroke:none"
         transform="matrix(1.3333333,0,0,-1.3333333,1.2084,495.3372)"
         clip-path="url(#clipPath28)" />
      <path
         id="path29"
         d="M 0,0 -52.738,47.8 -24.577,0 -12.288,-20.301 Z"
         style="fill:#254f2c;fill-opacity:1;fill-rule:evenodd;stroke:none"
         transform="matrix(1.3333333,0,0,-1.3333333,259.2812,508.43747)"
         clip-path="url(#clipPath30)" />
      <path
         id="path31"
         d="M 0,0 37.89,25.27 14.849,-6.475 Z"
         style="fill:#254f2c;fill-opacity:1;fill-rule:evenodd;stroke:none"
         transform="matrix(1.3333333,0,0,-1.3333333,67.442667,508.43747)"
         clip-path="url(#clipPath32)" />
      <path
         id="path33"
         d="m 0,0 59.543,-17.343 92.476,26.935 59.58,8.054 24.284,7.073 H 84.868 -67.85 V 19.763 6.088 l 44.375,-12.925 z"
         style="fill:#1e3b21;fill-opacity:1;fill-rule:evenodd;stroke:none"
         transform="matrix(1.3333333,0,0,-1.3333333,91.675067,541.39587)"
         clip-path="url(#clipPath34)" />
      <path
         id="path35"
         d="m 0,0 31.846,8.533 21.135,12.202 18.078,4.844 30.242,17.46 28.869,-16.668 46.173,-12.372 14.643,-7.934 37.006,21.366 33.732,-19.475 V 0 Z"
         style="fill:#b3ddb5;fill-opacity:1;fill-rule:evenodd;stroke:none"
         transform="matrix(1.3333333,0,0,-1.3333333,533.38547,508.43747)"
         clip-path="url(#clipPath36)" />
      <path
         id="path37"
         d="m 0.906,156.347 h 660.856 v 20.48 H 0.906 Z"
         style="fill:#f9fdfb;fill-opacity:1;fill-rule:evenodd;stroke:none"
         transform="matrix(1.3333333,0,0,-1.3333333,0,880)"
         clip-path="url(#clipPath38)" />
      <path
         id="path39"
         d="M 0,0 H 19.457 V -30.21 C 19.457,-36.695 0,-36.695 0,-30.21 Z"
         style="fill:#dcf2db;fill-opacity:1;fill-rule:evenodd;stroke:none"
         transform="matrix(1.3333333,0,0,-1.3333333,27.544933,671.53773)"
         clip-path="url(#clipPath40)" />
      <path
         id="path41"
         d="m 20.658,145.339 h 19.458 v 11.008 H 20.658 Z"
         style="fill:#c3e4c3;fill-opacity:1;fill-rule:evenodd;stroke:none"
         transform="matrix(1.3333333,0,0,-1.3333333,0,880)"
         clip-path="url(#clipPath42)" />
      <path
         id="path43"
         d="M 0,0 H 19.456 V -30.21 C 19.456,-36.695 0,-36.695 0,-30.21 Z"
         style="fill:#dcf2db;fill-opacity:1;fill-rule:evenodd;stroke:none"
         transform="matrix(1.3333333,0,0,-1.3333333,188.05013,671.53773)"
         clip-path="url(#clipPath44)" />
      <path
         id="path45"
         d="m 141.038,156.347 h 19.456 v -11.01 h -19.456 z"
         style="fill:#c3e4c3;fill-opacity:1;fill-rule:evenodd;stroke:none"
         transform="matrix(1.3333333,0,0,-1.3333333,0,880)"
         clip-path="url(#clipPath46)" />
      <path
         id="path47"
         d="M 0,0 H 19.456 V -30.21 C 19.456,-36.695 0,-36.695 0,-30.21 Z"
         style="fill:#dcf2db;fill-opacity:1;fill-rule:evenodd;stroke:none"
         transform="matrix(1.3333333,0,0,-1.3333333,348.556,671.53773)"
         clip-path="url(#clipPath48)" />
      <path
         id="path49"
         d="m 261.417,156.347 h 19.456 v -11.01 h -19.456 z"
         style="fill:#c3e4c3;fill-opacity:1;fill-rule:evenodd;stroke:none"
         transform="matrix(1.3333333,0,0,-1.3333333,0,880)"
         clip-path="url(#clipPath50)" />
      <path
         id="path51"
         d="M 0,0 H 19.458 V -30.21 C 19.458,-36.695 0,-36.695 0,-30.21 Z"
         style="fill:#dcf2db;fill-opacity:1;fill-rule:evenodd;stroke:none"
         transform="matrix(1.3333333,0,0,-1.3333333,509.05987,671.53773)"
         clip-path="url(#clipPath52)" />
      <path
         id="path53"
         d="m 381.795,156.347 h 19.458 v -11.01 h -19.458 z"
         style="fill:#c3e4c3;fill-opacity:1;fill-rule:evenodd;stroke:none"
         transform="matrix(1.3333333,0,0,-1.3333333,0,880)"
         clip-path="url(#clipPath54)" />
      <path
         id="path55"
         d="M 0,0 H 19.456 V -30.21 C 19.456,-36.695 0,-36.695 0,-30.21 Z"
         style="fill:#dcf2db;fill-opacity:1;fill-rule:evenodd;stroke:none"
         transform="matrix(1.3333333,0,0,-1.3333333,669.5664,671.53773)"
         clip-path="url(#clipPath56)" />
      <path
         id="path57"
         d="m 502.175,156.347 h 19.456 v -11.01 h -19.456 z"
         style="fill:#c3e4c3;fill-opacity:1;fill-rule:evenodd;stroke:none"
         transform="matrix(1.3333333,0,0,-1.3333333,0,880)"
         clip-path="url(#clipPath58)" />
      <path
         id="path59"
         d="M 0,0 H 19.457 V -30.21 C 19.457,-36.695 0,-36.695 0,-30.21 Z"
         style="fill:#dcf2db;fill-opacity:1;fill-rule:evenodd;stroke:none"
         transform="matrix(1.3333333,0,0,-1.3333333,830.07027,671.53773)"
         clip-path="url(#clipPath60)" />
      <path
         id="path61"
         d="m 622.553,145.339 h 19.457 v 11.008 h -19.457 z"
         style="fill:#c3e4c3;fill-opacity:1;fill-rule:evenodd;stroke:none"
         transform="matrix(1.3333333,0,0,-1.3333333,0,880)"
         clip-path="url(#clipPath62)" />
      <path
         id="path63"
         d="M 0,0 95.749,-0.514 191.498,-1.025 95.749,-1.537 0,-2.049 l -95.749,0.512 -95.748,0.512 95.748,0.511 z"
         style="fill:#4b8257;fill-opacity:1;fill-rule:evenodd;stroke:none"
         transform="matrix(1.3333333,0,0,-1.3333333,400.82613,593.87627)"
         clip-path="url(#clipPath64)" />
      <path
         id="path65"
         d="M 0,0 50.051,-0.256 100.102,-0.512 50.051,-0.768 0,-1.023 l -50.05,0.255 -50.051,0.256 50.051,0.256 z"
         style="fill:#4b8257;fill-opacity:1;fill-rule:evenodd;stroke:none"
         transform="matrix(1.3333333,0,0,-1.3333333,732.27867,531.07027)"
         clip-path="url(#clipPath66)" />
      <path
         id="path67"
         d="M 0,0 43.521,0.385 87.044,0.77 43.521,1.153 0,1.536 -43.522,1.153 -87.045,0.77 -43.522,0.385 Z"
         style="fill:#4b8257;fill-opacity:1;fill-rule:evenodd;stroke:none"
         transform="matrix(1.3333333,0,0,-1.3333333,731.25653,629.38027)"
         clip-path="url(#clipPath68)" />
      <path
         id="path69"
         d="M 0,0 19.136,-0.386 38.273,-0.769 19.136,-1.152 0,-1.537 l -19.138,0.385 -19.135,0.383 19.135,0.383 z"
         style="fill:#4b8257;fill-opacity:1;fill-rule:evenodd;stroke:none"
         transform="matrix(1.3333333,0,0,-1.3333333,779.21613,567.93493)"
         clip-path="url(#clipPath70)" />
      <path
         id="path71"
         d="M 0,0 33.538,-0.513 67.075,-1.024 33.538,-1.536 0,-2.048 l -33.537,0.512 -33.538,0.512 33.538,0.511 z"
         style="fill:#4b8257;fill-opacity:1;fill-rule:evenodd;stroke:none"
         transform="matrix(1.3333333,0,0,-1.3333333,342.8008,549.84373)"
         clip-path="url(#clipPath72)" />
      <path
         id="path73"
         d="M 0,0 61.443,-0.768 122.886,-1.535 61.443,-2.304 0,-3.07 l -61.443,0.766 -61.443,0.769 61.443,0.767 z"
         style="fill:#4b8257;fill-opacity:1;fill-rule:evenodd;stroke:none"
         transform="matrix(1.3333333,0,0,-1.3333333,219.91467,622.21093)"
         clip-path="url(#clipPath74)" />
    </g>
  </g>
</svg>
