<?xml version="1.0" encoding="UTF-8" standalone="no"?>
<!-- Created with Inkscape (http://www.inkscape.org/) -->

<svg
   version="1.1"
   id="svg1"
   width="880"
   height="880"
   viewBox="0 0 880 880"
   sodipodi:docname="lighthouse-sea.svg"
   inkscape:version="1.3.2 (091e20e, 2023-11-25, custom)"
   xmlns:inkscape="http://www.inkscape.org/namespaces/inkscape"
   xmlns:sodipodi="http://sodipodi.sourceforge.net/DTD/sodipodi-0.dtd"
   xmlns="http://www.w3.org/2000/svg"
   xmlns:svg="http://www.w3.org/2000/svg">
  <defs
     id="defs1">
    <clipPath
       clipPathUnits="userSpaceOnUse"
       id="clipPath5">
      <path
         d="M 0,660 H 660 V 0 H 0 Z"
         transform="translate(-0.9238,-659.18162)"
         id="path5" />
    </clipPath>
    <clipPath
       clipPathUnits="userSpaceOnUse"
       id="clipPath7">
      <path
         d="M 0,660 H 660 V 0 H 0 Z"
         transform="translate(-467.83981,1.3379025)"
         id="path7" />
    </clipPath>
    <clipPath
       clipPathUnits="userSpaceOnUse"
       id="clipPath9">
      <path
         d="M 0,660 H 660 V 0 H 0 Z"
         transform="translate(-162.4302,-262.79691)"
         id="path9" />
    </clipPath>
    <clipPath
       clipPathUnits="userSpaceOnUse"
       id="clipPath11">
      <path
         d="M 0,660 H 660 V 0 H 0 Z"
         transform="translate(-400.68851,1.3379025)"
         id="path11" />
    </clipPath>
    <clipPath
       clipPathUnits="userSpaceOnUse"
       id="clipPath13">
      <path
         d="M 0,660 H 660 V 0 H 0 Z"
         transform="translate(-150.7354,-237.52731)"
         id="path13" />
    </clipPath>
    <clipPath
       clipPathUnits="userSpaceOnUse"
       id="clipPath15">
      <path
         d="M 0,660 H 660 V 0 H 0 Z"
         transform="translate(-300.28421,1.3379025)"
         id="path15" />
    </clipPath>
    <clipPath
       clipPathUnits="userSpaceOnUse"
       id="clipPath17">
      <path
         d="M 0,660 H 660 V 0 H 0 Z"
         transform="translate(-162.7422,1.3379025)"
         id="path17" />
    </clipPath>
    <clipPath
       clipPathUnits="userSpaceOnUse"
       id="clipPath19">
      <path
         d="M 0,660 H 660 V 0 H 0 Z"
         transform="translate(-242.88571,-283.3633)"
         id="path19" />
    </clipPath>
    <clipPath
       clipPathUnits="userSpaceOnUse"
       id="clipPath21">
      <path
         d="M 0,660 H 660 V 0 H 0 Z"
         transform="translate(-242.88571,-283.3633)"
         id="path21" />
    </clipPath>
    <clipPath
       clipPathUnits="userSpaceOnUse"
       id="clipPath23">
      <path
         d="M 0,660 H 660 V 0 H 0 Z"
         transform="translate(-251.8486,-294.05661)"
         id="path23" />
    </clipPath>
    <clipPath
       clipPathUnits="userSpaceOnUse"
       id="clipPath25">
      <path
         d="M 0,660 H 660 V 0 H 0 Z"
         transform="translate(-251.8486,-294.05661)"
         id="path25" />
    </clipPath>
    <clipPath
       clipPathUnits="userSpaceOnUse"
       id="clipPath27">
      <path
         d="M 0,660 H 660 V 0 H 0 Z"
         transform="translate(-278.19141,-317.00001)"
         id="path27" />
    </clipPath>
    <clipPath
       clipPathUnits="userSpaceOnUse"
       id="clipPath29">
      <path
         d="M 0,660 H 660 V 0 H 0 Z"
         transform="translate(-278.19141,-316.99711)"
         id="path29" />
    </clipPath>
    <clipPath
       clipPathUnits="userSpaceOnUse"
       id="clipPath31">
      <path
         d="M 0,660 H 660 V 0 H 0 Z"
         transform="translate(-356.75981,-344.52151)"
         id="path31" />
    </clipPath>
    <clipPath
       clipPathUnits="userSpaceOnUse"
       id="clipPath33">
      <path
         d="M 0,660 H 660 V 0 H 0 Z"
         transform="translate(-348.30081,-327.90041)"
         id="path33" />
    </clipPath>
    <clipPath
       clipPathUnits="userSpaceOnUse"
       id="clipPath35">
      <path
         d="M 0,660 H 660 V 0 H 0 Z"
         transform="translate(-324.91851,-346.37701)"
         id="path35" />
    </clipPath>
    <clipPath
       clipPathUnits="userSpaceOnUse"
       id="clipPath37">
      <path
         d="M 0,660 H 660 V 0 H 0 Z"
         transform="translate(-324.91601,-395.35841)"
         id="path37" />
    </clipPath>
    <clipPath
       clipPathUnits="userSpaceOnUse"
       id="clipPath39">
      <path
         d="M 0,660 H 660 V 0 H 0 Z"
         transform="translate(-352.56741,-377.05371)"
         id="path39" />
    </clipPath>
    <clipPath
       clipPathUnits="userSpaceOnUse"
       id="clipPath41">
      <path
         d="M 0,660 H 660 V 0 H 0 Z"
         transform="translate(-341.36331,-359.95901)"
         id="path41" />
    </clipPath>
    <clipPath
       clipPathUnits="userSpaceOnUse"
       id="clipPath43">
      <path
         d="M 0,660 H 660 V 0 H 0 Z"
         transform="translate(-300.21731,-444.28961)"
         id="path43" />
    </clipPath>
    <clipPath
       clipPathUnits="userSpaceOnUse"
       id="clipPath45">
      <path
         d="M 0,660 H 660 V 0 H 0 Z"
         transform="translate(-337.48731,-455.40871)"
         id="path45" />
    </clipPath>
    <clipPath
       clipPathUnits="userSpaceOnUse"
       id="clipPath47">
      <path
         d="M 0,660 H 660 V 0 H 0 Z"
         transform="translate(-324.91601,-517.50881)"
         id="path47" />
    </clipPath>
    <clipPath
       clipPathUnits="userSpaceOnUse"
       id="clipPath49">
      <path
         d="M 0,660 H 660 V 0 H 0 Z"
         transform="translate(-324.91851,-477.85351)"
         id="path49" />
    </clipPath>
    <clipPath
       clipPathUnits="userSpaceOnUse"
       id="clipPath51">
      <path
         d="M 0,660 H 660 V 0 H 0 Z"
         transform="translate(-345.37011,-538.62352)"
         id="path51" />
    </clipPath>
    <clipPath
       clipPathUnits="userSpaceOnUse"
       id="clipPath53">
      <path
         d="M 0,660 H 660 V 0 H 0 Z"
         transform="translate(-336.11331,-489.21531)"
         id="path53" />
    </clipPath>
    <clipPath
       clipPathUnits="userSpaceOnUse"
       id="clipPath55">
      <path
         d="M 0,660 H 660 V 0 H 0 Z"
         transform="translate(-341.09861,-548.24221)"
         id="path55" />
    </clipPath>
    <clipPath
       clipPathUnits="userSpaceOnUse"
       id="clipPath57">
      <path
         d="M 0,660 H 660 V 0 H 0 Z"
         transform="translate(-335.46391,-525.14401)"
         id="path57" />
    </clipPath>
    <clipPath
       clipPathUnits="userSpaceOnUse"
       id="clipPath59">
      <path
         d="M 0,660 H 660 V 0 H 0 Z"
         transform="translate(-326.66601,-489.66941)"
         id="path59" />
    </clipPath>
    <clipPath
       clipPathUnits="userSpaceOnUse"
       id="clipPath61">
      <path
         d="M 0,660 H 660 V 0 H 0 Z"
         transform="translate(-298.28131,-506.28712)"
         id="path61" />
    </clipPath>
    <clipPath
       clipPathUnits="userSpaceOnUse"
       id="clipPath63">
      <path
         d="M 0,660 H 660 V 0 H 0 Z"
         transform="translate(-307.99611,-495.31151)"
         id="path63" />
    </clipPath>
    <clipPath
       clipPathUnits="userSpaceOnUse"
       id="clipPath65">
      <path
         d="M 0,660 H 660 V 0 H 0 Z"
         transform="translate(-351.58401,-506.28712)"
         id="path65" />
    </clipPath>
    <clipPath
       clipPathUnits="userSpaceOnUse"
       id="clipPath67">
      <path
         d="M 0,660 H 660 V 0 H 0 Z"
         transform="translate(-341.87011,-495.31151)"
         id="path67" />
    </clipPath>
    <clipPath
       clipPathUnits="userSpaceOnUse"
       id="clipPath69">
      <path
         d="M 0,660 H 660 V 0 H 0 Z"
         transform="translate(-345.37011,-530.73581)"
         id="path69" />
    </clipPath>
    <clipPath
       clipPathUnits="userSpaceOnUse"
       id="clipPath71">
      <path
         d="M 0,660 H 660 V 0 H 0 Z"
         transform="translate(-312.19531,-518.78321)"
         id="path71" />
    </clipPath>
    <clipPath
       clipPathUnits="userSpaceOnUse"
       id="clipPath73">
      <path
         d="M 0,660 H 660 V 0 H 0 Z"
         transform="translate(-312.19531,-518.78321)"
         id="path73" />
    </clipPath>
  </defs>
  <sodipodi:namedview
     id="namedview1"
     pagecolor="#ffffff"
     bordercolor="#000000"
     borderopacity="0.25"
     inkscape:showpageshadow="2"
     inkscape:pageopacity="0.0"
     inkscape:pagecheckerboard="0"
     inkscape:deskcolor="#d1d1d1"
     inkscape:zoom="0.67272727"
     inkscape:cx="439.25676"
     inkscape:cy="440"
     inkscape:window-width="1440"
     inkscape:window-height="830"
     inkscape:window-x="-6"
     inkscape:window-y="-6"
     inkscape:window-maximized="1"
     inkscape:current-layer="g1">
    <inkscape:page
       x="0"
       y="0"
       inkscape:label="1"
       id="page1"
       width="880"
       height="880"
       margin="0 0 1.0906667 1.2305093"
       bleed="0" />
  </sodipodi:namedview>
  <g
     id="g1"
     inkscape:groupmode="layer"
     inkscape:label="1">
    <g
       id="group-MC0">
      <path
         id="path2"
         d="M 0.923,0 H 660 V 659.182 H 0.923 Z"
         style="fill:#b0e0ce;fill-opacity:1;fill-rule:nonzero;stroke:none"
         transform="matrix(1.3333333,0,0,-1.3333333,0,880)" />
      <path
         id="path3"
         d="m 0,0 -119.485,-90.927 -11.159,9.202 -17.481,-11.074 11.285,-9.825 -32.319,-25.679 -6.294,-32.841 33.325,-5.379 35.358,25.789 10.37,-9.65 18.325,14.288 -9.487,10.065 140.421,107.632 z"
         style="fill:#9dcfbe;fill-opacity:1;fill-rule:evenodd;stroke:none"
         transform="matrix(1.3333333,0,0,-1.3333333,390.76627,420.638)" />
      <path
         id="path4"
         d="m 0,0 h 659.076 v -660.519 h -14.937 l -41.859,39.502 c -12.466,11.763 -18.275,27.116 -16.724,44.204 l 3.765,41.492 c 0.868,9.581 -0.513,17.986 -4.405,26.782 l -22.229,50.238 c -6.5,14.684 -6.398,29.853 0.296,44.448 l 18.065,39.385 c 8.679,18.919 6.185,39.737 -6.665,56.017 -9.363,11.86 -13.123,25.476 -11.179,40.472 l 3.347,25.784 c 3.273,25.212 -10.815,48.659 -34.58,57.555 l -7.189,2.692 c -9.688,3.626 -17.13,9.075 -23.517,17.225 l -27.001,34.441 c -12.974,16.548 -32.873,23.807 -53.426,19.49 l -68.789,-14.449 c -14.695,-3.086 -28.45,-0.424 -40.942,7.922 l -12.26,8.191 c -15.707,10.493 -34.119,12.131 -51.422,4.571 l -44.298,-19.351 c -10.461,-4.571 -20.666,-5.69 -31.867,-3.497 l -16.86,3.303 c -19.711,3.859 -38.566,-2.794 -51.518,-18.176 L 92.075,-165.115 C 75.232,-185.121 47.237,-190.189 24.474,-177.358 L 0,-163.56 Z"
         style="fill:#9dcfbe;fill-opacity:1;fill-rule:evenodd;stroke:none"
         transform="matrix(1.3333333,0,0,-1.3333333,1.2317333,1.0912)"
         clip-path="url(#clipPath5)" />
      <path
         id="path6"
         d="m 0,0 h -466.916 v 300.453 l 26.138,8.427 c 16.055,5.175 31.447,4.675 47.132,-1.534 5.975,-2.364 12.048,-3.762 18.876,-4.395 l 8.57,-0.793 c 16.94,-1.567 31.021,-8.187 43.051,-20.245 l 17.739,-17.778 c 7.37,-7.385 15.204,-12.492 24.627,-15.993 18.494,-6.873 31.899,-19.566 39.796,-37.68 6.063,-13.908 15.85,-24.638 29.504,-32.354 l 12.78,-7.225 c 12.338,-6.978 21.156,-16.116 27.696,-28.713 6.183,-11.913 15.457,-21.309 27.825,-28.193 l 6.759,-3.764 c 10.537,-5.866 18.309,-13.162 24.84,-23.318 l 2.145,-3.339 c 6.551,-10.186 14.383,-17.539 24.886,-23.345 9.72,-5.37 16.771,-12.313 22.303,-21.958 6.266,-10.919 15.792,-19.172 28.103,-24.229 z"
         style="fill:#f3f8f6;fill-opacity:1;fill-rule:evenodd;stroke:none"
         transform="matrix(1.3333333,0,0,-1.3333333,623.7864,881.78387)"
         clip-path="url(#clipPath7)" />
      <path
         id="path8"
         d="m 0,0 c 3.567,-3.575 7.245,-6.617 11.158,-9.202 h 0.002 c 4.169,-2.754 8.607,-4.987 13.466,-6.791 11.803,-4.387 21.532,-11.144 29.082,-20.17 l -10.626,-8.144 9.488,-10.064 -18.325,-14.288 -10.371,9.649 -35.358,-25.789 -33.324,5.38 6.294,32.841 32.319,25.679 -11.285,9.825 z"
         style="fill:#dce6e1;fill-opacity:1;fill-rule:evenodd;stroke:none"
         transform="matrix(1.3333333,0,0,-1.3333333,216.5736,529.60413)"
         clip-path="url(#clipPath9)" />
      <path
         id="path10"
         d="m 0,0 h -399.765 v 284.242 l 15.282,5.108 c 14.714,4.916 29.394,3.09 42.464,-5.279 l 22.256,-14.249 c 7.601,-4.868 15.221,-7.31 24.229,-7.769 l 6.222,-0.317 c 15.862,-0.809 29.172,-8.212 38.25,-21.274 l 1.424,-2.049 c 7.509,-10.808 17.647,-17.541 30.505,-20.264 13.948,-2.952 25.81,-11.792 32.958,-25.057 l 9.64,-17.898 c 5.754,-10.677 14.017,-18.063 25.261,-22.571 13.667,-5.481 24.081,-16.696 28.539,-30.923 4.975,-15.877 16.29,-27.318 32.087,-32.45 11.31,-3.672 20.549,-11.06 26.642,-21.306 6.32,-10.627 15.126,-17.754 26.824,-21.701 11.503,-3.883 20.375,-11.142 26.65,-21.805 l 4.196,-7.132 C -3.096,11.8 -0.999,5.941 0,0"
         style="fill:#f9cc78;fill-opacity:1;fill-rule:evenodd;stroke:none"
         transform="matrix(1.3333333,0,0,-1.3333333,534.25133,881.78387)"
         clip-path="url(#clipPath11)" />
      <path
         id="path12"
         d="m 0,0 0.315,-0.452 c 7.509,-10.809 17.647,-17.541 30.505,-20.264 9.857,-2.085 18.673,-7.115 25.519,-14.565 l -10.4,-8.109 -10.37,9.65 -35.358,-25.789 -33.324,5.38 6.294,32.84 z"
         style="fill:#e5b558;fill-opacity:1;fill-rule:evenodd;stroke:none"
         transform="matrix(1.3333333,0,0,-1.3333333,200.98053,563.29693)"
         clip-path="url(#clipPath13)" />
      <path
         id="path14"
         d="m 0,0 h -299.36 v 217.709 c 20.376,0.187 40.181,-6.498 57.483,-19.762 10.03,-7.689 21.536,-13.105 34.427,-16.193 22.789,-5.46 40.657,-17.404 54.438,-36.396 7.543,-10.395 16.82,-18.729 27.959,-25.125 15.263,-8.761 26.313,-19.843 35.047,-35.143 8.345,-14.623 19.783,-26.048 34.247,-34.209 C -43.26,43.827 -33.886,35.43 -25.494,23.771 -18.578,14.162 -10.23,6.386 0,0"
         style="fill:#e1a04a;fill-opacity:1;fill-rule:evenodd;stroke:none"
         transform="matrix(1.3333333,0,0,-1.3333333,400.37893,881.78387)"
         clip-path="url(#clipPath15)" />
      <path
         id="path16"
         d="m 0,0 h -161.818 v 176.071 l 1.597,-1.511 c 5.234,-4.962 10.481,-8.26 16.685,-10.486 l 4.284,-1.539 c 10.924,-3.918 20.091,-11.837 26.341,-22.757 l 0.98,-1.713 c 5.173,-9.033 12.153,-15.819 21.007,-20.418 9.607,-4.99 17.775,-13.592 22.697,-24.242 l 6.639,-14.369 c 3.962,-8.574 9.653,-15.409 17.396,-20.897 9.412,-6.673 16.581,-16.6 19.652,-27.343 C -21.113,18.808 -13.321,8.528 -2.442,1.648 -1.611,1.121 -0.798,0.573 0,0"
         style="fill:#769a2a;fill-opacity:1;fill-rule:evenodd;stroke:none"
         transform="matrix(1.3333333,0,0,-1.3333333,216.9896,881.78387)"
         clip-path="url(#clipPath17)" />
      <path
         id="path18"
         d="m 0,0 c -14.396,14.725 -20.75,34.489 -17.913,54.227 1.343,9.342 0.851,18.131 -1.519,26.591 -3.121,11.14 1.7,22.628 11.829,28.179 l 0.796,0.435 c 17.686,9.693 36.843,10.822 55.542,3.275 l 9.404,-3.797 c 10.553,-4.26 20.528,-5.603 31.832,-4.285 l 9.514,1.108 c 23.552,2.745 45.121,-6.491 59.423,-25.443 7.305,-9.681 16.001,-16.337 27.339,-20.941 l 14.661,-5.958 c 7.382,-2.998 12.446,-8.762 14.482,-16.481 2.033,-7.719 0.471,-15.237 -4.47,-21.499 C 201.814,3.875 188.848,-4.273 173.534,-7.535 159.049,-10.617 147.492,-17.462 137.812,-28.69 125.894,-42.515 108.921,-50.431 89.739,-50.67 l -7.914,-0.099 c -8.336,-0.104 -15.442,-1.512 -23.19,-4.595 l -7.024,-2.793 c -7.155,-2.846 -14.483,-2.329 -21.17,1.493 -6.687,3.819 -10.862,9.879 -12.062,17.498 l -0.584,3.694 C 15.594,-21.499 9.879,-10.105 0,0"
         style="fill:#f3f8f6;fill-opacity:1;fill-rule:evenodd;stroke:none"
         transform="matrix(1.3333333,0,0,-1.3333333,323.8476,502.18227)"
         clip-path="url(#clipPath19)" />
      <path
         id="path20"
         d="M 0,0 C -4.377,4.48 -8.013,9.425 -10.872,14.691 L 50.189,61.158 103.048,42.759 15.194,-24.581 C 12.164,-15.377 7.182,-7.347 0,0"
         style="fill:#dce6e1;fill-opacity:1;fill-rule:evenodd;stroke:none"
         transform="matrix(1.3333333,0,0,-1.3333333,323.8476,502.18227)"
         clip-path="url(#clipPath21)" />
      <path
         id="path22"
         d="m 0,0 c -12.207,12.487 -17.593,29.244 -15.189,45.983 1.14,7.922 0.723,15.377 -1.288,22.548 -2.646,9.446 1.444,19.188 10.034,23.896 l 0.672,0.368 c 14.999,8.22 31.244,9.178 47.098,2.777 l 7.974,-3.218 c 8.953,-3.613 17.409,-4.752 26.994,-3.635 l 8.068,0.94 c 19.972,2.327 38.261,-5.502 50.388,-21.575 6.196,-8.209 13.572,-13.853 23.184,-17.759 l 12.434,-5.05 c 6.26,-2.543 10.553,-7.431 12.279,-13.975 1.723,-6.545 0.4,-12.92 -3.79,-18.231 -7.72,-9.784 -18.714,-16.693 -31.704,-19.46 -12.282,-2.613 -22.084,-8.417 -30.291,-17.94 -10.105,-11.722 -24.499,-18.436 -40.766,-18.638 l -6.708,-0.085 c -7.068,-0.087 -13.097,-1.28 -19.666,-3.894 l -5.957,-2.367 c -6.064,-2.414 -12.282,-1.977 -17.951,1.263 -5.667,3.24 -9.211,8.378 -10.228,14.841 l -0.495,3.131 C 13.224,-18.23 8.379,-8.569 0,0"
         style="fill:#f9cc78;fill-opacity:1;fill-rule:evenodd;stroke:none"
         transform="matrix(1.3333333,0,0,-1.3333333,335.79813,487.92453)"
         clip-path="url(#clipPath23)" />
      <path
         id="path24"
         d="M 0,0 C -3.638,3.72 -6.668,7.822 -9.071,12.191 L 41.226,50.465 94.085,32.066 14.854,-28.665 C 12.831,-17.457 8.041,-8.226 0,0"
         style="fill:#e5b558;fill-opacity:1;fill-rule:evenodd;stroke:none"
         transform="matrix(1.3333333,0,0,-1.3333333,335.79813,487.92453)"
         clip-path="url(#clipPath25)" />
      <path
         id="path26"
         d="m 0,0 c -8.336,8.525 -12.015,19.969 -10.373,31.399 0.779,5.409 0.495,10.499 -0.88,15.396 -1.807,6.451 0.984,13.104 6.851,16.317 l 0.458,0.251 c 10.243,5.614 21.337,6.267 32.162,1.897 l 5.446,-2.197 C 39.775,60.595 45.55,59.817 52.098,60.58 l 5.506,0.643 c 13.638,1.588 26.128,-3.759 34.411,-14.732 4.23,-5.605 9.266,-9.461 15.828,-12.128 l 8.49,-3.45 c 4.276,-1.734 7.208,-5.073 8.386,-9.542 1.177,-4.47 0.272,-8.823 -2.588,-12.449 -5.273,-6.68 -12.779,-11.399 -21.649,-13.287 -8.385,-1.783 -15.08,-5.748 -20.684,-12.249 -6.901,-8.004 -16.728,-12.589 -27.836,-12.73 l -4.584,-0.055 c -4.826,-0.06 -8.938,-0.877 -13.427,-2.66 l -4.067,-1.619 c -4.141,-1.644 -8.386,-1.347 -12.258,0.865 -3.871,2.213 -6.291,5.721 -6.985,10.132 l -0.338,2.139 C 9.03,-12.451 5.718,-5.852 0,0"
         style="fill:#e1a04a;fill-opacity:1;fill-rule:evenodd;stroke:none"
         transform="matrix(1.3333333,0,0,-1.3333333,370.92187,457.33333)"
         clip-path="url(#clipPath27)" />
      <path
         id="path28"
         d="M 0,0 C -3.109,3.18 -5.568,6.767 -7.347,10.606 L 14.883,27.524 67.742,9.125 15.235,-31.121 c -2.483,2.15 -4.055,5.027 -4.594,8.443 l -0.338,2.139 C 9.03,-12.448 5.718,-5.849 0,0"
         style="fill:#cc8c3a;fill-opacity:1;fill-rule:evenodd;stroke:none"
         transform="matrix(1.3333333,0,0,-1.3333333,370.92187,457.3372)"
         clip-path="url(#clipPath29)" />
      <path
         id="path30"
         d="m 0,0 c 0,-13.526 -14.258,-24.492 -31.844,-24.492 -17.585,0 -31.841,10.966 -31.841,24.492 V 26.343 H 0 Z"
         style="fill:#d64520;fill-opacity:1;fill-rule:evenodd;stroke:none"
         transform="matrix(1.3333333,0,0,-1.3333333,475.67973,420.638)"
         clip-path="url(#clipPath31)" />
      <path
         id="path32"
         d="m 0,0 c -5.816,-4.839 -14.141,-7.871 -23.385,-7.871 -17.585,0 -31.841,10.966 -31.841,24.492 v 26.343 h 47.845 l 0.444,-10.908 5.016,-7.178 z"
         style="fill:#c23a21;fill-opacity:1;fill-rule:evenodd;stroke:none"
         transform="matrix(1.3333333,0,0,-1.3333333,464.40107,442.79947)"
         clip-path="url(#clipPath33)" />
      <path
         id="path34"
         d="M 0,0 C 17.538,0 31.841,11.002 31.841,24.492 31.841,37.98 17.538,48.981 0,48.981 -17.54,48.981 -31.844,37.98 -31.844,24.492 -31.844,11.002 -17.54,0 0,0"
         style="fill:#e9541e;fill-opacity:1;fill-rule:evenodd;stroke:none"
         transform="matrix(1.3333333,0,0,-1.3333333,433.22467,418.164)"
         clip-path="url(#clipPath35)" />
      <path
         id="path36"
         d="m 0,0 c 5.474,0 10.628,-1.064 15.129,-2.936 l 1.318,-32.466 5.017,-7.178 C 15.801,-46.554 8.271,-48.979 0,-48.979 c -17.581,0 -31.841,10.965 -31.841,24.485 C -31.841,-10.967 -17.581,0 0,0"
         style="fill:#d64520;fill-opacity:1;fill-rule:evenodd;stroke:none"
         transform="matrix(1.3333333,0,0,-1.3333333,433.22133,352.85547)"
         clip-path="url(#clipPath37)" />
      <path
         id="path38"
         d="m 0,0 c 0,-11.746 -12.38,-21.267 -27.651,-21.267 -15.272,0 -27.65,9.521 -27.65,21.267 l 5.296,116.391 44.683,-0.787 z"
         style="fill:#fce4d9;fill-opacity:1;fill-rule:evenodd;stroke:none"
         transform="matrix(1.3333333,0,0,-1.3333333,470.08987,377.26173)"
         clip-path="url(#clipPath39)" />
      <path
         id="path40"
         d="m 0,0 c -4.595,-2.622 -10.286,-4.172 -16.447,-4.172 -15.272,0 -27.65,9.521 -27.65,21.267 l 5.296,116.39 33.404,-0.587 z"
         style="fill:#f3d1c2;fill-opacity:1;fill-rule:evenodd;stroke:none"
         transform="matrix(1.3333333,0,0,-1.3333333,455.15107,400.05467)"
         clip-path="url(#clipPath41)" />
      <path
         id="path42"
         d="M 0,0 1.058,23.258 C 0.151,3.306 49.134,5.133 48.3,23.258 L 49.372,0 C 50.302,-20.262 -0.914,-20.106 0,0 m -2.001,-43.954 1.058,23.259 c -1.075,-25.476 52.638,-23.211 51.264,0 l 1.07,-23.259 c 1.28,-27.763 -54.639,-27.375 -53.392,0"
         style="fill:#d64520;fill-opacity:1;fill-rule:evenodd;stroke:none"
         transform="matrix(1.3333333,0,0,-1.3333333,400.28973,287.61387)"
         clip-path="url(#clipPath43)" />
      <path
         id="path44"
         d="m 0,0 0.979,-24.109 c -14.758,-5.245 -38.878,-0.864 -38.249,12.99 l 1.058,23.258 C -36.831,-1.495 -14.16,-4.957 0,0 m -39.271,-55.073 1.058,23.258 C -38.958,-49.467 -13.4,-53.796 1.911,-47.071 l 1.032,-25.404 c -15.919,-7.704 -43.084,-1.771 -42.214,17.402"
         style="fill:#c23a21;fill-opacity:1;fill-rule:evenodd;stroke:none"
         transform="matrix(1.3333333,0,0,-1.3333333,449.98307,272.7884)"
         clip-path="url(#clipPath45)" />
      <path
         id="path46"
         d="m 0,0 c 13.4,0 24.834,-6.48 29.291,-15.59 h 1.999 v -8.475 C 31.29,-37.358 17.281,-48.13 0,-48.13 c -17.279,0 -31.287,10.772 -31.287,24.065 v 8.475 h 1.995 C -24.831,-6.48 -13.4,0 0,0"
         style="fill:#d64520;fill-opacity:1;fill-rule:evenodd;stroke:none"
         transform="matrix(1.3333333,0,0,-1.3333333,433.22133,189.98827)"
         clip-path="url(#clipPath47)" />
      <path
         id="path48"
         d="M 0,0 C 17.233,0 31.29,10.811 31.29,24.065 31.29,37.32 17.233,48.131 0,48.131 -17.236,48.131 -31.29,37.32 -31.29,24.065 -31.29,10.811 -17.236,0 0,0"
         style="fill:#e9541e;fill-opacity:1;fill-rule:evenodd;stroke:none"
         transform="matrix(1.3333333,0,0,-1.3333333,433.22467,242.862)"
         clip-path="url(#clipPath49)" />
      <path
         id="path50"
         d="m 0,0 v -36.243 c 0,-8.689 -9.158,-15.73 -20.454,-15.73 -11.293,0 -20.451,7.041 -20.451,15.73 V 0 Z"
         style="fill:#fce4d9;fill-opacity:1;fill-rule:evenodd;stroke:none"
         transform="matrix(1.3333333,0,0,-1.3333333,460.49347,161.83533)"
         clip-path="url(#clipPath51)" />
      <path
         id="path52"
         d="m 0,0 c -3.216,-1.621 -7.064,-2.564 -11.197,-2.564 -11.294,0 -20.451,7.041 -20.451,15.73 V 46.311 L -1.444,35.577 Z"
         style="fill:#f3d1c2;fill-opacity:1;fill-rule:evenodd;stroke:none"
         transform="matrix(1.3333333,0,0,-1.3333333,448.15107,227.71293)"
         clip-path="url(#clipPath53)" />
      <path
         id="path54"
         d="m 0,0 c 2.676,-2.659 4.272,-5.995 4.272,-9.619 0,-8.688 -9.159,-15.731 -20.455,-15.731 -11.293,0 -20.451,7.043 -20.451,15.731 0,3.624 1.593,6.96 4.272,9.619 L -32.365,0 -16.183,24.772 0.002,0 Z"
         style="fill:#e9541e;fill-opacity:1;fill-rule:evenodd;stroke:none"
         transform="matrix(1.3333333,0,0,-1.3333333,454.79813,149.0104)"
         clip-path="url(#clipPath55)" />
      <path
         id="path56"
         d="m 0,0 c -3.078,-1.43 -6.689,-2.251 -10.548,-2.251 -11.293,0 -20.451,7.042 -20.451,15.73 0,3.625 1.593,6.961 4.271,9.619 h -0.002 l 16.182,24.773 z"
         style="fill:#d64520;fill-opacity:1;fill-rule:evenodd;stroke:none"
         transform="matrix(1.3333333,0,0,-1.3333333,447.2852,179.808)"
         clip-path="url(#clipPath57)" />
      <path
         id="path58"
         d="m 0,0 v -8.311 c 0,-1.168 -3.497,-1.169 -3.497,0 V 0 Z"
         style="fill:#2f2825;fill-opacity:1;fill-rule:evenodd;stroke:none"
         transform="matrix(1.3333333,0,0,-1.3333333,435.55467,227.10747)"
         clip-path="url(#clipPath59)" />
      <path
         id="path60"
         d="m 0,0 v -8.31 c 0,-1.168 -3.498,-1.17 -3.498,0 V 0 Z"
         style="fill:#2f2825;fill-opacity:1;fill-rule:evenodd;stroke:none"
         transform="matrix(1.3333333,0,0,-1.3333333,397.7084,204.95053)"
         clip-path="url(#clipPath61)" />
      <path
         id="path62"
         d="m 0,0 v -8.309 c 0,-1.169 -3.495,-1.169 -3.495,0 V 0 Z"
         style="fill:#2f2825;fill-opacity:1;fill-rule:evenodd;stroke:none"
         transform="matrix(1.3333333,0,0,-1.3333333,410.66147,219.58467)"
         clip-path="url(#clipPath63)" />
      <path
         id="path64"
         d="m 0,0 v -8.31 c 0,-1.168 3.5,-1.17 3.5,0 V 0 Z"
         style="fill:#2f2825;fill-opacity:1;fill-rule:evenodd;stroke:none"
         transform="matrix(1.3333333,0,0,-1.3333333,468.77867,204.95053)"
         clip-path="url(#clipPath65)" />
      <path
         id="path66"
         d="m 0,0 v -8.309 c 0,-1.169 3.5,-1.169 3.5,0 V 0 Z"
         style="fill:#2f2825;fill-opacity:1;fill-rule:evenodd;stroke:none"
         transform="matrix(1.3333333,0,0,-1.3333333,455.8268,219.58467)"
         clip-path="url(#clipPath67)" />
      <path
         id="path68"
         d="m 0,0 c 0.486,-0.33 0.959,-0.673 1.422,-1.027 5.752,-4.425 9.31,-10.575 9.31,-17.399 0,-6.825 -3.558,-12.974 -9.31,-17.4 -5.619,-4.32 -13.355,-6.994 -21.876,-6.994 -8.519,0 -16.255,2.674 -21.874,6.994 -5.754,4.426 -9.312,10.575 -9.312,17.4 0,6.824 3.56,12.974 9.312,17.399 0.46,0.354 0.935,0.697 1.423,1.027 v -4.362 c -4.489,-3.714 -7.235,-8.659 -7.235,-14.064 0,-5.679 3.033,-10.852 7.931,-14.619 5.033,-3.872 12.02,-6.268 19.755,-6.268 7.738,0 14.722,2.396 19.755,6.268 4.901,3.767 7.933,8.94 7.933,14.619 0,5.405 -2.746,10.35 -7.234,14.064 z"
         style="fill:#2f2825;fill-opacity:1;fill-rule:evenodd;stroke:none"
         transform="matrix(1.3333333,0,0,-1.3333333,460.49347,172.35227)"
         clip-path="url(#clipPath69)" />
      <path
         id="path70"
         d="M 0,0 V -0.001 C 2.394,-1.59 4.351,-5.71 4.351,-9.161 v -15.064 c -3.493,1.036 -6.444,2.883 -8.7,5.775 V -3.386 C -4.349,0.065 -2.393,1.588 0,0"
         style="fill:#ffffff;fill-opacity:1;fill-rule:evenodd;stroke:none"
         transform="matrix(1.3333333,0,0,-1.3333333,416.2604,188.28907)"
         clip-path="url(#clipPath71)" />
      <path
         id="path72"
         d="M 0,0 V -0.001 C 2.394,-1.59 4.351,-5.71 4.351,-9.161 v -12.671 c -2.611,1.095 -4.862,2.741 -6.665,5.053 v 15.064 c 0,0.927 0.14,1.715 0.395,2.34 C -1.34,0.655 -0.689,0.456 0,0"
         style="fill:#bc917b;fill-opacity:1;fill-rule:evenodd;stroke:none"
         transform="matrix(1.3333333,0,0,-1.3333333,416.2604,188.28907)"
         clip-path="url(#clipPath73)" />
    </g>
  </g>
</svg>
