<?xml version="1.0" encoding="UTF-8" standalone="no"?>
<!-- Created with Inkscape (http://www.inkscape.org/) -->

<svg
   version="1.1"
   id="svg1"
   width="880"
   height="880"
   viewBox="0 0 880 880"
   sodipodi:docname="tree-in-the-park.svg"
   inkscape:version="1.3.2 (091e20e, 2023-11-25, custom)"
   xmlns:inkscape="http://www.inkscape.org/namespaces/inkscape"
   xmlns:sodipodi="http://sodipodi.sourceforge.net/DTD/sodipodi-0.dtd"
   xmlns="http://www.w3.org/2000/svg"
   xmlns:svg="http://www.w3.org/2000/svg">
  <defs
     id="defs1">
    <clipPath
       clipPathUnits="userSpaceOnUse"
       id="clipPath4">
      <path
         d="M 0,660 H 660 V 0 H 0 Z"
         transform="translate(-420.91021,-568.35352)"
         id="path4" />
    </clipPath>
    <clipPath
       clipPathUnits="userSpaceOnUse"
       id="clipPath6">
      <path
         d="M 0,660 H 660 V 0 H 0 Z"
         transform="translate(-660.00202,-484.34911)"
         id="path6" />
    </clipPath>
    <clipPath
       clipPathUnits="userSpaceOnUse"
       id="clipPath8">
      <path
         d="M 0,660 H 660 V 0 H 0 Z"
         transform="translate(-282.7339,-476.90581)"
         id="path8" />
    </clipPath>
    <clipPath
       clipPathUnits="userSpaceOnUse"
       id="clipPath10">
      <path
         d="M 0,660 H 660 V 0 H 0 Z"
         transform="translate(-660.00202,-329.49561)"
         id="path10" />
    </clipPath>
    <clipPath
       clipPathUnits="userSpaceOnUse"
       id="clipPath12">
      <path
         d="M 0,660 H 660 V 0 H 0 Z"
         id="path12" />
    </clipPath>
    <clipPath
       clipPathUnits="userSpaceOnUse"
       id="clipPath14">
      <path
         d="M 0,660 H 660 V 0 H 0 Z"
         transform="translate(-341.82911,-347.91991)"
         id="path14" />
    </clipPath>
    <clipPath
       clipPathUnits="userSpaceOnUse"
       id="clipPath16">
      <path
         d="M 0,660 H 660 V 0 H 0 Z"
         transform="translate(-392.16601,-99.198205)"
         id="path16" />
    </clipPath>
    <clipPath
       clipPathUnits="userSpaceOnUse"
       id="clipPath18">
      <path
         d="M 0,660 H 660 V 0 H 0 Z"
         transform="translate(-302.67681,-437.64751)"
         id="path18" />
    </clipPath>
    <clipPath
       clipPathUnits="userSpaceOnUse"
       id="clipPath20">
      <path
         d="M 0,660 H 660 V 0 H 0 Z"
         transform="translate(-384.89061,-99.198205)"
         id="path20" />
    </clipPath>
    <clipPath
       clipPathUnits="userSpaceOnUse"
       id="clipPath22">
      <path
         d="M 0,660 H 660 V 0 H 0 Z"
         transform="translate(-308.28271,-554.41651)"
         id="path22" />
    </clipPath>
    <clipPath
       clipPathUnits="userSpaceOnUse"
       id="clipPath24">
      <path
         d="M 0,660 H 660 V 0 H 0 Z"
         transform="translate(-572.04101,-145.49121)"
         id="path24" />
    </clipPath>
    <clipPath
       clipPathUnits="userSpaceOnUse"
       id="clipPath26">
      <path
         d="M 0,660 H 660 V 0 H 0 Z"
         transform="translate(-337.23441,-350.89501)"
         id="path26" />
    </clipPath>
    <clipPath
       clipPathUnits="userSpaceOnUse"
       id="clipPath28">
      <path
         d="M 0,660 H 660 V 0 H 0 Z"
         transform="translate(-300.11281,-432.83401)"
         id="path28" />
    </clipPath>
    <clipPath
       clipPathUnits="userSpaceOnUse"
       id="clipPath30">
      <path
         d="M 0,660 H 660 V 0 H 0 Z"
         transform="translate(-415.61821,-565.70902)"
         id="path30" />
    </clipPath>
    <clipPath
       clipPathUnits="userSpaceOnUse"
       id="clipPath32">
      <path
         d="M 0,660 H 660 V 0 H 0 Z"
         transform="translate(-387.35941,-563.86381)"
         id="path32" />
    </clipPath>
  </defs>
  <sodipodi:namedview
     id="namedview1"
     pagecolor="#ffffff"
     bordercolor="#000000"
     borderopacity="0.25"
     inkscape:showpageshadow="2"
     inkscape:pageopacity="0.0"
     inkscape:pagecheckerboard="0"
     inkscape:deskcolor="#d1d1d1"
     inkscape:zoom="0.69318182"
     inkscape:cx="439.27869"
     inkscape:cy="440"
     inkscape:window-width="1440"
     inkscape:window-height="830"
     inkscape:window-x="-6"
     inkscape:window-y="-6"
     inkscape:window-maximized="1"
     inkscape:current-layer="g1">
    <inkscape:page
       x="0"
       y="0"
       inkscape:label="1"
       id="page1"
       width="880"
       height="880"
       margin="0"
       bleed="0" />
  </sodipodi:namedview>
  <g
     id="g1"
     inkscape:groupmode="layer"
     inkscape:label="1">
    <g
       id="group-MC0">
      <path
         id="path2"
         d="M 0,0 H 660 V 660 H 0 Z"
         style="fill:#eaf1cf;fill-opacity:1;fill-rule:nonzero;stroke:none"
         transform="matrix(1.3333333,0,0,-1.3333333,0,880)" />
      <path
         id="path3"
         d="m 0,0 c 9.478,-5.717 15.381,-13.764 15.381,-22.678 0,-3.323 -0.822,-6.524 -2.34,-9.53 8.717,1.674 18.07,2.586 27.803,2.586 47.298,0 85.64,-21.466 85.64,-47.946 0,-26.48 -38.342,-47.946 -85.64,-47.946 -47.3,0 -85.643,21.466 -85.643,47.946 0,8.533 3.986,16.542 10.964,23.483 -0.237,-0.003 -0.474,-0.006 -0.713,-0.006 -23.977,0 -44.004,10.633 -48.821,24.814 -6.493,-1.503 -13.556,-2.329 -20.949,-2.329 -11.978,0 -23.099,2.167 -32.311,5.875 -2.813,-5.668 -10.266,-10.501 -20.385,-13.571 8.618,-5.214 13.679,-11.569 13.679,-18.426 0,-17.714 -33.754,-32.074 -75.392,-32.074 -41.636,0 -75.39,14.36 -75.39,32.074 0,16.284 28.527,29.734 65.479,31.798 -0.868,1.679 -1.331,3.431 -1.331,5.236 0,6.871 6.678,13.013 17.159,17.076 -5.38,3.832 -8.561,8.558 -8.561,13.676 0,12.782 19.837,23.145 44.309,23.145 2.474,0 4.902,-0.106 7.267,-0.31 -1.287,2.415 -1.977,4.958 -1.977,7.585 0,15.705 24.575,28.437 54.891,28.437 22.909,0 42.535,-7.272 50.761,-17.604 9.07,2.368 19.493,3.716 30.58,3.716 35.063,0 63.486,-13.472 63.486,-30.09 C 27.946,14.559 16.862,5.41 0,0"
         style="fill:#ffffff;fill-opacity:1;fill-rule:evenodd;stroke:none"
         transform="matrix(1.3333333,0,0,-1.3333333,561.2136,122.19533)"
         clip-path="url(#clipPath4)" />
      <path
         id="path5"
         d="m 0,0 v -228.825 c -10.357,-5.844 -22.316,-9.181 -35.055,-9.181 -11.678,0 -22.701,2.802 -32.433,7.771 -11.009,-15.319 -28.979,-25.297 -49.281,-25.297 -10.068,0 -19.56,2.456 -27.917,6.796 -6.501,-37.664 -39.326,-66.317 -78.846,-66.317 -19.969,0 -38.231,7.317 -52.249,19.414 -18.51,-23.879 -47.464,-39.254 -80.016,-39.254 -47.205,0 -86.857,32.328 -98.034,76.05 -4.463,-1.041 -9.08,-1.688 -13.811,-1.89 0.052,-1.567 0.081,-3.14 0.081,-4.721 0,-77.064 -62.473,-139.539 -139.538,-139.539 -18.727,0 -36.586,3.699 -52.903,10.39 V 20.213 c 18.009,-5.627 31.078,-22.437 31.078,-42.299 0,-8.579 -2.442,-16.587 -6.664,-23.374 19.158,-1.634 35.78,-12.145 45.741,-27.402 8.306,4.946 18.01,7.79 28.379,7.79 7.85,0 15.319,-1.632 22.089,-4.569 4.323,21.468 23.286,37.635 46.027,37.635 24.008,0 43.805,-18.017 46.611,-41.269 1.743,0.176 3.513,0.267 5.303,0.267 17.72,0 33.362,-8.88 42.729,-22.43 10.205,29.97 38.59,51.528 72.011,51.528 38.79,0 70.798,-29.045 75.465,-66.572 7.006,2.839 14.666,4.408 22.694,4.408 14.027,0 26.939,-4.779 37.197,-12.795 8.669,23.675 31.401,40.57 58.081,40.57 9.978,0 19.403,-2.366 27.746,-6.563 4.824,25.574 27.281,44.921 54.258,44.921 9.266,0 17.995,-2.285 25.661,-6.317 -0.129,1.427 -0.2,2.871 -0.2,4.332 0,18.32 10.492,34.188 25.796,41.926"
         style="fill:#fafced;fill-opacity:1;fill-rule:evenodd;stroke:none"
         transform="matrix(1.3333333,0,0,-1.3333333,880.00267,234.2012)"
         clip-path="url(#clipPath6)" />
      <path
         id="path7"
         d="m 0,0 c -5.989,-10.921 -24.021,-18.854 -45.336,-18.854 -26.205,0 -47.45,11.991 -47.45,26.783 0,13.044 16.523,23.908 38.398,26.294 -0.025,0.438 -0.041,0.876 -0.041,1.317 0,19.63 24.057,35.545 53.731,35.545 5.959,0 11.688,-0.643 17.042,-1.827 9.002,8.241 25.105,13.73 43.47,13.73 28.216,0 51.089,-12.953 51.089,-28.932 0,-4.835 -2.097,-9.392 -5.8,-13.398 27.672,-2.979 48.454,-15.613 48.454,-30.745 0,-3.572 -1.16,-7.004 -3.294,-10.204 14.865,-5.088 24.869,-14.606 24.869,-25.508 0,-16.259 -22.242,-29.439 -49.681,-29.439 -27.437,0 -49.679,13.18 -49.679,29.439 0,1.839 0.286,3.639 0.831,5.384 C 52.271,-17.03 33.964,-6.088 31.77,7.219 22.922,2.775 11.931,0.1 0,0"
         style="fill:#769a2a;fill-opacity:1;fill-rule:evenodd;stroke:none"
         transform="matrix(1.3333333,0,0,-1.3333333,376.97853,244.1256)"
         clip-path="url(#clipPath8)" />
      <path
         id="path9"
         d="m 0,0 v -260.879 c -6.755,-2.91 -13.849,-4.469 -21.166,-4.469 -29.453,0 -55.306,25.143 -69.946,62.991 -13.161,-29.066 -36.74,-48.443 -63.64,-48.443 -33.079,0 -61.134,29.295 -70.972,69.882 -7.926,-35.136 -31.479,-60.622 -59.31,-60.622 -25.051,0 -46.639,20.653 -56.481,50.406 -6.893,-5.169 -14.661,-8.082 -22.878,-8.082 -12.163,0 -23.34,6.372 -32.159,17.026 -14.174,-29.303 -39.196,-48.77 -67.7,-48.77 -27.162,0 -51.16,17.676 -65.625,44.697 -8.847,-14.43 -21.792,-23.535 -36.219,-23.535 -13.241,0 -25.234,7.67 -33.955,20.085 -10.93,-15.716 -25.761,-25.375 -42.097,-25.375 -6.213,0 -12.209,1.401 -17.854,3.996 v 174.533 c 5.645,2.595 11.641,3.996 17.854,3.996 22.81,0 42.685,-18.833 53.099,-46.693 6.828,5.317 14.645,8.335 22.953,8.335 10.697,0 20.58,-5.007 28.582,-13.476 12.398,36.751 40.533,62.416 73.262,62.416 26.417,0 49.844,-16.722 64.415,-42.495 9.242,13.229 21.716,21.343 35.444,21.343 19.263,0 36.059,-15.978 44.917,-39.65 9.86,9.162 21.702,14.508 34.442,14.508 26.358,0 48.883,-22.86 57.924,-55.13 8.321,43.882 37.561,76.293 72.358,76.293 22.505,0 42.686,-13.562 56.387,-35.012 11.907,50.641 41.978,86.595 77.199,86.595 C -13.849,4.471 -6.755,2.913 0,0"
         style="fill:#aad61b;fill-opacity:1;fill-rule:evenodd;stroke:none"
         transform="matrix(1.3333333,0,0,-1.3333333,880.00267,440.67253)"
         clip-path="url(#clipPath10)" />
      <path
         id="path11"
         d="M 0,0 H 660.002 V 186.492 H 0 Z"
         style="fill:#9ac421;fill-opacity:1;fill-rule:evenodd;stroke:none"
         transform="matrix(1.3333333,0,0,-1.3333333,0,880)"
         clip-path="url(#clipPath12)" />
      <path
         id="path13"
         d="m 0,0 32.506,26.86 c 12.976,10.722 19.432,25.586 18.524,42.65 -1.013,19.032 7.443,35.763 23.323,46.035 l 22.468,14.533 -8.177,8.597 -28.788,-19.43 C 46.036,109.916 38.224,95.98 37.371,79.138 L 37.362,78.964 C 36.556,63.001 29.546,49.757 16.898,40.294 L -6.947,22.452 Z"
         style="fill:#d2541f;fill-opacity:1;fill-rule:evenodd;stroke:none"
         transform="matrix(1.3333333,0,0,-1.3333333,455.77213,416.1068)"
         clip-path="url(#clipPath14)" />
      <path
         id="path15"
         d="m 0,0 -34.967,70.655 c -21.284,43.01 -25.846,86.681 -13.876,132.797 10.561,40.689 7.49,81.75 -8.717,119.661 -18.15,42.452 -20.737,84.394 -7.919,128.41 l 2.163,7.435 -13.954,5.952 -2.708,-5.886 c -18.568,-40.339 -22.714,-82.537 -12.557,-123.409 11.246,-45.257 6.839,-87.521 -13.472,-129.136 -20.395,-41.792 -24.534,-85.092 -12.526,-130.881 L -98.707,0 Z"
         style="fill:#d2541f;fill-opacity:1;fill-rule:evenodd;stroke:none"
         transform="matrix(1.3333333,0,0,-1.3333333,522.888,747.73573)"
         clip-path="url(#clipPath16)" />
      <path
         id="path17"
         d="M 0,0 -19.037,4.698 C -40.072,9.892 -55.77,23.327 -64.127,43.29 l -10.8,25.802 4.198,3.852 9.615,-20.069 c 9.637,-20.119 26.828,-32.982 48.923,-36.608 L -1.425,14.5 Z"
         style="fill:#d2541f;fill-opacity:1;fill-rule:evenodd;stroke:none"
         transform="matrix(1.3333333,0,0,-1.3333333,403.56907,296.47)"
         clip-path="url(#clipPath18)" />
      <path
         id="path19"
         d="m 0,0 -34.178,70.655 c -20.803,43.01 -24.881,86.681 -12.395,132.797 11.015,40.689 8.4,81.75 -7.384,119.661 -17.674,42.452 -19.794,84.394 -6.486,128.41 l 2.247,7.435 -13.887,5.952 -2.775,-5.886 c -19.017,-40.339 -23.635,-82.537 -13.935,-123.409 10.743,-45.257 5.864,-87.521 -14.912,-129.136 -20.859,-41.792 -25.482,-85.092 -13.984,-130.881 L -98.706,0 Z"
         style="fill:#7e2b1a;fill-opacity:1;fill-rule:evenodd;stroke:none"
         transform="matrix(1.3333333,0,0,-1.3333333,513.18747,747.73573)"
         clip-path="url(#clipPath20)" />
      <path
         id="path21"
         d="m 0,0 c -17.543,-39.181 -21.579,-80.015 -12.185,-119.603 10.743,-45.257 5.864,-87.521 -14.912,-129.137 -20.859,-41.791 -25.482,-85.091 -13.984,-130.881 l 18.983,-75.597 h 62.569 l -30.908,71.661 c -18.815,43.621 -20.869,87.913 -6.252,134.688 12.897,41.265 12.182,82.911 -1.847,121.361 C -13.926,-85.331 -14.411,-43.649 0,0"
         style="fill:#441c14;fill-opacity:1;fill-rule:evenodd;stroke:none"
         transform="matrix(1.3333333,0,0,-1.3333333,411.0436,140.778)"
         clip-path="url(#clipPath22)" />
      <path
         id="path23"
         d="m 0,0 c 19.177,0 34.722,-24.279 34.722,-54.229 0,-2.24 -0.091,-4.447 -0.259,-6.614 h -68.924 c -0.17,2.167 -0.259,4.374 -0.259,6.614 C -34.72,-24.279 -19.175,0 0,0 m -503.269,-32.405 c 6.312,0 11.988,-4.27 15.919,-11.068 5.642,11.856 16.16,19.828 28.204,19.828 17.293,0 31.438,-16.435 32.522,-37.198 h -97.873 c 1.618,16.114 10.506,28.438 21.228,28.438 m 159.381,58.195 c 11.675,0 22.19,-8.052 29.555,-20.919 4.859,1.987 10.037,3.064 15.415,3.064 8.827,0 17.12,-2.893 24.331,-7.967 7.782,20.244 21.814,33.759 37.833,33.759 18.358,0 34.109,-17.749 40.833,-43.04 8.572,14.757 21.56,24.167 36.095,24.167 8.441,0 16.361,-3.175 23.198,-8.73 6.481,27.56 21.097,46.781 38.091,46.781 23.011,0 41.664,-35.233 41.664,-78.697 0,-12.596 -1.569,-24.496 -4.354,-35.051 h -320.846 c -1.396,6.639 -2.155,13.756 -2.155,21.163 0,36.158 18.06,65.47 40.34,65.47"
         style="fill:#769a2a;fill-opacity:1;fill-rule:evenodd;stroke:none"
         transform="matrix(1.3333333,0,0,-1.3333333,762.72133,686.01173)"
         clip-path="url(#clipPath24)" />
      <path
         id="path25"
         d="m 0,0 33.267,26.86 c 13.282,10.722 20.158,25.586 19.734,42.651 -0.472,19.032 8.458,35.763 24.63,46.035 l 22.881,14.533 -7.935,8.596 -29.338,-19.43 C 49.154,109.916 40.945,95.98 39.615,79.139 L 39.603,78.965 C 38.343,63.001 30.959,49.758 18.043,40.295 L -6.309,22.453 Z"
         style="fill:#7e2b1a;fill-opacity:1;fill-rule:evenodd;stroke:none"
         transform="matrix(1.3333333,0,0,-1.3333333,449.64587,412.14)"
         clip-path="url(#clipPath26)" />
      <path
         id="path27"
         d="m 0,0 -18.914,5.644 c -20.9,6.238 -36.249,20.44 -44.087,40.796 l -10.131,26.308 4.299,3.638 9.093,-20.526 c 9.115,-20.573 25.972,-34.279 47.973,-39.005 l 10.719,-2.303 z"
         style="fill:#441c14;fill-opacity:1;fill-rule:evenodd;stroke:none"
         transform="matrix(1.3333333,0,0,-1.3333333,400.1504,302.888)"
         clip-path="url(#clipPath28)" />
      <path
         id="path29"
         d="m 0,0 c 9.48,-5.718 15.384,-13.765 15.384,-22.679 0,-3.322 -0.823,-6.523 -2.342,-9.529 8.718,1.674 18.069,2.585 27.803,2.585 47.3,0 85.642,-21.466 85.642,-47.945 0,-26.48 -38.342,-47.946 -85.642,-47.946 -47.299,0 -85.641,21.466 -85.641,47.946 0,8.531 3.984,16.541 10.964,23.482 -0.239,-0.002 -0.476,-0.006 -0.715,-0.006 -23.977,0 -44.002,10.634 -48.822,24.815 -6.49,-1.503 -13.556,-2.33 -20.947,-2.33 -11.977,0 -23.101,2.168 -32.31,5.875 -2.811,-5.667 -10.268,-10.5 -20.386,-13.571 8.617,-5.214 13.678,-11.568 13.678,-18.425 0,-17.715 -33.754,-32.075 -75.391,-32.075 -41.636,0 -75.39,14.36 -75.39,32.075 0,16.283 28.527,29.733 65.48,31.798 -0.869,1.678 -1.333,3.431 -1.333,5.236 0,6.871 6.679,13.012 17.16,17.075 -5.381,3.832 -8.562,8.559 -8.562,13.675 0,12.783 19.838,23.147 44.309,23.147 2.476,0 4.903,-0.107 7.268,-0.31 -1.287,2.415 -1.978,4.958 -1.978,7.584 0,15.705 24.575,28.437 54.89,28.437 22.91,0 42.538,-7.272 50.762,-17.604 9.071,2.368 19.493,3.716 30.582,3.716 35.061,0 63.486,-13.472 63.486,-30.09 C 27.949,14.559 16.865,5.409 0,0"
         style="fill:#aad61b;fill-opacity:1;fill-rule:evenodd;stroke:none"
         transform="matrix(1.3333333,0,0,-1.3333333,554.1576,125.72133)"
         clip-path="url(#clipPath30)" />
      <path
         id="path31"
         d="m 0,0 c 18.079,0 32.734,-6.957 32.734,-15.541 0,-8.584 -14.655,-15.541 -32.734,-15.541 -18.079,0 -32.734,6.957 -32.734,15.541 C -32.734,-6.957 -18.079,0 0,0 m -58.195,52.245 c -22.281,0 -40.343,-7.92 -40.343,-17.69 0,-9.77 18.062,-17.69 40.343,-17.69 9.621,0 18.453,1.479 25.387,3.944 3.901,-5.76 14.598,-9.896 27.187,-9.896 15.888,0 28.768,6.587 28.768,14.713 0,8.127 -12.88,14.714 -28.768,14.714 -4.812,0 -9.347,-0.605 -13.334,-1.673 -4.226,7.787 -20.19,13.578 -39.24,13.578 m -78.45,-89.952 c 8.19,2.008 13.971,6.883 13.971,12.577 0,7.486 -9.993,13.557 -22.32,13.557 -12.327,0 -22.32,-6.071 -22.32,-13.557 0,-1.493 0.398,-2.928 1.131,-4.27 -13.981,-1.653 -24.608,-9.92 -24.608,-19.869 0,-11.139 13.323,-20.17 29.759,-20.17 16.436,0 29.76,9.031 29.76,20.17 0,4.303 -1.988,8.289 -5.373,11.562 m 61.419,44.652 c 16.71,0 30.257,-6.737 30.257,-15.046 0,-8.309 -13.547,-15.045 -30.257,-15.045 -16.434,0 -29.806,6.516 -30.243,14.635 -3.987,-1.113 -8.482,-1.739 -13.238,-1.739 -16.436,0 -29.759,7.475 -29.759,16.698 0,9.223 13.323,16.699 29.759,16.699 16.437,0 29.76,-7.476 29.76,-16.699 0,-0.389 -0.026,-0.773 -0.071,-1.155 4.135,1.056 8.824,1.652 13.792,1.652 M 83.989,-36.042 c 24.014,0 43.482,-11.399 43.482,-25.461 0,-14.061 -19.468,-25.46 -43.482,-25.46 -24.015,0 -43.483,11.399 -43.483,25.46 0,14.062 19.468,25.461 43.483,25.461"
         style="fill:#c6e446;fill-opacity:1;fill-rule:evenodd;stroke:none"
         transform="matrix(1.3333333,0,0,-1.3333333,516.4792,128.1816)"
         clip-path="url(#clipPath32)" />
    </g>
  </g>
</svg>
