<?xml version="1.0" encoding="UTF-8" standalone="no"?>
<!-- Created with Inkscape (http://www.inkscape.org/) -->

<svg
   version="1.1"
   id="svg1"
   width="880"
   height="880"
   viewBox="0 0 880 880"
   sodipodi:docname="modern-villa.svg"
   inkscape:version="1.3.2 (091e20e, 2023-11-25, custom)"
   xmlns:inkscape="http://www.inkscape.org/namespaces/inkscape"
   xmlns:sodipodi="http://sodipodi.sourceforge.net/DTD/sodipodi-0.dtd"
   xmlns="http://www.w3.org/2000/svg"
   xmlns:svg="http://www.w3.org/2000/svg">
  <defs
     id="defs1">
    <clipPath
       clipPathUnits="userSpaceOnUse"
       id="clipPath4">
      <path
         d="M 0,660 H 660 V 0 H 0 Z"
         transform="translate(-98.816402,-374.52341)"
         id="path4" />
    </clipPath>
    <clipPath
       clipPathUnits="userSpaceOnUse"
       id="clipPath6">
      <path
         d="M 0,660 H 660 V 0 H 0 Z"
         transform="translate(-544.23731,-370.23491)"
         id="path6" />
    </clipPath>
    <clipPath
       clipPathUnits="userSpaceOnUse"
       id="clipPath8">
      <path
         d="M 0,660 H 660 V 0 H 0 Z"
         transform="translate(-160.6807,-256.13571)"
         id="path8" />
    </clipPath>
    <clipPath
       clipPathUnits="userSpaceOnUse"
       id="clipPath10">
      <path
         d="M 0,660 H 660 V 0 H 0 Z"
         transform="translate(-459.90721,-256.13571)"
         id="path10" />
    </clipPath>
    <clipPath
       clipPathUnits="userSpaceOnUse"
       id="clipPath12">
      <path
         d="M 0,660 H 660 V 0 H 0 Z"
         id="path12" />
    </clipPath>
    <clipPath
       clipPathUnits="userSpaceOnUse"
       id="clipPath14">
      <path
         d="M 0,660 H 660 V 0 H 0 Z"
         transform="translate(-179.1841,-426.77731)"
         id="path14" />
    </clipPath>
    <clipPath
       clipPathUnits="userSpaceOnUse"
       id="clipPath16">
      <path
         d="M 0,660 H 660 V 0 H 0 Z"
         transform="translate(-188.74221,-410.41261)"
         id="path16" />
    </clipPath>
    <clipPath
       clipPathUnits="userSpaceOnUse"
       id="clipPath18">
      <path
         d="M 0,660 H 660 V 0 H 0 Z"
         transform="translate(-223.4902,-257.97561)"
         id="path18" />
    </clipPath>
    <clipPath
       clipPathUnits="userSpaceOnUse"
       id="clipPath20">
      <path
         d="M 0,660 H 660 V 0 H 0 Z"
         transform="translate(-220.70311,-377.25681)"
         id="path20" />
    </clipPath>
    <clipPath
       clipPathUnits="userSpaceOnUse"
       id="clipPath22">
      <path
         d="M 0,660 H 660 V 0 H 0 Z"
         transform="translate(-236.40231,-271.4902)"
         id="path22" />
    </clipPath>
    <clipPath
       clipPathUnits="userSpaceOnUse"
       id="clipPath24">
      <path
         d="M 0,660 H 660 V 0 H 0 Z"
         transform="translate(-154.9482,-406.25591)"
         id="path24" />
    </clipPath>
    <clipPath
       clipPathUnits="userSpaceOnUse"
       id="clipPath26">
      <path
         d="M 0,660 H 660 V 0 H 0 Z"
         id="path26" />
    </clipPath>
    <clipPath
       clipPathUnits="userSpaceOnUse"
       id="clipPath28">
      <path
         d="M 0,660 H 660 V 0 H 0 Z"
         id="path28" />
    </clipPath>
    <clipPath
       clipPathUnits="userSpaceOnUse"
       id="clipPath30">
      <path
         d="M 0,660 H 660 V 0 H 0 Z"
         id="path30" />
    </clipPath>
    <clipPath
       clipPathUnits="userSpaceOnUse"
       id="clipPath32">
      <path
         d="M 0,660 H 660 V 0 H 0 Z"
         transform="translate(-283.09381,-320.35251)"
         id="path32" />
    </clipPath>
    <clipPath
       clipPathUnits="userSpaceOnUse"
       id="clipPath34">
      <path
         d="M 0,660 H 660 V 0 H 0 Z"
         id="path34" />
    </clipPath>
    <clipPath
       clipPathUnits="userSpaceOnUse"
       id="clipPath36">
      <path
         d="M 0,660 H 660 V 0 H 0 Z"
         id="path36" />
    </clipPath>
    <clipPath
       clipPathUnits="userSpaceOnUse"
       id="clipPath38">
      <path
         d="M 0,660 H 660 V 0 H 0 Z"
         id="path38" />
    </clipPath>
    <clipPath
       clipPathUnits="userSpaceOnUse"
       id="clipPath40">
      <path
         d="M 0,660 H 660 V 0 H 0 Z"
         id="path40" />
    </clipPath>
    <clipPath
       clipPathUnits="userSpaceOnUse"
       id="clipPath42">
      <path
         d="M 0,660 H 660 V 0 H 0 Z"
         id="path42" />
    </clipPath>
    <clipPath
       clipPathUnits="userSpaceOnUse"
       id="clipPath44">
      <path
         d="M 0,660 H 660 V 0 H 0 Z"
         transform="translate(-389.99901,-561.17921)"
         id="path44" />
    </clipPath>
    <clipPath
       clipPathUnits="userSpaceOnUse"
       id="clipPath46">
      <path
         d="M 0,660 H 660 V 0 H 0 Z"
         id="path46" />
    </clipPath>
    <clipPath
       clipPathUnits="userSpaceOnUse"
       id="clipPath48">
      <path
         d="M 0,660 H 660 V 0 H 0 Z"
         id="path48" />
    </clipPath>
    <clipPath
       clipPathUnits="userSpaceOnUse"
       id="clipPath50">
      <path
         d="M 0,660 H 660 V 0 H 0 Z"
         transform="translate(-110.70561,-611.91022)"
         id="path50" />
    </clipPath>
  </defs>
  <sodipodi:namedview
     id="namedview1"
     pagecolor="#ffffff"
     bordercolor="#000000"
     borderopacity="0.25"
     inkscape:showpageshadow="2"
     inkscape:pageopacity="0.0"
     inkscape:pagecheckerboard="0"
     inkscape:deskcolor="#d1d1d1"
     inkscape:zoom="0.67272727"
     inkscape:cx="439.25676"
     inkscape:cy="440"
     inkscape:window-width="1440"
     inkscape:window-height="830"
     inkscape:window-x="-6"
     inkscape:window-y="-6"
     inkscape:window-maximized="1"
     inkscape:current-layer="g1">
    <inkscape:page
       x="0"
       y="0"
       inkscape:label="1"
       id="page1"
       width="880"
       height="880"
       margin="0 0.19333333 0 0"
       bleed="0" />
  </sodipodi:namedview>
  <g
     id="g1"
     inkscape:groupmode="layer"
     inkscape:label="1">
    <g
       id="group-MC0">
      <path
         id="path2"
         d="M 0,0 H 659.856 V 660 H 0 Z"
         style="fill:#f46a78;fill-opacity:1;fill-rule:nonzero;stroke:none"
         transform="matrix(1.3333333,0,0,-1.3333333,0,880)" />
      <path
         id="path3"
         d="m 0,0 c 17.123,8.825 44.553,-10.31 61.264,-42.739 16.712,-32.429 16.377,-65.873 -0.746,-74.696 -17.123,-8.824 -44.553,10.311 -61.265,42.739 C -17.458,-42.267 -17.124,-8.824 0,0"
         style="fill:#ffffff;fill-opacity:1;fill-rule:evenodd;stroke:none"
         transform="matrix(1.3333333,0,0,-1.3333333,131.7552,380.63547)"
         clip-path="url(#clipPath4)" />
      <path
         id="path5"
         d="m 0,0 c 16.727,-8.336 17.493,-40.772 1.71,-72.454 -15.78,-31.678 -42.139,-50.608 -58.866,-42.272 -16.729,8.335 -17.494,40.772 -1.711,72.452 C -43.087,-10.593 -16.729,8.333 0,0"
         style="fill:#ac484e;fill-opacity:1;fill-rule:evenodd;stroke:none"
         transform="matrix(1.3333333,0,0,-1.3333333,725.64973,386.35347)"
         clip-path="url(#clipPath6)" />
      <path
         id="path7"
         d="m 0,0 c 24.834,0 45.089,38.36 45.089,85.394 0,47.034 -20.255,85.395 -45.089,85.395 -24.836,0 -45.092,-38.361 -45.092,-85.395 C -45.092,38.36 -24.836,0 0,0"
         style="fill:#ac484e;fill-opacity:1;fill-rule:evenodd;stroke:none"
         transform="matrix(1.3333333,0,0,-1.3333333,214.24093,538.48573)"
         clip-path="url(#clipPath8)" />
      <path
         id="path9"
         d="m 0,0 c 36.855,0 66.917,56.933 66.917,126.736 0,69.803 -30.062,126.735 -66.917,126.735 -36.858,0 -66.922,-56.932 -66.922,-126.735 C -66.922,56.933 -36.858,0 0,0"
         style="fill:#463d3b;fill-opacity:1;fill-rule:evenodd;stroke:none"
         transform="matrix(1.3333333,0,0,-1.3333333,613.2096,538.48573)"
         clip-path="url(#clipPath10)" />
      <path
         id="path11"
         d="M -0.146,0 H 659.855 V 248.417 H -0.146 Z"
         style="fill:#f89c91;fill-opacity:1;fill-rule:evenodd;stroke:none"
         transform="matrix(1.3333333,0,0,-1.3333333,0,880)"
         clip-path="url(#clipPath12)" />
      <path
         id="path13"
         d="M 0,0 80.847,89.17 290.312,-73.392 V -178.36 H 0 Z"
         style="fill:#3279a7;fill-opacity:1;fill-rule:evenodd;stroke:none"
         transform="matrix(1.3333333,0,0,-1.3333333,238.91213,310.9636)"
         clip-path="url(#clipPath14)" />
      <path
         id="path15"
         d="m 0,0 v -152.437 h 271.198 v 78.053 L 72.422,79.879 Z"
         style="fill:#5ec5f1;fill-opacity:1;fill-rule:evenodd;stroke:none"
         transform="matrix(1.3333333,0,0,-1.3333333,251.65627,332.7832)"
         clip-path="url(#clipPath16)" />
      <path
         id="path17"
         d="M 0,0 143.503,150.185 169.992,129.63 46.129,0 Z M -34.748,69.672 V 2.428 L 122.22,166.704 85.328,195.335 Z"
         style="fill:#75d2f6;fill-opacity:1;fill-rule:evenodd;stroke:none"
         transform="matrix(1.3333333,0,0,-1.3333333,297.98693,536.03253)"
         clip-path="url(#clipPath18)" />
      <path
         id="path19"
         d="m 0,0 v -105.767 h 188.168 v 54.156 L 50.251,55.423 Z"
         style="fill:#46a4db;fill-opacity:1;fill-rule:evenodd;stroke:none"
         transform="matrix(1.3333333,0,0,-1.3333333,294.2708,376.99093)"
         clip-path="url(#clipPath20)" />
      <path
         id="path21"
         d="M 0,0 103.15,107.951 129.639,87.396 46.127,0 Z M -15.699,89.605 V 22.362 L 81.866,124.47 44.972,153.102 Z"
         style="fill:#56bced;fill-opacity:1;fill-rule:evenodd;stroke:none"
         transform="matrix(1.3333333,0,0,-1.3333333,315.20307,518.01307)"
         clip-path="url(#clipPath22)" />
      <path
         id="path23"
         d="M 0,0 104.269,115.002 348.916,-74.86 340.451,-85.82 105.898,96.211 10.254,-9.278 Z"
         style="fill:#ffffff;fill-opacity:1;fill-rule:evenodd;stroke:none"
         transform="matrix(1.3333333,0,0,-1.3333333,206.5976,338.32547)"
         clip-path="url(#clipPath24)" />
      <path
         id="path25"
         d="m 132.883,248.417 h 393.941 v 15.436 H 132.883 Z"
         style="fill:#ffffff;fill-opacity:1;fill-rule:evenodd;stroke:none"
         transform="matrix(1.3333333,0,0,-1.3333333,0,880)"
         clip-path="url(#clipPath26)" />
      <path
         id="path27"
         d="m 185.44,328.162 h 278.922 v 8.453 H 185.44 Z"
         style="fill:#3279a7;fill-opacity:1;fill-rule:evenodd;stroke:none"
         transform="matrix(1.3333333,0,0,-1.3333333,0,880)"
         clip-path="url(#clipPath28)" />
      <path
         id="path29"
         d="m 257.014,271.49 h 95.548 v 48.862 h -95.548 z"
         style="fill:#3b8fc2;fill-opacity:1;fill-rule:evenodd;stroke:none"
         transform="matrix(1.3333333,0,0,-1.3333333,0,880)"
         clip-path="url(#clipPath30)" />
      <path
         id="path31"
         d="M 0,0 H 46.127 L -0.564,-48.862 H -26.08 v 21.57 z"
         style="fill:#46a4db;fill-opacity:1;fill-rule:evenodd;stroke:none"
         transform="matrix(1.3333333,0,0,-1.3333333,377.4584,452.86333)"
         clip-path="url(#clipPath32)" />
      <path
         id="path33"
         d="m 185.807,404.599 h 188.891 v 8.451 H 185.807 Z"
         style="fill:#3279a7;fill-opacity:1;fill-rule:evenodd;stroke:none"
         transform="matrix(1.3333333,0,0,-1.3333333,0,880)"
         clip-path="url(#clipPath34)" />
      <path
         id="path35"
         d="m 228.069,263.853 h 4.041 v 198.441 h -4.041 z"
         style="fill:#3279a7;fill-opacity:1;fill-rule:evenodd;stroke:none"
         transform="matrix(1.3333333,0,0,-1.3333333,0,880)"
         clip-path="url(#clipPath36)" />
      <path
         id="path37"
         d="m 308.547,263.853 h 4.041 v 192.929 h -4.041 z"
         style="fill:#3279a7;fill-opacity:1;fill-rule:evenodd;stroke:none"
         transform="matrix(1.3333333,0,0,-1.3333333,0,880)"
         clip-path="url(#clipPath38)" />
      <path
         id="path39"
         d="m 370.285,263.853 h 4.043 V 413.05 h -4.043 z"
         style="fill:#3279a7;fill-opacity:1;fill-rule:evenodd;stroke:none"
         transform="matrix(1.3333333,0,0,-1.3333333,0,880)"
         clip-path="url(#clipPath40)" />
      <path
         id="path41"
         d="m 429.082,263.853 h 4.044 v 102.986 h -4.044 z"
         style="fill:#3279a7;fill-opacity:1;fill-rule:evenodd;stroke:none"
         transform="matrix(1.3333333,0,0,-1.3333333,0,880)"
         clip-path="url(#clipPath42)" />
      <path
         id="path43"
         d="m 0,0 c 0.746,0 1.478,-0.041 2.203,-0.116 6.912,-0.735 13.108,1.012 18.621,5.246 5.474,4.206 12.326,6.706 19.762,6.706 5.574,0 10.816,-1.402 15.397,-3.875 C 61.465,5.002 67.08,4.13 73.2,5.289 c 1.596,0.302 3.244,0.461 4.929,0.461 3.66,0 7.143,-0.746 10.311,-2.092 6.819,-2.901 13.762,-2.873 20.561,0.076 3.237,1.405 6.807,2.185 10.56,2.185 6.264,0 12.023,-2.171 16.561,-5.799 4.809,-3.843 10.099,-5.698 16.252,-5.701 4.486,-0.002 8.515,-1.967 11.271,-5.083 6.331,-7.159 14.041,-11.314 23.503,-12.663 l 21.423,-3.055 H -61.783 l 19.616,2.798 c 10.613,1.513 19.202,6.628 25.592,15.236 C -12.816,-3.283 -6.79,0 0,0"
         style="fill:#ffffff;fill-opacity:1;fill-rule:evenodd;stroke:none"
         transform="matrix(1.3333333,0,0,-1.3333333,519.99867,131.76107)"
         clip-path="url(#clipPath44)" />
      <path
         id="path45"
         d="M -0.146,188.983 H 659.855 V 137.339 H -0.146 Z"
         style="fill:#fbc6bf;fill-opacity:1;fill-rule:evenodd;stroke:none"
         transform="matrix(1.3333333,0,0,-1.3333333,0,880)"
         clip-path="url(#clipPath46)" />
      <path
         id="path47"
         d="m -0.147,229.605 h 660 v -15.831 h -660 z"
         style="fill:#fbc6bf;fill-opacity:1;fill-rule:evenodd;stroke:none"
         transform="matrix(1.3333333,0,0,-1.3333333,0,880)"
         clip-path="url(#clipPath48)" />
      <path
         id="path49"
         d="m 0,0 c 5.482,2.89 12.276,4.601 19.631,4.601 6.124,0 11.856,-1.184 16.769,-3.249 12.87,-5.407 27.504,-5.777 40.883,-1.031 4.041,1.433 8.603,2.24 13.431,2.24 12.36,0 22.977,-5.287 27.605,-12.849 5.234,-8.556 15.019,-14.292 27.853,-16.326 l 3.321,-0.526 H 118.395 -28.346 -61.564 l 4.939,0.784 c 11.422,1.809 20.274,6.473 26.02,13.706 2.321,2.923 6.252,5.117 10.939,5.979 C -12.219,-5.305 -6.173,-3.255 0,0"
         style="fill:#ffffff;fill-opacity:1;fill-rule:evenodd;stroke:none"
         transform="matrix(1.3333333,0,0,-1.3333333,147.60747,64.119733)"
         clip-path="url(#clipPath50)" />
    </g>
  </g>
</svg>
