<?xml version="1.0" encoding="UTF-8" standalone="no"?>
<!-- Created with Inkscape (http://www.inkscape.org/) -->

<svg
   version="1.1"
   id="svg1"
   width="880"
   height="880"
   viewBox="0 0 880 880"
   sodipodi:docname="forest-glade.svg"
   inkscape:version="1.3.2 (091e20e, 2023-11-25, custom)"
   xmlns:inkscape="http://www.inkscape.org/namespaces/inkscape"
   xmlns:sodipodi="http://sodipodi.sourceforge.net/DTD/sodipodi-0.dtd"
   xmlns="http://www.w3.org/2000/svg"
   xmlns:svg="http://www.w3.org/2000/svg">
  <defs
     id="defs1">
    <clipPath
       clipPathUnits="userSpaceOnUse"
       id="clipPath4">
      <path
         d="M 0,660 H 660 V 0 H 0 Z"
         transform="translate(-403.67091,-481.67481)"
         id="path4" />
    </clipPath>
    <clipPath
       clipPathUnits="userSpaceOnUse"
       id="clipPath6">
      <path
         d="M 0,660 H 660 V 0 H 0 Z"
         transform="translate(-110.6821,-581.78861)"
         id="path6" />
    </clipPath>
    <clipPath
       clipPathUnits="userSpaceOnUse"
       id="clipPath8">
      <path
         d="M 0,660 H 660 V 0 H 0 Z"
         transform="translate(-659.62892,-326.38871)"
         id="path8" />
    </clipPath>
    <clipPath
       clipPathUnits="userSpaceOnUse"
       id="clipPath10">
      <path
         d="M 0,660 H 660 V 0 H 0 Z"
         transform="translate(-380.30271,-298.92771)"
         id="path10" />
    </clipPath>
    <clipPath
       clipPathUnits="userSpaceOnUse"
       id="clipPath12">
      <path
         d="M 0,660 H 660 V 0 H 0 Z"
         transform="translate(-383.74021,-443.80761)"
         id="path12" />
    </clipPath>
    <clipPath
       clipPathUnits="userSpaceOnUse"
       id="clipPath14">
      <path
         d="M 0,660 H 660 V 0 H 0 Z"
         transform="translate(-0.60990002,-237.2959)"
         id="path14" />
    </clipPath>
    <clipPath
       clipPathUnits="userSpaceOnUse"
       id="clipPath16">
      <path
         d="M 0,660 H 660 V 0 H 0 Z"
         transform="translate(-565.24801,-275.2852)"
         id="path16" />
    </clipPath>
    <clipPath
       clipPathUnits="userSpaceOnUse"
       id="clipPath18">
      <path
         d="M 0,660 H 660 V 0 H 0 Z"
         transform="translate(-561.02932,-453.02831)"
         id="path18" />
    </clipPath>
    <clipPath
       clipPathUnits="userSpaceOnUse"
       id="clipPath20">
      <path
         d="M 0,660 H 660 V 0 H 0 Z"
         transform="translate(-0.60990002,-209.4424)"
         id="path20" />
    </clipPath>
    <clipPath
       clipPathUnits="userSpaceOnUse"
       id="clipPath22">
      <path
         d="M 0,660 H 660 V 0 H 0 Z"
         transform="translate(-111.77931,-217.83981)"
         id="path22" />
    </clipPath>
    <clipPath
       clipPathUnits="userSpaceOnUse"
       id="clipPath24">
      <path
         d="M 0,660 H 660 V 0 H 0 Z"
         transform="translate(-117.06201,-440.41161)"
         id="path24" />
    </clipPath>
    <clipPath
       clipPathUnits="userSpaceOnUse"
       id="clipPath26">
      <path
         d="M 0,660 H 660 V 0 H 0 Z"
         transform="translate(-0.60990002,-121.20411)"
         id="path26" />
    </clipPath>
    <clipPath
       clipPathUnits="userSpaceOnUse"
       id="clipPath28">
      <path
         d="M 0,660 H 660 V 0 H 0 Z"
         transform="translate(-483.25001,-0.98049752)"
         id="path28" />
    </clipPath>
    <clipPath
       clipPathUnits="userSpaceOnUse"
       id="clipPath30">
      <path
         d="M 0,660 H 660 V 0 H 0 Z"
         transform="translate(-530.89162,-168.1699)"
         id="path30" />
    </clipPath>
    <clipPath
       clipPathUnits="userSpaceOnUse"
       id="clipPath32">
      <path
         d="M 0,660 H 660 V 0 H 0 Z"
         transform="translate(-542.45512,-182.4814)"
         id="path32" />
    </clipPath>
    <clipPath
       clipPathUnits="userSpaceOnUse"
       id="clipPath34">
      <path
         d="M 0,660 H 660 V 0 H 0 Z"
         transform="translate(-429.42581,-127.69041)"
         id="path34" />
    </clipPath>
    <clipPath
       clipPathUnits="userSpaceOnUse"
       id="clipPath36">
      <path
         d="M 0,660 H 660 V 0 H 0 Z"
         transform="translate(-429.42581,-127.69041)"
         id="path36" />
    </clipPath>
    <clipPath
       clipPathUnits="userSpaceOnUse"
       id="clipPath38">
      <path
         d="M 0,660 H 660 V 0 H 0 Z"
         transform="translate(-532.74121,-67.248999)"
         id="path38" />
    </clipPath>
    <clipPath
       clipPathUnits="userSpaceOnUse"
       id="clipPath40">
      <path
         d="M 0,660 H 660 V 0 H 0 Z"
         transform="translate(-532.74121,-67.248999)"
         id="path40" />
    </clipPath>
    <clipPath
       clipPathUnits="userSpaceOnUse"
       id="clipPath42">
      <path
         d="M 0,660 H 660 V 0 H 0 Z"
         transform="translate(-189.1675,-0.98049752)"
         id="path42" />
    </clipPath>
    <clipPath
       clipPathUnits="userSpaceOnUse"
       id="clipPath44">
      <path
         d="M 0,660 H 660 V 0 H 0 Z"
         transform="translate(-152.53521,-129.5371)"
         id="path44" />
    </clipPath>
    <clipPath
       clipPathUnits="userSpaceOnUse"
       id="clipPath46">
      <path
         d="M 0,660 H 660 V 0 H 0 Z"
         transform="translate(-143.644,-140.541)"
         id="path46" />
    </clipPath>
    <clipPath
       clipPathUnits="userSpaceOnUse"
       id="clipPath48">
      <path
         d="M 0,660 H 660 V 0 H 0 Z"
         transform="translate(-230.55321,-98.411102)"
         id="path48" />
    </clipPath>
    <clipPath
       clipPathUnits="userSpaceOnUse"
       id="clipPath50">
      <path
         d="M 0,660 H 660 V 0 H 0 Z"
         transform="translate(-230.55321,-98.411102)"
         id="path50" />
    </clipPath>
    <clipPath
       clipPathUnits="userSpaceOnUse"
       id="clipPath52">
      <path
         d="M 0,660 H 660 V 0 H 0 Z"
         transform="translate(-151.11231,-51.938499)"
         id="path52" />
    </clipPath>
    <clipPath
       clipPathUnits="userSpaceOnUse"
       id="clipPath54">
      <path
         d="M 0,660 H 660 V 0 H 0 Z"
         transform="translate(-151.11231,-51.938499)"
         id="path54" />
    </clipPath>
    <clipPath
       clipPathUnits="userSpaceOnUse"
       id="clipPath56">
      <path
         d="M 0,660 H 660 V 0 H 0 Z"
         transform="translate(-304.51461,-0.98049752)"
         id="path56" />
    </clipPath>
    <clipPath
       clipPathUnits="userSpaceOnUse"
       id="clipPath58">
      <path
         d="M 0,660 H 660 V 0 H 0 Z"
         transform="translate(-256.2148,-170.48631)"
         id="path58" />
    </clipPath>
    <clipPath
       clipPathUnits="userSpaceOnUse"
       id="clipPath60">
      <path
         d="M 0,660 H 660 V 0 H 0 Z"
         transform="translate(-244.4902,-184.9971)"
         id="path60" />
    </clipPath>
    <clipPath
       clipPathUnits="userSpaceOnUse"
       id="clipPath62">
      <path
         d="M 0,660 H 660 V 0 H 0 Z"
         transform="translate(-359.08501,-129.44631)"
         id="path62" />
    </clipPath>
    <clipPath
       clipPathUnits="userSpaceOnUse"
       id="clipPath64">
      <path
         d="M 0,660 H 660 V 0 H 0 Z"
         transform="translate(-359.08501,-129.44631)"
         id="path64" />
    </clipPath>
    <clipPath
       clipPathUnits="userSpaceOnUse"
       id="clipPath66">
      <path
         d="M 0,660 H 660 V 0 H 0 Z"
         transform="translate(-254.33791,-68.166999)"
         id="path66" />
    </clipPath>
    <clipPath
       clipPathUnits="userSpaceOnUse"
       id="clipPath68">
      <path
         d="M 0,660 H 660 V 0 H 0 Z"
         transform="translate(-254.33791,-68.166999)"
         id="path68" />
    </clipPath>
  </defs>
  <sodipodi:namedview
     id="namedview1"
     pagecolor="#ffffff"
     bordercolor="#000000"
     borderopacity="0.25"
     inkscape:showpageshadow="2"
     inkscape:pageopacity="0.0"
     inkscape:pagecheckerboard="0"
     inkscape:deskcolor="#d1d1d1"
     inkscape:zoom="0.67272727"
     inkscape:cx="439.25676"
     inkscape:cy="440"
     inkscape:window-width="1440"
     inkscape:window-height="830"
     inkscape:window-x="-6"
     inkscape:window-y="-6"
     inkscape:window-maximized="1"
     inkscape:current-layer="g1">
    <inkscape:page
       x="0"
       y="0"
       inkscape:label="1"
       id="page1"
       width="880"
       height="880"
       margin="1.307332 0.49466667 0 0.81184936"
       bleed="0" />
  </sodipodi:namedview>
  <g
     id="g1"
     inkscape:groupmode="layer"
     inkscape:label="1">
    <g
       id="group-MC0">
      <path
         id="path2"
         d="m 0.609,0.98 h 659.02 V 660 H 0.609 Z"
         style="fill:#f3f9d3;fill-opacity:1;fill-rule:nonzero;stroke:none"
         transform="matrix(1.3333333,0,0,-1.3333333,0,880)" />
      <path
         id="path3"
         d="m 0,0 c 35.047,0 63.631,28.584 63.631,63.63 0,35.048 -28.584,63.631 -63.631,63.631 -35.046,0 -63.63,-28.583 -63.63,-63.631 C -63.63,28.584 -35.046,0 0,0"
         style="fill:#fbca07;fill-opacity:1;fill-rule:evenodd;stroke:none"
         transform="matrix(1.3333333,0,0,-1.3333333,538.22787,237.76693)"
         clip-path="url(#clipPath4)" />
      <path
         id="path5"
         d="m 0,0 c -9.209,0 -16.674,-7.465 -16.674,-16.673 0,-9.208 7.465,-16.673 16.674,-16.673 0.165,0 0.33,0.002 0.495,0.007 4.498,0.131 8.401,-1.048 12.075,-3.647 4.052,-2.867 8.999,-4.551 14.341,-4.551 5.012,0 9.678,1.484 13.582,4.036 5.121,3.347 10.88,4.162 16.727,2.368 1.793,-0.55 3.697,-0.846 5.671,-0.846 0.899,0 1.783,0.061 2.65,0.18 5.398,0.742 10.306,-0.533 14.663,-3.807 4.791,-3.6 10.748,-5.733 17.204,-5.733 5.462,0 10.566,1.526 14.91,4.177 4.526,2.763 9.369,3.584 14.556,2.469 1.532,-0.33 3.125,-0.504 4.759,-0.504 12.44,0 22.524,10.085 22.524,22.524 0,12.44 -10.084,22.523 -22.524,22.523 -1.634,0 -3.227,-0.173 -4.759,-0.503 -5.187,-1.116 -10.03,-0.294 -14.556,2.468 -4.344,2.651 -9.448,4.178 -14.91,4.178 -6.456,0 -12.413,-2.134 -17.204,-5.734 C 75.847,2.985 70.939,1.71 65.541,2.453 64.674,2.571 63.79,2.633 62.891,2.633 60.917,2.633 59.013,2.337 57.22,1.787 51.373,-0.007 45.614,0.808 40.493,4.155 36.589,6.706 31.923,8.19 26.911,8.19 21.569,8.19 16.622,6.506 12.57,3.64 8.896,1.041 4.993,-0.138 0.495,-0.007 0.33,-0.003 0.165,0 0,0 m 431.545,39.432 c -5.986,0 -11.51,-1.986 -15.948,-5.334 -5.309,-4.005 -11.529,-5.263 -17.974,-3.636 -1.421,0.359 -2.909,0.549 -4.441,0.549 -0.048,0 -0.097,0 -0.144,-10e-4 -5.231,-0.041 -9.742,1.573 -13.757,4.921 -5.192,4.328 -11.87,6.932 -19.158,6.932 -6.175,0 -11.913,-1.869 -16.678,-5.071 -5.102,-3.428 -10.785,-4.455 -16.764,-3.028 -1.68,0.401 -3.432,0.613 -5.234,0.613 -12.402,0 -22.455,-10.053 -22.455,-22.456 0,-12.402 10.053,-22.456 22.455,-22.456 1.802,0 3.554,0.212 5.234,0.614 5.979,1.427 11.662,0.399 16.764,-3.028 4.765,-3.203 10.503,-5.072 16.678,-5.072 7.288,0 13.966,2.604 19.158,6.933 4.015,3.348 8.526,4.962 13.757,4.92 0.047,-10e-4 0.096,-10e-4 0.144,-10e-4 1.532,0 3.02,0.191 4.441,0.549 6.445,1.627 12.665,0.37 17.974,-3.635 4.438,-3.349 9.962,-5.334 15.948,-5.334 14.644,0 26.512,11.869 26.512,26.51 0,14.642 -11.868,26.511 -26.512,26.511 M 548.947,-85.592 v -229.635 c -14.975,0.34 -28.893,4.95 -40.582,12.661 -12.197,8.044 -25.886,10.129 -39.924,6.085 -6.742,-1.943 -13.869,-2.982 -21.237,-2.982 -7.589,0 -14.923,1.102 -21.845,3.161 -12.385,3.679 -24.311,2.568 -35.802,-3.337 -9.019,-4.636 -19.25,-7.253 -30.089,-7.253 -7.528,0 -14.761,1.264 -21.5,3.587 -15.288,5.272 -30.786,2.997 -43.913,-6.447 -9.681,-6.965 -21.557,-11.067 -34.391,-11.067 -12.296,0 -23.711,3.766 -33.157,10.205 -12.093,8.243 -25.777,10.532 -39.895,6.676 -6.351,-1.736 -13.036,-2.661 -19.937,-2.661 -23.766,0 -44.969,10.976 -58.811,28.14 -8.296,10.285 -20.979,14.585 -33.819,11.466 -1.217,-0.296 -2.449,-0.557 -3.692,-0.783 -13.626,-2.477 -24.428,-9.698 -31.929,-21.343 -14.352,-22.275 -39.375,-37.028 -67.845,-37.028 -33.382,0 -62.025,20.284 -74.282,49.199 -1.728,4.075 -3.845,7.737 -6.369,11.004 V -8.006 c 27.858,-5.133 48.963,-29.544 48.963,-58.888 v -0.078 c -0.014,-11.411 5.183,-21.232 14.627,-27.636 9.444,-6.405 20.489,-7.601 31.086,-3.367 5.96,2.382 12.466,3.692 19.278,3.692 19.005,0 35.626,-10.198 44.694,-25.42 6.521,-10.947 15.856,-18.148 28.101,-21.674 7.815,-2.251 15.026,-5.929 21.331,-10.733 13.124,-10.002 28.971,-12.617 44.611,-7.363 1.611,0.542 3.248,1.03 4.905,1.464 13.641,3.567 24.022,11.833 30.555,24.327 4.963,9.491 12.648,17.332 22.02,22.489 8.068,4.439 13.926,10.178 18.529,18.154 7.579,13.13 21.766,21.968 38.018,21.968 22.783,0 41.512,-17.371 43.662,-39.591 1.017,-10.518 4.806,-19.27 11.78,-27.206 3.085,-3.51 5.766,-7.383 7.969,-11.547 8.357,-15.792 23.434,-25.164 41.294,-25.667 0.866,-0.024 1.728,-0.065 2.584,-0.123 12.884,-0.863 24.269,2.844 34.175,11.127 10.279,8.596 22.85,14.545 36.661,16.799 15.256,2.491 27.329,11.086 34.677,24.683 12.397,22.941 36.659,38.526 64.566,38.526 5.117,0 10.11,-0.526 14.933,-1.522"
         style="fill:#fefef8;fill-opacity:1;fill-rule:evenodd;stroke:none"
         transform="matrix(1.3333333,0,0,-1.3333333,147.57613,104.28187)"
         clip-path="url(#clipPath6)" />
      <path
         id="path7"
         d="m 0,0 c -56.699,32.735 -117.301,37.851 -176.791,8.459 -58.385,-28.847 -120.247,-30.173 -179.818,-3.86 -44.59,19.697 -94.623,29.578 -138.101,10.582 -57.475,-25.112 -109.118,-31.59 -164.309,0.274 V -164.789 H 0 Z"
         style="fill:#c6e446;fill-opacity:1;fill-rule:evenodd;stroke:none"
         transform="matrix(1.3333333,0,0,-1.3333333,879.5052,444.81507)"
         clip-path="url(#clipPath8)" />
      <path
         id="path9"
         d="m 0,0 c -3.834,-1.992 -8.188,-3.117 -12.809,-3.117 -15.317,0 -27.745,12.38 -27.82,27.679 -0.04,8.04 -2.732,14.943 -8.149,20.881 -4.54,4.98 -7.308,11.601 -7.308,18.87 0,8.988 4.232,16.986 10.815,22.113 5.703,4.442 9.296,9.939 11.075,16.945 1.159,4.563 3.83,8.524 7.451,11.314 5.646,4.354 9.235,9.732 11.089,16.618 2.101,7.821 9.241,13.577 17.724,13.577 8.646,0 15.896,-5.977 17.842,-14.024 1.504,-6.216 4.398,-11.163 9.079,-15.518 3.208,-2.984 5.323,-7.126 5.679,-11.76 0.502,-6.525 2.658,-11.994 6.744,-17.105 4.518,-5.65 7.22,-12.817 7.22,-20.615 0,-7.283 -2.358,-14.015 -6.348,-19.475 C 38.208,40.809 36.272,34.879 36.267,27.975 36.259,14.827 25.909,4.097 12.912,3.48 8.191,3.256 4.193,2.179 0,0"
         style="fill:#adda1a;fill-opacity:1;fill-rule:evenodd;stroke:none"
         transform="matrix(1.3333333,0,0,-1.3333333,507.07027,481.42973)"
         clip-path="url(#clipPath10)" />
      <path
         id="path11"
         d="m 0,0 v -56.701 l 29.014,22.75 c 0.455,-0.812 0.845,-1.664 1.171,-2.548 L 0,-60.168 v -45.552 l 44.727,32.27 c 0.171,-1.015 0.298,-2.047 0.376,-3.093 L 0,-109.083 V -216.78 H -2.738 V -137 l -56.361,51.549 c -0.233,1.329 -0.374,2.687 -0.413,4.071 l 56.774,-51.927 v 40.773 l -40.248,39.78 c 0.565,0.734 1.093,1.492 1.582,2.275 l 38.666,-38.216 v 28.635 l -28.366,29.11 c 0.298,0.26 0.607,0.513 0.921,0.755 0.415,0.319 0.816,0.643 1.207,0.973 L -2.738,-56.146 V 0 Z"
         style="fill:#e8f289;fill-opacity:1;fill-rule:evenodd;stroke:none"
         transform="matrix(1.3333333,0,0,-1.3333333,511.6536,288.25653)"
         clip-path="url(#clipPath12)" />
      <path
         id="path13"
         d="m 0,0 77.927,20.88 c 103.596,27.76 199,28.434 302.197,2.023 54.887,-14.044 105.011,-14.026 159.886,0.064 42.163,10.826 77.24,9.311 119.009,-1.878 V -236.315 H 0 Z"
         style="fill:#adda1a;fill-opacity:1;fill-rule:evenodd;stroke:none"
         transform="matrix(1.3333333,0,0,-1.3333333,0.8132,563.60547)"
         clip-path="url(#clipPath14)" />
      <path
         id="path15"
         d="m 0,0 c 4.703,-2.443 10.046,-3.825 15.713,-3.825 18.792,0 34.039,15.189 34.133,33.961 0.049,9.861 3.351,18.33 9.997,25.616 5.567,6.108 8.964,14.232 8.964,23.149 0,11.026 -5.192,20.84 -13.268,27.129 -6.996,5.449 -11.405,12.193 -13.588,20.788 -1.423,5.599 -4.699,10.458 -9.141,13.881 -6.927,5.34 -11.331,11.94 -13.604,20.388 -2.577,9.594 -11.336,16.656 -21.744,16.656 -10.608,0 -19.503,-7.332 -21.891,-17.204 -1.842,-7.626 -5.394,-13.696 -11.139,-19.039 -3.932,-3.661 -6.529,-8.742 -6.966,-14.428 -0.614,-8.005 -3.259,-14.714 -8.273,-20.985 -5.543,-6.931 -8.858,-15.725 -8.858,-25.29 0,-8.935 2.892,-17.193 7.789,-23.894 4.999,-6.838 7.377,-14.112 7.38,-22.582 C -44.487,18.188 -31.787,5.025 -15.842,4.268 -10.052,3.993 -5.146,2.673 0,0"
         style="fill:#9ac421;fill-opacity:1;fill-rule:evenodd;stroke:none"
         transform="matrix(1.3333333,0,0,-1.3333333,753.664,512.95307)"
         clip-path="url(#clipPath16)" />
      <path
         id="path17"
         d="m 0,0 v -69.561 l -35.596,27.909 c -0.556,-0.997 -1.037,-2.042 -1.435,-3.126 L 0,-73.817 v -55.884 l -54.872,39.591 c -0.21,-1.246 -0.366,-2.511 -0.461,-3.794 L 0,-133.827 v -132.124 h 3.357 v 97.876 l 69.149,63.241 c 0.284,1.629 0.457,3.297 0.505,4.994 L 3.357,-163.544 v 50.021 l 49.38,48.803 c -0.694,0.901 -1.341,1.831 -1.942,2.79 L 3.357,-108.813 v 35.13 l 34.804,35.713 c -0.368,0.319 -0.746,0.628 -1.133,0.926 -0.505,0.391 -1.001,0.789 -1.481,1.194 L 3.357,-68.882 V 0 Z"
         style="fill:#e1ef79;fill-opacity:1;fill-rule:evenodd;stroke:none"
         transform="matrix(1.3333333,0,0,-1.3333333,748.03907,275.96227)"
         clip-path="url(#clipPath18)" />
      <path
         id="path19"
         d="m 0,0 65.688,-17.602 c 119.09,-31.91 228.526,-31.91 347.616,0 l 24.266,6.503 c 69.697,18.674 133.744,18.674 203.44,0 l 18.009,-4.827 V -208.462 H 0 Z"
         style="fill:#9ac421;fill-opacity:1;fill-rule:evenodd;stroke:none"
         transform="matrix(1.3333333,0,0,-1.3333333,0.8132,600.74347)"
         clip-path="url(#clipPath20)" />
      <path
         id="path21"
         d="m 0,0 c -5.89,-3.059 -12.581,-4.789 -19.676,-4.789 -23.534,0 -42.625,19.019 -42.741,42.524 -0.061,12.349 -4.198,22.954 -12.519,32.078 -6.974,7.65 -11.226,17.821 -11.226,28.987 0,13.808 6.503,26.096 16.614,33.973 8.76,6.824 14.28,15.268 17.014,26.03 1.781,7.011 5.886,13.095 11.447,17.381 8.676,6.689 14.189,14.953 17.033,25.53 3.231,12.015 14.199,20.858 27.232,20.858 13.282,0 24.419,-9.183 27.409,-21.545 2.309,-9.549 6.756,-17.148 13.948,-23.84 4.927,-4.583 8.177,-10.947 8.723,-18.067 0.771,-10.022 4.083,-18.423 10.361,-26.275 6.942,-8.681 11.092,-19.692 11.092,-31.67 0,-11.189 -3.62,-21.53 -9.753,-29.92 C 58.698,62.693 55.721,53.584 55.714,42.976 55.704,22.778 39.805,6.292 19.837,5.347 12.585,5.002 6.442,3.348 0,0"
         style="fill:#87b027;fill-opacity:1;fill-rule:evenodd;stroke:none"
         transform="matrix(1.3333333,0,0,-1.3333333,149.03907,589.54693)"
         clip-path="url(#clipPath22)" />
      <path
         id="path23"
         d="m 0,0 v -87.106 l 44.57,34.948 c 0.698,-1.248 1.301,-2.556 1.801,-3.913 L 0,-92.433 v -69.979 l 68.708,49.575 c 0.266,-1.56 0.459,-3.144 0.579,-4.751 L 0,-167.58 v -165.448 h -4.207 v 122.564 l -86.586,79.191 c -0.358,2.038 -0.573,4.126 -0.634,6.253 l 87.22,-79.77 v 62.636 l -61.833,61.11 c 0.869,1.129 1.679,2.294 2.432,3.495 l 59.401,-58.708 v 43.991 l -43.58,44.72 c 0.461,0.399 0.934,0.786 1.417,1.158 0.636,0.49 1.253,0.989 1.855,1.496 L -4.207,-86.254 V 0 Z"
         style="fill:#c6e446;fill-opacity:1;fill-rule:evenodd;stroke:none"
         transform="matrix(1.3333333,0,0,-1.3333333,156.08267,292.78453)"
         clip-path="url(#clipPath24)" />
      <path
         id="path25"
         d="m 0,0 c 56.699,30.788 117.3,33.819 176.79,2.382 58.385,-30.854 120.247,-34.312 179.816,-10.046 44.592,18.16 94.624,26.323 138.103,5.83 57.475,-27.089 109.119,-35.342 164.31,-5.377 V -120.224 H 0 Z"
         style="fill:#87b027;fill-opacity:1;fill-rule:evenodd;stroke:none"
         transform="matrix(1.3333333,0,0,-1.3333333,0.8132,718.39453)"
         clip-path="url(#clipPath26)" />
      <path
         id="path27"
         d="m 0,0 c -0.462,33.855 3.47,64.963 11.451,93.632 7.989,28.698 20.037,54.907 35.795,78.837 l 3.65,-2.4 C 35.39,146.523 23.534,120.726 15.666,92.465 7.791,64.18 3.912,33.426 4.37,0 Z"
         style="fill:#c6e446;fill-opacity:1;fill-rule:evenodd;stroke:none"
         transform="matrix(1.3333333,0,0,-1.3333333,644.33333,878.69267)"
         clip-path="url(#clipPath28)" />
      <path
         id="path29"
         d="M 0,0 C -10.892,8.898 -54.96,64.92 -68.118,45.004 -81.277,25.087 -12.461,6.524 0,0 M 0.873,0.39 C -1.991,11.191 4.364,63.266 -26.617,63.504 -57.6,63.743 -5.685,11.222 0.873,0.39 M 2.059,-2.33 C 4.923,-13.132 -1.433,-65.208 29.548,-65.446 60.532,-65.685 8.616,-13.16 2.059,-2.33 m 0.036,2.312 C 5.28,8.773 0.677,64.491 31.334,44.236 61.989,23.982 8.934,6.36 2.095,-0.018 M 0.837,-1.924 C -6.002,-8.301 -59.058,-25.922 -28.402,-46.177 2.255,-66.432 -2.349,-10.714 0.837,-1.924 M 2.95,-0.982 C 15.483,-2.766 84.16,-29.917 71.79,-1.513 59.417,26.892 14.011,0.619 2.95,-0.982 m -2.969,0.024 c -11.057,-1.601 -56.465,-27.874 -68.838,0.531 -12.374,28.404 56.305,1.252 68.838,-0.531 M 2.932,-1.94 C 15.393,-8.466 84.208,-27.028 71.05,-46.944 57.891,-66.86 13.823,-10.84 2.932,-1.94"
         style="fill:#ffffff;fill-opacity:1;fill-rule:evenodd;stroke:none"
         transform="matrix(1.3333333,0,0,-1.3333333,707.85547,655.77347)"
         clip-path="url(#clipPath30)" />
      <path
         id="path31"
         d="M 0,0 C 12.989,-8.583 19,-22.384 13.424,-30.822 7.849,-39.264 -7.202,-39.148 -20.195,-30.563 -33.186,-21.98 -39.196,-8.18 -33.62,0.259 -28.044,8.699 -12.993,8.583 0,0"
         style="fill:#fbca07;fill-opacity:1;fill-rule:evenodd;stroke:none"
         transform="matrix(1.3333333,0,0,-1.3333333,723.27347,636.69147)"
         clip-path="url(#clipPath32)" />
      <path
         id="path33"
         d="M 0,0 C 17.574,3.62 36.542,-2.043 49.219,-16.496 61.897,-30.951 65.043,-50.492 59.163,-67.444 41.589,-71.068 22.621,-65.401 9.944,-50.949 -2.733,-36.494 -5.88,-16.952 0,0"
         style="fill:#6c8d2a;fill-opacity:1;fill-rule:evenodd;stroke:none"
         transform="matrix(1.3333333,0,0,-1.3333333,572.56773,709.74613)"
         clip-path="url(#clipPath34)" />
      <path
         id="path35"
         d="m 0,0 c 0.609,0.127 1.221,0.238 1.833,0.341 l 23.501,-26.789 6.984,22.661 c 0.978,-0.459 1.945,-0.949 2.9,-1.469 l -7.403,-24.02 13.718,-15.641 7.173,28.995 c 0.173,-0.19 0.343,-0.38 0.513,-0.574 0.708,-0.807 1.385,-1.632 2.033,-2.469 L 44.106,-47.852 59.74,-65.673 c -0.181,-0.593 -0.373,-1.185 -0.577,-1.771 -0.609,-0.127 -1.22,-0.239 -1.833,-0.342 l -8.042,9.167 -27.046,-2.594 c -1.437,0.859 -2.841,1.796 -4.204,2.805 l 28.653,2.748 -12.088,13.784 -30.137,-1.565 c -0.614,1.021 -1.189,2.054 -1.723,3.106 l 29.179,1.515 -13.538,15.433 -20.714,-0.927 c -0.152,1.061 -0.271,2.122 -0.356,3.185 l 18.369,0.822 -16.26,18.536 C -0.395,-1.179 -0.204,-0.587 0,0"
         style="fill:#9ac421;fill-opacity:1;fill-rule:evenodd;stroke:none"
         transform="matrix(1.3333333,0,0,-1.3333333,572.56773,709.74613)"
         clip-path="url(#clipPath36)" />
      <path
         id="path37"
         d="m 0,0 c -13.552,2.792 -28.179,-1.575 -37.955,-12.721 -9.777,-11.146 -12.202,-26.217 -7.668,-39.289 13.552,-2.793 28.179,1.574 37.956,12.721 C 2.109,-28.144 4.533,-13.071 0,0"
         style="fill:#6c8d2a;fill-opacity:1;fill-rule:evenodd;stroke:none"
         transform="matrix(1.3333333,0,0,-1.3333333,710.3216,790.33467)"
         clip-path="url(#clipPath38)" />
      <path
         id="path39"
         d="m 0,0 c -0.469,0.097 -0.939,0.184 -1.414,0.266 l -18.121,-20.663 -5.386,17.477 c -0.755,-0.353 -1.502,-0.731 -2.236,-1.133 l 5.708,-18.523 -10.579,-12.062 -5.532,22.362 c -0.132,-0.149 -0.264,-0.297 -0.395,-0.445 -0.546,-0.623 -1.067,-1.258 -1.567,-1.904 l 5.509,-22.273 -12.055,-13.746 c 0.14,-0.46 0.288,-0.913 0.445,-1.366 0.469,-0.096 0.94,-0.184 1.413,-0.265 l 6.202,7.071 20.857,-2 c 1.109,0.661 2.191,1.384 3.24,2.164 l -22.097,2.118 9.324,10.629 23.242,-1.209 c 0.471,0.789 0.916,1.587 1.327,2.397 l -22.501,1.169 10.439,11.902 15.975,-0.716 c 0.115,0.818 0.209,1.638 0.275,2.457 l -14.165,0.635 12.536,14.292 C 0.306,-0.907 0.157,-0.454 0,0"
         style="fill:#9ac421;fill-opacity:1;fill-rule:evenodd;stroke:none"
         transform="matrix(1.3333333,0,0,-1.3333333,710.3216,790.33467)"
         clip-path="url(#clipPath40)" />
      <path
         id="path41"
         d="m 0,0 c 0.356,26.033 -2.668,49.951 -8.805,71.995 -6.144,22.068 -15.407,42.221 -27.524,60.62 l -2.806,-1.844 C -27.213,112.665 -18.095,92.83 -12.046,71.101 -5.991,49.35 -3.008,25.704 -3.36,0 Z"
         style="fill:#c6e446;fill-opacity:1;fill-rule:evenodd;stroke:none"
         transform="matrix(1.3333333,0,0,-1.3333333,252.22333,878.69267)"
         clip-path="url(#clipPath42)" />
      <path
         id="path43"
         d="M 0,0 C 8.375,6.842 42.26,49.919 52.377,34.604 62.496,19.29 9.579,5.017 0,0 M -0.672,0.299 C 1.531,8.604 -3.355,48.646 20.467,48.829 44.289,49.014 4.37,8.628 -0.672,0.299 m -0.911,-2.092 c -2.203,-8.305 2.684,-48.346 -21.14,-48.53 -23.821,-0.185 16.098,40.204 21.14,48.53 m -0.029,1.78 C -4.061,6.745 -0.521,49.588 -24.094,34.015 -47.666,18.441 -6.87,4.89 -1.612,-0.013 m 0.968,-1.466 C 4.614,-6.384 45.411,-19.935 21.839,-35.509 -1.734,-51.082 1.805,-8.239 -0.644,-1.479 m -1.624,0.723 c -9.639,-1.372 -62.447,-22.25 -52.934,-0.408 9.515,21.842 44.43,1.642 52.934,0.408 m 2.28,0.018 C 8.518,-1.968 43.433,-22.172 52.946,-0.33 62.459,21.512 9.651,0.634 0.012,-0.738 m -2.268,-0.755 c -9.58,-5.018 -62.495,-19.291 -52.377,-34.605 10.118,-15.313 44.004,27.762 52.377,34.605"
         style="fill:#ffffff;fill-opacity:1;fill-rule:evenodd;stroke:none"
         transform="matrix(1.3333333,0,0,-1.3333333,203.38027,707.28387)"
         clip-path="url(#clipPath44)" />
      <path
         id="path45"
         d="m 0,0 c -9.989,-6.601 -14.611,-17.212 -10.324,-23.701 4.288,-6.488 15.862,-6.401 25.851,0.2 9.99,6.601 14.611,17.211 10.324,23.7 C 21.562,6.69 9.989,6.6 0,0"
         style="fill:#fbca07;fill-opacity:1;fill-rule:evenodd;stroke:none"
         transform="matrix(1.3333333,0,0,-1.3333333,191.52533,692.612)"
         clip-path="url(#clipPath46)" />
      <path
         id="path47"
         d="m 0,0 c -13.513,2.786 -28.096,-1.572 -37.844,-12.684 -9.749,-11.113 -12.168,-26.143 -7.647,-39.177 13.513,-2.785 28.098,1.571 37.845,12.686 C 2.104,-28.061 4.521,-13.035 0,0"
         style="fill:#6c8d2a;fill-opacity:1;fill-rule:evenodd;stroke:none"
         transform="matrix(1.3333333,0,0,-1.3333333,307.40427,748.7852)"
         clip-path="url(#clipPath48)" />
      <path
         id="path49"
         d="m 0,0 c -0.469,0.097 -0.937,0.184 -1.409,0.263 l -18.07,-20.6 -5.369,17.423 c -0.754,-0.351 -1.497,-0.729 -2.231,-1.127 l 5.694,-18.472 -10.549,-12.025 -5.516,22.295 c -0.132,-0.146 -0.264,-0.293 -0.394,-0.441 -0.545,-0.62 -1.065,-1.254 -1.564,-1.899 l 5.494,-22.21 -12.021,-13.706 c 0.14,-0.456 0.287,-0.909 0.444,-1.362 0.469,-0.097 0.939,-0.182 1.409,-0.264 l 6.184,7.051 20.796,-1.994 c 1.107,0.662 2.184,1.38 3.233,2.158 l -22.033,2.112 9.297,10.599 23.173,-1.206 c 0.472,0.786 0.913,1.584 1.326,2.39 l -22.438,1.164 10.409,11.869 15.927,-0.713 c 0.118,0.815 0.209,1.632 0.275,2.45 l -14.124,0.629 12.501,14.253 C 0.305,-0.907 0.157,-0.45 0,0"
         style="fill:#9ac421;fill-opacity:1;fill-rule:evenodd;stroke:none"
         transform="matrix(1.3333333,0,0,-1.3333333,307.40427,748.7852)"
         clip-path="url(#clipPath50)" />
      <path
         id="path51"
         d="m 0,0 c 10.421,2.145 21.667,-1.215 29.185,-9.783 7.518,-8.572 9.382,-20.158 5.896,-30.21 -10.421,-2.15 -21.667,1.212 -29.185,9.779 C -1.621,-21.643 -3.487,-10.056 0,0"
         style="fill:#6c8d2a;fill-opacity:1;fill-rule:evenodd;stroke:none"
         transform="matrix(1.3333333,0,0,-1.3333333,201.48307,810.74867)"
         clip-path="url(#clipPath52)" />
      <path
         id="path53"
         d="m 0,0 c 0.361,0.072 0.724,0.139 1.087,0.202 l 13.934,-15.888 4.142,13.437 c 0.581,-0.272 1.154,-0.563 1.719,-0.87 l -4.389,-14.244 8.134,-9.272 4.253,17.194 c 0.102,-0.116 0.205,-0.228 0.305,-0.342 0.42,-0.481 0.82,-0.967 1.206,-1.466 l -4.237,-17.127 9.27,-10.568 c -0.109,-0.351 -0.222,-0.702 -0.343,-1.049 -0.361,-0.076 -0.724,-0.143 -1.086,-0.203 l -4.769,5.434 -16.037,-1.538 c -0.853,0.511 -1.686,1.067 -2.493,1.665 l 16.991,1.629 -7.169,8.172 -17.871,-0.928 c -0.363,0.605 -0.704,1.221 -1.021,1.844 l 17.302,0.897 -8.028,9.152 -12.282,-0.55 c -0.09,0.628 -0.16,1.257 -0.211,1.889 l 10.892,0.486 -9.642,10.992 C -0.234,-0.701 -0.121,-0.351 0,0"
         style="fill:#9ac421;fill-opacity:1;fill-rule:evenodd;stroke:none"
         transform="matrix(1.3333333,0,0,-1.3333333,201.48307,810.74867)"
         clip-path="url(#clipPath54)" />
      <path
         id="path55"
         d="m 0,0 c 0.47,34.323 -3.517,65.863 -11.61,94.928 -8.099,29.094 -20.314,55.67 -36.291,79.931 L -51.6,172.427 C -35.881,148.555 -23.859,122.4 -15.883,93.749 -7.899,65.068 -3.967,33.888 -4.429,0 Z"
         style="fill:#c6e446;fill-opacity:1;fill-rule:evenodd;stroke:none"
         transform="matrix(1.3333333,0,0,-1.3333333,406.01947,878.69267)"
         clip-path="url(#clipPath56)" />
      <path
         id="path57"
         d="M 0,0 C 11.04,9.022 55.721,65.821 69.061,45.628 82.4,25.437 12.63,6.617 0,0 M -0.889,0.395 C 2.017,11.347 -4.425,64.142 26.985,64.386 58.396,64.629 5.76,11.377 -0.889,0.395 m -1.199,-2.757 c -2.905,-10.951 3.539,-63.747 -27.873,-63.989 -31.411,-0.242 21.224,53.009 27.873,63.989 m -0.038,2.345 C -5.355,8.895 -0.689,65.386 -31.769,44.852 -62.85,24.315 -9.058,6.449 -2.126,-0.017 m 1.277,-1.932 C 6.083,-8.415 59.875,-26.283 28.794,-46.815 -2.288,-67.351 2.379,-10.862 -0.849,-1.949 m -2.143,0.955 c -12.709,-1.809 -82.337,-29.339 -69.794,-0.54 12.544,28.799 58.58,2.164 69.794,0.54 m 3.007,0.022 C 11.23,-2.595 57.265,-29.232 69.81,-0.434 82.354,28.365 12.724,0.837 0.015,-0.972 m -2.99,-0.994 c -12.632,-6.616 -82.403,-25.435 -69.062,-45.63 13.341,-20.191 58.02,36.607 69.062,45.63"
         style="fill:#ffffff;fill-opacity:1;fill-rule:evenodd;stroke:none"
         transform="matrix(1.3333333,0,0,-1.3333333,341.61973,652.68493)"
         clip-path="url(#clipPath58)" />
      <path
         id="path59"
         d="m 0,0 c -13.171,-8.702 -19.265,-22.693 -13.612,-31.249 5.653,-8.56 20.915,-8.442 34.086,0.263 13.171,8.701 19.263,22.692 13.612,31.25 C 28.432,8.819 13.171,8.701 0,0"
         style="fill:#fbca07;fill-opacity:1;fill-rule:evenodd;stroke:none"
         transform="matrix(1.3333333,0,0,-1.3333333,325.98693,633.3372)"
         clip-path="url(#clipPath60)" />
      <path
         id="path61"
         d="m 0,0 c -17.819,3.672 -37.048,-2.07 -49.901,-16.726 -12.854,-14.654 -16.044,-34.467 -10.081,-51.655 17.816,-3.669 37.046,2.073 49.9,16.728 C 2.771,-37.001 5.962,-17.187 0,0"
         style="fill:#6c8d2a;fill-opacity:1;fill-rule:evenodd;stroke:none"
         transform="matrix(1.3333333,0,0,-1.3333333,478.78,707.40493)"
         clip-path="url(#clipPath62)" />
      <path
         id="path63"
         d="m 0,0 c -0.618,0.127 -1.237,0.241 -1.858,0.348 l -23.828,-27.164 -7.079,22.974 c -0.993,-0.462 -1.974,-0.958 -2.941,-1.486 l 7.506,-24.357 -13.908,-15.854 -7.272,29.397 c -0.175,-0.193 -0.35,-0.387 -0.521,-0.584 -0.718,-0.818 -1.404,-1.653 -2.061,-2.501 l 7.244,-29.286 -15.85,-18.07 c 0.184,-0.602 0.378,-1.199 0.586,-1.798 0.617,-0.127 1.236,-0.242 1.856,-0.345 l 8.154,9.293 27.422,-2.628 c 1.458,0.872 2.88,1.822 4.263,2.843 l -29.053,2.786 12.258,13.976 30.555,-1.587 c 0.623,1.033 1.204,2.085 1.747,3.149 l -29.585,1.536 13.725,15.645 21.002,-0.936 c 0.155,1.073 0.275,2.151 0.362,3.227 L -15.9,-20.588 0.585,-1.796 C 0.4,-1.194 0.206,-0.596 0,0"
         style="fill:#9ac421;fill-opacity:1;fill-rule:evenodd;stroke:none"
         transform="matrix(1.3333333,0,0,-1.3333333,478.78,707.40493)"
         clip-path="url(#clipPath64)" />
      <path
         id="path65"
         d="m 0,0 c 13.739,2.832 28.569,-1.599 38.482,-12.898 9.911,-11.3 12.37,-26.578 7.773,-39.833 C 32.516,-55.564 17.686,-51.133 7.773,-39.832 -2.138,-28.532 -4.597,-13.252 0,0"
         style="fill:#6c8d2a;fill-opacity:1;fill-rule:evenodd;stroke:none"
         transform="matrix(1.3333333,0,0,-1.3333333,339.1172,789.11067)"
         clip-path="url(#clipPath66)" />
      <path
         id="path67"
         d="m 0,0 c 0.476,0.101 0.954,0.187 1.433,0.27 l 18.373,-20.948 5.46,17.717 c 0.766,-0.357 1.523,-0.741 2.268,-1.148 l -5.787,-18.781 10.724,-12.228 5.609,22.67 c 0.133,-0.148 0.269,-0.299 0.402,-0.45 0.553,-0.629 1.082,-1.273 1.59,-1.928 l -5.589,-22.586 12.224,-13.935 c -0.143,-0.463 -0.292,-0.924 -0.452,-1.384 -0.476,-0.097 -0.953,-0.188 -1.432,-0.266 l -6.288,7.169 -21.145,-2.028 c -1.124,0.67 -2.222,1.402 -3.288,2.191 l 22.403,2.148 -9.451,10.775 -23.563,-1.221 c -0.481,0.798 -0.928,1.608 -1.348,2.427 l 22.814,1.184 -10.583,12.068 -16.196,-0.726 c -0.118,0.828 -0.212,1.659 -0.279,2.491 l 14.362,0.644 -12.713,14.491 C -0.31,-0.921 -0.16,-0.459 0,0"
         style="fill:#9ac421;fill-opacity:1;fill-rule:evenodd;stroke:none"
         transform="matrix(1.3333333,0,0,-1.3333333,339.1172,789.11067)"
         clip-path="url(#clipPath68)" />
    </g>
  </g>
</svg>
