<?xml version="1.0" encoding="UTF-8" standalone="no"?>
<!-- Created with Inkscape (http://www.inkscape.org/) -->

<svg
   version="1.1"
   id="svg1"
   width="880"
   height="880"
   viewBox="0 0 880 880"
   sodipodi:docname="mountain-nature.svg"
   inkscape:version="1.3.2 (091e20e, 2023-11-25, custom)"
   xmlns:inkscape="http://www.inkscape.org/namespaces/inkscape"
   xmlns:sodipodi="http://sodipodi.sourceforge.net/DTD/sodipodi-0.dtd"
   xmlns="http://www.w3.org/2000/svg"
   xmlns:svg="http://www.w3.org/2000/svg">
  <defs
     id="defs1">
    <clipPath
       clipPathUnits="userSpaceOnUse"
       id="clipPath12">
      <path
         d="M 0,660 H 660 V 0 H 0 Z"
         transform="translate(-331.07621,-31.372103)"
         id="path12" />
    </clipPath>
    <clipPath
       clipPathUnits="userSpaceOnUse"
       id="clipPath14">
      <path
         d="M 0,660 H 660 V 0 H 0 Z"
         transform="translate(-346.22951,-313.31931)"
         id="path14" />
    </clipPath>
    <clipPath
       clipPathUnits="userSpaceOnUse"
       id="clipPath16">
      <path
         d="M 0,660 H 660 V 0 H 0 Z"
         transform="translate(-349.05371,-225.91111)"
         id="path16" />
    </clipPath>
    <clipPath
       clipPathUnits="userSpaceOnUse"
       id="clipPath18">
      <path
         d="M 0,660 H 660 V 0 H 0 Z"
         transform="translate(-355.00201,-520.81102)"
         id="path18" />
    </clipPath>
    <clipPath
       clipPathUnits="userSpaceOnUse"
       id="clipPath20">
      <path
         d="M 0,660 H 660 V 0 H 0 Z"
         transform="translate(-537.45802,-359.89261)"
         id="path20" />
    </clipPath>
    <clipPath
       clipPathUnits="userSpaceOnUse"
       id="clipPath22">
      <path
         d="M 0,660 H 660 V 0 H 0 Z"
         transform="translate(-234.41061,-431.02201)"
         id="path22" />
    </clipPath>
    <clipPath
       clipPathUnits="userSpaceOnUse"
       id="clipPath24">
      <path
         d="M 0,660 H 660 V 0 H 0 Z"
         transform="translate(-334.32421,-30.290003)"
         id="path24" />
    </clipPath>
    <clipPath
       clipPathUnits="userSpaceOnUse"
       id="clipPath26">
      <path
         d="M 0,660 H 660 V 0 H 0 Z"
         transform="translate(-349.47561,-312.23541)"
         id="path26" />
    </clipPath>
    <clipPath
       clipPathUnits="userSpaceOnUse"
       id="clipPath28">
      <path
         d="M 0,660 H 660 V 0 H 0 Z"
         transform="translate(-352.29981,-224.82811)"
         id="path28" />
    </clipPath>
    <clipPath
       clipPathUnits="userSpaceOnUse"
       id="clipPath30">
      <path
         d="M 0,660 H 660 V 0 H 0 Z"
         transform="translate(-358.25001,-519.72851)"
         id="path30" />
    </clipPath>
    <clipPath
       clipPathUnits="userSpaceOnUse"
       id="clipPath32">
      <path
         d="M 0,660 H 660 V 0 H 0 Z"
         transform="translate(-540.70612,-358.81011)"
         id="path32" />
    </clipPath>
    <clipPath
       clipPathUnits="userSpaceOnUse"
       id="clipPath34">
      <path
         d="M 0,660 H 660 V 0 H 0 Z"
         transform="translate(-237.6577,-429.93951)"
         id="path34" />
    </clipPath>
    <clipPath
       clipPathUnits="userSpaceOnUse"
       id="clipPath36">
      <path
         d="M 0,660 H 660 V 0 H 0 Z"
         transform="translate(-96.329605,-507.20411)"
         id="path36" />
    </clipPath>
    <clipPath
       clipPathUnits="userSpaceOnUse"
       id="clipPath38">
      <path
         d="M 0,660 H 660 V 0 H 0 Z"
         transform="translate(-119.5752,-99.0283)"
         id="path38" />
    </clipPath>
    <clipPath
       clipPathUnits="userSpaceOnUse"
       id="clipPath40">
      <path
         d="M 0,660 H 660 V 0 H 0 Z"
         transform="translate(-129.0898,-276.05661)"
         id="path40" />
    </clipPath>
    <clipPath
       clipPathUnits="userSpaceOnUse"
       id="clipPath42">
      <path
         d="M 0,660 H 660 V 0 H 0 Z"
         transform="translate(-130.8633,-221.17381)"
         id="path42" />
    </clipPath>
    <clipPath
       clipPathUnits="userSpaceOnUse"
       id="clipPath44">
      <path
         d="M 0,660 H 660 V 0 H 0 Z"
         transform="translate(-134.5986,-406.33741)"
         id="path44" />
    </clipPath>
    <clipPath
       clipPathUnits="userSpaceOnUse"
       id="clipPath46">
      <path
         d="M 0,660 H 660 V 0 H 0 Z"
         transform="translate(-249.1582,-305.29981)"
         id="path46" />
    </clipPath>
    <clipPath
       clipPathUnits="userSpaceOnUse"
       id="clipPath48">
      <path
         d="M 0,660 H 660 V 0 H 0 Z"
         transform="translate(-58.880401,-349.96041)"
         id="path48" />
    </clipPath>
    <clipPath
       clipPathUnits="userSpaceOnUse"
       id="clipPath50">
      <path
         d="M 0,660 H 660 V 0 H 0 Z"
         transform="translate(-121.6143,-98.348605)"
         id="path50" />
    </clipPath>
    <clipPath
       clipPathUnits="userSpaceOnUse"
       id="clipPath52">
      <path
         d="M 0,660 H 660 V 0 H 0 Z"
         transform="translate(-131.1289,-275.377)"
         id="path52" />
    </clipPath>
    <clipPath
       clipPathUnits="userSpaceOnUse"
       id="clipPath54">
      <path
         d="M 0,660 H 660 V 0 H 0 Z"
         transform="translate(-132.9019,-220.4941)"
         id="path54" />
    </clipPath>
    <clipPath
       clipPathUnits="userSpaceOnUse"
       id="clipPath56">
      <path
         d="M 0,660 H 660 V 0 H 0 Z"
         transform="translate(-136.6372,-405.65821)"
         id="path56" />
    </clipPath>
    <clipPath
       clipPathUnits="userSpaceOnUse"
       id="clipPath58">
      <path
         d="M 0,660 H 660 V 0 H 0 Z"
         transform="translate(-251.1982,-304.61911)"
         id="path58" />
    </clipPath>
    <clipPath
       clipPathUnits="userSpaceOnUse"
       id="clipPath60">
      <path
         d="M 0,660 H 660 V 0 H 0 Z"
         transform="translate(-60.919402,-349.28081)"
         id="path60" />
    </clipPath>
    <clipPath
       clipPathUnits="userSpaceOnUse"
       id="clipPath62">
      <path
         d="M 0,660 H 660 V 0 H 0 Z"
         transform="translate(-0.19340001,-183.874)"
         id="path62" />
    </clipPath>
    <clipPath
       clipPathUnits="userSpaceOnUse"
       id="clipPath64">
      <path
         d="M 0,660 H 660 V 0 H 0 Z"
         transform="translate(-251.1982,-634.14652)"
         id="path64" />
    </clipPath>
    <clipPath
       clipPathUnits="userSpaceOnUse"
       id="clipPath66">
      <path
         d="M 0,660 H 660 V 0 H 0 Z"
         transform="translate(-623.69042,-515.42771)"
         id="path66" />
    </clipPath>
    <clipPath
       clipPathUnits="userSpaceOnUse"
       id="clipPath68">
      <path
         d="M 0,660 H 660 V 0 H 0 Z"
         transform="translate(-55.793501,-465.88771)"
         id="path68" />
    </clipPath>
  </defs>
  <sodipodi:namedview
     id="namedview1"
     pagecolor="#ffffff"
     bordercolor="#000000"
     borderopacity="0.25"
     inkscape:showpageshadow="2"
     inkscape:pageopacity="0.0"
     inkscape:pagecheckerboard="0"
     inkscape:deskcolor="#d1d1d1"
     inkscape:zoom="0.67272727"
     inkscape:cx="439.25676"
     inkscape:cy="440"
     inkscape:window-width="1440"
     inkscape:window-height="830"
     inkscape:window-x="-6"
     inkscape:window-y="-6"
     inkscape:window-maximized="1"
     inkscape:current-layer="g1">
    <inkscape:page
       x="0"
       y="0"
       inkscape:label="1"
       id="page1"
       width="880"
       height="880"
       margin="0 0 0 0.25651067"
       bleed="0" />
  </sodipodi:namedview>
  <g
     id="g1"
     inkscape:groupmode="layer"
     inkscape:label="1">
    <g
       id="group-MC0">
      <path
         id="path2"
         d="M 0.193,0 H 660 V 660 H 0.193 Z"
         style="fill:#c6ebd9;fill-opacity:1;fill-rule:nonzero;stroke:none"
         transform="matrix(1.3333333,0,0,-1.3333333,0,880)" />
      <path
         id="path3"
         d="M 0,0 598.822,-55.435 0,10.888 Z m 659.806,-138.382 v 9.869 l -466.842,56.25 z M 0,-124.726 495.872,-188.081 0,-116.808 Z"
         style="fill:#ddf3e9;fill-opacity:1;fill-rule:nonzero;stroke:none"
         transform="matrix(1.3333333,0,0,-1.3333333,0.258,46.6624)" />
      <path
         id="path4"
         d="M 0.193,0 H 660 V 245.234 H 0.193 Z"
         style="fill:#adda1a;fill-opacity:1;fill-rule:nonzero;stroke:none"
         transform="matrix(1.3333333,0,0,-1.3333333,0,880)" />
      <path
         id="path5"
         d="M 0,0 -82.136,47.421 -158.287,3.455 V -88.992 H 501.52 V 19.495 L 456.047,45.748 338.597,-22.063 150.193,86.712 Z"
         style="fill:#6cb6ce;fill-opacity:1;fill-rule:nonzero;stroke:none"
         transform="matrix(1.3333333,0,0,-1.3333333,211.3068,434.3656)" />
      <path
         id="path6"
         d="m 0,0 115.667,-60.528 62.364,8.909 -67.313,39.596 61.62,10.883 -50.732,26.733 52.466,21.778 -32.668,15.84 21.778,4.949 -12.989,18.552 z m -158.287,3.455 v -50.122 l 17.573,-16.828 56.919,15.344 -40.586,18.313 38.111,1.979 -43.061,15.84 63.354,5.939 -39.102,19.302 37.617,9.899 -25.737,9.899 11.063,14.401 z m 496.884,-25.518 72.309,-33.765 32.665,1.978 -36.625,17.323 45.782,17.819 -28.954,9.157 35.202,17.501 -23.571,5.266 23.759,16.334 -16.583,0.743 13.466,15.455 z"
         style="fill:#ebf8f3;fill-opacity:1;fill-rule:nonzero;stroke:none"
         transform="matrix(1.3333333,0,0,-1.3333333,211.3068,434.3656)" />
      <path
         id="path7"
         d="M 0,0 13.364,0.496 -9.404,-23.261 34.151,-50.979 4.454,-82.418 h 190.061 l -58.404,34.409 -39.102,2.475 2.474,22.767 L 37.121,0 42.07,12.374 -9.404,25.243 Z m -255.393,-20.294 15.838,-30.192 -19.303,-11.878 28.589,-20.054 h 136.723 l -90.08,39.852 -6.929,22.272 -43.061,4.455 -8.909,17.323 z m 530.583,-0.491 h -26.232 l 13.858,-13.364 21.076,-11.579 V -1.854 L 262.32,0.005 Z"
         style="fill:#468eae;fill-opacity:1;fill-rule:nonzero;stroke:none"
         transform="matrix(1.3333333,0,0,-1.3333333,501.4776,443.1304)" />
      <path
         id="path8"
         d="M 0,0 H 659.806 V 196.074 L 0,229.658 Z"
         style="fill:#9ac421;fill-opacity:1;fill-rule:nonzero;stroke:none"
         transform="matrix(1.3333333,0,0,-1.3333333,0.258,880)" />
      <path
         id="path9"
         d="M 0,0 V -9.142 L 659.806,-0.02 V 0 Z"
         style="fill:#5d7928;fill-opacity:1;fill-rule:nonzero;stroke:none"
         transform="matrix(1.3333333,0,0,-1.3333333,0.258,553.0216)" />
      <path
         id="path10"
         d="M 0,0 H 659.806 V 84.172 L 0,211.591 Z"
         style="fill:#8cb526;fill-opacity:1;fill-rule:nonzero;stroke:none"
         transform="matrix(1.3333333,0,0,-1.3333333,0.258,880)" />
      <path
         id="path11"
         d="m 0,0 15.95,39.619 c 10.048,24.956 12.206,48.98 6.774,75.328 -4.421,21.434 -0.35,42.85 11.984,62.073 26.227,40.873 24.259,92.046 -5.479,131.053 l -1.163,1.525 c -16.981,22.276 -17.903,51.53 -2.355,74.83 l 26.765,40.103 -10.267,9.477 -25.775,-32.806 C -10.334,367.132 -13.153,322.211 8.787,285.363 26.378,255.819 24.032,220.31 2.707,193.339 l -2.018,-2.551 c -15.892,-20.1 -24.047,-43.145 -24.087,-67.219 -0.051,-30.319 -9.027,-56.361 -27.669,-80.27 L -67.105,22.73 Z"
         style="fill:#ffffff;fill-opacity:1;fill-rule:evenodd;stroke:none"
         transform="matrix(1.3333333,0,0,-1.3333333,441.43493,838.17053)"
         clip-path="url(#clipPath12)" />
      <path
         id="path13"
         d="m 0,0 -20.881,7.604 c -46.889,17.075 -79.411,53.176 -91.514,101.589 l -1.249,4.99 5.954,3.248 c 15.639,-50.689 38.076,-79.564 91.47,-92.197 l 9.454,-2.236 z"
         style="fill:#ffffff;fill-opacity:1;fill-rule:evenodd;stroke:none"
         transform="matrix(1.3333333,0,0,-1.3333333,461.63933,462.24093)"
         clip-path="url(#clipPath14)" />
      <path
         id="path15"
         d="m 0,0 25.216,9.182 c 56.629,20.623 95.904,64.222 110.52,122.689 l 1.507,6.026 -7.189,3.922 C 111.167,80.603 84.07,45.732 19.585,30.477 L 8.168,27.774 Z"
         style="fill:#ffffff;fill-opacity:1;fill-rule:evenodd;stroke:none"
         transform="matrix(1.3333333,0,0,-1.3333333,465.40493,578.7852)"
         clip-path="url(#clipPath16)" />
      <path
         id="path17"
         d="m 0,0 c 26.927,-1.73 48.755,-11.378 48.755,-21.55 0,-1.772 -0.665,-3.442 -1.902,-4.986 20.514,-3.382 35.894,-12.943 35.894,-23.206 0,-5.762 -4.85,-10.68 -12.734,-14.017 10.448,2.028 23.136,2.796 36.816,1.916 35.715,-2.294 64.669,-14.936 64.669,-28.235 0,-13.299 -28.954,-22.221 -64.669,-19.926 -23.245,1.493 -43.623,7.371 -55.021,14.959 -7.938,-1.25 -17.146,-1.664 -26.964,-1.033 -22.196,1.426 -41.268,7.798 -49.614,15.696 -5.465,-0.724 -11.691,-0.934 -18.3,-0.509 -21.668,1.392 -39.235,9.062 -39.235,17.132 0,4.067 4.467,7.46 11.668,9.646 -17.782,5.337 -29.751,13.965 -29.751,22.968 0,12.6 23.442,21.452 53.448,20.734 C -41.181,-3.034 -22.347,1.436 0,0"
         style="fill:#ffffff;fill-opacity:1;fill-rule:evenodd;stroke:none"
         transform="matrix(1.3333333,0,0,-1.3333333,473.336,185.58533)"
         clip-path="url(#clipPath18)" />
      <path
         id="path19"
         d="m 0,0 c 12.179,-0.889 22.052,-6.333 22.052,-12.162 0,-5.829 -9.873,-9.831 -22.052,-8.941 -4.468,0.325 -8.625,1.264 -12.099,2.611 -5.942,-1.985 -13.851,-2.882 -22.535,-2.251 -7.244,0.53 -13.949,2.046 -19.424,4.189 -3.427,-2.707 -9.683,-4.227 -16.834,-3.705 -10.835,0.789 -19.617,5.974 -19.617,11.577 0,2.258 1.426,4.238 3.836,5.747 -7.317,2.49 -12.224,6.445 -12.224,10.559 0,1.896 1.041,3.604 2.879,5.036 -7.688,1.993 -12.89,5.121 -12.89,8.277 0,4.633 11.205,7.57 25.029,6.562 3.313,-0.243 6.474,-0.69 9.369,-1.292 4.498,1.071 10.112,1.493 16.2,1.048 14.793,-1.079 26.787,-6.861 26.787,-12.913 0,-2.026 -1.345,-3.824 -3.688,-5.281 l 0.577,-0.039 C -22.733,8.153 -12.289,4.621 -6.369,0.018 -4.353,0.161 -2.216,0.162 0,0"
         style="fill:#ffffff;fill-opacity:1;fill-rule:evenodd;stroke:none"
         transform="matrix(1.3333333,0,0,-1.3333333,716.61067,400.1432)"
         clip-path="url(#clipPath20)" />
      <path
         id="path21"
         d="m 0,0 c 16.81,-0.989 30.44,-6.454 30.44,-12.208 0,-1.44 -0.855,-2.762 -2.4,-3.919 1.447,0.004 2.924,-0.035 4.429,-0.123 16.661,-0.98 30.169,-7.469 30.169,-14.492 0,-7.024 -13.508,-11.922 -30.169,-10.943 -1.711,0.101 -3.388,0.26 -5.022,0.472 0.026,-0.277 0.042,-0.554 0.042,-0.832 0,-7.384 -9.635,-12.804 -21.524,-12.105 -11.887,0.699 -21.524,7.252 -21.524,14.636 0,2.008 0.714,3.87 1.991,5.503 -14.274,1.511 -25.26,6.28 -25.26,11.265 0,1.684 1.252,3.196 3.461,4.453 -10.048,1.178 -17.531,3.863 -17.531,6.543 0,3.121 10.141,5.054 22.666,4.328 C -28.471,-2.346 -15.609,0.917 0,0"
         style="fill:#ffffff;fill-opacity:1;fill-rule:evenodd;stroke:none"
         transform="matrix(1.3333333,0,0,-1.3333333,312.54747,305.304)"
         clip-path="url(#clipPath22)" />
      <path
         id="path23"
         d="m 0,0 15.949,39.618 c 10.047,24.957 12.207,48.981 6.774,75.329 -4.42,21.433 -0.35,42.849 11.985,62.072 26.226,40.873 24.257,92.046 -5.479,131.053 l -1.165,1.526 c -16.981,22.276 -17.901,51.53 -2.353,74.829 L 52.476,424.53 42.209,434.007 16.434,401.202 C -10.335,367.131 -13.153,322.21 8.787,285.362 26.378,255.82 24.032,220.309 2.707,193.338 l -2.02,-2.551 c -15.892,-20.1 -24.045,-43.144 -24.086,-67.217 -0.05,-30.32 -9.026,-56.359 -27.668,-80.272 L -67.105,22.729 Z"
         style="fill:#526926;fill-opacity:1;fill-rule:evenodd;stroke:none"
         transform="matrix(1.3333333,0,0,-1.3333333,445.7656,839.61333)"
         clip-path="url(#clipPath24)" />
      <path
         id="path25"
         d="m 0,0 -20.881,7.604 c -46.889,17.077 -79.411,53.178 -91.513,101.591 l -1.248,4.99 5.953,3.247 C -92.05,66.744 -69.612,37.869 -16.218,25.235 L -6.764,23 Z"
         style="fill:#526926;fill-opacity:1;fill-rule:evenodd;stroke:none"
         transform="matrix(1.3333333,0,0,-1.3333333,465.96747,463.68613)"
         clip-path="url(#clipPath26)" />
      <path
         id="path27"
         d="m 0,0 25.217,9.183 c 56.629,20.622 95.904,64.221 110.52,122.688 l 1.508,6.027 -7.189,3.921 C 111.169,80.603 84.072,45.732 19.587,30.477 L 8.17,27.775 Z"
         style="fill:#526926;fill-opacity:1;fill-rule:evenodd;stroke:none"
         transform="matrix(1.3333333,0,0,-1.3333333,469.73307,580.2292)"
         clip-path="url(#clipPath28)" />
      <path
         id="path29"
         d="m 0,0 c 26.926,-1.731 48.754,-11.378 48.754,-21.55 0,-1.772 -0.664,-3.442 -1.9,-4.985 20.511,-3.383 35.893,-12.944 35.893,-23.207 0,-5.762 -4.851,-10.68 -12.734,-14.017 10.448,2.028 23.134,2.796 36.816,1.917 35.715,-2.295 64.667,-14.937 64.667,-28.236 0,-13.299 -28.952,-22.221 -64.667,-19.926 -23.245,1.493 -43.623,7.371 -55.022,14.959 -7.939,-1.25 -17.145,-1.664 -26.963,-1.033 -22.197,1.426 -41.27,7.797 -49.616,15.696 -5.463,-0.724 -11.69,-0.934 -18.299,-0.509 -21.669,1.392 -39.234,9.062 -39.234,17.132 0,4.067 4.463,7.46 11.667,9.647 -17.782,5.336 -29.752,13.964 -29.752,22.967 0,12.6 23.443,21.452 53.449,20.734 C -41.183,-3.034 -22.347,1.436 0,0"
         style="fill:#526926;fill-opacity:1;fill-rule:evenodd;stroke:none"
         transform="matrix(1.3333333,0,0,-1.3333333,477.66667,187.02867)"
         clip-path="url(#clipPath30)" />
      <path
         id="path31"
         d="m 0,0 c 12.179,-0.889 22.052,-6.333 22.052,-12.162 0,-5.828 -9.873,-9.831 -22.052,-8.942 -4.468,0.326 -8.625,1.265 -12.099,2.612 -5.941,-1.985 -13.852,-2.883 -22.537,-2.249 -7.243,0.528 -13.949,2.044 -19.422,4.187 -3.428,-2.707 -9.685,-4.228 -16.835,-3.706 -10.834,0.79 -19.616,5.974 -19.616,11.578 0,2.257 1.426,4.238 3.834,5.747 -7.315,2.49 -12.223,6.445 -12.223,10.559 0,1.894 1.043,3.604 2.879,5.036 -7.687,1.993 -12.889,5.121 -12.889,8.277 0,4.633 11.205,7.57 25.027,6.562 3.315,-0.242 6.476,-0.69 9.369,-1.293 4.5,1.072 10.114,1.494 16.202,1.049 14.793,-1.079 26.786,-6.861 26.786,-12.913 0,-2.026 -1.344,-3.824 -3.687,-5.281 l 0.575,-0.04 C -22.735,8.153 -12.29,4.621 -6.369,0.018 -4.353,0.162 -2.216,0.162 0,0"
         style="fill:#526926;fill-opacity:1;fill-rule:evenodd;stroke:none"
         transform="matrix(1.3333333,0,0,-1.3333333,720.94147,401.58653)"
         clip-path="url(#clipPath32)" />
      <path
         id="path33"
         d="m 0,0 c 16.811,-0.989 30.44,-6.454 30.44,-12.207 0,-1.441 -0.854,-2.763 -2.399,-3.92 1.445,0.005 2.922,-0.036 4.427,-0.123 16.663,-0.98 30.171,-7.469 30.171,-14.492 0,-7.024 -13.508,-11.923 -30.171,-10.943 -1.711,0.101 -3.388,0.26 -5.02,0.472 0.026,-0.276 0.042,-0.554 0.042,-0.833 0,-7.384 -9.638,-12.804 -21.525,-12.104 -11.886,0.699 -21.523,7.253 -21.523,14.636 0,2.009 0.714,3.87 1.99,5.504 -14.273,1.51 -25.26,6.279 -25.26,11.265 0,1.683 1.253,3.195 3.462,4.453 -10.049,1.177 -17.532,3.862 -17.532,6.542 0,3.121 10.141,5.054 22.666,4.328 C -28.471,-2.346 -15.608,0.917 0,0"
         style="fill:#526926;fill-opacity:1;fill-rule:evenodd;stroke:none"
         transform="matrix(1.3333333,0,0,-1.3333333,316.87693,306.74733)"
         clip-path="url(#clipPath34)" />
      <path
         id="path35"
         d="m 0,0 c 38.261,0 69.468,31.206 69.468,69.468 0,38.262 -31.207,69.468 -69.468,69.468 -38.262,0 -69.468,-31.206 -69.468,-69.468 C -69.468,31.206 -38.262,0 0,0"
         style="fill:#ffffff;fill-opacity:1;fill-rule:evenodd;stroke:none"
         transform="matrix(1.3333333,0,0,-1.3333333,128.43947,203.72787)"
         clip-path="url(#clipPath36)" />
      <path
         id="path37"
         d="m 0,0 10.014,24.874 c 6.31,15.67 7.665,30.754 4.254,47.299 -2.775,13.456 -0.22,26.903 7.524,38.972 16.469,25.665 15.232,57.795 -3.44,82.287 l -0.73,0.959 C 6.96,208.377 6.382,226.746 16.145,241.375 l 16.804,25.18 -6.446,5.95 -16.184,-20.598 C -6.489,230.516 -8.258,202.31 5.518,179.175 16.562,160.624 15.09,138.327 1.7,121.392 L 0.433,119.79 C -9.546,107.17 -14.667,92.7 -14.691,77.586 -14.723,58.549 -20.358,42.198 -32.063,27.185 l -10.07,-12.916 z"
         style="fill:#ffffff;fill-opacity:1;fill-rule:evenodd;stroke:none"
         transform="matrix(1.3333333,0,0,-1.3333333,159.4336,747.96227)"
         clip-path="url(#clipPath38)" />
      <path
         id="path39"
         d="m 0,0 -13.111,4.775 c -29.442,10.721 -49.861,33.389 -57.461,63.787 l -0.783,3.131 3.738,2.04 c 9.819,-31.827 23.907,-49.957 57.433,-57.888 l 5.937,-1.404 z"
         style="fill:#ffffff;fill-opacity:1;fill-rule:evenodd;stroke:none"
         transform="matrix(1.3333333,0,0,-1.3333333,172.11973,511.92453)"
         clip-path="url(#clipPath40)" />
      <path
         id="path41"
         d="m 0,0 15.832,5.766 c 35.557,12.948 60.217,40.323 69.395,77.035 l 0.946,3.783 -4.514,2.462 C 69.8,50.61 52.786,28.715 12.297,19.136 L 5.128,17.439 Z"
         style="fill:#ffffff;fill-opacity:1;fill-rule:evenodd;stroke:none"
         transform="matrix(1.3333333,0,0,-1.3333333,174.4844,585.1016)"
         clip-path="url(#clipPath42)" />
      <path
         id="path43"
         d="m 0,0 c 16.907,-1.086 30.611,-7.144 30.611,-13.53 0,-1.113 -0.416,-2.162 -1.193,-3.131 12.88,-2.124 22.538,-8.127 22.538,-14.57 0,-3.619 -3.046,-6.707 -7.996,-8.802 6.56,1.274 14.526,1.756 23.116,1.203 22.425,-1.441 40.604,-9.378 40.604,-17.727 0,-8.353 -18.179,-13.953 -40.604,-12.512 -14.596,0.937 -27.391,4.627 -34.548,9.393 -4.983,-0.786 -10.765,-1.046 -16.93,-0.65 -13.936,0.896 -25.911,4.896 -31.152,9.855 -3.431,-0.454 -7.34,-0.586 -11.49,-0.319 -13.605,0.875 -24.634,5.69 -24.634,10.757 0,2.554 2.804,4.684 7.325,6.057 -11.164,3.35 -18.681,8.768 -18.681,14.421 0,7.911 14.719,13.469 33.56,13.019 C -25.858,-1.905 -14.033,0.902 0,0"
         style="fill:#ffffff;fill-opacity:1;fill-rule:evenodd;stroke:none"
         transform="matrix(1.3333333,0,0,-1.3333333,179.4648,338.2168)"
         clip-path="url(#clipPath44)" />
      <path
         id="path45"
         d="m 0,0 c 7.648,-0.558 13.847,-3.977 13.847,-7.638 0,-3.658 -6.199,-6.172 -13.847,-5.614 -2.803,0.206 -5.413,0.796 -7.595,1.64 -3.731,-1.245 -8.697,-1.81 -14.15,-1.411 -4.548,0.332 -8.759,1.284 -12.195,2.629 -2.153,-1.7 -6.081,-2.655 -10.571,-2.328 -6.802,0.497 -12.317,3.752 -12.317,7.271 0,1.416 0.895,2.66 2.408,3.609 -4.593,1.563 -7.675,4.045 -7.675,6.628 0,1.191 0.655,2.264 1.808,3.163 -4.827,1.25 -8.094,3.216 -8.094,5.197 0,2.909 7.036,4.753 15.716,4.119 2.08,-0.152 4.064,-0.432 5.883,-0.811 2.824,0.672 6.348,0.938 10.171,0.659 9.289,-0.678 16.819,-4.308 16.819,-8.109 0,-1.271 -0.844,-2.401 -2.314,-3.316 l 0.361,-0.024 C -14.273,5.12 -7.715,2.901 -3.999,0.011 -2.732,0.101 -1.389,0.101 0,0"
         style="fill:#ffffff;fill-opacity:1;fill-rule:evenodd;stroke:none"
         transform="matrix(1.3333333,0,0,-1.3333333,332.21093,472.9336)"
         clip-path="url(#clipPath46)" />
      <path
         id="path47"
         d="m 0,0 c 10.556,-0.62 19.112,-4.052 19.112,-7.665 0,-0.903 -0.536,-1.734 -1.506,-2.461 0.908,0.004 1.836,-0.021 2.781,-0.077 10.461,-0.616 18.943,-4.69 18.943,-9.098 0,-4.411 -8.482,-7.487 -18.943,-6.872 -1.075,0.063 -2.128,0.163 -3.154,0.295 0.018,-0.172 0.027,-0.346 0.027,-0.522 0,-4.638 -6.051,-8.04 -13.514,-7.6 -7.464,0.44 -13.515,4.553 -13.515,9.19 0,1.262 0.449,2.43 1.25,3.456 -8.962,0.947 -15.86,3.941 -15.86,7.073 0,1.057 0.786,2.006 2.172,2.795 -6.309,0.74 -11.007,2.425 -11.007,4.107 0,1.961 6.367,3.174 14.232,2.72 C -17.877,-1.472 -9.8,0.577 0,0"
         style="fill:#ffffff;fill-opacity:1;fill-rule:evenodd;stroke:none"
         transform="matrix(1.3333333,0,0,-1.3333333,78.5072,413.38613)"
         clip-path="url(#clipPath48)" />
      <path
         id="path49"
         d="m 0,0 10.014,24.874 c 6.309,15.67 7.665,30.753 4.253,47.297 -2.775,13.458 -0.219,26.904 7.525,38.975 16.469,25.663 15.232,57.794 -3.44,82.286 l -0.73,0.958 c -10.663,13.987 -11.24,32.355 -1.478,46.984 l 16.805,25.181 -6.446,5.95 -16.185,-20.598 C -6.489,230.516 -8.258,202.309 5.517,179.173 16.562,160.623 15.089,138.326 1.7,121.394 L 0.433,119.79 C -9.546,107.17 -14.667,92.7 -14.691,77.586 -14.724,58.549 -20.359,42.198 -32.064,27.184 L -42.133,14.269 Z"
         style="fill:#526926;fill-opacity:1;fill-rule:evenodd;stroke:none"
         transform="matrix(1.3333333,0,0,-1.3333333,162.1524,748.86853)"
         clip-path="url(#clipPath50)" />
      <path
         id="path51"
         d="m 0,0 -13.111,4.773 c -29.442,10.723 -49.861,33.39 -57.46,63.788 l -0.784,3.132 3.738,2.04 c 9.819,-31.827 23.907,-49.958 57.433,-57.887 l 5.936,-1.406 z"
         style="fill:#526926;fill-opacity:1;fill-rule:evenodd;stroke:none"
         transform="matrix(1.3333333,0,0,-1.3333333,174.83853,512.83067)"
         clip-path="url(#clipPath52)" />
      <path
         id="path53"
         d="M 0,0 15.833,5.767 C 51.39,18.714 76.049,46.091 85.227,82.801 l 0.947,3.783 -4.515,2.463 C 69.8,50.61 52.787,28.714 12.297,19.136 L 5.128,17.441 Z"
         style="fill:#526926;fill-opacity:1;fill-rule:evenodd;stroke:none"
         transform="matrix(1.3333333,0,0,-1.3333333,177.20253,586.00787)"
         clip-path="url(#clipPath54)" />
      <path
         id="path55"
         d="m 0,0 c 16.907,-1.086 30.611,-7.145 30.611,-13.531 0,-1.113 -0.416,-2.161 -1.192,-3.13 12.879,-2.125 22.537,-8.127 22.537,-14.571 0,-3.619 -3.046,-6.706 -7.996,-8.802 6.56,1.274 14.526,1.756 23.116,1.204 22.425,-1.441 40.605,-9.379 40.605,-17.728 0,-8.352 -18.18,-13.953 -40.605,-12.512 -14.596,0.938 -27.39,4.627 -34.547,9.393 -4.985,-0.785 -10.765,-1.044 -16.929,-0.649 -13.938,0.895 -25.913,4.896 -31.154,9.855 -3.431,-0.454 -7.339,-0.587 -11.49,-0.319 -13.604,0.873 -24.634,5.69 -24.634,10.756 0,2.554 2.804,4.684 7.326,6.057 -11.165,3.351 -18.681,8.768 -18.681,14.422 0,7.91 14.719,13.469 33.559,13.018 C -25.858,-1.905 -14.031,0.902 0,0"
         style="fill:#526926;fill-opacity:1;fill-rule:evenodd;stroke:none"
         transform="matrix(1.3333333,0,0,-1.3333333,182.18293,339.1224)"
         clip-path="url(#clipPath56)" />
      <path
         id="path57"
         d="m 0,0 c 7.646,-0.558 13.846,-3.975 13.846,-7.635 0,-3.661 -6.2,-6.174 -13.846,-5.615 -2.805,0.205 -5.414,0.794 -7.595,1.641 -3.732,-1.247 -8.699,-1.812 -14.151,-1.413 -4.548,0.332 -8.758,1.284 -12.195,2.629 -2.153,-1.7 -6.081,-2.656 -10.571,-2.327 -6.802,0.496 -12.317,3.751 -12.317,7.27 0,1.416 0.895,2.66 2.408,3.609 -4.594,1.563 -7.675,4.045 -7.675,6.628 0,1.191 0.654,2.264 1.808,3.163 -4.827,1.251 -8.094,3.216 -8.094,5.198 0,2.908 7.036,4.752 15.715,4.118 2.081,-0.152 4.066,-0.432 5.884,-0.811 2.824,0.672 6.348,0.938 10.171,0.659 9.289,-0.678 16.82,-4.308 16.82,-8.107 0,-1.274 -0.845,-2.402 -2.315,-3.316 l 0.361,-0.026 C -14.274,5.12 -7.716,2.902 -3.999,0.012 -2.732,0.102 -1.391,0.102 0,0"
         style="fill:#526926;fill-opacity:1;fill-rule:evenodd;stroke:none"
         transform="matrix(1.3333333,0,0,-1.3333333,334.93093,473.8412)"
         clip-path="url(#clipPath58)" />
      <path
         id="path59"
         d="m 0,0 c 10.556,-0.622 19.112,-4.052 19.112,-7.666 0,-0.904 -0.536,-1.734 -1.506,-2.459 0.908,0.002 1.836,-0.022 2.781,-0.079 10.462,-0.613 18.943,-4.688 18.943,-9.098 0,-4.411 -8.481,-7.486 -18.943,-6.871 -1.075,0.062 -2.128,0.163 -3.154,0.297 0.017,-0.173 0.027,-0.349 0.027,-0.525 0,-4.635 -6.051,-8.038 -13.514,-7.599 -7.465,0.44 -13.515,4.554 -13.515,9.19 0,1.262 0.448,2.431 1.25,3.456 -8.962,0.947 -15.86,3.942 -15.86,7.073 0,1.056 0.786,2.007 2.172,2.795 -6.309,0.739 -11.007,2.425 -11.007,4.108 0,1.96 6.367,3.173 14.231,2.718 C -17.876,-1.473 -9.8,0.577 0,0"
         style="fill:#526926;fill-opacity:1;fill-rule:evenodd;stroke:none"
         transform="matrix(1.3333333,0,0,-1.3333333,81.225867,414.29227)"
         clip-path="url(#clipPath60)" />
      <path
         id="path61"
         d="M 0,0 437.905,-185.128 H 0 Z"
         style="fill:#526926;fill-opacity:1;fill-rule:evenodd;stroke:none"
         transform="matrix(1.3333333,0,0,-1.3333333,0.25786667,634.83467)"
         clip-path="url(#clipPath62)" />
      <path
         id="path63"
         d="M 0,0 C 1.26,-0.135 2.468,-0.558 3.586,-1.212 6.216,9.397 13.972,16.453 23.133,15.465 27.259,15.02 31.102,13 34.317,9.894 c 3.487,2.393 7.575,3.545 11.946,3.074 8.341,-0.902 15.649,-7.493 19.718,-16.633 4.422,7.081 11.369,11.203 19.183,10.359 8.846,-0.955 16.579,-8.032 20.795,-17.801 2.972,2.094 6.471,3.112 10.222,2.708 3.543,-0.383 6.865,-1.988 9.726,-4.473 2.415,1.769 5.286,2.636 8.365,2.303 3.305,-0.357 6.37,-2.044 8.889,-4.626 3.412,6.149 9.127,9.805 15.601,9.106 10.111,-1.093 18.372,-12.407 18.899,-25.58 l 33.671,-6.003 -255.49,27.587 33.694,-1.269 C -9.953,-4.403 -5.463,0.591 0,0"
         style="fill:#ffffff;fill-opacity:1;fill-rule:evenodd;stroke:none"
         transform="matrix(1.3333333,0,0,-1.3333333,334.93093,34.471333)"
         clip-path="url(#clipPath64)" />
      <path
         id="path65"
         d="m 0,0 -38.672,7.28 c -1.448,12.492 -10.491,23.113 -21.434,24.49 -6.105,0.767 -11.619,-1.493 -15.553,-5.747 -3.207,4.075 -7.602,6.892 -12.447,7.501 -0.97,0.122 -1.921,0.15 -2.849,0.092 -4.056,6.855 -10.534,11.778 -17.836,12.697 -6.441,0.809 -12.241,-1.659 -16.303,-6.257 -4.97,6.203 -11.721,10.483 -19.16,11.419 -10.271,1.291 -19.235,-4.121 -24.001,-13.229 -4.849,7.529 -12.221,12.873 -20.476,13.911 -7.143,0.898 -13.624,-1.594 -18.382,-6.368 -2.515,1.392 -5.23,2.321 -8.064,2.678 -7.843,0.986 -14.784,-2.638 -19.041,-9.007 -2.041,2.124 -4.613,3.56 -7.406,3.912 -5.61,0.706 -10.323,-3.189 -11.649,-9.091 l -38.84,2.46 z"
         style="fill:#ffffff;fill-opacity:1;fill-rule:evenodd;stroke:none"
         transform="matrix(1.3333333,0,0,-1.3333333,831.5872,192.76307)"
         clip-path="url(#clipPath66)" />
      <path
         id="path67"
         d="m 0,0 c 0.839,-0.09 1.644,-0.372 2.389,-0.807 1.753,7.069 6.92,11.771 13.024,11.111 2.75,-0.296 5.31,-1.642 7.453,-3.711 2.324,1.594 5.047,2.362 7.959,2.048 C 36.382,8.04 41.252,3.648 43.964,-2.442 46.91,2.276 51.538,5.022 56.745,4.46 62.64,3.824 67.793,-0.891 70.602,-7.401 c 1.979,1.396 4.312,2.074 6.81,1.804 2.361,-0.255 4.574,-1.324 6.481,-2.979 1.609,1.178 3.522,1.755 5.574,1.534 2.202,-0.238 4.243,-1.362 5.923,-3.083 2.273,4.097 6.081,6.534 10.395,6.068 6.737,-0.728 12.241,-8.267 12.592,-17.045 l 22.436,-3.999 -170.236,18.382 22.45,-0.846 C -6.632,-2.934 -3.64,0.394 0,0"
         style="fill:#ffffff;fill-opacity:1;fill-rule:evenodd;stroke:none"
         transform="matrix(1.3333333,0,0,-1.3333333,74.391333,258.8164)"
         clip-path="url(#clipPath68)" />
    </g>
  </g>
</svg>
