<?xml version="1.0" encoding="UTF-8" standalone="no"?>
<!-- Created with Inkscape (http://www.inkscape.org/) -->

<svg
   version="1.1"
   id="svg1"
   width="880"
   height="880"
   viewBox="0 0 880 880"
   sodipodi:docname="mountainous-green-landscape.svg"
   inkscape:version="1.3.2 (091e20e, 2023-11-25, custom)"
   xmlns:inkscape="http://www.inkscape.org/namespaces/inkscape"
   xmlns:sodipodi="http://sodipodi.sourceforge.net/DTD/sodipodi-0.dtd"
   xmlns="http://www.w3.org/2000/svg"
   xmlns:svg="http://www.w3.org/2000/svg">
  <defs
     id="defs1">
    <clipPath
       clipPathUnits="userSpaceOnUse"
       id="clipPath4">
      <path
         d="M 0,660 H 660 V 0 H 0 Z"
         transform="translate(-658.66991,-601.92431)"
         id="path4" />
    </clipPath>
    <clipPath
       clipPathUnits="userSpaceOnUse"
       id="clipPath6">
      <path
         d="M 0,660 H 660 V 0 H 0 Z"
         transform="translate(-658.66991,-474.59521)"
         id="path6" />
    </clipPath>
    <clipPath
       clipPathUnits="userSpaceOnUse"
       id="clipPath8">
      <path
         d="M 0,660 H 660 V 0 H 0 Z"
         transform="translate(-658.66991,-435.51071)"
         id="path8" />
    </clipPath>
    <clipPath
       clipPathUnits="userSpaceOnUse"
       id="clipPath10">
      <path
         d="M 0,660 H 660 V 0 H 0 Z"
         transform="translate(-110.89401,-300.48051)"
         id="path10" />
    </clipPath>
    <clipPath
       clipPathUnits="userSpaceOnUse"
       id="clipPath12">
      <path
         d="M 0,660 H 660 V 0 H 0 Z"
         transform="translate(-150.7891,-279.50001)"
         id="path12" />
    </clipPath>
    <clipPath
       clipPathUnits="userSpaceOnUse"
       id="clipPath14">
      <path
         d="M 0,660 H 660 V 0 H 0 Z"
         transform="translate(-244.32711,-280.8154)"
         id="path14" />
    </clipPath>
    <clipPath
       clipPathUnits="userSpaceOnUse"
       id="clipPath16">
      <path
         d="M 0,660 H 660 V 0 H 0 Z"
         transform="translate(-272.32671,-324.08111)"
         id="path16" />
    </clipPath>
    <clipPath
       clipPathUnits="userSpaceOnUse"
       id="clipPath18">
      <path
         d="M 0,660 H 660 V 0 H 0 Z"
         transform="translate(-386.56841,-380.17771)"
         id="path18" />
    </clipPath>
    <clipPath
       clipPathUnits="userSpaceOnUse"
       id="clipPath20">
      <path
         d="M 0,660 H 660 V 0 H 0 Z"
         transform="translate(-412.61131,-400.05271)"
         id="path20" />
    </clipPath>
    <clipPath
       clipPathUnits="userSpaceOnUse"
       id="clipPath22">
      <path
         d="M 0,660 H 660 V 0 H 0 Z"
         transform="translate(-459.36521,-398.89211)"
         id="path22" />
    </clipPath>
    <clipPath
       clipPathUnits="userSpaceOnUse"
       id="clipPath24">
      <path
         d="M 0,660 H 660 V 0 H 0 Z"
         transform="translate(-577.52731,-407.90141)"
         id="path24" />
    </clipPath>
    <clipPath
       clipPathUnits="userSpaceOnUse"
       id="clipPath26">
      <path
         d="M 0,660 H 660 V 0 H 0 Z"
         transform="translate(-604.33402,-427.88571)"
         id="path26" />
    </clipPath>
    <clipPath
       clipPathUnits="userSpaceOnUse"
       id="clipPath28">
      <path
         d="M 0,660 H 660 V 0 H 0 Z"
         id="path28" />
    </clipPath>
    <clipPath
       clipPathUnits="userSpaceOnUse"
       id="clipPath30">
      <path
         d="M 0,660 H 660 V 0 H 0 Z"
         id="path30" />
    </clipPath>
    <clipPath
       clipPathUnits="userSpaceOnUse"
       id="clipPath32">
      <path
         d="M 0,660 H 660 V 0 H 0 Z"
         transform="translate(-658.66991,-274.80181)"
         id="path32" />
    </clipPath>
    <clipPath
       clipPathUnits="userSpaceOnUse"
       id="clipPath34">
      <path
         d="M 0,660 H 660 V 0 H 0 Z"
         transform="translate(-383.53911,-241.00881)"
         id="path34" />
    </clipPath>
    <clipPath
       clipPathUnits="userSpaceOnUse"
       id="clipPath36">
      <path
         d="M 0,660 H 660 V 0 H 0 Z"
         transform="translate(-311.61621,-323.24221)"
         id="path36" />
    </clipPath>
    <clipPath
       clipPathUnits="userSpaceOnUse"
       id="clipPath38">
      <path
         d="M 0,660 H 660 V 0 H 0 Z"
         transform="translate(-42.833501,-384.70171)"
         id="path38" />
    </clipPath>
    <clipPath
       clipPathUnits="userSpaceOnUse"
       id="clipPath40">
      <path
         d="M 0,660 H 660 V 0 H 0 Z"
         transform="translate(-134.5776,-510.54982)"
         id="path40" />
    </clipPath>
  </defs>
  <sodipodi:namedview
     id="namedview1"
     pagecolor="#ffffff"
     bordercolor="#000000"
     borderopacity="0.25"
     inkscape:showpageshadow="2"
     inkscape:pageopacity="0.0"
     inkscape:pagecheckerboard="0"
     inkscape:deskcolor="#d1d1d1"
     inkscape:zoom="0.67272727"
     inkscape:cx="439.25676"
     inkscape:cy="440"
     inkscape:window-width="1440"
     inkscape:window-height="830"
     inkscape:window-x="-6"
     inkscape:window-y="-6"
     inkscape:window-maximized="1"
     inkscape:current-layer="g1">
    <inkscape:page
       x="0"
       y="0"
       inkscape:label="1"
       id="page1"
       width="880"
       height="880"
       margin="0 1.7733333 1.772 0"
       bleed="0" />
  </sodipodi:namedview>
  <g
     id="g1"
     inkscape:groupmode="layer"
     inkscape:label="1">
    <g
       id="group-MC0">
      <path
         id="path2"
         d="M 0,0 H 658.669 V 658.671 H 0 Z"
         style="fill:#d5eaf9;fill-opacity:1;fill-rule:nonzero;stroke:none"
         transform="matrix(1.3333333,0,0,-1.3333333,0,880)" />
      <path
         id="path3"
         d="m 0,0 v -214.372 c -4.758,-1.002 -9.689,-1.534 -14.746,-1.534 -23.447,0 -44.242,11.341 -57.207,28.835 -16.164,-18.279 -39.787,-29.809 -66.109,-29.809 -8.323,0 -16.377,1.155 -24.01,3.309 -2.067,-33.937 -30.24,-60.824 -64.699,-60.824 -27.002,0 -50.147,16.513 -59.895,39.991 -7.178,-3.147 -15.109,-4.898 -23.453,-4.898 -17.428,0 -33.071,7.626 -43.787,19.719 -1.222,-1.041 -2.482,-2.039 -3.779,-2.992 6.038,-9.305 9.548,-20.403 9.548,-32.324 0,-30.303 -22.667,-55.311 -51.972,-58.996 -5.87,-28.642 -31.216,-50.183 -61.595,-50.183 -25.439,0 -47.348,15.108 -57.248,36.841 -6.785,-2.41 -14.087,-3.724 -21.699,-3.724 -2.815,0 -5.588,0.178 -8.307,0.526 -10.992,-35.306 -43.929,-60.939 -82.852,-60.939 -9.377,0 -18.401,1.495 -26.86,4.246 v 337.467 c 25.384,-9.621 43.431,-34.158 43.431,-62.913 0,-10.342 -2.337,-20.138 -6.507,-28.892 12.528,-6.919 21.907,-18.84 25.442,-33.069 4.6,1.616 9.545,2.496 14.697,2.496 10.633,0 20.391,-3.744 28.03,-9.983 11.204,22.664 34.553,38.254 61.545,38.254 11.271,0 21.909,-2.72 31.289,-7.536 7.782,27.96 33.426,48.478 63.865,48.478 22.78,0 42.873,-11.492 54.806,-28.993 9.185,6.004 20.162,9.496 31.953,9.496 22.271,0 41.635,-12.449 51.516,-30.767 9.402,5.312 20.261,8.346 31.832,8.346 0.656,0 1.31,-0.013 1.962,-0.032 -0.964,5.226 -1.474,10.612 -1.474,16.117 0,48.724 39.498,88.222 88.221,88.222 20.285,0 38.97,-6.85 53.871,-18.359 4.955,34.09 34.298,60.276 69.763,60.276 C -9.482,1.48 -4.658,0.969 0,0"
         style="fill:#ffffff;fill-opacity:1;fill-rule:evenodd;stroke:none"
         transform="matrix(1.3333333,0,0,-1.3333333,878.22653,77.434267)"
         clip-path="url(#clipPath4)" />
      <path
         id="path5"
         d="m 0,0 v -307.329 l -161.945,-79.543 -496.725,-1.827 v 188.255 l 14.344,27.63 c 13.431,25.871 36.429,42.185 65.286,46.31 22.14,3.164 42.98,-1.526 60.577,-13.399 22.151,-14.944 47.236,-18.884 72.901,-11.45 25.665,7.435 44.76,24.17 55.496,48.639 l 4.208,9.592 c 13.442,30.636 37.63,51.464 69.921,60.208 32.205,8.72 63.515,2.997 90.527,-16.542 19.246,-13.922 40.779,-19.032 64.228,-15.239 23.45,3.793 42.276,15.429 56.153,34.709 C -88.041,-6.382 -62.742,6.511 -33.48,6.419 -21.549,6.383 -10.291,4.19 0,0"
         style="fill:#dbec65;fill-opacity:1;fill-rule:evenodd;stroke:none"
         transform="matrix(1.3333333,0,0,-1.3333333,878.22653,247.2064)"
         clip-path="url(#clipPath6)" />
      <path
         id="path7"
         d="m 0,0 v -234.196 l -161.945,-73.748 -496.725,-41.67 v 143.458 l 14.344,22.22 c 13.431,20.803 36.429,35.098 65.286,40.582 22.14,4.208 42.98,2.323 60.577,-5.298 22.151,-9.591 47.236,-10.561 72.901,-2.815 25.665,7.746 44.76,22.048 55.496,41.566 l 4.208,7.65 c 13.442,24.436 37.63,42.27 69.921,51.551 32.205,9.257 63.515,7.435 90.527,-5.265 19.246,-9.049 40.779,-11.196 64.228,-6.405 23.45,4.792 42.276,15.186 56.153,31.003 16.988,19.364 42.287,31.242 71.549,33.545 C -21.549,3.117 -10.291,2.358 0,0"
         style="fill:#c6e446;fill-opacity:1;fill-rule:evenodd;stroke:none"
         transform="matrix(1.3333333,0,0,-1.3333333,878.22653,299.31907)"
         clip-path="url(#clipPath8)" />
      <path
         id="path9"
         d="m 0,0 15.095,-65.923 15.096,-65.923 H 0 -30.192 l 15.096,65.923 z"
         style="fill:#638329;fill-opacity:1;fill-rule:evenodd;stroke:none"
         transform="matrix(1.3333333,0,0,-1.3333333,147.85867,479.35933)"
         clip-path="url(#clipPath10)" />
      <path
         id="path11"
         d="m 0,0 12.266,-53.563 12.265,-53.565 H 0 -24.532 l 12.267,53.565 z"
         style="fill:#638329;fill-opacity:1;fill-rule:evenodd;stroke:none"
         transform="matrix(1.3333333,0,0,-1.3333333,201.05213,507.33333)"
         clip-path="url(#clipPath12)" />
      <path
         id="path13"
         d="M 0,0 10.337,-45.14 20.674,-90.282 H 0 -20.674 l 10.337,45.142 z"
         style="fill:#638329;fill-opacity:1;fill-rule:evenodd;stroke:none"
         transform="matrix(1.3333333,0,0,-1.3333333,325.76947,505.57947)"
         clip-path="url(#clipPath14)" />
      <path
         id="path15"
         d="m 0,0 13.983,-61.058 13.981,-61.06 H 0 -27.964 l 13.982,61.06 z"
         style="fill:#638329;fill-opacity:1;fill-rule:evenodd;stroke:none"
         transform="matrix(1.3333333,0,0,-1.3333333,363.10227,447.89187)"
         clip-path="url(#clipPath16)" />
      <path
         id="path17"
         d="m 0,0 13.982,-61.058 13.983,-61.06 H 0 -27.965 l 13.982,61.06 z"
         style="fill:#638329;fill-opacity:1;fill-rule:evenodd;stroke:none"
         transform="matrix(1.3333333,0,0,-1.3333333,515.42453,373.0964)"
         clip-path="url(#clipPath18)" />
      <path
         id="path19"
         d="m 0,0 13.98,-61.059 13.985,-61.058 H 0 -27.965 l 13.985,61.058 z"
         style="fill:#638329;fill-opacity:1;fill-rule:evenodd;stroke:none"
         transform="matrix(1.3333333,0,0,-1.3333333,550.1484,346.5964)"
         clip-path="url(#clipPath20)" />
      <path
         id="path21"
         d="m 0,0 13.983,-61.06 13.982,-61.058 H 0 -27.963 l 13.983,61.058 z"
         style="fill:#638329;fill-opacity:1;fill-rule:evenodd;stroke:none"
         transform="matrix(1.3333333,0,0,-1.3333333,612.48693,348.14387)"
         clip-path="url(#clipPath22)" />
      <path
         id="path23"
         d="m 0,0 12.266,-53.564 12.265,-53.564 H 0 -24.531 l 12.265,53.564 z"
         style="fill:#638329;fill-opacity:1;fill-rule:evenodd;stroke:none"
         transform="matrix(1.3333333,0,0,-1.3333333,770.0364,336.13147)"
         clip-path="url(#clipPath24)" />
      <path
         id="path25"
         d="m 0,0 12.268,-53.564 12.263,-53.565 H 0 -24.529 l 12.265,53.565 z"
         style="fill:#638329;fill-opacity:1;fill-rule:evenodd;stroke:none"
         transform="matrix(1.3333333,0,0,-1.3333333,805.77867,309.48573)"
         clip-path="url(#clipPath26)" />
      <path
         id="path27"
         d="M 0,0 V 203.583 C 313.141,105.125 349.43,383.926 658.67,329.335 V 0 Z"
         style="fill:#9ac421;fill-opacity:1;fill-rule:evenodd;stroke:none"
         transform="matrix(1.3333333,0,0,-1.3333333,0,880)"
         clip-path="url(#clipPath28)" />
      <path
         id="path29"
         d="M 0,0 V 191.521 C 313.141,98.898 349.43,361.18 658.67,309.825 V 0 Z"
         style="fill:#87b027;fill-opacity:1;fill-rule:evenodd;stroke:none"
         transform="matrix(1.3333333,0,0,-1.3333333,0,880)"
         clip-path="url(#clipPath30)" />
      <path
         id="path31"
         d="m 0,0 v -274.802 h -511.361 c 0.905,22.863 26.345,40.914 110.582,40.933 377.76,0.081 318.422,125.635 270.529,123.802 C -261.236,-115.074 -165.639,6.966 -78.195,6.356 -50.824,6.164 -24.746,3.71 0,0"
         style="fill:#638329;fill-opacity:1;fill-rule:evenodd;stroke:none"
         transform="matrix(1.3333333,0,0,-1.3333333,878.22653,513.5976)"
         clip-path="url(#clipPath32)" />
      <path
         id="path33"
         d="m 0,0 24.861,-119.842 24.86,-119.843 H 0 -49.719 l 24.86,119.843 z"
         style="fill:#42511f;fill-opacity:1;fill-rule:evenodd;stroke:none"
         transform="matrix(1.3333333,0,0,-1.3333333,511.38547,558.65493)"
         clip-path="url(#clipPath34)" />
      <path
         id="path35"
         d="M 0,0 33.526,-161.621 67.054,-323.242 H 0 -67.053 l 33.526,161.621 z"
         style="fill:#42511f;fill-opacity:1;fill-rule:evenodd;stroke:none"
         transform="matrix(1.3333333,0,0,-1.3333333,415.48827,449.0104)"
         clip-path="url(#clipPath36)" />
      <path
         id="path37"
         d="M 0,0 39.901,-192.35 79.803,-384.702 H 0 -42.833 v 178.213 l 2.933,14.139 z"
         style="fill:#42511f;fill-opacity:1;fill-rule:evenodd;stroke:none"
         transform="matrix(1.3333333,0,0,-1.3333333,57.111333,367.0644)"
         clip-path="url(#clipPath38)" />
      <path
         id="path39"
         d="m 0,0 c 33.021,0 59.952,26.931 59.952,59.951 0,33.02 -26.931,59.951 -59.952,59.951 -33.019,0 -59.951,-26.931 -59.951,-59.951 C -59.951,26.931 -33.019,0 0,0"
         style="fill:#f9de1c;fill-opacity:1;fill-rule:evenodd;stroke:none"
         transform="matrix(1.3333333,0,0,-1.3333333,179.4368,199.26693)"
         clip-path="url(#clipPath40)" />
    </g>
  </g>
</svg>
