<?xml version="1.0" encoding="UTF-8" standalone="no"?>
<!-- Created with Inkscape (http://www.inkscape.org/) -->

<svg
   version="1.1"
   id="svg1"
   width="880"
   height="880"
   viewBox="0 0 880 880"
   sodipodi:docname="office-in-downtown.svg"
   inkscape:version="1.3.2 (091e20e, 2023-11-25, custom)"
   xmlns:inkscape="http://www.inkscape.org/namespaces/inkscape"
   xmlns:sodipodi="http://sodipodi.sourceforge.net/DTD/sodipodi-0.dtd"
   xmlns="http://www.w3.org/2000/svg"
   xmlns:svg="http://www.w3.org/2000/svg">
  <defs
     id="defs1">
    <clipPath
       clipPathUnits="userSpaceOnUse"
       id="clipPath10">
      <path
         d="M 0,660 H 660 V 0 H 0 Z"
         transform="translate(-433.56351,-336.98441)"
         id="path10" />
    </clipPath>
    <clipPath
       clipPathUnits="userSpaceOnUse"
       id="clipPath12">
      <path
         d="M 0,660 H 660 V 0 H 0 Z"
         transform="translate(-395.79881,-313.97951)"
         id="path12" />
    </clipPath>
    <clipPath
       clipPathUnits="userSpaceOnUse"
       id="clipPath14">
      <path
         d="M 0,660 H 660 V 0 H 0 Z"
         transform="translate(-433.56351,-289.8877)"
         id="path14" />
    </clipPath>
    <clipPath
       clipPathUnits="userSpaceOnUse"
       id="clipPath16">
      <path
         d="M 0,660 H 660 V 0 H 0 Z"
         transform="translate(-395.79881,-266.8828)"
         id="path16" />
    </clipPath>
    <clipPath
       clipPathUnits="userSpaceOnUse"
       id="clipPath18">
      <path
         d="M 0,660 H 660 V 0 H 0 Z"
         transform="translate(-433.56351,-242.78811)"
         id="path18" />
    </clipPath>
    <clipPath
       clipPathUnits="userSpaceOnUse"
       id="clipPath20">
      <path
         d="M 0,660 H 660 V 0 H 0 Z"
         transform="translate(-395.79881,-219.78321)"
         id="path20" />
    </clipPath>
    <clipPath
       clipPathUnits="userSpaceOnUse"
       id="clipPath22">
      <path
         d="M 0,660 H 660 V 0 H 0 Z"
         transform="translate(-414.68161,-231.28711)"
         id="path22" />
    </clipPath>
    <clipPath
       clipPathUnits="userSpaceOnUse"
       id="clipPath24">
      <path
         d="M 0,660 H 660 V 0 H 0 Z"
         transform="translate(-452.44531,-395.58591)"
         id="path24" />
    </clipPath>
    <clipPath
       clipPathUnits="userSpaceOnUse"
       id="clipPath26">
      <path
         d="M 0,660 H 660 V 0 H 0 Z"
         transform="translate(-395.79881,-361.07961)"
         id="path26" />
    </clipPath>
    <clipPath
       clipPathUnits="userSpaceOnUse"
       id="clipPath28">
      <path
         d="M 0,660 H 660 V 0 H 0 Z"
         transform="translate(-414.68161,-372.58111)"
         id="path28" />
    </clipPath>
    <clipPath
       clipPathUnits="userSpaceOnUse"
       id="clipPath30">
      <path
         d="M 0,660 H 660 V 0 H 0 Z"
         transform="translate(-298.3525,-384.62401)"
         id="path30" />
    </clipPath>
    <clipPath
       clipPathUnits="userSpaceOnUse"
       id="clipPath32">
      <path
         d="M 0,660 H 660 V 0 H 0 Z"
         transform="translate(-298.3525,-337.52731)"
         id="path32" />
    </clipPath>
    <clipPath
       clipPathUnits="userSpaceOnUse"
       id="clipPath34">
      <path
         d="M 0,660 H 660 V 0 H 0 Z"
         transform="translate(-317.23491,-301.92971)"
         id="path34" />
    </clipPath>
    <clipPath
       clipPathUnits="userSpaceOnUse"
       id="clipPath36">
      <path
         d="M 0,660 H 660 V 0 H 0 Z"
         transform="translate(-298.3525,-243.32911)"
         id="path36" />
    </clipPath>
    <clipPath
       clipPathUnits="userSpaceOnUse"
       id="clipPath38">
      <path
         d="M 0,660 H 660 V 0 H 0 Z"
         transform="translate(-317.23491,-254.83111)"
         id="path38" />
    </clipPath>
    <clipPath
       clipPathUnits="userSpaceOnUse"
       id="clipPath40">
      <path
         d="M 0,660 H 660 V 0 H 0 Z"
         transform="translate(-298.3525,-431.72311)"
         id="path40" />
    </clipPath>
    <clipPath
       clipPathUnits="userSpaceOnUse"
       id="clipPath42">
      <path
         d="M 0,660 H 660 V 0 H 0 Z"
         transform="translate(-317.23491,-443.22461)"
         id="path42" />
    </clipPath>
    <clipPath
       clipPathUnits="userSpaceOnUse"
       id="clipPath44">
      <path
         d="M 0,660 H 660 V 0 H 0 Z"
         transform="translate(-604.33402,-462.97711)"
         id="path44" />
    </clipPath>
    <clipPath
       clipPathUnits="userSpaceOnUse"
       id="clipPath46">
      <path
         d="M 0,660 H 660 V 0 H 0 Z"
         transform="translate(-522.99121,-413.42681)"
         id="path46" />
    </clipPath>
    <clipPath
       clipPathUnits="userSpaceOnUse"
       id="clipPath48">
      <path
         d="M 0,660 H 660 V 0 H 0 Z"
         transform="translate(-577.21882,-378.82861)"
         id="path48" />
    </clipPath>
    <clipPath
       clipPathUnits="userSpaceOnUse"
       id="clipPath50">
      <path
         d="M 0,660 H 660 V 0 H 0 Z"
         transform="translate(-604.33402,-395.34571)"
         id="path50" />
    </clipPath>
    <clipPath
       clipPathUnits="userSpaceOnUse"
       id="clipPath52">
      <path
         d="M 0,660 H 660 V 0 H 0 Z"
         transform="translate(-522.99121,-345.79541)"
         id="path52" />
    </clipPath>
    <clipPath
       clipPathUnits="userSpaceOnUse"
       id="clipPath54">
      <path
         d="M 0,660 H 660 V 0 H 0 Z"
         transform="translate(-550.10452,-362.31201)"
         id="path54" />
    </clipPath>
    <clipPath
       clipPathUnits="userSpaceOnUse"
       id="clipPath56">
      <path
         d="M 0,660 H 660 V 0 H 0 Z"
         transform="translate(-604.33402,-327.71291)"
         id="path56" />
    </clipPath>
    <clipPath
       clipPathUnits="userSpaceOnUse"
       id="clipPath58">
      <path
         d="M 0,660 H 660 V 0 H 0 Z"
         transform="translate(-522.99121,-278.16211)"
         id="path58" />
    </clipPath>
    <clipPath
       clipPathUnits="userSpaceOnUse"
       id="clipPath60">
      <path
         d="M 0,660 H 660 V 0 H 0 Z"
         transform="translate(-550.10452,-294.67971)"
         id="path60" />
    </clipPath>
    <clipPath
       clipPathUnits="userSpaceOnUse"
       id="clipPath62">
      <path
         d="M 0,660 H 660 V 0 H 0 Z"
         transform="translate(-577.21882,-243.56641)"
         id="path62" />
    </clipPath>
    <clipPath
       clipPathUnits="userSpaceOnUse"
       id="clipPath64">
      <path
         d="M 0,660 H 660 V 0 H 0 Z"
         transform="translate(-604.33402,-260.08201)"
         id="path64" />
    </clipPath>
    <clipPath
       clipPathUnits="userSpaceOnUse"
       id="clipPath66">
      <path
         d="M 0,660 H 660 V 0 H 0 Z"
         transform="translate(-522.99121,-210.53221)"
         id="path66" />
    </clipPath>
    <clipPath
       clipPathUnits="userSpaceOnUse"
       id="clipPath68">
      <path
         d="M 0,660 H 660 V 0 H 0 Z"
         transform="translate(-604.33402,-192.4521)"
         id="path68" />
    </clipPath>
    <clipPath
       clipPathUnits="userSpaceOnUse"
       id="clipPath70">
      <path
         d="M 0,660 H 660 V 0 H 0 Z"
         transform="translate(-577.21882,-514.09132)"
         id="path70" />
    </clipPath>
    <clipPath
       clipPathUnits="userSpaceOnUse"
       id="clipPath72">
      <path
         d="M 0,660 H 660 V 0 H 0 Z"
         transform="translate(-604.33402,-530.60842)"
         id="path72" />
    </clipPath>
    <clipPath
       clipPathUnits="userSpaceOnUse"
       id="clipPath74">
      <path
         d="M 0,660 H 660 V 0 H 0 Z"
         transform="translate(-550.10452,-429.94341)"
         id="path74" />
    </clipPath>
    <clipPath
       clipPathUnits="userSpaceOnUse"
       id="clipPath76">
      <path
         d="M 0,660 H 660 V 0 H 0 Z"
         transform="translate(-395.79881,-313.97951)"
         id="path76" />
    </clipPath>
    <clipPath
       clipPathUnits="userSpaceOnUse"
       id="clipPath78">
      <path
         d="M 0,660 H 660 V 0 H 0 Z"
         transform="translate(-395.79881,-361.07961)"
         id="path78" />
    </clipPath>
    <clipPath
       clipPathUnits="userSpaceOnUse"
       id="clipPath80">
      <path
         d="M 0,660 H 660 V 0 H 0 Z"
         transform="translate(-414.68161,-372.58111)"
         id="path80" />
    </clipPath>
    <clipPath
       clipPathUnits="userSpaceOnUse"
       id="clipPath82">
      <path
         d="M 0,660 H 660 V 0 H 0 Z"
         transform="translate(-298.3525,-337.52731)"
         id="path82" />
    </clipPath>
    <clipPath
       clipPathUnits="userSpaceOnUse"
       id="clipPath84">
      <path
         d="M 0,660 H 660 V 0 H 0 Z"
         transform="translate(-317.23491,-301.92971)"
         id="path84" />
    </clipPath>
    <clipPath
       clipPathUnits="userSpaceOnUse"
       id="clipPath86">
      <path
         d="M 0,660 H 660 V 0 H 0 Z"
         transform="translate(-298.3525,-243.32911)"
         id="path86" />
    </clipPath>
    <clipPath
       clipPathUnits="userSpaceOnUse"
       id="clipPath88">
      <path
         d="M 0,660 H 660 V 0 H 0 Z"
         transform="translate(-317.23491,-254.83111)"
         id="path88" />
    </clipPath>
    <clipPath
       clipPathUnits="userSpaceOnUse"
       id="clipPath90">
      <path
         d="M 0,660 H 660 V 0 H 0 Z"
         transform="translate(-604.33402,-462.97711)"
         id="path90" />
    </clipPath>
    <clipPath
       clipPathUnits="userSpaceOnUse"
       id="clipPath92">
      <path
         d="M 0,660 H 660 V 0 H 0 Z"
         transform="translate(-522.99121,-345.79541)"
         id="path92" />
    </clipPath>
    <clipPath
       clipPathUnits="userSpaceOnUse"
       id="clipPath94">
      <path
         d="M 0,660 H 660 V 0 H 0 Z"
         transform="translate(-550.10452,-362.31201)"
         id="path94" />
    </clipPath>
    <clipPath
       clipPathUnits="userSpaceOnUse"
       id="clipPath96">
      <path
         d="M 0,660 H 660 V 0 H 0 Z"
         transform="translate(-584.42092,-485.44381)"
         id="path96" />
    </clipPath>
    <clipPath
       clipPathUnits="userSpaceOnUse"
       id="clipPath98">
      <path
         d="M 0,660 H 660 V 0 H 0 Z"
         transform="translate(-576.85741,-472.44141)"
         id="path98" />
    </clipPath>
    <clipPath
       clipPathUnits="userSpaceOnUse"
       id="clipPath100">
      <path
         d="M 0,660 H 660 V 0 H 0 Z"
         transform="translate(-530.19341,-392.23781)"
         id="path100" />
    </clipPath>
    <clipPath
       clipPathUnits="userSpaceOnUse"
       id="clipPath102">
      <path
         d="M 0,660 H 660 V 0 H 0 Z"
         transform="translate(-516.09181,-368.00391)"
         id="path102" />
    </clipPath>
    <clipPath
       clipPathUnits="userSpaceOnUse"
       id="clipPath104">
      <path
         d="M 0,660 H 660 V 0 H 0 Z"
         transform="translate(-422.85251,-207.7432)"
         id="path104" />
    </clipPath>
    <clipPath
       clipPathUnits="userSpaceOnUse"
       id="clipPath106">
      <path
         d="M 0,660 H 660 V 0 H 0 Z"
         transform="translate(-522.99121,-257.7715)"
         id="path106" />
    </clipPath>
    <clipPath
       clipPathUnits="userSpaceOnUse"
       id="clipPath108">
      <path
         d="M 0,660 H 660 V 0 H 0 Z"
         transform="translate(-541.61231,-289.77541)"
         id="path108" />
    </clipPath>
    <clipPath
       clipPathUnits="userSpaceOnUse"
       id="clipPath110">
      <path
         d="M 0,660 H 660 V 0 H 0 Z"
         transform="translate(-577.21882,-350.97661)"
         id="path110" />
    </clipPath>
    <clipPath
       clipPathUnits="userSpaceOnUse"
       id="clipPath112">
      <path
         d="M 0,660 H 660 V 0 H 0 Z"
         transform="translate(-602.37602,-394.21531)"
         id="path112" />
    </clipPath>
    <clipPath
       clipPathUnits="userSpaceOnUse"
       id="clipPath114">
      <path
         d="M 0,660 H 660 V 0 H 0 Z"
         transform="translate(-284.48491,-351.94141)"
         id="path114" />
    </clipPath>
    <clipPath
       clipPathUnits="userSpaceOnUse"
       id="clipPath116">
      <path
         d="M 0,660 H 660 V 0 H 0 Z"
         transform="translate(-383.10941,-259.55571)"
         id="path116" />
    </clipPath>
    <clipPath
       clipPathUnits="userSpaceOnUse"
       id="clipPath118">
      <path
         d="M 0,660 H 660 V 0 H 0 Z"
         transform="translate(-425.42581,-332.28711)"
         id="path118" />
    </clipPath>
    <clipPath
       clipPathUnits="userSpaceOnUse"
       id="clipPath120">
      <path
         d="M 0,660 H 660 V 0 H 0 Z"
         transform="translate(-452.44531,-378.72711)"
         id="path120" />
    </clipPath>
    <clipPath
       clipPathUnits="userSpaceOnUse"
       id="clipPath122">
      <path
         d="M 0,660 H 660 V 0 H 0 Z"
         transform="translate(-506.41601,-471.48731)"
         id="path122" />
    </clipPath>
    <clipPath
       clipPathUnits="userSpaceOnUse"
       id="clipPath124">
      <path
         d="M 0,660 H 660 V 0 H 0 Z"
         transform="translate(-489.68551,-480.80911)"
         id="path124" />
    </clipPath>
    <clipPath
       clipPathUnits="userSpaceOnUse"
       id="clipPath126">
      <path
         d="M 0,660 H 660 V 0 H 0 Z"
         transform="translate(-489.68551,-200.5264)"
         id="path126" />
    </clipPath>
    <clipPath
       clipPathUnits="userSpaceOnUse"
       id="clipPath128">
      <path
         d="M 0,660 H 660 V 0 H 0 Z"
         id="path128" />
    </clipPath>
    <clipPath
       clipPathUnits="userSpaceOnUse"
       id="clipPath130">
      <path
         d="M 0,660 H 660 V 0 H 0 Z"
         transform="translate(-258.96141,-225.9346)"
         id="path130" />
    </clipPath>
    <clipPath
       clipPathUnits="userSpaceOnUse"
       id="clipPath132">
      <path
         d="M 0,660 H 660 V 0 H 0 Z"
         id="path132" />
    </clipPath>
    <clipPath
       clipPathUnits="userSpaceOnUse"
       id="clipPath134">
      <path
         d="M 0,660 H 660 V 0 H 0 Z"
         transform="translate(0,-660.28812)"
         id="path134" />
    </clipPath>
    <clipPath
       clipPathUnits="userSpaceOnUse"
       id="clipPath136">
      <path
         d="M 0,660 H 660 V 0 H 0 Z"
         transform="translate(0,-26.506801)"
         id="path136" />
    </clipPath>
    <clipPath
       clipPathUnits="userSpaceOnUse"
       id="clipPath138">
      <path
         d="M 0,660 H 660 V 0 H 0 Z"
         transform="translate(-464.19341,-124.3174)"
         id="path138" />
    </clipPath>
    <clipPath
       clipPathUnits="userSpaceOnUse"
       id="clipPath140">
      <path
         d="M 0,660 H 660 V 0 H 0 Z"
         id="path140" />
    </clipPath>
    <clipPath
       clipPathUnits="userSpaceOnUse"
       id="clipPath142">
      <path
         d="M 0,660 H 660 V 0 H 0 Z"
         transform="translate(-438.95801,-143.3916)"
         id="path142" />
    </clipPath>
    <clipPath
       clipPathUnits="userSpaceOnUse"
       id="clipPath144">
      <path
         d="M 0,660 H 660 V 0 H 0 Z"
         transform="translate(-306.70851,-253.66311)"
         id="path144" />
    </clipPath>
    <clipPath
       clipPathUnits="userSpaceOnUse"
       id="clipPath146">
      <path
         d="M 0,660 H 660 V 0 H 0 Z"
         transform="translate(-299.26071,-251.9443)"
         id="path146" />
    </clipPath>
    <clipPath
       clipPathUnits="userSpaceOnUse"
       id="clipPath148">
      <path
         d="M 0,660 H 660 V 0 H 0 Z"
         transform="translate(-75.884799,-6.5487977)"
         id="path148" />
    </clipPath>
    <clipPath
       clipPathUnits="userSpaceOnUse"
       id="clipPath150">
      <path
         d="M 0,660 H 660 V 0 H 0 Z"
         transform="translate(-438.95801,-153.12891)"
         id="path150" />
    </clipPath>
    <clipPath
       clipPathUnits="userSpaceOnUse"
       id="clipPath152">
      <path
         d="M 0,660 H 660 V 0 H 0 Z"
         transform="translate(-64.172402,-141.3535)"
         id="path152" />
    </clipPath>
    <clipPath
       clipPathUnits="userSpaceOnUse"
       id="clipPath154">
      <path
         d="M 0,660 H 660 V 0 H 0 Z"
         transform="translate(-425.73731,-135.7588)"
         id="path154" />
    </clipPath>
    <clipPath
       clipPathUnits="userSpaceOnUse"
       id="clipPath156">
      <path
         d="M 0,660 H 660 V 0 H 0 Z"
         transform="translate(-392.16891,-165.667)"
         id="path156" />
    </clipPath>
    <clipPath
       clipPathUnits="userSpaceOnUse"
       id="clipPath158">
      <path
         d="M 0,660 H 660 V 0 H 0 Z"
         transform="translate(-204.1792,-152.93361)"
         id="path158" />
    </clipPath>
    <clipPath
       clipPathUnits="userSpaceOnUse"
       id="clipPath160">
      <path
         d="M 0,660 H 660 V 0 H 0 Z"
         transform="translate(-169.90191,-157.23141)"
         id="path160" />
    </clipPath>
    <clipPath
       clipPathUnits="userSpaceOnUse"
       id="clipPath162">
      <path
         d="M 0,660 H 660 V 0 H 0 Z"
         transform="translate(-200.45611,-148.63671)"
         id="path162" />
    </clipPath>
    <clipPath
       clipPathUnits="userSpaceOnUse"
       id="clipPath164">
      <path
         d="M 0,660 H 660 V 0 H 0 Z"
         transform="translate(-154.00491,-178.7373)"
         id="path164" />
    </clipPath>
    <clipPath
       clipPathUnits="userSpaceOnUse"
       id="clipPath166">
      <path
         d="M 0,660 H 660 V 0 H 0 Z"
         transform="translate(-235.49221,-152.02341)"
         id="path166" />
    </clipPath>
  </defs>
  <sodipodi:namedview
     id="namedview1"
     pagecolor="#ffffff"
     bordercolor="#000000"
     borderopacity="0.25"
     inkscape:showpageshadow="2"
     inkscape:pageopacity="0.0"
     inkscape:pagecheckerboard="0"
     inkscape:deskcolor="#d1d1d1"
     inkscape:zoom="0.67272727"
     inkscape:cx="439.25676"
     inkscape:cy="440"
     inkscape:window-width="1440"
     inkscape:window-height="830"
     inkscape:window-x="-6"
     inkscape:window-y="-6"
     inkscape:window-maximized="1"
     inkscape:current-layer="g1">
    <inkscape:page
       x="0"
       y="0"
       inkscape:label="1"
       id="page1"
       width="880"
       height="880"
       margin="0"
       bleed="0" />
  </sodipodi:namedview>
  <g
     id="g1"
     inkscape:groupmode="layer"
     inkscape:label="1">
    <g
       id="group-MC0">
      <path
         id="path2"
         d="M 0,0 H 660 V 660 H 0 Z"
         style="fill:#2f2825;fill-opacity:1;fill-rule:nonzero;stroke:none"
         transform="matrix(1.3333333,0,0,-1.3333333,0,880)" />
      <path
         id="path3"
         d="M 0,0 V -434.065 L 401.038,-541.521 V 0 Z"
         style="fill:#b2a29e;fill-opacity:1;fill-rule:nonzero;stroke:none"
         transform="matrix(1.3333333,0,0,-1.3333333,345.282,4e-4)" />
      <path
         id="path4"
         d="m 0,0 v -76.534 h 660 v 71.85 L 203.671,117.589 Z"
         style="fill:#463d3b;fill-opacity:1;fill-rule:nonzero;stroke:none"
         transform="matrix(1.3333333,0,0,-1.3333333,0,777.9544)" />
      <path
         id="path5"
         d="M 0,0 V -417.963 L 378.62,-519.414 V 0 Z"
         style="fill:#463d3b;fill-opacity:1;fill-rule:nonzero;stroke:none"
         transform="matrix(1.3333333,0,0,-1.3333333,375.1728,4e-4)" />
      <path
         id="path6"
         d="m 0,0 -182.341,-313.396 v -104.567 l 79.193,-21.218 L 152.375,0 Z m -42.688,-455.383 61.452,-16.466 177.515,305.108 v 122.087 z"
         style="fill:#685a56;fill-opacity:1;fill-rule:nonzero;stroke:none"
         transform="matrix(1.3333333,0,0,-1.3333333,618.29373,4e-4)" />
      <path
         id="path7"
         d="M 0,0 -49.264,13.2 V 209.624 L 0,238.068 Z M 127.973,-34.291 44.448,-11.91 v 146.761 l 83.525,48.224 z M 283.786,323.994 159.041,251.972 V -42.615 L 283.786,-76.04 Z"
         style="fill:#766864;fill-opacity:1;fill-rule:evenodd;stroke:none"
         transform="matrix(1.3333333,0,0,-1.3333333,440.85867,574.88413)" />
      <path
         id="path8"
         d="m 0,0 37.585,-10.071 v 74.669 z m -139.652,141.986 49.264,84.674 V 24.22 l -49.264,13.2 z M 37.585,184.716 -45.94,41.154 v 117.917 l 83.525,48.223 z M 68.653,117.998 193.397,332.403 V 210.315 L 68.653,-4.091 Z m 33.361,177.455 -33.361,-19.261 v -38.077 z"
         style="fill:#a79590;fill-opacity:1;fill-rule:evenodd;stroke:none"
         transform="matrix(1.3333333,0,0,-1.3333333,561.37627,607.17707)" />
      <path
         id="path9"
         d="m 0,0 c -4.623,-2.669 -9.245,-5.337 -13.866,-8.005 v -28.86 c 4.621,2.668 9.243,5.339 13.866,8.007 z"
         style="fill:#f39c0f;fill-opacity:1;fill-rule:evenodd;stroke:none"
         transform="matrix(1.3333333,0,0,-1.3333333,578.08467,430.68747)"
         clip-path="url(#clipPath10)" />
      <path
         id="path11"
         d="m 0,0 c -4.622,-2.668 -9.245,-5.337 -13.867,-8.005 v -28.86 c 4.622,2.67 9.245,5.339 13.867,8.007 z"
         style="fill:#f39c0f;fill-opacity:1;fill-rule:evenodd;stroke:none"
         transform="matrix(1.3333333,0,0,-1.3333333,527.73173,461.36067)"
         clip-path="url(#clipPath12)" />
      <path
         id="path13"
         d="m 0,0 c -4.623,-2.671 -9.245,-5.339 -13.866,-8.008 v -28.858 c 4.621,2.669 9.243,5.337 13.866,8.008 z"
         style="fill:#f39c0f;fill-opacity:1;fill-rule:evenodd;stroke:none"
         transform="matrix(1.3333333,0,0,-1.3333333,578.08467,493.48307)"
         clip-path="url(#clipPath14)" />
      <path
         id="path15"
         d="m 0,0 c -4.622,-2.669 -9.245,-5.337 -13.867,-8.006 v -28.86 c 4.622,2.669 9.245,5.339 13.867,8.006 z"
         style="fill:#f39c0f;fill-opacity:1;fill-rule:evenodd;stroke:none"
         transform="matrix(1.3333333,0,0,-1.3333333,527.73173,524.15627)"
         clip-path="url(#clipPath16)" />
      <path
         id="path17"
         d="m 0,0 c -4.623,-2.67 -9.245,-5.337 -13.866,-8.007 v -28.858 c 4.621,2.668 9.243,5.337 13.866,8.007 z"
         style="fill:#f39c0f;fill-opacity:1;fill-rule:evenodd;stroke:none"
         transform="matrix(1.3333333,0,0,-1.3333333,578.08467,556.28253)"
         clip-path="url(#clipPath18)" />
      <path
         id="path19"
         d="M 0,0 -9.944,-5.741 0,-8.404 Z"
         style="fill:#f39c0f;fill-opacity:1;fill-rule:evenodd;stroke:none"
         transform="matrix(1.3333333,0,0,-1.3333333,527.73173,586.95573)"
         clip-path="url(#clipPath20)" />
      <path
         id="path21"
         d="M 0,0 C -4.623,-2.671 -9.246,-5.339 -13.866,-8.008 V -21.254 L 0,-24.969 Z"
         style="fill:#f39c0f;fill-opacity:1;fill-rule:evenodd;stroke:none"
         transform="matrix(1.3333333,0,0,-1.3333333,552.9088,571.6172)"
         clip-path="url(#clipPath22)" />
      <path
         id="path23"
         d="M 0,0 -13.866,-8.006 V -36.865 L 0,-28.859 Z"
         style="fill:#f39c0f;fill-opacity:1;fill-rule:evenodd;stroke:none"
         transform="matrix(1.3333333,0,0,-1.3333333,603.2604,352.55213)"
         clip-path="url(#clipPath24)" />
      <path
         id="path25"
         d="M 0,0 -13.867,-8.006 V -36.867 L 0,-28.859 Z"
         style="fill:#f39c0f;fill-opacity:1;fill-rule:evenodd;stroke:none"
         transform="matrix(1.3333333,0,0,-1.3333333,527.73173,398.56053)"
         clip-path="url(#clipPath26)" />
      <path
         id="path27"
         d="m 0,0 c -4.623,-2.668 -9.246,-5.338 -13.866,-8.005 v -28.861 c 4.62,2.67 9.243,5.338 13.866,8.007 z"
         style="fill:#f39c0f;fill-opacity:1;fill-rule:evenodd;stroke:none"
         transform="matrix(1.3333333,0,0,-1.3333333,552.9088,383.2252)"
         clip-path="url(#clipPath28)" />
      <path
         id="path29"
         d="m 0,0 c -4.622,-2.668 -9.245,-5.336 -13.868,-8.005 v -28.86 c 4.623,2.669 9.246,5.338 13.868,8.007 z"
         style="fill:#f39c0f;fill-opacity:1;fill-rule:evenodd;stroke:none"
         transform="matrix(1.3333333,0,0,-1.3333333,397.80333,367.168)"
         clip-path="url(#clipPath30)" />
      <path
         id="path31"
         d="m 0,0 c -4.622,-2.67 -9.245,-5.339 -13.868,-8.007 v -28.858 c 4.623,2.666 9.246,5.336 13.868,8.005 z"
         style="fill:#f39c0f;fill-opacity:1;fill-rule:evenodd;stroke:none"
         transform="matrix(1.3333333,0,0,-1.3333333,397.80333,429.9636)"
         clip-path="url(#clipPath32)" />
      <path
         id="path33"
         d="m 0,0 c -4.623,-2.67 -9.243,-5.337 -13.866,-8.007 v -28.858 c 4.623,2.67 9.243,5.339 13.866,8.007 z"
         style="fill:#f39c0f;fill-opacity:1;fill-rule:evenodd;stroke:none"
         transform="matrix(1.3333333,0,0,-1.3333333,422.97987,477.42707)"
         clip-path="url(#clipPath34)" />
      <path
         id="path35"
         d="M 0,0 -6.909,-3.99 0,-5.84 Z"
         style="fill:#f39c0f;fill-opacity:1;fill-rule:evenodd;stroke:none"
         transform="matrix(1.3333333,0,0,-1.3333333,397.80333,555.5612)"
         clip-path="url(#clipPath36)" />
      <path
         id="path37"
         d="M 0,0 C -4.623,-2.667 -9.243,-5.337 -13.866,-8.006 V -18.687 L 0,-22.401 Z"
         style="fill:#f39c0f;fill-opacity:1;fill-rule:evenodd;stroke:none"
         transform="matrix(1.3333333,0,0,-1.3333333,422.97987,540.2252)"
         clip-path="url(#clipPath38)" />
      <path
         id="path39"
         d="m 0,0 c -4.622,-2.668 -9.245,-5.337 -13.868,-8.006 v -28.859 c 4.623,2.668 9.246,5.338 13.868,8.005 z"
         style="fill:#f39c0f;fill-opacity:1;fill-rule:evenodd;stroke:none"
         transform="matrix(1.3333333,0,0,-1.3333333,397.80333,304.3692)"
         clip-path="url(#clipPath40)" />
      <path
         id="path41"
         d="M 0,0 -13.866,-8.005 V -36.864 L 0,-28.858 Z"
         style="fill:#f39c0f;fill-opacity:1;fill-rule:evenodd;stroke:none"
         transform="matrix(1.3333333,0,0,-1.3333333,422.97987,289.03387)"
         clip-path="url(#clipPath42)" />
      <path
         id="path43"
         d="m 0,0 c -6.639,-3.833 -13.274,-7.665 -19.913,-11.497 v -41.441 c 6.639,3.834 13.274,7.665 19.913,11.497 z"
         style="fill:#f39c0f;fill-opacity:1;fill-rule:evenodd;stroke:none"
         transform="matrix(1.3333333,0,0,-1.3333333,805.77867,262.6972)"
         clip-path="url(#clipPath44)" />
      <path
         id="path45"
         d="m 0,0 c -6.638,-3.832 -13.274,-7.665 -19.913,-11.497 v -41.441 c 6.639,3.833 13.275,7.666 19.913,11.498 z"
         style="fill:#f39c0f;fill-opacity:1;fill-rule:evenodd;stroke:none"
         transform="matrix(1.3333333,0,0,-1.3333333,697.3216,328.76427)"
         clip-path="url(#clipPath46)" />
      <path
         id="path47"
         d="m 0,0 c -6.638,-3.832 -13.275,-7.664 -19.911,-11.497 v -41.44 c 6.636,3.834 13.273,7.664 19.911,11.498 z"
         style="fill:#f39c0f;fill-opacity:1;fill-rule:evenodd;stroke:none"
         transform="matrix(1.3333333,0,0,-1.3333333,769.62507,374.8952)"
         clip-path="url(#clipPath48)" />
      <path
         id="path49"
         d="m 0,0 c -6.639,-3.832 -13.274,-7.665 -19.913,-11.497 v -41.441 c 6.639,3.833 13.274,7.665 19.913,11.497 z"
         style="fill:#f39c0f;fill-opacity:1;fill-rule:evenodd;stroke:none"
         transform="matrix(1.3333333,0,0,-1.3333333,805.77867,352.8724)"
         clip-path="url(#clipPath50)" />
      <path
         id="path51"
         d="m 0,0 c -6.638,-3.832 -13.274,-7.665 -19.913,-11.498 v -41.44 c 6.639,3.832 13.275,7.666 19.913,11.496 z"
         style="fill:#f39c0f;fill-opacity:1;fill-rule:evenodd;stroke:none"
         transform="matrix(1.3333333,0,0,-1.3333333,697.3216,418.93947)"
         clip-path="url(#clipPath52)" />
      <path
         id="path53"
         d="m 0,0 c -6.637,-3.832 -13.275,-7.665 -19.911,-11.497 v -41.441 c 6.636,3.833 13.274,7.665 19.911,11.497 z"
         style="fill:#f39c0f;fill-opacity:1;fill-rule:evenodd;stroke:none"
         transform="matrix(1.3333333,0,0,-1.3333333,733.47267,396.91733)"
         clip-path="url(#clipPath54)" />
      <path
         id="path55"
         d="m 0,0 c -6.639,-3.832 -13.274,-7.664 -19.913,-11.496 v -41.442 c 6.639,3.835 13.274,7.665 19.913,11.499 z"
         style="fill:#f39c0f;fill-opacity:1;fill-rule:evenodd;stroke:none"
         transform="matrix(1.3333333,0,0,-1.3333333,805.77867,443.04947)"
         clip-path="url(#clipPath56)" />
      <path
         id="path57"
         d="m 0,0 c -6.638,-3.83 -13.274,-7.664 -19.913,-11.494 v -41.441 c 6.639,3.832 13.275,7.664 19.913,11.496 z"
         style="fill:#f39c0f;fill-opacity:1;fill-rule:evenodd;stroke:none"
         transform="matrix(1.3333333,0,0,-1.3333333,697.3216,509.1172)"
         clip-path="url(#clipPath58)" />
      <path
         id="path59"
         d="m 0,0 c -6.637,-3.832 -13.275,-7.664 -19.911,-11.496 v -41.44 c 6.636,3.831 13.274,7.665 19.911,11.495 z"
         style="fill:#f39c0f;fill-opacity:1;fill-rule:evenodd;stroke:none"
         transform="matrix(1.3333333,0,0,-1.3333333,733.47267,487.09373)"
         clip-path="url(#clipPath60)" />
      <path
         id="path61"
         d="m 0,0 c -6.638,-3.832 -13.275,-7.666 -19.911,-11.496 v -41.442 c 6.636,3.833 13.273,7.664 19.911,11.498 z"
         style="fill:#f39c0f;fill-opacity:1;fill-rule:evenodd;stroke:none"
         transform="matrix(1.3333333,0,0,-1.3333333,769.62507,555.2448)"
         clip-path="url(#clipPath62)" />
      <path
         id="path63"
         d="m 0,0 c -6.639,-3.832 -13.274,-7.664 -19.913,-11.496 v -41.44 c 6.639,3.831 13.274,7.665 19.913,11.497 z"
         style="fill:#f39c0f;fill-opacity:1;fill-rule:evenodd;stroke:none"
         transform="matrix(1.3333333,0,0,-1.3333333,805.77867,533.224)"
         clip-path="url(#clipPath64)" />
      <path
         id="path65"
         d="M 0,0 C -6.638,-3.834 -13.274,-7.664 -19.913,-11.498 V -27.899 L 0,-33.234 Z"
         style="fill:#f39c0f;fill-opacity:1;fill-rule:evenodd;stroke:none"
         transform="matrix(1.3333333,0,0,-1.3333333,697.3216,599.2904)"
         clip-path="url(#clipPath66)" />
      <path
         id="path67"
         d="M 0,0 -19.913,-11.498 V -31.614 L 0,-36.951 Z"
         style="fill:#f39c0f;fill-opacity:1;fill-rule:evenodd;stroke:none"
         transform="matrix(1.3333333,0,0,-1.3333333,805.77867,623.3972)"
         clip-path="url(#clipPath68)" />
      <path
         id="path69"
         d="m 0,0 c -6.638,-3.833 -13.275,-7.665 -19.911,-11.497 v -41.44 c 6.636,3.832 13.273,7.664 19.911,11.497 z"
         style="fill:#f39c0f;fill-opacity:1;fill-rule:evenodd;stroke:none"
         transform="matrix(1.3333333,0,0,-1.3333333,769.62507,194.54493)"
         clip-path="url(#clipPath70)" />
      <path
         id="path71"
         d="M 0,0 -19.913,-11.497 V -52.938 L 0,-41.44 Z"
         style="fill:#f39c0f;fill-opacity:1;fill-rule:evenodd;stroke:none"
         transform="matrix(1.3333333,0,0,-1.3333333,805.77867,172.52213)"
         clip-path="url(#clipPath72)" />
      <path
         id="path73"
         d="m 0,0 c -6.637,-3.833 -13.275,-7.665 -19.911,-11.497 v -41.441 c 6.636,3.834 13.274,7.666 19.911,11.498 z"
         style="fill:#f39c0f;fill-opacity:1;fill-rule:evenodd;stroke:none"
         transform="matrix(1.3333333,0,0,-1.3333333,733.47267,306.74213)"
         clip-path="url(#clipPath74)" />
      <path
         id="path75"
         d="m 0,0 c -4.622,-2.668 -9.245,-5.337 -13.867,-8.005 v -28.86 c 4.622,2.67 9.245,5.339 13.867,8.007 z"
         style="fill:#fbca07;fill-opacity:1;fill-rule:evenodd;stroke:none"
         transform="matrix(1.3333333,0,0,-1.3333333,527.73173,461.36067)"
         clip-path="url(#clipPath76)" />
      <path
         id="path77"
         d="M 0,0 -13.867,-8.006 V -36.867 L 0,-28.859 Z"
         style="fill:#fbca07;fill-opacity:1;fill-rule:evenodd;stroke:none"
         transform="matrix(1.3333333,0,0,-1.3333333,527.73173,398.56053)"
         clip-path="url(#clipPath78)" />
      <path
         id="path79"
         d="m 0,0 c -4.623,-2.668 -9.246,-5.338 -13.866,-8.005 v -28.861 c 4.62,2.67 9.243,5.338 13.866,8.007 z"
         style="fill:#fbca07;fill-opacity:1;fill-rule:evenodd;stroke:none"
         transform="matrix(1.3333333,0,0,-1.3333333,552.9088,383.2252)"
         clip-path="url(#clipPath80)" />
      <path
         id="path81"
         d="m 0,0 c -4.622,-2.67 -9.245,-5.339 -13.868,-8.007 v -28.858 c 4.623,2.666 9.246,5.336 13.868,8.005 z"
         style="fill:#fbca07;fill-opacity:1;fill-rule:evenodd;stroke:none"
         transform="matrix(1.3333333,0,0,-1.3333333,397.80333,429.9636)"
         clip-path="url(#clipPath82)" />
      <path
         id="path83"
         d="m 0,0 c -4.623,-2.67 -9.243,-5.337 -13.866,-8.007 v -28.858 c 4.623,2.67 9.243,5.339 13.866,8.007 z"
         style="fill:#fbca07;fill-opacity:1;fill-rule:evenodd;stroke:none"
         transform="matrix(1.3333333,0,0,-1.3333333,422.97987,477.42707)"
         clip-path="url(#clipPath84)" />
      <path
         id="path85"
         d="M 0,0 -6.909,-3.99 0,-5.84 Z"
         style="fill:#fbca07;fill-opacity:1;fill-rule:evenodd;stroke:none"
         transform="matrix(1.3333333,0,0,-1.3333333,397.80333,555.5612)"
         clip-path="url(#clipPath86)" />
      <path
         id="path87"
         d="M 0,0 C -4.623,-2.667 -9.243,-5.337 -13.866,-8.006 V -18.687 L 0,-22.401 Z"
         style="fill:#fbca07;fill-opacity:1;fill-rule:evenodd;stroke:none"
         transform="matrix(1.3333333,0,0,-1.3333333,422.97987,540.2252)"
         clip-path="url(#clipPath88)" />
      <path
         id="path89"
         d="m 0,0 c -6.639,-3.833 -13.274,-7.665 -19.913,-11.497 v -41.441 c 6.639,3.834 13.274,7.665 19.913,11.497 z"
         style="fill:#fbca07;fill-opacity:1;fill-rule:evenodd;stroke:none"
         transform="matrix(1.3333333,0,0,-1.3333333,805.77867,262.6972)"
         clip-path="url(#clipPath90)" />
      <path
         id="path91"
         d="m 0,0 c -6.638,-3.832 -13.274,-7.665 -19.913,-11.498 v -41.44 c 6.639,3.832 13.275,7.666 19.913,11.496 z"
         style="fill:#fbca07;fill-opacity:1;fill-rule:evenodd;stroke:none"
         transform="matrix(1.3333333,0,0,-1.3333333,697.3216,418.93947)"
         clip-path="url(#clipPath92)" />
      <path
         id="path93"
         d="m 0,0 c -6.637,-3.832 -13.275,-7.665 -19.911,-11.497 v -41.441 c 6.636,3.833 13.274,7.665 19.911,11.497 z"
         style="fill:#fbca07;fill-opacity:1;fill-rule:evenodd;stroke:none"
         transform="matrix(1.3333333,0,0,-1.3333333,733.47267,396.91733)"
         clip-path="url(#clipPath94)" />
      <path
         id="path95"
         d="M 0,0 19.913,34.223 V 3.724 L 0,-7.773 Z"
         style="fill:#fbca07;fill-opacity:1;fill-rule:evenodd;stroke:none"
         transform="matrix(1.3333333,0,0,-1.3333333,779.22787,232.7416)"
         clip-path="url(#clipPath96)" />
      <path
         id="path97"
         d="M 0,0 0.361,0.624 V 0.21 Z"
         style="fill:#fbca07;fill-opacity:1;fill-rule:evenodd;stroke:none"
         transform="matrix(1.3333333,0,0,-1.3333333,769.1432,250.07813)"
         clip-path="url(#clipPath98)" />
      <path
         id="path99"
         d="M 0,0 19.911,34.224 V -3.735 C 13.274,-7.567 6.636,-11.399 0,-15.232 Z"
         style="fill:#fbca07;fill-opacity:1;fill-rule:evenodd;stroke:none"
         transform="matrix(1.3333333,0,0,-1.3333333,706.92453,357.01627)"
         clip-path="url(#clipPath100)" />
      <path
         id="path101"
         d="M 0,0 6.899,11.855 V 3.982 Z"
         style="fill:#fbca07;fill-opacity:1;fill-rule:evenodd;stroke:none"
         transform="matrix(1.3333333,0,0,-1.3333333,688.1224,389.32813)"
         clip-path="url(#clipPath102)" />
      <path
         id="path103"
         d="M 0,0 10.711,18.412 V 6.187 Z"
         style="fill:#fbca07;fill-opacity:1;fill-rule:evenodd;stroke:none"
         transform="matrix(1.3333333,0,0,-1.3333333,563.80333,603.00907)"
         clip-path="url(#clipPath104)" />
      <path
         id="path105"
         d="m 0,0 -18.441,-31.694 -1.472,-0.851 V 8.897 c 6.639,3.83 13.275,7.664 19.913,11.494 z"
         style="fill:#fbca07;fill-opacity:1;fill-rule:evenodd;stroke:none"
         transform="matrix(1.3333333,0,0,-1.3333333,697.3216,536.30467)"
         clip-path="url(#clipPath106)" />
      <path
         id="path107"
         d="M 0,0 -11.419,-19.626 V -6.592 Z"
         style="fill:#fbca07;fill-opacity:1;fill-rule:evenodd;stroke:none"
         transform="matrix(1.3333333,0,0,-1.3333333,722.14973,493.6328)"
         clip-path="url(#clipPath108)" />
      <path
         id="path109"
         d="m 0,0 -11.904,-20.461 -8.007,-4.624 v 41.44 C -13.275,20.188 -6.638,24.02 0,27.852 Z"
         style="fill:#fbca07;fill-opacity:1;fill-rule:evenodd;stroke:none"
         transform="matrix(1.3333333,0,0,-1.3333333,769.62507,412.0312)"
         clip-path="url(#clipPath110)" />
      <path
         id="path111"
         d="m 0,0 -17.955,-30.86 v 20.493 z"
         style="fill:#fbca07;fill-opacity:1;fill-rule:evenodd;stroke:none"
         transform="matrix(1.3333333,0,0,-1.3333333,803.168,354.3796)"
         clip-path="url(#clipPath112)" />
      <path
         id="path113"
         d="M 0,0 13.868,23.834 V 3.825 C 9.245,1.155 4.622,-1.513 0,-4.183 Z"
         style="fill:#fbca07;fill-opacity:1;fill-rule:evenodd;stroke:none"
         transform="matrix(1.3333333,0,0,-1.3333333,379.3132,410.7448)"
         clip-path="url(#clipPath114)" />
      <path
         id="path115"
         d="m 0,0 -1.178,-2.024 v 1.345 z"
         style="fill:#fbca07;fill-opacity:1;fill-rule:evenodd;stroke:none"
         transform="matrix(1.3333333,0,0,-1.3333333,510.81253,533.92573)"
         clip-path="url(#clipPath116)" />
      <path
         id="path117"
         d="m 0,0 -5.728,-9.848 v 6.54 z"
         style="fill:#fbca07;fill-opacity:1;fill-rule:evenodd;stroke:none"
         transform="matrix(1.3333333,0,0,-1.3333333,567.2344,436.95053)"
         clip-path="url(#clipPath118)" />
      <path
         id="path119"
         d="m 0,0 -10.513,-18.072 -3.353,-1.934 V 8.853 L 0,16.859 Z"
         style="fill:#fbca07;fill-opacity:1;fill-rule:evenodd;stroke:none"
         transform="matrix(1.3333333,0,0,-1.3333333,603.2604,375.03053)"
         clip-path="url(#clipPath120)" />
      <path
         id="path121"
         d="m 0,0 -3.338,-5.735 v 3.809 z"
         style="fill:#fbca07;fill-opacity:1;fill-rule:evenodd;stroke:none"
         transform="matrix(1.3333333,0,0,-1.3333333,675.22133,251.35027)"
         clip-path="url(#clipPath122)" />
      <path
         id="path123"
         d="m 0,0 -74.676,24.306 v -76.879 l 43.608,-16.324 V -286.263 L 0,-294.587 Z M 124.744,-6.427 170.86,-20.578 V -340.37 l -46.116,12.358 z m -239.338,-110.694 -44.447,20.567 v -155.418 l 44.447,-11.91 z"
         style="fill:#5b4f4d;fill-opacity:1;fill-rule:evenodd;stroke:none"
         transform="matrix(1.3333333,0,0,-1.3333333,652.914,238.9212)"
         clip-path="url(#clipPath124)" />
      <path
         id="path125"
         d="M 0,0 -7.201,-12.376 -31.068,-5.98 V 68.688 L 0,122.089 Z m 154.093,264.851 -29.349,-50.445 v 59.45 z M 0,242.206 -31.068,188.807 v 22.578 l -43.608,16.325 v 76.878 L 0,280.283 Z m -114.594,-79.044 -44.447,20.566 V 28.311 l 29.928,-8.019 14.519,24.953 z"
         style="fill:#7f726f;fill-opacity:1;fill-rule:evenodd;stroke:none"
         transform="matrix(1.3333333,0,0,-1.3333333,652.914,612.63147)"
         clip-path="url(#clipPath126)" />
      <path
         id="path127"
         d="M 474.648,140.101 H 508.72 V 660.289 H 474.648 Z"
         style="fill:#2f2825;fill-opacity:1;fill-rule:evenodd;stroke:none"
         transform="matrix(1.3333333,0,0,-1.3333333,0,880)"
         clip-path="url(#clipPath128)" />
      <path
         id="path129"
         d="m 0,0 -11.657,-43.502 -247.304,-155.926 v -26.765 h 660.546 v 71.963 46.627 z"
         style="fill:#463d3b;fill-opacity:1;fill-rule:evenodd;stroke:none"
         transform="matrix(1.3333333,0,0,-1.3333333,345.28187,578.75387)"
         clip-path="url(#clipPath130)" />
      <path
         id="path131"
         d="m 508.721,165.304 h 12.602 v 494.984 h -12.602 z"
         style="fill:#b2a29e;fill-opacity:1;fill-rule:evenodd;stroke:none"
         transform="matrix(1.3333333,0,0,-1.3333333,0,880)"
         clip-path="url(#clipPath132)" />
      <path
         id="path133"
         d="m 0,0 v -583.754 l 203.671,117.589 V -0.001 Z"
         style="fill:#463d3b;fill-opacity:1;fill-rule:evenodd;stroke:none"
         transform="matrix(1.3333333,0,0,-1.3333333,0,-0.38413333)"
         clip-path="url(#clipPath134)" />
      <path
         id="path135"
         d="M 0,0 247.304,155.926 660.546,45.197 V -26.766 L 0,-26.766 Z"
         style="fill:#948681;fill-opacity:1;fill-rule:evenodd;stroke:none"
         transform="matrix(1.3333333,0,0,-1.3333333,0,844.6576)"
         clip-path="url(#clipPath136)" />
      <path
         id="path137"
         d="m 0,0 -184.158,-124.576 h 85.464 L 38.711,-10.373 24.598,4.99 Z"
         style="fill:#463d3b;fill-opacity:1;fill-rule:evenodd;stroke:none"
         transform="matrix(1.3333333,0,0,-1.3333333,618.92453,714.24347)"
         clip-path="url(#clipPath138)" />
      <path
         id="path139"
         d="m 311.531,-0.259 h 11.237 v 86.907 h -11.237 z"
         style="fill:#463d3b;fill-opacity:1;fill-rule:evenodd;stroke:none"
         transform="matrix(1.3333333,0,0,-1.3333333,0,880)"
         clip-path="url(#clipPath140)" />
      <path
         id="path141"
         d="M 0,0 V 9.737 L -374.786,7.701 v -9.739 l 253.574,-67.945 z"
         style="fill:#b2a29e;fill-opacity:1;fill-rule:evenodd;stroke:none"
         transform="matrix(1.3333333,0,0,-1.3333333,585.27733,688.8112)"
         clip-path="url(#clipPath142)" />
      <path
         id="path143"
         d="m 0,0 v 0 c 14.481,-2.621 24.724,-16.711 22.763,-31.312 l -6.391,-47.569 -52.656,9.53 6.391,47.572 C -27.934,-7.179 -14.481,2.622 0,0"
         style="fill:#463d3b;fill-opacity:1;fill-rule:evenodd;stroke:none"
         transform="matrix(1.3333333,0,0,-1.3333333,408.94467,541.78253)"
         clip-path="url(#clipPath144)" />
      <path
         id="path145"
         d="m 0,0 h 0.002 c 14.48,-2.622 24.724,-16.712 22.763,-31.311 l -6.391,-47.571 -52.658,9.533 6.393,47.569 C -27.932,-7.18 -14.479,2.621 0,0"
         style="fill:#2f2825;fill-opacity:1;fill-rule:evenodd;stroke:none"
         transform="matrix(1.3333333,0,0,-1.3333333,399.01427,544.07427)"
         clip-path="url(#clipPath146)" />
      <path
         id="path147"
         d="M 0,0 V 143.269 L 241.861,71.73 241.266,-6.808 H 25.408 Z"
         style="fill:#463d3b;fill-opacity:1;fill-rule:evenodd;stroke:none"
         transform="matrix(1.3333333,0,0,-1.3333333,101.17973,871.26827)"
         clip-path="url(#clipPath148)" />
      <path
         id="path149"
         d="M 0,0 -253.574,67.946 -374.786,-2.036 -121.212,-69.98 Z"
         style="fill:#d7c9c4;fill-opacity:1;fill-rule:evenodd;stroke:none"
         transform="matrix(1.3333333,0,0,-1.3333333,585.27733,675.82813)"
         clip-path="url(#clipPath150)" />
      <path
         id="path151"
         d="m 0,0 v 9.739 l 253.573,-67.944 v -9.74 z"
         style="fill:#766864;fill-opacity:1;fill-rule:evenodd;stroke:none"
         transform="matrix(1.3333333,0,0,-1.3333333,85.5632,691.52867)"
         clip-path="url(#clipPath152)" />
      <path
         id="path153"
         d="M 0,0 V -136.018 H -102.97 V -59.45 Z"
         style="fill:#766864;fill-opacity:1;fill-rule:evenodd;stroke:none"
         transform="matrix(1.3333333,0,0,-1.3333333,567.64973,698.98827)"
         clip-path="url(#clipPath154)" />
      <path
         id="path155"
         d="M 0,0 -134.746,-66.355 -94.86,-77.042 27.124,-7.269 Z"
         style="fill:#766864;fill-opacity:1;fill-rule:evenodd;stroke:none"
         transform="matrix(1.3333333,0,0,-1.3333333,522.89187,659.11067)"
         clip-path="url(#clipPath156)" />
      <path
         id="path157"
         d="m 0,0 -3.723,-4.297 -118.073,95.976 3.723,4.296 99.5,-26.661 z"
         style="fill:#b2a29e;fill-opacity:1;fill-rule:evenodd;stroke:none"
         transform="matrix(1.3333333,0,0,-1.3333333,272.23893,676.08853)"
         clip-path="url(#clipPath158)" />
      <path
         id="path159"
         d="m 0,0 -46.141,12.363 -22.055,-12.734 46.14,-12.363 z"
         style="fill:#766864;fill-opacity:1;fill-rule:evenodd;stroke:none"
         transform="matrix(1.3333333,0,0,-1.3333333,226.53587,670.35813)"
         clip-path="url(#clipPath160)" />
      <path
         id="path161"
         d="m 0,0 -99.5,26.66 -18.573,69.316 99.5,-26.661 z"
         style="fill:#463d3b;fill-opacity:1;fill-rule:evenodd;stroke:none"
         transform="matrix(1.3333333,0,0,-1.3333333,267.2748,681.81773)"
         clip-path="url(#clipPath162)" />
      <path
         id="path163"
         d="m 0,0 -7.638,-28.504 -25.241,6.763 7.553,28.189 z"
         style="fill:#463d3b;fill-opacity:1;fill-rule:evenodd;stroke:none"
         transform="matrix(1.3333333,0,0,-1.3333333,205.33987,641.6836)"
         clip-path="url(#clipPath164)" />
      <path
         id="path165"
         d="M 0,0 29.186,30.264 63.066,24.131 38.382,-7.082 Z"
         style="fill:#ffffff;fill-opacity:1;fill-rule:evenodd;stroke:none"
         transform="matrix(1.3333333,0,0,-1.3333333,313.9896,677.30213)"
         clip-path="url(#clipPath166)" />
    </g>
  </g>
</svg>
