<?xml version="1.0" encoding="UTF-8" standalone="no"?>
<!-- Created with Inkscape (http://www.inkscape.org/) -->

<svg
   version="1.1"
   id="svg1"
   width="880"
   height="880"
   viewBox="0 0 880 880"
   sodipodi:docname="open-air-balcony.svg"
   inkscape:version="1.3.2 (091e20e, 2023-11-25, custom)"
   xmlns:inkscape="http://www.inkscape.org/namespaces/inkscape"
   xmlns:sodipodi="http://sodipodi.sourceforge.net/DTD/sodipodi-0.dtd"
   xmlns="http://www.w3.org/2000/svg"
   xmlns:svg="http://www.w3.org/2000/svg">
  <defs
     id="defs1">
    <linearGradient
       x1="0"
       y1="0"
       x2="1"
       y2="0"
       gradientUnits="userSpaceOnUse"
       gradientTransform="matrix(0,-659.29437,-659.29437,0,330.45993,659.29437)"
       spreadMethod="pad"
       id="linearGradient3">
      <stop
         style="stop-opacity:1;stop-color:#89d0e9"
         offset="0"
         id="stop2" />
      <stop
         style="stop-opacity:1;stop-color:#fff5d9"
         offset="1"
         id="stop3" />
    </linearGradient>
    <clipPath
       clipPathUnits="userSpaceOnUse"
       id="clipPath5">
      <path
         d="M 0,660 H 660 V 0 H 0 Z"
         transform="translate(-660.10742,-437.87061)"
         id="path5" />
    </clipPath>
    <clipPath
       clipPathUnits="userSpaceOnUse"
       id="clipPath7">
      <path
         d="M 0,660 H 660 V 0 H 0 Z"
         transform="translate(-660.10742,-279.50881)"
         id="path7" />
    </clipPath>
    <clipPath
       clipPathUnits="userSpaceOnUse"
       id="clipPath9">
      <path
         d="M 0,660 H 660 V 0 H 0 Z"
         id="path9" />
    </clipPath>
    <clipPath
       clipPathUnits="userSpaceOnUse"
       id="clipPath11">
      <path
         d="M 0,660 H 660 V 0 H 0 Z"
         id="path11" />
    </clipPath>
    <clipPath
       clipPathUnits="userSpaceOnUse"
       id="clipPath13">
      <path
         d="M 0,660 H 660 V 0 H 0 Z"
         id="path13" />
    </clipPath>
    <clipPath
       clipPathUnits="userSpaceOnUse"
       id="clipPath15">
      <path
         d="M 0,660 H 660 V 0 H 0 Z"
         id="path15" />
    </clipPath>
    <clipPath
       clipPathUnits="userSpaceOnUse"
       id="clipPath17">
      <path
         d="M 0,660 H 660 V 0 H 0 Z"
         id="path17" />
    </clipPath>
    <clipPath
       clipPathUnits="userSpaceOnUse"
       id="clipPath19">
      <path
         d="M 0,660 H 660 V 0 H 0 Z"
         id="path19" />
    </clipPath>
    <clipPath
       clipPathUnits="userSpaceOnUse"
       id="clipPath21">
      <path
         d="M 0,660 H 660 V 0 H 0 Z"
         id="path21" />
    </clipPath>
    <clipPath
       clipPathUnits="userSpaceOnUse"
       id="clipPath23">
      <path
         d="M 0,660 H 660 V 0 H 0 Z"
         id="path23" />
    </clipPath>
    <clipPath
       clipPathUnits="userSpaceOnUse"
       id="clipPath25">
      <path
         d="M 0,660 H 660 V 0 H 0 Z"
         id="path25" />
    </clipPath>
    <clipPath
       clipPathUnits="userSpaceOnUse"
       id="clipPath27">
      <path
         d="M 0,660 H 660 V 0 H 0 Z"
         id="path27" />
    </clipPath>
    <clipPath
       clipPathUnits="userSpaceOnUse"
       id="clipPath29">
      <path
         d="M 0,660 H 660 V 0 H 0 Z"
         id="path29" />
    </clipPath>
    <clipPath
       clipPathUnits="userSpaceOnUse"
       id="clipPath31">
      <path
         d="M 0,660 H 660 V 0 H 0 Z"
         id="path31" />
    </clipPath>
    <clipPath
       clipPathUnits="userSpaceOnUse"
       id="clipPath33">
      <path
         d="M 0,660 H 660 V 0 H 0 Z"
         id="path33" />
    </clipPath>
    <clipPath
       clipPathUnits="userSpaceOnUse"
       id="clipPath35">
      <path
         d="M 0,660 H 660 V 0 H 0 Z"
         id="path35" />
    </clipPath>
    <clipPath
       clipPathUnits="userSpaceOnUse"
       id="clipPath37">
      <path
         d="M 0,660 H 660 V 0 H 0 Z"
         id="path37" />
    </clipPath>
    <clipPath
       clipPathUnits="userSpaceOnUse"
       id="clipPath39">
      <path
         d="M 0,660 H 660 V 0 H 0 Z"
         id="path39" />
    </clipPath>
    <clipPath
       clipPathUnits="userSpaceOnUse"
       id="clipPath41">
      <path
         d="M 0,660 H 660 V 0 H 0 Z"
         id="path41" />
    </clipPath>
    <clipPath
       clipPathUnits="userSpaceOnUse"
       id="clipPath43">
      <path
         d="M 0,660 H 660 V 0 H 0 Z"
         id="path43" />
    </clipPath>
    <clipPath
       clipPathUnits="userSpaceOnUse"
       id="clipPath45">
      <path
         d="M 0,660 H 660 V 0 H 0 Z"
         transform="translate(-286.72851,-590.75441)"
         id="path45" />
    </clipPath>
    <clipPath
       clipPathUnits="userSpaceOnUse"
       id="clipPath47">
      <path
         d="M 0,660 H 660 V 0 H 0 Z"
         transform="translate(-371.26561,-551.86621)"
         id="path47" />
    </clipPath>
    <clipPath
       clipPathUnits="userSpaceOnUse"
       id="clipPath49">
      <path
         d="M 0,660 H 660 V 0 H 0 Z"
         transform="translate(-333.49411,-303.23241)"
         id="path49" />
    </clipPath>
    <clipPath
       clipPathUnits="userSpaceOnUse"
       id="clipPath51">
      <path
         d="M 0,660 H 660 V 0 H 0 Z"
         transform="translate(-341.45801,-290.22561)"
         id="path51" />
    </clipPath>
    <clipPath
       clipPathUnits="userSpaceOnUse"
       id="clipPath53">
      <path
         d="M 0,660 H 660 V 0 H 0 Z"
         transform="translate(-300.72171,-347.88331)"
         id="path53" />
    </clipPath>
    <clipPath
       clipPathUnits="userSpaceOnUse"
       id="clipPath55">
      <path
         d="M 0,660 H 660 V 0 H 0 Z"
         transform="translate(-295.0024,-298.30861)"
         id="path55" />
    </clipPath>
    <clipPath
       clipPathUnits="userSpaceOnUse"
       id="clipPath57">
      <path
         d="M 0,660 H 660 V 0 H 0 Z"
         transform="translate(-338.19921,-347.88331)"
         id="path57" />
    </clipPath>
    <clipPath
       clipPathUnits="userSpaceOnUse"
       id="clipPath59">
      <path
         d="M 0,660 H 660 V 0 H 0 Z"
         transform="translate(-331.14551,-347.88331)"
         id="path59" />
    </clipPath>
  </defs>
  <sodipodi:namedview
     id="namedview1"
     pagecolor="#ffffff"
     bordercolor="#000000"
     borderopacity="0.25"
     inkscape:showpageshadow="2"
     inkscape:pageopacity="0.0"
     inkscape:pagecheckerboard="0"
     inkscape:deskcolor="#d1d1d1"
     inkscape:zoom="0.69318182"
     inkscape:cx="439.27869"
     inkscape:cy="440"
     inkscape:window-width="1440"
     inkscape:window-height="830"
     inkscape:window-x="-6"
     inkscape:window-y="-6"
     inkscape:window-maximized="1"
     inkscape:current-layer="g1">
    <inkscape:page
       x="0"
       y="0"
       inkscape:label="1"
       id="page1"
       width="880"
       height="880"
       margin="0 0 0.94133335 1.0833334"
       bleed="0" />
  </sodipodi:namedview>
  <g
     id="g1"
     inkscape:groupmode="layer"
     inkscape:label="1">
    <g
       id="group-MC0">
      <path
         id="path3"
         d="M 0.813,0 H 660 V 659.294 H 0.813 Z"
         transform="matrix(1.3333333,0,0,-1.3333333,0,880)"
         style="fill:url(#linearGradient3);stroke:none" />
      <path
         id="path4"
         d="m 0,0 v -437.871 h -659.295 v 388.272 c 18.489,-13.027 30.568,-34.54 30.568,-58.877 0,-5.272 -0.571,-10.408 -1.647,-15.358 2.183,0.237 4.4,0.361 6.647,0.361 25.701,0 47.687,-15.9 56.662,-38.401 6.176,1.573 12.648,2.413 19.315,2.413 38.639,0 70.708,-28.107 76.893,-64.987 0.193,0 0.387,0.006 0.582,0.006 10.306,0 20.019,-2.538 28.549,-7.02 9.547,33.487 40.37,58.005 76.919,58.005 39.303,0 71.982,-28.351 78.706,-65.716 7.316,2.421 15.136,3.736 23.263,3.736 5.86,0 11.558,-0.686 17.024,-1.973 -0.019,0.655 -0.03,1.312 -0.03,1.973 0,38.647 31.331,69.979 69.98,69.979 12.524,0 24.278,-3.294 34.448,-9.057 11.141,14.614 28.73,24.052 48.526,24.052 3.089,0 6.122,-0.233 9.088,-0.677 -0.058,1.219 -0.09,2.443 -0.09,3.676 0,24.308 11.417,45.95 29.183,59.857 -1.429,5.637 -2.192,11.538 -2.192,17.619 0,34.48 24.417,63.257 56.901,69.988"
         style="fill:#acb966;fill-opacity:1;fill-rule:evenodd;stroke:none"
         transform="matrix(1.3333333,0,0,-1.3333333,880.1432,296.17253)"
         clip-path="url(#clipPath5)" />
      <path
         id="path6"
         d="M 0,0 V -279.509 H -659.295 V -40.1 c 0.361,0.005 0.723,0.015 1.086,0.015 42.237,0 76.476,-34.241 76.476,-76.478 0,-6.929 -0.927,-13.641 -2.655,-20.026 22.305,-10.017 38.803,-30.656 43.058,-55.477 21.003,-0.713 37.995,-17.225 39.467,-38.026 11.397,-0.464 22.092,-3.656 31.449,-8.937 8.736,35.584 40.844,61.984 79.123,61.984 4.83,0 9.561,-0.423 14.159,-1.23 7.939,20.602 27.921,35.22 51.321,35.22 30.367,0 54.983,-24.615 54.983,-54.983 0,-9.401 -2.362,-18.251 -6.523,-25.991 h 0.026 c 23.951,0 45.392,-10.735 59.788,-27.652 9.118,23.214 31.727,39.648 58.176,39.648 2.606,0 5.176,-0.162 7.699,-0.473 2.831,39.381 35.673,70.45 75.774,70.45 1.704,0 3.393,-0.061 5.069,-0.173 -3.889,8.068 -6.068,17.112 -6.068,26.666 0,33.955 27.526,61.482 61.482,61.482 2.596,0 5.155,-0.163 7.665,-0.476 -3.914,6.578 -6.166,14.259 -6.166,22.467 0,12.659 5.347,24.066 13.906,32.09"
         style="fill:#87904d;fill-opacity:1;fill-rule:evenodd;stroke:none"
         transform="matrix(1.3333333,0,0,-1.3333333,880.1432,507.3216)"
         clip-path="url(#clipPath7)" />
      <path
         id="path8"
         d="m 0.812,258.916 h 659.295 v 34.99 H 0.812 Z"
         style="fill:#ffffff;fill-opacity:1;fill-rule:evenodd;stroke:none"
         transform="matrix(1.3333333,0,0,-1.3333333,0,880)"
         clip-path="url(#clipPath9)" />
      <path
         id="path10"
         d="M 0.812,0 H 660.107 V 42.98 H 0.812 Z"
         style="fill:#e7e0c9;fill-opacity:1;fill-rule:evenodd;stroke:none"
         transform="matrix(1.3333333,0,0,-1.3333333,0,880)"
         clip-path="url(#clipPath11)" />
      <path
         id="path12"
         d="M 24.395,42.98 H 42.389 V 258.915 H 24.395 Z"
         style="fill:#ffffff;fill-opacity:1;fill-rule:evenodd;stroke:none"
         transform="matrix(1.3333333,0,0,-1.3333333,0,880)"
         clip-path="url(#clipPath13)" />
      <path
         id="path14"
         d="m 24.395,238.422 h 17.994 v 20.493 H 24.395 Z"
         style="fill:#e7e0c9;fill-opacity:1;fill-rule:evenodd;stroke:none"
         transform="matrix(1.3333333,0,0,-1.3333333,0,880)"
         clip-path="url(#clipPath15)" />
      <path
         id="path16"
         d="m 105.371,258.915 h 17.994 V 42.98 h -17.994 z"
         style="fill:#ffffff;fill-opacity:1;fill-rule:evenodd;stroke:none"
         transform="matrix(1.3333333,0,0,-1.3333333,0,880)"
         clip-path="url(#clipPath17)" />
      <path
         id="path18"
         d="m 105.371,258.915 h 17.994 v -20.493 h -17.994 z"
         style="fill:#e7e0c9;fill-opacity:1;fill-rule:evenodd;stroke:none"
         transform="matrix(1.3333333,0,0,-1.3333333,0,880)"
         clip-path="url(#clipPath19)" />
      <path
         id="path20"
         d="m 186.347,258.915 h 17.995 V 42.98 h -17.995 z"
         style="fill:#ffffff;fill-opacity:1;fill-rule:evenodd;stroke:none"
         transform="matrix(1.3333333,0,0,-1.3333333,0,880)"
         clip-path="url(#clipPath21)" />
      <path
         id="path22"
         d="m 186.347,258.915 h 17.995 v -20.493 h -17.995 z"
         style="fill:#e7e0c9;fill-opacity:1;fill-rule:evenodd;stroke:none"
         transform="matrix(1.3333333,0,0,-1.3333333,0,880)"
         clip-path="url(#clipPath23)" />
      <path
         id="path24"
         d="m 267.324,258.915 h 17.995 V 42.98 h -17.995 z"
         style="fill:#ffffff;fill-opacity:1;fill-rule:evenodd;stroke:none"
         transform="matrix(1.3333333,0,0,-1.3333333,0,880)"
         clip-path="url(#clipPath25)" />
      <path
         id="path26"
         d="m 267.324,258.915 h 17.995 v -20.493 h -17.995 z"
         style="fill:#e7e0c9;fill-opacity:1;fill-rule:evenodd;stroke:none"
         transform="matrix(1.3333333,0,0,-1.3333333,0,880)"
         clip-path="url(#clipPath27)" />
      <path
         id="path28"
         d="m 348.301,258.915 h 17.994 V 42.98 h -17.994 z"
         style="fill:#ffffff;fill-opacity:1;fill-rule:evenodd;stroke:none"
         transform="matrix(1.3333333,0,0,-1.3333333,0,880)"
         clip-path="url(#clipPath29)" />
      <path
         id="path30"
         d="m 348.301,258.915 h 17.994 v -20.493 h -17.994 z"
         style="fill:#e7e0c9;fill-opacity:1;fill-rule:evenodd;stroke:none"
         transform="matrix(1.3333333,0,0,-1.3333333,0,880)"
         clip-path="url(#clipPath31)" />
      <path
         id="path32"
         d="M 429.275,258.915 H 447.27 V 42.98 h -17.995 z"
         style="fill:#ffffff;fill-opacity:1;fill-rule:evenodd;stroke:none"
         transform="matrix(1.3333333,0,0,-1.3333333,0,880)"
         clip-path="url(#clipPath33)" />
      <path
         id="path34"
         d="M 429.275,258.915 H 447.27 V 238.422 H 429.275 Z"
         style="fill:#e7e0c9;fill-opacity:1;fill-rule:evenodd;stroke:none"
         transform="matrix(1.3333333,0,0,-1.3333333,0,880)"
         clip-path="url(#clipPath35)" />
      <path
         id="path36"
         d="m 510.253,258.915 h 17.994 V 42.98 h -17.994 z"
         style="fill:#ffffff;fill-opacity:1;fill-rule:evenodd;stroke:none"
         transform="matrix(1.3333333,0,0,-1.3333333,0,880)"
         clip-path="url(#clipPath37)" />
      <path
         id="path38"
         d="m 510.253,258.915 h 17.994 v -20.493 h -17.994 z"
         style="fill:#e7e0c9;fill-opacity:1;fill-rule:evenodd;stroke:none"
         transform="matrix(1.3333333,0,0,-1.3333333,0,880)"
         clip-path="url(#clipPath39)" />
      <path
         id="path40"
         d="m 591.229,42.98 h 17.994 v 215.935 h -17.994 z"
         style="fill:#ffffff;fill-opacity:1;fill-rule:evenodd;stroke:none"
         transform="matrix(1.3333333,0,0,-1.3333333,0,880)"
         clip-path="url(#clipPath41)" />
      <path
         id="path42"
         d="m 591.229,238.422 h 17.994 v 20.493 h -17.994 z"
         style="fill:#e7e0c9;fill-opacity:1;fill-rule:evenodd;stroke:none"
         transform="matrix(1.3333333,0,0,-1.3333333,0,880)"
         clip-path="url(#clipPath43)" />
      <path
         id="path44"
         d="M 0,0 28.587,-4.076 0,-8.152 c -1.933,-11.202 -11.697,-19.724 -23.451,-19.724 -3.953,0 -7.68,0.965 -10.961,2.67 -6.418,-8.524 -16.621,-14.037 -28.113,-14.037 -12.705,0 -23.835,6.739 -30.016,16.836 -2.821,-1.452 -6.022,-2.272 -9.413,-2.272 -9.981,0 -18.302,7.097 -20.197,16.519 l -28.643,4.084 28.643,4.084 c 1.895,9.422 10.216,16.518 20.197,16.518 3.391,0 6.592,-0.82 9.413,-2.272 6.181,10.098 17.311,16.836 30.016,16.836 11.492,0 21.695,-5.513 28.113,-14.037 3.281,1.705 7.008,2.67 10.961,2.67 C -11.697,19.723 -1.933,11.202 0,0"
         style="fill:#ffffff;fill-opacity:1;fill-rule:evenodd;stroke:none"
         transform="matrix(1.3333333,0,0,-1.3333333,382.30467,92.327467)"
         clip-path="url(#clipPath45)" />
      <path
         id="path46"
         d="m 0,0 c 3.762,0 7.276,-1.065 10.259,-2.908 5.901,10.831 17.387,18.182 30.59,18.182 15.229,0 28.172,-9.781 32.894,-23.402 l 0.419,-0.051 c 4.214,8.651 13.09,14.615 23.36,14.615 8.305,0 15.699,-3.898 20.452,-9.962 2.531,1.344 5.418,2.107 8.483,2.107 9.076,0 16.595,-6.677 17.911,-15.387 l 22.228,-2.731 -22.228,-2.731 c -1.316,-8.71 -8.835,-15.385 -17.911,-15.385 -3.065,0 -5.952,0.762 -8.483,2.106 -4.753,-6.064 -12.147,-9.961 -20.452,-9.961 -10.27,0 -19.146,5.962 -23.36,14.614 l -0.419,-0.051 c -4.722,-13.621 -17.665,-23.403 -32.894,-23.403 -13.203,0 -24.689,7.351 -30.59,18.183 C 7.276,-38.008 3.762,-39.074 0,-39.074 c -9.863,0 -18.018,7.31 -19.347,16.808 l -22.215,2.729 22.215,2.73 C -18.018,-7.31 -9.863,0 0,0"
         style="fill:#ffffff;fill-opacity:1;fill-rule:evenodd;stroke:none"
         transform="matrix(1.3333333,0,0,-1.3333333,495.0208,144.1784)"
         clip-path="url(#clipPath47)" />
      <path
         id="path48"
         d="m 0,0 c -1.991,22.539 0.074,45.256 9.247,68.293 5.687,29.952 26.637,36.8 56.983,29.428 C 47.954,87.484 33.927,54.005 11.402,67.011 2.491,45.12 1.101,22.726 4.686,0 Z"
         style="fill:#627305;fill-opacity:1;fill-rule:evenodd;stroke:none"
         transform="matrix(1.3333333,0,0,-1.3333333,444.6588,475.69013)"
         clip-path="url(#clipPath49)" />
      <path
         id="path50"
         d="m 0,0 c -1.306,29.296 -6.972,58.082 -20.285,85.979 -10.64,37.411 -34.074,42.37 -65.386,27.355 21.092,-9.798 41.183,-50.211 63.277,-29.394 C -9.535,57.466 -4.639,28.972 -5.01,-0.857 -3.339,-0.573 -1.671,-0.287 0,0"
         style="fill:#627305;fill-opacity:1;fill-rule:evenodd;stroke:none"
         transform="matrix(1.3333333,0,0,-1.3333333,455.27733,493.03253)"
         clip-path="url(#clipPath51)" />
      <path
         id="path52"
         d="M 0,0 H 63.365 L 57.481,-52.201 H 5.885 Z"
         style="fill:#be8d5e;fill-opacity:1;fill-rule:evenodd;stroke:none"
         transform="matrix(1.3333333,0,0,-1.3333333,400.96227,416.1556)"
         clip-path="url(#clipPath53)" />
      <path
         id="path54"
         d="M 0,0 H 74.805 L 65.453,-9.759 H 9.35 Z"
         style="fill:#ffffff;fill-opacity:1;fill-rule:evenodd;stroke:none"
         transform="matrix(1.3333333,0,0,-1.3333333,393.33653,482.2552)"
         clip-path="url(#clipPath55)" />
      <path
         id="path56"
         d="m 0,0 c 1.991,22.539 -0.074,45.255 -9.247,68.293 -5.687,29.952 -26.636,36.8 -56.982,29.428 18.275,-10.236 32.302,-43.716 54.827,-30.71 C -2.491,45.12 -1.101,22.724 -4.685,0 Z"
         style="fill:#93aa13;fill-opacity:1;fill-rule:evenodd;stroke:none"
         transform="matrix(1.3333333,0,0,-1.3333333,450.93227,416.1556)"
         clip-path="url(#clipPath57)" />
      <path
         id="path58"
         d="m 0,0 c -1.991,28.844 0.073,57.918 9.247,87.402 5.687,38.332 26.636,47.096 56.984,37.662 C 47.954,111.963 33.927,69.116 11.403,85.762 2.491,57.743 1.101,29.083 4.686,0 Z"
         style="fill:#81960a;fill-opacity:1;fill-rule:evenodd;stroke:none"
         transform="matrix(1.3333333,0,0,-1.3333333,441.52733,416.1556)"
         clip-path="url(#clipPath59)" />
    </g>
  </g>
</svg>
