<?xml version="1.0" encoding="UTF-8" standalone="no"?>
<!-- Created with Inkscape (http://www.inkscape.org/) -->

<svg
   version="1.1"
   id="svg1"
   width="880"
   height="880"
   viewBox="0 0 880 880"
   sodipodi:docname="outdoor-landscape.svg"
   inkscape:version="1.3.2 (091e20e, 2023-11-25, custom)"
   xmlns:inkscape="http://www.inkscape.org/namespaces/inkscape"
   xmlns:sodipodi="http://sodipodi.sourceforge.net/DTD/sodipodi-0.dtd"
   xmlns="http://www.w3.org/2000/svg"
   xmlns:svg="http://www.w3.org/2000/svg">
  <defs
     id="defs1">
    <clipPath
       clipPathUnits="userSpaceOnUse"
       id="clipPath4">
      <path
         d="M 0,660 H 660 V 0 H 0 Z"
         transform="translate(-203.0635,-356.69821)"
         id="path4" />
    </clipPath>
    <clipPath
       clipPathUnits="userSpaceOnUse"
       id="clipPath6">
      <path
         d="M 0,660 H 660 V 0 H 0 Z"
         id="path6" />
    </clipPath>
    <clipPath
       clipPathUnits="userSpaceOnUse"
       id="clipPath8">
      <path
         d="M 0,660 H 660 V 0 H 0 Z"
         transform="translate(-0.56540002,-106.3662)"
         id="path8" />
    </clipPath>
    <clipPath
       clipPathUnits="userSpaceOnUse"
       id="clipPath10">
      <path
         d="M 0,660 H 660 V 0 H 0 Z"
         transform="translate(-659.94341,-166.126)"
         id="path10" />
    </clipPath>
    <clipPath
       clipPathUnits="userSpaceOnUse"
       id="clipPath12">
      <path
         d="M 0,660 H 660 V 0 H 0 Z"
         transform="translate(-0.56540002,-162.88281)"
         id="path12" />
    </clipPath>
    <clipPath
       clipPathUnits="userSpaceOnUse"
       id="clipPath14">
      <path
         d="M 0,660 H 660 V 0 H 0 Z"
         transform="translate(-659.94341,-110.3154)"
         id="path14" />
    </clipPath>
    <clipPath
       clipPathUnits="userSpaceOnUse"
       id="clipPath16">
      <path
         d="M 0,660 H 660 V 0 H 0 Z"
         transform="translate(-311.24021,-94.523402)"
         id="path16" />
    </clipPath>
    <clipPath
       clipPathUnits="userSpaceOnUse"
       id="clipPath18">
      <path
         d="M 0,660 H 660 V 0 H 0 Z"
         transform="translate(-0.56540002,-66.871104)"
         id="path18" />
    </clipPath>
    <clipPath
       clipPathUnits="userSpaceOnUse"
       id="clipPath20">
      <path
         d="M 0,660 H 660 V 0 H 0 Z"
         transform="translate(-0.56540002,-66.871104)"
         id="path20" />
    </clipPath>
    <clipPath
       clipPathUnits="userSpaceOnUse"
       id="clipPath22">
      <path
         d="M 0,660 H 660 V 0 H 0 Z"
         transform="translate(-0.56540002,-132.7041)"
         id="path22" />
    </clipPath>
    <clipPath
       clipPathUnits="userSpaceOnUse"
       id="clipPath24">
      <path
         d="M 0,660 H 660 V 0 H 0 Z"
         transform="translate(-659.94341,-34.383803)"
         id="path24" />
    </clipPath>
    <clipPath
       clipPathUnits="userSpaceOnUse"
       id="clipPath26">
      <path
         d="M 0,660 H 660 V 0 H 0 Z"
         transform="translate(-120.7383,-165.6445)"
         id="path26" />
    </clipPath>
    <clipPath
       clipPathUnits="userSpaceOnUse"
       id="clipPath28">
      <path
         d="M 0,660 H 660 V 0 H 0 Z"
         transform="translate(-572.87401,-297.2119)"
         id="path28" />
    </clipPath>
    <clipPath
       clipPathUnits="userSpaceOnUse"
       id="clipPath30">
      <path
         d="M 0,660 H 660 V 0 H 0 Z"
         transform="translate(-572.87401,-297.2119)"
         id="path30" />
    </clipPath>
    <clipPath
       clipPathUnits="userSpaceOnUse"
       id="clipPath32">
      <path
         d="M 0,660 H 660 V 0 H 0 Z"
         transform="translate(-572.13961,-346.66801)"
         id="path32" />
    </clipPath>
    <clipPath
       clipPathUnits="userSpaceOnUse"
       id="clipPath34">
      <path
         d="M 0,660 H 660 V 0 H 0 Z"
         transform="translate(-572.13961,-346.66801)"
         id="path34" />
    </clipPath>
    <clipPath
       clipPathUnits="userSpaceOnUse"
       id="clipPath36">
      <path
         d="M 0,660 H 660 V 0 H 0 Z"
         transform="translate(-561.77731,-315.58691)"
         id="path36" />
    </clipPath>
    <clipPath
       clipPathUnits="userSpaceOnUse"
       id="clipPath38">
      <path
         d="M 0,660 H 660 V 0 H 0 Z"
         transform="translate(-580.03222,-312.75001)"
         id="path38" />
    </clipPath>
    <clipPath
       clipPathUnits="userSpaceOnUse"
       id="clipPath40">
      <path
         d="M 0,660 H 660 V 0 H 0 Z"
         transform="translate(-584.06932,-283.70311)"
         id="path40" />
    </clipPath>
    <clipPath
       clipPathUnits="userSpaceOnUse"
       id="clipPath42">
      <path
         d="M 0,660 H 660 V 0 H 0 Z"
         transform="translate(-582.12791,-239.11431)"
         id="path42" />
    </clipPath>
    <clipPath
       clipPathUnits="userSpaceOnUse"
       id="clipPath44">
      <path
         d="M 0,660 H 660 V 0 H 0 Z"
         transform="translate(-559.91992,-317.85161)"
         id="path44" />
    </clipPath>
    <clipPath
       clipPathUnits="userSpaceOnUse"
       id="clipPath46">
      <path
         d="M 0,660 H 660 V 0 H 0 Z"
         transform="translate(-556.52731,-284.41311)"
         id="path46" />
    </clipPath>
    <clipPath
       clipPathUnits="userSpaceOnUse"
       id="clipPath48">
      <path
         d="M 0,660 H 660 V 0 H 0 Z"
         transform="translate(-555.55271,-242.59381)"
         id="path48" />
    </clipPath>
    <clipPath
       clipPathUnits="userSpaceOnUse"
       id="clipPath50">
      <path
         d="M 0,660 H 660 V 0 H 0 Z"
         transform="translate(-348.34381,-313.37301)"
         id="path50" />
    </clipPath>
    <clipPath
       clipPathUnits="userSpaceOnUse"
       id="clipPath52">
      <path
         d="M 0,660 H 660 V 0 H 0 Z"
         transform="translate(-348.34381,-313.37301)"
         id="path52" />
    </clipPath>
    <clipPath
       clipPathUnits="userSpaceOnUse"
       id="clipPath54">
      <path
         d="M 0,660 H 660 V 0 H 0 Z"
         transform="translate(-347.50291,-369.67431)"
         id="path54" />
    </clipPath>
    <clipPath
       clipPathUnits="userSpaceOnUse"
       id="clipPath56">
      <path
         d="M 0,660 H 660 V 0 H 0 Z"
         transform="translate(-347.50291,-369.67431)"
         id="path56" />
    </clipPath>
    <clipPath
       clipPathUnits="userSpaceOnUse"
       id="clipPath58">
      <path
         d="M 0,660 H 660 V 0 H 0 Z"
         transform="translate(-335.70801,-334.29201)"
         id="path58" />
    </clipPath>
    <clipPath
       clipPathUnits="userSpaceOnUse"
       id="clipPath60">
      <path
         d="M 0,660 H 660 V 0 H 0 Z"
         transform="translate(-356.49021,-331.06201)"
         id="path60" />
    </clipPath>
    <clipPath
       clipPathUnits="userSpaceOnUse"
       id="clipPath62">
      <path
         d="M 0,660 H 660 V 0 H 0 Z"
         transform="translate(-361.08501,-297.99711)"
         id="path62" />
    </clipPath>
    <clipPath
       clipPathUnits="userSpaceOnUse"
       id="clipPath64">
      <path
         d="M 0,660 H 660 V 0 H 0 Z"
         transform="translate(-358.87501,-247.24021)"
         id="path64" />
    </clipPath>
    <clipPath
       clipPathUnits="userSpaceOnUse"
       id="clipPath66">
      <path
         d="M 0,660 H 660 V 0 H 0 Z"
         transform="translate(-333.59381,-336.87161)"
         id="path66" />
    </clipPath>
    <clipPath
       clipPathUnits="userSpaceOnUse"
       id="clipPath68">
      <path
         d="M 0,660 H 660 V 0 H 0 Z"
         transform="translate(-329.73141,-298.80471)"
         id="path68" />
    </clipPath>
    <clipPath
       clipPathUnits="userSpaceOnUse"
       id="clipPath70">
      <path
         d="M 0,660 H 660 V 0 H 0 Z"
         transform="translate(-328.62451,-251.19921)"
         id="path70" />
    </clipPath>
    <clipPath
       clipPathUnits="userSpaceOnUse"
       id="clipPath72">
      <path
         d="M 0,660 H 660 V 0 H 0 Z"
         transform="translate(-105.9531,-313.37301)"
         id="path72" />
    </clipPath>
    <clipPath
       clipPathUnits="userSpaceOnUse"
       id="clipPath74">
      <path
         d="M 0,660 H 660 V 0 H 0 Z"
         transform="translate(-105.9531,-313.37301)"
         id="path74" />
    </clipPath>
    <clipPath
       clipPathUnits="userSpaceOnUse"
       id="clipPath76">
      <path
         d="M 0,660 H 660 V 0 H 0 Z"
         transform="translate(-105.1143,-369.67431)"
         id="path76" />
    </clipPath>
    <clipPath
       clipPathUnits="userSpaceOnUse"
       id="clipPath78">
      <path
         d="M 0,660 H 660 V 0 H 0 Z"
         transform="translate(-105.1143,-369.67431)"
         id="path78" />
    </clipPath>
    <clipPath
       clipPathUnits="userSpaceOnUse"
       id="clipPath80">
      <path
         d="M 0,660 H 660 V 0 H 0 Z"
         transform="translate(-93.319802,-334.29201)"
         id="path80" />
    </clipPath>
    <clipPath
       clipPathUnits="userSpaceOnUse"
       id="clipPath82">
      <path
         d="M 0,660 H 660 V 0 H 0 Z"
         transform="translate(-114.1006,-331.06201)"
         id="path82" />
    </clipPath>
    <clipPath
       clipPathUnits="userSpaceOnUse"
       id="clipPath84">
      <path
         d="M 0,660 H 660 V 0 H 0 Z"
         transform="translate(-118.69731,-297.99711)"
         id="path84" />
    </clipPath>
    <clipPath
       clipPathUnits="userSpaceOnUse"
       id="clipPath86">
      <path
         d="M 0,660 H 660 V 0 H 0 Z"
         transform="translate(-116.48781,-247.24021)"
         id="path86" />
    </clipPath>
    <clipPath
       clipPathUnits="userSpaceOnUse"
       id="clipPath88">
      <path
         d="M 0,660 H 660 V 0 H 0 Z"
         transform="translate(-91.2061,-336.87161)"
         id="path88" />
    </clipPath>
    <clipPath
       clipPathUnits="userSpaceOnUse"
       id="clipPath90">
      <path
         d="M 0,660 H 660 V 0 H 0 Z"
         transform="translate(-87.3433,-298.80471)"
         id="path90" />
    </clipPath>
    <clipPath
       clipPathUnits="userSpaceOnUse"
       id="clipPath92">
      <path
         d="M 0,660 H 660 V 0 H 0 Z"
         transform="translate(-86.234905,-251.19921)"
         id="path92" />
    </clipPath>
    <clipPath
       clipPathUnits="userSpaceOnUse"
       id="clipPath94">
      <path
         d="M 0,660 H 660 V 0 H 0 Z"
         transform="translate(-178.9756,-311.29881)"
         id="path94" />
    </clipPath>
    <clipPath
       clipPathUnits="userSpaceOnUse"
       id="clipPath96">
      <path
         d="M 0,660 H 660 V 0 H 0 Z"
         transform="translate(-219.38131,-282.31351)"
         id="path96" />
    </clipPath>
    <clipPath
       clipPathUnits="userSpaceOnUse"
       id="clipPath98">
      <path
         d="M 0,660 H 660 V 0 H 0 Z"
         transform="translate(-241.61671,-305.19921)"
         id="path98" />
    </clipPath>
    <clipPath
       clipPathUnits="userSpaceOnUse"
       id="clipPath100">
      <path
         d="M 0,660 H 660 V 0 H 0 Z"
         transform="translate(-426.58011,-305.19921)"
         id="path100" />
    </clipPath>
    <clipPath
       clipPathUnits="userSpaceOnUse"
       id="clipPath102">
      <path
         d="M 0,660 H 660 V 0 H 0 Z"
         transform="translate(-449.94141,-313.23541)"
         id="path102" />
    </clipPath>
    <clipPath
       clipPathUnits="userSpaceOnUse"
       id="clipPath104">
      <path
         d="M 0,660 H 660 V 0 H 0 Z"
         transform="translate(-485.20701,-274.90431)"
         id="path104" />
    </clipPath>
    <clipPath
       clipPathUnits="userSpaceOnUse"
       id="clipPath106">
      <path
         d="M 0,660 H 660 V 0 H 0 Z"
         transform="translate(-514.37791,-253.97851)"
         id="path106" />
    </clipPath>
    <clipPath
       clipPathUnits="userSpaceOnUse"
       id="clipPath108">
      <path
         d="M 0,660 H 660 V 0 H 0 Z"
         transform="translate(-530.43161,-270.502)"
         id="path108" />
    </clipPath>
    <clipPath
       clipPathUnits="userSpaceOnUse"
       id="clipPath110">
      <path
         d="M 0,660 H 660 V 0 H 0 Z"
         transform="translate(-279.7939,-272.70901)"
         id="path110" />
    </clipPath>
    <clipPath
       clipPathUnits="userSpaceOnUse"
       id="clipPath112">
      <path
         d="M 0,660 H 660 V 0 H 0 Z"
         transform="translate(-297.07281,-278.65231)"
         id="path112" />
    </clipPath>
    <clipPath
       clipPathUnits="userSpaceOnUse"
       id="clipPath114">
      <path
         d="M 0,660 H 660 V 0 H 0 Z"
         transform="translate(-58.887202,-274.90431)"
         id="path114" />
    </clipPath>
    <clipPath
       clipPathUnits="userSpaceOnUse"
       id="clipPath116">
      <path
         d="M 0,660 H 660 V 0 H 0 Z"
         transform="translate(-0.56540002,-465.72851)"
         id="path116" />
    </clipPath>
    <clipPath
       clipPathUnits="userSpaceOnUse"
       id="clipPath118">
      <path
         d="M 0,660 H 660 V 0 H 0 Z"
         transform="translate(-86.4673,0.0204975)"
         id="path118" />
    </clipPath>
    <clipPath
       clipPathUnits="userSpaceOnUse"
       id="clipPath120">
      <path
         d="M 0,660 H 660 V 0 H 0 Z"
         transform="translate(-72.737802,0.0204975)"
         id="path120" />
    </clipPath>
    <clipPath
       clipPathUnits="userSpaceOnUse"
       id="clipPath122">
      <path
         d="M 0,660 H 660 V 0 H 0 Z"
         transform="translate(-139.7959,0.0204975)"
         id="path122" />
    </clipPath>
    <clipPath
       clipPathUnits="userSpaceOnUse"
       id="clipPath124">
      <path
         d="M 0,660 H 660 V 0 H 0 Z"
         transform="translate(-96.534205,0.0204975)"
         id="path124" />
    </clipPath>
    <clipPath
       clipPathUnits="userSpaceOnUse"
       id="clipPath126">
      <path
         d="M 0,660 H 660 V 0 H 0 Z"
         transform="translate(-134.39211,0.0204975)"
         id="path126" />
    </clipPath>
    <clipPath
       clipPathUnits="userSpaceOnUse"
       id="clipPath128">
      <path
         d="M 0,660 H 660 V 0 H 0 Z"
         transform="translate(-549.10942,0.0204975)"
         id="path128" />
    </clipPath>
    <clipPath
       clipPathUnits="userSpaceOnUse"
       id="clipPath130">
      <path
         d="M 0,660 H 660 V 0 H 0 Z"
         transform="translate(-560.38672,0.0204975)"
         id="path130" />
    </clipPath>
    <clipPath
       clipPathUnits="userSpaceOnUse"
       id="clipPath132">
      <path
         d="M 0,660 H 660 V 0 H 0 Z"
         transform="translate(-505.30661,0.0204975)"
         id="path132" />
    </clipPath>
    <clipPath
       clipPathUnits="userSpaceOnUse"
       id="clipPath134">
      <path
         d="M 0,660 H 660 V 0 H 0 Z"
         transform="translate(-540.84082,0.0204975)"
         id="path134" />
    </clipPath>
    <clipPath
       clipPathUnits="userSpaceOnUse"
       id="clipPath136">
      <path
         d="M 0,660 H 660 V 0 H 0 Z"
         transform="translate(-509.74511,0.0204975)"
         id="path136" />
    </clipPath>
  </defs>
  <sodipodi:namedview
     id="namedview1"
     pagecolor="#ffffff"
     bordercolor="#000000"
     borderopacity="0.25"
     inkscape:showpageshadow="2"
     inkscape:pageopacity="0.0"
     inkscape:pagecheckerboard="0"
     inkscape:deskcolor="#d1d1d1"
     inkscape:zoom="0.67272727"
     inkscape:cx="439.25676"
     inkscape:cy="440"
     inkscape:window-width="1440"
     inkscape:window-height="830"
     inkscape:window-x="-6"
     inkscape:window-y="-6"
     inkscape:window-maximized="1"
     inkscape:current-layer="g1">
    <inkscape:page
       x="0"
       y="0"
       inkscape:label="1"
       id="page1"
       width="880"
       height="880"
       margin="0 0.075999998 0.85333335 0.75384533"
       bleed="0" />
  </sodipodi:namedview>
  <g
     id="g1"
     inkscape:groupmode="layer"
     inkscape:label="1">
    <g
       id="group-MC0">
      <path
         id="path2"
         d="M 0.565,0 H 659.943 V 659.36 H 0.565 Z"
         style="fill:#e5f3b5;fill-opacity:1;fill-rule:nonzero;stroke:none"
         transform="matrix(1.3333333,0,0,-1.3333333,0,880)" />
      <path
         id="path3"
         d="m 0,0 c 48.973,0 88.914,39.941 88.914,88.913 0,48.971 -39.941,88.912 -88.914,88.912 -48.97,0 -88.911,-39.941 -88.911,-88.912 C -88.911,39.941 -48.97,0 0,0"
         style="fill:#fdfef8;fill-opacity:1;fill-rule:evenodd;stroke:none"
         transform="matrix(1.3333333,0,0,-1.3333333,270.75133,404.4024)"
         clip-path="url(#clipPath4)" />
      <path
         id="path5"
         d="M 0.565,-0.02 H 659.943 V 180.402 H 0.565 Z"
         style="fill:#9ace5b;fill-opacity:1;fill-rule:evenodd;stroke:none"
         transform="matrix(1.3333333,0,0,-1.3333333,0,880)"
         clip-path="url(#clipPath6)" />
      <path
         id="path7"
         d="m 0,0 v -85.561 c 25.516,-0.88 52.233,-1.349 79.757,-1.349 178.856,0 323.849,19.757 323.849,44.13 0,24.373 -144.993,44.133 -323.849,44.133 C 52.233,1.353 25.516,0.881 0,0"
         style="fill:#b2df70;fill-opacity:1;fill-rule:evenodd;stroke:none"
         transform="matrix(1.3333333,0,0,-1.3333333,0.75386667,738.1784)"
         clip-path="url(#clipPath8)" />
      <path
         id="path9"
         d="M 0,0 H -546.453 L 0,-36.346 Z"
         style="fill:#7dd3be;fill-opacity:1;fill-rule:evenodd;stroke:none"
         transform="matrix(1.3333333,0,0,-1.3333333,879.92453,658.49867)"
         clip-path="url(#clipPath10)" />
      <path
         id="path11"
         d="M 0,0 625.638,-44.132 0,-21.417 Z"
         style="fill:#9f6143;fill-opacity:1;fill-rule:evenodd;stroke:none"
         transform="matrix(1.3333333,0,0,-1.3333333,0.75386667,662.82293)"
         clip-path="url(#clipPath12)" />
      <path
         id="path13"
         d="M 0,0 -659.378,-29.86 V -68.145 L 0,-55.167 Z"
         style="fill:#af7555;fill-opacity:1;fill-rule:evenodd;stroke:none"
         transform="matrix(1.3333333,0,0,-1.3333333,879.92453,732.9128)"
         clip-path="url(#clipPath14)" />
      <path
         id="path15"
         d="m 0,0 -310.675,-14.068 v -38.285 l 387.457,7.626 c 10.466,4.337 16.15,8.973 16.15,13.79 C 92.932,-18.885 57.465,-7.965 0,0"
         style="fill:#cf926e;fill-opacity:1;fill-rule:evenodd;stroke:none"
         transform="matrix(1.3333333,0,0,-1.3333333,414.98693,753.9688)"
         clip-path="url(#clipPath16)" />
      <path
         id="path17"
         d="M 0,0 628.236,10.386 0,-12.331 Z"
         style="fill:#cf926e;fill-opacity:1;fill-rule:evenodd;stroke:none"
         transform="matrix(1.3333333,0,0,-1.3333333,0.75386667,790.83853)"
         clip-path="url(#clipPath18)" />
      <path
         id="path19"
         d="m 0,0 395.54,6.539 c 2.388,-1.431 4.26,-2.887 5.599,-4.365 L 0,-12.331 Z"
         style="fill:#e5aa8a;fill-opacity:1;fill-rule:evenodd;stroke:none"
         transform="matrix(1.3333333,0,0,-1.3333333,0.75386667,790.83853)"
         clip-path="url(#clipPath20)" />
      <path
         id="path21"
         d="M 0,0 506.227,-15.576 0,-22.065 Z"
         style="fill:#74a542;fill-opacity:1;fill-rule:evenodd;stroke:none"
         transform="matrix(1.3333333,0,0,-1.3333333,0.75386667,703.0612)"
         clip-path="url(#clipPath22)" />
      <path
         id="path23"
         d="M 0,0 -659.378,-34.404 H 0 Z"
         style="fill:#74a542;fill-opacity:1;fill-rule:evenodd;stroke:none"
         transform="matrix(1.3333333,0,0,-1.3333333,879.92453,834.15493)"
         clip-path="url(#clipPath24)" />
      <path
         id="path25"
         d="M 0,0 539.205,-22.88 V -35.864 Z"
         style="fill:#9adccd;fill-opacity:1;fill-rule:evenodd;stroke:none"
         transform="matrix(1.3333333,0,0,-1.3333333,160.9844,659.14067)"
         clip-path="url(#clipPath26)" />
      <path
         id="path27"
         d="M 0,0 2.136,-58.408 4.274,-116.81 H 0 -4.272 l 2.136,58.402 z"
         style="fill:#845b43;fill-opacity:1;fill-rule:evenodd;stroke:none"
         transform="matrix(1.3333333,0,0,-1.3333333,763.832,483.71747)"
         clip-path="url(#clipPath28)" />
      <path
         id="path29"
         d="M 0,0 2.136,-58.405 4.274,-116.81 H 0 Z"
         style="fill:#764b36;fill-opacity:1;fill-rule:evenodd;stroke:none"
         transform="matrix(1.3333333,0,0,-1.3333333,763.832,483.71747)"
         clip-path="url(#clipPath30)" />
      <path
         id="path31"
         d="m 0,0 c 11.307,0 20.473,-47.242 20.473,-82.393 0,-35.149 -9.166,-44.894 -20.473,-44.894 -11.31,0 -20.476,9.745 -20.476,44.894 C -20.476,-47.242 -11.31,0 0,0"
         style="fill:#74a542;fill-opacity:1;fill-rule:evenodd;stroke:none"
         transform="matrix(1.3333333,0,0,-1.3333333,762.8528,417.776)"
         clip-path="url(#clipPath32)" />
      <path
         id="path33"
         d="m 0,0 c 0.634,0 1.261,-0.157 1.88,-0.444 -10.753,-13.662 -20.269,-89.953 -3.398,-126.782 -10.598,0.871 -18.958,11.271 -18.958,44.833 C -20.476,-47.242 -11.31,0 0,0"
         style="fill:#9ace5b;fill-opacity:1;fill-rule:evenodd;stroke:none"
         transform="matrix(1.3333333,0,0,-1.3333333,762.8528,417.776)"
         clip-path="url(#clipPath34)" />
      <path
         id="path35"
         d="M 0,0 C 6.117,1.3 10.286,4.743 11.471,11.47 5.273,10.09 1.713,5.993 0,0 m -4.563,-34.906 c 7.636,-0.904 12.713,1.603 15.417,7.277 -7.821,1.264 -12.857,-1.306 -15.417,-7.277 m 5.918,-50.94 c 9.803,4.889 15.157,13.16 17.392,23.805 C 6.678,-65.983 0.765,-73.844 1.355,-85.846"
         style="fill:#9ace5b;fill-opacity:1;fill-rule:evenodd;stroke:none"
         transform="matrix(1.3333333,0,0,-1.3333333,749.0364,459.21747)"
         clip-path="url(#clipPath36)" />
      <path
         id="path37"
         d="M 0,0 C 6.118,1.299 10.286,4.745 11.472,11.469 5.273,10.09 1.713,5.993 0,0"
         style="fill:#74a542;fill-opacity:1;fill-rule:evenodd;stroke:none"
         transform="matrix(1.3333333,0,0,-1.3333333,773.37627,463)"
         clip-path="url(#clipPath38)" />
      <path
         id="path39"
         d="M 0,0 C 7.637,-0.906 12.714,1.603 15.418,7.276 7.597,8.539 2.559,5.973 0,0"
         style="fill:#74a542;fill-opacity:1;fill-rule:evenodd;stroke:none"
         transform="matrix(1.3333333,0,0,-1.3333333,778.75907,501.7292)"
         clip-path="url(#clipPath40)" />
      <path
         id="path41"
         d="M 0,0 C 9.802,4.891 15.155,13.162 17.391,23.806 5.321,19.863 -0.592,12.002 0,0"
         style="fill:#74a542;fill-opacity:1;fill-rule:evenodd;stroke:none"
         transform="matrix(1.3333333,0,0,-1.3333333,776.17053,561.18093)"
         clip-path="url(#clipPath42)" />
      <path
         id="path43"
         d="M 0,0 C -3.238,3.116 -4.473,6.799 -2.643,11.349 0.612,8.157 1.229,4.308 0,0"
         style="fill:#9ace5b;fill-opacity:1;fill-rule:evenodd;stroke:none"
         transform="matrix(1.3333333,0,0,-1.3333333,746.55987,456.19787)"
         clip-path="url(#clipPath44)" />
      <path
         id="path45"
         d="M 0,0 C -5.355,-0.634 -8.916,1.126 -10.813,5.103 -5.328,5.989 -1.796,4.187 0,0"
         style="fill:#9ace5b;fill-opacity:1;fill-rule:evenodd;stroke:none"
         transform="matrix(1.3333333,0,0,-1.3333333,742.0364,500.78253)"
         clip-path="url(#clipPath46)" />
      <path
         id="path47"
         d="M 0,0 C -6.607,3.296 -10.219,8.873 -11.727,16.052 -3.587,13.393 0.399,8.092 0,0"
         style="fill:#9ace5b;fill-opacity:1;fill-rule:evenodd;stroke:none"
         transform="matrix(1.3333333,0,0,-1.3333333,740.73693,556.5416)"
         clip-path="url(#clipPath48)" />
      <path
         id="path49"
         d="m 0,0 2.43,-66.486 2.433,-66.486 H 0 -4.865 l 2.431,66.486 z"
         style="fill:#845b43;fill-opacity:1;fill-rule:evenodd;stroke:none"
         transform="matrix(1.3333333,0,0,-1.3333333,464.4584,462.16933)"
         clip-path="url(#clipPath50)" />
      <path
         id="path51"
         d="m 0,0 2.43,-66.486 2.433,-66.486 H 0 Z"
         style="fill:#764b36;fill-opacity:1;fill-rule:evenodd;stroke:none"
         transform="matrix(1.3333333,0,0,-1.3333333,464.4584,462.16933)"
         clip-path="url(#clipPath52)" />
      <path
         id="path53"
         d="M 0,0 C 12.872,0 23.307,-53.779 23.307,-93.792 23.307,-133.807 12.872,-144.9 0,-144.9 c -12.872,0 -23.306,11.093 -23.306,51.108 C -23.306,-53.779 -12.872,0 0,0"
         style="fill:#74a542;fill-opacity:1;fill-rule:evenodd;stroke:none"
         transform="matrix(1.3333333,0,0,-1.3333333,463.3372,387.10093)"
         clip-path="url(#clipPath54)" />
      <path
         id="path55"
         d="M 0,0 C 0.723,0 1.437,-0.18 2.143,-0.505 -10.099,-16.058 -20.932,-102.904 -1.724,-144.83 -13.791,-143.841 -23.306,-132 -23.306,-93.792 -23.306,-53.779 -12.872,0 0,0"
         style="fill:#9ace5b;fill-opacity:1;fill-rule:evenodd;stroke:none"
         transform="matrix(1.3333333,0,0,-1.3333333,463.3372,387.10093)"
         clip-path="url(#clipPath56)" />
      <path
         id="path57"
         d="M 0,0 C 6.966,1.479 11.71,5.4 13.059,13.056 6.002,11.486 1.95,6.824 0,0 m -5.195,-39.736 c 8.694,-1.031 14.474,1.825 17.551,8.284 -8.904,1.438 -14.637,-1.486 -17.551,-8.284 m 6.74,-57.99 c 11.156,5.568 17.251,14.984 19.797,27.101 C 7.603,-75.114 0.871,-84.063 1.545,-97.726"
         style="fill:#9ace5b;fill-opacity:1;fill-rule:evenodd;stroke:none"
         transform="matrix(1.3333333,0,0,-1.3333333,447.61067,434.27733)"
         clip-path="url(#clipPath58)" />
      <path
         id="path59"
         d="M 0,0 C 6.963,1.481 11.708,5.402 13.056,13.058 6,11.488 1.95,6.824 0,0"
         style="fill:#74a542;fill-opacity:1;fill-rule:evenodd;stroke:none"
         transform="matrix(1.3333333,0,0,-1.3333333,475.32027,438.584)"
         clip-path="url(#clipPath60)" />
      <path
         id="path61"
         d="M 0,0 C 8.693,-1.03 14.474,1.825 17.55,8.284 8.646,9.721 2.913,6.799 0,0"
         style="fill:#74a542;fill-opacity:1;fill-rule:evenodd;stroke:none"
         transform="matrix(1.3333333,0,0,-1.3333333,481.44667,482.67053)"
         clip-path="url(#clipPath62)" />
      <path
         id="path63"
         d="M 0,0 C 11.157,5.564 17.254,14.981 19.798,27.098 6.057,22.608 -0.674,13.66 0,0"
         style="fill:#74a542;fill-opacity:1;fill-rule:evenodd;stroke:none"
         transform="matrix(1.3333333,0,0,-1.3333333,478.5,550.3464)"
         clip-path="url(#clipPath64)" />
      <path
         id="path65"
         d="M 0,0 C -3.685,3.545 -5.092,7.736 -3.009,12.918 0.699,9.283 1.4,4.901 0,0"
         style="fill:#9ace5b;fill-opacity:1;fill-rule:evenodd;stroke:none"
         transform="matrix(1.3333333,0,0,-1.3333333,444.79173,430.83787)"
         clip-path="url(#clipPath66)" />
      <path
         id="path67"
         d="M 0,0 C -6.097,-0.721 -10.149,1.282 -12.308,5.81 -6.063,6.817 -2.042,4.768 0,0"
         style="fill:#9ace5b;fill-opacity:1;fill-rule:evenodd;stroke:none"
         transform="matrix(1.3333333,0,0,-1.3333333,439.64187,481.59373)"
         clip-path="url(#clipPath68)" />
      <path
         id="path69"
         d="M 0,0 C -7.525,3.752 -11.634,10.103 -13.352,18.272 -4.085,15.246 0.455,9.213 0,0"
         style="fill:#9ace5b;fill-opacity:1;fill-rule:evenodd;stroke:none"
         transform="matrix(1.3333333,0,0,-1.3333333,438.166,545.06773)"
         clip-path="url(#clipPath70)" />
      <path
         id="path71"
         d="m 0,0 2.433,-66.486 2.431,-66.486 H 0 -4.863 l 2.431,66.486 z"
         style="fill:#845b43;fill-opacity:1;fill-rule:evenodd;stroke:none"
         transform="matrix(1.3333333,0,0,-1.3333333,141.2708,462.16933)"
         clip-path="url(#clipPath72)" />
      <path
         id="path73"
         d="m 0,0 2.433,-66.486 2.431,-66.486 H 0 Z"
         style="fill:#764b36;fill-opacity:1;fill-rule:evenodd;stroke:none"
         transform="matrix(1.3333333,0,0,-1.3333333,141.2708,462.16933)"
         clip-path="url(#clipPath74)" />
      <path
         id="path75"
         d="M 0,0 C 12.873,0 23.308,-53.779 23.308,-93.792 23.308,-133.807 12.873,-144.9 0,-144.9 c -12.872,0 -23.307,11.093 -23.307,51.108 C -23.307,-53.779 -12.872,0 0,0"
         style="fill:#74a542;fill-opacity:1;fill-rule:evenodd;stroke:none"
         transform="matrix(1.3333333,0,0,-1.3333333,140.1524,387.10093)"
         clip-path="url(#clipPath76)" />
      <path
         id="path77"
         d="m 0,0 c 0.723,0 1.436,-0.18 2.141,-0.505 -12.24,-15.553 -23.072,-102.399 -3.866,-144.325 -12.066,0.989 -21.582,12.83 -21.582,51.038 C -23.307,-53.779 -12.872,0 0,0"
         style="fill:#9ace5b;fill-opacity:1;fill-rule:evenodd;stroke:none"
         transform="matrix(1.3333333,0,0,-1.3333333,140.1524,387.10093)"
         clip-path="url(#clipPath78)" />
      <path
         id="path79"
         d="M 0,0 C 6.964,1.479 11.71,5.4 13.059,13.056 6.003,11.486 1.951,6.824 0,0 m -5.194,-39.736 c 8.693,-1.031 14.472,1.825 17.551,8.284 -8.904,1.438 -14.638,-1.486 -17.551,-8.284 m 6.739,-57.99 c 11.157,5.568 17.252,14.984 19.798,27.101 C 7.602,-75.114 0.87,-84.063 1.545,-97.726"
         style="fill:#9ace5b;fill-opacity:1;fill-rule:evenodd;stroke:none"
         transform="matrix(1.3333333,0,0,-1.3333333,124.4264,434.27733)"
         clip-path="url(#clipPath80)" />
      <path
         id="path81"
         d="M 0,0 C 6.964,1.481 11.71,5.402 13.058,13.058 6.003,11.488 1.951,6.824 0,0"
         style="fill:#74a542;fill-opacity:1;fill-rule:evenodd;stroke:none"
         transform="matrix(1.3333333,0,0,-1.3333333,152.13413,438.584)"
         clip-path="url(#clipPath82)" />
      <path
         id="path83"
         d="M 0,0 C 8.692,-1.03 14.473,1.825 17.551,8.284 8.646,9.721 2.913,6.799 0,0"
         style="fill:#74a542;fill-opacity:1;fill-rule:evenodd;stroke:none"
         transform="matrix(1.3333333,0,0,-1.3333333,158.26307,482.67053)"
         clip-path="url(#clipPath84)" />
      <path
         id="path85"
         d="M 0,0 C 11.157,5.564 17.251,14.981 19.797,27.098 6.057,22.608 -0.675,13.66 0,0"
         style="fill:#74a542;fill-opacity:1;fill-rule:evenodd;stroke:none"
         transform="matrix(1.3333333,0,0,-1.3333333,155.31707,550.3464)"
         clip-path="url(#clipPath86)" />
      <path
         id="path87"
         d="M 0,0 C -3.686,3.545 -5.092,7.736 -3.009,12.918 0.698,9.283 1.399,4.901 0,0"
         style="fill:#9ace5b;fill-opacity:1;fill-rule:evenodd;stroke:none"
         transform="matrix(1.3333333,0,0,-1.3333333,121.60813,430.83787)"
         clip-path="url(#clipPath88)" />
      <path
         id="path89"
         d="M 0,0 C -6.096,-0.721 -10.149,1.282 -12.307,5.81 -6.063,6.817 -2.043,4.768 0,0"
         style="fill:#9ace5b;fill-opacity:1;fill-rule:evenodd;stroke:none"
         transform="matrix(1.3333333,0,0,-1.3333333,116.45773,481.59373)"
         clip-path="url(#clipPath90)" />
      <path
         id="path91"
         d="M 0,0 C -7.523,3.752 -11.633,10.103 -13.35,18.272 -4.085,15.246 0.456,9.213 0,0"
         style="fill:#9ace5b;fill-opacity:1;fill-rule:evenodd;stroke:none"
         transform="matrix(1.3333333,0,0,-1.3333333,114.97987,545.06773)"
         clip-path="url(#clipPath92)" />
      <path
         id="path93"
         d="m 0,0 0.043,-0.007 c 0.111,-0.015 0.223,-0.038 0.333,-0.065 l 0.135,-0.036 c 0.07,-0.019 0.14,-0.04 0.207,-0.066 l 0.021,-0.008 c 0.085,-0.03 0.169,-0.063 0.254,-0.099 l 0.021,-0.011 0.026,-0.011 0.021,-0.01 0.023,-0.01 c 3.577,-1.656 6.815,-9.158 9.334,-19.261 1.235,0.896 2.704,1.548 4.434,1.935 -0.499,-2.839 -1.673,-4.935 -3.397,-6.427 1.318,-6.186 2.383,-13.072 3.12,-20.048 1.821,0.603 4.003,0.714 6.564,0.3 -1.31,-2.749 -3.329,-4.555 -6.089,-5.37 0.44,-5.346 0.677,-10.657 0.677,-15.658 0,-1.21 -0.017,-2.382 -0.043,-3.517 1.597,0.962 3.427,1.777 5.48,2.449 -1.079,-5.139 -3.08,-9.572 -6.247,-13.124 C 13.081,-93.089 8.298,-98.672 2.415,-99.921 l 1.134,-30.976 H 0.184 -3.182 l 1.129,30.789 -0.233,0.029 -0.101,0.013 c -0.087,0.012 -0.174,0.027 -0.26,0.042 l -0.137,0.021 -0.245,0.046 -0.144,0.028 -0.237,0.055 -0.156,0.036 -0.22,0.055 -0.156,0.042 -0.245,0.072 -0.125,0.04 -0.239,0.078 -0.15,0.051 -0.217,0.08 -0.159,0.062 -0.207,0.084 -0.158,0.07 -0.216,0.097 -0.135,0.063 -0.228,0.114 -0.142,0.075 -0.21,0.111 -0.142,0.08 -0.22,0.132 -0.119,0.071 c -0.075,0.049 -0.151,0.095 -0.228,0.146 l -0.126,0.086 c -0.074,0.049 -0.148,0.098 -0.218,0.148 L -7.534,-98 c -0.08,0.057 -0.16,0.116 -0.238,0.175 l -0.057,0.047 c -0.093,0.069 -0.184,0.143 -0.275,0.217 l -0.042,0.039 c -0.097,0.078 -0.19,0.158 -0.286,0.242 -0.107,0.095 -0.213,0.192 -0.318,0.292 -0.199,0.187 -0.389,0.384 -0.582,0.587 l -0.048,0.052 c -0.072,0.078 -0.143,0.16 -0.216,0.242 l -0.101,0.114 c -0.065,0.076 -0.131,0.154 -0.194,0.234 l -0.11,0.129 c -0.065,0.082 -0.131,0.167 -0.197,0.251 l -0.099,0.129 -0.187,0.254 -0.115,0.158 -0.173,0.249 -0.115,0.169 -0.159,0.243 -0.131,0.207 -0.152,0.247 -0.121,0.205 -0.16,0.275 -0.105,0.188 -0.164,0.305 -0.102,0.194 -0.158,0.308 -0.104,0.21 -0.15,0.314 -0.103,0.222 -0.142,0.317 -0.109,0.249 -0.136,0.322 -0.099,0.247 -0.133,0.334 -0.104,0.269 c -0.042,0.113 -0.085,0.227 -0.127,0.343 l -0.086,0.238 -0.142,0.405 -0.058,0.174 c -0.053,0.157 -0.105,0.315 -0.156,0.476 l -0.048,0.156 c -0.053,0.167 -0.106,0.332 -0.157,0.503 l -0.003,0.013 c -0.065,0.213 -0.127,0.431 -0.189,0.652 l -0.007,0.026 c -0.065,0.23 -0.127,0.463 -0.19,0.699 l -0.002,0.007 c -0.06,0.236 -0.12,0.475 -0.179,0.716 -0.047,0.192 -0.092,0.39 -0.138,0.589 l -0.04,0.167 -0.103,0.473 -0.07,0.323 -0.084,0.414 -0.08,0.404 -0.076,0.397 -0.079,0.431 -0.073,0.421 -0.073,0.428 -0.073,0.456 -0.014,0.096 c -3.943,2.655 -6.2,6.593 -7.224,11.471 2.743,-0.896 4.886,-2.174 6.417,-3.84 l -0.003,0.04 -0.036,0.627 -0.029,0.501 -0.026,0.52 -0.029,0.625 -0.02,0.495 -0.023,0.623 -0.021,0.699 -0.013,0.45 -0.015,0.687 -0.011,0.545 v 0.038 c -0.007,0.376 -0.012,0.757 -0.015,1.142 v 0.058 c -0.004,0.403 -0.006,0.81 -0.006,1.224 0,5.065 0.242,10.45 0.692,15.867 -2.511,0.376 -4.289,1.73 -5.375,4.007 2.332,0.378 4.216,0.137 5.678,-0.682 0.858,8.724 2.238,17.385 3.998,24.778 -1.362,2.054 -1.679,4.402 -0.572,7.153 0.786,-0.77 1.376,-1.59 1.789,-2.454 2.734,9.653 6.176,16.208 9.913,16.208 C -0.264,0.025 -0.131,0.017 0,0"
         style="fill:#a8d86a;fill-opacity:1;fill-rule:evenodd;stroke:none"
         transform="matrix(1.3333333,0,0,-1.3333333,238.63413,464.93493)"
         clip-path="url(#clipPath94)" />
      <path
         id="path95"
         d="m 0,0 0.032,-0.004 c 0.087,-0.013 0.173,-0.03 0.26,-0.051 l 0.106,-0.03 C 0.452,-0.1 0.505,-0.116 0.558,-0.136 L 0.575,-0.142 C 0.642,-0.165 0.706,-0.192 0.773,-0.22 L 0.79,-0.229 0.807,-0.236 0.824,-0.243 0.843,-0.252 c 2.785,-1.288 5.307,-7.132 7.265,-14.995 0.964,0.695 2.109,1.204 3.453,1.505 -0.39,-2.208 -1.302,-3.841 -2.645,-5.003 1.03,-4.815 1.859,-10.179 2.431,-15.611 1.418,0.474 3.116,0.558 5.111,0.235 -1.021,-2.14 -2.591,-3.545 -4.741,-4.181 0.342,-4.162 0.526,-8.296 0.526,-12.189 0,-0.943 -0.011,-1.856 -0.034,-2.739 1.244,0.748 2.668,1.384 4.268,1.906 -0.841,-3.999 -2.398,-7.453 -4.864,-10.216 -1.43,-10.936 -5.152,-15.283 -9.733,-16.255 l 0.881,-24.117 h -2.619 -2.62 l 0.877,23.97 -0.18,0.022 -0.078,0.011 c -0.068,0.01 -0.135,0.021 -0.203,0.034 l -0.107,0.017 -0.191,0.036 -0.112,0.02 -0.183,0.043 -0.121,0.027 -0.173,0.044 -0.123,0.035 -0.19,0.054 -0.097,0.03 -0.184,0.061 -0.118,0.04 -0.169,0.064 -0.123,0.047 -0.162,0.067 -0.123,0.053 -0.169,0.076 -0.105,0.049 -0.178,0.088 -0.11,0.057 -0.164,0.089 -0.108,0.063 -0.172,0.099 -0.092,0.058 c -0.059,0.038 -0.118,0.074 -0.178,0.114 l -0.101,0.067 c -0.055,0.038 -0.112,0.077 -0.167,0.117 l -0.085,0.058 c -0.061,0.047 -0.124,0.091 -0.183,0.14 l -0.047,0.034 c -0.072,0.055 -0.144,0.111 -0.213,0.171 l -0.034,0.027 c -0.074,0.064 -0.148,0.125 -0.222,0.191 -0.082,0.074 -0.164,0.149 -0.249,0.227 -0.152,0.147 -0.302,0.299 -0.452,0.457 l -0.038,0.04 c -0.055,0.062 -0.11,0.125 -0.165,0.188 l -0.08,0.089 c -0.051,0.059 -0.102,0.123 -0.153,0.181 l -0.084,0.102 c -0.051,0.065 -0.101,0.131 -0.152,0.196 l -0.081,0.102 -0.143,0.196 -0.089,0.123 -0.135,0.194 -0.088,0.133 -0.127,0.189 -0.102,0.16 -0.118,0.194 -0.093,0.158 -0.124,0.214 -0.083,0.148 -0.127,0.234 -0.08,0.152 -0.123,0.242 -0.08,0.162 -0.118,0.245 -0.08,0.174 -0.11,0.245 -0.085,0.194 -0.106,0.251 -0.078,0.192 -0.103,0.26 -0.08,0.209 c -0.034,0.089 -0.068,0.178 -0.1,0.267 l -0.065,0.187 -0.11,0.314 -0.047,0.137 c -0.042,0.12 -0.082,0.245 -0.122,0.37 l -0.038,0.12 c -0.04,0.131 -0.08,0.26 -0.121,0.392 l -0.002,0.011 c -0.05,0.167 -0.099,0.336 -0.147,0.507 l -0.007,0.021 c -0.049,0.18 -0.099,0.36 -0.146,0.545 l -0.002,0.005 c -0.048,0.182 -0.095,0.367 -0.141,0.555 -0.036,0.152 -0.072,0.305 -0.106,0.459 l -0.031,0.131 -0.081,0.37 -0.055,0.251 -0.065,0.321 -0.062,0.315 -0.059,0.308 -0.061,0.336 -0.057,0.327 -0.057,0.334 -0.055,0.358 -0.013,0.071 c -3.069,2.068 -4.827,5.136 -5.623,8.933 2.133,-0.698 3.802,-1.693 4.994,-2.992 v 0.034 l -0.03,0.486 -0.021,0.391 -0.021,0.405 -0.024,0.488 -0.014,0.385 -0.017,0.483 -0.017,0.543 -0.011,0.353 -0.012,0.535 -0.009,0.422 v 0.032 c -0.006,0.291 -0.008,0.587 -0.01,0.887 v 0.045 c -0.004,0.316 -0.004,0.633 -0.004,0.955 0,3.944 0.188,8.135 0.536,12.352 -1.954,0.293 -3.337,1.348 -4.183,3.122 1.815,0.291 3.281,0.106 4.42,-0.532 0.667,6.792 1.743,13.533 3.111,19.292 -1.058,1.598 -1.305,3.425 -0.445,5.569 0.613,-0.6 1.073,-1.24 1.394,-1.912 2.13,7.515 4.808,12.618 7.72,12.618 C -0.207,0.018 -0.104,0.013 0,0"
         style="fill:#a8d86a;fill-opacity:1;fill-rule:evenodd;stroke:none"
         transform="matrix(1.3333333,0,0,-1.3333333,292.5084,503.582)"
         clip-path="url(#clipPath96)" />
      <path
         id="path97"
         d="M 0,0 0.04,-0.004 C 0.146,-0.018 0.252,-0.04 0.357,-0.067 l 0.131,-0.035 c 0.068,-0.018 0.131,-0.04 0.194,-0.063 l 0.024,-0.008 c 0.08,-0.027 0.16,-0.059 0.238,-0.095 l 0.024,-0.01 0.023,-0.009 0.021,-0.011 0.021,-0.011 c 3.41,-1.578 6.498,-8.731 8.898,-18.362 1.179,0.854 2.578,1.477 4.228,1.844 -0.475,-2.706 -1.595,-4.702 -3.239,-6.126 1.259,-5.897 2.273,-12.465 2.975,-19.115 1.736,0.577 3.815,0.68 6.257,0.287 -1.246,-2.621 -3.173,-4.341 -5.803,-5.121 0.418,-5.096 0.644,-10.159 0.644,-14.928 0,-1.153 -0.014,-2.271 -0.042,-3.353 1.525,0.917 3.266,1.695 5.227,2.335 -1.029,-4.899 -2.937,-9.128 -5.958,-12.513 -1.749,-13.39 -6.308,-18.713 -11.917,-19.903 l 1.079,-29.534 H 0.175 -3.034 l 1.076,29.355 -0.22,0.027 -0.097,0.013 c -0.085,0.012 -0.167,0.025 -0.249,0.04 l -0.132,0.021 -0.232,0.044 -0.135,0.026 -0.228,0.05 -0.148,0.037 -0.211,0.052 -0.148,0.04 -0.235,0.068 -0.118,0.038 -0.226,0.074 -0.144,0.051 -0.209,0.076 -0.15,0.059 -0.199,0.08 -0.152,0.065 -0.204,0.094 -0.129,0.06 -0.218,0.109 -0.133,0.069 -0.203,0.107 -0.133,0.079 -0.209,0.123 -0.114,0.069 c -0.072,0.045 -0.146,0.091 -0.218,0.138 l -0.121,0.082 c -0.071,0.048 -0.139,0.095 -0.207,0.143 l -0.103,0.074 c -0.076,0.055 -0.15,0.113 -0.228,0.169 l -0.053,0.042 c -0.089,0.071 -0.177,0.138 -0.262,0.21 l -0.042,0.035 c -0.091,0.075 -0.182,0.153 -0.271,0.231 -0.101,0.091 -0.202,0.184 -0.304,0.281 -0.188,0.175 -0.371,0.363 -0.553,0.558 l -0.047,0.051 c -0.069,0.074 -0.137,0.152 -0.207,0.228 l -0.095,0.11 c -0.063,0.072 -0.125,0.148 -0.188,0.223 l -0.101,0.123 c -0.064,0.078 -0.127,0.158 -0.188,0.239 l -0.095,0.125 -0.178,0.241 -0.109,0.149 -0.166,0.239 -0.109,0.163 -0.152,0.23 -0.125,0.196 -0.146,0.24 -0.114,0.192 -0.152,0.264 -0.101,0.179 -0.157,0.287 -0.097,0.189 -0.15,0.291 -0.099,0.201 -0.144,0.3 -0.097,0.211 -0.135,0.302 -0.106,0.239 -0.129,0.306 -0.095,0.235 -0.126,0.318 -0.098,0.258 c -0.042,0.108 -0.084,0.216 -0.122,0.325 l -0.083,0.229 -0.135,0.384 -0.055,0.167 c -0.05,0.15 -0.099,0.3 -0.15,0.455 l -0.046,0.147 c -0.049,0.159 -0.097,0.317 -0.148,0.48 l -0.004,0.012 c -0.06,0.205 -0.121,0.412 -0.178,0.621 l -0.008,0.026 c -0.062,0.219 -0.123,0.441 -0.182,0.668 v 0.006 c -0.059,0.224 -0.114,0.452 -0.173,0.682 -0.042,0.184 -0.087,0.372 -0.131,0.56 l -0.038,0.161 -0.097,0.452 -0.068,0.309 -0.08,0.392 -0.076,0.385 -0.072,0.38 -0.076,0.41 -0.068,0.401 -0.072,0.41 -0.067,0.435 -0.015,0.089 c -3.758,2.533 -5.911,6.287 -6.889,10.937 2.615,-0.853 4.66,-2.073 6.12,-3.662 l -0.002,0.038 -0.036,0.599 -0.028,0.478 -0.025,0.496 -0.025,0.595 -0.021,0.471 -0.021,0.594 -0.022,0.666 -0.012,0.431 -0.013,0.655 -0.01,0.519 -0.002,0.036 c -0.005,0.359 -0.009,0.723 -0.013,1.088 v 0.055 c -0.004,0.387 -0.004,0.775 -0.004,1.168 0,4.83 0.23,9.964 0.659,15.127 -2.394,0.361 -4.09,1.651 -5.125,3.823 2.222,0.359 4.018,0.129 5.412,-0.652 0.82,8.319 2.134,16.575 3.811,23.625 -1.297,1.956 -1.599,4.196 -0.545,6.819 0.752,-0.734 1.314,-1.516 1.707,-2.341 2.607,9.203 5.888,15.454 9.452,15.454 C -0.251,0.025 -0.127,0.017 0,0"
         style="fill:#a8d86a;fill-opacity:1;fill-rule:evenodd;stroke:none"
         transform="matrix(1.3333333,0,0,-1.3333333,322.1556,473.06773)"
         clip-path="url(#clipPath98)" />
      <path
         id="path99"
         d="M 0,0 0.04,-0.004 C 0.146,-0.018 0.254,-0.04 0.359,-0.067 L 0.488,-0.102 C 0.556,-0.12 0.619,-0.142 0.685,-0.165 L 0.708,-0.173 C 0.786,-0.2 0.866,-0.232 0.946,-0.268 l 0.024,-0.01 0.021,-0.009 0.021,-0.011 0.021,-0.011 c 3.412,-1.578 6.498,-8.731 8.899,-18.362 1.178,0.854 2.579,1.477 4.227,1.844 -0.475,-2.706 -1.595,-4.702 -3.239,-6.126 1.26,-5.897 2.275,-12.465 2.977,-19.115 1.734,0.577 3.815,0.68 6.257,0.287 -1.25,-2.621 -3.173,-4.341 -5.805,-5.121 0.419,-5.096 0.644,-10.159 0.644,-14.928 0,-1.153 -0.014,-2.271 -0.04,-3.353 1.524,0.917 3.267,1.695 5.225,2.335 -1.03,-4.899 -2.937,-9.128 -5.955,-12.513 -1.75,-13.39 -6.311,-18.713 -11.92,-19.903 l 1.08,-29.534 H 0.176 -3.031 l 1.073,29.355 -0.22,0.027 -0.097,0.013 c -0.084,0.012 -0.164,0.025 -0.249,0.04 l -0.131,0.021 -0.233,0.044 -0.135,0.026 -0.228,0.05 -0.148,0.037 -0.211,0.052 -0.148,0.04 -0.232,0.068 -0.121,0.038 -0.226,0.074 -0.143,0.051 -0.207,0.076 -0.153,0.059 -0.198,0.08 -0.151,0.065 -0.205,0.094 -0.13,0.06 -0.216,0.109 -0.135,0.069 -0.203,0.107 -0.131,0.079 -0.211,0.123 -0.114,0.069 c -0.073,0.045 -0.146,0.091 -0.218,0.138 l -0.12,0.082 c -0.072,0.048 -0.14,0.095 -0.207,0.143 l -0.104,0.074 c -0.076,0.055 -0.15,0.113 -0.226,0.169 l -0.055,0.042 c -0.089,0.071 -0.175,0.138 -0.262,0.21 l -0.042,0.035 c -0.089,0.075 -0.181,0.153 -0.27,0.231 -0.102,0.091 -0.203,0.184 -0.305,0.281 -0.187,0.175 -0.372,0.363 -0.553,0.558 l -0.046,0.051 c -0.068,0.074 -0.138,0.152 -0.205,0.228 l -0.098,0.11 c -0.061,0.072 -0.124,0.148 -0.186,0.223 l -0.103,0.123 c -0.064,0.078 -0.125,0.158 -0.188,0.239 l -0.095,0.125 -0.177,0.241 -0.11,0.149 -0.166,0.239 -0.109,0.163 -0.152,0.23 -0.125,0.196 -0.146,0.24 -0.114,0.192 -0.152,0.264 -0.101,0.179 -0.156,0.287 -0.098,0.189 -0.149,0.291 -0.1,0.201 -0.143,0.3 -0.098,0.211 -0.135,0.302 -0.105,0.239 -0.129,0.306 -0.096,0.235 -0.127,0.318 -0.097,0.258 c -0.042,0.108 -0.082,0.216 -0.123,0.325 l -0.08,0.229 -0.134,0.384 -0.058,0.167 c -0.048,0.15 -0.099,0.3 -0.149,0.455 l -0.045,0.147 c -0.051,0.159 -0.099,0.317 -0.15,0.48 l -0.002,0.012 c -0.061,0.205 -0.121,0.412 -0.179,0.621 l -0.009,0.026 c -0.059,0.219 -0.12,0.441 -0.18,0.668 l -0.002,0.006 c -0.058,0.224 -0.114,0.452 -0.171,0.682 -0.045,0.184 -0.089,0.372 -0.131,0.56 l -0.038,0.161 -0.099,0.452 -0.068,0.309 -0.078,0.392 -0.078,0.385 -0.07,0.38 -0.078,0.41 -0.068,0.401 -0.069,0.41 -0.071,0.435 -0.012,0.089 c -3.76,2.533 -5.911,6.287 -6.889,10.937 2.615,-0.853 4.658,-2.073 6.118,-3.662 l -0.002,0.038 -0.036,0.599 -0.027,0.478 -0.023,0.496 -0.028,0.595 -0.021,0.471 -0.022,0.594 -0.02,0.666 -0.011,0.431 -0.015,0.655 -0.01,0.519 v 0.036 c -0.006,0.359 -0.011,0.723 -0.015,1.088 v 0.055 c -0.002,0.387 -0.004,0.775 -0.004,1.168 0,4.83 0.232,9.964 0.659,15.127 -2.394,0.361 -4.091,1.651 -5.126,3.823 2.223,0.359 4.019,0.129 5.413,-0.652 0.82,8.319 2.136,16.575 3.811,23.625 -1.297,1.956 -1.597,4.196 -0.545,6.819 0.752,-0.734 1.314,-1.516 1.709,-2.341 2.605,9.203 5.889,15.454 9.45,15.454 C -0.251,0.025 -0.125,0.017 0,0"
         style="fill:#a8d86a;fill-opacity:1;fill-rule:evenodd;stroke:none"
         transform="matrix(1.3333333,0,0,-1.3333333,568.77347,473.06773)"
         clip-path="url(#clipPath100)" />
      <path
         id="path101"
         d="m 0,0 0.045,-0.006 c 0.111,-0.016 0.226,-0.038 0.338,-0.065 l 0.139,-0.038 c 0.07,-0.022 0.139,-0.042 0.207,-0.068 l 0.023,-0.009 c 0.087,-0.029 0.171,-0.063 0.256,-0.101 l 0.023,-0.011 0.024,-0.01 0.022,-0.008 0.026,-0.013 c 3.629,-1.68 6.915,-9.294 9.468,-19.544 1.255,0.906 2.744,1.572 4.502,1.963 -0.507,-2.88 -1.7,-5.007 -3.449,-6.522 1.341,-6.277 2.421,-13.267 3.169,-20.346 1.846,0.614 4.061,0.726 6.658,0.305 -1.328,-2.79 -3.376,-4.622 -6.177,-5.45 0.446,-5.423 0.685,-10.814 0.685,-15.889 0,-1.227 -0.015,-2.417 -0.043,-3.568 1.623,0.976 3.478,1.804 5.563,2.484 -1.096,-5.213 -3.128,-9.713 -6.34,-13.318 -1.862,-14.251 -6.716,-19.92 -12.686,-21.184 l 1.149,-31.436 H 0.189 -3.226 l 1.143,31.243 -0.236,0.031 -0.102,0.013 c -0.089,0.013 -0.176,0.027 -0.264,0.042 l -0.141,0.024 -0.248,0.046 -0.144,0.028 -0.24,0.054 -0.159,0.037 -0.224,0.056 -0.158,0.043 -0.249,0.073 -0.127,0.039 -0.241,0.081 -0.152,0.052 -0.222,0.082 -0.16,0.062 -0.211,0.086 -0.161,0.07 -0.22,0.1 -0.135,0.062 -0.232,0.116 -0.142,0.075 -0.216,0.116 -0.143,0.08 -0.224,0.131 -0.118,0.076 c -0.078,0.047 -0.157,0.096 -0.233,0.146 l -0.128,0.088 c -0.075,0.049 -0.149,0.1 -0.222,0.151 l -0.108,0.08 c -0.083,0.059 -0.163,0.118 -0.244,0.18 l -0.056,0.046 c -0.093,0.072 -0.188,0.144 -0.28,0.222 l -0.044,0.036 c -0.096,0.08 -0.192,0.162 -0.287,0.247 -0.11,0.097 -0.217,0.197 -0.325,0.298 -0.199,0.188 -0.395,0.389 -0.59,0.596 l -0.049,0.053 c -0.073,0.078 -0.145,0.16 -0.216,0.243 l -0.104,0.116 c -0.068,0.078 -0.134,0.158 -0.199,0.238 l -0.109,0.131 c -0.069,0.085 -0.134,0.169 -0.2,0.256 l -0.103,0.131 -0.19,0.256 -0.116,0.16 -0.176,0.254 -0.116,0.173 -0.16,0.245 -0.134,0.209 -0.156,0.254 -0.12,0.205 -0.163,0.281 -0.108,0.189 -0.165,0.309 -0.105,0.198 -0.158,0.311 -0.106,0.214 -0.154,0.319 -0.102,0.226 -0.145,0.321 -0.111,0.254 -0.136,0.327 -0.102,0.249 -0.136,0.34 -0.105,0.272 c -0.042,0.114 -0.089,0.231 -0.131,0.349 l -0.085,0.241 -0.143,0.41 -0.059,0.177 c -0.055,0.159 -0.108,0.319 -0.161,0.482 l -0.048,0.159 c -0.053,0.169 -0.106,0.337 -0.159,0.51 l -0.004,0.013 c -0.064,0.218 -0.127,0.439 -0.19,0.662 l -0.008,0.027 c -0.064,0.235 -0.127,0.471 -0.191,0.71 l -0.002,0.006 c -0.061,0.24 -0.125,0.482 -0.183,0.727 -0.047,0.196 -0.094,0.397 -0.14,0.598 l -0.04,0.171 -0.103,0.48 -0.073,0.327 -0.084,0.418 -0.085,0.41 -0.076,0.405 -0.078,0.436 -0.073,0.427 -0.076,0.437 -0.073,0.463 -0.016,0.095 c -4.001,2.695 -6.292,6.692 -7.331,11.64 2.784,-0.908 4.961,-2.206 6.51,-3.897 v 0.042 l -0.038,0.636 -0.029,0.509 -0.025,0.526 -0.03,0.636 -0.021,0.503 -0.024,0.631 -0.02,0.708 -0.013,0.458 -0.014,0.698 -0.013,0.551 v 0.04 c -0.007,0.382 -0.013,0.767 -0.015,1.158 l -0.003,0.059 c 0,0.409 -0.002,0.824 -0.002,1.242 0,5.14 0.245,10.606 0.7,16.103 -2.548,0.382 -4.352,1.755 -5.453,4.066 2.365,0.382 4.279,0.14 5.761,-0.693 0.871,8.855 2.272,17.643 4.057,25.147 -1.382,2.083 -1.703,4.466 -0.579,7.258 0.799,-0.783 1.396,-1.615 1.817,-2.492 2.774,9.796 6.266,16.448 10.058,16.448 C -0.266,0.025 -0.133,0.018 0,0"
         style="fill:#a8d86a;fill-opacity:1;fill-rule:evenodd;stroke:none"
         transform="matrix(1.3333333,0,0,-1.3333333,599.92187,462.3528)"
         clip-path="url(#clipPath102)" />
      <path
         id="path103"
         d="m 0,0 0.032,-0.004 c 0.08,-0.011 0.16,-0.027 0.24,-0.047 l 0.1,-0.027 c 0.049,-0.015 0.1,-0.029 0.148,-0.047 l 0.017,-0.006 c 0.059,-0.021 0.12,-0.047 0.182,-0.072 L 0.735,-0.211 0.75,-0.218 0.768,-0.224 0.784,-0.232 c 2.584,-1.196 4.92,-6.613 6.737,-13.906 0.894,0.645 1.955,1.118 3.203,1.397 -0.362,-2.049 -1.208,-3.562 -2.454,-4.639 0.954,-4.467 1.723,-9.439 2.255,-14.475 1.312,0.436 2.888,0.514 4.737,0.216 -0.945,-1.985 -2.403,-3.289 -4.395,-3.876 0.318,-3.86 0.488,-7.694 0.488,-11.304 0,-0.875 -0.01,-1.72 -0.031,-2.54 1.155,0.693 2.474,1.283 3.957,1.768 -0.78,-3.71 -2.224,-6.912 -4.511,-9.477 C 9.445,-67.206 5.994,-71.237 1.745,-72.14 l 0.817,-22.363 h -2.428 -2.43 l 0.814,22.229 -0.167,0.021 -0.073,0.008 c -0.063,0.011 -0.124,0.021 -0.187,0.032 l -0.102,0.015 -0.176,0.033 -0.101,0.021 -0.173,0.039 -0.112,0.025 -0.16,0.04 -0.113,0.032 -0.175,0.05 -0.09,0.028 -0.172,0.057 -0.11,0.038 -0.156,0.057 -0.114,0.045 -0.15,0.06 -0.116,0.051 -0.154,0.07 -0.098,0.046 -0.167,0.083 -0.099,0.053 -0.154,0.082 -0.101,0.058 -0.159,0.092 -0.084,0.053 c -0.057,0.036 -0.113,0.069 -0.165,0.105 l -0.093,0.062 c -0.053,0.036 -0.106,0.071 -0.156,0.109 l -0.079,0.056 c -0.056,0.042 -0.114,0.084 -0.172,0.128 l -0.041,0.032 c -0.066,0.051 -0.133,0.104 -0.199,0.158 l -0.031,0.026 c -0.068,0.057 -0.136,0.116 -0.205,0.176 -0.076,0.069 -0.154,0.138 -0.23,0.21 -0.142,0.135 -0.282,0.277 -0.418,0.425 l -0.037,0.038 c -0.052,0.055 -0.103,0.115 -0.154,0.173 l -0.074,0.083 c -0.048,0.055 -0.095,0.112 -0.142,0.169 l -0.078,0.095 c -0.046,0.06 -0.094,0.118 -0.141,0.18 l -0.074,0.094 -0.133,0.182 -0.084,0.114 -0.125,0.182 -0.082,0.12 -0.115,0.176 -0.094,0.15 -0.111,0.179 -0.087,0.146 -0.116,0.201 -0.075,0.135 -0.119,0.218 -0.073,0.141 -0.115,0.222 -0.074,0.152 -0.107,0.226 -0.077,0.16 -0.101,0.229 -0.08,0.182 -0.098,0.232 -0.071,0.178 -0.098,0.24 -0.073,0.194 c -0.03,0.083 -0.062,0.165 -0.094,0.247 l -0.06,0.174 -0.102,0.291 -0.042,0.127 c -0.038,0.113 -0.076,0.227 -0.112,0.343 l -0.036,0.111 c -0.038,0.121 -0.076,0.241 -0.112,0.364 l -0.005,0.01 c -0.043,0.155 -0.09,0.311 -0.134,0.472 l -0.007,0.019 c -0.044,0.165 -0.091,0.334 -0.135,0.504 l -0.002,0.004 c -0.045,0.169 -0.087,0.343 -0.129,0.516 -0.034,0.14 -0.068,0.283 -0.101,0.427 l -0.028,0.121 -0.074,0.34 -0.051,0.236 -0.061,0.296 -0.057,0.291 -0.054,0.288 -0.058,0.311 -0.053,0.303 -0.053,0.311 -0.052,0.33 -0.011,0.067 c -2.846,1.918 -4.477,4.762 -5.216,8.281 1.982,-0.646 3.528,-1.567 4.633,-2.771 l -0.002,0.029 -0.025,0.452 -0.022,0.362 -0.018,0.376 -0.022,0.452 -0.015,0.357 -0.014,0.448 -0.017,0.504 -0.009,0.326 -0.01,0.497 -0.008,0.392 v 0.028 c -0.005,0.272 -0.009,0.548 -0.011,0.826 v 0.04 c -0.002,0.292 -0.005,0.586 -0.005,0.886 0,3.656 0.176,7.544 0.501,11.454 -1.814,0.272 -3.098,1.249 -3.881,2.894 1.684,0.273 3.042,0.097 4.099,-0.494 0.619,6.3 1.616,12.551 2.886,17.89 -0.983,1.482 -1.211,3.177 -0.412,5.165 0.566,-0.558 0.993,-1.15 1.293,-1.773 1.973,6.97 4.458,11.703 7.155,11.703 C -0.189,0.02 -0.093,0.013 0,0"
         style="fill:#d3ec9e;fill-opacity:1;fill-rule:evenodd;stroke:none"
         transform="matrix(1.3333333,0,0,-1.3333333,646.94267,513.46093)"
         clip-path="url(#clipPath104)" />
      <path
         id="path105"
         d="M 0,0 0.025,-0.004 C 0.087,-0.012 0.15,-0.024 0.214,-0.04 L 0.29,-0.061 c 0.038,-0.01 0.078,-0.023 0.114,-0.038 L 0.419,-0.104 C 0.465,-0.12 0.512,-0.139 0.561,-0.16 l 0.012,-0.004 0.013,-0.007 0.013,-0.006 0.012,-0.005 c 2.011,-0.931 3.83,-5.148 5.246,-10.827 0.695,0.503 1.521,0.871 2.493,1.089 -0.282,-1.598 -0.941,-2.774 -1.91,-3.613 0.744,-3.478 1.341,-7.35 1.755,-11.271 1.023,0.342 2.248,0.404 3.689,0.171 -0.738,-1.546 -1.872,-2.56 -3.423,-3.018 0.248,-3.007 0.381,-5.992 0.381,-8.802 0,-0.682 -0.009,-1.339 -0.026,-1.977 0.9,0.54 1.927,0.999 3.082,1.375 -0.606,-2.887 -1.732,-5.381 -3.51,-7.375 -1.034,-7.895 -3.721,-11.034 -7.03,-11.735 L 1.997,-73.577 H 0.104 -1.787 l 0.634,17.306 -0.131,0.017 -0.055,0.006 c -0.051,0.009 -0.099,0.015 -0.148,0.023 l -0.078,0.013 -0.137,0.026 -0.078,0.016 -0.136,0.03 -0.086,0.021 -0.125,0.032 -0.087,0.023 -0.137,0.041 -0.072,0.02 -0.133,0.045 -0.085,0.029 -0.122,0.044 -0.088,0.036 -0.117,0.047 -0.091,0.038 -0.12,0.057 -0.076,0.034 -0.129,0.066 -0.078,0.04 -0.118,0.063 -0.081,0.046 -0.122,0.072 -0.068,0.042 c -0.042,0.026 -0.087,0.053 -0.128,0.08 l -0.073,0.049 c -0.04,0.027 -0.08,0.055 -0.12,0.085 l -0.061,0.044 c -0.044,0.031 -0.089,0.065 -0.133,0.1 l -0.032,0.025 c -0.053,0.04 -0.104,0.08 -0.157,0.122 l -0.023,0.022 c -0.053,0.044 -0.107,0.088 -0.16,0.136 -0.06,0.053 -0.12,0.109 -0.18,0.163 -0.109,0.106 -0.218,0.216 -0.325,0.332 l -0.027,0.028 c -0.04,0.044 -0.082,0.091 -0.121,0.135 l -0.057,0.065 c -0.038,0.043 -0.074,0.087 -0.11,0.131 l -0.061,0.074 c -0.038,0.047 -0.074,0.093 -0.112,0.14 l -0.055,0.074 -0.106,0.142 -0.063,0.087 -0.098,0.142 -0.065,0.096 -0.088,0.136 -0.074,0.115 -0.087,0.139 -0.067,0.117 -0.089,0.154 -0.06,0.105 -0.093,0.171 -0.058,0.111 -0.087,0.17 -0.06,0.119 -0.084,0.177 -0.057,0.124 -0.08,0.178 -0.061,0.142 -0.076,0.179 -0.058,0.14 -0.073,0.188 -0.058,0.15 c -0.025,0.065 -0.048,0.129 -0.074,0.192 l -0.046,0.135 -0.08,0.229 -0.032,0.096 c -0.029,0.089 -0.059,0.178 -0.089,0.269 l -0.027,0.087 c -0.03,0.093 -0.059,0.187 -0.086,0.283 l -0.003,0.006 c -0.035,0.12 -0.071,0.243 -0.108,0.368 l -0.003,0.015 c -0.037,0.129 -0.071,0.259 -0.107,0.392 v 0.004 c -0.033,0.132 -0.069,0.267 -0.101,0.401 -0.027,0.109 -0.052,0.22 -0.078,0.333 l -0.021,0.094 -0.06,0.265 -0.037,0.182 -0.049,0.232 -0.045,0.228 -0.042,0.224 -0.043,0.24 -0.043,0.238 -0.04,0.24 -0.042,0.258 -0.006,0.053 c -2.217,1.492 -3.487,3.705 -4.061,6.448 1.54,-0.505 2.744,-1.222 3.606,-2.16 l -0.002,0.024 -0.021,0.352 -0.016,0.282 -0.014,0.291 -0.017,0.352 -0.011,0.278 -0.012,0.35 -0.013,0.393 -0.008,0.254 -0.007,0.386 -0.005,0.307 -0.003,0.021 c -0.002,0.21 -0.004,0.424 -0.006,0.64 v 0.033 c -0.002,0.227 -0.004,0.457 -0.004,0.689 0,2.846 0.137,5.873 0.389,8.918 -1.412,0.213 -2.412,0.974 -3.022,2.254 1.31,0.211 2.37,0.076 3.192,-0.385 0.482,4.906 1.257,9.773 2.249,13.929 -0.768,1.153 -0.945,2.473 -0.324,4.02 0.444,-0.433 0.776,-0.893 1.008,-1.38 1.535,5.426 3.471,9.113 5.57,9.113 C -0.147,0.016 -0.073,0.009 0,0"
         style="fill:#d3ec9e;fill-opacity:1;fill-rule:evenodd;stroke:none"
         transform="matrix(1.3333333,0,0,-1.3333333,685.8372,541.362)"
         clip-path="url(#clipPath106)" />
      <path
         id="path107"
         d="m 0,0 0.03,-0.005 c 0.078,-0.01 0.155,-0.024 0.23,-0.044 l 0.096,-0.025 c 0.045,-0.015 0.092,-0.03 0.139,-0.044 l 0.017,-0.007 c 0.056,-0.021 0.116,-0.044 0.173,-0.069 l 0.014,-0.007 0.018,-0.006 0.015,-0.009 0.016,-0.006 c 2.461,-1.141 4.692,-6.306 6.425,-13.259 0.848,0.617 1.861,1.067 3.051,1.331 -0.343,-1.952 -1.152,-3.395 -2.339,-4.421 0.91,-4.257 1.641,-9 2.148,-13.802 1.255,0.418 2.755,0.492 4.519,0.207 -0.902,-1.891 -2.292,-3.133 -4.19,-3.695 0.301,-3.68 0.463,-7.337 0.463,-10.779 0,-0.835 -0.01,-1.639 -0.027,-2.421 1.098,0.663 2.357,1.223 3.771,1.686 -0.744,-3.536 -2.121,-6.589 -4.299,-9.033 -1.263,-9.668 -4.555,-13.513 -8.607,-14.37 L 2.444,-90.101 H 0.127 -2.188 l 0.775,21.192 -0.158,0.02 -0.07,0.009 c -0.061,0.009 -0.121,0.02 -0.179,0.029 l -0.096,0.015 -0.167,0.032 -0.099,0.019 -0.165,0.038 -0.105,0.023 -0.152,0.04 -0.108,0.031 -0.169,0.047 -0.085,0.028 -0.165,0.053 -0.103,0.036 -0.15,0.055 -0.108,0.042 -0.144,0.059 -0.109,0.047 -0.148,0.067 -0.093,0.045 -0.158,0.078 -0.095,0.051 -0.147,0.078 -0.096,0.055 -0.153,0.089 -0.08,0.05 c -0.053,0.032 -0.105,0.066 -0.158,0.099 l -0.087,0.06 c -0.051,0.036 -0.102,0.067 -0.15,0.103 l -0.074,0.055 c -0.055,0.038 -0.11,0.078 -0.165,0.12 l -0.038,0.032 c -0.063,0.049 -0.127,0.097 -0.19,0.15 l -0.029,0.025 c -0.066,0.056 -0.131,0.11 -0.197,0.167 -0.072,0.065 -0.146,0.134 -0.219,0.203 -0.136,0.127 -0.269,0.262 -0.4,0.403 l -0.034,0.037 c -0.048,0.052 -0.099,0.109 -0.148,0.165 l -0.07,0.08 c -0.044,0.05 -0.091,0.105 -0.133,0.16 l -0.076,0.089 c -0.044,0.057 -0.089,0.114 -0.135,0.174 l -0.07,0.087 -0.126,0.174 -0.081,0.11 -0.118,0.172 -0.08,0.116 -0.108,0.169 -0.09,0.141 -0.106,0.171 -0.083,0.14 -0.109,0.189 -0.074,0.129 -0.113,0.209 -0.069,0.136 -0.11,0.211 -0.07,0.143 -0.103,0.216 -0.072,0.155 -0.097,0.217 -0.074,0.173 -0.095,0.22 -0.068,0.171 -0.092,0.23 -0.071,0.184 c -0.029,0.078 -0.058,0.156 -0.088,0.237 l -0.059,0.164 -0.098,0.278 -0.04,0.12 c -0.036,0.107 -0.071,0.217 -0.107,0.327 l -0.034,0.108 c -0.037,0.113 -0.072,0.228 -0.108,0.346 l -0.002,0.009 c -0.045,0.148 -0.087,0.298 -0.129,0.45 l -0.006,0.016 c -0.042,0.159 -0.086,0.32 -0.129,0.482 l -0.002,0.005 c -0.042,0.162 -0.082,0.327 -0.124,0.492 -0.033,0.133 -0.064,0.271 -0.094,0.405 l -0.027,0.116 -0.072,0.326 -0.049,0.224 -0.057,0.283 -0.055,0.277 -0.053,0.274 -0.054,0.296 -0.049,0.289 -0.051,0.296 -0.051,0.316 -0.011,0.065 c -2.711,1.827 -4.266,4.537 -4.97,7.895 1.887,-0.616 3.361,-1.497 4.415,-2.643 l -0.002,0.029 -0.026,0.429 -0.018,0.347 -0.017,0.356 -0.021,0.432 -0.013,0.34 -0.016,0.428 -0.015,0.482 -0.009,0.308 -0.011,0.474 -0.005,0.376 -0.003,0.025 c -0.004,0.26 -0.006,0.522 -0.008,0.786 v 0.04 c -0.002,0.279 -0.005,0.558 -0.005,0.843 0,3.486 0.167,7.194 0.477,10.922 -1.729,0.258 -2.953,1.192 -3.701,2.76 1.606,0.26 2.904,0.093 3.909,-0.472 0.591,6.006 1.539,11.966 2.752,17.058 -0.937,1.411 -1.155,3.027 -0.394,4.922 0.543,-0.531 0.948,-1.094 1.233,-1.69 1.883,6.644 4.251,11.157 6.822,11.157 C -0.182,0.017 -0.091,0.011 0,0"
         style="fill:#d3ec9e;fill-opacity:1;fill-rule:evenodd;stroke:none"
         transform="matrix(1.3333333,0,0,-1.3333333,707.24213,519.33067)"
         clip-path="url(#clipPath108)" />
      <path
         id="path109"
         d="M 0,0 0.029,-0.004 C 0.108,-0.015 0.186,-0.031 0.266,-0.05 L 0.361,-0.075 C 0.41,-0.091 0.458,-0.106 0.507,-0.122 l 0.015,-0.007 c 0.059,-0.02 0.12,-0.044 0.177,-0.069 L 0.716,-0.207 0.731,-0.213 0.748,-0.22 0.765,-0.228 c 2.522,-1.169 4.806,-6.461 6.58,-13.582 0.873,0.63 1.908,1.092 3.129,1.363 -0.355,-2 -1.183,-3.478 -2.398,-4.532 0.932,-4.36 1.684,-9.217 2.202,-14.137 1.284,0.426 2.822,0.503 4.628,0.211 -0.925,-1.937 -2.347,-3.211 -4.292,-3.785 0.308,-3.77 0.475,-7.517 0.475,-11.043 0,-0.854 -0.011,-1.678 -0.029,-2.481 1.128,0.679 2.414,1.255 3.863,1.727 -0.76,-3.621 -2.172,-6.75 -4.402,-9.254 -1.297,-9.904 -4.669,-13.842 -8.818,-14.723 l 0.798,-21.844 h -2.37 -2.375 l 0.795,21.711 -0.163,0.022 -0.07,0.01 c -0.063,0.008 -0.125,0.019 -0.186,0.028 l -0.097,0.016 -0.173,0.032 -0.099,0.021 -0.167,0.036 -0.11,0.026 -0.156,0.04 -0.11,0.029 -0.174,0.051 -0.088,0.027 -0.165,0.055 -0.108,0.038 -0.154,0.058 -0.11,0.042 -0.148,0.058 -0.112,0.049 -0.152,0.07 -0.095,0.044 -0.16,0.08 -0.1,0.051 -0.15,0.08 -0.097,0.058 -0.156,0.091 -0.085,0.052 c -0.053,0.034 -0.105,0.068 -0.161,0.102 l -0.088,0.06 c -0.053,0.035 -0.103,0.071 -0.154,0.107 l -0.076,0.055 c -0.058,0.04 -0.112,0.082 -0.167,0.125 l -0.042,0.031 c -0.064,0.051 -0.129,0.101 -0.193,0.154 l -0.031,0.025 c -0.068,0.057 -0.133,0.113 -0.199,0.171 -0.076,0.068 -0.152,0.138 -0.226,0.207 -0.139,0.133 -0.275,0.271 -0.41,0.414 l -0.034,0.037 c -0.05,0.056 -0.101,0.114 -0.152,0.171 l -0.072,0.08 c -0.046,0.052 -0.091,0.11 -0.137,0.165 l -0.076,0.092 c -0.047,0.058 -0.093,0.117 -0.139,0.176 l -0.072,0.093 -0.132,0.178 -0.08,0.109 -0.122,0.178 -0.08,0.12 -0.112,0.171 -0.093,0.144 -0.108,0.177 -0.085,0.142 -0.113,0.196 -0.075,0.132 -0.114,0.213 -0.074,0.139 -0.109,0.215 -0.072,0.151 -0.108,0.219 -0.072,0.159 -0.099,0.221 -0.078,0.178 -0.095,0.227 -0.072,0.172 -0.093,0.237 -0.072,0.19 c -0.029,0.078 -0.061,0.158 -0.091,0.241 l -0.061,0.169 -0.099,0.285 -0.041,0.123 c -0.037,0.11 -0.075,0.221 -0.11,0.335 l -0.033,0.111 c -0.038,0.116 -0.076,0.234 -0.11,0.354 l -0.004,0.009 c -0.047,0.152 -0.089,0.304 -0.133,0.458 l -0.007,0.02 c -0.044,0.162 -0.089,0.327 -0.131,0.494 l -0.002,0.004 c -0.044,0.165 -0.086,0.334 -0.128,0.505 -0.032,0.135 -0.064,0.274 -0.096,0.414 l -0.027,0.121 -0.074,0.331 -0.049,0.23 -0.059,0.289 -0.057,0.285 -0.053,0.282 -0.057,0.302 -0.05,0.298 -0.053,0.302 -0.051,0.323 -0.008,0.066 c -2.783,1.874 -4.374,4.649 -5.096,8.089 1.935,-0.632 3.445,-1.532 4.525,-2.708 l -0.002,0.029 -0.027,0.441 -0.019,0.354 -0.019,0.367 -0.02,0.441 -0.014,0.349 -0.017,0.438 -0.013,0.494 -0.011,0.317 -0.01,0.485 -0.009,0.383 v 0.028 c -0.004,0.265 -0.008,0.534 -0.008,0.804 v 0.04 c -0.004,0.285 -0.004,0.573 -0.004,0.865 0,3.572 0.169,7.369 0.486,11.19 -1.771,0.264 -3.025,1.219 -3.79,2.827 1.643,0.264 2.975,0.095 4.005,-0.482 0.604,6.152 1.577,12.259 2.819,17.473 -0.96,1.448 -1.184,3.104 -0.404,5.045 0.555,-0.545 0.972,-1.122 1.263,-1.732 1.929,6.806 4.355,11.431 6.991,11.431 C -0.186,0.019 -0.093,0.013 0,0"
         style="fill:#d3ec9e;fill-opacity:1;fill-rule:evenodd;stroke:none"
         transform="matrix(1.3333333,0,0,-1.3333333,373.05853,516.388)"
         clip-path="url(#clipPath110)" />
      <path
         id="path111"
         d="M 0,0 0.032,-0.004 C 0.116,-0.015 0.201,-0.032 0.283,-0.053 L 0.387,-0.08 c 0.05,-0.015 0.101,-0.032 0.152,-0.049 l 0.017,-0.007 c 0.063,-0.022 0.127,-0.048 0.19,-0.075 L 0.763,-0.22 0.78,-0.227 0.796,-0.234 0.813,-0.241 C 3.5,-1.485 5.93,-7.117 7.819,-14.699 c 0.93,0.671 2.03,1.161 3.329,1.453 -0.376,-2.132 -1.257,-3.703 -2.552,-4.825 0.993,-4.642 1.792,-9.814 2.345,-15.048 1.365,0.454 3.004,0.536 4.927,0.226 -0.985,-2.065 -2.497,-3.418 -4.57,-4.032 0.328,-4.013 0.505,-8 0.505,-11.752 0,-0.908 -0.008,-1.787 -0.03,-2.64 1.201,0.722 2.572,1.335 4.114,1.838 -0.809,-3.856 -2.313,-7.186 -4.69,-9.852 C 9.819,-69.873 6.23,-74.064 1.815,-75 L 2.664,-98.251 H 0.137 -2.387 l 0.845,23.109 -0.173,0.024 -0.075,0.009 c -0.067,0.009 -0.131,0.02 -0.198,0.031 l -0.101,0.017 -0.184,0.034 -0.108,0.021 -0.177,0.04 -0.116,0.028 -0.167,0.042 -0.119,0.031 -0.182,0.054 -0.092,0.029 -0.18,0.058 -0.112,0.041 -0.165,0.059 -0.118,0.047 -0.156,0.063 -0.118,0.05 -0.163,0.074 -0.102,0.049 -0.171,0.084 -0.106,0.056 -0.158,0.084 -0.106,0.061 -0.167,0.097 -0.088,0.056 c -0.055,0.036 -0.114,0.071 -0.169,0.107 l -0.097,0.066 c -0.055,0.038 -0.11,0.074 -0.163,0.112 l -0.082,0.059 c -0.059,0.044 -0.119,0.086 -0.178,0.133 l -0.042,0.034 c -0.07,0.052 -0.14,0.108 -0.207,0.165 l -0.034,0.027 c -0.07,0.059 -0.139,0.118 -0.211,0.182 -0.081,0.072 -0.161,0.143 -0.241,0.219 -0.148,0.14 -0.292,0.287 -0.436,0.442 l -0.038,0.038 c -0.052,0.059 -0.105,0.121 -0.16,0.181 l -0.076,0.085 c -0.049,0.057 -0.097,0.117 -0.148,0.175 l -0.08,0.1 c -0.049,0.061 -0.097,0.125 -0.148,0.188 l -0.076,0.097 -0.14,0.188 -0.084,0.119 -0.131,0.189 -0.086,0.127 -0.119,0.182 -0.099,0.154 -0.115,0.188 -0.09,0.153 -0.12,0.207 -0.079,0.14 -0.122,0.227 -0.078,0.147 -0.119,0.231 -0.076,0.158 -0.114,0.235 -0.076,0.166 -0.105,0.238 -0.083,0.189 -0.103,0.241 -0.077,0.184 -0.097,0.252 -0.078,0.202 c -0.032,0.085 -0.065,0.169 -0.095,0.256 l -0.066,0.18 -0.107,0.304 -0.043,0.131 c -0.038,0.118 -0.08,0.237 -0.118,0.357 l -0.033,0.116 c -0.043,0.125 -0.081,0.252 -0.119,0.378 l -0.004,0.011 c -0.046,0.161 -0.093,0.323 -0.14,0.488 l -0.006,0.021 c -0.048,0.171 -0.095,0.346 -0.141,0.524 v 0.007 c -0.047,0.174 -0.093,0.354 -0.138,0.536 -0.035,0.143 -0.069,0.294 -0.103,0.441 l -0.03,0.127 -0.076,0.353 -0.055,0.245 -0.061,0.308 -0.061,0.305 -0.055,0.298 -0.059,0.323 -0.055,0.315 -0.055,0.323 -0.055,0.342 -0.013,0.072 c -2.957,1.992 -4.652,4.947 -5.421,8.609 2.058,-0.672 3.668,-1.632 4.817,-2.882 l -0.004,0.03 -0.026,0.47 -0.021,0.377 -0.021,0.391 -0.021,0.469 -0.015,0.372 -0.019,0.467 -0.014,0.523 -0.011,0.338 -0.009,0.516 -0.008,0.41 -0.002,0.027 c -0.007,0.283 -0.009,0.568 -0.011,0.857 v 0.043 c -0.002,0.304 -0.004,0.611 -0.004,0.921 0,3.801 0.182,7.842 0.52,11.91 -1.885,0.282 -3.22,1.298 -4.035,3.007 1.749,0.284 3.164,0.102 4.263,-0.513 0.642,6.551 1.677,13.049 3,18.601 -1.023,1.54 -1.259,3.303 -0.431,5.368 0.591,-0.578 1.035,-1.193 1.346,-1.841 2.051,7.244 4.632,12.164 7.438,12.164 C -0.196,0.019 -0.099,0.013 0,0"
         style="fill:#d3ec9e;fill-opacity:1;fill-rule:evenodd;stroke:none"
         transform="matrix(1.3333333,0,0,-1.3333333,396.09707,508.4636)"
         clip-path="url(#clipPath112)" />
      <path
         id="path113"
         d="m 0,0 0.031,-0.004 c 0.08,-0.011 0.16,-0.027 0.24,-0.047 L 0.37,-0.078 c 0.049,-0.015 0.099,-0.029 0.148,-0.047 l 0.017,-0.006 c 0.06,-0.021 0.121,-0.047 0.181,-0.072 l 0.017,-0.008 0.016,-0.007 0.017,-0.006 0.017,-0.008 c 2.583,-1.196 4.92,-6.613 6.737,-13.906 0.894,0.645 1.953,1.118 3.202,1.397 -0.361,-2.049 -1.209,-3.562 -2.453,-4.639 0.954,-4.467 1.722,-9.439 2.254,-14.475 1.314,0.436 2.889,0.514 4.738,0.216 -0.946,-1.985 -2.403,-3.289 -4.395,-3.876 0.317,-3.86 0.487,-7.694 0.487,-11.304 0,-0.875 -0.01,-1.72 -0.03,-2.54 1.154,0.693 2.473,1.283 3.957,1.768 -0.779,-3.71 -2.225,-6.912 -4.511,-9.477 C 9.444,-67.206 5.992,-71.237 1.744,-72.14 L 2.561,-94.503 H 0.132 -2.297 l 0.813,22.229 -0.167,0.021 -0.073,0.008 c -0.063,0.011 -0.125,0.021 -0.188,0.032 l -0.1,0.015 -0.176,0.033 -0.102,0.021 -0.172,0.039 -0.112,0.025 -0.16,0.04 -0.113,0.032 -0.176,0.05 -0.09,0.028 -0.172,0.057 -0.109,0.038 -0.157,0.057 -0.114,0.045 -0.15,0.06 -0.116,0.051 -0.155,0.07 -0.097,0.046 -0.165,0.083 -0.101,0.053 -0.153,0.082 -0.102,0.058 -0.158,0.092 -0.086,0.053 c -0.054,0.036 -0.111,0.069 -0.164,0.105 l -0.094,0.062 c -0.051,0.036 -0.104,0.071 -0.156,0.109 l -0.077,0.056 c -0.058,0.042 -0.115,0.084 -0.172,0.128 l -0.041,0.032 c -0.067,0.051 -0.133,0.104 -0.199,0.158 l -0.031,0.026 c -0.069,0.057 -0.136,0.116 -0.205,0.176 -0.077,0.069 -0.155,0.138 -0.232,0.21 -0.141,0.135 -0.281,0.277 -0.418,0.425 l -0.035,0.038 c -0.053,0.055 -0.104,0.115 -0.155,0.173 l -0.074,0.083 c -0.048,0.055 -0.094,0.112 -0.141,0.169 l -0.078,0.095 c -0.047,0.06 -0.095,0.118 -0.142,0.18 l -0.073,0.094 -0.134,0.182 -0.083,0.114 -0.125,0.182 -0.084,0.12 -0.114,0.176 -0.094,0.15 -0.111,0.179 -0.087,0.146 -0.115,0.201 -0.075,0.135 -0.119,0.218 -0.075,0.141 -0.113,0.222 -0.075,0.152 -0.108,0.226 -0.075,0.16 -0.102,0.229 -0.08,0.182 -0.097,0.232 -0.072,0.178 -0.097,0.24 -0.073,0.194 c -0.031,0.083 -0.063,0.165 -0.093,0.247 l -0.062,0.174 -0.101,0.291 -0.044,0.127 c -0.036,0.113 -0.074,0.227 -0.112,0.343 l -0.034,0.111 c -0.038,0.121 -0.076,0.241 -0.113,0.364 l -0.003,0.01 c -0.046,0.155 -0.091,0.311 -0.136,0.472 l -0.006,0.019 c -0.045,0.165 -0.091,0.334 -0.136,0.504 l -0.001,0.004 c -0.044,0.169 -0.088,0.343 -0.13,0.516 -0.034,0.14 -0.067,0.283 -0.1,0.427 l -0.028,0.121 -0.075,0.34 -0.05,0.236 -0.061,0.296 -0.058,0.291 -0.054,0.288 -0.058,0.311 -0.052,0.303 -0.052,0.311 -0.054,0.33 -0.01,0.067 c -2.847,1.918 -4.477,4.762 -5.216,8.281 1.981,-0.646 3.528,-1.567 4.633,-2.771 l -0.002,0.029 -0.027,0.452 -0.02,0.362 -0.019,0.376 -0.021,0.452 -0.014,0.357 -0.017,0.448 -0.015,0.504 -0.009,0.326 -0.011,0.497 -0.008,0.392 -10e-4,0.028 c -0.004,0.272 -0.007,0.548 -0.009,0.826 l -10e-4,0.04 c -0.003,0.292 -0.004,0.586 -0.004,0.886 0,3.656 0.175,7.544 0.5,11.454 -1.814,0.272 -3.097,1.249 -3.881,2.894 1.684,0.273 3.043,0.097 4.099,-0.494 0.62,6.3 1.616,12.551 2.886,17.89 -0.982,1.482 -1.211,3.177 -0.412,5.165 0.567,-0.558 0.993,-1.15 1.292,-1.773 1.974,6.97 4.458,11.703 7.156,11.703 C -0.191,0.02 -0.095,0.013 0,0"
         style="fill:#d3ec9e;fill-opacity:1;fill-rule:evenodd;stroke:none"
         transform="matrix(1.3333333,0,0,-1.3333333,78.516267,513.46093)"
         clip-path="url(#clipPath114)" />
      <path
         id="path115"
         d="M 0,0 586.704,-5.192 161.611,-28.557 659.378,-33.064 V -45.43 L 32.462,-32.45 267.397,-11.682 0,-24.662 Z m 0,92.156 568.531,-1.244 -521.793,32.418 590.586,-9.636 -558.136,33.413 580.19,-0.266 v 28.787 L 0,167.44 V 144.076 L 208.988,131.881 0,128.501 Z"
         style="fill:#f4fade;fill-opacity:1;fill-rule:evenodd;stroke:none"
         transform="matrix(1.3333333,0,0,-1.3333333,0.75386667,259.02867)"
         clip-path="url(#clipPath116)" />
      <path
         id="path117"
         d="M 0,0 C -2.778,75.779 -18.505,97.749 -33.201,112.59 -16.621,83.995 -10.694,47.464 -19.443,0 Z"
         style="fill:#4d7129;fill-opacity:1;fill-rule:evenodd;stroke:none"
         transform="matrix(1.3333333,0,0,-1.3333333,115.28973,880.02733)"
         clip-path="url(#clipPath118)" />
      <path
         id="path119"
         d="M 0,0 C 3.382,92.256 22.529,119.001 40.419,137.07 20.234,102.259 13.019,57.784 23.67,0 Z"
         style="fill:#4d7129;fill-opacity:1;fill-rule:evenodd;stroke:none"
         transform="matrix(1.3333333,0,0,-1.3333333,96.983733,880.02733)"
         clip-path="url(#clipPath120)" />
      <path
         id="path121"
         d="M 0,0 C -2.245,61.22 -14.95,78.968 -26.821,90.956 -13.426,67.857 -8.639,38.344 -15.707,0 Z"
         style="fill:#4d7129;fill-opacity:1;fill-rule:evenodd;stroke:none"
         transform="matrix(1.3333333,0,0,-1.3333333,186.39453,880.02733)"
         clip-path="url(#clipPath122)" />
      <path
         id="path123"
         d="M 0,0 C 1.748,47.68 11.644,61.5 20.89,70.838 10.458,52.847 6.729,29.864 12.233,0 Z"
         style="fill:#4d7129;fill-opacity:1;fill-rule:evenodd;stroke:none"
         transform="matrix(1.3333333,0,0,-1.3333333,128.71227,880.02733)"
         clip-path="url(#clipPath124)" />
      <path
         id="path125"
         d="M 0,0 C 2.778,75.779 18.505,97.749 33.201,112.59 16.62,83.995 10.694,47.464 19.442,0 Z"
         style="fill:#4d7129;fill-opacity:1;fill-rule:evenodd;stroke:none"
         transform="matrix(1.3333333,0,0,-1.3333333,179.18947,880.02733)"
         clip-path="url(#clipPath126)" />
      <path
         id="path127"
         d="M 0,0 C 2.282,62.244 15.203,80.29 27.271,92.479 13.652,68.994 8.784,38.986 15.972,0 Z"
         style="fill:#4d7129;fill-opacity:1;fill-rule:evenodd;stroke:none"
         transform="matrix(1.3333333,0,0,-1.3333333,732.14587,880.02733)"
         clip-path="url(#clipPath128)" />
      <path
         id="path129"
         d="M 0,0 C -2.776,75.779 -18.504,97.749 -33.199,112.59 -16.62,83.995 -10.691,47.464 -19.442,0 Z"
         style="fill:#4d7129;fill-opacity:1;fill-rule:evenodd;stroke:none"
         transform="matrix(1.3333333,0,0,-1.3333333,747.18227,880.02733)"
         clip-path="url(#clipPath130)" />
      <path
         id="path131"
         d="M 0,0 C 1.842,50.286 12.28,64.863 22.03,74.713 11.028,55.737 7.097,31.497 12.901,0 Z"
         style="fill:#4d7129;fill-opacity:1;fill-rule:evenodd;stroke:none"
         transform="matrix(1.3333333,0,0,-1.3333333,673.74213,880.02733)"
         clip-path="url(#clipPath132)" />
      <path
         id="path133"
         d="M 0,0 C -1.434,39.164 -9.563,50.517 -17.158,58.188 -8.59,43.41 -5.526,24.529 -10.048,0 Z"
         style="fill:#4d7129;fill-opacity:1;fill-rule:evenodd;stroke:none"
         transform="matrix(1.3333333,0,0,-1.3333333,721.12107,880.02733)"
         clip-path="url(#clipPath134)" />
      <path
         id="path135"
         d="M 0,0 C -2.281,62.244 -15.2,80.29 -27.272,92.479 -13.651,68.994 -8.784,38.986 -15.969,0 Z"
         style="fill:#4d7129;fill-opacity:1;fill-rule:evenodd;stroke:none"
         transform="matrix(1.3333333,0,0,-1.3333333,679.66013,880.02733)"
         clip-path="url(#clipPath136)" />
    </g>
  </g>
</svg>
