<?xml version="1.0" encoding="UTF-8" standalone="no"?>
<!-- Created with Inkscape (http://www.inkscape.org/) -->

<svg
   version="1.1"
   id="svg1"
   width="880"
   height="880"
   viewBox="0 0 880 880"
   sodipodi:docname="palm-tree-leaves-and-sea.svg"
   inkscape:version="1.3.2 (091e20e, 2023-11-25, custom)"
   xmlns:inkscape="http://www.inkscape.org/namespaces/inkscape"
   xmlns:sodipodi="http://sodipodi.sourceforge.net/DTD/sodipodi-0.dtd"
   xmlns="http://www.w3.org/2000/svg"
   xmlns:svg="http://www.w3.org/2000/svg">
  <defs
     id="defs1">
    <clipPath
       clipPathUnits="userSpaceOnUse"
       id="clipPath4">
      <path
         d="M 0,660 H 660 V 0 H 0 Z"
         transform="translate(-441.21681,-549.42431)"
         id="path4" />
    </clipPath>
    <clipPath
       clipPathUnits="userSpaceOnUse"
       id="clipPath6">
      <path
         d="M 0,660 H 660 V 0 H 0 Z"
         transform="translate(0.49220001,-330.96881)"
         id="path6" />
    </clipPath>
    <clipPath
       clipPathUnits="userSpaceOnUse"
       id="clipPath8">
      <path
         d="M 0,660 H 660 V 0 H 0 Z"
         transform="translate(-659.62892,-490.46631)"
         id="path8" />
    </clipPath>
    <clipPath
       clipPathUnits="userSpaceOnUse"
       id="clipPath10">
      <path
         d="M 0,660 H 660 V 0 H 0 Z"
         transform="translate(0.49220001,-292.43071)"
         id="path10" />
    </clipPath>
    <clipPath
       clipPathUnits="userSpaceOnUse"
       id="clipPath12">
      <path
         d="M 0,660 H 660 V 0 H 0 Z"
         transform="translate(-659.62892,-199.0488)"
         id="path12" />
    </clipPath>
    <clipPath
       clipPathUnits="userSpaceOnUse"
       id="clipPath14">
      <path
         d="M 0,660 H 660 V 0 H 0 Z"
         transform="translate(-659.62892,-398.92241)"
         id="path14" />
    </clipPath>
    <clipPath
       clipPathUnits="userSpaceOnUse"
       id="clipPath16">
      <path
         d="M 0,660 H 660 V 0 H 0 Z"
         transform="translate(0.49220001,-292.43071)"
         id="path16" />
    </clipPath>
    <clipPath
       clipPathUnits="userSpaceOnUse"
       id="clipPath18">
      <path
         d="M 0,660 H 660 V 0 H 0 Z"
         transform="translate(-566.48051,-500.82671)"
         id="path18" />
    </clipPath>
    <clipPath
       clipPathUnits="userSpaceOnUse"
       id="clipPath20">
      <path
         d="M 0,660 H 660 V 0 H 0 Z"
         transform="translate(-552.63481,-503.55712)"
         id="path20" />
    </clipPath>
    <clipPath
       clipPathUnits="userSpaceOnUse"
       id="clipPath22">
      <path
         d="M 0,660 H 660 V 0 H 0 Z"
         transform="translate(-509.12891,-489.32571)"
         id="path22" />
    </clipPath>
    <clipPath
       clipPathUnits="userSpaceOnUse"
       id="clipPath24">
      <path
         d="M 0,660 H 660 V 0 H 0 Z"
         transform="translate(-488.25981,-494.95261)"
         id="path24" />
    </clipPath>
    <clipPath
       clipPathUnits="userSpaceOnUse"
       id="clipPath26">
      <path
         d="M 0,660 H 660 V 0 H 0 Z"
         transform="translate(-522.94732,-508.85351)"
         id="path26" />
    </clipPath>
    <clipPath
       clipPathUnits="userSpaceOnUse"
       id="clipPath28">
      <path
         d="M 0,660 H 660 V 0 H 0 Z"
         transform="translate(-139.03521,-292.43071)"
         id="path28" />
    </clipPath>
    <clipPath
       clipPathUnits="userSpaceOnUse"
       id="clipPath30">
      <path
         d="M 0,660 H 660 V 0 H 0 Z"
         transform="translate(-255.97071,-292.43071)"
         id="path30" />
    </clipPath>
    <clipPath
       clipPathUnits="userSpaceOnUse"
       id="clipPath32">
      <path
         d="M 0,660 H 660 V 0 H 0 Z"
         transform="translate(-339.25001,-292.43071)"
         id="path32" />
    </clipPath>
    <clipPath
       clipPathUnits="userSpaceOnUse"
       id="clipPath34">
      <path
         d="M 0,660 H 660 V 0 H 0 Z"
         transform="translate(-330.02981,1.4033025)"
         id="path34" />
    </clipPath>
    <clipPath
       clipPathUnits="userSpaceOnUse"
       id="clipPath36">
      <path
         d="M 0,660 H 660 V 0 H 0 Z"
         transform="translate(-619.29002,1.4033025)"
         id="path36" />
    </clipPath>
    <clipPath
       clipPathUnits="userSpaceOnUse"
       id="clipPath38">
      <path
         d="M 0,660 H 660 V 0 H 0 Z"
         transform="translate(-659.62892,-378.58941)"
         id="path38" />
    </clipPath>
    <clipPath
       clipPathUnits="userSpaceOnUse"
       id="clipPath40">
      <path
         d="M 0,660 H 660 V 0 H 0 Z"
         transform="translate(-628.98832,1.4033025)"
         id="path40" />
    </clipPath>
    <clipPath
       clipPathUnits="userSpaceOnUse"
       id="clipPath42">
      <path
         d="M 0,660 H 660 V 0 H 0 Z"
         transform="translate(-428.57231,-285.68851)"
         id="path42" />
    </clipPath>
    <clipPath
       clipPathUnits="userSpaceOnUse"
       id="clipPath44">
      <path
         d="M 0,660 H 660 V 0 H 0 Z"
         transform="translate(-536.36722,1.4033025)"
         id="path44" />
    </clipPath>
    <clipPath
       clipPathUnits="userSpaceOnUse"
       id="clipPath46">
      <path
         d="M 0,660 H 660 V 0 H 0 Z"
         transform="translate(-333.14261,-476.09811)"
         id="path46" />
    </clipPath>
    <clipPath
       clipPathUnits="userSpaceOnUse"
       id="clipPath48">
      <path
         d="M 0,660 H 660 V 0 H 0 Z"
         transform="translate(-49.883301,-504.10942)"
         id="path48" />
    </clipPath>
    <clipPath
       clipPathUnits="userSpaceOnUse"
       id="clipPath50">
      <path
         d="M 0,660 H 660 V 0 H 0 Z"
         transform="translate(-64.424801,-503.55811)"
         id="path50" />
    </clipPath>
    <clipPath
       clipPathUnits="userSpaceOnUse"
       id="clipPath52">
      <path
         d="M 0,660 H 660 V 0 H 0 Z"
         transform="translate(-104.70171,-478.93411)"
         id="path52" />
    </clipPath>
    <clipPath
       clipPathUnits="userSpaceOnUse"
       id="clipPath54">
      <path
         d="M 0,660 H 660 V 0 H 0 Z"
         transform="translate(-126.9834,-479.61821)"
         id="path54" />
    </clipPath>
    <clipPath
       clipPathUnits="userSpaceOnUse"
       id="clipPath56">
      <path
         d="M 0,660 H 660 V 0 H 0 Z"
         transform="translate(-95.477102,-501.81401)"
         id="path56" />
    </clipPath>
    <clipPath
       clipPathUnits="userSpaceOnUse"
       id="clipPath58">
      <path
         d="M 0,660 H 660 V 0 H 0 Z"
         transform="translate(-16.4448,-395.04391)"
         id="path58" />
    </clipPath>
    <clipPath
       clipPathUnits="userSpaceOnUse"
       id="clipPath60">
      <path
         d="M 0,660 H 660 V 0 H 0 Z"
         transform="translate(-27.126001,-394.63921)"
         id="path60" />
    </clipPath>
    <clipPath
       clipPathUnits="userSpaceOnUse"
       id="clipPath62">
      <path
         d="M 0,660 H 660 V 0 H 0 Z"
         transform="translate(-56.708501,-376.55371)"
         id="path62" />
    </clipPath>
    <clipPath
       clipPathUnits="userSpaceOnUse"
       id="clipPath64">
      <path
         d="M 0,660 H 660 V 0 H 0 Z"
         transform="translate(-73.073202,-377.05661)"
         id="path64" />
    </clipPath>
    <clipPath
       clipPathUnits="userSpaceOnUse"
       id="clipPath66">
      <path
         d="M 0,660 H 660 V 0 H 0 Z"
         transform="translate(-49.932101,-393.35891)"
         id="path66" />
    </clipPath>
    <clipPath
       clipPathUnits="userSpaceOnUse"
       id="clipPath68">
      <path
         d="M 0,660 H 660 V 0 H 0 Z"
         transform="translate(-44.078601,1.4033025)"
         id="path68" />
    </clipPath>
    <clipPath
       clipPathUnits="userSpaceOnUse"
       id="clipPath70">
      <path
         d="M 0,660 H 660 V 0 H 0 Z"
         transform="translate(-232.14111,-248.9404)"
         id="path70" />
    </clipPath>
    <clipPath
       clipPathUnits="userSpaceOnUse"
       id="clipPath72">
      <path
         d="M 0,660 H 660 V 0 H 0 Z"
         transform="translate(-98.520505,1.4033025)"
         id="path72" />
    </clipPath>
    <clipPath
       clipPathUnits="userSpaceOnUse"
       id="clipPath74">
      <path
         d="M 0,660 H 660 V 0 H 0 Z"
         transform="translate(-281.50491,-37.698203)"
         id="path74" />
    </clipPath>
  </defs>
  <sodipodi:namedview
     id="namedview1"
     pagecolor="#ffffff"
     bordercolor="#000000"
     borderopacity="0.25"
     inkscape:showpageshadow="2"
     inkscape:pageopacity="0.0"
     inkscape:pagecheckerboard="0"
     inkscape:deskcolor="#d1d1d1"
     inkscape:zoom="0.67272727"
     inkscape:cx="439.25676"
     inkscape:cy="440"
     inkscape:window-width="1440"
     inkscape:window-height="830"
     inkscape:window-x="-6"
     inkscape:window-y="-6"
     inkscape:window-maximized="1"
     inkscape:current-layer="g1">
    <inkscape:page
       x="0"
       y="0"
       inkscape:label="1"
       id="page1"
       width="880"
       height="880"
       margin="0 0.49466667 1.7093333 0"
       bleed="0" />
  </sodipodi:namedview>
  <g
     id="g1"
     inkscape:groupmode="layer"
     inkscape:label="1">
    <g
       id="group-MC0">
      <path
         id="path2"
         d="M 0,0 H 659.629 V 658.718 H 0 Z"
         style="fill:#d1efdf;fill-opacity:1;fill-rule:nonzero;stroke:none"
         transform="matrix(1.3333333,0,0,-1.3333333,0,880)" />
      <path
         id="path3"
         d="M 0,0 C 26.533,0 48.175,21.642 48.175,48.175 48.175,74.708 26.533,96.351 0,96.351 -26.534,96.351 -48.174,74.708 -48.174,48.175 -48.174,21.642 -26.534,0 0,0"
         style="fill:#f8fdfc;fill-opacity:1;fill-rule:evenodd;stroke:none"
         transform="matrix(1.3333333,0,0,-1.3333333,588.28907,147.43427)"
         clip-path="url(#clipPath4)" />
      <path
         id="path5"
         d="m 0,0 v 20.815 179.62 c 36.702,21.396 82.206,20.726 118.158,-1.368 34.275,-21.062 72.302,-25.315 110.382,-12.344 32.778,11.164 70.057,5.584 98.889,-17.459 L 507.394,25.42 Z"
         style="fill:#e6f6f0;fill-opacity:1;fill-rule:evenodd;stroke:none"
         transform="matrix(1.3333333,0,0,-1.3333333,-0.65626667,438.70827)"
         clip-path="url(#clipPath6)" />
      <path
         id="path7"
         d="m 0,0 v -311.332 l -660.121,-10.082 v 182.732 86.124 l 11.682,-11.682 c 25.124,-25.123 66.106,-25.123 91.231,0 l 3.537,3.537 c 27.131,27.132 66.717,34.531 100.643,22.198 30.865,-11.221 63.396,-4.004 86.618,19.219 l 7.199,7.199 c 31.62,31.619 80.156,36.438 116.934,14.456 46.711,-27.921 102.38,-25.41 146.388,6.603 28.445,20.693 68.692,18.224 94.32,-7.404 z"
         style="fill:#f8fdfc;fill-opacity:1;fill-rule:evenodd;stroke:none"
         transform="matrix(1.3333333,0,0,-1.3333333,879.5052,226.04493)"
         clip-path="url(#clipPath8)" />
      <path
         id="path9"
         d="M 0,0 H 660.121 V -293.834 H 444.659 0 Z"
         style="fill:#99cab4;fill-opacity:1;fill-rule:evenodd;stroke:none"
         transform="matrix(1.3333333,0,0,-1.3333333,-0.65626667,490.0924)"
         clip-path="url(#clipPath10)" />
      <path
         id="path11"
         d="m 0,0 v 93.382 h -520.594 l 47.099,-41.3 c 19.213,-16.848 48.629,-19.524 71.083,-8.025 15.554,7.965 34.625,5.805 47.363,-5.365 l 31.479,-27.603 c 26.518,-23.254 69.698,-23.365 96.375,-0.333 41.223,35.587 107.791,35.361 148.695,-0.509 l 13.99,-12.268 c 17.13,-15.022 45.075,-15.022 62.205,0 z"
         style="fill:#79ae99;fill-opacity:1;fill-rule:evenodd;stroke:none"
         transform="matrix(1.3333333,0,0,-1.3333333,879.5052,614.6016)"
         clip-path="url(#clipPath12)" />
      <path
         id="path13"
         d="m 0,0 v -106.492 h -520.594 l 47.099,47.097 c 19.213,19.215 48.629,22.266 71.083,9.154 15.554,-9.083 34.625,-6.621 47.363,6.116 l 31.479,31.479 c 26.518,26.519 69.698,26.646 96.375,0.381 41.223,-40.584 107.791,-40.326 148.695,0.579 l 13.99,13.99 c 17.13,17.131 45.075,17.131 62.205,0 z"
         style="fill:#638c7f;fill-opacity:1;fill-rule:evenodd;stroke:none"
         transform="matrix(1.3333333,0,0,-1.3333333,879.5052,348.10347)"
         clip-path="url(#clipPath14)" />
      <path
         id="path15"
         d="M 0,0 H 243.774 C 295.58,-8.758 342.303,-17.712 375.201,-27.904 488.266,-62.936 169.388,-94.607 244.251,-115.058 347.999,-143.398 178.379,-165.498 0,-179.546 Z"
         style="fill:#79ae99;fill-opacity:1;fill-rule:evenodd;stroke:none"
         transform="matrix(1.3333333,0,0,-1.3333333,-0.65626667,490.0924)"
         clip-path="url(#clipPath16)" />
      <path
         id="path17"
         d="m 0,0 c -49.461,47.487 -134.937,-17.382 -147.791,-62.113 l 26.908,11.307 0.451,12.965 3.554,-11.281 20.642,8.676 -3.071,14.235 8.847,-11.808 25.639,10.777 -4.831,18.856 10.368,-16.531 33.306,13.999 -5.102,12.166 10.613,-9.849 z"
         style="fill:#79ae99;fill-opacity:1;fill-rule:evenodd;stroke:none"
         transform="matrix(1.3333333,0,0,-1.3333333,755.30733,212.23107)"
         clip-path="url(#clipPath18)" />
      <path
         id="path19"
         d="m 0,0 c -42.637,57.24 -105.352,24.903 -112.17,-11.205 l 20.423,2.041 -0.611,11.444 3.65,-11.14 15.667,1.565 -3.49,13.634 7.874,-13.196 19.46,1.943 -5.228,18.293 9.43,-17.872 25.276,2.524 -4.937,12.396 9.123,-11.978 z"
         style="fill:#79ae99;fill-opacity:1;fill-rule:evenodd;stroke:none"
         transform="matrix(1.3333333,0,0,-1.3333333,736.8464,208.59053)"
         clip-path="url(#clipPath20)" />
      <path
         id="path21"
         d="M 0,0 C -3.146,71.304 65.891,85.893 93.999,62.227 L 76.886,50.897 70.123,60.152 74.339,49.211 61.21,40.519 55.294,53.292 57.535,38.087 41.228,27.292 33.713,44.771 37.706,24.961 16.524,10.938 12.516,23.666 13.018,8.617 Z"
         style="fill:#79ae99;fill-opacity:1;fill-rule:evenodd;stroke:none"
         transform="matrix(1.3333333,0,0,-1.3333333,678.83853,227.56573)"
         clip-path="url(#clipPath22)" />
      <path
         id="path23"
         d="m 0,0 c 60.502,82.026 150.277,36.271 160.26,-15.245 l -29.178,2.775 0.797,16.348 -5.139,-15.935 -22.384,2.13 4.892,19.495 L 98.092,-9.331 70.29,-6.687 77.632,19.472 64.286,-6.115 28.171,-2.681 35.141,15.055 22.192,-2.112 Z"
         style="fill:#79ae99;fill-opacity:1;fill-rule:evenodd;stroke:none"
         transform="matrix(1.3333333,0,0,-1.3333333,651.01307,220.0632)"
         clip-path="url(#clipPath24)" />
      <path
         id="path25"
         d="m 0,0 c 59.588,-79.367 55.025,-194.001 38.538,-315.195 17.453,0.428 34.908,0.856 52.359,1.284 C 81.706,-180.548 64.326,-60.642 15.278,7.198 10.186,4.799 5.093,2.399 0,0"
         style="fill:#79ae99;fill-opacity:1;fill-rule:evenodd;stroke:none"
         transform="matrix(1.3333333,0,0,-1.3333333,697.26307,201.52867)"
         clip-path="url(#clipPath26)" />
      <path
         id="path27"
         d="m 0,0 h 104.247 c 51.806,-8.758 98.528,-17.712 131.427,-27.904 54.88,-17.004 7.993,-33.216 -46.235,-47.739 l -23.895,20.954 c -12.737,11.169 -31.808,13.33 -47.362,5.364 -22.454,-11.499 -51.87,-8.823 -71.083,8.025 z"
         style="fill:#6ea08d;fill-opacity:1;fill-rule:evenodd;stroke:none"
         transform="matrix(1.3333333,0,0,-1.3333333,185.38027,490.0924)"
         clip-path="url(#clipPath28)" />
      <path
         id="path29"
         d="M 0,0 H 403.658 V -293.834 H 188.196 -256.463 v 91.613 c 114.633,3.401 107.314,-4.414 226.255,31.942 34.968,10.688 146.421,11.35 121.523,32.154 -85.569,71.496 172.766,33.505 169.814,78.981 C 258.59,-20.04 92.16,-3.658 0,0"
         style="fill:#ffffff;fill-opacity:1;fill-rule:evenodd;stroke:none"
         transform="matrix(1.3333333,0,0,-1.3333333,341.29427,490.0924)"
         clip-path="url(#clipPath30)" />
      <path
         id="path31"
         d="m 0,0 h 11.836 c 54.206,0 438.523,-57.59 188.697,-99.034 -17.599,-2.919 -194.806,-22.644 -118.006,-38.448 63.527,-13.075 -6.529,-36.711 -92.65,-43.176 -103.435,-7.767 -88.417,-55.134 -230.929,-64.487 -50.519,-3.314 -70.583,3.674 -98.69,-15.853 v -32.836 H 104.917 320.379 V 0 H 11.836 C 5.708,-0.567 1.932,-0.52 0,0"
         style="fill:#f9cc78;fill-opacity:1;fill-rule:evenodd;stroke:none"
         transform="matrix(1.3333333,0,0,-1.3333333,452.33333,490.0924)"
         clip-path="url(#clipPath32)" />
      <path
         id="path33"
         d="M 0,0 H 114.137 329.599 V 137.377 C 136.714,129.649 -68.188,74.486 11.985,57.603 77.781,43.747 50.331,23.93 0,0"
         style="fill:#e9b658;fill-opacity:1;fill-rule:evenodd;stroke:none"
         transform="matrix(1.3333333,0,0,-1.3333333,440.03973,881.87107)"
         clip-path="url(#clipPath34)" />
      <path
         id="path35"
         d="M 0,0 C 4.033,23.221 8.691,45.703 13.984,67.279 L -4.127,136.038 22.207,98.27 c 5.492,19.187 11.534,37.528 18.132,54.89 v 226.8 C -35.181,335.786 -79.081,199.734 -84.334,0 Z"
         style="fill:#79aa32;fill-opacity:1;fill-rule:evenodd;stroke:none"
         transform="matrix(1.3333333,0,0,-1.3333333,825.72,881.87107)"
         clip-path="url(#clipPath36)" />
      <path
         id="path37"
         d="m 0,0 c -75.526,-44.166 -119.422,-180.243 -124.673,-379.993 h 18.257 C -98.914,-163.333 -57.382,-51.237 0,-8.19 Z"
         style="fill:#a5d658;fill-opacity:1;fill-rule:evenodd;stroke:none"
         transform="matrix(1.3333333,0,0,-1.3333333,879.5052,375.21413)"
         clip-path="url(#clipPath38)" />
      <path
         id="path39"
         d="M 0,0 9.564,36.309 -15.753,0 h -4.672 C -37.497,58.348 -59.306,109.317 -86.03,149.705 l 5.704,72.907 -23.109,-49.007 c -27.987,34.842 -60.64,59.08 -98.121,69.779 l -3.408,18.178 -4.856,-16.032 c -13.94,3.181 -28.523,4.529 -43.759,3.903 127.329,104.8 224.71,85.333 284.22,-26.386 L 30.641,0 Z"
         style="fill:#57832c;fill-opacity:1;fill-rule:evenodd;stroke:none"
         transform="matrix(1.3333333,0,0,-1.3333333,838.65107,881.87107)"
         clip-path="url(#clipPath40)" />
      <path
         id="path41"
         d="M 0,0 C 101.456,59.617 180.125,31.546 231.057,-64.082 V -99.871 C 179.153,40.455 91.228,52.462 0,0"
         style="fill:#4b722a;fill-opacity:1;fill-rule:evenodd;stroke:none"
         transform="matrix(1.3333333,0,0,-1.3333333,571.42973,499.082)"
         clip-path="url(#clipPath42)" />
      <path
         id="path43"
         d="M 0,0 C -1.207,14.091 -2.616,28.02 -4.214,41.771 L 12.007,106.655 -8.778,76.961 c -5.086,35.29 -11.519,69.142 -19.339,101.016 l 18.112,68.758 -26.334,-37.766 C -52.232,264.481 -72.715,312.914 -97.97,351.08 l 5.249,67.087 -21.264,-45.096 c -25.753,32.063 -55.801,54.366 -90.29,64.211 l -3.135,16.729 -4.468,-14.754 c -12.829,2.927 -26.248,4.167 -40.267,3.591 C -37.046,619.888 85.211,411.625 69.373,0 Z"
         style="fill:#79aa32;fill-opacity:1;fill-rule:evenodd;stroke:none"
         transform="matrix(1.3333333,0,0,-1.3333333,715.15627,881.87107)"
         clip-path="url(#clipPath44)" />
      <path
         id="path45"
         d="M 0,0 C 184.522,108.426 287.191,-98.192 272.598,-477.501 H 256.109 C 263.204,1.362 135.543,77.948 0,0"
         style="fill:#62912d;fill-opacity:1;fill-rule:evenodd;stroke:none"
         transform="matrix(1.3333333,0,0,-1.3333333,444.19013,245.20253)"
         clip-path="url(#clipPath46)" />
      <path
         id="path47"
         d="m 0,0 c 60.921,35.896 131.279,-49.521 133.544,-97.465 l -24.313,17.744 2.628,13.117 -6.247,-10.476 -18.653,13.613 6.467,13.555 -11.687,-9.744 -23.167,16.907 9.331,17.775 -14.334,-14.124 -30.094,21.965 8.009,10.996 -12.99,-7.362 z"
         style="fill:#79ae99;fill-opacity:1;fill-rule:evenodd;stroke:none"
         transform="matrix(1.3333333,0,0,-1.3333333,66.511067,207.85413)"
         clip-path="url(#clipPath48)" />
      <path
         id="path49"
         d="m 0,0 c 56.395,47.304 111.643,-0.054 109.903,-37.909 l -20.009,6.902 3.333,11.34 -6.312,-10.312 -15.35,5.292 6.745,12.856 L 67.271,-23.205 48.205,-16.627 57.798,0.488 44.087,-15.207 19.321,-6.664 27.225,4.6 15.221,-5.25 Z"
         style="fill:#79ae99;fill-opacity:1;fill-rule:evenodd;stroke:none"
         transform="matrix(1.3333333,0,0,-1.3333333,85.899733,208.5892)"
         clip-path="url(#clipPath50)" />
      <path
         id="path51"
         d="m 0,0 c 20.107,70.807 -45.702,101.857 -79.535,84.79 l 14.48,-15.436 8.986,7.679 -6.83,-9.978 11.108,-11.844 8.973,11.411 -5.865,-14.724 13.799,-14.71 11.695,15.754 -8.716,-18.93 17.923,-19.108 7.05,11.819 -4.082,-14.981 z"
         style="fill:#79ae99;fill-opacity:1;fill-rule:evenodd;stroke:none"
         transform="matrix(1.3333333,0,0,-1.3333333,139.60227,241.4212)"
         clip-path="url(#clipPath52)" />
      <path
         id="path53"
         d="M 0,0 C -28.99,68.016 -87.543,76.031 -127.476,57.639 V 17.674 l 20.392,-2.828 -0.274,20.728 6.701,-21.619 28.53,-3.955 -1.149,27.996 7.308,-28.85 37.06,-5.137 -2.779,19.453 8.914,-20.304 z"
         style="fill:#79ae99;fill-opacity:1;fill-rule:evenodd;stroke:none"
         transform="matrix(1.3333333,0,0,-1.3333333,169.3112,240.50907)"
         clip-path="url(#clipPath54)" />
      <path
         id="path55"
         d="m 0,0 c -52.221,-43.47 -79.763,-109.262 -95.969,-185.308 v 35.278 43.077 c 24.034,49.79 50.95,90.702 82.349,117.809 C -9.081,7.237 -4.54,3.62 0,0"
         style="fill:#79ae99;fill-opacity:1;fill-rule:evenodd;stroke:none"
         transform="matrix(1.3333333,0,0,-1.3333333,127.3028,210.91467)"
         clip-path="url(#clipPath56)" />
      <path
         id="path57"
         d="m 0,0 c 44.745,26.364 96.42,-36.371 98.085,-71.584 l -17.857,13.031 1.93,9.635 -4.589,-7.694 -13.7,9.998 4.751,9.956 -8.584,-7.157 -17.015,12.417 6.852,13.056 -10.528,-10.374 -22.103,16.133 5.882,8.076 -9.54,-5.407 z"
         style="fill:#9dcfb8;fill-opacity:1;fill-rule:evenodd;stroke:none"
         transform="matrix(1.3333333,0,0,-1.3333333,21.9264,353.2748)"
         clip-path="url(#clipPath58)" />
      <path
         id="path59"
         d="m 0,0 c 41.42,34.744 81.998,-0.04 80.72,-27.842 l -14.696,5.068 2.448,8.33 -4.636,-7.575 -11.274,3.888 4.954,9.441 -8.108,-8.353 -14.004,4.831 7.047,12.571 -10.071,-11.527 -18.189,6.274 5.804,8.274 -8.816,-7.236 z"
         style="fill:#9dcfb8;fill-opacity:1;fill-rule:evenodd;stroke:none"
         transform="matrix(1.3333333,0,0,-1.3333333,36.168,353.8144)"
         clip-path="url(#clipPath60)" />
      <path
         id="path61"
         d="M 0,0 C 14.53,51.169 -32.029,74.07 -57.201,62.852 V 60.98 l 9.42,-10.041 6.599,5.639 -5.017,-7.327 8.16,-8.7 6.59,8.381 -4.308,-10.815 10.135,-10.803 8.59,11.571 -6.402,-13.903 13.164,-14.035 5.178,8.681 L -8.09,8.624 Z"
         style="fill:#9dcfb8;fill-opacity:1;fill-rule:evenodd;stroke:none"
         transform="matrix(1.3333333,0,0,-1.3333333,75.611333,377.9284)"
         clip-path="url(#clipPath62)" />
      <path
         id="path63"
         d="M 0,0 C -16.799,39.415 -47.114,51.387 -73.565,48.054 V 10.199 l 20.59,-2.855 -0.844,20.563 5.368,-21.19 27.219,-3.773 -2.041,14.288 6.547,-14.913 z"
         style="fill:#9dcfb8;fill-opacity:1;fill-rule:evenodd;stroke:none"
         transform="matrix(1.3333333,0,0,-1.3333333,97.430933,377.25787)"
         clip-path="url(#clipPath64)" />
      <path
         id="path65"
         d="m 0,0 c -22.289,-18.554 -38.454,-42.648 -50.424,-70.535 v 28.96 c 12.339,20.014 25.709,36.847 40.421,49.548 C -6.669,5.316 -3.334,2.658 0,0"
         style="fill:#9dcfb8;fill-opacity:1;fill-rule:evenodd;stroke:none"
         transform="matrix(1.3333333,0,0,-1.3333333,66.576133,355.52147)"
         clip-path="url(#clipPath66)" />
      <path
         id="path67"
         d="M 0,0 -5.158,19.578 8.493,0 h 18.136 c 15.04,47.931 33.723,89.985 56.178,123.92 l -5.249,67.089 21.265,-45.097 c 25.753,32.063 55.8,54.366 90.288,64.212 l 3.136,16.728 4.469,-14.753 c 12.828,2.925 26.247,4.167 40.266,3.59 C 104.19,324.984 6.805,287.381 -44.571,145.789 V 0 Z"
         style="fill:#addd53;fill-opacity:1;fill-rule:evenodd;stroke:none"
         transform="matrix(1.3333333,0,0,-1.3333333,58.771467,881.87107)"
         clip-path="url(#clipPath68)" />
      <path
         id="path69"
         d="m 0,0 c -107.897,63.4 -187.789,19.04 -232.633,-104.539 v -57.51 C -190.323,32.305 -97.191,55.892 0,0"
         style="fill:#cae777;fill-opacity:1;fill-rule:evenodd;stroke:none"
         transform="matrix(1.3333333,0,0,-1.3333333,309.52147,548.07947)"
         clip-path="url(#clipPath70)" />
      <path
         id="path71"
         d="M 0,0 5.723,11.5 4.447,0 h 24.745 c 19.631,10.686 38.743,18.769 56.949,23.746 l 23.991,32.146 -8.173,-28.574 c 24.139,4.265 46.371,2.467 65.702,-6.663 l 7.975,6.272 -3.79,-8.371 C 178.747,14.83 185.251,10.116 191.312,4.354 167.947,146.512 62.025,131.149 -66.537,0 Z"
         style="fill:#8dcb36;fill-opacity:1;fill-rule:evenodd;stroke:none"
         transform="matrix(1.3333333,0,0,-1.3333333,131.36067,881.87107)"
         clip-path="url(#clipPath72)" />
      <path
         id="path73"
         d="m 0,0 c -34.395,103.688 -132.598,80.192 -249.531,-39.102 h 15.532 C -95.393,98.485 -26.177,76.51 0,0"
         style="fill:#b6e05a;fill-opacity:1;fill-rule:evenodd;stroke:none"
         transform="matrix(1.3333333,0,0,-1.3333333,375.33987,829.73573)"
         clip-path="url(#clipPath74)" />
    </g>
  </g>
</svg>
