<?xml version="1.0" encoding="UTF-8" standalone="no"?>
<!-- Created with Inkscape (http://www.inkscape.org/) -->

<svg
   version="1.1"
   id="svg1"
   width="880"
   height="880"
   viewBox="0 0 880 880"
   sodipodi:docname="park-with-a-lake.svg"
   inkscape:version="1.3.2 (091e20e, 2023-11-25, custom)"
   xmlns:inkscape="http://www.inkscape.org/namespaces/inkscape"
   xmlns:sodipodi="http://sodipodi.sourceforge.net/DTD/sodipodi-0.dtd"
   xmlns="http://www.w3.org/2000/svg"
   xmlns:svg="http://www.w3.org/2000/svg">
  <defs
     id="defs1">
    <clipPath
       clipPathUnits="userSpaceOnUse"
       id="clipPath4">
      <path
         d="M 0,660 H 660 V 0 H 0 Z"
         transform="translate(-661.48052,-529.94242)"
         id="path4" />
    </clipPath>
    <clipPath
       clipPathUnits="userSpaceOnUse"
       id="clipPath6">
      <path
         d="M 0,660 H 660 V 0 H 0 Z"
         transform="translate(-306.43211,-617.96342)"
         id="path6" />
    </clipPath>
    <clipPath
       clipPathUnits="userSpaceOnUse"
       id="clipPath8">
      <path
         d="M 0,660 H 660 V 0 H 0 Z"
         transform="translate(-341.35841,-528.60841)"
         id="path8" />
    </clipPath>
    <clipPath
       clipPathUnits="userSpaceOnUse"
       id="clipPath10">
      <path
         d="M 0,660 H 660 V 0 H 0 Z"
         transform="translate(-661.48052,-350.16991)"
         id="path10" />
    </clipPath>
    <clipPath
       clipPathUnits="userSpaceOnUse"
       id="clipPath12">
      <path
         d="M 0,660 H 660 V 0 H 0 Z"
         id="path12" />
    </clipPath>
    <clipPath
       clipPathUnits="userSpaceOnUse"
       id="clipPath14">
      <path
         d="M 0,660 H 660 V 0 H 0 Z"
         id="path14" />
    </clipPath>
    <clipPath
       clipPathUnits="userSpaceOnUse"
       id="clipPath16">
      <path
         d="M 0,660 H 660 V 0 H 0 Z"
         transform="translate(-306.43211,-160.81251)"
         id="path16" />
    </clipPath>
    <clipPath
       clipPathUnits="userSpaceOnUse"
       id="clipPath18">
      <path
         d="M 0,660 H 660 V 0 H 0 Z"
         id="path18" />
    </clipPath>
    <clipPath
       clipPathUnits="userSpaceOnUse"
       id="clipPath20">
      <path
         d="M 0,660 H 660 V 0 H 0 Z"
         transform="translate(-661.48052,-291.7441)"
         id="path20" />
    </clipPath>
    <clipPath
       clipPathUnits="userSpaceOnUse"
       id="clipPath22">
      <path
         d="M 0,660 H 660 V 0 H 0 Z"
         transform="translate(-135.4263,-312.62401)"
         id="path22" />
    </clipPath>
    <clipPath
       clipPathUnits="userSpaceOnUse"
       id="clipPath24">
      <path
         d="M 0,660 H 660 V 0 H 0 Z"
         transform="translate(-423.90431,-142.791)"
         id="path24" />
    </clipPath>
    <clipPath
       clipPathUnits="userSpaceOnUse"
       id="clipPath26">
      <path
         d="M 0,660 H 660 V 0 H 0 Z"
         id="path26" />
    </clipPath>
    <clipPath
       clipPathUnits="userSpaceOnUse"
       id="clipPath28">
      <path
         d="M 0,660 H 660 V 0 H 0 Z"
         transform="translate(-661.48052,-91.307605)"
         id="path28" />
    </clipPath>
  </defs>
  <sodipodi:namedview
     id="namedview1"
     pagecolor="#ffffff"
     bordercolor="#000000"
     borderopacity="0.25"
     inkscape:showpageshadow="2"
     inkscape:pageopacity="0.0"
     inkscape:pagecheckerboard="0"
     inkscape:deskcolor="#d1d1d1"
     inkscape:zoom="0.67272727"
     inkscape:cx="439.25676"
     inkscape:cy="440"
     inkscape:window-width="1440"
     inkscape:window-height="830"
     inkscape:window-x="-6"
     inkscape:window-y="-6"
     inkscape:window-maximized="1"
     inkscape:current-layer="g1">
    <inkscape:page
       x="0"
       y="0"
       inkscape:label="1"
       id="page1"
       width="880"
       height="880"
       margin="0 0 0.81733334 1.45772"
       bleed="0" />
  </sodipodi:namedview>
  <g
     id="g1"
     inkscape:groupmode="layer"
     inkscape:label="1">
    <g
       id="group-MC0">
      <path
         id="path2"
         d="M 1.094,0 H 660 V 659.387 H 1.094 Z"
         style="fill:#cce8f7;fill-opacity:1;fill-rule:nonzero;stroke:none"
         transform="matrix(1.3333333,0,0,-1.3333333,0,880)" />
      <path
         id="path3"
         d="m 0,0 v -231.842 c -7.64,-2.854 -15.909,-4.417 -24.544,-4.417 -25.228,0 -47.34,13.326 -59.693,33.318 -3.825,-0.89 -7.813,-1.361 -11.909,-1.361 -28.921,0 -52.37,23.446 -52.37,52.369 0,6.807 1.3,13.311 3.663,19.278 -15.509,4.958 -26.74,19.487 -26.74,36.641 0,21.243 17.221,38.463 38.462,38.463 6.206,0 12.07,-1.472 17.259,-4.083 2.701,11.499 13.023,20.061 25.348,20.061 13.156,0 24.032,-9.761 25.787,-22.436 6.948,9.184 17.964,15.119 30.369,15.119 0.996,0 1.982,-0.039 2.959,-0.114 -0.349,2.229 -0.532,4.512 -0.532,6.839 0,20.078 13.512,36.998 31.941,42.165 m -660.387,-199.683 v 146.001 c 11.581,-3.01 20.132,-13.535 20.132,-26.059 0,-1.393 -0.106,-2.76 -0.31,-4.096 11.477,-5.951 19.411,-17.784 19.807,-31.507 6.89,5.784 15.776,9.271 25.476,9.271 11.284,0 21.465,-4.716 28.685,-12.282 7.507,13.334 21.791,22.341 38.182,22.341 24.184,0 43.79,-19.605 43.79,-43.789 0,-18.773 -11.815,-34.785 -28.415,-41.01 0.004,-0.236 0.01,-0.472 0.01,-0.707 0,-23.041 -18.678,-41.717 -41.718,-41.717 -21.747,0 -39.605,16.639 -41.54,37.882 -5.136,0.128 -10.028,1.233 -14.5,3.135 -5.607,-12.659 -18.28,-21.491 -33.017,-21.491 -5.979,0 -11.617,1.454 -16.582,4.028"
         style="fill:#f1fafe;fill-opacity:1;fill-rule:evenodd;stroke:none"
         transform="matrix(1.3333333,0,0,-1.3333333,881.974,173.41013)"
         clip-path="url(#clipPath4)" />
      <path
         id="path5"
         d="M 0,0 H 13.611 V 10.06 H 73.374 V 0 h 15.387 v -57.991 h 15.977 v 15.977 h 30.771 v -15.977 h 14.794 v -34.321 h 16.568 v -40.238 h 12.428 v 26.036 h 27.22 v -26.036 h 6.509 v -74.561 h 14.794 v 22.487 h 21.303 v -22.487 h 20.119 v -98.228 h -464.52 v 89.944 h 34.321 v 65.092 h 13.61 v 43.789 h 36.096 v -43.789 h 17.753 v -33.138 h 18.936 v 91.129 h 19.528 v 46.156 h 29.586 v -46.156 h 13.018 v 69.234 H 0 Z"
         style="fill:#9dbed3;fill-opacity:1;fill-rule:evenodd;stroke:none"
         transform="matrix(1.3333333,0,0,-1.3333333,408.57613,56.0488)"
         clip-path="url(#clipPath6)" />
      <path
         id="path7"
         d="m 0,0 h 33.14 v -52.073 h 20.117 v -30.179 h 30.77 v 30.77 h 36.098 v -30.77 h 18.344 v -31.363 h 16.569 v -27.106 h 34.914 v -62.247 h -34.914 v -1.775 h -16.569 v -16.571 H 23.67 v 5.33 h -43.196 v 8.281 h -31.363 v -28.404 h -36.319 v -23.902 h -75.521 v 153.495 h 42.014 v 50.89 h 40.831 v 18.935 h 37.279 v -43.197 h 23.079 v 27.813 H 0 Z"
         style="fill:#6891ad;fill-opacity:1;fill-rule:evenodd;stroke:none"
         transform="matrix(1.3333333,0,0,-1.3333333,455.14453,175.1888)"
         clip-path="url(#clipPath8)" />
      <path
         id="path9"
         d="M 0,0 V -37.546 H -660.387 V 6.128 c 2.015,0.463 4.091,0.705 6.212,0.705 2.338,0 4.62,-0.294 6.827,-0.853 0.539,16.92 12.244,30.441 26.607,30.441 12.765,0 23.429,-10.679 26.024,-24.932 0.69,0.051 1.384,0.078 2.084,0.078 11.992,0 22.732,-7.587 29.949,-19.546 5.394,5.596 12.012,8.895 19.165,8.895 7.896,0 15.141,-4.018 20.806,-10.711 6.381,20.406 23.139,34.972 42.807,34.972 8.384,0 16.236,-2.65 22.985,-7.266 3.737,17.123 16.668,29.753 32.047,29.753 14.318,0 26.514,-10.946 31.146,-26.273 3.356,2.44 7.024,3.786 10.868,3.786 4.433,0 8.632,-1.789 12.39,-4.982 6.588,20.686 21.743,35.16 39.388,35.16 4.011,0 7.89,-0.748 11.573,-2.147 5.89,15.109 16.655,25.226 28.961,25.226 18.629,0 33.731,-23.181 33.731,-51.777 0,-0.97 -0.02,-1.933 -0.054,-2.891 3.306,1.303 6.798,2.004 10.409,2.004 11.5,0 21.79,-7.081 28.682,-18.231 2.816,17.465 15.661,30.657 31.084,30.657 17.484,0 31.658,-16.955 31.658,-37.87 0,-0.517 -0.01,-1.033 -0.027,-1.544 3.186,1.005 6.512,1.544 9.939,1.544 6.328,0 12.322,-1.825 17.691,-5.083 2.162,21.361 13.222,37.628 26.541,37.628 12.624,0 23.216,-14.607 26.128,-34.316 1.605,0.384 3.254,0.586 4.94,0.586 3.255,0 6.381,-0.748 9.294,-2.125 4.124,18.774 15.757,32.304 29.466,32.304 13.287,0 24.623,-12.712 29.063,-30.59 C -1.349,-0.827 -0.68,-0.404 0,0"
         style="fill:#30813a;fill-opacity:1;fill-rule:evenodd;stroke:none"
         transform="matrix(1.3333333,0,0,-1.3333333,881.974,413.1068)"
         clip-path="url(#clipPath10)" />
      <path
         id="path11"
         d="M 1.093,120.899 H 661.48 V 312.624 H 1.093 Z"
         style="fill:#5e96c1;fill-opacity:1;fill-rule:evenodd;stroke:none"
         transform="matrix(1.3333333,0,0,-1.3333333,0,880)"
         clip-path="url(#clipPath12)" />
      <path
         id="path13"
         d="m 266.793,312.624 h 72.192 V 120.899 h -72.192 z m 222.498,0 H 599.353 V 120.899 H 489.291 Z m -447.36,0 h 93.496 V 120.899 H 41.931 Z"
         style="fill:#70aad5;fill-opacity:1;fill-rule:evenodd;stroke:none"
         transform="matrix(1.3333333,0,0,-1.3333333,0,880)"
         clip-path="url(#clipPath14)" />
      <path
         id="path15"
         d="M 0,0 H 13.611 V -5.002 H 73.374 V 0 h 15.387 v 28.832 h 15.977 v -7.941 h 30.771 v 7.941 h 14.794 v 17.066 h 16.568 v 20.005 h 12.428 V 52.959 h 27.22 v 12.944 h 6.509 v 37.071 h 14.794 v -11.18 h 21.303 v 11.18 h 20.119 v 48.837 h -464.52 v -44.717 h 34.321 V 74.73 h 13.61 V 52.959 h 36.096 V 74.73 h 17.753 V 91.206 H -74.56 V 45.898 h 19.528 V 22.947 h 29.586 v 22.951 h 13.018 V 11.475 l 12.428,0 z"
         style="fill:#4e84b0;fill-opacity:1;fill-rule:evenodd;stroke:none"
         transform="matrix(1.3333333,0,0,-1.3333333,408.57613,665.58333)"
         clip-path="url(#clipPath16)" />
      <path
         id="path17"
         d="m 135.426,312.624 h -24.27 v -44.718 h 24.27 z m 353.865,-98.853 h 23.66 v 12.945 h 6.509 v 37.07 h 14.794 v -11.18 h 21.304 v 11.18 h 20.118 v 48.838 H 489.291 Z M 306.432,160.812 h 13.611 v -5.001 h 18.942 V 312.624 H 266.793 V 183.76 h 14.193 v 22.95 h 13.018 v -34.423 h 12.428 z"
         style="fill:#5e96c1;fill-opacity:1;fill-rule:evenodd;stroke:none"
         transform="matrix(1.3333333,0,0,-1.3333333,0,880)"
         clip-path="url(#clipPath18)" />
      <path
         id="path19"
         d="M 0,0 V 20.88 H -660.387 V -3.408 c 2.015,-0.258 4.091,-0.393 6.212,-0.393 2.338,0 4.62,0.164 6.827,0.474 0.539,-9.409 12.244,-16.928 26.607,-16.928 12.765,0 23.429,5.937 26.024,13.865 0.69,-0.029 1.384,-0.044 2.084,-0.044 11.992,0 22.732,4.22 29.949,10.871 5.394,-3.114 12.012,-4.948 19.165,-4.948 7.896,0 15.141,2.235 20.806,5.958 6.381,-11.349 23.139,-19.449 42.807,-19.449 8.384,0 16.236,1.472 22.985,4.041 3.737,-9.523 16.668,-16.547 32.047,-16.547 14.318,0 26.514,6.088 31.146,14.61 3.356,-1.357 7.024,-2.104 10.868,-2.104 4.433,0 8.632,0.994 12.39,2.77 6.588,-11.503 21.743,-19.555 39.388,-19.555 4.011,0 7.89,0.418 11.573,1.194 5.89,-8.402 16.655,-14.029 28.961,-14.029 18.629,0 33.731,12.893 33.731,28.796 0,0.539 -0.02,1.074 -0.054,1.608 3.306,-0.724 6.798,-1.113 10.409,-1.113 11.5,0 21.79,3.936 28.682,10.138 2.816,-9.713 15.661,-17.05 31.084,-17.05 17.484,0 31.658,9.43 31.658,21.061 0,0.287 -0.01,0.575 -0.027,0.86 3.186,-0.561 6.512,-0.86 9.939,-0.86 6.328,0 12.322,1.016 17.691,2.827 2.162,-11.879 13.222,-20.927 26.541,-20.927 12.624,0 23.216,8.125 26.128,19.085 1.605,-0.212 3.254,-0.325 4.94,-0.325 3.255,0 6.381,0.416 9.294,1.18 4.124,-10.44 15.757,-17.964 29.466,-17.964 13.287,0 24.623,7.07 29.063,17.013 C -1.349,0.46 -0.68,0.226 0,0"
         style="fill:#3f709b;fill-opacity:1;fill-rule:evenodd;stroke:none"
         transform="matrix(1.3333333,0,0,-1.3333333,881.974,491.00787)"
         clip-path="url(#clipPath20)" />
      <path
         id="path21"
         d="m 0,0 h -93.496 v -41.119 c 12.233,0.358 22.32,6.172 24.833,13.849 0.69,-0.029 1.385,-0.044 2.084,-0.044 11.993,0 22.732,4.22 29.949,10.872 5.395,-3.115 12.012,-4.949 19.166,-4.949 6.418,0 12.405,1.478 17.464,4.031 z m 203.559,0 h -72.192 v -34.351 c 0.349,0.515 0.669,1.041 0.959,1.573 3.356,-1.357 7.025,-2.104 10.868,-2.104 4.433,0 8.632,0.994 12.39,2.77 6.588,-11.503 21.744,-19.555 39.388,-19.555 2.941,0 5.814,0.225 8.587,0.65 z M 463.927,0 H 353.865 v -39.786 c 10.185,3.5 17.151,10.571 17.151,18.725 0,0.287 -0.01,0.574 -0.027,0.859 3.186,-0.561 6.512,-0.859 9.939,-0.859 6.328,0 12.322,1.015 17.692,2.826 2.161,-11.879 13.221,-20.927 26.541,-20.927 12.623,0 23.215,8.125 26.128,19.085 1.604,-0.212 3.254,-0.325 4.939,-0.325 2.667,0 5.251,0.279 7.699,0.802 z"
         style="fill:#4e84b0;fill-opacity:1;fill-rule:evenodd;stroke:none"
         transform="matrix(1.3333333,0,0,-1.3333333,180.5684,463.168)"
         clip-path="url(#clipPath22)" />
      <path
         id="path23"
         d="M 0,0 C 16.177,0 29.291,-13.114 29.291,-29.291 29.291,-45.47 16.177,-58.583 0,-58.583 c -9.599,0 -18.118,4.617 -23.46,11.752 -8.08,-6.956 -18.596,-11.161 -30.092,-11.161 -6.811,0 -13.275,1.477 -19.096,4.124 -5.263,-16.463 -20.685,-28.385 -38.896,-28.385 -22.55,0 -40.83,18.28 -40.83,40.831 0,22.55 18.28,40.83 40.83,40.83 4.454,0 8.742,-0.717 12.754,-2.034 4.269,21.077 22.899,36.945 45.238,36.945 21.862,0 40.17,-15.197 44.944,-35.606 C -5.889,-0.451 -2.995,0 0,0 m -422.811,-62.764 v 75.822 c 6.151,3.369 13.212,5.286 20.721,5.286 6.887,0 13.398,-1.615 19.175,-4.483 8.702,21.04 29.425,35.846 53.609,35.846 25.229,0 46.691,-16.111 54.668,-38.608 21.738,-1.771 38.827,-19.971 38.827,-42.165 0,-23.369 -18.942,-42.311 -42.31,-42.311 -11.222,0 -21.423,4.371 -28.997,11.502 -6.835,-2.834 -14.328,-4.399 -22.188,-4.399 -14.89,0 -28.467,5.612 -38.736,14.838 -7.906,-10.114 -20.218,-16.615 -34.048,-16.615 -7.509,0 -14.57,1.919 -20.721,5.287 m 660.387,80.007 v -58.157 c -7.901,-8.674 -19.287,-14.117 -31.945,-14.117 -16.431,0 -30.72,9.175 -38.022,22.681 -4.07,-3.793 -9.527,-6.114 -15.53,-6.114 -12.582,0 -22.781,10.2 -22.781,22.782 0,12.582 10.199,22.784 22.781,22.784 4.827,0 9.303,-1.502 12.986,-4.065 6.061,16.531 21.937,28.324 40.566,28.324 12.658,0 24.044,-5.443 31.945,-14.118"
         style="fill:#205b2b;fill-opacity:1;fill-rule:evenodd;stroke:none"
         transform="matrix(1.3333333,0,0,-1.3333333,565.20573,689.612)"
         clip-path="url(#clipPath24)" />
      <path
         id="path25"
         d="M 1.093,-1 H 661.48 V 120.899 H 1.093 Z"
         style="fill:#267837;fill-opacity:1;fill-rule:evenodd;stroke:none"
         transform="matrix(1.3333333,0,0,-1.3333333,0,880)"
         clip-path="url(#clipPath26)" />
      <path
         id="path27"
         d="M 0,0 -660.387,-59.471 V -92.308 L 0,-92.308 Z"
         style="fill:#205b2b;fill-opacity:1;fill-rule:evenodd;stroke:none"
         transform="matrix(1.3333333,0,0,-1.3333333,881.974,758.25653)"
         clip-path="url(#clipPath28)" />
    </g>
  </g>
</svg>
