<?xml version="1.0" encoding="UTF-8" standalone="no"?>
<!-- Created with Inkscape (http://www.inkscape.org/) -->

<svg
   version="1.1"
   id="svg1"
   width="880"
   height="880"
   viewBox="0 0 880 880"
   sodipodi:docname="purple-landscape.svg"
   inkscape:version="1.3.2 (091e20e, 2023-11-25, custom)"
   xmlns:inkscape="http://www.inkscape.org/namespaces/inkscape"
   xmlns:sodipodi="http://sodipodi.sourceforge.net/DTD/sodipodi-0.dtd"
   xmlns="http://www.w3.org/2000/svg"
   xmlns:svg="http://www.w3.org/2000/svg">
  <defs
     id="defs1">
    <clipPath
       clipPathUnits="userSpaceOnUse"
       id="clipPath7">
      <path
         d="M 0,660 H 660 V 0 H 0 Z"
         transform="translate(0.2407,-80.6836)"
         id="path7" />
    </clipPath>
    <clipPath
       clipPathUnits="userSpaceOnUse"
       id="clipPath9">
      <path
         d="M 0,660 H 660 V 0 H 0 Z"
         transform="translate(-658.72072,-50.881801)"
         id="path9" />
    </clipPath>
    <clipPath
       clipPathUnits="userSpaceOnUse"
       id="clipPath11">
      <path
         d="M 0,660 H 660 V 0 H 0 Z"
         transform="translate(-67.894502,-426.97221)"
         id="path11" />
    </clipPath>
    <clipPath
       clipPathUnits="userSpaceOnUse"
       id="clipPath13">
      <path
         d="M 0,660 H 660 V 0 H 0 Z"
         transform="translate(-634.98442,-480.87161)"
         id="path13" />
    </clipPath>
    <clipPath
       clipPathUnits="userSpaceOnUse"
       id="clipPath15">
      <path
         d="M 0,660 H 660 V 0 H 0 Z"
         transform="translate(0.2407,-275.11431)"
         id="path15" />
    </clipPath>
    <clipPath
       clipPathUnits="userSpaceOnUse"
       id="clipPath17">
      <path
         d="M 0,660 H 660 V 0 H 0 Z"
         transform="translate(-106.0669,-545.87992)"
         id="path17" />
    </clipPath>
    <clipPath
       clipPathUnits="userSpaceOnUse"
       id="clipPath19">
      <path
         d="M 0,660 H 660 V 0 H 0 Z"
         transform="translate(-650.15822,-591.29641)"
         id="path19" />
    </clipPath>
    <clipPath
       clipPathUnits="userSpaceOnUse"
       id="clipPath21">
      <path
         d="M 0,660 H 660 V 0 H 0 Z"
         transform="translate(-121.8271,-315.72171)"
         id="path21" />
    </clipPath>
    <clipPath
       clipPathUnits="userSpaceOnUse"
       id="clipPath23">
      <path
         d="M 0,660 H 660 V 0 H 0 Z"
         transform="translate(-100.7412,-334.91891)"
         id="path23" />
    </clipPath>
    <clipPath
       clipPathUnits="userSpaceOnUse"
       id="clipPath25">
      <path
         d="M 0,660 H 660 V 0 H 0 Z"
         transform="translate(-112.7095,-326.17871)"
         id="path25" />
    </clipPath>
    <clipPath
       clipPathUnits="userSpaceOnUse"
       id="clipPath27">
      <path
         d="M 0,660 H 660 V 0 H 0 Z"
         transform="translate(-75.380402,-338.71681)"
         id="path27" />
    </clipPath>
    <clipPath
       clipPathUnits="userSpaceOnUse"
       id="clipPath29">
      <path
         d="M 0,660 H 660 V 0 H 0 Z"
         transform="translate(-84.162602,-333.57321)"
         id="path29" />
    </clipPath>
    <clipPath
       clipPathUnits="userSpaceOnUse"
       id="clipPath31">
      <path
         d="M 0,660 H 660 V 0 H 0 Z"
         transform="translate(-49.829101,-342.13771)"
         id="path31" />
    </clipPath>
    <clipPath
       clipPathUnits="userSpaceOnUse"
       id="clipPath33">
      <path
         d="M 0,660 H 660 V 0 H 0 Z"
         transform="translate(-61.607402,-329.40921)"
         id="path33" />
    </clipPath>
    <clipPath
       clipPathUnits="userSpaceOnUse"
       id="clipPath35">
      <path
         d="M 0,660 H 660 V 0 H 0 Z"
         transform="translate(-34.536601,-337.57811)"
         id="path35" />
    </clipPath>
    <clipPath
       clipPathUnits="userSpaceOnUse"
       id="clipPath37">
      <path
         d="M 0,660 H 660 V 0 H 0 Z"
         transform="translate(-24.4141,-319.28611)"
         id="path37" />
    </clipPath>
    <clipPath
       clipPathUnits="userSpaceOnUse"
       id="clipPath39">
      <path
         d="M 0,660 H 660 V 0 H 0 Z"
         transform="translate(-12.4048,-342.51861)"
         id="path39" />
    </clipPath>
    <clipPath
       clipPathUnits="userSpaceOnUse"
       id="clipPath41">
      <path
         d="M 0,660 H 660 V 0 H 0 Z"
         transform="translate(0.2407,-283.1035)"
         id="path41" />
    </clipPath>
    <clipPath
       clipPathUnits="userSpaceOnUse"
       id="clipPath43">
      <path
         d="M 0,660 H 660 V 0 H 0 Z"
         transform="translate(0.2407,-273.0811)"
         id="path43" />
    </clipPath>
    <clipPath
       clipPathUnits="userSpaceOnUse"
       id="clipPath45">
      <path
         d="M 0,660 H 660 V 0 H 0 Z"
         transform="translate(-121.8271,-257.041)"
         id="path45" />
    </clipPath>
    <clipPath
       clipPathUnits="userSpaceOnUse"
       id="clipPath47">
      <path
         d="M 0,660 H 660 V 0 H 0 Z"
         transform="translate(-100.7412,-249.82131)"
         id="path47" />
    </clipPath>
    <clipPath
       clipPathUnits="userSpaceOnUse"
       id="clipPath49">
      <path
         d="M 0,660 H 660 V 0 H 0 Z"
         transform="translate(-112.7095,-253.10841)"
         id="path49" />
    </clipPath>
    <clipPath
       clipPathUnits="userSpaceOnUse"
       id="clipPath51">
      <path
         d="M 0,660 H 660 V 0 H 0 Z"
         transform="translate(-75.380402,-248.39061)"
         id="path51" />
    </clipPath>
    <clipPath
       clipPathUnits="userSpaceOnUse"
       id="clipPath53">
      <path
         d="M 0,660 H 660 V 0 H 0 Z"
         transform="translate(-84.162602,-250.32621)"
         id="path53" />
    </clipPath>
    <clipPath
       clipPathUnits="userSpaceOnUse"
       id="clipPath55">
      <path
         d="M 0,660 H 660 V 0 H 0 Z"
         transform="translate(-49.829101,-247.10451)"
         id="path55" />
    </clipPath>
    <clipPath
       clipPathUnits="userSpaceOnUse"
       id="clipPath57">
      <path
         d="M 0,660 H 660 V 0 H 0 Z"
         transform="translate(-61.607402,-251.89261)"
         id="path57" />
    </clipPath>
    <clipPath
       clipPathUnits="userSpaceOnUse"
       id="clipPath59">
      <path
         d="M 0,660 H 660 V 0 H 0 Z"
         transform="translate(-34.536601,-248.82031)"
         id="path59" />
    </clipPath>
    <clipPath
       clipPathUnits="userSpaceOnUse"
       id="clipPath61">
      <path
         d="M 0,660 H 660 V 0 H 0 Z"
         transform="translate(-24.4141,-255.69921)"
         id="path61" />
    </clipPath>
    <clipPath
       clipPathUnits="userSpaceOnUse"
       id="clipPath63">
      <path
         d="M 0,660 H 660 V 0 H 0 Z"
         transform="translate(-12.4048,-246.96091)"
         id="path63" />
    </clipPath>
    <clipPath
       clipPathUnits="userSpaceOnUse"
       id="clipPath65">
      <path
         d="M 0,660 H 660 V 0 H 0 Z"
         transform="translate(0.2407,-269.30961)"
         id="path65" />
    </clipPath>
    <clipPath
       clipPathUnits="userSpaceOnUse"
       id="clipPath67">
      <path
         d="M 0,660 H 660 V 0 H 0 Z"
         transform="translate(0.2407,-273.0811)"
         id="path67" />
    </clipPath>
    <clipPath
       clipPathUnits="userSpaceOnUse"
       id="clipPath69">
      <path
         d="M 0,660 H 660 V 0 H 0 Z"
         transform="translate(-658.72072,-334.54001)"
         id="path69" />
    </clipPath>
    <clipPath
       clipPathUnits="userSpaceOnUse"
       id="clipPath71">
      <path
         d="M 0,660 H 660 V 0 H 0 Z"
         transform="translate(-647.38772,-317.39941)"
         id="path71" />
    </clipPath>
    <clipPath
       clipPathUnits="userSpaceOnUse"
       id="clipPath73">
      <path
         d="M 0,660 H 660 V 0 H 0 Z"
         transform="translate(-635.37992,-326.38181)"
         id="path73" />
    </clipPath>
    <clipPath
       clipPathUnits="userSpaceOnUse"
       id="clipPath75">
      <path
         d="M 0,660 H 660 V 0 H 0 Z"
         transform="translate(-621.32032,-331.89011)"
         id="path75" />
    </clipPath>
    <clipPath
       clipPathUnits="userSpaceOnUse"
       id="clipPath77">
      <path
         d="M 0,660 H 660 V 0 H 0 Z"
         transform="translate(-607.26371,-318.77151)"
         id="path77" />
    </clipPath>
    <clipPath
       clipPathUnits="userSpaceOnUse"
       id="clipPath79">
      <path
         d="M 0,660 H 660 V 0 H 0 Z"
         transform="translate(-597.42581,-311.32031)"
         id="path79" />
    </clipPath>
    <clipPath
       clipPathUnits="userSpaceOnUse"
       id="clipPath81">
      <path
         d="M 0,660 H 660 V 0 H 0 Z"
         transform="translate(-584.56252,-327.33011)"
         id="path81" />
    </clipPath>
    <clipPath
       clipPathUnits="userSpaceOnUse"
       id="clipPath83">
      <path
         d="M 0,660 H 660 V 0 H 0 Z"
         transform="translate(-572.01761,-310.05181)"
         id="path83" />
    </clipPath>
    <clipPath
       clipPathUnits="userSpaceOnUse"
       id="clipPath85">
      <path
         d="M 0,660 H 660 V 0 H 0 Z"
         transform="translate(-658.72072,-286.1455)"
         id="path85" />
    </clipPath>
    <clipPath
       clipPathUnits="userSpaceOnUse"
       id="clipPath87">
      <path
         d="M 0,660 H 660 V 0 H 0 Z"
         transform="translate(-658.72072,-242.91891)"
         id="path87" />
    </clipPath>
    <clipPath
       clipPathUnits="userSpaceOnUse"
       id="clipPath89">
      <path
         d="M 0,660 H 660 V 0 H 0 Z"
         transform="translate(-647.38772,-249.3682)"
         id="path89" />
    </clipPath>
    <clipPath
       clipPathUnits="userSpaceOnUse"
       id="clipPath91">
      <path
         d="M 0,660 H 660 V 0 H 0 Z"
         transform="translate(-635.37992,-245.9893)"
         id="path91" />
    </clipPath>
    <clipPath
       clipPathUnits="userSpaceOnUse"
       id="clipPath93">
      <path
         d="M 0,660 H 660 V 0 H 0 Z"
         transform="translate(-621.32032,-243.91801)"
         id="path93" />
    </clipPath>
    <clipPath
       clipPathUnits="userSpaceOnUse"
       id="clipPath95">
      <path
         d="M 0,660 H 660 V 0 H 0 Z"
         transform="translate(-607.26371,-248.85061)"
         id="path95" />
    </clipPath>
    <clipPath
       clipPathUnits="userSpaceOnUse"
       id="clipPath97">
      <path
         d="M 0,660 H 660 V 0 H 0 Z"
         transform="translate(-597.42581,-251.6533)"
         id="path97" />
    </clipPath>
    <clipPath
       clipPathUnits="userSpaceOnUse"
       id="clipPath99">
      <path
         d="M 0,660 H 660 V 0 H 0 Z"
         transform="translate(-584.56252,-245.63181)"
         id="path99" />
    </clipPath>
    <clipPath
       clipPathUnits="userSpaceOnUse"
       id="clipPath101">
      <path
         d="M 0,660 H 660 V 0 H 0 Z"
         transform="translate(-572.01761,-252.1318)"
         id="path101" />
    </clipPath>
    <clipPath
       clipPathUnits="userSpaceOnUse"
       id="clipPath103">
      <path
         d="M 0,660 H 660 V 0 H 0 Z"
         transform="translate(-658.72072,-261.12501)"
         id="path103" />
    </clipPath>
    <clipPath
       clipPathUnits="userSpaceOnUse"
       id="clipPath105">
      <path
         d="M 0,660 H 660 V 0 H 0 Z"
         transform="translate(-118.7065,-294.23541)"
         id="path105" />
    </clipPath>
    <clipPath
       clipPathUnits="userSpaceOnUse"
       id="clipPath107">
      <path
         d="M 0,660 H 660 V 0 H 0 Z"
         transform="translate(-154.24071,-326.58691)"
         id="path107" />
    </clipPath>
    <clipPath
       clipPathUnits="userSpaceOnUse"
       id="clipPath109">
      <path
         d="M 0,660 H 660 V 0 H 0 Z"
         transform="translate(-134.0713,-311.86041)"
         id="path109" />
    </clipPath>
    <clipPath
       clipPathUnits="userSpaceOnUse"
       id="clipPath111">
      <path
         d="M 0,660 H 660 V 0 H 0 Z"
         transform="translate(-196.97751,-332.98971)"
         id="path111" />
    </clipPath>
    <clipPath
       clipPathUnits="userSpaceOnUse"
       id="clipPath113">
      <path
         d="M 0,660 H 660 V 0 H 0 Z"
         transform="translate(-182.1768,-324.32131)"
         id="path113" />
    </clipPath>
    <clipPath
       clipPathUnits="userSpaceOnUse"
       id="clipPath115">
      <path
         d="M 0,660 H 660 V 0 H 0 Z"
         transform="translate(-240.0352,-338.75291)"
         id="path115" />
    </clipPath>
    <clipPath
       clipPathUnits="userSpaceOnUse"
       id="clipPath117">
      <path
         d="M 0,660 H 660 V 0 H 0 Z"
         transform="translate(-220.18701,-317.30271)"
         id="path117" />
    </clipPath>
    <clipPath
       clipPathUnits="userSpaceOnUse"
       id="clipPath119">
      <path
         d="M 0,660 H 660 V 0 H 0 Z"
         transform="translate(-265.80621,-331.06931)"
         id="path119" />
    </clipPath>
    <clipPath
       clipPathUnits="userSpaceOnUse"
       id="clipPath121">
      <path
         d="M 0,660 H 660 V 0 H 0 Z"
         transform="translate(-282.86431,-300.24611)"
         id="path121" />
    </clipPath>
    <clipPath
       clipPathUnits="userSpaceOnUse"
       id="clipPath123">
      <path
         d="M 0,660 H 660 V 0 H 0 Z"
         transform="translate(-303.10011,-339.39261)"
         id="path123" />
    </clipPath>
    <clipPath
       clipPathUnits="userSpaceOnUse"
       id="clipPath125">
      <path
         d="M 0,660 H 660 V 0 H 0 Z"
         transform="translate(-328.39161,-316.34281)"
         id="path125" />
    </clipPath>
    <clipPath
       clipPathUnits="userSpaceOnUse"
       id="clipPath127">
      <path
         d="M 0,660 H 660 V 0 H 0 Z"
         transform="translate(-348.72171,-329.46831)"
         id="path127" />
    </clipPath>
    <clipPath
       clipPathUnits="userSpaceOnUse"
       id="clipPath129">
      <path
         d="M 0,660 H 660 V 0 H 0 Z"
         transform="translate(-370.52731,-318.44141)"
         id="path129" />
    </clipPath>
    <clipPath
       clipPathUnits="userSpaceOnUse"
       id="clipPath131">
      <path
         d="M 0,660 H 660 V 0 H 0 Z"
         transform="translate(-393.89651,-335.40771)"
         id="path131" />
    </clipPath>
    <clipPath
       clipPathUnits="userSpaceOnUse"
       id="clipPath133">
      <path
         d="M 0,660 H 660 V 0 H 0 Z"
         transform="translate(-413.15721,-305.68751)"
         id="path133" />
    </clipPath>
    <clipPath
       clipPathUnits="userSpaceOnUse"
       id="clipPath135">
      <path
         d="M 0,660 H 660 V 0 H 0 Z"
         transform="translate(-433.39361,-320.82321)"
         id="path135" />
    </clipPath>
    <clipPath
       clipPathUnits="userSpaceOnUse"
       id="clipPath137">
      <path
         d="M 0,660 H 660 V 0 H 0 Z"
         transform="translate(-457.08401,-330.10791)"
         id="path137" />
    </clipPath>
    <clipPath
       clipPathUnits="userSpaceOnUse"
       id="clipPath139">
      <path
         d="M 0,660 H 660 V 0 H 0 Z"
         transform="translate(-480.77341,-308.00001)"
         id="path139" />
    </clipPath>
    <clipPath
       clipPathUnits="userSpaceOnUse"
       id="clipPath141">
      <path
         d="M 0,660 H 660 V 0 H 0 Z"
         transform="translate(-497.35161,-295.44531)"
         id="path141" />
    </clipPath>
    <clipPath
       clipPathUnits="userSpaceOnUse"
       id="clipPath143">
      <path
         d="M 0,660 H 660 V 0 H 0 Z"
         transform="translate(-519.02831,-322.42581)"
         id="path143" />
    </clipPath>
    <clipPath
       clipPathUnits="userSpaceOnUse"
       id="clipPath145">
      <path
         d="M 0,660 H 660 V 0 H 0 Z"
         transform="translate(-540.16801,-293.30761)"
         id="path145" />
    </clipPath>
    <clipPath
       clipPathUnits="userSpaceOnUse"
       id="clipPath147">
      <path
         d="M 0,660 H 660 V 0 H 0 Z"
         transform="translate(-336.71681,-254.39551)"
         id="path147" />
    </clipPath>
    <clipPath
       clipPathUnits="userSpaceOnUse"
       id="clipPath149">
      <path
         d="M 0,660 H 660 V 0 H 0 Z"
         transform="translate(-118.7065,-195.3525)"
         id="path149" />
    </clipPath>
    <clipPath
       clipPathUnits="userSpaceOnUse"
       id="clipPath151">
      <path
         d="M 0,660 H 660 V 0 H 0 Z"
         transform="translate(-154.24071,-183.1846)"
         id="path151" />
    </clipPath>
    <clipPath
       clipPathUnits="userSpaceOnUse"
       id="clipPath153">
      <path
         d="M 0,660 H 660 V 0 H 0 Z"
         transform="translate(-134.0713,-188.72271)"
         id="path153" />
    </clipPath>
    <clipPath
       clipPathUnits="userSpaceOnUse"
       id="clipPath155">
      <path
         d="M 0,660 H 660 V 0 H 0 Z"
         transform="translate(-196.97751,-180.77541)"
         id="path155" />
    </clipPath>
    <clipPath
       clipPathUnits="userSpaceOnUse"
       id="clipPath157">
      <path
         d="M 0,660 H 660 V 0 H 0 Z"
         transform="translate(-182.1768,-184.03611)"
         id="path157" />
    </clipPath>
    <clipPath
       clipPathUnits="userSpaceOnUse"
       id="clipPath159">
      <path
         d="M 0,660 H 660 V 0 H 0 Z"
         transform="translate(-240.0352,-178.6084)"
         id="path159" />
    </clipPath>
    <clipPath
       clipPathUnits="userSpaceOnUse"
       id="clipPath161">
      <path
         d="M 0,660 H 660 V 0 H 0 Z"
         transform="translate(-220.18701,-186.6768)"
         id="path161" />
    </clipPath>
    <clipPath
       clipPathUnits="userSpaceOnUse"
       id="clipPath163">
      <path
         d="M 0,660 H 660 V 0 H 0 Z"
         transform="translate(-265.80621,-181.4971)"
         id="path163" />
    </clipPath>
    <clipPath
       clipPathUnits="userSpaceOnUse"
       id="clipPath165">
      <path
         d="M 0,660 H 660 V 0 H 0 Z"
         transform="translate(-282.86431,-193.0918)"
         id="path165" />
    </clipPath>
    <clipPath
       clipPathUnits="userSpaceOnUse"
       id="clipPath167">
      <path
         d="M 0,660 H 660 V 0 H 0 Z"
         transform="translate(-303.10011,-178.3662)"
         id="path167" />
    </clipPath>
    <clipPath
       clipPathUnits="userSpaceOnUse"
       id="clipPath169">
      <path
         d="M 0,660 H 660 V 0 H 0 Z"
         transform="translate(-328.39161,-187.0381)"
         id="path169" />
    </clipPath>
    <clipPath
       clipPathUnits="userSpaceOnUse"
       id="clipPath171">
      <path
         d="M 0,660 H 660 V 0 H 0 Z"
         transform="translate(-348.72171,-182.09961)"
         id="path171" />
    </clipPath>
    <clipPath
       clipPathUnits="userSpaceOnUse"
       id="clipPath173">
      <path
         d="M 0,660 H 660 V 0 H 0 Z"
         transform="translate(-370.52731,-186.24711)"
         id="path173" />
    </clipPath>
    <clipPath
       clipPathUnits="userSpaceOnUse"
       id="clipPath175">
      <path
         d="M 0,660 H 660 V 0 H 0 Z"
         transform="translate(-393.89651,-179.8662)"
         id="path175" />
    </clipPath>
    <clipPath
       clipPathUnits="userSpaceOnUse"
       id="clipPath177">
      <path
         d="M 0,660 H 660 V 0 H 0 Z"
         transform="translate(-413.15721,-191.04591)"
         id="path177" />
    </clipPath>
    <clipPath
       clipPathUnits="userSpaceOnUse"
       id="clipPath179">
      <path
         d="M 0,660 H 660 V 0 H 0 Z"
         transform="translate(-433.39361,-185.3506)"
         id="path179" />
    </clipPath>
    <clipPath
       clipPathUnits="userSpaceOnUse"
       id="clipPath181">
      <path
         d="M 0,660 H 660 V 0 H 0 Z"
         transform="translate(-457.08401,-181.85841)"
         id="path181" />
    </clipPath>
    <clipPath
       clipPathUnits="userSpaceOnUse"
       id="clipPath183">
      <path
         d="M 0,660 H 660 V 0 H 0 Z"
         transform="translate(-480.77341,-190.1748)"
         id="path183" />
    </clipPath>
    <clipPath
       clipPathUnits="userSpaceOnUse"
       id="clipPath185">
      <path
         d="M 0,660 H 660 V 0 H 0 Z"
         transform="translate(-497.35161,-194.8975)"
         id="path185" />
    </clipPath>
    <clipPath
       clipPathUnits="userSpaceOnUse"
       id="clipPath187">
      <path
         d="M 0,660 H 660 V 0 H 0 Z"
         transform="translate(-519.02831,-184.749)"
         id="path187" />
    </clipPath>
    <clipPath
       clipPathUnits="userSpaceOnUse"
       id="clipPath189">
      <path
         d="M 0,660 H 660 V 0 H 0 Z"
         transform="translate(-540.16801,-195.7021)"
         id="path189" />
    </clipPath>
    <clipPath
       clipPathUnits="userSpaceOnUse"
       id="clipPath191">
      <path
         d="M 0,660 H 660 V 0 H 0 Z"
         transform="translate(-336.71681,-210.33891)"
         id="path191" />
    </clipPath>
    <clipPath
       clipPathUnits="userSpaceOnUse"
       id="clipPath193">
      <path
         d="M 0,660 H 660 V 0 H 0 Z"
         transform="translate(-329.23971,-567.25151)"
         id="path193" />
    </clipPath>
    <clipPath
       clipPathUnits="userSpaceOnUse"
       id="clipPath195">
      <path
         d="M 0,660 H 660 V 0 H 0 Z"
         transform="translate(-330.47751,-171.126)"
         id="path195" />
    </clipPath>
    <clipPath
       clipPathUnits="userSpaceOnUse"
       id="clipPath197">
      <path
         d="M 0,660 H 660 V 0 H 0 Z"
         transform="translate(-468.45121,-139.1172)"
         id="path197" />
    </clipPath>
    <clipPath
       clipPathUnits="userSpaceOnUse"
       id="clipPath199">
      <path
         d="M 0,660 H 660 V 0 H 0 Z"
         transform="translate(-591.64651,-212.41411)"
         id="path199" />
    </clipPath>
    <clipPath
       clipPathUnits="userSpaceOnUse"
       id="clipPath201">
      <path
         d="M 0,660 H 660 V 0 H 0 Z"
         transform="translate(-75.779304,-214.3936)"
         id="path201" />
    </clipPath>
    <clipPath
       clipPathUnits="userSpaceOnUse"
       id="clipPath203">
      <path
         d="M 0,660 H 660 V 0 H 0 Z"
         transform="translate(-102.82131,-143.5332)"
         id="path203" />
    </clipPath>
  </defs>
  <sodipodi:namedview
     id="namedview1"
     pagecolor="#ffffff"
     bordercolor="#000000"
     borderopacity="0.25"
     inkscape:showpageshadow="2"
     inkscape:pageopacity="0.0"
     inkscape:pagecheckerboard="0"
     inkscape:deskcolor="#d1d1d1"
     inkscape:zoom="0.67272727"
     inkscape:cx="439.25676"
     inkscape:cy="440"
     inkscape:window-width="1440"
     inkscape:window-height="830"
     inkscape:window-x="-6"
     inkscape:window-y="-6"
     inkscape:window-maximized="1"
     inkscape:current-layer="g1">
    <inkscape:page
       x="0"
       y="0"
       inkscape:label="1"
       id="page1"
       width="880"
       height="880"
       margin="0.21612532 1.7053334 1.1666666 0"
       bleed="0" />
  </sodipodi:namedview>
  <g
     id="g1"
     inkscape:groupmode="layer"
     inkscape:label="1">
    <g
       id="group-MC0">
      <path
         id="path2"
         d="M 0,0.162 H 658.721 V 659.125 H 0 Z"
         style="fill:#f0d8ee;fill-opacity:1;fill-rule:nonzero;stroke:none"
         transform="matrix(1.3333333,0,0,-1.3333333,0,880)" />
      <path
         id="path3"
         d="M 0,0 71.191,41.102 202.876,-34.927 333.279,40.362 451.221,-27.733 435.739,-38.094 H 12.972 Z"
         style="fill:#e7c9e8;fill-opacity:1;fill-rule:evenodd;stroke:none"
         transform="matrix(1.3333333,0,0,-1.3333333,124.76893,443.40107)" />
      <path
         id="path4"
         d="M 0,0 -112.789,65.12 -207.08,10.683 -323.775,78.054 -400.168,33.95 V -6.956 H 258.553 V 48.463 L 171.245,98.87 Z"
         style="fill:#debbe2;fill-opacity:1;fill-rule:nonzero;stroke:none"
         transform="matrix(1.3333333,0,0,-1.3333333,533.5572,484.918)" />
      <path
         id="path5"
         d="M 0,0.162 H 658.721 V 289.355 L 0,289.355 Z"
         style="fill:#d4aada;fill-opacity:1;fill-rule:nonzero;stroke:none"
         transform="matrix(1.3333333,0,0,-1.3333333,0,880)" />
      <path
         id="path6"
         d="m 0,0 v -80.522 h 658.961 v 45.082 c -5.702,17.53 -15.95,33.925 -29.064,47.809 -5.171,-10.886 -7.427,-23.7 -6.194,-37.719 -8.548,8.745 -18.552,15.519 -29.353,20.208 -0.273,2.821 -0.661,5.627 -1.161,8.408 -6.165,-3.499 -12.001,-7.63 -17.396,-12.353 -0.368,17.068 -4.94,34.367 -1.45,55.247 -17.92,-14.07 -30.533,-33.17 -36.918,-54.156 -6.279,11.695 -14.739,21.422 -24.699,28.85 -3.988,-12.522 -5.93,-25.666 -5.514,-38.791 -7.065,16.239 -18.065,30.858 -32.514,42.205 2.844,-17.019 0.33,-31.656 -0.894,-45.731 -10.549,-6.576 -20.036,-14.605 -27.813,-23.861 0.21,1.998 0.357,4.017 0.44,6.051 0.816,20.005 -4.745,38.793 -14.868,54.401 -9.396,-12.184 -15.857,-26.787 -18.273,-42.793 -6.149,8.993 -13.407,17.448 -21.464,25.134 -2.159,-5.814 -3.428,-12.179 -3.736,-18.983 -1.431,3.207 -3.014,6.364 -4.735,9.461 -0.85,9.535 -1.262,19.574 0.585,30.618 -4.725,-3.71 -9.075,-7.77 -13.046,-12.121 -2.397,2.99 -4.923,5.889 -7.563,8.684 -3.946,-8.305 -6.193,-17.738 -6.49,-27.972 -5.152,-9 -9.004,-18.679 -11.454,-28.715 -0.924,2.58 -1.944,5.131 -3.057,7.639 3.301,9.39 4.491,18.72 3.7,27.583 -5.067,-2.508 -9.963,-5.328 -14.629,-8.441 -5.904,8.282 -13.012,15.807 -21.244,22.271 2.513,-15.024 0.848,-28.194 -0.42,-40.759 -2.864,-3.14 -5.527,-6.435 -7.959,-9.874 3.464,21.754 -5.041,42.447 -0.622,68.878 -18.732,-14.708 -31.669,-34.91 -37.75,-57.02 -5.183,24.665 -18.766,47.452 -39.344,63.61 2.856,-17.085 0.314,-31.771 -0.907,-45.897 -4.11,6.023 -8.743,11.753 -13.803,17.108 -2.683,-5.648 -4.58,-11.819 -5.613,-18.407 -5.872,-5.708 -11.02,-12.014 -15.398,-18.764 -0.495,16.795 -4.862,33.867 -1.427,54.405 -10.313,-8.098 -18.867,-17.861 -25.49,-28.69 -0.37,14.901 -3.402,28.823 -8.647,41.086 -9.011,-11.665 -16.325,-25.205 -21.278,-39.98 -2.545,9.448 -6.547,18.323 -11.757,26.355 -10.032,-13.01 -16.719,-28.78 -18.706,-46.067 -1.642,5.27 -3.577,10.469 -5.784,15.579 C 97.054,0.683 96.858,12.38 94.83,23.686 90.169,21.043 85.7,18.037 81.465,14.69 75.15,24.418 67.861,33.633 59.797,42.168 51.293,24.262 48.424,2.621 52.501,-21.101 c -0.344,-0.691 -0.681,-1.388 -1.012,-2.092 -1.694,-3.614 -3.165,-7.274 -4.421,-10.963 -1.488,4.25 -3.359,8.38 -5.603,12.326 C 42.527,-2.539 36.163,16.486 40.11,40.088 26.765,29.608 16.363,16.339 9.284,1.581 8.105,3.758 6.844,5.886 5.501,7.955 3.536,5.405 1.699,2.75 0,0"
         style="fill:#6c5081;fill-opacity:1;fill-rule:evenodd;stroke:none"
         transform="matrix(1.3333333,0,0,-1.3333333,-0.32093333,772.42187)"
         clip-path="url(#clipPath7)" />
      <path
         id="path8"
         d="m 0,0 v -50.72 h -658.961 v 15.278 c 5.7,17.531 15.95,33.929 29.065,47.81 5.17,-10.884 7.425,-23.697 6.191,-37.717 8.548,8.745 18.554,15.518 29.354,20.207 0.274,2.821 0.661,5.627 1.161,8.407 6.166,-3.498 12.001,-7.627 17.396,-12.352 0.369,17.069 4.941,34.366 1.45,55.246 17.919,-14.07 30.533,-33.17 36.918,-54.157 6.278,11.696 14.739,21.423 24.698,28.852 3.989,-12.523 5.932,-25.666 5.516,-38.79 7.064,16.24 18.064,30.856 32.515,42.203 -2.846,-17.017 -0.332,-31.655 0.893,-45.729 10.547,-6.575 20.035,-14.605 27.813,-23.861 -0.211,1.998 -0.359,4.017 -0.441,6.051 -0.816,20.006 4.745,38.791 14.868,54.401 9.396,-12.184 15.857,-26.788 18.273,-42.792 6.15,8.99 13.408,17.448 21.463,25.134 2.159,-5.814 3.43,-12.181 3.737,-18.987 1.432,3.209 3.015,6.368 4.736,9.461 0.85,9.536 1.261,19.576 -0.586,30.619 4.725,-3.708 9.076,-7.77 13.046,-12.119 2.397,2.99 4.921,5.887 7.564,8.684 3.945,-8.307 6.192,-17.737 6.489,-27.971 5.153,-9.001 9.004,-18.683 11.455,-28.716 0.923,2.58 1.944,5.128 3.057,7.636 -3.302,9.392 -4.493,18.723 -3.701,27.584 5.067,-2.505 9.964,-5.329 14.628,-8.44 5.905,8.282 13.013,15.808 21.246,22.27 -2.514,-15.023 -0.849,-28.195 0.42,-40.761 2.864,-3.139 5.526,-6.431 7.959,-9.87 -3.464,21.753 5.041,42.446 0.621,68.878 18.73,-14.708 31.67,-34.909 37.751,-57.02 5.182,24.666 18.766,47.452 39.343,63.608 -2.856,-17.085 -0.314,-31.77 0.908,-45.898 4.108,6.025 8.744,11.757 13.802,17.111 2.683,-5.649 4.58,-11.818 5.613,-18.408 5.873,-5.709 11.019,-12.012 15.398,-18.767 0.495,16.798 4.861,33.868 1.428,54.407 10.312,-8.097 18.865,-17.861 25.489,-28.688 0.37,14.9 3.402,28.823 8.647,41.086 9.011,-11.665 16.325,-25.207 21.278,-39.982 2.546,9.45 6.547,18.323 11.757,26.357 10.033,-13.01 16.718,-28.779 18.707,-46.065 1.641,5.267 3.577,10.466 5.783,15.576 -1.802,11.627 -1.606,23.323 0.422,34.629 4.66,-2.643 9.13,-5.647 13.364,-8.996 6.315,9.73 13.606,18.945 21.668,27.48 8.505,-17.906 11.375,-39.549 7.298,-63.268 0.343,-0.693 0.681,-1.39 1.011,-2.094 1.694,-3.612 3.167,-7.273 4.421,-10.966 1.487,4.254 3.359,8.383 5.605,12.331 -1.063,19.291 5.3,38.315 1.355,61.917 C -26.765,29.609 -16.363,16.34 -9.285,1.58 -8.106,3.758 -6.846,5.885 -5.501,7.954 -3.536,5.406 -1.7,2.751 0,0"
         style="fill:#443155;fill-opacity:1;fill-rule:evenodd;stroke:none"
         transform="matrix(1.3333333,0,0,-1.3333333,878.29427,812.1576)"
         clip-path="url(#clipPath9)" />
      <path
         id="path10"
         d="m 0,0 c 1.843,0 3.414,-0.538 4.628,-1.478 2.921,9.673 12.423,17.483 21.31,17.483 7.623,0 12.331,-5.748 11.781,-13.487 2.892,1.556 5.989,2.449 9.016,2.449 4.416,0 7.87,-1.9 9.917,-4.991 4.135,6.465 11.207,11.062 17.917,11.062 4.605,0 8.113,-2.165 9.971,-5.612 3.716,2.737 7.994,4.393 12.141,4.393 3.71,0 6.747,-1.325 8.859,-3.564 6.32,7.797 15.53,13.061 24.324,13.061 10.851,0 17.636,-8.015 17.159,-18.914 0.627,0.098 1.256,0.151 1.88,0.151 1.739,0 3.276,-0.4 4.562,-1.119 l 3.262,-0.173 c 4.748,6.626 12.241,11.225 19.371,11.225 7.733,0 12.721,-5.407 12.926,-12.944 l 18.091,-0.962 c 3.854,4.074 8.997,6.732 13.93,6.732 3.703,0 6.646,-1.497 8.505,-3.965 2.886,7.786 10.661,13.899 17.955,13.899 6.189,0 10.143,-4.4 10.179,-10.487 1.103,0.358 2.224,0.553 3.331,0.553 5.259,0 8.3,-4.381 7.146,-9.981 l 35.417,-1.885 H -43.993 l 32.607,1.683 C -8.698,-2.841 -4.237,0 0,0"
         style="fill:#ffffff;fill-opacity:1;fill-rule:evenodd;stroke:none"
         transform="matrix(1.3333333,0,0,-1.3333333,90.526,310.70373)"
         clip-path="url(#clipPath11)" />
      <path
         id="path12"
         d="m 0,0 -35.675,1.898 c 0.288,4.778 -2.647,8.311 -7.372,8.311 -3.363,0 -6.868,-1.791 -9.515,-4.545 -1.766,1.847 -4.293,2.939 -7.375,2.939 -3.386,0 -6.876,-1.318 -9.932,-3.508 2.006,8.393 -2.428,15.048 -10.235,15.048 -4.197,0 -8.544,-1.922 -12.122,-5.002 0.157,6.08 -3.688,10.522 -9.787,10.522 -5.945,0 -12.221,-4.221 -15.691,-10.066 -2.251,2.506 -5.553,3.995 -9.613,3.995 -5.872,0 -11.989,-3.119 -16.618,-7.919 -1.178,3.451 -4.173,5.711 -8.312,5.711 -2.622,0 -5.314,-0.905 -7.751,-2.446 -2.775,5.228 -8.057,8.517 -15.008,8.517 -7.784,0 -15.893,-4.127 -22.038,-10.481 -2.08,3.075 -5.552,4.962 -9.977,4.962 -5.252,0 -10.711,-2.653 -14.977,-6.796 -1.994,2.186 -4.898,3.485 -8.465,3.485 -4.037,0 -8.205,-1.665 -11.783,-4.398 -0.148,7.054 -4.792,12.124 -12.008,12.124 -7.808,0 -16.085,-5.937 -20.097,-13.899 -1.93,1.468 -4.417,2.309 -7.331,2.309 -4.505,0 -9.17,-2.008 -13.053,-5.248 0.147,4.623 -2.76,8.008 -7.386,8.008 -5.589,0 -11.566,-4.941 -13.354,-11.038 -0.082,-0.282 -0.154,-0.561 -0.215,-0.838 L -347.568,0 Z"
         style="fill:#ffffff;fill-opacity:1;fill-rule:evenodd;stroke:none"
         transform="matrix(1.3333333,0,0,-1.3333333,846.64587,238.83787)"
         clip-path="url(#clipPath13)" />
      <path
         id="path14"
         d="m 0,0 76.633,-15.455 59.363,11.972 29.012,-4.754 60.262,9.874 62.35,-12.575 70.483,14.217 68.993,-11.307 39.546,6.481 105.012,-21.181 87.307,17.61 V 14.241 H 529.556 106.789 0 Z"
         style="fill:#cc9ed5;fill-opacity:1;fill-rule:evenodd;stroke:none"
         transform="matrix(1.3333333,0,0,-1.3333333,-0.32093333,513.18093)"
         clip-path="url(#clipPath15)" />
      <path
         id="path16"
         d="m 0,0 c 0.857,0 1.574,-0.259 2.124,-0.717 2.58,4.837 7.368,8.444 11.601,8.444 2.946,0 4.955,-1.746 5.649,-4.439 0.989,0.373 1.985,0.575 2.95,0.575 1.369,0 2.519,-0.408 3.406,-1.131 2.394,3.277 5.904,5.546 9.064,5.546 3.378,0 5.365,-2.59 5.238,-6.235 2.141,2.082 4.738,3.407 7.131,3.407 2.514,0 4.243,-1.461 4.88,-3.725 2.073,1.687 4.424,2.719 6.616,2.719 3.02,0 4.991,-1.958 5.449,-4.891 3.01,4.906 8.007,8.451 12.462,8.451 4.3,0 6.827,-3.304 6.658,-7.948 2.182,2.177 4.859,3.573 7.322,3.573 1.588,0 2.863,-0.58 3.752,-1.575 4.152,4.893 9.697,8.157 14.742,8.157 4.327,0 7.367,-2.401 8.632,-6.174 2.064,1.747 4.436,2.824 6.641,2.824 3.45,0 5.487,-2.633 5.379,-6.343 1.809,1.792 4.02,2.937 6.056,2.937 3.482,0 5.165,-3.353 3.875,-7.561 l 30.839,-1.115 H -38.094 L -6.19,-4.094 C -4.658,-1.706 -2.198,0 0,0"
         style="fill:#ffffff;fill-opacity:1;fill-rule:evenodd;stroke:none"
         transform="matrix(1.3333333,0,0,-1.3333333,141.42253,152.16013)"
         clip-path="url(#clipPath17)" />
      <path
         id="path18"
         d="m 0,0 -42.915,1.551 c 0.717,4.823 -1.597,8.408 -5.833,8.408 -3.412,0 -7.181,-2.324 -9.883,-5.747 -0.629,3.908 -3.267,6.511 -7.305,6.511 -1.53,0 -3.12,-0.375 -4.685,-1.054 0.74,9.479 -4.184,16.33 -12.782,16.33 -7.667,0 -16.174,-5.449 -22.038,-13.351 -1.167,0.965 -2.686,1.511 -4.498,1.511 -4.075,0 -8.576,-2.759 -11.82,-6.833 -0.693,5.005 -3.992,8.362 -9.091,8.362 -5.437,0 -11.464,-3.819 -15.667,-9.383 -0.014,5.066 -2.896,8.618 -7.684,8.618 -4.031,0 -8.45,-2.52 -11.841,-6.342 -1.216,1.817 -3.183,2.905 -5.734,2.905 -4.382,0 -9.254,-3.206 -12.511,-7.804 l -0.557,-0.021 c -1.071,2.696 -3.376,4.389 -6.586,4.389 -1.662,0 -3.392,-0.453 -5.081,-1.263 -0.002,5.006 -2.844,8.518 -7.568,8.518 -3.331,0 -6.932,-1.747 -9.977,-4.532 -1.288,0.946 -2.912,1.479 -4.822,1.479 -3.923,0 -8.193,-2.242 -11.657,-5.734 -0.563,2.091 -2.138,3.441 -4.44,3.441 -3.834,0 -8.242,-3.751 -9.928,-8.416 L -288.639,0 Z"
         style="fill:#ffffff;fill-opacity:1;fill-rule:evenodd;stroke:none"
         transform="matrix(1.3333333,0,0,-1.3333333,866.8776,91.6048)"
         clip-path="url(#clipPath19)" />
      <path
         id="path20"
         d="M 0,0 -3.455,-20.016 -6.91,-40.03 H 0 6.91 l -3.454,20.014 z"
         style="fill:#9e7cb4;fill-opacity:1;fill-rule:evenodd;stroke:none"
         transform="matrix(1.3333333,0,0,-1.3333333,162.43613,459.03773)"
         clip-path="url(#clipPath21)" />
      <path
         id="path22"
         d="m 0,0 -5.512,-27.214 -5.511,-27.214 H 0 11.021 l -5.51,27.214 z"
         style="fill:#9e7cb4;fill-opacity:1;fill-rule:evenodd;stroke:none"
         transform="matrix(1.3333333,0,0,-1.3333333,134.3216,433.44147)"
         clip-path="url(#clipPath23)" />
      <path
         id="path24"
         d="M 0,0 -3.702,-23.723 -7.403,-47.444 H 0 7.404 l -3.702,23.721 z"
         style="fill:#9e7cb4;fill-opacity:1;fill-rule:evenodd;stroke:none"
         transform="matrix(1.3333333,0,0,-1.3333333,150.27933,445.09507)"
         clip-path="url(#clipPath25)" />
      <path
         id="path26"
         d="m 0,0 -5.882,-28.496 -5.882,-28.493 H 0 11.763 l -5.882,28.493 z"
         style="fill:#9e7cb4;fill-opacity:1;fill-rule:evenodd;stroke:none"
         transform="matrix(1.3333333,0,0,-1.3333333,100.5072,428.3776)"
         clip-path="url(#clipPath27)" />
      <path
         id="path28"
         d="m 0,0 -5.16,-26.352 -5.161,-26.352 H 0 10.321 l -5.16,26.352 z"
         style="fill:#9e7cb4;fill-opacity:1;fill-rule:evenodd;stroke:none"
         transform="matrix(1.3333333,0,0,-1.3333333,112.2168,435.23573)"
         clip-path="url(#clipPath29)" />
      <path
         id="path30"
         d="M 0,0 -6.005,-28.709 -12.01,-57.421 H 0 12.01 l -6.005,28.712 z"
         style="fill:#9e7cb4;fill-opacity:1;fill-rule:evenodd;stroke:none"
         transform="matrix(1.3333333,0,0,-1.3333333,66.4388,423.8164)"
         clip-path="url(#clipPath31)" />
      <path
         id="path32"
         d="M 0,0 -4.442,-22.868 -8.884,-45.736 H 0 8.884 l -4.442,22.868 z"
         style="fill:#9e7cb4;fill-opacity:1;fill-rule:evenodd;stroke:none"
         transform="matrix(1.3333333,0,0,-1.3333333,82.1432,440.78773)"
         clip-path="url(#clipPath33)" />
      <path
         id="path34"
         d="M 0,0 -4.812,-26.431 -9.624,-52.859 H 0 9.625 l -4.813,26.428 z"
         style="fill:#9e7cb4;fill-opacity:1;fill-rule:evenodd;stroke:none"
         transform="matrix(1.3333333,0,0,-1.3333333,46.0488,429.89587)"
         clip-path="url(#clipPath35)" />
      <path
         id="path36"
         d="M 0,0 -3.456,-20.014 -6.91,-40.027 H 0 6.909 l -3.454,20.013 z"
         style="fill:#9e7cb4;fill-opacity:1;fill-rule:evenodd;stroke:none"
         transform="matrix(1.3333333,0,0,-1.3333333,32.552133,454.2852)"
         clip-path="url(#clipPath37)" />
      <path
         id="path38"
         d="m 0,0 -6.005,-28.711 -6.006,-28.71 H 0 12.01 l -6.005,28.71 z"
         style="fill:#9e7cb4;fill-opacity:1;fill-rule:evenodd;stroke:none"
         transform="matrix(1.3333333,0,0,-1.3333333,16.539733,423.30853)"
         clip-path="url(#clipPath39)" />
      <path
         id="path40"
         d="M 0,0 H 6.521 L 2.08,22.866 0,33.577 Z"
         style="fill:#9e7cb4;fill-opacity:1;fill-rule:evenodd;stroke:none"
         transform="matrix(1.3333333,0,0,-1.3333333,-0.32093333,502.52867)"
         clip-path="url(#clipPath41)" />
      <path
         id="path42"
         d="M 0,0 H 149.569 C 106.32,11.507 55.08,18.398 0,18.958 Z"
         style="fill:#9e7cb4;fill-opacity:1;fill-rule:evenodd;stroke:none"
         transform="matrix(1.3333333,0,0,-1.3333333,-0.32093333,515.89187)"
         clip-path="url(#clipPath43)" />
      <path
         id="path44"
         d="M 0,0 -3.455,7.529 -6.91,15.057 H 0 6.91 L 3.456,7.529 Z"
         style="fill:#b38bca;fill-opacity:1;fill-rule:evenodd;stroke:none"
         transform="matrix(1.3333333,0,0,-1.3333333,162.43613,537.27867)"
         clip-path="url(#clipPath45)" />
      <path
         id="path46"
         d="m 0,0 -5.512,10.236 -5.511,10.237 H 0 11.021 L 5.511,10.236 Z"
         style="fill:#b38bca;fill-opacity:1;fill-rule:evenodd;stroke:none"
         transform="matrix(1.3333333,0,0,-1.3333333,134.3216,546.90493)"
         clip-path="url(#clipPath47)" />
      <path
         id="path48"
         d="m 0,0 -3.702,8.922 -3.701,8.925 H 0 7.404 L 3.702,8.922 Z"
         style="fill:#b38bca;fill-opacity:1;fill-rule:evenodd;stroke:none"
         transform="matrix(1.3333333,0,0,-1.3333333,150.27933,542.52213)"
         clip-path="url(#clipPath49)" />
      <path
         id="path50"
         d="m 0,0 -5.882,10.719 -5.882,10.72 H 0 11.763 L 5.881,10.719 Z"
         style="fill:#b38bca;fill-opacity:1;fill-rule:evenodd;stroke:none"
         transform="matrix(1.3333333,0,0,-1.3333333,100.5072,548.81253)"
         clip-path="url(#clipPath51)" />
      <path
         id="path52"
         d="m 0,0 -5.16,9.913 -5.161,9.911 H 0 10.321 L 5.161,9.913 Z"
         style="fill:#b38bca;fill-opacity:1;fill-rule:evenodd;stroke:none"
         transform="matrix(1.3333333,0,0,-1.3333333,112.2168,546.23173)"
         clip-path="url(#clipPath53)" />
      <path
         id="path54"
         d="M 0,0 -6.005,10.801 -12.01,21.599 H 0 12.01 L 6.005,10.801 Z"
         style="fill:#b38bca;fill-opacity:1;fill-rule:evenodd;stroke:none"
         transform="matrix(1.3333333,0,0,-1.3333333,66.4388,550.52733)"
         clip-path="url(#clipPath55)" />
      <path
         id="path56"
         d="m 0,0 -4.442,8.601 -4.442,8.602 H 0 8.884 L 4.442,8.601 Z"
         style="fill:#b38bca;fill-opacity:1;fill-rule:evenodd;stroke:none"
         transform="matrix(1.3333333,0,0,-1.3333333,82.1432,544.1432)"
         clip-path="url(#clipPath57)" />
      <path
         id="path58"
         d="m 0,0 -4.812,9.942 -4.812,9.941 H 0 9.625 L 4.812,9.942 Z"
         style="fill:#b38bca;fill-opacity:1;fill-rule:evenodd;stroke:none"
         transform="matrix(1.3333333,0,0,-1.3333333,46.0488,548.2396)"
         clip-path="url(#clipPath59)" />
      <path
         id="path60"
         d="M 0,0 -3.456,7.529 -6.91,15.057 H 0 6.909 L 3.455,7.529 Z"
         style="fill:#b38bca;fill-opacity:1;fill-rule:evenodd;stroke:none"
         transform="matrix(1.3333333,0,0,-1.3333333,32.552133,539.06773)"
         clip-path="url(#clipPath61)" />
      <path
         id="path62"
         d="m 0,0 -6.005,10.801 -6.006,10.797 H 0 12.01 L 6.005,10.801 Z"
         style="fill:#b38bca;fill-opacity:1;fill-rule:evenodd;stroke:none"
         transform="matrix(1.3333333,0,0,-1.3333333,16.539733,550.7188)"
         clip-path="url(#clipPath63)" />
      <path
         id="path64"
         d="M 0,0 H 6.521 L 2.08,-8.602 0,-12.629 Z"
         style="fill:#b38bca;fill-opacity:1;fill-rule:evenodd;stroke:none"
         transform="matrix(1.3333333,0,0,-1.3333333,-0.32093333,520.92053)"
         clip-path="url(#clipPath65)" />
      <path
         id="path66"
         d="M 0,0 H 149.569 C 106.32,-4.328 55.08,-6.921 0,-7.131 Z"
         style="fill:#b38bca;fill-opacity:1;fill-rule:evenodd;stroke:none"
         transform="matrix(1.3333333,0,0,-1.3333333,-0.32093333,515.89187)"
         clip-path="url(#clipPath67)" />
      <path
         id="path68"
         d="m 0,0 -5.064,-25.857 -5.163,-26.354 H 0 Z"
         style="fill:#9e7cb4;fill-opacity:1;fill-rule:evenodd;stroke:none"
         transform="matrix(1.3333333,0,0,-1.3333333,878.29427,433.94667)"
         clip-path="url(#clipPath69)" />
      <path
         id="path70"
         d="M 0,0 -3.456,-20.016 -6.909,-40.03 H 0 6.909 l -3.452,20.014 z"
         style="fill:#9e7cb4;fill-opacity:1;fill-rule:evenodd;stroke:none"
         transform="matrix(1.3333333,0,0,-1.3333333,863.1836,456.8008)"
         clip-path="url(#clipPath71)" />
      <path
         id="path72"
         d="M 0,0 -4.441,-22.87 -8.886,-45.736 H 0 8.882 L 4.44,-22.87 Z"
         style="fill:#9e7cb4;fill-opacity:1;fill-rule:evenodd;stroke:none"
         transform="matrix(1.3333333,0,0,-1.3333333,847.1732,444.82427)"
         clip-path="url(#clipPath73)" />
      <path
         id="path74"
         d="m 0,0 -6.004,-28.709 -6.004,-28.709 H 0 12.012 l -6.004,28.709 z"
         style="fill:#9e7cb4;fill-opacity:1;fill-rule:evenodd;stroke:none"
         transform="matrix(1.3333333,0,0,-1.3333333,828.42707,437.47987)"
         clip-path="url(#clipPath75)" />
      <path
         id="path76"
         d="M 0,0 -4.441,-22.867 -8.885,-45.735 H 0 8.883 l -4.442,22.868 z"
         style="fill:#9e7cb4;fill-opacity:1;fill-rule:evenodd;stroke:none"
         transform="matrix(1.3333333,0,0,-1.3333333,809.68493,454.97133)"
         clip-path="url(#clipPath77)" />
      <path
         id="path78"
         d="M 0,0 -3.455,-20.014 -6.91,-40.027 H 0 6.909 l -3.455,20.013 z"
         style="fill:#9e7cb4;fill-opacity:1;fill-rule:evenodd;stroke:none"
         transform="matrix(1.3333333,0,0,-1.3333333,796.56773,464.90627)"
         clip-path="url(#clipPath79)" />
      <path
         id="path80"
         d="M 0,0 -4.813,-26.43 -9.624,-52.858 H 0 9.624 L 4.81,-26.43 Z"
         style="fill:#9e7cb4;fill-opacity:1;fill-rule:evenodd;stroke:none"
         transform="matrix(1.3333333,0,0,-1.3333333,779.41667,443.55987)"
         clip-path="url(#clipPath81)" />
      <path
         id="path82"
         d="m 0,0 -3.601,-19.776 -3.6,-19.773 H 0 7.202 L 3.6,-19.776 Z"
         style="fill:#9e7cb4;fill-opacity:1;fill-rule:evenodd;stroke:none"
         transform="matrix(1.3333333,0,0,-1.3333333,762.69013,466.5976)"
         clip-path="url(#clipPath83)" />
      <path
         id="path84"
         d="M 0,0 C -44.917,-2.165 -86.677,-8.561 -122.845,-18.183 H 0 Z"
         style="fill:#9e7cb4;fill-opacity:1;fill-rule:evenodd;stroke:none"
         transform="matrix(1.3333333,0,0,-1.3333333,878.29427,498.47267)"
         clip-path="url(#clipPath85)" />
      <path
         id="path86"
         d="m 0,0 -5.064,9.727 -5.163,9.913 H 0 Z"
         style="fill:#b38bca;fill-opacity:1;fill-rule:evenodd;stroke:none"
         transform="matrix(1.3333333,0,0,-1.3333333,878.29427,556.10813)"
         clip-path="url(#clipPath87)" />
      <path
         id="path88"
         d="m 0,0 -3.456,7.527 -3.453,7.528 H 0 6.909 L 3.457,7.527 Z"
         style="fill:#b38bca;fill-opacity:1;fill-rule:evenodd;stroke:none"
         transform="matrix(1.3333333,0,0,-1.3333333,863.1836,547.50907)"
         clip-path="url(#clipPath89)" />
      <path
         id="path90"
         d="m 0,0 -4.441,8.602 -4.445,8.601 H 0 8.882 L 4.44,8.602 Z"
         style="fill:#b38bca;fill-opacity:1;fill-rule:evenodd;stroke:none"
         transform="matrix(1.3333333,0,0,-1.3333333,847.1732,552.01427)"
         clip-path="url(#clipPath91)" />
      <path
         id="path92"
         d="m 0,0 -6.004,10.797 -6.004,10.801 H 0 12.012 L 6.008,10.797 Z"
         style="fill:#b38bca;fill-opacity:1;fill-rule:evenodd;stroke:none"
         transform="matrix(1.3333333,0,0,-1.3333333,828.42707,554.776)"
         clip-path="url(#clipPath93)" />
      <path
         id="path94"
         d="m 0,0 -4.441,8.602 -4.444,8.602 H 0 8.883 L 4.441,8.602 Z"
         style="fill:#b38bca;fill-opacity:1;fill-rule:evenodd;stroke:none"
         transform="matrix(1.3333333,0,0,-1.3333333,809.68493,548.1992)"
         clip-path="url(#clipPath95)" />
      <path
         id="path96"
         d="M 0,0 -3.455,7.527 -6.91,15.059 H 0 6.909 L 3.454,7.527 Z"
         style="fill:#b38bca;fill-opacity:1;fill-rule:evenodd;stroke:none"
         transform="matrix(1.3333333,0,0,-1.3333333,796.56773,544.46227)"
         clip-path="url(#clipPath97)" />
      <path
         id="path98"
         d="m 0,0 -4.813,9.941 -4.811,9.943 H 0 9.624 L 4.81,9.941 Z"
         style="fill:#b38bca;fill-opacity:1;fill-rule:evenodd;stroke:none"
         transform="matrix(1.3333333,0,0,-1.3333333,779.41667,552.49093)"
         clip-path="url(#clipPath99)" />
      <path
         id="path100"
         d="m 0,0 -3.601,7.438 -3.6,7.439 H 0 7.202 L 3.6,7.438 Z"
         style="fill:#b38bca;fill-opacity:1;fill-rule:evenodd;stroke:none"
         transform="matrix(1.3333333,0,0,-1.3333333,762.69013,543.82427)"
         clip-path="url(#clipPath101)" />
      <path
         id="path102"
         d="M 0,0 C -44.917,0.814 -86.677,3.22 -122.845,6.838 H 0 Z"
         style="fill:#b38bca;fill-opacity:1;fill-rule:evenodd;stroke:none"
         transform="matrix(1.3333333,0,0,-1.3333333,878.29427,531.83333)"
         clip-path="url(#clipPath103)" />
      <path
         id="path104"
         d="m 0,0 5.822,-33.729 5.821,-33.724 H 0 -11.645 l 5.822,33.724 z"
         style="fill:#8b6ca0;fill-opacity:1;fill-rule:evenodd;stroke:none"
         transform="matrix(1.3333333,0,0,-1.3333333,158.27533,487.68613)"
         clip-path="url(#clipPath105)" />
      <path
         id="path106"
         d="m 0,0 9.287,-45.858 9.288,-45.86 H 0 -18.575 l 9.287,45.86 z"
         style="fill:#8b6ca0;fill-opacity:1;fill-rule:evenodd;stroke:none"
         transform="matrix(1.3333333,0,0,-1.3333333,205.65427,444.5508)"
         clip-path="url(#clipPath107)" />
      <path
         id="path108"
         d="m 0,0 6.238,-39.976 6.238,-39.976 H 0 -12.476 l 6.238,39.976 z"
         style="fill:#8b6ca0;fill-opacity:1;fill-rule:evenodd;stroke:none"
         transform="matrix(1.3333333,0,0,-1.3333333,178.76173,464.18613)"
         clip-path="url(#clipPath109)" />
      <path
         id="path110"
         d="m 0,0 9.912,-48.021 9.911,-48.017 H 0 -19.823 l 9.911,48.017 z"
         style="fill:#8b6ca0;fill-opacity:1;fill-rule:evenodd;stroke:none"
         transform="matrix(1.3333333,0,0,-1.3333333,262.63667,436.01373)"
         clip-path="url(#clipPath111)" />
      <path
         id="path112"
         d="m 0,0 8.696,-44.408 8.696,-44.41 H 0 -17.392 l 8.697,44.41 z"
         style="fill:#8b6ca0;fill-opacity:1;fill-rule:evenodd;stroke:none"
         transform="matrix(1.3333333,0,0,-1.3333333,242.9024,447.5716)"
         clip-path="url(#clipPath113)" />
      <path
         id="path114"
         d="m 0,0 10.12,-48.381 10.119,-48.38 H 0 -20.238 l 10.119,48.38 z"
         style="fill:#8b6ca0;fill-opacity:1;fill-rule:evenodd;stroke:none"
         transform="matrix(1.3333333,0,0,-1.3333333,320.04693,428.32947)"
         clip-path="url(#clipPath115)" />
      <path
         id="path116"
         d="M 0,0 7.485,-38.536 14.97,-77.071 H 0 -14.972 l 7.487,38.535 z"
         style="fill:#8b6ca0;fill-opacity:1;fill-rule:evenodd;stroke:none"
         transform="matrix(1.3333333,0,0,-1.3333333,293.58267,456.92973)"
         clip-path="url(#clipPath117)" />
      <path
         id="path118"
         d="m 0,0 8.108,-44.538 8.109,-44.539 H 0 -16.219 l 8.11,44.539 z"
         style="fill:#8b6ca0;fill-opacity:1;fill-rule:evenodd;stroke:none"
         transform="matrix(1.3333333,0,0,-1.3333333,354.40827,438.57427)"
         clip-path="url(#clipPath119)" />
      <path
         id="path120"
         d="m 0,0 5.822,-33.728 5.821,-33.724 H 0 -11.645 l 5.822,33.724 z"
         style="fill:#8b6ca0;fill-opacity:1;fill-rule:evenodd;stroke:none"
         transform="matrix(1.3333333,0,0,-1.3333333,377.1524,479.67187)"
         clip-path="url(#clipPath121)" />
      <path
         id="path122"
         d="m 0,0 10.12,-48.381 10.12,-48.38 H 0 -20.238 l 10.12,48.38 z"
         style="fill:#8b6ca0;fill-opacity:1;fill-rule:evenodd;stroke:none"
         transform="matrix(1.3333333,0,0,-1.3333333,404.13347,427.47653)"
         clip-path="url(#clipPath123)" />
      <path
         id="path124"
         d="m 0,0 7.484,-38.535 7.487,-38.537 H 0 -14.972 l 7.486,38.537 z"
         style="fill:#8b6ca0;fill-opacity:1;fill-rule:evenodd;stroke:none"
         transform="matrix(1.3333333,0,0,-1.3333333,437.85547,458.2096)"
         clip-path="url(#clipPath125)" />
      <path
         id="path126"
         d="m 0,0 8.107,-44.54 8.11,-44.537 H 0 -16.22 l 8.11,44.537 z"
         style="fill:#8b6ca0;fill-opacity:1;fill-rule:evenodd;stroke:none"
         transform="matrix(1.3333333,0,0,-1.3333333,464.96227,440.70893)"
         clip-path="url(#clipPath127)" />
      <path
         id="path128"
         d="m 0,0 8.695,-44.408 8.698,-44.408 H 0 -17.393 l 8.698,44.408 z"
         style="fill:#8b6ca0;fill-opacity:1;fill-rule:evenodd;stroke:none"
         transform="matrix(1.3333333,0,0,-1.3333333,494.0364,455.41147)"
         clip-path="url(#clipPath129)" />
      <path
         id="path130"
         d="m 0,0 8.697,-44.409 8.696,-44.408 H 0 -17.392 l 8.697,44.408 z"
         style="fill:#8b6ca0;fill-opacity:1;fill-rule:evenodd;stroke:none"
         transform="matrix(1.3333333,0,0,-1.3333333,525.19533,432.78973)"
         clip-path="url(#clipPath131)" />
      <path
         id="path132"
         d="m 0,0 5.822,-33.726 5.822,-33.728 H 0 -11.645 l 5.823,33.728 z"
         style="fill:#8b6ca0;fill-opacity:1;fill-rule:evenodd;stroke:none"
         transform="matrix(1.3333333,0,0,-1.3333333,550.87627,472.41667)"
         clip-path="url(#clipPath133)" />
      <path
         id="path134"
         d="M 0,0 7.486,-38.535 14.972,-77.07 H 0 -14.971 l 7.487,38.535 z"
         style="fill:#8b6ca0;fill-opacity:1;fill-rule:evenodd;stroke:none"
         transform="matrix(1.3333333,0,0,-1.3333333,577.85813,452.23573)"
         clip-path="url(#clipPath135)" />
      <path
         id="path136"
         d="m 0,0 10.118,-48.38 10.12,-48.379 H 0 -20.239 l 10.12,48.379 z"
         style="fill:#8b6ca0;fill-opacity:1;fill-rule:evenodd;stroke:none"
         transform="matrix(1.3333333,0,0,-1.3333333,609.44533,439.85613)"
         clip-path="url(#clipPath137)" />
      <path
         id="path138"
         d="m 0,0 7.486,-38.534 7.485,-38.537 H 0 -14.971 l 7.487,38.537 z"
         style="fill:#8b6ca0;fill-opacity:1;fill-rule:evenodd;stroke:none"
         transform="matrix(1.3333333,0,0,-1.3333333,641.0312,469.33333)"
         clip-path="url(#clipPath139)" />
      <path
         id="path140"
         d="m 0,0 5.822,-33.727 5.821,-33.728 H 0 -11.644 l 5.822,33.728 z"
         style="fill:#8b6ca0;fill-opacity:1;fill-rule:evenodd;stroke:none"
         transform="matrix(1.3333333,0,0,-1.3333333,663.13547,486.07293)"
         clip-path="url(#clipPath141)" />
      <path
         id="path142"
         d="M 0,0 8.109,-44.539 16.22,-89.077 H 0 -16.217 l 8.11,44.538 z"
         style="fill:#8b6ca0;fill-opacity:1;fill-rule:evenodd;stroke:none"
         transform="matrix(1.3333333,0,0,-1.3333333,692.03773,450.09893)"
         clip-path="url(#clipPath143)" />
      <path
         id="path144"
         d="m 0,0 6.067,-33.325 6.069,-33.324 H 0 -12.135 l 6.069,33.324 z"
         style="fill:#8b6ca0;fill-opacity:1;fill-rule:evenodd;stroke:none"
         transform="matrix(1.3333333,0,0,-1.3333333,720.224,488.9232)"
         clip-path="url(#clipPath145)" />
      <path
         id="path146"
         d="M 0,0 C 97.49,0 188.264,-11.769 264.355,-32.015 H -264.354 C -188.261,-11.769 -97.49,0 0,0"
         style="fill:#7e6094;fill-opacity:1;fill-rule:evenodd;stroke:none"
         transform="matrix(1.3333333,0,0,-1.3333333,448.95573,540.806)"
         clip-path="url(#clipPath147)" />
      <path
         id="path148"
         d="m 0,0 5.822,12.687 5.821,12.685 H 0 -11.645 l 5.822,-12.685 z"
         style="fill:#b38bca;fill-opacity:1;fill-rule:evenodd;stroke:none"
         transform="matrix(1.3333333,0,0,-1.3333333,158.27533,619.53)"
         clip-path="url(#clipPath149)" />
      <path
         id="path150"
         d="m 0,0 9.287,17.25 9.288,17.248 H 0 -18.575 L -9.288,17.25 Z"
         style="fill:#b38bca;fill-opacity:1;fill-rule:evenodd;stroke:none"
         transform="matrix(1.3333333,0,0,-1.3333333,205.65427,635.75387)"
         clip-path="url(#clipPath151)" />
      <path
         id="path152"
         d="m 0,0 6.238,15.037 6.238,15.037 H 0 -12.476 l 6.238,-15.037 z"
         style="fill:#b38bca;fill-opacity:1;fill-rule:evenodd;stroke:none"
         transform="matrix(1.3333333,0,0,-1.3333333,178.76173,628.36973)"
         clip-path="url(#clipPath153)" />
      <path
         id="path154"
         d="m 0,0 9.912,18.064 9.911,18.062 H 0 -19.823 l 9.911,-18.062 z"
         style="fill:#b38bca;fill-opacity:1;fill-rule:evenodd;stroke:none"
         transform="matrix(1.3333333,0,0,-1.3333333,262.63667,638.96613)"
         clip-path="url(#clipPath155)" />
      <path
         id="path156"
         d="m 0,0 8.696,16.704 8.696,16.704 H 0 -17.392 l 8.697,-16.704 z"
         style="fill:#b38bca;fill-opacity:1;fill-rule:evenodd;stroke:none"
         transform="matrix(1.3333333,0,0,-1.3333333,242.9024,634.61853)"
         clip-path="url(#clipPath157)" />
      <path
         id="path158"
         d="M 0,0 10.12,18.197 20.239,36.396 H 0 -20.238 l 10.119,-18.199 z"
         style="fill:#b38bca;fill-opacity:1;fill-rule:evenodd;stroke:none"
         transform="matrix(1.3333333,0,0,-1.3333333,320.04693,641.85547)"
         clip-path="url(#clipPath159)" />
      <path
         id="path160"
         d="M 0,0 7.485,14.494 14.97,28.989 H 0 -14.972 l 7.487,-14.495 z"
         style="fill:#b38bca;fill-opacity:1;fill-rule:evenodd;stroke:none"
         transform="matrix(1.3333333,0,0,-1.3333333,293.58267,631.0976)"
         clip-path="url(#clipPath161)" />
      <path
         id="path162"
         d="m 0,0 8.108,16.753 8.109,16.755 H 0 -16.219 l 8.11,-16.755 z"
         style="fill:#b38bca;fill-opacity:1;fill-rule:evenodd;stroke:none"
         transform="matrix(1.3333333,0,0,-1.3333333,354.40827,638.00387)"
         clip-path="url(#clipPath163)" />
      <path
         id="path164"
         d="m 0,0 5.822,12.686 5.821,12.687 H 0 -11.645 l 5.822,-12.687 z"
         style="fill:#b38bca;fill-opacity:1;fill-rule:evenodd;stroke:none"
         transform="matrix(1.3333333,0,0,-1.3333333,377.1524,622.54427)"
         clip-path="url(#clipPath165)" />
      <path
         id="path166"
         d="m 0,0 10.12,18.198 10.12,18.2 H 0 -20.238 l 10.12,-18.2 z"
         style="fill:#b38bca;fill-opacity:1;fill-rule:evenodd;stroke:none"
         transform="matrix(1.3333333,0,0,-1.3333333,404.13347,642.1784)"
         clip-path="url(#clipPath167)" />
      <path
         id="path168"
         d="M 0,0 7.484,14.494 14.971,28.99 H 0 -14.972 l 7.486,-14.496 z"
         style="fill:#b38bca;fill-opacity:1;fill-rule:evenodd;stroke:none"
         transform="matrix(1.3333333,0,0,-1.3333333,437.85547,630.61587)"
         clip-path="url(#clipPath169)" />
      <path
         id="path170"
         d="m 0,0 8.107,16.754 8.11,16.753 H 0 -16.22 l 8.11,-16.753 z"
         style="fill:#b38bca;fill-opacity:1;fill-rule:evenodd;stroke:none"
         transform="matrix(1.3333333,0,0,-1.3333333,464.96227,637.20053)"
         clip-path="url(#clipPath171)" />
      <path
         id="path172"
         d="M 0,0 8.695,16.706 17.393,33.41 H 0 -17.393 l 8.698,-16.704 z"
         style="fill:#b38bca;fill-opacity:1;fill-rule:evenodd;stroke:none"
         transform="matrix(1.3333333,0,0,-1.3333333,494.0364,631.67053)"
         clip-path="url(#clipPath173)" />
      <path
         id="path174"
         d="m 0,0 8.697,16.704 8.696,16.704 H 0 -17.392 l 8.697,-16.704 z"
         style="fill:#b38bca;fill-opacity:1;fill-rule:evenodd;stroke:none"
         transform="matrix(1.3333333,0,0,-1.3333333,525.19533,640.1784)"
         clip-path="url(#clipPath175)" />
      <path
         id="path176"
         d="m 0,0 5.822,12.686 5.822,12.686 H 0 -11.645 l 5.823,-12.686 z"
         style="fill:#b38bca;fill-opacity:1;fill-rule:evenodd;stroke:none"
         transform="matrix(1.3333333,0,0,-1.3333333,550.87627,625.27213)"
         clip-path="url(#clipPath177)" />
      <path
         id="path178"
         d="m 0,0 7.486,14.496 7.486,14.497 H 0 -14.971 l 7.487,-14.497 z"
         style="fill:#b38bca;fill-opacity:1;fill-rule:evenodd;stroke:none"
         transform="matrix(1.3333333,0,0,-1.3333333,577.85813,632.86587)"
         clip-path="url(#clipPath179)" />
      <path
         id="path180"
         d="m 0,0 10.118,18.199 10.12,18.198 H 0 -20.239 l 10.12,-18.198 z"
         style="fill:#b38bca;fill-opacity:1;fill-rule:evenodd;stroke:none"
         transform="matrix(1.3333333,0,0,-1.3333333,609.44533,637.52213)"
         clip-path="url(#clipPath181)" />
      <path
         id="path182"
         d="M 0,0 7.486,14.496 14.971,28.99 H 0 -14.971 l 7.487,-14.494 z"
         style="fill:#b38bca;fill-opacity:1;fill-rule:evenodd;stroke:none"
         transform="matrix(1.3333333,0,0,-1.3333333,641.0312,626.4336)"
         clip-path="url(#clipPath183)" />
      <path
         id="path184"
         d="m 0,0 5.822,12.688 5.821,12.686 H 0 -11.644 l 5.822,-12.686 z"
         style="fill:#b38bca;fill-opacity:1;fill-rule:evenodd;stroke:none"
         transform="matrix(1.3333333,0,0,-1.3333333,663.13547,620.13667)"
         clip-path="url(#clipPath185)" />
      <path
         id="path186"
         d="M 0,0 8.109,16.753 16.22,33.507 H 0 -16.217 l 8.11,-16.754 z"
         style="fill:#b38bca;fill-opacity:1;fill-rule:evenodd;stroke:none"
         transform="matrix(1.3333333,0,0,-1.3333333,692.03773,633.668)"
         clip-path="url(#clipPath187)" />
      <path
         id="path188"
         d="m 0,0 6.067,12.535 6.069,12.534 H 0 -12.135 l 6.069,-12.534 z"
         style="fill:#b38bca;fill-opacity:1;fill-rule:evenodd;stroke:none"
         transform="matrix(1.3333333,0,0,-1.3333333,720.224,619.06387)"
         clip-path="url(#clipPath189)" />
      <path
         id="path190"
         d="M 0,0 C 97.49,0 188.264,4.427 264.355,12.042 H -264.354 C -188.261,4.427 -97.49,0 0,0"
         style="fill:#b38bca;fill-opacity:1;fill-rule:evenodd;stroke:none"
         transform="matrix(1.3333333,0,0,-1.3333333,448.95573,599.54813)"
         clip-path="url(#clipPath191)" />
      <path
         id="path192"
         d="m 0,0 c 19.455,0 35.322,15.867 35.322,35.322 0,19.453 -15.867,35.32 -35.322,35.32 -19.453,0 -35.32,-15.867 -35.32,-35.32 C -35.32,15.867 -19.453,0 0,0"
         style="fill:#ffffff;fill-opacity:1;fill-rule:evenodd;stroke:none"
         transform="matrix(1.3333333,0,0,-1.3333333,438.98627,123.66467)"
         clip-path="url(#clipPath193)" />
      <path
         id="path194"
         d="M 0,0 121.831,-0.826 243.661,-1.654 121.831,-2.482 0,-3.311 l -121.83,0.829 -121.83,0.828 121.83,0.828 z"
         style="fill:#f0d8ee;fill-opacity:1;fill-rule:evenodd;stroke:none"
         transform="matrix(1.3333333,0,0,-1.3333333,440.63667,651.832)"
         clip-path="url(#clipPath195)" />
      <path
         id="path196"
         d="M 0,0 80.162,-0.689 160.324,-1.38 80.162,-2.069 0,-2.76 l -80.163,0.691 -80.161,0.689 80.161,0.691 z"
         style="fill:#f0d8ee;fill-opacity:1;fill-rule:evenodd;stroke:none"
         transform="matrix(1.3333333,0,0,-1.3333333,624.6016,694.5104)"
         clip-path="url(#clipPath197)" />
      <path
         id="path198"
         d="M 0,0 25.739,-0.524 51.479,-1.051 25.739,-1.577 0,-2.103 l -25.739,0.526 -25.739,0.526 25.739,0.527 z"
         style="fill:#f0d8ee;fill-opacity:1;fill-rule:evenodd;stroke:none"
         transform="matrix(1.3333333,0,0,-1.3333333,788.862,596.7812)"
         clip-path="url(#clipPath199)" />
      <path
         id="path200"
         d="M 0,0 33.578,-0.661 67.156,-1.322 33.578,-1.983 0,-2.645 l -33.579,0.662 -33.577,0.661 33.577,0.661 z"
         style="fill:#f0d8ee;fill-opacity:1;fill-rule:evenodd;stroke:none"
         transform="matrix(1.3333333,0,0,-1.3333333,101.03907,594.14187)"
         clip-path="url(#clipPath201)" />
      <path
         id="path202"
         d="M 0,0 39.599,-0.967 79.197,-1.933 39.599,-2.898 0,-3.864 l -39.598,0.966 -39.598,0.965 39.598,0.966 z"
         style="fill:#f0d8ee;fill-opacity:1;fill-rule:evenodd;stroke:none"
         transform="matrix(1.3333333,0,0,-1.3333333,137.09507,688.6224)"
         clip-path="url(#clipPath203)" />
    </g>
  </g>
</svg>
