<?xml version="1.0" encoding="UTF-8" standalone="no"?>
<!-- Created with Inkscape (http://www.inkscape.org/) -->

<svg
   version="1.1"
   id="svg1"
   width="880"
   height="880"
   viewBox="0 0 880 880"
   sodipodi:docname="pyramids-at-night.svg"
   inkscape:version="1.3.2 (091e20e, 2023-11-25, custom)"
   xmlns:inkscape="http://www.inkscape.org/namespaces/inkscape"
   xmlns:sodipodi="http://sodipodi.sourceforge.net/DTD/sodipodi-0.dtd"
   xmlns="http://www.w3.org/2000/svg"
   xmlns:svg="http://www.w3.org/2000/svg">
  <defs
     id="defs1">
    <clipPath
       clipPathUnits="userSpaceOnUse"
       id="clipPath4">
      <path
         d="M 0,660 H 660 V 0 H 0 Z"
         transform="translate(-659.00002,-529.02691)"
         id="path4" />
    </clipPath>
    <clipPath
       clipPathUnits="userSpaceOnUse"
       id="clipPath6">
      <path
         d="M 0,660 H 660 V 0 H 0 Z"
         transform="translate(-659.00002,-274.05181)"
         id="path6" />
    </clipPath>
    <clipPath
       clipPathUnits="userSpaceOnUse"
       id="clipPath8">
      <path
         d="M 0,660 H 660 V 0 H 0 Z"
         transform="translate(-462.72951,-338.82811)"
         id="path8" />
    </clipPath>
    <clipPath
       clipPathUnits="userSpaceOnUse"
       id="clipPath10">
      <path
         d="M 0,660 H 660 V 0 H 0 Z"
         transform="translate(-462.72951,-338.82811)"
         id="path10" />
    </clipPath>
    <clipPath
       clipPathUnits="userSpaceOnUse"
       id="clipPath12">
      <path
         d="M 0,660 H 660 V 0 H 0 Z"
         transform="translate(-296.79351,-447.46781)"
         id="path12" />
    </clipPath>
    <clipPath
       clipPathUnits="userSpaceOnUse"
       id="clipPath14">
      <path
         d="M 0,660 H 660 V 0 H 0 Z"
         transform="translate(-296.79351,-447.46781)"
         id="path14" />
    </clipPath>
    <clipPath
       clipPathUnits="userSpaceOnUse"
       id="clipPath16">
      <path
         d="M 0,660 H 660 V 0 H 0 Z"
         transform="translate(-511.77832,-248.85841)"
         id="path16" />
    </clipPath>
    <clipPath
       clipPathUnits="userSpaceOnUse"
       id="clipPath18">
      <path
         d="M 0,660 H 660 V 0 H 0 Z"
         transform="translate(-511.77832,-248.85841)"
         id="path18" />
    </clipPath>
    <clipPath
       clipPathUnits="userSpaceOnUse"
       id="clipPath20">
      <path
         d="M 0,660 H 660 V 0 H 0 Z"
         transform="translate(-164.3184,-349.41311)"
         id="path20" />
    </clipPath>
    <clipPath
       clipPathUnits="userSpaceOnUse"
       id="clipPath22">
      <path
         d="M 0,660 H 660 V 0 H 0 Z"
         transform="translate(-164.3184,-349.41311)"
         id="path22" />
    </clipPath>
    <clipPath
       clipPathUnits="userSpaceOnUse"
       id="clipPath24">
      <path
         d="M 0,660 H 660 V 0 H 0 Z"
         transform="translate(-417.38481,-257.6113)"
         id="path24" />
    </clipPath>
    <clipPath
       clipPathUnits="userSpaceOnUse"
       id="clipPath26">
      <path
         d="M 0,660 H 660 V 0 H 0 Z"
         transform="translate(-417.38481,-257.6113)"
         id="path26" />
    </clipPath>
    <clipPath
       clipPathUnits="userSpaceOnUse"
       id="clipPath28">
      <path
         d="M 0,660 H 660 V 0 H 0 Z"
         transform="translate(-279.5449,-258.44241)"
         id="path28" />
    </clipPath>
    <clipPath
       clipPathUnits="userSpaceOnUse"
       id="clipPath30">
      <path
         d="M 0,660 H 660 V 0 H 0 Z"
         transform="translate(-279.5449,-258.44241)"
         id="path30" />
    </clipPath>
    <clipPath
       clipPathUnits="userSpaceOnUse"
       id="clipPath32">
      <path
         d="M 0,660 H 660 V 0 H 0 Z"
         transform="translate(-659.00002,-167.4609)"
         id="path32" />
    </clipPath>
    <clipPath
       clipPathUnits="userSpaceOnUse"
       id="clipPath34">
      <path
         d="M 0,660 H 660 V 0 H 0 Z"
         transform="translate(-659.00002,-148.3281)"
         id="path34" />
    </clipPath>
    <clipPath
       clipPathUnits="userSpaceOnUse"
       id="clipPath36">
      <path
         d="M 0,660 H 660 V 0 H 0 Z"
         transform="translate(-659.00002,-76.703102)"
         id="path36" />
    </clipPath>
    <clipPath
       clipPathUnits="userSpaceOnUse"
       id="clipPath38">
      <path
         d="M 0,660 H 660 V 0 H 0 Z"
         transform="translate(-529.64261,-602.62892)"
         id="path38" />
    </clipPath>
    <clipPath
       clipPathUnits="userSpaceOnUse"
       id="clipPath40">
      <path
         d="M 0,660 H 660 V 0 H 0 Z"
         transform="translate(-123.1333,-465.50631)"
         id="path40" />
    </clipPath>
    <clipPath
       clipPathUnits="userSpaceOnUse"
       id="clipPath42">
      <path
         d="M 0,660 H 660 V 0 H 0 Z"
         transform="translate(-121.542,-610.41992)"
         id="path42" />
    </clipPath>
    <clipPath
       clipPathUnits="userSpaceOnUse"
       id="clipPath44">
      <path
         d="M 0,660 H 660 V 0 H 0 Z"
         transform="translate(-401.20511,-437.98781)"
         id="path44" />
    </clipPath>
    <clipPath
       clipPathUnits="userSpaceOnUse"
       id="clipPath46">
      <path
         d="M 0,660 H 660 V 0 H 0 Z"
         transform="translate(-79.306599,-328.07911)"
         id="path46" />
    </clipPath>
    <clipPath
       clipPathUnits="userSpaceOnUse"
       id="clipPath48">
      <path
         d="M 0,660 H 660 V 0 H 0 Z"
         transform="translate(-434.75981,-604.38572)"
         id="path48" />
    </clipPath>
    <clipPath
       clipPathUnits="userSpaceOnUse"
       id="clipPath50">
      <path
         d="M 0,660 H 660 V 0 H 0 Z"
         transform="translate(-577.71091,-345.38381)"
         id="path50" />
    </clipPath>
    <clipPath
       clipPathUnits="userSpaceOnUse"
       id="clipPath52">
      <path
         d="M 0,660 H 660 V 0 H 0 Z"
         transform="translate(-86.246102,-411.82621)"
         id="path52" />
    </clipPath>
    <clipPath
       clipPathUnits="userSpaceOnUse"
       id="clipPath54">
      <path
         d="M 0,660 H 660 V 0 H 0 Z"
         transform="translate(-400.05571,-382.95701)"
         id="path54" />
    </clipPath>
    <clipPath
       clipPathUnits="userSpaceOnUse"
       id="clipPath56">
      <path
         d="M 0,660 H 660 V 0 H 0 Z"
         transform="translate(-613.34962,-413.67331)"
         id="path56" />
    </clipPath>
    <clipPath
       clipPathUnits="userSpaceOnUse"
       id="clipPath58">
      <path
         d="M 0,660 H 660 V 0 H 0 Z"
         transform="translate(-251.23291,-490.91411)"
         id="path58" />
    </clipPath>
    <clipPath
       clipPathUnits="userSpaceOnUse"
       id="clipPath60">
      <path
         d="M 0,660 H 660 V 0 H 0 Z"
         transform="translate(-485.33011,-477.36911)"
         id="path60" />
    </clipPath>
    <clipPath
       clipPathUnits="userSpaceOnUse"
       id="clipPath62">
      <path
         d="M 0,660 H 660 V 0 H 0 Z"
         transform="translate(-185.2798,-387.74171)"
         id="path62" />
    </clipPath>
    <clipPath
       clipPathUnits="userSpaceOnUse"
       id="clipPath64">
      <path
         d="M 0,660 H 660 V 0 H 0 Z"
         transform="translate(-356.31741,-579.22121)"
         id="path64" />
    </clipPath>
    <clipPath
       clipPathUnits="userSpaceOnUse"
       id="clipPath66">
      <path
         d="M 0,660 H 660 V 0 H 0 Z"
         transform="translate(-425.73931,-518.75441)"
         id="path66" />
    </clipPath>
    <clipPath
       clipPathUnits="userSpaceOnUse"
       id="clipPath68">
      <path
         d="M 0,660 H 660 V 0 H 0 Z"
         transform="translate(-60.267101,-536.44381)"
         id="path68" />
    </clipPath>
    <clipPath
       clipPathUnits="userSpaceOnUse"
       id="clipPath70">
      <path
         d="M 0,660 H 660 V 0 H 0 Z"
         transform="translate(-185.9121,-571.84522)"
         id="path70" />
    </clipPath>
    <clipPath
       clipPathUnits="userSpaceOnUse"
       id="clipPath72">
      <path
         d="M 0,660 H 660 V 0 H 0 Z"
         transform="translate(-577.71481,-572.14942)"
         id="path72" />
    </clipPath>
    <clipPath
       clipPathUnits="userSpaceOnUse"
       id="clipPath74">
      <path
         d="M 0,660 H 660 V 0 H 0 Z"
         transform="translate(-572.23141,-471.98291)"
         id="path74" />
    </clipPath>
    <clipPath
       clipPathUnits="userSpaceOnUse"
       id="clipPath76">
      <path
         d="M 0,660 H 660 V 0 H 0 Z"
         transform="translate(-217.7266,-448.91891)"
         id="path76" />
    </clipPath>
    <clipPath
       clipPathUnits="userSpaceOnUse"
       id="clipPath78">
      <path
         d="M 0,660 H 660 V 0 H 0 Z"
         transform="translate(-283.64941,-596.28811)"
         id="path78" />
    </clipPath>
  </defs>
  <sodipodi:namedview
     id="namedview1"
     pagecolor="#ffffff"
     bordercolor="#000000"
     borderopacity="0.25"
     inkscape:showpageshadow="2"
     inkscape:pageopacity="0.0"
     inkscape:pagecheckerboard="0"
     inkscape:deskcolor="#d1d1d1"
     inkscape:zoom="0.69318182"
     inkscape:cx="439.27869"
     inkscape:cy="440"
     inkscape:window-width="1440"
     inkscape:window-height="830"
     inkscape:window-x="-6"
     inkscape:window-y="-6"
     inkscape:window-maximized="1"
     inkscape:current-layer="g1">
    <inkscape:page
       x="0"
       y="0"
       inkscape:label="1"
       id="page1"
       width="880"
       height="880"
       margin="0 1.3333334 0 0"
       bleed="0" />
  </sodipodi:namedview>
  <g
     id="g1"
     inkscape:groupmode="layer"
     inkscape:label="1">
    <g
       id="group-MC0">
      <path
         id="path2"
         d="M 0,0 H 659 V 660 H 0 Z"
         style="fill:#54501d;fill-opacity:1;fill-rule:nonzero;stroke:none"
         transform="matrix(1.3333333,0,0,-1.3333333,0,880)" />
      <path
         id="path3"
         d="M 0,0 C -21.807,22.848 -41.3,27.672 -101.611,18.151 -130.127,13.9 -166.358,12.583 -190.018,5.913 -237.65,-7.516 -274.001,-20.3 -329.472,-4.31 c -24.384,7.026 -40.088,12.2 -31.086,26.534 9.482,15.095 -13.107,17.547 -36.456,15.376 -34.371,-3.195 -38.489,-10.485 -84.037,-11.433 -57.63,-1.199 -99.142,-4.415 -151.024,-18.694 C -642,4.492 -651.242,1.881 -660,-0.424 v -37.197 c 44.601,8.428 82.589,19.085 134.606,19.548 43.632,0.404 65.231,1.388 72.992,-24.242 13.509,-44.618 104.023,-34.596 162.626,-23.588 27.677,5.395 60.576,10.149 86.311,16.14 47.416,11.874 94.805,19.358 126.371,-8.763 C -58.088,-75.459 -37.213,-84.98 0,-84.695 Z m 0,-152.035 v -51.401 c -29.483,-5.471 -58.886,-7.348 -94.414,-8.27 -45.549,-1.179 -49.666,-10.259 -84.037,-14.238 -23.35,-2.706 -45.942,0.349 -36.459,19.149 9.005,17.856 -6.699,24.301 -31.082,33.054 -55.475,19.915 -91.824,3.992 -139.456,-12.736 -23.66,-8.306 -59.891,-9.946 -88.407,-15.244 -69.093,-13.587 -84.614,-3.725 -111.418,36.481 -14.298,21.446 -23.842,22.359 -57.966,19.329 -6.121,-0.542 -11.659,-1.408 -16.761,-2.506 v 60.429 c 26.658,6.746 52.262,12.457 72.774,13.893 44.751,3.133 67.934,-8.9 88.854,-32.116 31.566,-35.027 78.956,-25.705 126.371,-10.915 25.735,7.461 58.634,13.383 86.311,20.103 58.603,13.712 149.118,26.197 162.627,-29.38 7.761,-31.925 29.361,-30.701 72.993,-30.198 18.097,0.201 34.498,1.942 50.07,4.566"
         style="fill:#656229;fill-opacity:1;fill-rule:evenodd;stroke:none"
         transform="matrix(1.3333333,0,0,-1.3333333,878.66667,174.6308)"
         clip-path="url(#clipPath4)" />
      <path
         id="path5"
         d="M 0,0 V -274.052 H -660 V -3.346 l 91.917,-19.381 c 156.162,-32.924 295.64,-33.278 451.966,-1.142 z"
         style="fill:#f9de1c;fill-opacity:1;fill-rule:evenodd;stroke:none"
         transform="matrix(1.3333333,0,0,-1.3333333,878.66667,514.5976)"
         clip-path="url(#clipPath6)" />
      <path
         id="path7"
         d="m 0,0 76.632,-93.705 76.632,-93.704 H 0 -153.262 l 76.632,93.704 z"
         style="fill:#fab40a;fill-opacity:1;fill-rule:evenodd;stroke:none"
         transform="matrix(1.3333333,0,0,-1.3333333,616.97267,428.2292)"
         clip-path="url(#clipPath8)" />
      <path
         id="path9"
         d="M 0,0 49.018,-187.409 H 153.264 Z"
         style="fill:#ce851a;fill-opacity:1;fill-rule:evenodd;stroke:none"
         transform="matrix(1.3333333,0,0,-1.3333333,616.97267,428.2292)"
         clip-path="url(#clipPath10)" />
      <path
         id="path11"
         d="M 0,0 121.055,-148.023 242.111,-296.049 H 0 -242.111 l 121.055,148.026 z"
         style="fill:#fab40a;fill-opacity:1;fill-rule:evenodd;stroke:none"
         transform="matrix(1.3333333,0,0,-1.3333333,395.72467,283.37627)"
         clip-path="url(#clipPath12)" />
      <path
         id="path13"
         d="M 0,0 77.434,-296.049 H 242.111 Z"
         style="fill:#ce851a;fill-opacity:1;fill-rule:evenodd;stroke:none"
         transform="matrix(1.3333333,0,0,-1.3333333,395.72467,283.37627)"
         clip-path="url(#clipPath14)" />
      <path
         id="path15"
         d="M 0,0 37.901,-46.342 75.802,-92.688 H 0 -75.799 l 37.902,46.346 z"
         style="fill:#fab40a;fill-opacity:1;fill-rule:evenodd;stroke:none"
         transform="matrix(1.3333333,0,0,-1.3333333,682.37107,548.1888)"
         clip-path="url(#clipPath16)" />
      <path
         id="path17"
         d="M 0,0 24.245,-92.688 H 75.802 Z"
         style="fill:#eb9712;fill-opacity:1;fill-rule:evenodd;stroke:none"
         transform="matrix(1.3333333,0,0,-1.3333333,682.37107,548.1888)"
         clip-path="url(#clipPath18)" />
      <path
         id="path19"
         d="m 0,0 80.961,-98.998 80.96,-98.996 H 0 -161.92 l 80.96,98.996 z"
         style="fill:#fab40a;fill-opacity:1;fill-rule:evenodd;stroke:none"
         transform="matrix(1.3333333,0,0,-1.3333333,219.0912,414.11587)"
         clip-path="url(#clipPath20)" />
      <path
         id="path21"
         d="M 0,0 51.788,-197.994 H 161.921 Z"
         style="fill:#ce851a;fill-opacity:1;fill-rule:evenodd;stroke:none"
         transform="matrix(1.3333333,0,0,-1.3333333,219.0912,414.11587)"
         clip-path="url(#clipPath22)" />
      <path
         id="path23"
         d="m 0,0 41.478,-50.718 41.48,-50.722 H 0 -82.958 l 41.478,50.722 z"
         style="fill:#fab40a;fill-opacity:1;fill-rule:evenodd;stroke:none"
         transform="matrix(1.3333333,0,0,-1.3333333,556.51307,536.51827)"
         clip-path="url(#clipPath24)" />
      <path
         id="path25"
         d="M 0,0 26.532,-101.44 H 82.958 Z"
         style="fill:#eb9712;fill-opacity:1;fill-rule:evenodd;stroke:none"
         transform="matrix(1.3333333,0,0,-1.3333333,556.51307,536.51827)"
         clip-path="url(#clipPath26)" />
      <path
         id="path27"
         d="m 0,0 41.818,-51.134 41.82,-51.137 H 0 -83.638 l 41.819,51.137 z"
         style="fill:#fab40a;fill-opacity:1;fill-rule:evenodd;stroke:none"
         transform="matrix(1.3333333,0,0,-1.3333333,372.72653,535.41013)"
         clip-path="url(#clipPath28)" />
      <path
         id="path29"
         d="M 0,0 26.75,-102.271 H 83.638 Z"
         style="fill:#eb9712;fill-opacity:1;fill-rule:evenodd;stroke:none"
         transform="matrix(1.3333333,0,0,-1.3333333,372.72653,535.41013)"
         clip-path="url(#clipPath30)" />
      <path
         id="path31"
         d="M 0,0 V -167.461 H -660 V 34.72 L -534.461,5.957 c 81.131,-18.591 154.271,-20.713 235.244,-6.664 70.775,12.28 132.533,14.955 204.105,8.839 z"
         style="fill:#fbca07;fill-opacity:1;fill-rule:evenodd;stroke:none"
         transform="matrix(1.3333333,0,0,-1.3333333,878.66667,656.7188)"
         clip-path="url(#clipPath32)" />
      <path
         id="path33"
         d="m 0,0 v -148.328 h -660 v 123.192 l 97.104,-15.679 c 106.23,-17.157 199.332,-17.239 305.591,-0.27 z"
         style="fill:#fab40a;fill-opacity:1;fill-rule:evenodd;stroke:none"
         transform="matrix(1.3333333,0,0,-1.3333333,878.66667,682.2292)"
         clip-path="url(#clipPath34)" />
      <path
         id="path35"
         d="m 0,0 v -76.703 h -495.029 l 69.955,29.307 c 79.918,33.482 156.842,42.284 242.258,27.721 C -118.982,-30.556 -59.666,-24.186 0,0"
         style="fill:#f39c0f;fill-opacity:1;fill-rule:evenodd;stroke:none"
         transform="matrix(1.3333333,0,0,-1.3333333,878.66667,777.7292)"
         clip-path="url(#clipPath36)" />
      <path
         id="path37"
         d="M 0,0 1.715,-19.672 21.387,-21.389 1.715,-23.105 0,-42.777 l -1.718,19.673 -19.672,1.715 19.672,1.717 z"
         style="fill:#d9d55a;fill-opacity:1;fill-rule:evenodd;stroke:none"
         transform="matrix(1.3333333,0,0,-1.3333333,706.19013,76.4948)"
         clip-path="url(#clipPath38)" />
      <path
         id="path39"
         d="M 0,0 0.893,-10.231 11.123,-11.124 0.893,-12.016 0,-22.247 l -0.892,10.231 -10.232,0.892 10.232,0.893 z"
         style="fill:#d9d55a;fill-opacity:1;fill-rule:evenodd;stroke:none"
         transform="matrix(1.3333333,0,0,-1.3333333,164.17773,259.32493)"
         clip-path="url(#clipPath40)" />
      <path
         id="path41"
         d="M 0,0 1.349,-15.468 16.817,-16.816 1.349,-18.167 0,-33.633 l -1.35,15.468 -15.467,1.349 15.467,1.349 z"
         style="fill:#d9d55a;fill-opacity:1;fill-rule:evenodd;stroke:none"
         transform="matrix(1.3333333,0,0,-1.3333333,162.056,66.1068)"
         clip-path="url(#clipPath42)" />
      <path
         id="path43"
         d="M 0,0 0.703,-8.044 8.748,-8.745 0.703,-9.447 0,-17.491 l -0.701,8.044 -8.043,0.702 8.043,0.701 z"
         style="fill:#d9d55a;fill-opacity:1;fill-rule:evenodd;stroke:none"
         transform="matrix(1.3333333,0,0,-1.3333333,534.94013,296.01627)"
         clip-path="url(#clipPath44)" />
      <path
         id="path45"
         d="M 0,0 0.702,-8.043 8.747,-8.746 0.702,-9.447 0,-17.49 l -0.701,8.043 -8.044,0.701 8.044,0.703 z"
         style="fill:#d9d55a;fill-opacity:1;fill-rule:evenodd;stroke:none"
         transform="matrix(1.3333333,0,0,-1.3333333,105.74213,442.5612)"
         clip-path="url(#clipPath46)" />
      <path
         id="path47"
         d="M 0,0 0.701,-8.044 8.746,-8.746 0.701,-9.447 0,-17.491 l -0.7,8.044 -8.046,0.701 8.046,0.702 z"
         style="fill:#d9d55a;fill-opacity:1;fill-rule:evenodd;stroke:none"
         transform="matrix(1.3333333,0,0,-1.3333333,579.67973,74.1524)"
         clip-path="url(#clipPath48)" />
      <path
         id="path49"
         d="M 0,0 0.7,-8.045 8.746,-8.746 0.7,-9.449 0,-17.492 l -0.703,8.043 -8.043,0.703 8.043,0.701 z"
         style="fill:#d9d55a;fill-opacity:1;fill-rule:evenodd;stroke:none"
         transform="matrix(1.3333333,0,0,-1.3333333,770.2812,419.48827)"
         clip-path="url(#clipPath50)" />
      <path
         id="path51"
         d="M 0,0 1.716,-19.673 21.388,-21.388 1.715,-23.105 0,-42.777 l -1.716,19.672 -19.672,1.717 19.672,1.715 z"
         style="fill:#d9d55a;fill-opacity:1;fill-rule:evenodd;stroke:none"
         transform="matrix(1.3333333,0,0,-1.3333333,114.9948,330.8984)"
         clip-path="url(#clipPath52)" />
      <path
         id="path53"
         d="M 0,0 1.715,-19.674 21.39,-21.389 1.715,-23.105 0,-42.776 l -1.716,19.671 -19.672,1.716 19.672,1.716 z"
         style="fill:#d9d55a;fill-opacity:1;fill-rule:evenodd;stroke:none"
         transform="matrix(1.3333333,0,0,-1.3333333,533.4076,369.39067)"
         clip-path="url(#clipPath54)" />
      <path
         id="path55"
         d="M 0,0 1.716,-19.673 21.388,-21.389 1.716,-23.105 0,-42.778 l -1.717,19.675 -19.672,1.714 19.674,1.717 z"
         style="fill:#d9d55a;fill-opacity:1;fill-rule:evenodd;stroke:none"
         transform="matrix(1.3333333,0,0,-1.3333333,817.79947,328.4356)"
         clip-path="url(#clipPath56)" />
      <path
         id="path57"
         d="M 0,0 1.351,-15.468 16.817,-16.816 1.349,-18.167 0,-33.633 l -1.35,15.467 -15.466,1.35 15.468,1.349 z"
         style="fill:#d9d55a;fill-opacity:1;fill-rule:evenodd;stroke:none"
         transform="matrix(1.3333333,0,0,-1.3333333,334.9772,225.44787)"
         clip-path="url(#clipPath58)" />
      <path
         id="path59"
         d="M 0,0 1.349,-15.468 16.816,-16.816 1.349,-18.167 0,-33.633 l -1.351,15.468 -15.467,1.349 15.469,1.348 z"
         style="fill:#d9d55a;fill-opacity:1;fill-rule:evenodd;stroke:none"
         transform="matrix(1.3333333,0,0,-1.3333333,647.1068,243.50787)"
         clip-path="url(#clipPath60)" />
      <path
         id="path61"
         d="M 0,0 0.702,-8.044 8.745,-8.747 0.702,-9.448 0,-17.492 l -0.702,8.044 -8.044,0.701 8.044,0.703 z"
         style="fill:#d9d55a;fill-opacity:1;fill-rule:evenodd;stroke:none"
         transform="matrix(1.3333333,0,0,-1.3333333,247.03973,363.01107)"
         clip-path="url(#clipPath62)" />
      <path
         id="path63"
         d="M 0,0 1.349,-15.468 16.816,-16.816 1.349,-18.167 0,-33.633 l -1.351,15.467 -15.465,1.35 15.467,1.348 z"
         style="fill:#d9d55a;fill-opacity:1;fill-rule:evenodd;stroke:none"
         transform="matrix(1.3333333,0,0,-1.3333333,475.08987,107.70507)"
         clip-path="url(#clipPath64)" />
      <path
         id="path65"
         d="M 0,0 1.35,-15.468 16.818,-16.816 1.349,-18.167 0,-33.633 l -1.348,15.468 -15.468,1.349 15.468,1.348 z"
         style="fill:#d9d55a;fill-opacity:1;fill-rule:evenodd;stroke:none"
         transform="matrix(1.3333333,0,0,-1.3333333,567.6524,188.32747)"
         clip-path="url(#clipPath66)" />
      <path
         id="path67"
         d="M 0,0 1.349,-15.468 16.817,-16.817 1.349,-18.167 0,-33.634 l -1.35,15.468 -15.467,1.349 15.467,1.349 z"
         style="fill:#d9d55a;fill-opacity:1;fill-rule:evenodd;stroke:none"
         transform="matrix(1.3333333,0,0,-1.3333333,80.356133,164.7416)"
         clip-path="url(#clipPath68)" />
      <path
         id="path69"
         d="M 0,0 0.703,-8.044 8.746,-8.746 0.703,-9.448 0,-17.491 l -0.701,8.043 -8.044,0.702 8.044,0.702 z"
         style="fill:#d9d55a;fill-opacity:1;fill-rule:evenodd;stroke:none"
         transform="matrix(1.3333333,0,0,-1.3333333,247.8828,117.53973)"
         clip-path="url(#clipPath70)" />
      <path
         id="path71"
         d="M 0,0 0.701,-8.044 8.746,-8.745 0.701,-9.447 0,-17.492 l -0.703,8.045 -8.043,0.702 8.043,0.701 z"
         style="fill:#d9d55a;fill-opacity:1;fill-rule:evenodd;stroke:none"
         transform="matrix(1.3333333,0,0,-1.3333333,770.2864,117.13413)"
         clip-path="url(#clipPath72)" />
      <path
         id="path73"
         d="M 0,0 0.7,-8.043 8.744,-8.746 0.7,-9.447 0,-17.492 l -0.703,8.045 -8.043,0.701 8.043,0.703 z"
         style="fill:#d9d55a;fill-opacity:1;fill-rule:evenodd;stroke:none"
         transform="matrix(1.3333333,0,0,-1.3333333,762.9752,250.68947)"
         clip-path="url(#clipPath74)" />
      <path
         id="path75"
         d="M 0,0 0.702,-8.043 8.746,-8.745 0.702,-9.447 0,-17.491 l -0.702,8.044 -8.043,0.702 8.043,0.702 z"
         style="fill:#d9d55a;fill-opacity:1;fill-rule:evenodd;stroke:none"
         transform="matrix(1.3333333,0,0,-1.3333333,290.30213,281.44147)"
         clip-path="url(#clipPath76)" />
      <path
         id="path77"
         d="M 0,0 0.702,-8.044 8.747,-8.745 0.702,-9.448 0,-17.491 l -0.702,8.043 -8.043,0.703 8.043,0.701 z"
         style="fill:#d9d55a;fill-opacity:1;fill-rule:evenodd;stroke:none"
         transform="matrix(1.3333333,0,0,-1.3333333,378.1992,84.9492)"
         clip-path="url(#clipPath78)" />
    </g>
  </g>
</svg>
