<?xml version="1.0" encoding="UTF-8" standalone="no"?>
<!-- Created with Inkscape (http://www.inkscape.org/) -->

<svg
   version="1.1"
   id="svg1"
   width="880"
   height="880"
   viewBox="0 0 880 880"
   sodipodi:docname="green-forest-and-grass.svg"
   inkscape:version="1.3.2 (091e20e, 2023-11-25, custom)"
   xmlns:inkscape="http://www.inkscape.org/namespaces/inkscape"
   xmlns:sodipodi="http://sodipodi.sourceforge.net/DTD/sodipodi-0.dtd"
   xmlns="http://www.w3.org/2000/svg"
   xmlns:svg="http://www.w3.org/2000/svg">
  <defs
     id="defs1">
    <clipPath
       clipPathUnits="userSpaceOnUse"
       id="clipPath5">
      <path
         d="M 0,660 H 660 V 0 H 0 Z"
         transform="translate(0.1924,-226.74411)"
         id="path5" />
    </clipPath>
    <clipPath
       clipPathUnits="userSpaceOnUse"
       id="clipPath7">
      <path
         d="M 0,660 H 660 V 0 H 0 Z"
         transform="translate(-454.21481,-200.61721)"
         id="path7" />
    </clipPath>
    <clipPath
       clipPathUnits="userSpaceOnUse"
       id="clipPath9">
      <path
         d="M 0,660 H 660 V 0 H 0 Z"
         id="path9" />
    </clipPath>
    <clipPath
       clipPathUnits="userSpaceOnUse"
       id="clipPath11">
      <path
         d="M 0,660 H 660 V 0 H 0 Z"
         transform="translate(-660.53612,-184.24221)"
         id="path11" />
    </clipPath>
    <clipPath
       clipPathUnits="userSpaceOnUse"
       id="clipPath13">
      <path
         d="M 0,660 H 660 V 0 H 0 Z"
         transform="translate(-660.53612,-164.99511)"
         id="path13" />
    </clipPath>
    <clipPath
       clipPathUnits="userSpaceOnUse"
       id="clipPath15">
      <path
         d="M 0,660 H 660 V 0 H 0 Z"
         transform="translate(-660.53612,-82.2715)"
         id="path15" />
    </clipPath>
    <clipPath
       clipPathUnits="userSpaceOnUse"
       id="clipPath17">
      <path
         d="M 0,660 H 660 V 0 H 0 Z"
         transform="translate(-111.59811,-389.69241)"
         id="path17" />
    </clipPath>
    <clipPath
       clipPathUnits="userSpaceOnUse"
       id="clipPath19">
      <path
         d="M 0,660 H 660 V 0 H 0 Z"
         transform="translate(-172.4067,-367.10501)"
         id="path19" />
    </clipPath>
    <clipPath
       clipPathUnits="userSpaceOnUse"
       id="clipPath21">
      <path
         d="M 0,660 H 660 V 0 H 0 Z"
         transform="translate(-26.0938,-326.56741)"
         id="path21" />
    </clipPath>
    <clipPath
       clipPathUnits="userSpaceOnUse"
       id="clipPath23">
      <path
         d="M 0,660 H 660 V 0 H 0 Z"
         transform="translate(-625.80472,-301.29391)"
         id="path23" />
    </clipPath>
    <clipPath
       clipPathUnits="userSpaceOnUse"
       id="clipPath25">
      <path
         d="M 0,660 H 660 V 0 H 0 Z"
         transform="translate(-660.53612,-137.34081)"
         id="path25" />
    </clipPath>
    <clipPath
       clipPathUnits="userSpaceOnUse"
       id="clipPath27">
      <path
         d="M 0,660 H 660 V 0 H 0 Z"
         transform="translate(-567.81451,-278.60251)"
         id="path27" />
    </clipPath>
    <clipPath
       clipPathUnits="userSpaceOnUse"
       id="clipPath29">
      <path
         d="M 0,660 H 660 V 0 H 0 Z"
         transform="translate(-591.32321,-301.29391)"
         id="path29" />
    </clipPath>
    <clipPath
       clipPathUnits="userSpaceOnUse"
       id="clipPath31">
      <path
         d="M 0,660 H 660 V 0 H 0 Z"
         transform="translate(-531.08011,-411.76951)"
         id="path31" />
    </clipPath>
    <clipPath
       clipPathUnits="userSpaceOnUse"
       id="clipPath33">
      <path
         d="M 0,660 H 660 V 0 H 0 Z"
         transform="translate(0.1924,-56.591799)"
         id="path33" />
    </clipPath>
    <clipPath
       clipPathUnits="userSpaceOnUse"
       id="clipPath35">
      <path
         d="M 0,660 H 660 V 0 H 0 Z"
         transform="translate(-294.86961,-231.9229)"
         id="path35" />
    </clipPath>
    <clipPath
       clipPathUnits="userSpaceOnUse"
       id="clipPath37">
      <path
         d="M 0,660 H 660 V 0 H 0 Z"
         transform="translate(-300.96781,-239.49321)"
         id="path37" />
    </clipPath>
    <clipPath
       clipPathUnits="userSpaceOnUse"
       id="clipPath39">
      <path
         d="M 0,660 H 660 V 0 H 0 Z"
         transform="translate(-314.95511,-241.51761)"
         id="path39" />
    </clipPath>
    <clipPath
       clipPathUnits="userSpaceOnUse"
       id="clipPath41">
      <path
         d="M 0,660 H 660 V 0 H 0 Z"
         transform="translate(-321.17971,-231.31641)"
         id="path41" />
    </clipPath>
    <clipPath
       clipPathUnits="userSpaceOnUse"
       id="clipPath43">
      <path
         d="M 0,660 H 660 V 0 H 0 Z"
         transform="translate(-334.02831,-231.7627)"
         id="path43" />
    </clipPath>
    <clipPath
       clipPathUnits="userSpaceOnUse"
       id="clipPath45">
      <path
         d="M 0,660 H 660 V 0 H 0 Z"
         transform="translate(-355.63281,-239.19141)"
         id="path45" />
    </clipPath>
    <clipPath
       clipPathUnits="userSpaceOnUse"
       id="clipPath47">
      <path
         d="M 0,660 H 660 V 0 H 0 Z"
         transform="translate(-369.62111,-241.21681)"
         id="path47" />
    </clipPath>
    <clipPath
       clipPathUnits="userSpaceOnUse"
       id="clipPath49">
      <path
         d="M 0,660 H 660 V 0 H 0 Z"
         transform="translate(-388.69341,-231.4609)"
         id="path49" />
    </clipPath>
    <clipPath
       clipPathUnits="userSpaceOnUse"
       id="clipPath51">
      <path
         d="M 0,660 H 660 V 0 H 0 Z"
         transform="translate(-339.19241,-232.12501)"
         id="path51" />
    </clipPath>
    <clipPath
       clipPathUnits="userSpaceOnUse"
       id="clipPath53">
      <path
         d="M 0,660 H 660 V 0 H 0 Z"
         transform="translate(-352.04001,-232.57231)"
         id="path53" />
    </clipPath>
    <clipPath
       clipPathUnits="userSpaceOnUse"
       id="clipPath55">
      <path
         d="M 0,660 H 660 V 0 H 0 Z"
         transform="translate(-345.59671,-228.2803)"
         id="path55" />
    </clipPath>
    <clipPath
       clipPathUnits="userSpaceOnUse"
       id="clipPath57">
      <path
         d="M 0,660 H 660 V 0 H 0 Z"
         transform="translate(-47.537101,-387.43511)"
         id="path57" />
    </clipPath>
    <clipPath
       clipPathUnits="userSpaceOnUse"
       id="clipPath59">
      <path
         d="M 0,660 H 660 V 0 H 0 Z"
         transform="translate(-655.45022,-375.34081)"
         id="path59" />
    </clipPath>
    <clipPath
       clipPathUnits="userSpaceOnUse"
       id="clipPath61">
      <path
         d="M 0,660 H 660 V 0 H 0 Z"
         transform="translate(-249.25881,-263.0713)"
         id="path61" />
    </clipPath>
    <clipPath
       clipPathUnits="userSpaceOnUse"
       id="clipPath63">
      <path
         d="M 0,660 H 660 V 0 H 0 Z"
         transform="translate(-233.1616,-270.21481)"
         id="path63" />
    </clipPath>
    <clipPath
       clipPathUnits="userSpaceOnUse"
       id="clipPath65">
      <path
         d="M 0,660 H 660 V 0 H 0 Z"
         transform="translate(-218.05911,-275.78811)"
         id="path65" />
    </clipPath>
    <clipPath
       clipPathUnits="userSpaceOnUse"
       id="clipPath67">
      <path
         d="M 0,660 H 660 V 0 H 0 Z"
         transform="translate(-203.31841,-262.46391)"
         id="path67" />
    </clipPath>
    <clipPath
       clipPathUnits="userSpaceOnUse"
       id="clipPath69">
      <path
         d="M 0,660 H 660 V 0 H 0 Z"
         transform="translate(0.1924,-450.17631)"
         id="path69" />
    </clipPath>
    <clipPath
       clipPathUnits="userSpaceOnUse"
       id="clipPath71">
      <path
         d="M 0,660 H 660 V 0 H 0 Z"
         transform="translate(-660.53612,-531.12892)"
         id="path71" />
    </clipPath>
    <clipPath
       clipPathUnits="userSpaceOnUse"
       id="clipPath73">
      <path
         d="M 0,660 H 660 V 0 H 0 Z"
         transform="translate(-660.53612,-584.36332)"
         id="path73" />
    </clipPath>
    <clipPath
       clipPathUnits="userSpaceOnUse"
       id="clipPath75">
      <path
         d="M 0,660 H 660 V 0 H 0 Z"
         transform="translate(0.1924,-409.09331)"
         id="path75" />
    </clipPath>
    <clipPath
       clipPathUnits="userSpaceOnUse"
       id="clipPath77">
      <path
         d="M 0,660 H 660 V 0 H 0 Z"
         transform="translate(-84.641102,-454.61911)"
         id="path77" />
    </clipPath>
    <clipPath
       clipPathUnits="userSpaceOnUse"
       id="clipPath79">
      <path
         d="M 0,660 H 660 V 0 H 0 Z"
         transform="translate(-234.30571,-588.10741)"
         id="path79" />
    </clipPath>
    <clipPath
       clipPathUnits="userSpaceOnUse"
       id="clipPath81">
      <path
         d="M 0,660 H 660 V 0 H 0 Z"
         transform="translate(-405.24801,-533.76172)"
         id="path81" />
    </clipPath>
    <clipPath
       clipPathUnits="userSpaceOnUse"
       id="clipPath83">
      <path
         d="M 0,660 H 660 V 0 H 0 Z"
         transform="translate(-189.106,-411.65331)"
         id="path83" />
    </clipPath>
    <clipPath
       clipPathUnits="userSpaceOnUse"
       id="clipPath85">
      <path
         d="M 0,660 H 660 V 0 H 0 Z"
         transform="translate(0.1924,-619.46042)"
         id="path85" />
    </clipPath>
  </defs>
  <sodipodi:namedview
     id="namedview1"
     pagecolor="#ffffff"
     bordercolor="#000000"
     borderopacity="0.25"
     inkscape:showpageshadow="2"
     inkscape:pageopacity="0.0"
     inkscape:pagecheckerboard="0"
     inkscape:deskcolor="#d1d1d1"
     inkscape:zoom="0.67272727"
     inkscape:cx="439.25676"
     inkscape:cy="440"
     inkscape:window-width="1440"
     inkscape:window-height="830"
     inkscape:window-x="-6"
     inkscape:window-y="-6"
     inkscape:window-maximized="1"
     inkscape:current-layer="g1">
    <inkscape:page
       x="0"
       y="0"
       inkscape:label="1"
       id="page1"
       width="880"
       height="880"
       margin="0"
       bleed="0" />
  </sodipodi:namedview>
  <g
     id="g1"
     inkscape:groupmode="layer"
     inkscape:label="1">
    <g
       id="group-MC0">
      <path
         id="path2"
         d="M 0,0 H 660 V 660 H 0 Z"
         style="fill:#ecf9fc;fill-opacity:1;fill-rule:nonzero;stroke:none"
         transform="matrix(1.3333333,0,0,-1.3333333,0,880)" />
      <path
         id="path3"
         d="M 0,0 469.963,-2.797 V 2.238 Z"
         style="fill:#ffffff;fill-opacity:1;fill-rule:nonzero;stroke:none"
         transform="matrix(1.3333333,0,0,-1.3333333,253.3824,405.2716)" />
      <path
         id="path4"
         d="m 0,0 127.509,73.618 c 25.07,14.474 53.106,17.109 79.256,7.905 32.267,-11.357 64.449,-8.606 94.32,8.063 30.324,16.923 64.831,16.666 95.028,-0.769 l 30.756,-17.755 c 36.609,-21.135 78.513,-21.135 115.121,0 l 12.282,7.09 c 31.615,18.252 68.115,17.651 99.11,-1.635 l 7.346,-4.571 V -45.335 L 0,-73.666 Z"
         style="fill:#d2edf3;fill-opacity:1;fill-rule:evenodd;stroke:none"
         transform="matrix(1.3333333,0,0,-1.3333333,-0.25653333,577.67453)"
         clip-path="url(#clipPath5)" />
      <path
         id="path6"
         d="m 0,0 -87.691,50.629 c -17.243,9.955 -36.524,11.766 -54.508,5.436 -22.193,-7.81 -44.325,-5.919 -64.868,5.546 -20.856,11.639 -44.586,11.462 -65.355,-0.528 l -21.151,-12.212 c -25.177,-14.535 -53.997,-14.535 -79.174,0 l -8.446,4.877 c -21.742,12.553 -46.845,12.139 -68.162,-1.125 l -5.052,-3.145 V -31.18 L 0,-50.664 Z"
         style="fill:#bedfe5;fill-opacity:1;fill-rule:evenodd;stroke:none"
         transform="matrix(1.3333333,0,0,-1.3333333,605.61973,612.5104)"
         clip-path="url(#clipPath7)" />
      <path
         id="path8"
         d="M -0.193,-0.45 H 660.536 V 200.617 H -0.193 Z"
         style="fill:#7bcd57;fill-opacity:1;fill-rule:evenodd;stroke:none"
         transform="matrix(1.3333333,0,0,-1.3333333,0,880)"
         clip-path="url(#clipPath9)" />
      <path
         id="path10"
         d="M 0,0 V -184.692 H -660.728 V 16.375 c 9.034,0.018 18.081,0.031 27.162,0.031 C -401.763,16.406 -184.981,10.414 0,0"
         style="fill:#4ebd38;fill-opacity:1;fill-rule:evenodd;stroke:none"
         transform="matrix(1.3333333,0,0,-1.3333333,880.7148,634.34373)"
         clip-path="url(#clipPath11)" />
      <path
         id="path12"
         d="M 0,0 V -165.445 H -660.728 V -19.812 C -471.641,-7.784 -244.705,-0.554 0,0"
         style="fill:#7bcd57;fill-opacity:1;fill-rule:evenodd;stroke:none"
         transform="matrix(1.3333333,0,0,-1.3333333,880.7148,660.00653)"
         clip-path="url(#clipPath13)" />
      <path
         id="path14"
         d="m 0,0 v -82.722 h -660.728 v 99.097 l 27.162,0.031 C -513.125,16.549 -184.981,10.411 0,0"
         style="fill:#4ebd38;fill-opacity:1;fill-rule:evenodd;stroke:none"
         transform="matrix(1.3333333,0,0,-1.3333333,880.7148,770.30467)"
         clip-path="url(#clipPath15)" />
      <path
         id="path16"
         d="m 0,0 10.424,-93.285 -4.928,4.356 6.038,-14.285 6.637,-59.403 0.724,-6.472 -10.901,5.722 12.813,-22.83 11.384,-101.879 -14.205,15.3 15.597,-27.754 2.76,-24.705 H 0 -36.343 l 4.865,43.541 9.496,19.906 -8.074,-7.189 9.733,87.112 13.329,29.989 -11.131,-10.331 7.837,70.139 8.789,6.636 -8.177,-1.158 z"
         style="fill:#2e943e;fill-opacity:1;fill-rule:evenodd;stroke:none"
         transform="matrix(1.3333333,0,0,-1.3333333,148.79747,360.41013)"
         clip-path="url(#clipPath17)" />
      <path
         id="path18"
         d="m 0,0 7.979,-71.405 -3.772,3.335 4.622,-10.934 5.081,-45.47 0.553,-4.953 -8.344,4.378 9.808,-17.475 8.714,-77.979 -10.874,11.708 11.939,-21.243 2.113,-18.91 H 0 -27.818 l 3.724,33.327 7.269,15.24 -6.181,-5.502 7.451,66.675 10.202,22.955 -8.521,-7.908 5.999,53.688 6.728,5.081 -6.259,-0.889 z"
         style="fill:#39b03e;fill-opacity:1;fill-rule:evenodd;stroke:none"
         transform="matrix(1.3333333,0,0,-1.3333333,229.8756,390.52667)"
         clip-path="url(#clipPath19)" />
      <path
         id="path20"
         d="m 0,0 5.255,-47.032 -2.485,2.197 3.044,-7.201 3.347,-29.952 0.365,-3.262 -5.496,2.885 6.46,-11.512 5.739,-51.362 -7.161,7.713 7.864,-13.993 1.391,-12.457 H 0 -18.324 l 2.453,21.954 4.788,10.035 -4.071,-3.623 4.908,43.918 6.72,15.121 -5.613,-5.21 3.952,35.363 4.431,3.347 -4.122,-0.585 z"
         style="fill:#39b03e;fill-opacity:1;fill-rule:evenodd;stroke:none"
         transform="matrix(1.3333333,0,0,-1.3333333,34.791733,444.5768)"
         clip-path="url(#clipPath21)" />
      <path
         id="path22"
         d="m 0,0 3.463,-30.978 -1.637,1.447 2.005,-4.745 2.203,-19.727 0.24,-2.149 -3.621,1.9 4.256,-7.581 3.781,-33.834 -4.716,5.08 5.178,-9.215 0.917,-8.203 H 0 -12.069 l 1.615,14.459 3.154,6.61 -2.682,-2.385 3.233,28.927 4.428,9.958 -3.698,-3.431 2.604,23.294 2.917,2.203 -2.715,-0.385 z"
         style="fill:#4ebd38;fill-opacity:1;fill-rule:evenodd;stroke:none"
         transform="matrix(1.3333333,0,0,-1.3333333,834.40627,478.2748)"
         clip-path="url(#clipPath23)" />
      <path
         id="path24"
         d="M 0,0 -392.429,-4.047 0,-10.524 Z"
         style="fill:#96d76c;fill-opacity:1;fill-rule:evenodd;stroke:none"
         transform="matrix(1.3333333,0,0,-1.3333333,880.7148,696.87893)"
         clip-path="url(#clipPath25)" />
      <path
         id="path26"
         d="m 0,0 2.617,-23.426 -1.238,1.095 1.517,-3.588 1.666,-14.918 0.182,-1.624 -2.738,1.437 3.218,-5.734 2.858,-25.583 -3.565,3.842 3.916,-6.967 0.693,-6.206 H 0 -9.128 l 1.223,10.934 2.384,4.999 -2.026,-1.806 2.443,21.876 3.346,7.529 -2.796,-2.593 1.969,17.613 2.208,1.667 -2.053,-0.291 z"
         style="fill:#4ebd38;fill-opacity:1;fill-rule:evenodd;stroke:none"
         transform="matrix(1.3333333,0,0,-1.3333333,757.086,508.53)"
         clip-path="url(#clipPath27)" />
      <path
         id="path28"
         d="m 0,0 6.583,-58.912 -3.112,2.751 3.812,-9.022 4.194,-37.515 0.455,-4.087 -6.883,3.613 8.09,-14.42 7.191,-64.338 -8.973,9.661 9.851,-17.527 1.744,-15.602 H 0 -22.952 l 3.072,27.498 5.998,12.572 -5.099,-4.541 6.148,55.016 8.416,18.938 -7.03,-6.524 4.949,44.295 5.552,4.191 -5.165,-0.731 z"
         style="fill:#39b03e;fill-opacity:1;fill-rule:evenodd;stroke:none"
         transform="matrix(1.3333333,0,0,-1.3333333,788.43093,478.2748)"
         clip-path="url(#clipPath29)" />
      <path
         id="path30"
         d="m 0,0 12.507,-111.923 -5.913,5.228 7.244,-17.14 7.966,-71.273 0.867,-7.765 -13.079,6.866 15.371,-27.393 13.661,-122.234 -17.044,18.355 18.712,-33.296 3.312,-29.641 H 0 -43.604 l 5.836,52.24 11.395,23.885 -9.69,-8.625 11.68,104.515 15.99,35.979 -13.355,-12.395 9.405,84.154 10.546,7.964 -9.81,-1.392 z"
         style="fill:#287d38;fill-opacity:1;fill-rule:evenodd;stroke:none"
         transform="matrix(1.3333333,0,0,-1.3333333,708.1068,330.974)"
         clip-path="url(#clipPath31)" />
      <path
         id="path32"
         d="M 0,0 448.623,-12.955 0,-23.478 Z"
         style="fill:#7bcd57;fill-opacity:1;fill-rule:evenodd;stroke:none"
         transform="matrix(1.3333333,0,0,-1.3333333,-0.25653333,804.54427)"
         clip-path="url(#clipPath33)" />
      <path
         id="path34"
         d="m 0,0 1.058,-9.458 -0.499,0.441 0.611,-1.448 0.673,-6.023 0.073,-0.656 -1.104,0.58 1.299,-2.314 1.154,-10.33 -1.441,1.552 1.581,-2.815 0.281,-2.506 H 0 -3.684 l 0.493,4.415 0.963,2.018 -0.818,-0.727 0.985,8.832 1.353,3.039 -1.128,-1.046 0.793,7.112 0.893,0.672 -0.83,-0.117 z"
         style="fill:#7bcd57;fill-opacity:1;fill-rule:evenodd;stroke:none"
         transform="matrix(1.3333333,0,0,-1.3333333,393.15947,570.76947)"
         clip-path="url(#clipPath35)" />
      <path
         id="path36"
         d="m 0,0 1.296,-11.602 -0.613,0.543 0.751,-1.777 0.826,-7.386 0.089,-0.805 -1.356,0.711 1.594,-2.839 1.416,-12.669 -1.767,1.902 1.941,-3.452 0.342,-3.072 H 0 -4.52 l 0.605,5.415 1.181,2.477 -1.004,-0.896 1.211,10.834 1.657,3.73 -1.384,-1.286 0.973,8.723 1.094,0.826 -1.018,-0.146 z"
         style="fill:#7bcd57;fill-opacity:1;fill-rule:evenodd;stroke:none"
         transform="matrix(1.3333333,0,0,-1.3333333,401.2904,560.67573)"
         clip-path="url(#clipPath37)" />
      <path
         id="path38"
         d="m 0,0 1.361,-12.182 -0.644,0.57 0.789,-1.866 0.867,-7.756 0.094,-0.846 -1.424,0.747 1.674,-2.98 1.486,-13.304 -1.855,1.998 2.037,-3.624 0.361,-3.228 H 0 -4.746 l 0.635,5.687 1.241,2.598 -1.055,-0.938 1.272,11.375 1.74,3.916 -1.453,-1.349 1.022,9.16 1.149,0.866 -1.069,-0.152 z"
         style="fill:#7bcd57;fill-opacity:1;fill-rule:evenodd;stroke:none"
         transform="matrix(1.3333333,0,0,-1.3333333,419.94013,557.97653)"
         clip-path="url(#clipPath39)" />
      <path
         id="path40"
         d="m 0,0 1.058,-9.459 -0.499,0.441 0.611,-1.448 0.673,-6.022 0.072,-0.657 -1.104,0.581 1.299,-2.317 1.155,-10.327 -1.442,1.55 1.583,-2.815 0.28,-2.503 H 0 -3.684 l 0.493,4.414 0.963,2.018 -0.818,-0.729 0.985,8.833 1.352,3.042 -1.128,-1.048 0.793,7.111 0.894,0.673 -0.83,-0.117 z"
         style="fill:#7bcd57;fill-opacity:1;fill-rule:evenodd;stroke:none"
         transform="matrix(1.3333333,0,0,-1.3333333,428.2396,571.57813)"
         clip-path="url(#clipPath41)" />
      <path
         id="path42"
         d="m 0,0 1.057,-9.459 -0.5,0.443 0.612,-1.449 0.674,-6.023 0.072,-0.657 -1.105,0.581 1.298,-2.315 1.155,-10.33 -1.441,1.553 1.583,-2.815 0.28,-2.506 H 0 -3.686 l 0.494,4.416 0.963,2.019 -0.82,-0.729 0.988,8.832 1.351,3.041 -1.129,-1.049 0.796,7.112 0.891,0.674 -0.829,-0.117 z"
         style="fill:#7bcd57;fill-opacity:1;fill-rule:evenodd;stroke:none"
         transform="matrix(1.3333333,0,0,-1.3333333,445.37107,570.98307)"
         clip-path="url(#clipPath43)" />
      <path
         id="path44"
         d="m 0,0 1.297,-11.6 -0.612,0.541 0.749,-1.775 0.826,-7.388 0.09,-0.805 -1.356,0.712 1.594,-2.838 1.415,-12.67 -1.767,1.902 1.94,-3.451 0.344,-3.073 H 0 -4.521 l 0.607,5.415 1.181,2.477 -1.004,-0.896 1.209,10.833 1.659,3.73 -1.385,-1.285 0.975,8.723 1.094,0.825 -1.017,-0.144 z"
         style="fill:#7bcd57;fill-opacity:1;fill-rule:evenodd;stroke:none"
         transform="matrix(1.3333333,0,0,-1.3333333,474.17707,561.07813)"
         clip-path="url(#clipPath45)" />
      <path
         id="path46"
         d="m 0,0 1.36,-12.183 -0.642,0.57 0.788,-1.866 0.867,-7.756 0.095,-0.845 -1.425,0.747 1.674,-2.981 1.487,-13.302 -1.855,1.997 2.037,-3.626 0.36,-3.226 H 0 -4.745 l 0.635,5.687 1.24,2.598 -1.056,-0.938 1.272,11.376 1.741,3.916 -1.454,-1.35 1.024,9.159 1.148,0.867 -1.069,-0.152 z"
         style="fill:#7bcd57;fill-opacity:1;fill-rule:evenodd;stroke:none"
         transform="matrix(1.3333333,0,0,-1.3333333,492.82813,558.3776)"
         clip-path="url(#clipPath47)" />
      <path
         id="path48"
         d="m 0,0 1.058,-9.457 -0.501,0.441 0.613,-1.448 0.673,-6.024 0.072,-0.655 -1.105,0.581 1.3,-2.315 1.155,-10.33 -1.442,1.552 1.582,-2.815 0.28,-2.505 H 0 -3.685 l 0.494,4.414 0.962,2.018 -0.818,-0.727 0.985,8.831 1.353,3.041 -1.128,-1.047 0.794,7.112 0.891,0.672 -0.828,-0.117 z"
         style="fill:#7bcd57;fill-opacity:1;fill-rule:evenodd;stroke:none"
         transform="matrix(1.3333333,0,0,-1.3333333,518.25787,571.38547)"
         clip-path="url(#clipPath49)" />
      <path
         id="path50"
         d="m 0,0 1.058,-9.459 -0.5,0.443 0.611,-1.448 0.674,-6.024 0.073,-0.657 -1.105,0.583 1.298,-2.315 1.155,-10.33 -1.441,1.549 1.581,-2.812 0.282,-2.506 H 0 -3.686 l 0.495,4.414 0.963,2.019 -0.82,-0.728 0.987,8.832 1.352,3.041 -1.129,-1.047 0.794,7.11 0.893,0.674 -0.831,-0.117 z"
         style="fill:#7bcd57;fill-opacity:1;fill-rule:evenodd;stroke:none"
         transform="matrix(1.3333333,0,0,-1.3333333,452.25653,570.5)"
         clip-path="url(#clipPath51)" />
      <path
         id="path52"
         d="m 0,0 1.057,-9.459 -0.501,0.442 0.614,-1.449 0.672,-6.022 0.074,-0.657 -1.105,0.581 1.298,-2.315 1.155,-10.33 -1.441,1.552 1.581,-2.815 0.28,-2.506 H 0 -3.686 l 0.495,4.417 0.961,2.019 -0.818,-0.731 0.987,8.834 1.352,3.041 -1.129,-1.048 0.794,7.111 0.892,0.673 -0.829,-0.117 z"
         style="fill:#7bcd57;fill-opacity:1;fill-rule:evenodd;stroke:none"
         transform="matrix(1.3333333,0,0,-1.3333333,469.38667,569.9036)"
         clip-path="url(#clipPath53)" />
      <path
         id="path54"
         d="m 0,0 0.921,-8.235 -0.436,0.384 0.533,-1.261 0.587,-5.246 0.064,-0.571 -0.962,0.504 1.13,-2.014 1.007,-8.997 -1.254,1.352 1.376,-2.451 0.244,-2.182 H 0 -3.208 l 0.43,3.845 0.839,1.758 -0.714,-0.636 0.859,7.692 1.178,2.648 -0.984,-0.911 0.693,6.192 0.775,0.586 -0.721,-0.102 z"
         style="fill:#7bcd57;fill-opacity:1;fill-rule:evenodd;stroke:none"
         transform="matrix(1.3333333,0,0,-1.3333333,460.7956,575.62627)"
         clip-path="url(#clipPath55)" />
      <path
         id="path56"
         d="m 0,0 8.536,-76.384 -4.036,3.567 4.943,-11.696 5.436,-48.643 0.593,-5.298 -8.927,4.686 10.492,-18.695 9.322,-83.422 -11.632,12.528 12.772,-22.724 2.26,-20.23 H 0 -29.759 l 3.984,35.651 7.775,16.302 -6.611,-5.885 7.97,71.327 10.914,24.555 -9.115,-8.459 6.418,57.433 7.197,5.435 -6.696,-0.95 z"
         style="fill:#2e943e;fill-opacity:1;fill-rule:evenodd;stroke:none"
         transform="matrix(1.3333333,0,0,-1.3333333,63.3828,363.41987)"
         clip-path="url(#clipPath57)" />
      <path
         id="path58"
         d="M 0,0 5.086,-45.507 V -375.791 H -36.46 l 5.953,12.483 -11.205,-9.976 13.508,120.891 18.499,41.618 -15.45,-14.336 10.878,97.341 12.198,9.21 -11.35,-1.609 z"
         style="fill:#287d38;fill-opacity:1;fill-rule:evenodd;stroke:none"
         transform="matrix(1.3333333,0,0,-1.3333333,873.9336,379.5456)"
         clip-path="url(#clipPath59)" />
      <path
         id="path60"
         d="m 0,0 2.175,-19.463 -1.027,0.909 1.259,-2.98 1.385,-12.395 0.15,-1.35 -2.274,1.195 2.673,-4.765 2.376,-21.255 -2.963,3.192 3.253,-5.79 0.575,-5.154 H 0 -7.583 l 1.015,9.084 1.982,4.152 -1.684,-1.499 2.03,18.174 2.782,6.258 -2.324,-2.156 1.636,14.634 1.834,1.385 -1.707,-0.242 z"
         style="fill:#4ebd38;fill-opacity:1;fill-rule:evenodd;stroke:none"
         transform="matrix(1.3333333,0,0,-1.3333333,332.34507,529.23827)"
         clip-path="url(#clipPath61)" />
      <path
         id="path62"
         d="m 0,0 2.548,-22.818 -1.204,1.065 1.476,-3.494 1.624,-14.53 0.177,-1.584 -2.665,1.401 3.133,-5.586 2.785,-24.919 -3.476,3.742 3.816,-6.788 0.675,-6.043 H 0 -8.891 l 1.191,10.65 2.322,4.869 -1.974,-1.757 2.379,21.307 3.262,7.335 -2.724,-2.527 1.918,17.157 2.149,1.623 -2,-0.284 z"
         style="fill:#4ebd38;fill-opacity:1;fill-rule:evenodd;stroke:none"
         transform="matrix(1.3333333,0,0,-1.3333333,310.88213,519.7136)"
         clip-path="url(#clipPath63)" />
      <path
         id="path64"
         d="m 0,0 2.55,-22.818 -1.206,1.066 1.477,-3.495 1.624,-14.53 0.177,-1.583 -2.667,1.4 3.135,-5.586 2.784,-24.919 -3.475,3.742 3.815,-6.788 0.675,-6.042 H 0 -8.89 l 1.19,10.649 2.323,4.87 -1.975,-1.758 2.381,21.308 3.26,7.335 -2.723,-2.528 1.918,17.157 2.149,1.623 -2,-0.284 z"
         style="fill:#4ebd38;fill-opacity:1;fill-rule:evenodd;stroke:none"
         transform="matrix(1.3333333,0,0,-1.3333333,290.74547,512.28253)"
         clip-path="url(#clipPath65)" />
      <path
         id="path66"
         d="m 0,0 2.175,-19.463 -1.029,0.909 1.26,-2.98 1.386,-12.395 0.15,-1.349 -2.274,1.194 2.673,-4.764 2.375,-21.257 -2.964,3.194 3.255,-5.792 0.576,-5.154 H 0 -7.583 l 1.016,9.086 1.981,4.153 -1.685,-1.5 2.031,18.175 2.78,6.256 -2.322,-2.156 1.636,14.634 1.834,1.385 -1.707,-0.242 z"
         style="fill:#4ebd38;fill-opacity:1;fill-rule:evenodd;stroke:none"
         transform="matrix(1.3333333,0,0,-1.3333333,271.0912,530.04813)"
         clip-path="url(#clipPath67)" />
      <path
         id="path68"
         d="M 0,0 604.707,-6.476 0,-14.571 Z"
         style="fill:#ffffff;fill-opacity:1;fill-rule:evenodd;stroke:none"
         transform="matrix(1.3333333,0,0,-1.3333333,-0.25653333,279.76493)"
         clip-path="url(#clipPath69)" />
      <path
         id="path70"
         d="M 0,0 -470.499,-5.039 0,-11.338 Z"
         style="fill:#ffffff;fill-opacity:1;fill-rule:evenodd;stroke:none"
         transform="matrix(1.3333333,0,0,-1.3333333,880.7148,171.82813)"
         clip-path="url(#clipPath71)" />
      <path
         id="path72"
         d="M 0,0 -600.024,-6.427 0,-14.459 Z"
         style="fill:#ffffff;fill-opacity:1;fill-rule:evenodd;stroke:none"
         transform="matrix(1.3333333,0,0,-1.3333333,880.7148,100.84893)"
         clip-path="url(#clipPath73)" />
      <path
         id="path74"
         d="M 0,0 454.541,-4.869 0,-10.953 Z"
         style="fill:#ffffff;fill-opacity:1;fill-rule:evenodd;stroke:none"
         transform="matrix(1.3333333,0,0,-1.3333333,-0.25653333,334.54227)"
         clip-path="url(#clipPath75)" />
      <path
         id="path76"
         d="m 0,0 c 4.545,0 7.685,-1.619 8.843,-4.126 6.797,6.221 17.396,10.614 26.935,10.614 6.776,0 11.627,-2.217 13.831,-5.731 3.913,1.613 8.14,2.563 12.138,2.563 6.416,0 10.707,-2.446 11.946,-6.155 4.736,3.006 10.663,4.948 16.122,4.948 5.951,0 9.899,-2.307 10.952,-5.786 5.667,4.42 13.608,7.422 20.826,7.422 5.697,0 9.769,-1.87 11.607,-4.831 3.969,1.896 8.419,3.044 12.59,3.044 9.167,0 13.524,-5.539 9.733,-12.372 -3.79,-6.833 -14.293,-12.373 -23.458,-12.373 -4.173,0 -7.349,1.149 -9.214,3.045 -5.124,-2.961 -11.271,-4.832 -16.968,-4.832 -7.217,0 -11.829,3.003 -12.591,7.422 -4.914,-3.479 -11.421,-5.785 -17.371,-5.785 -5.459,0 -9.232,1.94 -10.631,4.948 -5.355,-3.709 -12.361,-6.156 -18.777,-6.156 -3.998,0 -7.17,0.95 -9.294,2.563 -6.103,-3.513 -13.414,-5.731 -20.19,-5.731 -9.539,0 -15.264,4.394 -15.158,10.615 -3.94,-2.508 -8.876,-4.126 -13.422,-4.126 -7.712,0 -11.379,4.66 -8.189,10.41 C -16.55,-4.661 -7.713,0 0,0"
         style="fill:#ffffff;fill-opacity:1;fill-rule:evenodd;stroke:none"
         transform="matrix(1.3333333,0,0,-1.3333333,112.8548,273.8412)"
         clip-path="url(#clipPath77)" />
      <path
         id="path78"
         d="m 0,0 c 3.955,0 6.686,-1.409 7.694,-3.59 5.914,5.413 15.137,9.236 23.436,9.236 5.897,0 10.116,-1.93 12.034,-4.988 3.405,1.404 7.083,2.23 10.562,2.23 5.581,0 9.315,-2.128 10.394,-5.356 4.12,2.617 9.277,4.306 14.027,4.306 5.177,0 8.612,-2.006 9.529,-5.034 4.93,3.846 11.841,6.458 18.121,6.458 4.957,0 8.5,-1.627 10.098,-4.204 3.454,1.65 7.326,2.649 10.957,2.649 7.974,0 11.765,-4.82 8.467,-10.765 -3.298,-5.946 -12.435,-10.765 -20.412,-10.765 -3.63,0 -6.393,0.999 -8.016,2.649 -4.457,-2.576 -9.806,-4.204 -14.763,-4.204 -6.279,0 -10.293,2.612 -10.955,6.458 -4.276,-3.027 -9.938,-5.034 -15.114,-5.034 -4.75,0 -8.033,1.689 -9.251,4.306 -4.66,-3.228 -10.754,-5.356 -16.337,-5.356 -3.479,0 -6.238,0.826 -8.088,2.229 -5.309,-3.057 -11.671,-4.987 -17.566,-4.987 -8.3,0 -13.281,3.823 -13.189,9.236 -3.428,-2.181 -7.723,-3.59 -11.677,-3.59 -6.711,0 -9.901,4.055 -7.125,9.058 C -14.399,-4.055 -6.71,0 0,0"
         style="fill:#ffffff;fill-opacity:1;fill-rule:evenodd;stroke:none"
         transform="matrix(1.3333333,0,0,-1.3333333,312.4076,95.8568)"
         clip-path="url(#clipPath79)" />
      <path
         id="path80"
         d="m 0,0 c 2.602,0 4.683,-0.771 6.003,-2.038 3.489,2.826 8.293,4.683 12.951,4.683 3.999,0 7.078,-1.369 8.735,-3.543 3.397,2.31 7.69,3.773 11.868,3.773 2.574,0 4.777,-0.556 6.476,-1.524 3.848,2.295 8.459,3.709 12.96,3.709 4.984,0 8.802,-1.731 10.81,-4.471 1.309,0.325 2.654,0.503 3.982,0.503 4.408,0 7.507,-1.947 8.377,-4.809 3.935,4.623 10.83,7.914 17.466,7.914 8.549,0 13.432,-5.458 10.904,-12.191 -2.527,-6.732 -11.505,-12.191 -20.053,-12.191 -6.638,0 -11.063,3.292 -11.529,7.915 -3.014,-2.862 -7.576,-4.81 -11.985,-4.81 -1.328,0 -2.537,0.179 -3.605,0.504 -4.066,-2.74 -9.183,-4.471 -14.164,-4.471 -4.501,0 -8.052,1.414 -10.177,3.709 -2.426,-0.968 -5.044,-1.524 -7.621,-1.524 -4.177,0 -7.373,1.463 -9.036,3.773 -3.288,-2.174 -7.395,-3.543 -11.392,-3.543 -4.659,0 -8.069,1.858 -9.437,4.683 -2.27,-1.267 -4.932,-2.038 -7.533,-2.038 -5.603,0 -8.804,3.579 -7.147,7.993 C -11.49,-3.579 -5.604,0 0,0"
         style="fill:#ffffff;fill-opacity:1;fill-rule:evenodd;stroke:none"
         transform="matrix(1.3333333,0,0,-1.3333333,540.33067,168.31773)"
         clip-path="url(#clipPath81)" />
      <path
         id="path82"
         d="m 0,0 c 2.6,0 4.683,-0.771 6.003,-2.038 3.489,2.825 8.293,4.683 12.951,4.683 3.999,0 7.077,-1.369 8.734,-3.543 3.397,2.31 7.69,3.773 11.868,3.773 2.576,0 4.776,-0.556 6.476,-1.524 3.847,2.295 8.461,3.709 12.963,3.709 4.98,0 8.798,-1.731 10.808,-4.471 1.311,0.325 2.653,0.503 3.983,0.503 4.407,0 7.506,-1.947 8.375,-4.809 3.934,4.623 10.83,7.914 17.468,7.914 8.549,0 13.429,-5.458 10.902,-12.19 -2.527,-6.733 -11.505,-12.192 -20.054,-12.192 -6.637,0 -11.063,3.292 -11.526,7.915 -3.017,-2.862 -7.578,-4.81 -11.985,-4.81 -1.329,0 -2.539,0.179 -3.605,0.504 -4.066,-2.74 -9.183,-4.471 -14.164,-4.471 -4.504,0 -8.053,1.414 -10.18,3.709 -2.424,-0.968 -5.043,-1.524 -7.619,-1.524 -4.178,0 -7.373,1.463 -9.036,3.774 -3.289,-2.175 -7.395,-3.544 -11.394,-3.544 -4.658,0 -8.067,1.857 -9.435,4.682 -2.271,-1.266 -4.933,-2.037 -7.533,-2.037 -5.604,0 -8.805,3.579 -7.148,7.994 C -11.491,-3.58 -5.605,0 0,0"
         style="fill:#ffffff;fill-opacity:1;fill-rule:evenodd;stroke:none"
         transform="matrix(1.3333333,0,0,-1.3333333,252.14133,331.12893)"
         clip-path="url(#clipPath83)" />
      <path
         id="path84"
         d="M 0,0 470.497,-2.239 0,-5.039 Z"
         style="fill:#ffffff;fill-opacity:1;fill-rule:evenodd;stroke:none"
         transform="matrix(1.3333333,0,0,-1.3333333,-0.25653333,54.0528)"
         clip-path="url(#clipPath85)" />
    </g>
  </g>
</svg>
