<?xml version="1.0" encoding="UTF-8" standalone="no"?>
<!-- Created with Inkscape (http://www.inkscape.org/) -->

<svg
   version="1.1"
   id="svg1"
   width="880"
   height="880"
   viewBox="0 0 880 880"
   sodipodi:docname="red-dry-sunset-landscape.svg"
   inkscape:version="1.3.2 (091e20e, 2023-11-25, custom)"
   xmlns:inkscape="http://www.inkscape.org/namespaces/inkscape"
   xmlns:sodipodi="http://sodipodi.sourceforge.net/DTD/sodipodi-0.dtd"
   xmlns="http://www.w3.org/2000/svg"
   xmlns:svg="http://www.w3.org/2000/svg">
  <defs
     id="defs1">
    <clipPath
       clipPathUnits="userSpaceOnUse"
       id="clipPath4">
      <path
         d="M 0,660 H 660 V 0 H 0 Z"
         transform="translate(-183.6597,-330.68701)"
         id="path4" />
    </clipPath>
    <clipPath
       clipPathUnits="userSpaceOnUse"
       id="clipPath6">
      <path
         d="M 0,660 H 660 V 0 H 0 Z"
         transform="translate(-421.43071,-207.4873)"
         id="path6" />
    </clipPath>
    <clipPath
       clipPathUnits="userSpaceOnUse"
       id="clipPath8">
      <path
         d="M 0,660 H 660 V 0 H 0 Z"
         transform="translate(-108.46191,-241.32621)"
         id="path8" />
    </clipPath>
    <clipPath
       clipPathUnits="userSpaceOnUse"
       id="clipPath10">
      <path
         d="M 0,660 H 660 V 0 H 0 Z"
         id="path10" />
    </clipPath>
    <clipPath
       clipPathUnits="userSpaceOnUse"
       id="clipPath12">
      <path
         d="M 0,660 H 660 V 0 H 0 Z"
         transform="translate(-659.91412,-140.0244)"
         id="path12" />
    </clipPath>
    <clipPath
       clipPathUnits="userSpaceOnUse"
       id="clipPath14">
      <path
         d="M 0,660 H 660 V 0 H 0 Z"
         transform="translate(-614.81842,-140.0244)"
         id="path14" />
    </clipPath>
    <clipPath
       clipPathUnits="userSpaceOnUse"
       id="clipPath16">
      <path
         d="M 0,660 H 660 V 0 H 0 Z"
         transform="translate(-98.02,-298.87701)"
         id="path16" />
    </clipPath>
    <clipPath
       clipPathUnits="userSpaceOnUse"
       id="clipPath18">
      <path
         d="M 0,660 H 660 V 0 H 0 Z"
         transform="translate(-183.6592,-564.54881)"
         id="path18" />
    </clipPath>
    <clipPath
       clipPathUnits="userSpaceOnUse"
       id="clipPath20">
      <path
         d="M 0,660 H 660 V 0 H 0 Z"
         transform="translate(-183.6592,-531.22411)"
         id="path20" />
    </clipPath>
    <clipPath
       clipPathUnits="userSpaceOnUse"
       id="clipPath22">
      <path
         d="M 0,660 H 660 V 0 H 0 Z"
         transform="translate(-183.6597,-430.66111)"
         id="path22" />
    </clipPath>
    <clipPath
       clipPathUnits="userSpaceOnUse"
       id="clipPath24">
      <path
         d="M 0,660 H 660 V 0 H 0 Z"
         transform="translate(-453.92581,-45.157201)"
         id="path24" />
    </clipPath>
    <clipPath
       clipPathUnits="userSpaceOnUse"
       id="clipPath26">
      <path
         d="M 0,660 H 660 V 0 H 0 Z"
         transform="translate(-460.57421,-32.537101)"
         id="path26" />
    </clipPath>
    <clipPath
       clipPathUnits="userSpaceOnUse"
       id="clipPath28">
      <path
         d="M 0,660 H 660 V 0 H 0 Z"
         transform="translate(-496.84671,-453.22311)"
         id="path28" />
    </clipPath>
    <clipPath
       clipPathUnits="userSpaceOnUse"
       id="clipPath30">
      <path
         d="M 0,660 H 660 V 0 H 0 Z"
         transform="translate(-421.42381,-509.62501)"
         id="path30" />
    </clipPath>
    <clipPath
       clipPathUnits="userSpaceOnUse"
       id="clipPath32">
      <path
         d="M 0,660 H 660 V 0 H 0 Z"
         transform="translate(-499.22271,-569.66701)"
         id="path32" />
    </clipPath>
    <clipPath
       clipPathUnits="userSpaceOnUse"
       id="clipPath34">
      <path
         d="M 0,660 H 660 V 0 H 0 Z"
         transform="translate(-538.19821,-576.73102)"
         id="path34" />
    </clipPath>
    <clipPath
       clipPathUnits="userSpaceOnUse"
       id="clipPath36">
      <path
         d="M 0,660 H 660 V 0 H 0 Z"
         transform="translate(-515.36821,-319.07911)"
         id="path36" />
    </clipPath>
    <clipPath
       clipPathUnits="userSpaceOnUse"
       id="clipPath38">
      <path
         d="M 0,660 H 660 V 0 H 0 Z"
         transform="translate(-576.48142,-376.26221)"
         id="path38" />
    </clipPath>
    <clipPath
       clipPathUnits="userSpaceOnUse"
       id="clipPath40">
      <path
         d="M 0,660 H 660 V 0 H 0 Z"
         transform="translate(-547.99222,-332.84721)"
         id="path40" />
    </clipPath>
    <clipPath
       clipPathUnits="userSpaceOnUse"
       id="clipPath42">
      <path
         d="M 0,660 H 660 V 0 H 0 Z"
         transform="translate(-81.161605,-0.99999752)"
         id="path42" />
    </clipPath>
  </defs>
  <sodipodi:namedview
     id="namedview1"
     pagecolor="#ffffff"
     bordercolor="#000000"
     borderopacity="0.25"
     inkscape:showpageshadow="2"
     inkscape:pageopacity="0.0"
     inkscape:pagecheckerboard="0"
     inkscape:deskcolor="#d1d1d1"
     inkscape:zoom="0.69318182"
     inkscape:cx="439.27869"
     inkscape:cy="440"
     inkscape:window-width="1440"
     inkscape:window-height="830"
     inkscape:window-x="-6"
     inkscape:window-y="-6"
     inkscape:window-maximized="1"
     inkscape:current-layer="g1">
    <inkscape:page
       x="0"
       y="0"
       inkscape:label="1"
       id="page1"
       width="880"
       height="880"
       margin="1.3333334 0.11466667 0.47600001 1.6953067"
       bleed="0" />
  </sodipodi:namedview>
  <g
     id="g1"
     inkscape:groupmode="layer"
     inkscape:label="1">
    <g
       id="group-MC0">
      <path
         id="path2"
         d="M 1.272,1 H 659.914 V 659.643 H 1.272 Z"
         style="fill:#f57b59;fill-opacity:1;fill-rule:nonzero;stroke:none"
         transform="matrix(1.3333333,0,0,-1.3333333,0,880)" />
      <path
         id="path3"
         d="m 0,0 c 73.581,0 133.593,60.013 133.593,133.593 0,73.581 -60.012,133.593 -133.593,133.593 -73.581,0 -133.593,-60.012 -133.593,-133.593 C -133.593,60.013 -73.581,0 0,0"
         style="fill:#f57b59;fill-opacity:1;fill-rule:evenodd;stroke:none"
         transform="matrix(1.3333333,0,0,-1.3333333,244.8796,439.084)"
         clip-path="url(#clipPath4)" />
      <path
         id="path5"
         d="M 0,0 98.248,39.328 238.483,-41.636 V -49.98 L 49.987,-49.768 Z"
         style="fill:#e15f3e;fill-opacity:1;fill-rule:evenodd;stroke:none"
         transform="matrix(1.3333333,0,0,-1.3333333,561.9076,603.35027)"
         clip-path="url(#clipPath6)" />
      <path
         id="path7"
         d="M 0,0 156.399,41.906 251.541,-13.023 295.97,-1.119 438.165,-83.215 16.81,-83.607 Z"
         style="fill:#ca5031;fill-opacity:1;fill-rule:evenodd;stroke:none"
         transform="matrix(1.3333333,0,0,-1.3333333,144.61587,558.23173)"
         clip-path="url(#clipPath8)" />
      <path
         id="path9"
         d="M 1.271,1 H 659.914 V 157.719 H 1.271 Z"
         style="fill:#9b391e;fill-opacity:1;fill-rule:evenodd;stroke:none"
         transform="matrix(1.3333333,0,0,-1.3333333,0,880)"
         clip-path="url(#clipPath10)" />
      <path
         id="path11"
         d="M 0,0 H -597.454 C -460.233,-96.729 -198.266,-129.76 0,-53.968 Z"
         style="fill:#632215;fill-opacity:1;fill-rule:evenodd;stroke:none"
         transform="matrix(1.3333333,0,0,-1.3333333,879.88547,693.3008)"
         clip-path="url(#clipPath12)" />
      <path
         id="path13"
         d="m 0,0 h -552.358 c 22.529,-15.882 48.438,-30.032 76.859,-42.281 l 30.094,8.836 95.447,-13.005 95.143,27.932 44.428,-6.054 40.431,11.87 74.816,-15.23 z"
         style="fill:#471c14;fill-opacity:1;fill-rule:evenodd;stroke:none"
         transform="matrix(1.3333333,0,0,-1.3333333,819.75787,693.3008)"
         clip-path="url(#clipPath14)" />
      <path
         id="path15"
         d="m 0,0 164.568,-95.013 50.388,13.501 103.31,-59.646 H -96.749 v 115.235 z"
         style="fill:#b34123;fill-opacity:1;fill-rule:evenodd;stroke:none"
         transform="matrix(1.3333333,0,0,-1.3333333,130.69333,481.49733)"
         clip-path="url(#clipPath16)" />
      <path
         id="path17"
         d="m 0,0 c 55.377,0 100.268,-44.892 100.268,-100.268 0,-55.378 -44.891,-100.269 -100.268,-100.269 -55.376,0 -100.269,44.891 -100.269,100.269 C -100.269,-44.892 -55.376,0 0,0"
         style="fill:#f89a80;fill-opacity:1;fill-rule:evenodd;stroke:none"
         transform="matrix(1.3333333,0,0,-1.3333333,244.87893,127.26827)"
         clip-path="url(#clipPath18)" />
      <path
         id="path19"
         d="m 0,0 c 36.972,0 66.943,-29.972 66.943,-66.944 0,-36.972 -29.971,-66.944 -66.943,-66.944 -36.972,0 -66.944,29.972 -66.944,66.944 C -66.944,-29.972 -36.972,0 0,0"
         style="fill:#fab9a8;fill-opacity:1;fill-rule:evenodd;stroke:none"
         transform="matrix(1.3333333,0,0,-1.3333333,244.87893,171.7012)"
         clip-path="url(#clipPath20)" />
      <path
         id="path21"
         d="M 0,0 C 18.517,0 33.619,15.102 33.619,33.619 33.619,52.136 18.517,67.238 0,67.238 -18.518,67.238 -33.619,52.136 -33.619,33.619 -33.619,15.102 -18.518,0 0,0"
         style="fill:#fcdad3;fill-opacity:1;fill-rule:evenodd;stroke:none"
         transform="matrix(1.3333333,0,0,-1.3333333,244.8796,305.7852)"
         clip-path="url(#clipPath22)" />
      <path
         id="path23"
         d="m 0,0 10.504,36.949 c 20.145,70.864 24.005,136.973 11.67,206.198 -10.949,61.45 -10.532,115.881 1.363,177.527 10.199,52.857 9.24,101.368 -2.883,154.622 L 11.85,613.982 H 36.729 L 49.391,576.385 C 67.573,522.392 73.264,471.708 67.126,416.323 60.115,353.091 64.29,298.064 80.727,236.989 96.689,177.68 100.352,122.775 92.655,60.486 L 86.293,9.007 C 57.863,4.3 28.956,1.332 0,0"
         style="fill:#fab9a8;fill-opacity:1;fill-rule:evenodd;stroke:none"
         transform="matrix(1.3333333,0,0,-1.3333333,605.2344,819.7904)"
         clip-path="url(#clipPath24)" />
      <path
         id="path25"
         d="m 0,0 13.282,49.569 c 18.988,70.864 21.765,136.973 8.3,206.199 -11.953,61.449 -12.424,115.88 -1.535,177.526 9.335,52.857 7.584,101.369 -5.408,154.623 l -9.438,38.685 h 24.88 L 43.355,589.005 C 62.421,535.012 68.939,484.328 63.705,428.943 57.73,365.711 62.801,310.684 80.236,249.609 97.168,190.3 101.727,135.395 95.047,73.106 L 87.586,3.539 Z"
         style="fill:#9b391e;fill-opacity:1;fill-rule:evenodd;stroke:none"
         transform="matrix(1.3333333,0,0,-1.3333333,614.09893,836.6172)"
         clip-path="url(#clipPath26)" />
      <path
         id="path27"
         d="m 0,0 -33.343,27.662 c -17.579,14.584 -37.774,21.025 -60.553,19.309 l -2.35,-0.178 c -18.999,-1.431 -35.73,2.751 -51.819,12.955 l -12.512,7.934 3.095,4.424 11.802,-5.75 c 15.475,-7.539 30.681,-10.056 47.759,-7.907 l 13.825,1.739 c 18.903,2.379 35.821,-0.963 52.401,-10.35 L 3.98,29.639 Z"
         style="fill:#9b391e;fill-opacity:1;fill-rule:evenodd;stroke:none"
         transform="matrix(1.3333333,0,0,-1.3333333,662.46227,275.70253)"
         clip-path="url(#clipPath28)" />
      <path
         id="path29"
         d="m 0,0 -10.056,5.794 c -10.91,6.288 -18.605,14.588 -24.051,25.943 l -2.388,4.979 3.096,0.664 0.527,-0.918 C -26.19,24.803 -17.123,16.692 -4.794,11.346 L 20.348,0.442 Z"
         style="fill:#9b391e;fill-opacity:1;fill-rule:evenodd;stroke:none"
         transform="matrix(1.3333333,0,0,-1.3333333,561.8984,200.5)"
         clip-path="url(#clipPath30)" />
      <path
         id="path31"
         d="m 0,0 8.488,1.057 c 34.171,4.257 61.332,19.972 77.64,44.92 L 88.03,48.889 91.017,48.87 84.273,36.021 C 71.814,12.281 49.823,-2.417 19.834,-10.475 l -12.425,-3.34 z"
         style="fill:#9b391e;fill-opacity:1;fill-rule:evenodd;stroke:none"
         transform="matrix(1.3333333,0,0,-1.3333333,665.63027,120.444)"
         clip-path="url(#clipPath32)" />
      <path
         id="path33"
         d="M 0,0 2.837,1.988 C 14.253,9.989 20.989,20.76 22.093,32.776 l 0.129,1.402 2.332,0.572 0.024,-5.875 C 24.621,18.02 19.879,7.958 10.679,-0.61 L 6.867,-4.16 Z"
         style="fill:#9b391e;fill-opacity:1;fill-rule:evenodd;stroke:none"
         transform="matrix(1.3333333,0,0,-1.3333333,717.5976,111.02533)"
         clip-path="url(#clipPath34)" />
      <path
         id="path35"
         d="m 0,0 27.017,31.992 c 14.751,17.47 32.809,27.952 55.296,32.096 15.267,2.813 28.677,7.817 42.66,15.825 l 19.573,11.212 V 84.048 L 133.643,75.94 C 120.846,66.425 107.877,59.65 93.667,55.178 69.803,47.668 51.821,33.102 39.521,11.314 L 14.154,-33.62 Z"
         style="fill:#9b391e;fill-opacity:1;fill-rule:evenodd;stroke:none"
         transform="matrix(1.3333333,0,0,-1.3333333,687.1576,454.5612)"
         clip-path="url(#clipPath36)" />
      <path
         id="path37"
         d="M 0,0 11.117,10.312 C 22.855,21.2 31.246,33.485 37.991,49.653 l 0.766,1.835 2.187,-0.739 -1.879,-5.872 C 34.351,30.169 28.239,18.494 19.286,7.092 L 14.155,0.557 Z"
         style="fill:#9b391e;fill-opacity:1;fill-rule:evenodd;stroke:none"
         transform="matrix(1.3333333,0,0,-1.3333333,768.64187,378.31707)"
         clip-path="url(#clipPath38)" />
      <path
         id="path39"
         d="M 0,0 20.893,-3.242 C 41.859,-6.496 60.457,-5.15 80.737,1.091 l 7.955,2.447 0.222,2.876 -8.16,-1.515 C 60.887,1.211 43.19,1.776 23.598,6.722 l -16.3,4.116 z"
         style="fill:#9b391e;fill-opacity:1;fill-rule:evenodd;stroke:none"
         transform="matrix(1.3333333,0,0,-1.3333333,730.65627,436.20373)"
         clip-path="url(#clipPath40)" />
      <path
         id="path41"
         d="m 0,0 h -79.89 v 106.225 c 12.302,-16.291 21.643,-35.242 27.016,-56.258 0.197,-0.77 0.384,-1.54 0.569,-2.31 13.563,19.857 31.384,35.849 51.696,47.195 C 9.342,64.983 10.191,31.904 0,0 M 578.752,74.192 V 0 H 471.535 c -13.561,18.225 -22.644,38.956 -27.074,60.557 27.766,0.402 55.771,-6.703 80.746,-21.667 -2.706,27.097 1.953,53.756 12.626,77.594 16.052,-11.19 30.025,-25.477 40.919,-42.292"
         style="fill:#471c14;fill-opacity:1;fill-rule:evenodd;stroke:none"
         transform="matrix(1.3333333,0,0,-1.3333333,108.21547,878.66667)"
         clip-path="url(#clipPath42)" />
    </g>
  </g>
</svg>
