<?xml version="1.0" encoding="UTF-8" standalone="no"?>
<!-- Created with Inkscape (http://www.inkscape.org/) -->

<svg
   version="1.1"
   id="svg1"
   width="880"
   height="880"
   viewBox="0 0 880 880"
   sodipodi:docname="ridge-in-the-sea.svg"
   inkscape:version="1.3.2 (091e20e, 2023-11-25, custom)"
   xmlns:inkscape="http://www.inkscape.org/namespaces/inkscape"
   xmlns:sodipodi="http://sodipodi.sourceforge.net/DTD/sodipodi-0.dtd"
   xmlns="http://www.w3.org/2000/svg"
   xmlns:svg="http://www.w3.org/2000/svg">
  <defs
     id="defs1">
    <clipPath
       clipPathUnits="userSpaceOnUse"
       id="clipPath3">
      <path
         d="M 0,660 H 660 V 0 H 0 Z"
         transform="translate(-470.42771,-517.86911)"
         id="path3" />
    </clipPath>
    <clipPath
       clipPathUnits="userSpaceOnUse"
       id="clipPath5">
      <path
         d="M 0,660 H 660 V 0 H 0 Z"
         transform="translate(-481.71291,-517.51511)"
         id="path5" />
    </clipPath>
    <clipPath
       clipPathUnits="userSpaceOnUse"
       id="clipPath7">
      <path
         d="M 0,660 H 660 V 0 H 0 Z"
         transform="translate(-77.792004,-249.95701)"
         id="path7" />
    </clipPath>
    <clipPath
       clipPathUnits="userSpaceOnUse"
       id="clipPath9">
      <path
         d="M 0,660 H 660 V 0 H 0 Z"
         transform="translate(-191.80521,-354.60351)"
         id="path9" />
    </clipPath>
    <clipPath
       clipPathUnits="userSpaceOnUse"
       id="clipPath11">
      <path
         d="M 0,660 H 660 V 0 H 0 Z"
         transform="translate(-164.9766,-420.36471)"
         id="path11" />
    </clipPath>
    <clipPath
       clipPathUnits="userSpaceOnUse"
       id="clipPath13">
      <path
         d="M 0,660 H 660 V 0 H 0 Z"
         transform="translate(-517.37791,-239.39551)"
         id="path13" />
    </clipPath>
    <clipPath
       clipPathUnits="userSpaceOnUse"
       id="clipPath15">
      <path
         d="M 0,660 H 660 V 0 H 0 Z"
         transform="translate(-207.7852,-249.95701)"
         id="path15" />
    </clipPath>
    <clipPath
       clipPathUnits="userSpaceOnUse"
       id="clipPath17">
      <path
         d="M 0,660 H 660 V 0 H 0 Z"
         transform="translate(-135.8931,-173.92971)"
         id="path17" />
    </clipPath>
    <clipPath
       clipPathUnits="userSpaceOnUse"
       id="clipPath19">
      <path
         d="M 0,660 H 660 V 0 H 0 Z"
         transform="translate(-397.85161,-221.74611)"
         id="path19" />
    </clipPath>
    <clipPath
       clipPathUnits="userSpaceOnUse"
       id="clipPath21">
      <path
         d="M 0,660 H 660 V 0 H 0 Z"
         transform="translate(-520.89941,-231.47461)"
         id="path21" />
    </clipPath>
    <clipPath
       clipPathUnits="userSpaceOnUse"
       id="clipPath23">
      <path
         d="M 0,660 H 660 V 0 H 0 Z"
         transform="translate(-350.40041,-456.34231)"
         id="path23" />
    </clipPath>
    <clipPath
       clipPathUnits="userSpaceOnUse"
       id="clipPath25">
      <path
         d="M 0,660 H 660 V 0 H 0 Z"
         transform="translate(-416.85641,-530.07761)"
         id="path25" />
    </clipPath>
    <clipPath
       clipPathUnits="userSpaceOnUse"
       id="clipPath27">
      <path
         d="M 0,660 H 660 V 0 H 0 Z"
         transform="translate(-303.88721,-609.89842)"
         id="path27" />
    </clipPath>
    <clipPath
       clipPathUnits="userSpaceOnUse"
       id="clipPath29">
      <path
         d="M 0,660 H 660 V 0 H 0 Z"
         transform="translate(-136.3584,-173.5908)"
         id="path29" />
    </clipPath>
    <clipPath
       clipPathUnits="userSpaceOnUse"
       id="clipPath31">
      <path
         d="M 0,660 H 660 V 0 H 0 Z"
         transform="translate(-418.05571,-569.21191)"
         id="path31" />
    </clipPath>
    <clipPath
       clipPathUnits="userSpaceOnUse"
       id="clipPath33">
      <path
         d="M 0,660 H 660 V 0 H 0 Z"
         transform="translate(-502.98631,-475.92091)"
         id="path33" />
    </clipPath>
    <clipPath
       clipPathUnits="userSpaceOnUse"
       id="clipPath35">
      <path
         d="M 0,660 H 660 V 0 H 0 Z"
         transform="translate(-470.86331,-523.00631)"
         id="path35" />
    </clipPath>
    <clipPath
       clipPathUnits="userSpaceOnUse"
       id="clipPath37">
      <path
         d="M 0,660 H 660 V 0 H 0 Z"
         transform="translate(-495.41111,-551.00201)"
         id="path37" />
    </clipPath>
  </defs>
  <sodipodi:namedview
     id="namedview1"
     pagecolor="#ffffff"
     bordercolor="#000000"
     borderopacity="0.25"
     inkscape:showpageshadow="2"
     inkscape:pageopacity="0.0"
     inkscape:pagecheckerboard="0"
     inkscape:deskcolor="#d1d1d1"
     inkscape:zoom="0.67272727"
     inkscape:cx="439.25676"
     inkscape:cy="440"
     inkscape:window-width="1440"
     inkscape:window-height="830"
     inkscape:window-x="-6"
     inkscape:window-y="-6"
     inkscape:window-maximized="1"
     inkscape:current-layer="g1">
    <inkscape:page
       x="0"
       y="0"
       inkscape:label="1"
       id="page1"
       width="880"
       height="880"
       margin="85.671867 16.882668 35.68 11.166667"
       bleed="0" />
  </sodipodi:namedview>
  <g
     id="g1"
     inkscape:groupmode="layer"
     inkscape:label="1">
    <g
       id="group-MC0">
      <path
         id="path2"
         d="m 0,0 c -6.459,-17.137 -61.832,-30.525 -129.185,-30.525 -71.695,0 -129.815,15.169 -129.815,33.882 0,13.425 29.912,25.025 73.289,30.51 14.331,1.811 25.638,11.002 30.345,24.66 6.277,18.212 58.963,32.429 123.029,32.429 C 35.955,90.956 91.316,74.8 91.316,54.872 91.316,41.407 66.042,29.665 28.582,23.465 15.186,21.249 4.789,12.707 0,0"
         style="fill:#c9e4ff;fill-opacity:1;fill-rule:evenodd;stroke:none"
         transform="matrix(1.3333333,0,0,-1.3333333,627.23693,189.50787)"
         clip-path="url(#clipPath3)" />
      <path
         id="path4"
         d="m 0,0 c 91.473,0 165.625,-20.005 165.625,-44.681 0,-11.873 -17.162,-22.662 -45.158,-30.663 -14.087,-4.026 -24.687,-17.384 -29.053,-36.504 -6.572,-28.732 -130.422,-51.641 -282.239,-51.641 -156.027,0 -282.513,24.197 -282.513,54.045 0,29.758 125.722,53.899 281.101,54.045 11.491,0.009 21.373,6.252 28.974,18.282 C -149.941,-16.042 -81.915,0 0,0"
         style="fill:#c9e4ff;fill-opacity:1;fill-rule:evenodd;stroke:none"
         transform="matrix(1.3333333,0,0,-1.3333333,642.28387,189.97987)"
         clip-path="url(#clipPath5)" />
      <path
         id="path6"
         d="m 0,0 h 471.295 c 35.726,0 64.686,-14.869 64.686,-33.209 0,-18.341 -28.96,-33.21 -64.686,-33.21 -2.628,0 -5.218,0.08 -7.765,0.235 -18.217,1.121 -35.024,-3.373 -43.683,-11.676 -4.931,-4.73 -11.745,-8.863 -19.93,-12.138 -12.579,-5.033 -18.552,-12.538 -16.435,-20.653 0.335,-1.291 0.51,-2.605 0.51,-3.942 0,-13.669 -18.148,-25.163 -42.751,-28.475 -14.953,-2.017 -25.939,-7.392 -30.571,-14.962 -9.817,-16.04 -39.004,-27.673 -73.483,-27.673 -37.03,0 -67.956,13.418 -75.336,31.3 -3.443,8.344 -14.8,14.586 -30.782,16.917 -26.379,3.846 -45.699,16.304 -45.699,31.079 0,1.201 0.128,2.386 0.376,3.552 1.591,7.459 -3.506,14.238 -14.445,19.215 -7.357,3.347 -13.557,7.35 -18.25,11.828 -8.844,8.441 -26.154,12.93 -44.633,11.573 -2.749,-0.201 -5.56,-0.308 -8.418,-0.308 -32.566,0 -58.967,13.555 -58.967,30.275 C -58.967,-13.555 -32.566,0 0,0"
         style="fill:#4d9ceb;fill-opacity:1;fill-rule:evenodd;stroke:none"
         transform="matrix(1.3333333,0,0,-1.3333333,103.72267,546.724)"
         clip-path="url(#clipPath7)" />
      <path
         id="path8"
         d="m 0,0 c 76.733,0 139.319,62.585 139.319,139.318 0,76.734 -62.586,139.318 -139.319,139.318 -76.734,0 -139.318,-62.584 -139.318,-139.318 C -139.318,62.585 -76.734,0 0,0"
         style="fill:#ffdd30;fill-opacity:1;fill-rule:evenodd;stroke:none"
         transform="matrix(1.3333333,0,0,-1.3333333,255.74027,407.19533)"
         clip-path="url(#clipPath9)" />
      <path
         id="path10"
         d="m 0,0 c 51.17,0 92.906,41.734 92.906,92.905 0,51.172 -41.736,92.906 -92.906,92.906 -51.171,0 -92.906,-41.734 -92.906,-92.906 C -92.906,41.734 -51.171,0 0,0"
         style="fill:#ffee69;fill-opacity:1;fill-rule:evenodd;stroke:none"
         transform="matrix(1.3333333,0,0,-1.3333333,219.9688,319.51373)"
         clip-path="url(#clipPath11)" />
      <path
         id="path12"
         d="m 0,0 -40.323,155.71 -30.344,-2.045 -29.854,137.017 -53.51,-20.94 -22.738,90.082 -27.345,-5.562 -9.377,16.241 -44.039,-38.221 -20.851,-77.814 -35.779,20.658 -53.603,-200.05 -17.191,9.924 -14.303,-74.438 76.206,-21.315 38.797,-30.173 104.864,22.828 99.307,-5.778 z"
         style="fill:#f5a40e;fill-opacity:1;fill-rule:evenodd;stroke:none"
         transform="matrix(1.3333333,0,0,-1.3333333,689.8372,560.806)"
         clip-path="url(#clipPath13)" />
      <path
         id="path14"
         d="m 0,0 h 131.964 l 1.759,-0.383 6.583,0.383 h 110.819 l 61.989,-18.482 -14.304,-53.38 c -3.516,-1.68 -6.551,-3.692 -8.956,-5.998 -4.931,-4.73 -11.746,-8.863 -19.93,-12.138 -12.579,-5.033 -18.552,-12.538 -16.435,-20.653 0.335,-1.291 0.51,-2.605 0.51,-3.942 0,-13.669 -18.149,-25.163 -42.751,-28.475 -14.953,-2.017 -25.939,-7.392 -30.571,-14.962 -9.817,-16.04 -39.004,-27.673 -73.483,-27.673 -37.031,0 -67.956,13.418 -75.336,31.3 -3.444,8.344 -14.8,14.586 -30.782,16.917 -26.379,3.846 -45.699,16.304 -45.699,31.079 0,1.201 0.127,2.386 0.376,3.552 1.591,7.459 -3.506,14.238 -14.445,19.215 -7.357,3.347 -13.557,7.35 -18.25,11.828 -1.264,1.207 -2.701,2.332 -4.288,3.371 L -96.086,-13 -9.939,-7.73 Z"
         style="fill:#216bb5;fill-opacity:1;fill-rule:evenodd;stroke:none"
         transform="matrix(1.3333333,0,0,-1.3333333,277.04693,546.724)"
         clip-path="url(#clipPath15)" />
      <path
         id="path16"
         d="m 0,0 c -1.835,1.351 -3.522,2.758 -5.05,4.216 -1.263,1.207 -2.701,2.331 -4.288,3.37 l -14.856,55.441 24.073,1.472 z"
         style="fill:#307dc9;fill-opacity:1;fill-rule:evenodd;stroke:none"
         transform="matrix(1.3333333,0,0,-1.3333333,181.1908,648.09373)"
         clip-path="url(#clipPath17)" />
      <path
         id="path18"
         d="m 0,0 -0.845,-3.701 -11.001,-44.884 v -3.522 l -0.439,-51.926 -17.603,62.049 4.863,40.53 z m -75.112,-157.293 c -2.552,-0.131 -5.141,-0.199 -7.761,-0.199 -9.189,0 -18.003,0.828 -26.173,2.344 l -3.79,29.114 -19.362,-14.081 -27.728,159.741 104.864,-22.828 z M 42.067,28.211 H 61.059 L 123.048,9.729 71.77,-65.939 c -3.855,-2.567 -6.494,-5.486 -7.804,-8.62 L 41.662,-97.205 38.967,-110.68 c -5.346,-1.881 -11.343,-3.311 -17.785,-4.177 -1.003,-0.137 -1.991,-0.288 -2.959,-0.454 z"
         style="fill:#06519c;fill-opacity:1;fill-rule:evenodd;stroke:none"
         transform="matrix(1.3333333,0,0,-1.3333333,530.4688,584.33853)"
         clip-path="url(#clipPath19)" />
      <path
         id="path20"
         d="m 0,0 -43.845,163.631 -22.423,-6.008 -37.775,140.98 -49.988,-28.861 -26.26,98.003 -22.917,-13.231 -13.804,23.91 -38.462,-38.461 -22.907,-85.495 -35.78,20.657 -53.604,-200.05 -17.19,9.926 -24.245,-90.484 86.147,-5.27 38.797,-30.173 104.864,22.827 99.309,-5.779 z"
         style="fill:#64717d;fill-opacity:1;fill-rule:evenodd;stroke:none"
         transform="matrix(1.3333333,0,0,-1.3333333,694.53253,571.3672)"
         clip-path="url(#clipPath21)" />
      <path
         id="path22"
         d="M 0,0 7.041,-57.207 24.204,3.52 0.881,36.524 -0.879,71.728 -14.081,31.243 Z m 46.171,-246.17 -0.844,3.702 -11.003,44.886 v 3.519 l -0.44,51.927 -17.601,-62.048 4.864,-40.53 z m -159.928,-19.623 27.73,159.739 19.36,-14.082 16.724,128.496 11.44,-23.763 29.61,-227.563 z"
         style="fill:#475059;fill-opacity:1;fill-rule:evenodd;stroke:none"
         transform="matrix(1.3333333,0,0,-1.3333333,467.20053,271.5436)"
         clip-path="url(#clipPath23)" />
      <path
         id="path24"
         d="m 0,0 -9.468,-79.017 47.243,-61.962 z m 23.96,-322.481 -35.188,211.781 26.404,-43.565 7.481,-37.406 28.604,-29.041 52.782,-77.891 z"
         style="fill:#475059;fill-opacity:1;fill-rule:evenodd;stroke:none"
         transform="matrix(1.3333333,0,0,-1.3333333,555.80853,173.22987)"
         clip-path="url(#clipPath25)" />
      <path
         id="path26"
         d="m 0,0 -61.369,-123.956 22.908,85.495 z m -150.752,-303.349 52.707,73.224 2.2,38.725 11.002,12.32 -12.306,75.781 z m -17.19,9.926 -0.173,-91.957 -24.073,1.473 z m 113.683,152.627 14.961,-58.526 -37.404,-50.606 18.482,53.686 z m 68.064,116.886 11.366,-20.954 11.55,34.185 z"
         style="fill:#909eab;fill-opacity:1;fill-rule:evenodd;stroke:none"
         transform="matrix(1.3333333,0,0,-1.3333333,405.18293,66.802133)"
         clip-path="url(#clipPath27)" />
      <path
         id="path28"
         d="m 0,0 c -2.015,1.455 -3.86,2.976 -5.516,4.555 -1.004,0.96 -2.119,1.867 -3.332,2.722 h 326.302 z m 28.668,-37.871 c -1.162,2.394 -1.802,4.892 -1.857,7.466 l 107.143,-2.365 z m 310.828,23.458 c -5.201,-2.306 -9.128,-5.066 -11.656,-8.122 l -196.087,5.168 z"
         style="fill:#4d9ceb;fill-opacity:1;fill-rule:evenodd;stroke:none"
         transform="matrix(1.3333333,0,0,-1.3333333,181.8112,648.5456)"
         clip-path="url(#clipPath29)" />
      <path
         id="path30"
         d="M 0,0 37.404,8.361 4.841,8.801 -14.081,26.403 Z"
         style="fill:#475059;fill-opacity:1;fill-rule:evenodd;stroke:none"
         transform="matrix(1.3333333,0,0,-1.3333333,557.4076,121.0508)"
         clip-path="url(#clipPath31)" />
      <path
         id="path32"
         d="M 0,0 37.404,8.361 4.841,8.801 -14.081,26.403 Z"
         style="fill:#475059;fill-opacity:1;fill-rule:evenodd;stroke:none"
         transform="matrix(1.3333333,0,0,-1.3333333,670.6484,245.4388)"
         clip-path="url(#clipPath33)" />
      <path
         id="path34"
         d="M 0,0 37.403,8.361 4.841,8.801 -14.083,26.403 Z"
         style="fill:#475059;fill-opacity:1;fill-rule:evenodd;stroke:none"
         transform="matrix(1.3333333,0,0,-1.3333333,627.81773,182.65827)"
         clip-path="url(#clipPath35)" />
      <path
         id="path36"
         d="M 0,0 37.404,8.361 4.841,8.801 -14.083,26.403 Z"
         style="fill:#475059;fill-opacity:1;fill-rule:evenodd;stroke:none"
         transform="matrix(1.3333333,0,0,-1.3333333,660.54813,145.33067)"
         clip-path="url(#clipPath37)" />
    </g>
  </g>
</svg>
