<?xml version="1.0" encoding="UTF-8" standalone="no"?>
<!-- Created with Inkscape (http://www.inkscape.org/) -->

<svg
   version="1.1"
   id="svg1"
   width="880"
   height="880"
   viewBox="0 0 880 880"
   sodipodi:docname="banking-service-icon.svg"
   inkscape:version="1.3.2 (091e20e, 2023-11-25, custom)"
   xmlns:inkscape="http://www.inkscape.org/namespaces/inkscape"
   xmlns:sodipodi="http://sodipodi.sourceforge.net/DTD/sodipodi-0.dtd"
   xmlns="http://www.w3.org/2000/svg"
   xmlns:svg="http://www.w3.org/2000/svg">
  <defs
     id="defs1">
    <clipPath
       clipPathUnits="userSpaceOnUse"
       id="clipPath5">
      <path
         d="M 0,660 H 660 V 0 H 0 Z"
         transform="translate(-452.87211,-463.41461)"
         id="path5" />
    </clipPath>
    <clipPath
       clipPathUnits="userSpaceOnUse"
       id="clipPath7">
      <path
         d="M 0,660 H 660 V 0 H 0 Z"
         transform="translate(-58.176301,-437.43021)"
         id="path7" />
    </clipPath>
    <clipPath
       clipPathUnits="userSpaceOnUse"
       id="clipPath9">
      <path
         d="M 0,660 H 660 V 0 H 0 Z"
         transform="translate(-330.25731,-80.945305)"
         id="path9" />
    </clipPath>
    <clipPath
       clipPathUnits="userSpaceOnUse"
       id="clipPath11">
      <path
         d="M 0,660 H 660 V 0 H 0 Z"
         transform="translate(-329.29301,-257.08591)"
         id="path11" />
    </clipPath>
    <clipPath
       clipPathUnits="userSpaceOnUse"
       id="clipPath13">
      <path
         d="M 0,660 H 660 V 0 H 0 Z"
         transform="translate(-329.29301,-257.08591)"
         id="path13" />
    </clipPath>
    <clipPath
       clipPathUnits="userSpaceOnUse"
       id="clipPath15">
      <path
         d="M 0,660 H 660 V 0 H 0 Z"
         transform="translate(-340.33791,-244.4863)"
         id="path15" />
    </clipPath>
    <clipPath
       clipPathUnits="userSpaceOnUse"
       id="clipPath17">
      <path
         d="M 0,660 H 660 V 0 H 0 Z"
         transform="translate(-340.33791,-244.4863)"
         id="path17" />
    </clipPath>
    <clipPath
       clipPathUnits="userSpaceOnUse"
       id="clipPath19">
      <path
         d="M 0,660 H 660 V 0 H 0 Z"
         transform="translate(-408.32321,-521.57621)"
         id="path19" />
    </clipPath>
    <clipPath
       clipPathUnits="userSpaceOnUse"
       id="clipPath21">
      <path
         d="M 0,660 H 660 V 0 H 0 Z"
         transform="translate(-408.32321,-521.57621)"
         id="path21" />
    </clipPath>
    <clipPath
       clipPathUnits="userSpaceOnUse"
       id="clipPath23">
      <path
         d="M 0,660 H 660 V 0 H 0 Z"
         transform="translate(-443.89941,-291.49021)"
         id="path23" />
    </clipPath>
    <clipPath
       clipPathUnits="userSpaceOnUse"
       id="clipPath25">
      <path
         d="M 0,660 H 660 V 0 H 0 Z"
         transform="translate(-443.89941,-291.49021)"
         id="path25" />
    </clipPath>
    <clipPath
       clipPathUnits="userSpaceOnUse"
       id="clipPath27">
      <path
         d="M 0,660 H 660 V 0 H 0 Z"
         transform="translate(-220.64401,-328.82131)"
         id="path27" />
    </clipPath>
    <clipPath
       clipPathUnits="userSpaceOnUse"
       id="clipPath29">
      <path
         d="M 0,660 H 660 V 0 H 0 Z"
         transform="translate(-220.64401,-328.82131)"
         id="path29" />
    </clipPath>
    <clipPath
       clipPathUnits="userSpaceOnUse"
       id="clipPath31">
      <path
         d="M 0,660 H 660 V 0 H 0 Z"
         transform="translate(-144.0259,-498.90671)"
         id="path31" />
    </clipPath>
    <clipPath
       clipPathUnits="userSpaceOnUse"
       id="clipPath33">
      <path
         d="M 0,660 H 660 V 0 H 0 Z"
         transform="translate(-144.0259,-498.90671)"
         id="path33" />
    </clipPath>
    <clipPath
       clipPathUnits="userSpaceOnUse"
       id="clipPath35">
      <path
         d="M 0,660 H 660 V 0 H 0 Z"
         transform="translate(-576.00292,-311.61331)"
         id="path35" />
    </clipPath>
    <clipPath
       clipPathUnits="userSpaceOnUse"
       id="clipPath37">
      <path
         d="M 0,660 H 660 V 0 H 0 Z"
         transform="translate(-576.00292,-311.61331)"
         id="path37" />
    </clipPath>
    <clipPath
       clipPathUnits="userSpaceOnUse"
       id="clipPath39">
      <path
         d="M 0,660 H 660 V 0 H 0 Z"
         transform="translate(-75.064502,-242.07811)"
         id="path39" />
    </clipPath>
    <clipPath
       clipPathUnits="userSpaceOnUse"
       id="clipPath41">
      <path
         d="M 0,660 H 660 V 0 H 0 Z"
         transform="translate(-75.064502,-242.07811)"
         id="path41" />
    </clipPath>
    <clipPath
       clipPathUnits="userSpaceOnUse"
       id="clipPath43">
      <path
         d="M 0,660 H 660 V 0 H 0 Z"
         id="path43" />
    </clipPath>
    <clipPath
       clipPathUnits="userSpaceOnUse"
       id="clipPath45">
      <path
         d="M 0,660 H 660 V 0 H 0 Z"
         id="path45" />
    </clipPath>
    <clipPath
       clipPathUnits="userSpaceOnUse"
       id="clipPath47">
      <path
         d="M 0,660 H 660 V 0 H 0 Z"
         id="path47" />
    </clipPath>
    <clipPath
       clipPathUnits="userSpaceOnUse"
       id="clipPath49">
      <path
         d="M 0,660 H 660 V 0 H 0 Z"
         id="path49" />
    </clipPath>
    <clipPath
       clipPathUnits="userSpaceOnUse"
       id="clipPath51">
      <path
         d="M 0,660 H 660 V 0 H 0 Z"
         id="path51" />
    </clipPath>
    <clipPath
       clipPathUnits="userSpaceOnUse"
       id="clipPath53">
      <path
         d="M 0,660 H 660 V 0 H 0 Z"
         id="path53" />
    </clipPath>
    <clipPath
       clipPathUnits="userSpaceOnUse"
       id="clipPath55">
      <path
         d="M 0,660 H 660 V 0 H 0 Z"
         id="path55" />
    </clipPath>
    <clipPath
       clipPathUnits="userSpaceOnUse"
       id="clipPath57">
      <path
         d="M 0,660 H 660 V 0 H 0 Z"
         transform="translate(-362.62211,-164.127)"
         id="path57" />
    </clipPath>
    <clipPath
       clipPathUnits="userSpaceOnUse"
       id="clipPath59">
      <path
         d="M 0,660 H 660 V 0 H 0 Z"
         id="path59" />
    </clipPath>
    <clipPath
       clipPathUnits="userSpaceOnUse"
       id="clipPath61">
      <path
         d="M 0,660 H 660 V 0 H 0 Z"
         transform="translate(-330.25491,-481.57471)"
         id="path61" />
    </clipPath>
    <clipPath
       clipPathUnits="userSpaceOnUse"
       id="clipPath63">
      <path
         d="M 0,660 H 660 V 0 H 0 Z"
         transform="translate(-330.25491,-462.55471)"
         id="path63" />
    </clipPath>
    <clipPath
       clipPathUnits="userSpaceOnUse"
       id="clipPath65">
      <path
         d="M 0,660 H 660 V 0 H 0 Z"
         id="path65" />
    </clipPath>
    <clipPath
       clipPathUnits="userSpaceOnUse"
       id="clipPath67">
      <path
         d="M 0,660 H 660 V 0 H 0 Z"
         transform="translate(-172.5366,-311.49221)"
         id="path67" />
    </clipPath>
    <clipPath
       clipPathUnits="userSpaceOnUse"
       id="clipPath69">
      <path
         d="M 0,660 H 660 V 0 H 0 Z"
         id="path69" />
    </clipPath>
    <clipPath
       clipPathUnits="userSpaceOnUse"
       id="clipPath71">
      <path
         d="M 0,660 H 660 V 0 H 0 Z"
         id="path71" />
    </clipPath>
    <clipPath
       clipPathUnits="userSpaceOnUse"
       id="clipPath73">
      <path
         d="M 0,660 H 660 V 0 H 0 Z"
         transform="translate(-54.432101,-581.53522)"
         id="path73" />
    </clipPath>
    <clipPath
       clipPathUnits="userSpaceOnUse"
       id="clipPath75">
      <path
         d="M 0,660 H 660 V 0 H 0 Z"
         transform="translate(-298.77831,-564.83401)"
         id="path75" />
    </clipPath>
    <clipPath
       clipPathUnits="userSpaceOnUse"
       id="clipPath77">
      <path
         d="M 0,660 H 660 V 0 H 0 Z"
         transform="translate(-509.64751,-598.05571)"
         id="path77" />
    </clipPath>
    <clipPath
       clipPathUnits="userSpaceOnUse"
       id="clipPath79">
      <path
         d="M 0,660 H 660 V 0 H 0 Z"
         transform="translate(-87.25,-322.38091)"
         id="path79" />
    </clipPath>
    <clipPath
       clipPathUnits="userSpaceOnUse"
       id="clipPath81">
      <path
         d="M 0,660 H 660 V 0 H 0 Z"
         transform="translate(-579.52831,-371.98581)"
         id="path81" />
    </clipPath>
  </defs>
  <sodipodi:namedview
     id="namedview1"
     pagecolor="#ffffff"
     bordercolor="#000000"
     borderopacity="0.25"
     inkscape:showpageshadow="2"
     inkscape:pageopacity="0.0"
     inkscape:pagecheckerboard="0"
     inkscape:deskcolor="#d1d1d1"
     inkscape:zoom="0.67272727"
     inkscape:cx="439.25676"
     inkscape:cy="440"
     inkscape:window-width="1440"
     inkscape:window-height="830"
     inkscape:window-x="-6"
     inkscape:window-y="-6"
     inkscape:window-maximized="1"
     inkscape:current-layer="g1">
    <inkscape:page
       x="0"
       y="0"
       inkscape:label="1"
       id="page1"
       width="880"
       height="880"
       margin="0 0 1.0013334"
       bleed="0" />
  </sodipodi:namedview>
  <g
     id="g1"
     inkscape:groupmode="layer"
     inkscape:label="1">
    <g
       id="group-MC0">
      <path
         id="path2"
         d="M 0,0 H 660 V 659.249 H 0 Z"
         style="fill:#509f92;fill-opacity:1;fill-rule:nonzero;stroke:none"
         transform="matrix(1.3333333,0,0,-1.3333333,0,880)" />
      <path
         id="path3"
         d="M 0,149.295 H 660 V 508.647 H 0 Z"
         style="fill:#6cbfac;fill-opacity:1;fill-rule:nonzero;stroke:none"
         transform="matrix(1.3333333,0,0,-1.3333333,0,880)" />
      <path
         id="path4"
         d="m 0,0 c 2.241,0 4.341,-0.595 6.155,-1.635 4.2,9.996 14.083,17.016 25.608,17.016 10.134,0 18.998,-5.429 23.846,-13.537 3.105,2.471 7.034,3.948 11.312,3.948 5.28,0 10.034,-2.25 13.354,-5.846 4.353,7.892 12.752,13.237 22.403,13.237 8.351,0 15.766,-4.003 20.433,-10.196 2.062,0.905 4.339,1.407 6.735,1.407 8.357,0 15.287,-6.11 16.568,-14.106 l 26.779,-2.673 -26.779,-2.673 c -1.281,-7.997 -8.211,-14.108 -16.568,-14.108 -2.396,0 -4.673,0.503 -6.735,1.408 -4.667,-6.194 -12.082,-10.197 -20.433,-10.197 -9.651,0 -18.05,5.347 -22.403,13.238 -3.32,-3.595 -8.074,-5.847 -13.354,-5.847 -4.278,0 -8.207,1.478 -11.312,3.949 -4.848,-8.108 -13.712,-13.538 -23.846,-13.538 -11.525,0 -21.408,7.02 -25.608,17.016 -1.814,-1.039 -3.914,-1.634 -6.155,-1.634 -5.919,0 -10.868,4.153 -12.092,9.704 l -26.86,2.682 26.86,2.68 C -10.868,-4.154 -5.919,0 0,0"
         style="fill:#ffffff;fill-opacity:1;fill-rule:evenodd;stroke:none"
         transform="matrix(1.3333333,0,0,-1.3333333,603.82947,262.11387)"
         clip-path="url(#clipPath5)" />
      <path
         id="path6"
         d="m 0,0 c 2.24,0 4.341,-0.594 6.154,-1.634 4.201,9.996 14.085,17.016 25.609,17.016 10.133,0 18.998,-5.429 23.846,-13.537 3.104,2.471 7.034,3.948 11.311,3.948 5.28,0 10.034,-2.251 13.354,-5.846 4.353,7.891 12.754,13.237 22.404,13.237 8.351,0 15.766,-4.003 20.433,-10.196 2.061,0.905 4.338,1.407 6.734,1.407 8.358,0 15.288,-6.111 16.568,-14.106 l 26.782,-2.673 -26.782,-2.674 c -1.28,-7.997 -8.21,-14.107 -16.568,-14.107 -2.396,0 -4.673,0.504 -6.734,1.408 -4.667,-6.194 -12.082,-10.197 -20.433,-10.197 -9.65,0 -18.051,5.347 -22.404,13.238 -3.32,-3.595 -8.074,-5.847 -13.354,-5.847 -4.277,0 -8.207,1.478 -11.311,3.948 -4.848,-8.108 -13.713,-13.536 -23.846,-13.536 -11.524,0 -21.408,7.019 -25.609,17.015 C 4.341,-24.176 2.24,-24.77 0,-24.77 c -5.92,0 -10.868,4.153 -12.093,9.704 l -26.861,2.682 26.861,2.68 C -10.868,-4.153 -5.92,0 0,0"
         style="fill:#ffffff;fill-opacity:1;fill-rule:evenodd;stroke:none"
         transform="matrix(1.3333333,0,0,-1.3333333,77.5684,296.75973)"
         clip-path="url(#clipPath7)" />
      <path
         id="path8"
         d="m 0,0 c 173.573,0 315.14,4.03 315.14,8.97 0,4.938 -141.567,8.969 -315.14,8.969 -173.575,0 -315.142,-4.031 -315.142,-8.969 C -315.142,4.03 -173.575,0 0,0"
         style="fill:#3d8278;fill-opacity:1;fill-rule:evenodd;stroke:none"
         transform="matrix(1.3333333,0,0,-1.3333333,440.34307,772.07293)"
         clip-path="url(#clipPath9)" />
      <path
         id="path10"
         d="M 0,0 C 17.767,-16.013 26.652,-40.863 21.116,-65.886 15.579,-90.907 -2.96,-109.692 -25.824,-116.713 -43.593,-100.7 -52.479,-75.85 -46.941,-50.827 -41.405,-25.806 -22.866,-7.022 0,0"
         style="fill:#95dbca;fill-opacity:1;fill-rule:evenodd;stroke:none"
         transform="matrix(1.3333333,0,0,-1.3333333,439.05733,537.2188)"
         clip-path="url(#clipPath11)" />
      <path
         id="path12"
         d="m 0,0 c 0.354,-0.318 0.703,-0.645 1.051,-0.971 l -4.848,-21.905 15.156,9.666 c 0.455,-0.686 0.898,-1.381 1.325,-2.084 l -17.236,-10.993 -7.625,-34.464 33.889,21.609 c 0.157,-0.883 0.294,-1.77 0.417,-2.664 l -35.063,-22.356 -7.614,-34.429 39.564,25.228 c -0.445,-1.303 -0.928,-2.587 -1.448,-3.85 l -38.874,-24.788 -3.156,-14.274 c -0.454,-0.152 -0.907,-0.298 -1.362,-0.438 -0.354,0.32 -0.704,0.643 -1.051,0.969 l 3.157,14.278 -24.788,38.874 c 0.065,1.362 0.169,2.731 0.314,4.1 l 25.231,-39.567 7.617,34.43 -22.358,35.061 c 0.487,0.757 0.988,1.505 1.502,2.239 l 21.611,-33.891 7.627,34.469 -10.994,17.236 c 0.685,0.457 1.38,0.9 2.082,1.331 l 9.664,-15.159 4.849,21.907 C -0.91,-0.286 -0.455,-0.142 0,0"
         style="fill:#ffffff;fill-opacity:1;fill-rule:evenodd;stroke:none"
         transform="matrix(1.3333333,0,0,-1.3333333,439.05733,537.2188)"
         clip-path="url(#clipPath13)" />
      <path
         id="path14"
         d="m 0,0 c -17.77,-16.013 -26.653,-40.863 -21.118,-65.886 5.537,-25.021 24.074,-43.806 46.939,-50.827 17.77,16.013 26.656,40.863 21.118,65.886 C 41.402,-25.806 22.863,-7.021 0,0"
         style="fill:#faf462;fill-opacity:1;fill-rule:evenodd;stroke:none"
         transform="matrix(1.3333333,0,0,-1.3333333,453.78387,554.01827)"
         clip-path="url(#clipPath15)" />
      <path
         id="path16"
         d="m 0,0 c -0.354,-0.318 -0.705,-0.643 -1.051,-0.969 l 4.846,-21.907 -15.158,9.666 c -0.453,-0.686 -0.894,-1.381 -1.325,-2.084 l 17.239,-10.993 7.626,-34.464 -33.891,21.609 c -0.155,-0.883 -0.296,-1.77 -0.417,-2.664 l 35.061,-22.356 7.619,-34.429 -39.567,25.228 c 0.447,-1.303 0.928,-2.587 1.446,-3.85 l 38.874,-24.788 3.158,-14.274 c 0.453,-0.152 0.906,-0.298 1.361,-0.438 0.355,0.32 0.705,0.643 1.051,0.969 l -3.159,14.278 24.789,38.874 c -0.063,1.362 -0.167,2.731 -0.314,4.1 l -25.228,-39.565 -7.618,34.428 22.356,35.062 c -0.485,0.758 -0.986,1.504 -1.5,2.238 L 14.587,-60.22 6.962,-25.751 17.953,-8.515 c -0.686,0.457 -1.379,0.9 -2.08,1.331 L 6.207,-22.341 1.361,-0.436 C 0.908,-0.286 0.455,-0.142 0,0"
         style="fill:#ffffff;fill-opacity:1;fill-rule:evenodd;stroke:none"
         transform="matrix(1.3333333,0,0,-1.3333333,453.78387,554.01827)"
         clip-path="url(#clipPath17)" />
      <path
         id="path18"
         d="M 0,0 C 17.768,-16.012 26.652,-40.863 21.116,-65.885 15.579,-90.907 -2.958,-109.69 -25.823,-116.712 -43.594,-100.7 -52.478,-75.849 -46.941,-50.827 -41.405,-25.805 -22.866,-7.021 0,0"
         style="fill:#95dbca;fill-opacity:1;fill-rule:evenodd;stroke:none"
         transform="matrix(1.3333333,0,0,-1.3333333,544.43093,184.56507)"
         clip-path="url(#clipPath19)" />
      <path
         id="path20"
         d="m 0,0 c 0.354,-0.319 0.702,-0.643 1.051,-0.969 l -4.849,-21.907 15.159,9.667 c 0.454,-0.688 0.896,-1.383 1.325,-2.084 l -17.239,-10.992 -7.624,-34.467 33.889,21.61 c 0.155,-0.883 0.296,-1.771 0.417,-2.663 l -35.061,-22.357 -7.617,-34.429 39.565,25.229 c -0.447,-1.304 -0.928,-2.588 -1.446,-3.85 L -21.304,-102 l -3.159,-14.277 c -0.452,-0.149 -0.905,-0.295 -1.36,-0.435 -0.355,0.319 -0.705,0.643 -1.051,0.968 l 3.158,14.277 -24.788,38.875 c 0.063,1.362 0.167,2.73 0.314,4.101 l 25.229,-39.567 7.617,34.43 -22.356,35.061 c 0.487,0.756 0.986,1.504 1.5,2.238 l 21.611,-33.889 7.626,34.466 -10.992,17.237 c 0.687,0.456 1.379,0.899 2.081,1.331 l 9.664,-15.158 4.849,21.906 C -0.91,-0.286 -0.455,-0.14 0,0"
         style="fill:#ffffff;fill-opacity:1;fill-rule:evenodd;stroke:none"
         transform="matrix(1.3333333,0,0,-1.3333333,544.43093,184.56507)"
         clip-path="url(#clipPath21)" />
      <path
         id="path22"
         d="m 0,0 c -11.064,-2.482 -18.022,-13.462 -15.539,-24.527 0.457,-2.032 1.197,-3.926 2.176,-5.646 1.796,-3.165 1.168,-7.042 -1.534,-9.478 -5.515,-4.976 -8.261,-12.701 -6.52,-20.464 0.512,-2.276 1.371,-4.385 2.507,-6.281 1.961,-3.271 1.475,-7.318 -1.199,-10.034 -3.818,-3.871 -5.648,-9.541 -4.371,-15.239 1.618,-7.209 7.714,-12.253 14.703,-12.856 2.935,-0.256 5.26,-2.348 5.825,-5.242 0.561,-2.893 -0.81,-5.704 -3.438,-7.041 -9.387,-4.775 -14.723,-15.454 -12.313,-26.201 2.852,-12.721 15.478,-20.72 28.197,-17.867 0.412,0.093 0.82,0.195 1.22,0.309 10.011,2.804 23.866,-0.079 25.544,-10.337 l 3.15,-19.294 8.527,1.913 -4.302,19.135 c -1.855,8.246 10.22,21.035 17.972,24.397 9.528,4.128 15.088,14.565 12.731,25.07 -2.102,9.374 -9.882,16.007 -18.907,17.086 -3.465,0.414 -6.167,2.839 -6.954,6.242 -0.787,3.4 0.573,6.764 3.504,8.661 4.914,3.176 7.579,9.185 6.222,15.229 -1.198,5.343 -5.226,9.319 -10.153,10.705 -3,0.843 -4.828,3.848 -4.198,6.9 0.485,2.365 0.491,4.872 -0.073,7.38 -1.417,6.319 -6.072,11.074 -11.826,12.911 -4.515,1.439 -7.202,5.975 -6.298,10.626 0.526,2.7 0.514,5.548 -0.127,8.404 C 22.044,-4.477 11.064,2.48 0,0"
         style="fill:#95dbca;fill-opacity:1;fill-rule:evenodd;stroke:none"
         transform="matrix(1.3333333,0,0,-1.3333333,591.86587,491.3464)"
         clip-path="url(#clipPath23)" />
      <path
         id="path24"
         d="m 0,0 c -0.46,-0.104 -0.91,-0.222 -1.353,-0.355 l 4.204,-18.74 -15.744,9.976 c -0.499,-0.791 -0.941,-1.616 -1.328,-2.468 l 17.935,-11.366 10.214,-45.529 -34.062,21.581 c -0.384,-0.872 -0.711,-1.77 -0.974,-2.693 l 35.902,-22.746 7.351,-32.773 -43.346,27.462 c -0.586,-0.725 -1.111,-1.498 -1.567,-2.314 15.26,-9.666 30.521,-19.334 45.779,-29.007 l 9.082,-40.484 -45.15,28.603 c -0.682,-0.658 -1.325,-1.358 -1.921,-2.091 l 47.936,-30.369 8.139,-36.281 2.727,0.61 -8.138,36.283 29.146,46.001 c -0.753,0.55 -1.543,1.051 -2.358,1.502 l -27.654,-43.646 -9.082,40.485 c 9.115,14.391 18.229,28.779 27.344,43.166 -0.681,0.648 -1.422,1.224 -2.211,1.725 l -25.999,-41.034 -7.35,32.773 20.697,32.669 c -0.66,0.677 -1.373,1.299 -2.13,1.859 L 16.656,-67.871 6.444,-22.339 17.806,-4.403 c -0.713,0.605 -1.466,1.161 -2.253,1.665 L 5.579,-18.481 1.375,0.257 C 0.916,0.188 0.459,0.103 0,0"
         style="fill:#ffffff;fill-opacity:1;fill-rule:evenodd;stroke:none"
         transform="matrix(1.3333333,0,0,-1.3333333,591.86587,491.3464)"
         clip-path="url(#clipPath25)" />
      <path
         id="path26"
         d="m 0,0 c 11.065,-2.482 18.021,-13.463 15.539,-24.526 -0.455,-2.032 -1.2,-3.926 -2.174,-5.648 -1.798,-3.163 -1.17,-7.041 1.532,-9.479 5.514,-4.975 8.261,-12.699 6.517,-20.461 -0.509,-2.278 -1.369,-4.386 -2.505,-6.284 -1.961,-3.27 -1.475,-7.315 1.2,-10.031 3.818,-3.872 5.65,-9.541 4.37,-15.239 -1.615,-7.21 -7.714,-12.253 -14.702,-12.859 -2.936,-0.256 -5.263,-2.346 -5.825,-5.239 -0.561,-2.893 0.81,-5.704 3.437,-7.041 9.388,-4.775 14.726,-15.454 12.314,-26.204 -2.853,-12.718 -15.479,-20.718 -28.198,-17.864 -0.412,0.093 -0.819,0.193 -1.221,0.306 -10.009,2.806 -23.865,-0.076 -25.542,-10.336 l -3.151,-19.292 -8.527,1.912 4.303,19.135 c 1.854,8.247 -10.219,21.036 -17.973,24.398 -9.526,4.127 -15.087,14.565 -12.731,25.07 2.102,9.374 9.882,16.004 18.908,17.085 3.465,0.415 6.168,2.839 6.955,6.242 0.787,3.399 -0.575,6.765 -3.506,8.662 -4.913,3.176 -7.578,9.184 -6.222,15.228 1.2,5.344 5.227,9.32 10.154,10.705 3,0.844 4.828,3.848 4.199,6.899 -0.486,2.365 -0.492,4.872 0.071,7.383 1.419,6.317 6.072,11.073 11.826,12.909 4.515,1.437 7.203,5.975 6.298,10.627 -0.524,2.699 -0.512,5.548 0.128,8.403 C -22.044,-4.476 -11.063,2.48 0,0"
         style="fill:#faf462;fill-opacity:1;fill-rule:evenodd;stroke:none"
         transform="matrix(1.3333333,0,0,-1.3333333,294.192,441.5716)"
         clip-path="url(#clipPath27)" />
      <path
         id="path28"
         d="m 0,0 c 0.459,-0.104 0.91,-0.222 1.353,-0.354 l -4.204,-18.741 15.745,9.977 c 0.497,-0.791 0.941,-1.617 1.326,-2.471 l -17.935,-11.363 -10.213,-45.53 34.061,21.581 c 0.385,-0.871 0.711,-1.772 0.975,-2.692 l -35.902,-22.747 -7.352,-32.773 43.347,27.462 c 0.588,-0.725 1.111,-1.5 1.566,-2.313 -15.259,-9.667 -30.518,-19.335 -45.778,-29.007 l -9.081,-40.486 45.151,28.605 c 0.68,-0.66 1.324,-1.359 1.92,-2.091 l -47.937,-30.371 -8.139,-36.282 -2.728,0.613 8.138,36.28 -29.144,46.004 c 0.753,0.549 1.54,1.051 2.356,1.502 l 27.654,-43.649 9.082,40.488 c -9.113,14.389 -18.228,28.778 -27.343,43.166 0.679,0.648 1.421,1.224 2.21,1.725 l 25.998,-41.034 7.352,32.773 -20.698,32.669 c 0.661,0.676 1.374,1.296 2.132,1.859 l 19.429,-30.67 10.216,45.53 -11.363,17.935 c 0.713,0.608 1.466,1.164 2.253,1.667 l 9.976,-15.744 4.204,18.74 C -0.918,0.187 -0.459,0.103 0,0"
         style="fill:#ffffff;fill-opacity:1;fill-rule:evenodd;stroke:none"
         transform="matrix(1.3333333,0,0,-1.3333333,294.192,441.5716)"
         clip-path="url(#clipPath29)" />
      <path
         id="path30"
         d="m 0,0 c 23.802,2.366 48.161,-7.788 62.941,-28.725 14.78,-20.936 16.196,-47.288 6,-68.926 -23.802,-2.366 -48.161,7.79 -62.942,28.725 C -8.781,-47.99 -10.196,-21.637 0,0"
         style="fill:#95dbca;fill-opacity:1;fill-rule:evenodd;stroke:none"
         transform="matrix(1.3333333,0,0,-1.3333333,192.03453,214.79107)"
         clip-path="url(#clipPath31)" />
      <path
         id="path32"
         d="m 0,0 c 0.474,0.047 0.948,0.087 1.423,0.125 l 12.94,-18.329 3.054,17.716 c 0.813,-0.126 1.624,-0.266 2.433,-0.422 l -3.473,-20.147 20.359,-28.838 6.827,39.61 c 0.758,-0.479 1.508,-0.974 2.25,-1.484 l -7.062,-40.978 20.337,-28.806 7.971,46.244 c 0.664,-1.208 1.288,-2.428 1.872,-3.662 l -7.828,-45.435 8.432,-11.945 c -0.193,-0.434 -0.39,-0.868 -0.594,-1.3 -0.473,-0.046 -0.948,-0.087 -1.423,-0.123 L 59.086,-85.83 13.648,-78 c -0.965,0.963 -1.905,1.962 -2.821,2.992 l 46.243,-7.969 -20.337,28.805 -40.979,7.063 c -0.232,0.869 -0.446,1.741 -0.645,2.616 l 39.61,-6.825 -20.359,28.837 -20.147,3.472 c 0.124,0.813 0.264,1.625 0.416,2.434 L 12.346,-19.628 -0.594,-1.3 C -0.4,-0.865 -0.204,-0.431 0,0"
         style="fill:#ffffff;fill-opacity:1;fill-rule:evenodd;stroke:none"
         transform="matrix(1.3333333,0,0,-1.3333333,192.03453,214.79107)"
         clip-path="url(#clipPath33)" />
      <path
         id="path34"
         d="m 0,0 c 9.11,-22.117 6.393,-48.367 -9.406,-68.545 -15.801,-20.178 -40.631,-29.113 -64.288,-25.571 -9.111,22.116 -6.393,48.367 9.406,68.545 C -48.487,-5.394 -23.656,3.542 0,0"
         style="fill:#faf462;fill-opacity:1;fill-rule:evenodd;stroke:none"
         transform="matrix(1.3333333,0,0,-1.3333333,768.00387,464.5156)"
         clip-path="url(#clipPath35)" />
      <path
         id="path36"
         d="m 0,0 c 0.182,-0.44 0.357,-0.884 0.53,-1.327 l -13.834,-17.665 17.847,2.171 c 0.112,-0.814 0.211,-1.633 0.294,-2.452 l -20.293,-2.469 -21.763,-27.794 39.9,4.855 c -0.242,-0.863 -0.5,-1.725 -0.776,-2.583 l -41.278,-5.021 -21.738,-27.764 46.581,5.67 c -0.964,-0.985 -1.953,-1.935 -2.966,-2.851 l -45.768,-5.569 -9.015,-11.512 c -0.471,0.06 -0.945,0.125 -1.415,0.195 -0.182,0.44 -0.357,0.884 -0.53,1.327 l 9.016,11.512 -5.569,45.767 c 0.644,1.204 1.329,2.393 2.053,3.564 l 5.668,-46.581 21.741,27.764 -5.026,41.278 c 0.767,0.473 1.54,0.93 2.322,1.371 l 4.856,-39.899 21.762,27.793 -2.468,20.294 c 0.813,0.115 1.631,0.214 2.448,0.303 L -15.247,-17.47 -1.415,0.195 C -0.944,0.135 -0.471,0.07 0,0"
         style="fill:#ffffff;fill-opacity:1;fill-rule:evenodd;stroke:none"
         transform="matrix(1.3333333,0,0,-1.3333333,768.00387,464.5156)"
         clip-path="url(#clipPath37)" />
      <path
         id="path38"
         d="m 0,0 c 23.72,3.076 48.372,-6.346 63.771,-26.832 15.4,-20.486 17.601,-46.784 8.056,-68.716 C 48.107,-98.622 23.456,-89.2 8.055,-68.716 -7.344,-48.232 -9.546,-21.934 0,0"
         style="fill:#95dbca;fill-opacity:1;fill-rule:evenodd;stroke:none"
         transform="matrix(1.3333333,0,0,-1.3333333,100.086,557.2292)"
         clip-path="url(#clipPath39)" />
      <path
         id="path40"
         d="M 0,0 C 0.473,0.061 0.946,0.116 1.419,0.167 L 14.9,-17.766 17.423,0.032 c 0.818,-0.1 1.632,-0.218 2.445,-0.35 L 17,-20.559 l 21.211,-28.216 5.64,39.796 c 0.771,-0.455 1.537,-0.929 2.293,-1.416 l -5.835,-41.171 21.188,-28.187 6.586,46.462 c 0.699,-1.186 1.361,-2.39 1.982,-3.604 l -6.469,-45.649 8.786,-11.687 c -0.18,-0.441 -0.364,-0.88 -0.555,-1.317 -0.472,-0.062 -0.946,-0.115 -1.419,-0.167 l -8.786,11.688 -45.649,6.468 c -0.994,0.935 -1.964,1.905 -2.91,2.908 l 46.46,-6.584 -21.188,28.183 -41.171,5.837 c -0.259,0.863 -0.499,1.727 -0.724,2.595 l 39.797,-5.638 -21.212,28.216 -20.241,2.866 c 0.1,0.821 0.215,1.636 0.343,2.449 l 17.8,-2.525 -13.482,17.936 C -0.375,-0.878 -0.19,-0.436 0,0"
         style="fill:#ffffff;fill-opacity:1;fill-rule:evenodd;stroke:none"
         transform="matrix(1.3333333,0,0,-1.3333333,100.086,557.2292)"
         clip-path="url(#clipPath41)" />
      <path
         id="path42"
         d="m 59.958,89.915 h 540.597 v 19.793 H 59.958 Z"
         style="fill:#c7e6da;fill-opacity:1;fill-rule:evenodd;stroke:none"
         transform="matrix(1.3333333,0,0,-1.3333333,0,880)"
         clip-path="url(#clipPath43)" />
      <path
         id="path44"
         d="m 90.419,109.708 h 479.673 v 19.791 H 90.419 Z"
         style="fill:#dcf0e8;fill-opacity:1;fill-rule:evenodd;stroke:none"
         transform="matrix(1.3333333,0,0,-1.3333333,0,880)"
         clip-path="url(#clipPath45)" />
      <path
         id="path46"
         d="m 117.014,129.499 h 426.484 v 19.796 H 117.014 Z"
         style="fill:#e9f6f2;fill-opacity:1;fill-rule:evenodd;stroke:none"
         transform="matrix(1.3333333,0,0,-1.3333333,0,880)"
         clip-path="url(#clipPath47)" />
      <path
         id="path48"
         d="m 145.321,149.295 h 38.347 v 179.359 h -38.347 z"
         style="fill:#ffffff;fill-opacity:1;fill-rule:evenodd;stroke:none"
         transform="matrix(1.3333333,0,0,-1.3333333,0,880)"
         clip-path="url(#clipPath49)" />
      <path
         id="path50"
         d="m 255.83,328.652 h 38.348 V 149.295 H 255.83 Z"
         style="fill:#ffffff;fill-opacity:1;fill-rule:evenodd;stroke:none"
         transform="matrix(1.3333333,0,0,-1.3333333,0,880)"
         clip-path="url(#clipPath51)" />
      <path
         id="path52"
         d="m 366.334,328.652 h 38.349 V 149.295 h -38.349 z"
         style="fill:#ffffff;fill-opacity:1;fill-rule:evenodd;stroke:none"
         transform="matrix(1.3333333,0,0,-1.3333333,0,880)"
         clip-path="url(#clipPath53)" />
      <path
         id="path54"
         d="M 476.844,149.295 H 515.19 V 328.654 H 476.844 Z"
         style="fill:#ffffff;fill-opacity:1;fill-rule:evenodd;stroke:none"
         transform="matrix(1.3333333,0,0,-1.3333333,0,880)"
         clip-path="url(#clipPath55)" />
      <path
         id="path56"
         d="m 0,0 h 45.775 c 2.04,0 3.709,-1.669 3.709,-3.707 v -0.002 c 0,-2.039 -1.669,-3.708 -3.709,-3.708 H 0 c -2.04,0 -3.707,1.669 -3.707,3.708 v 0.002 C -3.707,-1.669 -2.04,0 0,0 m -221.013,0 h 45.774 c 2.04,0 3.709,-1.669 3.709,-3.707 v -0.002 c 0,-2.039 -1.669,-3.708 -3.709,-3.708 h -45.774 c -2.04,0 -3.708,1.669 -3.708,3.708 v 0.002 c 0,2.038 1.668,3.707 3.708,3.707 m 110.508,0 h 45.773 c 2.04,0 3.709,-1.669 3.709,-3.707 v -0.002 c 0,-2.039 -1.669,-3.708 -3.709,-3.708 h -45.773 c -2.042,0 -3.709,1.669 -3.709,3.708 v 0.002 c 0,2.038 1.667,3.707 3.709,3.707 m 221.012,157.11 h 45.775 c 2.04,0 3.709,1.669 3.709,3.706 v 0.002 c 0,2.04 -1.669,3.707 -3.709,3.707 h -45.775 c -2.039,0 -3.707,-1.667 -3.707,-3.707 v -0.002 c 0,-2.037 1.668,-3.706 3.707,-3.706 m -221.012,0 h 45.773 c 2.04,0 3.709,1.669 3.709,3.706 v 0.002 c 0,2.04 -1.669,3.707 -3.709,3.707 h -45.773 c -2.042,0 -3.709,-1.667 -3.709,-3.707 v -0.002 c 0,-2.037 1.667,-3.706 3.709,-3.706 M 0,157.11 h 45.775 c 2.04,0 3.709,1.669 3.709,3.706 v 0.002 c 0,2.04 -1.669,3.707 -3.709,3.707 H 0 c -2.04,0 -3.707,-1.667 -3.707,-3.707 v -0.002 c 0,-2.037 1.667,-3.706 3.707,-3.706 m -221.013,0 h 45.774 c 2.04,0 3.709,1.669 3.709,3.706 v 0.002 c 0,2.04 -1.669,3.707 -3.709,3.707 h -45.774 c -2.04,0 -3.708,-1.667 -3.708,-3.707 v -0.002 c 0,-2.037 1.668,-3.706 3.708,-3.706 M 110.507,0 h 45.775 c 2.04,0 3.709,-1.669 3.709,-3.707 v -0.002 c 0,-2.039 -1.669,-3.708 -3.709,-3.708 h -45.775 c -2.039,0 -3.707,1.669 -3.707,3.708 v 0.002 c 0,2.038 1.668,3.707 3.707,3.707"
         style="fill:#e9f6f2;fill-opacity:1;fill-rule:evenodd;stroke:none"
         transform="matrix(1.3333333,0,0,-1.3333333,483.49613,661.164)"
         clip-path="url(#clipPath57)" />
      <path
         id="path58"
         d="m 132.954,336.069 h 394.605 v 44.072 H 132.954 Z"
         style="fill:#e9f6f2;fill-opacity:1;fill-rule:evenodd;stroke:none"
         transform="matrix(1.3333333,0,0,-1.3333333,0,880)"
         clip-path="url(#clipPath59)" />
      <path
         id="path60"
         d="m 0,0 111.647,-50.717 111.647,-50.717 H 0 -223.291 l 111.647,50.717 z"
         style="fill:#dcf0e8;fill-opacity:1;fill-rule:evenodd;stroke:none"
         transform="matrix(1.3333333,0,0,-1.3333333,440.33987,237.9004)"
         clip-path="url(#clipPath61)" />
      <path
         id="path62"
         d="M 0,0 -143.298,-65.096 H 143.303 Z"
         style="fill:#c7e6da;fill-opacity:1;fill-rule:evenodd;stroke:none"
         transform="matrix(1.3333333,0,0,-1.3333333,440.33987,263.2604)"
         clip-path="url(#clipPath63)" />
      <path
         id="path64"
         d="m 248.408,156.71 h 53.191 v -7.415 h -53.191 z m 110.507,0 h 53.191 v -7.415 h -53.191 z m 110.507,0 h 53.191 v -7.415 H 469.422 Z M 248.408,328.652 h 53.191 v 7.417 h -53.191 z m 110.507,0 h 53.191 v 7.417 h -53.191 z m 110.507,0 h 53.191 v 7.417 h -53.191 z m -331.521,0 h 53.191 v 7.417 h -53.191 z m 0,-171.942 h 53.191 v -7.415 h -53.191 z"
         style="fill:#ffffff;fill-opacity:1;fill-rule:evenodd;stroke:none"
         transform="matrix(1.3333333,0,0,-1.3333333,0,880)"
         clip-path="url(#clipPath65)" />
      <path
         id="path66"
         d="m 0,0 v 0 c 2.04,0 3.711,-1.669 3.711,-3.71 v -130.196 c 0,-2.041 -1.671,-3.71 -3.711,-3.71 -2.042,0 -3.711,1.669 -3.711,3.71 V -3.71 C -3.711,-1.669 -2.042,0 0,0 m 110.507,0 v 0 c 2.042,0 3.711,-1.669 3.711,-3.71 v -130.196 c 0,-2.041 -1.669,-3.71 -3.711,-3.71 -2.041,0 -3.71,1.669 -3.71,3.71 V -3.71 c 0,2.041 1.669,3.71 3.71,3.71 m -16.08,0 v 0 c 2.041,0 3.71,-1.669 3.71,-3.71 v -130.196 c 0,-2.041 -1.669,-3.71 -3.71,-3.71 -2.042,0 -3.713,1.669 -3.713,3.71 V -3.71 c 0,2.041 1.671,3.71 3.713,3.71 m 126.585,0 v 0 c 2.042,0 3.711,-1.669 3.711,-3.71 v -130.196 c 0,-2.041 -1.669,-3.71 -3.711,-3.71 -2.041,0 -3.711,1.669 -3.711,3.71 V -3.71 c 0,2.041 1.67,3.71 3.711,3.71 m -16.08,0 v 0 c 2.041,0 3.71,-1.669 3.71,-3.71 v -130.196 c 0,-2.041 -1.669,-3.71 -3.71,-3.71 -2.042,0 -3.711,1.669 -3.711,3.71 V -3.71 c 0,2.041 1.669,3.71 3.711,3.71 m 126.589,0 v 0 c 2.04,0 3.711,-1.669 3.711,-3.71 v -130.196 c 0,-2.041 -1.671,-3.71 -3.711,-3.71 -2.041,0 -3.712,1.669 -3.712,3.71 V -3.71 c 0,2.041 1.671,3.71 3.712,3.71 m -16.082,0 v 0 c 2.041,0 3.71,-1.669 3.71,-3.71 v -130.196 c 0,-2.041 -1.669,-3.71 -3.71,-3.71 -2.042,0 -3.711,1.669 -3.711,3.71 V -3.71 c 0,2.041 1.669,3.71 3.711,3.71 m -331.52,0 v 0 c 2.041,0 3.711,-1.669 3.711,-3.71 v -130.196 c 0,-2.041 -1.67,-3.71 -3.711,-3.71 -2.042,0 -3.711,1.669 -3.711,3.71 V -3.71 c 0,2.041 1.669,3.71 3.711,3.71"
         style="fill:#e9f6f2;fill-opacity:1;fill-rule:evenodd;stroke:none"
         transform="matrix(1.3333333,0,0,-1.3333333,230.0488,464.67707)"
         clip-path="url(#clipPath67)" />
      <path
         id="path68"
         d="m -0.025,541.085 h 660.561 v 2.475 H -0.025 Z"
         style="fill:#6cbfac;fill-opacity:1;fill-rule:evenodd;stroke:none"
         transform="matrix(1.3333333,0,0,-1.3333333,0,880)"
         clip-path="url(#clipPath69)" />
      <path
         id="path70"
         d="m -0.025,612.06 h 660.561 v 2.474 H -0.025 Z"
         style="fill:#6cbfac;fill-opacity:1;fill-rule:evenodd;stroke:none"
         transform="matrix(1.3333333,0,0,-1.3333333,0,880)"
         clip-path="url(#clipPath71)" />
      <path
         id="path72"
         d="m 0,0 c 2.867,0 5.193,-2.325 5.193,-5.193 0,-2.868 -2.326,-5.192 -5.193,-5.192 -2.868,0 -5.192,2.324 -5.192,5.192 C -5.192,-2.325 -2.868,0 0,0 m -17.473,2.692 c 4.355,0 7.886,-3.529 7.886,-7.885 0,-4.355 -3.531,-7.885 -7.886,-7.885 -4.355,0 -7.885,3.53 -7.885,7.885 0,4.356 3.53,7.885 7.885,7.885"
         style="fill:#6cbfac;fill-opacity:1;fill-rule:evenodd;stroke:none"
         transform="matrix(1.3333333,0,0,-1.3333333,72.576133,104.61973)"
         clip-path="url(#clipPath73)" />
      <path
         id="path74"
         d="m 0,0 c 2.867,0 5.192,-2.324 5.192,-5.192 0,-2.868 -2.325,-5.193 -5.192,-5.193 -2.867,0 -5.194,2.325 -5.194,5.193 C -5.194,-2.324 -2.867,0 0,0 m -17.472,2.693 c 4.353,0 7.884,-3.529 7.884,-7.885 0,-4.355 -3.531,-7.886 -7.884,-7.886 -4.357,0 -7.888,3.531 -7.888,7.886 0,4.356 3.531,7.885 7.888,7.885"
         style="fill:#6cbfac;fill-opacity:1;fill-rule:evenodd;stroke:none"
         transform="matrix(1.3333333,0,0,-1.3333333,398.37107,126.888)"
         clip-path="url(#clipPath75)" />
      <path
         id="path76"
         d="m 0,0 c -5.034,0 -9.112,-4.079 -9.112,-9.113 0,-5.032 4.078,-9.112 9.112,-9.112 5.033,0 9.112,4.08 9.112,9.112 C 9.112,-4.079 5.033,0 0,0 m 30.663,4.726 c -7.642,0 -13.838,-6.196 -13.838,-13.839 0,-7.642 6.196,-13.838 13.838,-13.838 7.643,0 13.84,6.196 13.84,13.838 0,7.643 -6.197,13.839 -13.84,13.839"
         style="fill:#6cbfac;fill-opacity:1;fill-rule:evenodd;stroke:none"
         transform="matrix(1.3333333,0,0,-1.3333333,679.53,82.5924)"
         clip-path="url(#clipPath77)" />
      <path
         id="path78"
         d="m 0,0 c 2.867,0 5.192,-2.325 5.192,-5.192 0,-2.868 -2.325,-5.193 -5.192,-5.193 -2.868,0 -5.192,2.325 -5.192,5.193 C -5.192,-2.325 -2.868,0 0,0 m -17.473,2.693 c 4.355,0 7.886,-3.531 7.886,-7.885 0,-4.356 -3.531,-7.885 -7.886,-7.885 -4.355,0 -7.885,3.529 -7.885,7.885 0,4.354 3.53,7.885 7.885,7.885"
         style="fill:#90d9c8;fill-opacity:1;fill-rule:evenodd;stroke:none"
         transform="matrix(1.3333333,0,0,-1.3333333,116.33333,450.1588)"
         clip-path="url(#clipPath79)" />
      <path
         id="path80"
         d="m 0,0 c -5.369,0 -9.722,-4.355 -9.722,-9.725 0,-5.369 4.353,-9.722 9.722,-9.722 5.372,0 9.725,4.353 9.725,9.722 C 9.725,-4.355 5.372,0 0,0 m 32.722,5.043 c -8.157,0 -14.767,-6.611 -14.767,-14.768 0,-8.156 6.61,-14.768 14.767,-14.768 8.156,0 14.767,6.612 14.767,14.768 0,8.157 -6.611,14.768 -14.767,14.768"
         style="fill:#90d9c8;fill-opacity:1;fill-rule:evenodd;stroke:none"
         transform="matrix(1.3333333,0,0,-1.3333333,772.7044,384.01893)"
         clip-path="url(#clipPath81)" />
    </g>
  </g>
</svg>
