<?xml version="1.0" encoding="UTF-8" standalone="no"?>
<!-- Created with Inkscape (http://www.inkscape.org/) -->

<svg
   version="1.1"
   id="svg1"
   width="880"
   height="880"
   viewBox="0 0 880 880"
   sodipodi:docname="river-in-the-canyon.svg"
   inkscape:version="1.3.2 (091e20e, 2023-11-25, custom)"
   xmlns:inkscape="http://www.inkscape.org/namespaces/inkscape"
   xmlns:sodipodi="http://sodipodi.sourceforge.net/DTD/sodipodi-0.dtd"
   xmlns="http://www.w3.org/2000/svg"
   xmlns:svg="http://www.w3.org/2000/svg">
  <defs
     id="defs1">
    <clipPath
       clipPathUnits="userSpaceOnUse"
       id="clipPath4">
      <path
         d="M 0,660 H 660 V 0 H 0 Z"
         transform="translate(-659.62892,-580.60351)"
         id="path4" />
    </clipPath>
    <clipPath
       clipPathUnits="userSpaceOnUse"
       id="clipPath6">
      <path
         d="M 0,660 H 660 V 0 H 0 Z"
         transform="translate(-659.62892,-430.43801)"
         id="path6" />
    </clipPath>
    <clipPath
       clipPathUnits="userSpaceOnUse"
       id="clipPath8">
      <path
         d="M 0,660 H 660 V 0 H 0 Z"
         transform="translate(-1.0356,-247.24411)"
         id="path8" />
    </clipPath>
    <clipPath
       clipPathUnits="userSpaceOnUse"
       id="clipPath10">
      <path
         d="M 0,660 H 660 V 0 H 0 Z"
         transform="translate(-1.0356,-407.29741)"
         id="path10" />
    </clipPath>
    <clipPath
       clipPathUnits="userSpaceOnUse"
       id="clipPath12">
      <path
         d="M 0,660 H 660 V 0 H 0 Z"
         transform="translate(-1.0356,-330.34421)"
         id="path12" />
    </clipPath>
    <clipPath
       clipPathUnits="userSpaceOnUse"
       id="clipPath14">
      <path
         d="M 0,660 H 660 V 0 H 0 Z"
         transform="translate(-149.7588,-322.65821)"
         id="path14" />
    </clipPath>
    <clipPath
       clipPathUnits="userSpaceOnUse"
       id="clipPath16">
      <path
         d="M 0,660 H 660 V 0 H 0 Z"
         transform="translate(-1.0356,-249.2842)"
         id="path16" />
    </clipPath>
    <clipPath
       clipPathUnits="userSpaceOnUse"
       id="clipPath18">
      <path
         d="M 0,660 H 660 V 0 H 0 Z"
         transform="translate(-1.0356,-142.64061)"
         id="path18" />
    </clipPath>
    <clipPath
       clipPathUnits="userSpaceOnUse"
       id="clipPath20">
      <path
         d="M 0,660 H 660 V 0 H 0 Z"
         transform="translate(-659.62892,-25.732403)"
         id="path20" />
    </clipPath>
    <clipPath
       clipPathUnits="userSpaceOnUse"
       id="clipPath22">
      <path
         d="M 0,660 H 660 V 0 H 0 Z"
         transform="translate(-317.65041,-1.0469025)"
         id="path22" />
    </clipPath>
    <clipPath
       clipPathUnits="userSpaceOnUse"
       id="clipPath24">
      <path
         d="M 0,660 H 660 V 0 H 0 Z"
         transform="translate(-659.62892,-63.757802)"
         id="path24" />
    </clipPath>
    <clipPath
       clipPathUnits="userSpaceOnUse"
       id="clipPath26">
      <path
         d="M 0,660 H 660 V 0 H 0 Z"
         transform="translate(-164.86041,-106.38771)"
         id="path26" />
    </clipPath>
    <clipPath
       clipPathUnits="userSpaceOnUse"
       id="clipPath28">
      <path
         d="M 0,660 H 660 V 0 H 0 Z"
         transform="translate(-488.85451,-40.378899)"
         id="path28" />
    </clipPath>
    <clipPath
       clipPathUnits="userSpaceOnUse"
       id="clipPath30">
      <path
         d="M 0,660 H 660 V 0 H 0 Z"
         transform="translate(-489.32131,-42.081099)"
         id="path30" />
    </clipPath>
    <clipPath
       clipPathUnits="userSpaceOnUse"
       id="clipPath32">
      <path
         d="M 0,660 H 660 V 0 H 0 Z"
         transform="translate(-520.80472,-45.362304)"
         id="path32" />
    </clipPath>
    <clipPath
       clipPathUnits="userSpaceOnUse"
       id="clipPath34">
      <path
         d="M 0,660 H 660 V 0 H 0 Z"
         transform="translate(-104.5464,-57.645504)"
         id="path34" />
    </clipPath>
    <clipPath
       clipPathUnits="userSpaceOnUse"
       id="clipPath36">
      <path
         d="M 0,660 H 660 V 0 H 0 Z"
         transform="translate(-118.897,-54.917004)"
         id="path36" />
    </clipPath>
    <clipPath
       clipPathUnits="userSpaceOnUse"
       id="clipPath38">
      <path
         d="M 0,660 H 660 V 0 H 0 Z"
         transform="translate(-126.5259,-463.93121)"
         id="path38" />
    </clipPath>
  </defs>
  <sodipodi:namedview
     id="namedview1"
     pagecolor="#ffffff"
     bordercolor="#000000"
     borderopacity="0.25"
     inkscape:showpageshadow="2"
     inkscape:pageopacity="0.0"
     inkscape:pagecheckerboard="0"
     inkscape:deskcolor="#d1d1d1"
     inkscape:zoom="0.67272727"
     inkscape:cx="439.25676"
     inkscape:cy="440"
     inkscape:window-width="1440"
     inkscape:window-height="830"
     inkscape:window-x="-6"
     inkscape:window-y="-6"
     inkscape:window-maximized="1"
     inkscape:current-layer="g1">
    <inkscape:page
       x="0"
       y="0"
       inkscape:label="1"
       id="page1"
       width="880"
       height="880"
       margin="1.3958533 0.49466667 0.47733334 1.3795733"
       bleed="0" />
  </sodipodi:namedview>
  <g
     id="g1"
     inkscape:groupmode="layer"
     inkscape:label="1">
    <g
       id="group-MC0">
      <path
         id="path2"
         d="M 1.035,1.048 H 659.629 V 659.642 H 1.035 Z"
         style="fill:#e4f6fc;fill-opacity:1;fill-rule:nonzero;stroke:none"
         transform="matrix(1.3333333,0,0,-1.3333333,0,880)" />
      <path
         id="path3"
         d="m 0,0 v -319.926 l -464.265,103.57 162.709,123.79 c 26.933,20.491 61.264,24.766 91.116,14.422 43.875,-15.204 88.363,-8.815 126.183,18.126 z"
         style="fill:#55493e;fill-opacity:1;fill-rule:evenodd;stroke:none"
         transform="matrix(1.3333333,0,0,-1.3333333,879.5052,105.862)"
         clip-path="url(#clipPath4)" />
      <path
         id="path5"
         d="m 0,0 v -169.76 l -345.638,77.106 c -1.971,4.19 -5.633,9.278 -12.212,16.257 l -1.055,2.092 c 13.051,21.445 117,101.348 167.132,42.518 24.052,-28.224 155.385,83.182 64.713,-46.076 -30.175,-43.015 -14.94,-60.876 31.954,-20.018 C -52.818,-61.04 -42.836,-18.923 0,0"
         style="fill:#3f342c;fill-opacity:1;fill-rule:evenodd;stroke:none"
         transform="matrix(1.3333333,0,0,-1.3333333,879.5052,306.08267)"
         clip-path="url(#clipPath6)" />
      <path
         id="path7"
         d="m 0,0 v 156.325 c 10.964,14.147 28.298,21.634 47.809,18.505 18.383,-2.95 34.835,-14.708 45.849,-30.837 10.695,15.175 28.444,23.377 48.533,20.154 15.061,-2.417 28.806,-10.833 39.249,-22.733 10.85,11.88 26.755,17.928 44.48,15.086 5.981,-0.96 11.756,-2.87 17.199,-5.565 12.22,14.86 30.992,22.622 52.049,19.244 22.293,-3.576 42.027,-18.815 54.133,-39.298 6.247,2.289 13.239,3.011 20.624,1.827 26.462,-4.245 47.915,-31.356 47.915,-60.553 0,-29.197 -21.453,-49.425 -47.915,-45.178 -9.363,1.501 -18.096,5.869 -25.477,12.176 -12.194,-12.798 -29.757,-19.239 -49.28,-16.108 -10.869,1.744 -21.126,6.262 -30.19,12.804 -10.423,-8.435 -24.09,-12.376 -39.058,-9.974 -15.076,2.42 -28.835,10.846 -39.284,22.764 C 175.792,36.77 159.902,30.733 142.191,33.574 124.311,36.443 108.283,47.768 97.433,63.339 87.275,48.544 70.597,40.097 51.508,41.878 44.559,17.062 24.617,0.487 0,0"
         style="fill:#549d34;fill-opacity:1;fill-rule:evenodd;stroke:none"
         transform="matrix(1.3333333,0,0,-1.3333333,1.3808,550.3412)"
         clip-path="url(#clipPath8)" />
      <path
         id="path9"
         d="m 0,0 v -97.357 c 8.642,-9.985 22.305,-16.51 37.685,-16.655 14.49,-0.135 27.458,5.422 36.139,14.283 8.43,-10.597 22.421,-17.611 38.256,-17.758 11.872,-0.112 22.705,3.655 30.938,9.945 8.551,-8.562 21.089,-14.036 35.059,-14.169 4.717,-0.043 9.268,0.525 13.558,1.62 9.631,-10.566 24.43,-17.414 41.028,-17.57 17.571,-0.166 33.126,7.207 42.669,18.664 4.924,-2.096 10.436,-3.296 16.257,-3.352 20.859,-0.195 37.765,14.385 37.765,32.568 0,18.183 -16.906,33.083 -37.765,33.28 -7.381,0.068 -14.266,-1.715 -20.082,-4.85 -9.612,9.28 -23.456,15.175 -38.844,15.32 -8.568,0.081 -16.654,-1.632 -23.799,-4.733 -8.217,6.373 -18.989,10.292 -30.787,10.404 -11.882,0.112 -22.726,-3.662 -30.965,-9.961 -8.546,8.553 -21.072,14.02 -35.032,14.149 C 97.986,-36.04 85.352,-41.37 76.799,-49.904 68.793,-39.599 55.647,-32.548 40.601,-31.611 35.123,-15.409 19.404,-2.944 0,0"
         style="fill:#448733;fill-opacity:1;fill-rule:evenodd;stroke:none"
         transform="matrix(1.3333333,0,0,-1.3333333,1.3808,336.9368)"
         clip-path="url(#clipPath10)" />
      <path
         id="path11"
         d="M 0,0 C 204.243,-52.23 437.789,38.216 658.593,0 V -329.297 H 0 Z"
         style="fill:#6babbe;fill-opacity:1;fill-rule:evenodd;stroke:none"
         transform="matrix(1.3333333,0,0,-1.3333333,1.3808,439.54107)"
         clip-path="url(#clipPath12)" />
      <path
         id="path13"
         d="m 0,0 c 61.626,-0.024 125.773,0.066 189.728,6.591 54.613,5.572 108.867,17.56 163.813,19.287 C 406.283,27.537 461.374,21.567 509.87,7.686 459.081,16.475 405.964,9.484 354.142,7.867 299.681,6.166 244.175,5.839 189.898,0.303 124.998,-6.319 61.508,-18.129 -1.272,-18.036 -52.319,-17.959 -102.699,-13.017 -148.723,7.686 -100.829,-4.562 -49,0.017 0,0"
         style="fill:#a4deea;fill-opacity:1;fill-rule:evenodd;stroke:none"
         transform="matrix(1.3333333,0,0,-1.3333333,199.6784,449.78907)"
         clip-path="url(#clipPath14)" />
      <path
         id="path15"
         d="M 0,0 C 173.671,-113.186 425.047,76.161 658.593,0 V -248.237 H 0 Z"
         style="fill:#63a2b6;fill-opacity:1;fill-rule:evenodd;stroke:none"
         transform="matrix(1.3333333,0,0,-1.3333333,1.3808,547.62107)"
         clip-path="url(#clipPath16)" />
      <path
         id="path17"
         d="M 0,0 C 173.671,-64.56 425.047,43.445 658.593,0 V -141.594 H 0 Z"
         style="fill:#5a9bb0;fill-opacity:1;fill-rule:evenodd;stroke:none"
         transform="matrix(1.3333333,0,0,-1.3333333,1.3808,689.81253)"
         clip-path="url(#clipPath18)" />
      <path
         id="path19"
         d="m 0,0 v -24.686 h -658.593 v 55.923 c 15.101,26.798 -9.88,22.711 34.082,25.281 C -612.474,4.595 -430.643,4.15 -377.607,11.03 -251.887,27.344 -115.98,74.072 0,0"
         style="fill:#5493a9;fill-opacity:1;fill-rule:evenodd;stroke:none"
         transform="matrix(1.3333333,0,0,-1.3333333,879.5052,845.69013)"
         clip-path="url(#clipPath20)" />
      <path
         id="path21"
         d="m 0,0 h -316.615 v 107.197 c 38.586,-7.046 85.954,-19.121 88.543,-35.388 3.822,-24 34.242,7.161 76.07,-39.545 C -128.569,6.096 -53.588,8.774 0,0 M 341.979,116.125 V 0 H 109.424 c 52.682,63.826 114.889,29.38 138.296,62.18 13.292,18.629 49.135,39.592 94.259,53.945"
         style="fill:#55493e;fill-opacity:1;fill-rule:evenodd;stroke:none"
         transform="matrix(1.3333333,0,0,-1.3333333,423.53387,878.60413)"
         clip-path="url(#clipPath22)" />
      <path
         id="path23"
         d="m 0,0 v -62.711 h -187.583 c 35.517,8.123 67.734,14.704 73.269,14.644 81.221,-0.881 -30.496,41.501 48.022,35.722 C -36.281,-14.551 -15.978,-7.775 0,0 m -658.593,-17.659 c 39.022,-0.931 101.534,32.707 80.688,-6.465 -9.165,-17.223 29.957,-8.857 50.045,-19.844 11.217,-6.137 63.296,-8.973 106.41,-18.743 h -237.143 z"
         style="fill:#3f342c;fill-opacity:1;fill-rule:evenodd;stroke:none"
         transform="matrix(1.3333333,0,0,-1.3333333,879.5052,794.9896)"
         clip-path="url(#clipPath24)" />
      <path
         id="path25"
         d="m 0,0 c 3.429,0.112 6.299,-2.575 6.411,-6.002 0.112,-3.43 -2.575,-6.299 -6.002,-6.411 -3.428,-0.111 -6.297,2.575 -6.412,6.003 C -6.114,-2.983 -3.425,-0.113 0,0 m 17.474,20.969 c 4.835,0.157 8.882,-3.633 9.04,-8.468 0.16,-4.833 -3.63,-8.883 -8.463,-9.04 -4.835,-0.157 -8.883,3.633 -9.042,8.466 -0.158,4.835 3.63,8.882 8.465,9.042 M -2.015,41.996 c 3.429,0.112 6.299,-2.575 6.41,-6.004 0.112,-3.43 -2.575,-6.299 -6.002,-6.411 -3.427,-0.112 -6.299,2.575 -6.411,6.005 -0.113,3.427 2.576,6.296 6.003,6.41 M 14.547,66.437 C 20.701,66.639 25.852,61.813 26.054,55.662 26.257,49.51 21.433,44.357 15.281,44.157 9.127,43.953 3.977,48.776 3.773,54.93 3.57,61.084 8.395,66.234 14.547,66.437 M -5.138,98.292 c 3.251,0.106 5.973,-2.444 6.079,-5.695 0.108,-3.253 -2.442,-5.974 -5.693,-6.081 -3.252,-0.108 -5.975,2.442 -6.083,5.693 -0.105,3.253 2.444,5.976 5.697,6.083 m 22.637,38.343 c 6.944,0.228 12.76,-5.217 12.986,-12.16 0.23,-6.944 -5.215,-12.757 -12.161,-12.986 -6.941,-0.228 -12.755,5.215 -12.983,12.16 -0.228,6.944 5.215,12.758 12.158,12.986 m -26.545,41.826 c 4.833,0.157 8.88,-3.633 9.04,-8.468 0.159,-4.833 -3.631,-8.88 -8.465,-9.04 -4.835,-0.157 -8.882,3.633 -9.041,8.468 -0.159,4.833 3.632,8.88 8.466,9.04 m 31.766,2.954 c 5.009,0.164 9.206,-3.763 9.371,-8.772 0.162,-5.011 -3.765,-9.206 -8.774,-9.372 -5.009,-0.164 -9.206,3.766 -9.369,8.775 -0.164,5.009 3.763,9.206 8.772,9.369 M -100.44,72.358 c 5.277,0 9.554,-4.279 9.554,-9.553 0,-5.28 -4.277,-9.554 -9.554,-9.554 -5.277,0 -9.554,4.274 -9.554,9.554 0,5.274 4.277,9.553 9.554,9.553 m -4.458,73.248 c 4.221,0 7.643,-3.422 7.643,-7.644 0,-4.22 -3.422,-7.643 -7.643,-7.643 -4.221,0 -7.643,3.423 -7.643,7.643 0,4.222 3.422,7.644 7.643,7.644 M -80.694,96.56 c 5.277,0 9.554,-4.277 9.554,-9.553 0,-5.277 -4.277,-9.554 -9.554,-9.554 -5.277,0 -9.554,4.277 -9.554,9.554 0,5.276 4.277,9.553 9.554,9.553 M 279.493,-19.362 c 2.287,0 4.141,-1.855 4.141,-4.139 0,-2.287 -1.854,-4.141 -4.141,-4.141 -2.287,0 -4.141,1.854 -4.141,4.141 0,2.284 1.854,4.139 4.141,4.139 m 17.516,34.396 c 7.387,0 13.376,-5.99 13.376,-13.377 0,-7.387 -5.989,-13.376 -13.376,-13.376 -7.387,0 -13.375,5.989 -13.375,13.376 0,7.387 5.988,13.377 13.375,13.377 m -39.172,3.819 c 3.343,0 6.051,-2.708 6.051,-6.049 0,-3.343 -2.708,-6.051 -6.051,-6.051 -3.34,0 -6.05,2.708 -6.05,6.051 0,3.341 2.71,6.049 6.05,6.049 m 7.644,56.051 c 6.157,0 11.147,-4.988 11.147,-11.145 0,-6.157 -4.99,-11.147 -11.147,-11.147 -6.157,0 -11.146,4.99 -11.146,11.147 0,6.157 4.989,11.145 11.146,11.145 m 31.847,38.217 c 3.693,0 6.687,-2.994 6.687,-6.686 0,-3.694 -2.994,-6.687 -6.687,-6.687 -3.694,0 -6.688,2.993 -6.688,6.687 0,3.692 2.994,6.686 6.688,6.686 m 145.221,-11.464 c 4.045,0 7.325,-3.28 7.325,-7.325 0,-4.045 -3.28,-7.325 -7.325,-7.325 -4.045,0 -7.325,3.28 -7.325,7.325 0,4.045 3.28,7.325 7.325,7.325 m -28.343,36.305 c 7.035,0 12.738,-5.704 12.738,-12.738 0,-7.036 -5.703,-12.74 -12.738,-12.74 -7.035,0 -12.738,5.704 -12.738,12.74 0,7.034 5.703,12.738 12.738,12.738 m 37.261,-6.369 c 3.341,0 6.05,-2.71 6.05,-6.053 0,-3.34 -2.709,-6.05 -6.05,-6.05 -3.343,0 -6.051,2.71 -6.051,6.05 0,3.343 2.708,6.053 6.051,6.053 m -10.511,69.426 c 3.519,0 6.37,-2.853 6.37,-6.37 0,-3.516 -2.851,-6.369 -6.37,-6.369 -3.516,0 -6.369,2.853 -6.369,6.369 0,3.517 2.853,6.37 6.369,6.37 M 116.119,-30.19 c 4.221,0 7.644,-3.421 7.644,-7.642 0,-4.222 -3.423,-7.643 -7.644,-7.643 -4.222,0 -7.643,3.421 -7.643,7.643 0,4.221 3.421,7.642 7.643,7.642 m 13.694,99.999 c 4.045,0 7.326,-3.279 7.326,-7.324 0,-4.047 -3.281,-7.325 -7.326,-7.325 -4.047,0 -7.325,3.278 -7.325,7.325 0,4.045 3.278,7.324 7.325,7.324 M 115.482,-8.533 c 4.222,0 7.642,-3.424 7.642,-7.645 0,-4.22 -3.42,-7.642 -7.642,-7.642 -4.221,0 -7.642,3.422 -7.642,7.642 0,4.221 3.421,7.645 7.642,7.645 m 39.49,105.093 c 7.036,0 12.738,-5.703 12.738,-12.736 0,-7.037 -5.702,-12.738 -12.738,-12.738 -7.036,0 -12.739,5.701 -12.739,12.738 0,7.033 5.703,12.736 12.739,12.736 m 124.204,33.123 c 4.22,0 7.642,-3.423 7.642,-7.645 0,-4.221 -3.422,-7.644 -7.642,-7.644 -4.221,0 -7.644,3.423 -7.644,7.644 0,4.222 3.423,7.645 7.644,7.645 M 10.516,-19.41 c 2.198,0.072 4.039,-1.651 4.109,-3.849 0.073,-2.195 -1.65,-4.037 -3.848,-4.109 -2.198,-0.072 -4.039,1.652 -4.109,3.848 -0.073,2.198 1.65,4.037 3.848,4.11"
         style="fill:#a4deea;fill-opacity:1;fill-rule:evenodd;stroke:none"
         transform="matrix(1.3333333,0,0,-1.3333333,219.81387,738.14973)"
         clip-path="url(#clipPath26)" />
      <path
         id="path27"
         d="m 0,0 c 1.279,20.065 22.84,18.266 -8.804,47.177 -6.86,6.265 29.484,12.954 -5.314,56.75 -13.688,17.227 19.08,6.896 9.189,53.994 -5.94,28.298 18.173,23.166 19.637,-0.418 C 16.929,121.693 33.277,151.042 4.335,118.73 -9.465,103.323 26.767,94.933 9.722,58.722 1.778,41.849 43.174,37.72 0.467,1.702 Z"
         style="fill:#547340;fill-opacity:1;fill-rule:evenodd;stroke:none"
         transform="matrix(1.3333333,0,0,-1.3333333,651.806,826.16147)"
         clip-path="url(#clipPath28)" />
      <path
         id="path29"
         d="m 0,0 c 10.196,2.249 44.581,24.422 29.636,48.685 -16.209,26.319 36.507,35.317 2.757,69.99 -12.06,12.392 23.645,33.65 2.821,57.479 -19.15,21.914 -10.085,79.451 17.938,9.198 12.111,-30.358 26.718,-26.887 2.044,-55.11 C 40.428,113.346 78.63,92.361 44.786,68.539 38.06,63.803 61.448,-5.273 -0.705,0.019 Z"
         style="fill:#3a4e2c;fill-opacity:1;fill-rule:evenodd;stroke:none"
         transform="matrix(1.3333333,0,0,-1.3333333,652.4284,823.89187)"
         clip-path="url(#clipPath30)" />
      <path
         id="path31"
         d="m 0,0 c -1.041,16.322 -18.579,14.858 7.161,38.374 5.58,5.099 -23.982,10.539 4.321,46.161 11.136,14.017 -15.519,5.611 -7.474,43.923 4.833,23.019 -14.783,18.845 -15.973,-0.34 -1.807,-29.129 -15.102,-5.257 8.439,-31.54 C 7.698,84.046 -21.772,77.221 -7.91,47.767 -1.449,34.041 -35.118,30.682 -0.379,1.386 Z"
         style="fill:#1a1b15;fill-opacity:1;fill-rule:evenodd;stroke:none"
         transform="matrix(1.3333333,0,0,-1.3333333,694.40627,819.51693)"
         clip-path="url(#clipPath32)" />
      <path
         id="path33"
         d="M 0,0 C 8.391,1.881 35.887,20.397 22.068,40.663 7.078,62.641 50.611,70.156 20.512,99.115 9.754,109.463 38.403,127.217 19.698,147.119 2.497,165.421 6.896,213.474 34.172,154.802 45.96,129.448 57.967,132.347 38.917,108.772 27.516,94.665 60.577,77.14 33.625,57.241 28.27,53.289 51.609,-4.404 -0.59,0.017 Z"
         style="fill:#3a4e2c;fill-opacity:1;fill-rule:evenodd;stroke:none"
         transform="matrix(1.3333333,0,0,-1.3333333,139.3952,803.13933)"
         clip-path="url(#clipPath34)" />
      <path
         id="path35"
         d="m 0,0 c -2.119,16.321 -19.56,14.857 4.628,38.374 5.244,5.098 -24.678,10.538 1.275,46.161 10.21,14.016 -15.89,5.61 -10.375,43.922 3.315,23.019 -16.025,18.845 -15.949,-0.34 0.116,-29.129 -14.758,-5.256 10.519,-31.54 C 2.151,84.046 -26.871,77.22 -11.062,47.766 -3.695,34.04 -37.144,30.682 -0.472,1.385 Z"
         style="fill:#547340;fill-opacity:1;fill-rule:evenodd;stroke:none"
         transform="matrix(1.3333333,0,0,-1.3333333,158.52933,806.77733)"
         clip-path="url(#clipPath36)" />
      <path
         id="path37"
         d="m 0,0 c 48.589,0 88.215,39.628 88.215,88.215 0,48.587 -39.626,88.217 -88.215,88.217 -48.587,0 -88.216,-39.63 -88.216,-88.217 C -88.216,39.628 -48.587,0 0,0"
         style="fill:#ffffff;fill-opacity:1;fill-rule:evenodd;stroke:none"
         transform="matrix(1.3333333,0,0,-1.3333333,168.7012,261.42507)"
         clip-path="url(#clipPath38)" />
    </g>
  </g>
</svg>
