<?xml version="1.0" encoding="UTF-8" standalone="no"?>
<!-- Created with Inkscape (http://www.inkscape.org/) -->

<svg
   version="1.1"
   id="svg1"
   width="880"
   height="880"
   viewBox="0 0 880 880"
   sodipodi:docname="road.barrier.svg"
   inkscape:version="1.3.2 (091e20e, 2023-11-25, custom)"
   xmlns:inkscape="http://www.inkscape.org/namespaces/inkscape"
   xmlns:sodipodi="http://sodipodi.sourceforge.net/DTD/sodipodi-0.dtd"
   xmlns="http://www.w3.org/2000/svg"
   xmlns:svg="http://www.w3.org/2000/svg">
  <defs
     id="defs1">
    <clipPath
       clipPathUnits="userSpaceOnUse"
       id="clipPath4">
      <path
         d="M 0,660 H 660 V 0 H 0 Z"
         transform="translate(-661.99901,-316.33201)"
         id="path4" />
    </clipPath>
    <clipPath
       clipPathUnits="userSpaceOnUse"
       id="clipPath6">
      <path
         d="M 0,660 H 660 V 0 H 0 Z"
         transform="translate(-661.99901,-169.4668)"
         id="path6" />
    </clipPath>
    <clipPath
       clipPathUnits="userSpaceOnUse"
       id="clipPath8">
      <path
         d="M 0,660 H 660 V 0 H 0 Z"
         transform="translate(0,-98.081102)"
         id="path8" />
    </clipPath>
    <clipPath
       clipPathUnits="userSpaceOnUse"
       id="clipPath10">
      <path
         d="M 0,660 H 660 V 0 H 0 Z"
         id="path10" />
    </clipPath>
    <clipPath
       clipPathUnits="userSpaceOnUse"
       id="clipPath12">
      <path
         d="M 0,660 H 660 V 0 H 0 Z"
         id="path12" />
    </clipPath>
    <clipPath
       clipPathUnits="userSpaceOnUse"
       id="clipPath14">
      <path
         d="M 0,660 H 660 V 0 H 0 Z"
         transform="translate(-382.35061,-133.3174)"
         id="path14" />
    </clipPath>
    <clipPath
       clipPathUnits="userSpaceOnUse"
       id="clipPath16">
      <path
         d="M 0,660 H 660 V 0 H 0 Z"
         transform="translate(-238.36131,-112.6953)"
         id="path16" />
    </clipPath>
    <clipPath
       clipPathUnits="userSpaceOnUse"
       id="clipPath18">
      <path
         d="M 0,660 H 660 V 0 H 0 Z"
         transform="translate(-377.18651,-133.3174)"
         id="path18" />
    </clipPath>
    <clipPath
       clipPathUnits="userSpaceOnUse"
       id="clipPath20">
      <path
         d="M 0,660 H 660 V 0 H 0 Z"
         transform="translate(-247.67871,-112.6953)"
         id="path20" />
    </clipPath>
    <clipPath
       clipPathUnits="userSpaceOnUse"
       id="clipPath22">
      <path
         d="M 0,660 H 660 V 0 H 0 Z"
         transform="translate(-209.58691,2.0000026)"
         id="path22" />
    </clipPath>
    <clipPath
       clipPathUnits="userSpaceOnUse"
       id="clipPath24">
      <path
         d="M 0,660 H 660 V 0 H 0 Z"
         transform="translate(-331.99411,-133.3174)"
         id="path24" />
    </clipPath>
    <clipPath
       clipPathUnits="userSpaceOnUse"
       id="clipPath26">
      <path
         d="M 0,660 H 660 V 0 H 0 Z"
         transform="translate(-325.33201,-12.633803)"
         id="path26" />
    </clipPath>
    <clipPath
       clipPathUnits="userSpaceOnUse"
       id="clipPath28">
      <path
         d="M 0,660 H 660 V 0 H 0 Z"
         transform="translate(-29.032701,-660.00002)"
         id="path28" />
    </clipPath>
    <clipPath
       clipPathUnits="userSpaceOnUse"
       id="clipPath30">
      <path
         d="M 0,660 H 660 V 0 H 0 Z"
         transform="translate(-331.00201,-174.4072)"
         id="path30" />
    </clipPath>
    <clipPath
       clipPathUnits="userSpaceOnUse"
       id="clipPath32">
      <path
         d="M 0,660 H 660 V 0 H 0 Z"
         id="path32" />
    </clipPath>
    <clipPath
       clipPathUnits="userSpaceOnUse"
       id="clipPath34">
      <path
         d="M 0,660 H 660 V 0 H 0 Z"
         id="path34" />
    </clipPath>
    <clipPath
       clipPathUnits="userSpaceOnUse"
       id="clipPath36">
      <path
         d="M 0,660 H 660 V 0 H 0 Z"
         id="path36" />
    </clipPath>
    <clipPath
       clipPathUnits="userSpaceOnUse"
       id="clipPath38">
      <path
         d="M 0,660 H 660 V 0 H 0 Z"
         id="path38" />
    </clipPath>
    <clipPath
       clipPathUnits="userSpaceOnUse"
       id="clipPath40">
      <path
         d="M 0,660 H 660 V 0 H 0 Z"
         id="path40" />
    </clipPath>
    <clipPath
       clipPathUnits="userSpaceOnUse"
       id="clipPath42">
      <path
         d="M 0,660 H 660 V 0 H 0 Z"
         transform="translate(-241.28131,-126.7266)"
         id="path42" />
    </clipPath>
    <clipPath
       clipPathUnits="userSpaceOnUse"
       id="clipPath44">
      <path
         d="M 0,660 H 660 V 0 H 0 Z"
         transform="translate(-297.79881,-126.7266)"
         id="path44" />
    </clipPath>
    <clipPath
       clipPathUnits="userSpaceOnUse"
       id="clipPath46">
      <path
         d="M 0,660 H 660 V 0 H 0 Z"
         transform="translate(-354.31641,-126.7266)"
         id="path46" />
    </clipPath>
    <clipPath
       clipPathUnits="userSpaceOnUse"
       id="clipPath48">
      <path
         d="M 0,660 H 660 V 0 H 0 Z"
         transform="translate(-410.83401,-126.7266)"
         id="path48" />
    </clipPath>
  </defs>
  <sodipodi:namedview
     id="namedview1"
     pagecolor="#ffffff"
     bordercolor="#000000"
     borderopacity="0.25"
     inkscape:showpageshadow="2"
     inkscape:pageopacity="0.0"
     inkscape:pagecheckerboard="0"
     inkscape:deskcolor="#d1d1d1"
     inkscape:zoom="0.67272727"
     inkscape:cx="439.25676"
     inkscape:cy="440"
     inkscape:window-width="1440"
     inkscape:window-height="830"
     inkscape:window-x="-6"
     inkscape:window-y="-6"
     inkscape:window-maximized="1"
     inkscape:current-layer="g1">
    <inkscape:page
       x="0"
       y="0"
       inkscape:label="1"
       id="page1"
       width="880"
       height="880"
       margin="0"
       bleed="0" />
  </sodipodi:namedview>
  <g
     id="g1"
     inkscape:groupmode="layer"
     inkscape:label="1">
    <g
       id="group-MC0">
      <path
         id="path2"
         d="M 0,0 H 660 V 660 H 0 Z"
         style="fill:#eff59c;fill-opacity:1;fill-rule:nonzero;stroke:none"
         transform="matrix(1.3333333,0,0,-1.3333333,0,880)" />
      <path
         id="path3"
         d="M 0,0 V 136.714 L -80.244,94.257 c -44.983,-23.797 -64.596,-70.295 -48.07,-113.948 3.374,-8.916 2.264,-17.802 -3.246,-25.904 -5.586,-8.218 -14.136,-13.343 -24.914,-14.93 l -1.101,-0.165 c -15.373,-2.266 -27.635,-9.25 -36.222,-20.632 -8.59,-11.382 -11.11,-23.991 -7.449,-37.247 3.411,-12.356 -2.66,-25.46 -15.643,-32.142 l -62.759,-32.304 h 22.826 l 82.213,21.545 c 10.403,2.726 18.022,8.965 21.821,17.867 2.93,6.863 2.956,13.835 0.148,20.346 -2.157,4.998 -1.873,10.006 0.838,14.791 2.711,4.784 7.094,8.017 12.944,9.543 l 57.509,14.995 c 19.44,5.069 32.964,19.344 35.984,35.875 C -41.206,-25.296 -23.753,-7.35 0,0 m -661.999,0 v 136.714 l 80.247,-42.457 c 44.98,-23.797 64.594,-70.295 48.069,-113.948 -3.376,-8.916 -2.265,-17.802 3.244,-25.904 5.585,-8.218 14.137,-13.343 24.913,-14.93 l 1.104,-0.165 c 15.372,-2.266 27.633,-9.25 36.221,-20.632 8.589,-11.382 11.109,-23.991 7.449,-37.247 -3.412,-12.356 2.66,-25.46 15.643,-32.142 l 62.758,-32.304 h -22.825 l -82.213,21.545 c -10.404,2.726 -18.023,8.965 -21.822,17.867 -2.929,6.863 -2.955,13.835 -0.146,20.346 2.156,4.998 1.872,10.006 -0.839,14.791 -2.711,4.784 -7.094,8.017 -12.945,9.543 l -57.509,14.995 c -19.439,5.069 -32.963,19.344 -35.983,35.875 -4.16,22.757 -21.611,40.703 -45.366,48.053"
         style="fill:#f9fbd5;fill-opacity:1;fill-rule:evenodd;stroke:none"
         transform="matrix(1.3333333,0,0,-1.3333333,882.66533,458.224)"
         clip-path="url(#clipPath4)" />
      <path
         id="path5"
         d="m 0,0 v -76.028 c -6.51,-11.416 -14.863,-18.77 -22.806,-18.77 -9.723,0 -16.192,11.025 -17.38,27.032 -2.167,-0.756 -4.378,-1.165 -6.589,-1.165 -5.503,0 -10.134,2.509 -13.455,6.725 -5.634,-12.247 -14.757,-20.75 -23.608,-20.75 -8.374,0 -14.315,7.609 -16.057,18.803 -1.759,-0.471 -3.567,-0.725 -5.387,-0.725 -4.036,0 -7.574,1.235 -10.349,3.362 -4.725,-15.121 -14.983,-26.425 -24.875,-26.425 -8.573,0 -14.439,8.494 -15.462,20.608 -2.959,-1.615 -6.171,-2.53 -9.409,-2.53 -9.853,0 -16.482,8.461 -15.645,19.349 -4.537,-5.845 -11.327,-9.715 -18.276,-9.715 -10.885,0 -18.039,9.494 -15.979,21.206 2.059,11.714 12.551,21.207 23.438,21.207 9.985,0 16.832,-7.991 16.304,-18.356 4.471,5.985 11.092,9.943 17.828,9.943 4.821,0 8.869,-2.027 11.649,-5.372 5.014,6.93 11.301,11.293 17.443,11.293 6.037,0 10.728,-4.211 13.334,-10.926 4.547,4.94 10.865,8.122 17.341,8.122 2.696,0 5.171,-0.554 7.345,-1.555 5.434,7.987 12.45,13.086 19.305,13.086 5.205,0 9.468,-2.939 12.37,-7.851 5.904,9.733 14.818,16.266 23.706,16.266 4.949,0 9.192,-2.027 12.41,-5.503 5.298,6.376 11.222,10.179 16.93,10.179 C -3.754,1.51 -1.788,0.983 0,0"
         style="fill:#638329;fill-opacity:1;fill-rule:evenodd;stroke:none"
         transform="matrix(1.3333333,0,0,-1.3333333,882.66533,654.04427)"
         clip-path="url(#clipPath6)" />
      <path
         id="path7"
         d="M 0,0 V 81.49 C 9.247,80.2 19.405,69.579 26.747,54.588 c 1.852,0.759 3.895,1.165 6.107,1.165 5.502,0 11.175,-2.506 16.247,-6.725 0.545,12.248 6.134,20.75 14.985,20.75 8.374,0 17.478,-7.609 23.869,-18.801 1.565,0.47 3.268,0.724 5.088,0.724 4.035,0 8.088,-1.236 11.746,-3.36 -1.56,15.119 4.003,26.425 13.893,26.425 8.574,0 17.969,-8.496 24.026,-20.608 2.288,1.613 5.12,2.528 8.359,2.528 9.854,0 19.997,-8.461 23.684,-19.349 2.108,5.847 7.289,9.717 14.238,9.717 10.885,0 21.986,-9.495 24.794,-21.208 2.808,-11.713 -3.74,-21.207 -14.625,-21.207 -9.986,0 -20.153,7.991 -23.932,18.355 -1.983,-5.981 -6.959,-9.94 -13.698,-9.94 -4.821,0 -9.712,2.027 -13.881,5.371 -2.134,-6.93 -6.607,-11.294 -12.751,-11.294 -6.035,0 -12.476,4.212 -17.874,10.929 -2.493,-4.941 -7.49,-8.123 -13.966,-8.123 -2.696,0 -5.401,0.552 -7.991,1.552 -2.114,-7.986 -7.011,-13.086 -13.866,-13.086 -5.205,0 -10.69,2.941 -15.632,7.851 -1.861,-9.73 -8.059,-16.266 -16.947,-16.266 -4.949,0 -10.034,2.028 -14.698,5.503 -2.648,-6.375 -6.99,-10.178 -12.699,-10.178 C 14.274,-14.687 6.647,-9.054 0,0"
         style="fill:#638329;fill-opacity:1;fill-rule:evenodd;stroke:none"
         transform="matrix(1.3333333,0,0,-1.3333333,0,749.2252)"
         clip-path="url(#clipPath8)" />
      <path
         id="path9"
         d="M 0,-2 H 661.999 V 133.317 H 0 Z"
         style="fill:#87b027;fill-opacity:1;fill-rule:evenodd;stroke:none"
         transform="matrix(1.3333333,0,0,-1.3333333,0,880)"
         clip-path="url(#clipPath10)" />
      <path
         id="path11"
         d="M 0,-2 H 661.999 V 112.695 H 0 Z"
         style="fill:#769a2a;fill-opacity:1;fill-rule:evenodd;stroke:none"
         transform="matrix(1.3333333,0,0,-1.3333333,0,880)"
         clip-path="url(#clipPath12)" />
      <path
         id="path13"
         d="m 0,0 h -102.703 l -109.785,-54.836 -161.137,-80.481 h 644.548 l -161.136,80.481 z"
         style="fill:#fab40a;fill-opacity:1;fill-rule:evenodd;stroke:none"
         transform="matrix(1.3333333,0,0,-1.3333333,509.8008,702.24347)"
         clip-path="url(#clipPath14)" />
      <path
         id="path15"
         d="m 0,0 -68.499,-34.214 -161.137,-80.481 H 414.912 L 253.776,-34.214 185.278,0 Z"
         style="fill:#f39c0f;fill-opacity:1;fill-rule:evenodd;stroke:none"
         transform="matrix(1.3333333,0,0,-1.3333333,317.81507,729.7396)"
         clip-path="url(#clipPath16)" />
      <path
         id="path17"
         d="m 0,0 h -92.374 l -98.742,-54.836 -144.93,-80.481 h 579.718 l -144.93,80.481 z"
         style="fill:#41311b;fill-opacity:1;fill-rule:evenodd;stroke:none"
         transform="matrix(1.3333333,0,0,-1.3333333,502.91533,702.24347)"
         clip-path="url(#clipPath18)" />
      <path
         id="path19"
         d="m 0,0 -61.608,-34.214 -144.93,-80.481 H 373.18 L 228.25,-34.214 166.644,0 Z"
         style="fill:#322617;fill-opacity:1;fill-rule:evenodd;stroke:none"
         transform="matrix(1.3333333,0,0,-1.3333333,330.23827,729.7396)"
         clip-path="url(#clipPath20)" />
      <path
         id="path21"
         d="m 0,0 h 36.339 c 1.057,1.664 2.092,3.3 3.104,4.896 h 1.888 38.639 30.516 38.641 30.516 23.824 C 204.398,3.3 205.353,1.668 206.326,0 h 36.368 c -1.408,1.668 -2.786,3.304 -4.133,4.896 h 10.211 14.872 c -1.781,1.729 -3.513,3.41 -5.204,5.049 -1.645,1.601 -3.254,3.161 -4.827,4.689 h -23.27 c -1.883,2.232 -3.701,4.387 -5.456,6.468 -1.693,2.006 -3.332,3.946 -4.919,5.827 h 12.106 c -0.828,0.87 -1.648,1.733 -2.456,2.581 h -52.361 c 0.405,-0.848 0.815,-1.711 1.229,-2.581 h 12.128 c 1.096,-1.877 2.231,-3.824 3.402,-5.827 1.213,-2.082 2.468,-4.236 3.771,-6.468 H 190.066 154.22 125.936 90.065 61.779 45.62 c 1.416,2.234 2.782,4.387 4.1,6.468 1.274,2.008 2.507,3.95 3.696,5.829 h 10.695 c 0.469,0.871 0.932,1.731 1.388,2.579 H 13.113 C 12.254,28.662 11.381,27.802 10.499,26.931 H 24.087 C 22.409,25.052 20.67,23.11 18.873,21.102 17.013,19.021 15.086,16.868 13.091,14.634 h -15.469 -9.34 c -1.669,-1.528 -3.376,-3.088 -5.125,-4.689 -1.794,-1.641 -3.631,-3.322 -5.52,-5.049 H 4.379 C 2.951,3.3 1.49,1.664 0,0"
         style="fill:#110f0d;fill-opacity:1;fill-rule:evenodd;stroke:none"
         transform="matrix(1.3333333,0,0,-1.3333333,279.4492,882.66667)"
         clip-path="url(#clipPath22)" />
      <path
         id="path23"
         d="M 0,0 H -1.987 L -4.113,-54.836 -7.23,-135.317 H 5.241 l -3.117,80.481 z"
         style="fill:#f39c0f;fill-opacity:1;fill-rule:evenodd;stroke:none"
         transform="matrix(1.3333333,0,0,-1.3333333,442.6588,702.24347)"
         clip-path="url(#clipPath24)" />
      <path
         id="path25"
         d="M 0,0 -0.377,-9.737 H 11.714 L 11.337,0 H 10.19 Z"
         style="fill:#a2661d;fill-opacity:1;fill-rule:evenodd;stroke:none"
         transform="matrix(1.3333333,0,0,-1.3333333,433.776,863.15493)"
         clip-path="url(#clipPath26)" />
      <path
         id="path27"
         d="m 0,0 h 255.878 l -33.09,-16.156 c -18.55,-9.057 -29.944,-23.11 -32.929,-40.608 -2.985,-17.5 3.275,-33.566 18.088,-46.429 9.519,-8.265 16.442,-18.341 20.614,-30.076 7.351,-20.67 4.125,-40.733 -9.511,-59.146 l -4.363,-5.891 c -8.107,-10.948 -10.286,-22.745 -6.494,-35.163 3.791,-12.417 12.496,-21.991 25.945,-28.537 29.556,-14.384 64.819,-17.209 96.888,-8.076 27.535,7.841 42.379,32.334 33.333,55 l -2.559,6.415 c -13.388,33.549 4.658,69.409 43.042,85.534 l 31.456,13.215 c 20.271,8.517 33.142,23.113 36.619,41.532 3.479,18.418 -3.406,35.511 -19.59,48.631 L 428.958,0 h 176.54 l -2.567,-13.422 c -8.007,-41.876 -37.367,-75.029 -83.519,-94.311 l -71.467,-29.856 c -35.248,-14.726 -53.565,-45.651 -45.842,-77.399 l 2.476,-10.18 c 4.665,-19.185 -6.079,-37.855 -27.134,-47.139 l -31.468,-13.877 c -38.514,-16.983 -82.113,-15.54 -118.822,3.933 l -38.426,20.384 c -23.668,12.555 -32.334,37.039 -20.717,57.917 19.901,35.77 2.355,77.891 -40.111,96.282 L 59.615,-78.093 C 24.759,-62.996 3.522,-36.556 0.424,-4.398 Z"
         style="fill:#f9fbd5;fill-opacity:1;fill-rule:evenodd;stroke:none"
         transform="matrix(1.3333333,0,0,-1.3333333,38.710267,0)"
         clip-path="url(#clipPath28)" />
      <path
         id="path29"
         d="m 0,0 c 40.854,0 74.177,33.323 74.177,74.18 0,40.856 -33.323,74.178 -74.177,74.178 -40.858,0 -74.181,-33.322 -74.181,-74.178 C -74.181,33.323 -40.858,0 0,0"
         style="fill:#ffffff;fill-opacity:1;fill-rule:evenodd;stroke:none"
         transform="matrix(1.3333333,0,0,-1.3333333,441.336,647.45707)"
         clip-path="url(#clipPath30)" />
      <path
         id="path31"
         d="m 236.004,35.409 h 28.674 v 106.899 h -28.674 z"
         style="fill:#d7c9c4;fill-opacity:1;fill-rule:evenodd;stroke:none"
         transform="matrix(1.3333333,0,0,-1.3333333,0,880)"
         clip-path="url(#clipPath32)" />
      <path
         id="path33"
         d="m 398.734,35.409 h 28.674 v 106.899 h -28.674 z"
         style="fill:#d7c9c4;fill-opacity:1;fill-rule:evenodd;stroke:none"
         transform="matrix(1.3333333,0,0,-1.3333333,0,880)"
         clip-path="url(#clipPath34)" />
      <path
         id="path35"
         d="m 386.891,27.51 h 52.361 v 12.414 h -52.361 z"
         style="fill:#b2a29e;fill-opacity:1;fill-rule:evenodd;stroke:none"
         transform="matrix(1.3333333,0,0,-1.3333333,0,880)"
         clip-path="url(#clipPath36)" />
      <path
         id="path37"
         d="m 222.746,27.51 h 52.362 v 12.414 h -52.362 z"
         style="fill:#b2a29e;fill-opacity:1;fill-rule:evenodd;stroke:none"
         transform="matrix(1.3333333,0,0,-1.3333333,0,880)"
         clip-path="url(#clipPath38)" />
      <path
         id="path39"
         d="m 214.121,92.13 h 233.757 v 34.597 H 214.121 Z"
         style="fill:#ffffff;fill-opacity:1;fill-rule:evenodd;stroke:none"
         transform="matrix(1.3333333,0,0,-1.3333333,0,880)"
         clip-path="url(#clipPath40)" />
      <path
         id="path41"
         d="M 0,0 H 24.935 L 6.037,-34.597 h -24.933 z"
         style="fill:#cc2d23;fill-opacity:1;fill-rule:evenodd;stroke:none"
         transform="matrix(1.3333333,0,0,-1.3333333,321.7084,711.0312)"
         clip-path="url(#clipPath42)" />
      <path
         id="path43"
         d="M 0,0 H 24.936 C 18.636,-11.531 12.337,-23.064 6.037,-34.597 H -18.897 C -12.597,-23.064 -6.299,-11.531 0,0"
         style="fill:#cc2d23;fill-opacity:1;fill-rule:evenodd;stroke:none"
         transform="matrix(1.3333333,0,0,-1.3333333,397.06507,711.0312)"
         clip-path="url(#clipPath44)" />
      <path
         id="path45"
         d="M 0,0 H 24.934 C 18.636,-11.531 12.337,-23.064 6.039,-34.597 H -18.895 C -12.597,-23.064 -6.299,-11.531 0,0"
         style="fill:#cc2d23;fill-opacity:1;fill-rule:evenodd;stroke:none"
         transform="matrix(1.3333333,0,0,-1.3333333,472.42187,711.0312)"
         clip-path="url(#clipPath46)" />
      <path
         id="path47"
         d="M 0,0 H 24.934 L 6.037,-34.597 h -24.935 z"
         style="fill:#cc2d23;fill-opacity:1;fill-rule:evenodd;stroke:none"
         transform="matrix(1.3333333,0,0,-1.3333333,547.77867,711.0312)"
         clip-path="url(#clipPath48)" />
    </g>
  </g>
</svg>
