<?xml version="1.0" encoding="UTF-8" standalone="no"?>
<!-- Created with Inkscape (http://www.inkscape.org/) -->

<svg
   version="1.1"
   id="svg1"
   width="880"
   height="880"
   viewBox="0 0 880 880"
   sodipodi:docname="highway-in-the-desert.svg"
   inkscape:version="1.3.2 (091e20e, 2023-11-25, custom)"
   xmlns:inkscape="http://www.inkscape.org/namespaces/inkscape"
   xmlns:sodipodi="http://sodipodi.sourceforge.net/DTD/sodipodi-0.dtd"
   xmlns="http://www.w3.org/2000/svg"
   xmlns:svg="http://www.w3.org/2000/svg">
  <defs
     id="defs1">
    <clipPath
       clipPathUnits="userSpaceOnUse"
       id="clipPath9">
      <path
         d="M 0,660 H 660 V 0 H 0 Z"
         transform="translate(-262.3252,-370.96921)"
         id="path9" />
    </clipPath>
    <clipPath
       clipPathUnits="userSpaceOnUse"
       id="clipPath11">
      <path
         d="M 0,660 H 660 V 0 H 0 Z"
         transform="translate(-660.53612,-409.29791)"
         id="path11" />
    </clipPath>
    <clipPath
       clipPathUnits="userSpaceOnUse"
       id="clipPath13">
      <path
         d="M 0,660 H 660 V 0 H 0 Z"
         id="path13" />
    </clipPath>
    <clipPath
       clipPathUnits="userSpaceOnUse"
       id="clipPath15">
      <path
         d="M 0,660 H 660 V 0 H 0 Z"
         id="path15" />
    </clipPath>
    <clipPath
       clipPathUnits="userSpaceOnUse"
       id="clipPath17">
      <path
         d="M 0,660 H 660 V 0 H 0 Z"
         transform="translate(0.41940001,0.80960252)"
         id="path17" />
    </clipPath>
    <clipPath
       clipPathUnits="userSpaceOnUse"
       id="clipPath19">
      <path
         d="M 0,660 H 660 V 0 H 0 Z"
         transform="translate(-27.641601,0.80960252)"
         id="path19" />
    </clipPath>
    <clipPath
       clipPathUnits="userSpaceOnUse"
       id="clipPath21">
      <path
         d="M 0,660 H 660 V 0 H 0 Z"
         transform="translate(-316.02641,0.80960252)"
         id="path21" />
    </clipPath>
    <clipPath
       clipPathUnits="userSpaceOnUse"
       id="clipPath23">
      <path
         d="M 0,660 H 660 V 0 H 0 Z"
         transform="translate(-272.356,-206.66991)"
         id="path23" />
    </clipPath>
    <clipPath
       clipPathUnits="userSpaceOnUse"
       id="clipPath25">
      <path
         d="M 0,660 H 660 V 0 H 0 Z"
         transform="translate(-277.23541,-206.66991)"
         id="path25" />
    </clipPath>
    <clipPath
       clipPathUnits="userSpaceOnUse"
       id="clipPath27">
      <path
         d="M 0,660 H 660 V 0 H 0 Z"
         transform="translate(-327.98391,-206.66991)"
         id="path27" />
    </clipPath>
    <clipPath
       clipPathUnits="userSpaceOnUse"
       id="clipPath29">
      <path
         d="M 0,660 H 660 V 0 H 0 Z"
         transform="translate(-299.56051,-313.27441)"
         id="path29" />
    </clipPath>
    <clipPath
       clipPathUnits="userSpaceOnUse"
       id="clipPath31">
      <path
         d="M 0,660 H 660 V 0 H 0 Z"
         transform="translate(-302.14011,-313.27441)"
         id="path31" />
    </clipPath>
    <clipPath
       clipPathUnits="userSpaceOnUse"
       id="clipPath33">
      <path
         d="M 0,660 H 660 V 0 H 0 Z"
         transform="translate(-328.96241,-313.27441)"
         id="path33" />
    </clipPath>
    <clipPath
       clipPathUnits="userSpaceOnUse"
       id="clipPath35">
      <path
         d="M 0,660 H 660 V 0 H 0 Z"
         transform="translate(-366.50491,-370.96921)"
         id="path35" />
    </clipPath>
    <clipPath
       clipPathUnits="userSpaceOnUse"
       id="clipPath37">
      <path
         d="M 0,660 H 660 V 0 H 0 Z"
         transform="translate(-330.05811,-422.44731)"
         id="path37" />
    </clipPath>
    <clipPath
       clipPathUnits="userSpaceOnUse"
       id="clipPath39">
      <path
         d="M 0,660 H 660 V 0 H 0 Z"
         transform="translate(-441.52731,-565.88531)"
         id="path39" />
    </clipPath>
    <clipPath
       clipPathUnits="userSpaceOnUse"
       id="clipPath41">
      <path
         d="M 0,660 H 660 V 0 H 0 Z"
         transform="translate(-188.4541,-495.92291)"
         id="path41" />
    </clipPath>
    <clipPath
       clipPathUnits="userSpaceOnUse"
       id="clipPath43">
      <path
         d="M 0,660 H 660 V 0 H 0 Z"
         transform="translate(-82.1953,-585.22411)"
         id="path43" />
    </clipPath>
    <clipPath
       clipPathUnits="userSpaceOnUse"
       id="clipPath45">
      <path
         d="M 0,660 H 660 V 0 H 0 Z"
         transform="translate(-523.10351,-612.66022)"
         id="path45" />
    </clipPath>
    <clipPath
       clipPathUnits="userSpaceOnUse"
       id="clipPath47">
      <path
         d="M 0,660 H 660 V 0 H 0 Z"
         transform="translate(-18.994101,-477.16651)"
         id="path47" />
    </clipPath>
    <clipPath
       clipPathUnits="userSpaceOnUse"
       id="clipPath49">
      <path
         d="M 0,660 H 660 V 0 H 0 Z"
         transform="translate(-596.39161,-475.84381)"
         id="path49" />
    </clipPath>
  </defs>
  <sodipodi:namedview
     id="namedview1"
     pagecolor="#ffffff"
     bordercolor="#000000"
     borderopacity="0.25"
     inkscape:showpageshadow="2"
     inkscape:pageopacity="0.0"
     inkscape:pagecheckerboard="0"
     inkscape:deskcolor="#d1d1d1"
     inkscape:zoom="0.67272727"
     inkscape:cx="439.25676"
     inkscape:cy="440"
     inkscape:window-width="1440"
     inkscape:window-height="830"
     inkscape:window-x="-6"
     inkscape:window-y="-6"
     inkscape:window-maximized="1"
     inkscape:current-layer="g1">
    <inkscape:page
       x="0"
       y="0"
       inkscape:label="1"
       id="page1"
       width="880"
       height="880"
       margin="0"
       bleed="0" />
  </sodipodi:namedview>
  <g
     id="g1"
     inkscape:groupmode="layer"
     inkscape:label="1">
    <g
       id="group-MC0">
      <path
         id="path2"
         d="M 0,0 H 660 V 660 H 0 Z"
         style="fill:#d7a220;fill-opacity:1;fill-rule:nonzero;stroke:none"
         transform="matrix(1.3333333,0,0,-1.3333333,0,880)" />
      <path
         id="path3"
         d="m 0,370.969 h 660 v 289.03 H 0 Z"
         style="fill:#f6f8b6;fill-opacity:1;fill-rule:nonzero;stroke:none"
         transform="matrix(1.3333333,0,0,-1.3333333,0,880)" />
      <path
         id="path4"
         d="m 0,613.727 h 660 v 1.953 H 0 Z"
         style="fill:#fdfde0;fill-opacity:1;fill-rule:nonzero;stroke:none"
         transform="matrix(1.3333333,0,0,-1.3333333,0,880)" />
      <path
         id="path5"
         d="m 0,480.027 h 660 v 1.952 H 0 Z"
         style="fill:#fdfde0;fill-opacity:1;fill-rule:nonzero;stroke:none"
         transform="matrix(1.3333333,0,0,-1.3333333,0,880)" />
      <path
         id="path6"
         d="m 0,453.677 h 660 v 1.952 H 0 Z"
         style="fill:#fdfde0;fill-opacity:1;fill-rule:nonzero;stroke:none"
         transform="matrix(1.3333333,0,0,-1.3333333,0,880)" />
      <path
         id="path7"
         d="m 0,442.453 h 660 v 1.952 H 0 Z"
         style="fill:#fdfde0;fill-opacity:1;fill-rule:nonzero;stroke:none"
         transform="matrix(1.3333333,0,0,-1.3333333,0,880)" />
      <path
         id="path8"
         d="m 0,0 h -262.745 v 37.083 l 17.073,11.458 c 55.121,36.992 118.22,36.992 173.342,0 z"
         style="fill:#f9bd66;fill-opacity:1;fill-rule:evenodd;stroke:none"
         transform="matrix(1.3333333,0,0,-1.3333333,349.76693,385.3744)"
         clip-path="url(#clipPath9)" />
      <path
         id="path10"
         d="m 0,0 v -38.329 h -277.212 l 71.057,41.023 c 64.071,36.992 137.417,36.992 201.49,0 z"
         style="fill:#f9bd66;fill-opacity:1;fill-rule:evenodd;stroke:none"
         transform="matrix(1.3333333,0,0,-1.3333333,880.7148,334.26947)"
         clip-path="url(#clipPath11)" />
      <path
         id="path12"
         d="m -0.42,313.276 h 660.956 v 57.693 H -0.42 Z"
         style="fill:#e3ac27;fill-opacity:1;fill-rule:evenodd;stroke:none"
         transform="matrix(1.3333333,0,0,-1.3333333,0,880)"
         clip-path="url(#clipPath13)" />
      <path
         id="path14"
         d="M -0.42,-0.81 H 660.536 V 206.669 H -0.42 Z"
         style="fill:#ca9619;fill-opacity:1;fill-rule:evenodd;stroke:none"
         transform="matrix(1.3333333,0,0,-1.3333333,0,880)"
         clip-path="url(#clipPath15)" />
      <path
         id="path16"
         d="m 0,0 c 56.75,57.218 141.874,56.15 198.876,102.446 40.058,32.536 55.421,105.033 66.097,105.033 h 131.011 c 10.674,0 26.037,-72.497 66.097,-105.033 C 519.082,56.15 604.207,57.218 660.955,0 Z"
         style="fill:#deee85;fill-opacity:1;fill-rule:evenodd;stroke:none"
         transform="matrix(1.3333333,0,0,-1.3333333,-0.5592,881.07947)"
         clip-path="url(#clipPath17)" />
      <path
         id="path18"
         d="m 0,0 c 51.932,57.218 129.827,56.15 181.989,102.446 36.658,32.536 50.715,105.033 60.484,105.033 H 362.36 c 9.769,0 23.828,-72.497 60.486,-105.033 C 475.006,56.15 552.902,57.218 604.834,0 Z"
         style="fill:#394019;fill-opacity:1;fill-rule:evenodd;stroke:none"
         transform="matrix(1.3333333,0,0,-1.3333333,36.855467,881.07947)"
         clip-path="url(#clipPath19)" />
      <path
         id="path20"
         d="m 0,0 c 2.41,57.218 6.023,56.15 8.444,102.446 1.701,32.536 2.354,105.033 2.808,105.033 h 5.561 c 0.453,0 1.106,-72.497 2.807,-105.033 C 22.041,56.15 25.654,57.218 28.063,0 Z"
         style="fill:#f39c0f;fill-opacity:1;fill-rule:evenodd;stroke:none"
         transform="matrix(1.3333333,0,0,-1.3333333,421.36853,881.07947)"
         clip-path="url(#clipPath21)" />
      <path
         id="path22"
         d="m 0,0 c 10.193,30.51 11.695,106.604 20.009,106.604 h 75.386 c 8.314,0 9.816,-76.094 20.01,-106.604 z"
         style="fill:#eaf4a2;fill-opacity:1;fill-rule:evenodd;stroke:none"
         transform="matrix(1.3333333,0,0,-1.3333333,363.14133,604.44013)"
         clip-path="url(#clipPath23)" />
      <path
         id="path24"
         d="M 0,0 C 9.331,30.51 10.708,106.604 18.316,106.604 H 87.33 c 7.609,0 8.987,-76.094 18.317,-106.604 z"
         style="fill:#49522a;fill-opacity:1;fill-rule:evenodd;stroke:none"
         transform="matrix(1.3333333,0,0,-1.3333333,369.6472,604.44013)"
         clip-path="url(#clipPath25)" />
      <path
         id="path26"
         d="M 0,0 C 0.367,30.51 0.422,106.604 0.721,106.604 H 3.429 C 3.728,106.604 3.784,30.51 4.149,0 Z"
         style="fill:#faba38;fill-opacity:1;fill-rule:evenodd;stroke:none"
         transform="matrix(1.3333333,0,0,-1.3333333,437.31187,604.44013)"
         clip-path="url(#clipPath27)" />
      <path
         id="path28"
         d="M 0,0 C 5.388,16.514 6.182,57.695 10.576,57.695 H 50.42 c 4.395,0 5.189,-41.181 10.575,-57.695 z"
         style="fill:#f6f9c8;fill-opacity:1;fill-rule:evenodd;stroke:none"
         transform="matrix(1.3333333,0,0,-1.3333333,399.414,462.3008)"
         clip-path="url(#clipPath29)" />
      <path
         id="path30"
         d="m 0,0 c 4.931,16.514 5.658,57.695 9.68,57.695 h 36.477 c 4.021,0 4.749,-41.181 9.68,-57.695 z"
         style="fill:#768352;fill-opacity:1;fill-rule:evenodd;stroke:none"
         transform="matrix(1.3333333,0,0,-1.3333333,402.85347,462.3008)"
         clip-path="url(#clipPath31)" />
      <path
         id="path32"
         d="M 0,0 C 0.194,16.514 0.222,57.695 0.381,57.695 H 1.812 C 1.97,57.695 1.998,16.514 2.192,0 Z"
         style="fill:#fccf6a;fill-opacity:1;fill-rule:evenodd;stroke:none"
         transform="matrix(1.3333333,0,0,-1.3333333,438.61653,462.3008)"
         clip-path="url(#clipPath33)" />
      <path
         id="path34"
         d="m 0,0 26.433,15.261 c 19.855,11.463 40.866,14.518 63.165,9.186 16.304,-3.898 33.293,-1.568 48.78,6.991 22.571,12.475 46.705,14.691 71.172,6.54 27.176,-9.054 56.173,-6.082 82.154,8.919 l 2.327,1.343 V 0 Z m -366.924,22.932 0.886,-0.512 c 13.821,-7.978 29.476,-8.292 43.604,-0.872 37,19.43 78.667,18.571 115.266,-2.544 l 0.696,-0.4 c 12.609,-7.282 25.901,-9.309 40.107,-6.122 9.218,2.068 18.801,0.591 27.496,-4.429 L -124.92,0 h -242.004 z"
         style="fill:#c68132;fill-opacity:1;fill-rule:evenodd;stroke:none"
         transform="matrix(1.3333333,0,0,-1.3333333,488.6732,385.3744)"
         clip-path="url(#clipPath35)" />
      <path
         id="path36"
         d="m 0,0 c 50.259,0 91.25,40.991 91.25,91.249 0,50.257 -40.991,91.249 -91.25,91.249 -50.257,0 -91.248,-40.992 -91.248,-91.249 C -91.248,40.991 -50.257,0 0,0"
         style="fill:#f9bd66;fill-opacity:1;fill-rule:evenodd;stroke:none"
         transform="matrix(1.3333333,0,0,-1.3333333,440.07747,316.73693)"
         clip-path="url(#clipPath37)" />
      <path
         id="path38"
         d="m 0,0 c 1.905,0 3.712,-0.425 5.33,-1.184 4.087,7.728 12.207,12.995 21.56,12.995 7.159,0 13.596,-3.086 18.057,-8.001 3.927,3.566 9.14,5.739 14.863,5.739 6.581,0 12.488,-2.875 16.539,-7.436 4.411,5.743 11.344,9.446 19.144,9.446 7.077,0 13.442,-3.046 17.855,-7.899 1.435,0.398 2.949,0.612 4.512,0.612 8.575,0 15.653,-6.41 16.702,-14.7 l 20.489,-2.137 -20.489,-2.137 c -1.049,-8.29 -8.127,-14.7 -16.702,-14.7 -1.563,0 -3.077,0.214 -4.512,0.613 -4.413,-4.854 -10.778,-7.901 -17.855,-7.901 -7.8,0 -14.733,3.704 -19.144,9.447 -4.051,-4.561 -9.958,-7.436 -16.539,-7.436 -5.723,0 -10.936,2.174 -14.863,5.739 -4.461,-4.914 -10.898,-8.001 -18.057,-8.001 -9.353,0 -17.473,5.267 -21.56,12.996 -1.618,-0.76 -3.425,-1.184 -5.33,-1.184 -6.21,0 -11.365,4.503 -12.382,10.422 l -20.537,2.142 20.537,2.142 C -11.365,-4.504 -6.21,0 0,0"
         style="fill:#ffffff;fill-opacity:1;fill-rule:evenodd;stroke:none"
         transform="matrix(1.3333333,0,0,-1.3333333,588.70307,125.48627)"
         clip-path="url(#clipPath39)" />
      <path
         id="path40"
         d="m 0,0 c 3.936,0 7.537,-1.431 10.313,-3.8 4.053,6.535 11.29,10.888 19.546,10.888 7.653,0 14.433,-3.742 18.61,-9.495 1.377,0.446 2.846,0.688 4.375,0.688 6.989,0 12.799,-5.06 13.962,-11.718 l 16.538,-2.459 -16.538,-2.459 c -1.163,-6.658 -6.973,-11.718 -13.962,-11.718 -1.529,0 -2.998,0.241 -4.375,0.689 -4.177,-5.754 -10.957,-9.496 -18.61,-9.496 -8.256,0 -15.493,4.353 -19.546,10.888 -2.776,-2.369 -6.377,-3.8 -10.313,-3.8 -7.943,0 -14.525,5.828 -15.706,13.44 l -16.515,2.456 16.515,2.456 C -14.525,-5.827 -7.943,0 0,0"
         style="fill:#ffffff;fill-opacity:1;fill-rule:evenodd;stroke:none"
         transform="matrix(1.3333333,0,0,-1.3333333,251.27213,218.76947)"
         clip-path="url(#clipPath41)" />
      <path
         id="path42"
         d="M 0,0 C 5.126,0 9.723,-2.262 12.85,-5.841 16.792,1.246 24.355,6.04 33.04,6.04 c 8.069,0 15.171,-4.139 19.299,-10.41 0.544,0.07 1.099,0.107 1.662,0.107 3.23,0 6.181,-1.198 8.433,-3.174 2.559,2.72 6.19,4.418 10.219,4.418 6.989,0 12.783,-5.109 13.855,-11.796 l 16.521,-2.237 -16.521,-2.237 c -1.072,-6.688 -6.866,-11.796 -13.855,-11.796 -4.029,0 -7.66,1.698 -10.219,4.417 -2.252,-1.976 -5.203,-3.174 -8.433,-3.174 -0.563,0 -1.118,0.036 -1.662,0.107 -4.128,-6.27 -11.23,-10.409 -19.299,-10.409 -8.685,0 -16.248,4.794 -20.19,11.88 -3.127,-3.58 -7.724,-5.841 -12.85,-5.841 -8.661,0 -15.814,6.457 -16.907,14.819 l -16.489,2.234 16.489,2.232 C -15.814,-6.457 -8.661,0 0,0"
         style="fill:#ffffff;fill-opacity:1;fill-rule:evenodd;stroke:none"
         transform="matrix(1.3333333,0,0,-1.3333333,109.59373,99.7012)"
         clip-path="url(#clipPath43)" />
      <path
         id="path44"
         d="m 0,0 c 2.564,0 4.862,-1.131 6.425,-2.92 1.972,3.542 5.753,5.94 10.096,5.94 4.033,0 7.585,-2.07 9.65,-5.205 0.271,0.035 0.548,0.053 0.83,0.053 1.614,0 3.09,-0.598 4.216,-1.587 1.278,1.36 3.095,2.209 5.11,2.209 3.494,0 6.392,-2.555 6.927,-5.898 l 8.26,-1.119 -8.26,-1.119 c -0.535,-3.342 -3.433,-5.897 -6.927,-5.897 -2.015,0 -3.832,0.849 -5.11,2.209 -1.126,-0.988 -2.602,-1.587 -4.216,-1.587 -0.282,0 -0.559,0.019 -0.83,0.053 -2.065,-3.135 -5.617,-5.205 -9.65,-5.205 -4.343,0 -8.124,2.398 -10.096,5.941 -1.563,-1.79 -3.861,-2.921 -6.425,-2.921 -4.33,0 -7.907,3.228 -8.454,7.409 l -8.243,1.117 8.243,1.117 C -7.907,-3.229 -4.33,0 0,0"
         style="fill:#ffffff;fill-opacity:1;fill-rule:evenodd;stroke:none"
         transform="matrix(1.3333333,0,0,-1.3333333,697.47133,63.119733)"
         clip-path="url(#clipPath45)" />
      <path
         id="path46"
         d="M 0,0 C 0.738,0 1.439,-0.164 2.066,-0.459 3.651,2.538 6.8,4.58 10.425,4.58 c 2.776,0 5.272,-1.197 7.001,-3.102 1.522,1.382 3.544,2.225 5.763,2.225 2.551,0 4.842,-1.115 6.413,-2.883 1.71,2.226 4.398,3.663 7.423,3.663 2.743,0 5.21,-1.182 6.922,-3.064 0.556,0.155 1.142,0.238 1.748,0.238 3.325,0 6.07,-2.486 6.476,-5.699 l 7.945,-0.83 -7.945,-0.828 c -0.406,-3.214 -3.151,-5.699 -6.476,-5.699 -0.606,0 -1.192,0.083 -1.748,0.237 -1.712,-1.882 -4.179,-3.063 -6.922,-3.063 -3.025,0 -5.713,1.436 -7.423,3.663 -1.571,-1.769 -3.862,-2.883 -6.413,-2.883 -2.219,0 -4.241,0.842 -5.763,2.225 -1.729,-1.905 -4.225,-3.102 -7.001,-3.102 -3.625,0 -6.774,2.042 -8.359,5.039 C 1.439,-9.578 0.738,-9.743 0,-9.743 c -2.407,0 -4.407,1.746 -4.8,4.041 l -7.964,0.83 7.964,0.832 C -4.407,-1.746 -2.407,0 0,0"
         style="fill:#ffffff;fill-opacity:1;fill-rule:evenodd;stroke:none"
         transform="matrix(1.3333333,0,0,-1.3333333,25.325467,243.778)"
         clip-path="url(#clipPath47)" />
      <path
         id="path48"
         d="m 0,0 c 2.323,0 4.448,-0.845 6.086,-2.242 2.392,3.856 6.664,6.425 11.535,6.425 4.517,0 8.518,-2.208 10.982,-5.604 0.814,0.264 1.681,0.406 2.582,0.406 4.126,0 7.554,-2.985 8.241,-6.915 l 9.76,-1.451 -9.76,-1.452 c -0.687,-3.928 -4.115,-6.915 -8.241,-6.915 -0.901,0 -1.768,0.144 -2.582,0.407 -2.464,-3.395 -6.465,-5.604 -10.982,-5.604 -4.871,0 -9.143,2.57 -11.535,6.425 -1.638,-1.397 -3.763,-2.242 -6.086,-2.242 -4.687,0 -8.573,3.439 -9.269,7.932 l -9.747,1.449 9.747,1.449 C -8.573,-3.439 -4.687,0 0,0"
         style="fill:#ffffff;fill-opacity:1;fill-rule:evenodd;stroke:none"
         transform="matrix(1.3333333,0,0,-1.3333333,795.1888,245.5416)"
         clip-path="url(#clipPath49)" />
    </g>
  </g>
</svg>
