<?xml version="1.0" encoding="UTF-8" standalone="no"?>
<!-- Created with Inkscape (http://www.inkscape.org/) -->

<svg
   version="1.1"
   id="svg1"
   width="880"
   height="880"
   viewBox="0 0 880 880"
   sodipodi:docname="seagull-on-beach.svg"
   inkscape:version="1.3.2 (091e20e, 2023-11-25, custom)"
   xmlns:inkscape="http://www.inkscape.org/namespaces/inkscape"
   xmlns:sodipodi="http://sodipodi.sourceforge.net/DTD/sodipodi-0.dtd"
   xmlns="http://www.w3.org/2000/svg"
   xmlns:svg="http://www.w3.org/2000/svg">
  <defs
     id="defs1">
    <clipPath
       clipPathUnits="userSpaceOnUse"
       id="clipPath5">
      <path
         d="M 0,660 H 660 V 0 H 0 Z"
         transform="translate(-661.34081,-413.75881)"
         id="path5" />
    </clipPath>
    <clipPath
       clipPathUnits="userSpaceOnUse"
       id="clipPath7">
      <path
         d="M 0,660 H 660 V 0 H 0 Z"
         id="path7" />
    </clipPath>
    <clipPath
       clipPathUnits="userSpaceOnUse"
       id="clipPath9">
      <path
         d="M 0,660 H 660 V 0 H 0 Z"
         transform="translate(-462.93651,-292.58691)"
         id="path9" />
    </clipPath>
    <clipPath
       clipPathUnits="userSpaceOnUse"
       id="clipPath11">
      <path
         d="M 0,660 H 660 V 0 H 0 Z"
         transform="translate(-9.9999752e-4,-329.32811)"
         id="path11" />
    </clipPath>
    <clipPath
       clipPathUnits="userSpaceOnUse"
       id="clipPath13">
      <path
         d="M 0,660 H 660 V 0 H 0 Z"
         transform="translate(-9.9999752e-4,-226.4521)"
         id="path13" />
    </clipPath>
    <clipPath
       clipPathUnits="userSpaceOnUse"
       id="clipPath15">
      <path
         d="M 0,660 H 660 V 0 H 0 Z"
         transform="translate(-661.34081,-130.3174)"
         id="path15" />
    </clipPath>
    <clipPath
       clipPathUnits="userSpaceOnUse"
       id="clipPath17">
      <path
         d="M 0,660 H 660 V 0 H 0 Z"
         transform="translate(-9.9999752e-4,-226.4521)"
         id="path17" />
    </clipPath>
    <clipPath
       clipPathUnits="userSpaceOnUse"
       id="clipPath19">
      <path
         d="M 0,660 H 660 V 0 H 0 Z"
         transform="translate(-9.9999752e-4,-104.2969)"
         id="path19" />
    </clipPath>
    <clipPath
       clipPathUnits="userSpaceOnUse"
       id="clipPath21">
      <path
         d="M 0,660 H 660 V 0 H 0 Z"
         transform="translate(-242.4697,-298.8301)"
         id="path21" />
    </clipPath>
    <clipPath
       clipPathUnits="userSpaceOnUse"
       id="clipPath23">
      <path
         d="M 0,660 H 660 V 0 H 0 Z"
         transform="translate(-661.34081,-601.53172)"
         id="path23" />
    </clipPath>
    <clipPath
       clipPathUnits="userSpaceOnUse"
       id="clipPath25">
      <path
         d="M 0,660 H 660 V 0 H 0 Z"
         transform="translate(-330.31791,-11.182598)"
         id="path25" />
    </clipPath>
    <clipPath
       clipPathUnits="userSpaceOnUse"
       id="clipPath27">
      <path
         d="M 0,660 H 660 V 0 H 0 Z"
         transform="translate(-332.94731,-130.45701)"
         id="path27" />
    </clipPath>
    <clipPath
       clipPathUnits="userSpaceOnUse"
       id="clipPath29">
      <path
         d="M 0,660 H 660 V 0 H 0 Z"
         transform="translate(-342.00881,-214.5244)"
         id="path29" />
    </clipPath>
    <clipPath
       clipPathUnits="userSpaceOnUse"
       id="clipPath31">
      <path
         d="M 0,660 H 660 V 0 H 0 Z"
         transform="translate(-332.18161,-215.77831)"
         id="path31" />
    </clipPath>
    <clipPath
       clipPathUnits="userSpaceOnUse"
       id="clipPath33">
      <path
         d="M 0,660 H 660 V 0 H 0 Z"
         transform="translate(-453.54981,-173.8164)"
         id="path33" />
    </clipPath>
    <clipPath
       clipPathUnits="userSpaceOnUse"
       id="clipPath35">
      <path
         d="M 0,660 H 660 V 0 H 0 Z"
         transform="translate(-377.75981,-118.1211)"
         id="path35" />
    </clipPath>
    <clipPath
       clipPathUnits="userSpaceOnUse"
       id="clipPath37">
      <path
         d="M 0,660 H 660 V 0 H 0 Z"
         transform="translate(-238.7227,-215.85741)"
         id="path37" />
    </clipPath>
    <clipPath
       clipPathUnits="userSpaceOnUse"
       id="clipPath39">
      <path
         d="M 0,660 H 660 V 0 H 0 Z"
         transform="translate(-227.54001,-218.08011)"
         id="path39" />
    </clipPath>
    <clipPath
       clipPathUnits="userSpaceOnUse"
       id="clipPath41">
      <path
         d="M 0,660 H 660 V 0 H 0 Z"
         transform="translate(-223.93021,-254.60641)"
         id="path41" />
    </clipPath>
    <clipPath
       clipPathUnits="userSpaceOnUse"
       id="clipPath43">
      <path
         d="M 0,660 H 660 V 0 H 0 Z"
         transform="translate(-221.209,-248.09181)"
         id="path43" />
    </clipPath>
    <clipPath
       clipPathUnits="userSpaceOnUse"
       id="clipPath45">
      <path
         d="M 0,660 H 660 V 0 H 0 Z"
         transform="translate(-224.52591,-247.28611)"
         id="path45" />
    </clipPath>
    <clipPath
       clipPathUnits="userSpaceOnUse"
       id="clipPath47">
      <path
         d="M 0,660 H 660 V 0 H 0 Z"
         transform="translate(-210.3652,-251.76951)"
         id="path47" />
    </clipPath>
  </defs>
  <sodipodi:namedview
     id="namedview1"
     pagecolor="#ffffff"
     bordercolor="#000000"
     borderopacity="0.25"
     inkscape:showpageshadow="2"
     inkscape:pageopacity="0.0"
     inkscape:pagecheckerboard="0"
     inkscape:deskcolor="#d1d1d1"
     inkscape:zoom="0.67272727"
     inkscape:cx="439.25676"
     inkscape:cy="440"
     inkscape:window-width="1440"
     inkscape:window-height="830"
     inkscape:window-x="-6"
     inkscape:window-y="-6"
     inkscape:window-maximized="1"
     inkscape:current-layer="g1">
    <inkscape:page
       x="0"
       y="0"
       inkscape:label="1"
       id="page1"
       width="880"
       height="880"
       margin="0"
       bleed="0" />
  </sodipodi:namedview>
  <g
     id="g1"
     inkscape:groupmode="layer"
     inkscape:label="1">
    <g
       id="group-MC0">
      <path
         id="path2"
         d="M 0,0 H 660 V 660 H 0 Z"
         style="fill:#fbdc64;fill-opacity:1;fill-rule:nonzero;stroke:none"
         transform="matrix(1.3333333,0,0,-1.3333333,0,880)" />
      <path
         id="path3"
         d="M 0,292.587 H 660 V 659.999 H 0 Z"
         style="fill:#8fdbf1;fill-opacity:1;fill-rule:nonzero;stroke:none"
         transform="matrix(1.3333333,0,0,-1.3333333,0,880)" />
      <path
         id="path4"
         d="m 0,0 v -121.172 h -572.948 c -1.368,2.446 -2.411,5.095 -3.071,7.896 -5.678,-4.266 -12.509,-7.082 -19.941,-7.896 h -8.955 c -6.589,0.722 -12.704,3.018 -17.964,6.502 -5.701,-4.09 -12.688,-6.502 -20.24,-6.502 -6.682,0 -12.922,1.89 -18.221,5.157 V 2.416 c 7.399,6.37 17.026,10.222 27.555,10.222 23.335,0 42.252,-18.917 42.252,-42.253 0,-3.838 -0.515,-7.556 -1.473,-11.09 18.292,-3.377 32.298,-18.984 33.214,-38.027 4.107,2.042 8.734,3.192 13.631,3.192 9.409,0 17.827,-4.238 23.454,-10.908 5.964,8.101 15.564,13.355 26.395,13.355 8.215,0 15.723,-3.024 21.473,-8.017 5.375,7.8 14.369,12.917 24.559,12.917 12.78,0 23.675,-8.041 27.913,-19.339 7.985,7.439 18.689,11.992 30.462,11.992 5.222,0 10.234,-0.901 14.894,-2.548 -0.532,2.707 -0.811,5.502 -0.811,8.364 0,20.186 13.856,37.134 32.573,41.858 -0.478,2.406 -0.729,4.892 -0.729,7.437 0,20.968 16.997,37.966 37.964,37.966 19.109,0 34.915,-14.116 37.571,-32.488 3.262,0.821 6.677,1.259 10.194,1.259 22.994,0 41.641,-18.644 41.641,-41.64 0,-5.864 -1.217,-11.446 -3.406,-16.507 5.929,-3.237 10.817,-8.139 14.034,-14.077 7.826,7.918 18.691,12.823 30.703,12.823 7.623,0 14.781,-1.975 20.996,-5.441 6.092,11.609 18.261,19.526 32.28,19.526 15.06,0 27.986,-9.137 33.535,-22.174 4.007,1.661 8.397,2.58 13.003,2.58 8.185,0 15.694,-2.895 21.558,-7.714 8.986,10.704 22.465,17.511 37.535,17.511 0.663,0 1.323,-0.018 1.978,-0.044 -8.692,7.246 -14.225,18.154 -14.225,30.357 0,18.759 13.08,34.464 30.617,38.492"
         style="fill:#ffffff;fill-opacity:1;fill-rule:evenodd;stroke:none"
         transform="matrix(1.3333333,0,0,-1.3333333,881.78773,328.3216)"
         clip-path="url(#clipPath5)" />
      <path
         id="path6"
         d="M 0,149.298 H 661.341 V 292.587 H 0 Z"
         style="fill:#7bd098;fill-opacity:1;fill-rule:evenodd;stroke:none"
         transform="matrix(1.3333333,0,0,-1.3333333,0,880)"
         clip-path="url(#clipPath7)" />
      <path
         id="path8"
         d="M 0,0 -451.914,-57.56 6.123,-104.1 h 192.281 v -39.189 H -462.935 V -0.305 Z"
         style="fill:#a4dfb5;fill-opacity:1;fill-rule:evenodd;stroke:none"
         transform="matrix(1.3333333,0,0,-1.3333333,617.24867,489.88413)"
         clip-path="url(#clipPath9)" />
      <path
         id="path10"
         d="M 0,0 292.091,-36.741 0,-74.094 Z"
         style="fill:#f4e6ae;fill-opacity:1;fill-rule:evenodd;stroke:none"
         transform="matrix(1.3333333,0,0,-1.3333333,0.00133333,440.89587)"
         clip-path="url(#clipPath11)" />
      <path
         id="path12"
         d="M 0,0 338.32,-49.255 69.997,-81.661 0,-92.465 Z"
         style="fill:#fbdc64;fill-opacity:1;fill-rule:evenodd;stroke:none"
         transform="matrix(1.3333333,0,0,-1.3333333,0.00133333,578.06387)"
         clip-path="url(#clipPath13)" />
      <path
         id="path14"
         d="M 0,0 -642.263,14.584 -402.278,58.417 -661.34,96.135 V -131.657 H 0 Z"
         style="fill:#f4c327;fill-opacity:1;fill-rule:evenodd;stroke:none"
         transform="matrix(1.3333333,0,0,-1.3333333,881.78773,706.24347)"
         clip-path="url(#clipPath15)" />
      <path
         id="path16"
         d="M 0,0 414.561,-50.818 303.114,-65.517 H 661.34 v -11.637 l -554.026,-0.002 231.006,27.901 z"
         style="fill:#ffffff;fill-opacity:1;fill-rule:evenodd;stroke:none"
         transform="matrix(1.3333333,0,0,-1.3333333,0.00133333,578.06387)"
         clip-path="url(#clipPath17)" />
      <path
         id="path18"
         d="m 0,0 661.34,-24.494 v -81.143 H 0 Z M 0,97.058 109.61,80.524 0,52.967 Z"
         style="fill:#e1b018;fill-opacity:1;fill-rule:evenodd;stroke:none"
         transform="matrix(1.3333333,0,0,-1.3333333,0.00133333,740.93747)"
         clip-path="url(#clipPath19)" />
      <path
         id="path20"
         d="M 0,0 -242.469,-24.299 V 30.498 Z"
         style="fill:#e6cf72;fill-opacity:1;fill-rule:evenodd;stroke:none"
         transform="matrix(1.3333333,0,0,-1.3333333,323.29293,481.55987)"
         clip-path="url(#clipPath21)" />
      <path
         id="path22"
         d="m 0,0 v -24.495 l -487.434,-107.773 z m 0,-96.752 v -28.486 l -522.95,-69.491 z M -73.484,58.468 -649.095,-132.268 -9.799,58.468 Z"
         style="fill:#abe4f5;fill-opacity:1;fill-rule:evenodd;stroke:none"
         transform="matrix(1.3333333,0,0,-1.3333333,881.78773,77.957733)"
         clip-path="url(#clipPath23)" />
      <path
         id="path24"
         d="M 0,0 C 74.946,0 136.069,14.344 136.069,31.931 136.069,49.518 74.946,63.862 0,63.862 -74.943,63.862 -136.07,49.518 -136.07,31.931 -136.07,14.344 -74.943,0 0,0"
         style="fill:#ca9c18;fill-opacity:1;fill-rule:evenodd;stroke:none"
         transform="matrix(1.3333333,0,0,-1.3333333,440.42387,865.08987)"
         clip-path="url(#clipPath25)" />
      <path
         id="path26"
         d="m 0,0 -14.695,-56.967 -60.779,-12.337 35.922,-15.601 30.843,22.494 9.072,21.408 6.167,3.449 -1.451,7.8 12.337,30.48 z"
         style="fill:#cc2d23;fill-opacity:1;fill-rule:evenodd;stroke:none"
         transform="matrix(1.3333333,0,0,-1.3333333,443.92973,706.05733)"
         clip-path="url(#clipPath27)" />
      <path
         id="path28"
         d="m 0,0 c 51.199,-8.014 92.702,-37.526 92.702,-65.924 0,-28.394 -41.503,-44.918 -92.702,-36.904 -51.197,8.013 -92.7,37.526 -92.7,65.923 C -92.7,-8.508 -51.197,8.013 0,0"
         style="fill:#ffffff;fill-opacity:1;fill-rule:evenodd;stroke:none"
         transform="matrix(1.3333333,0,0,-1.3333333,456.01173,593.96747)"
         clip-path="url(#clipPath29)" />
      <path
         id="path30"
         d="m 0,0 c 70.297,-5.611 127.785,-37.39 175.826,-88.476 -24.432,7.1 -48.862,14.198 -73.297,21.298 22.741,-18.952 45.478,-37.905 68.218,-56.857 -39.919,0.326 -70.267,17.334 -93.254,47.172 -53.382,0.592 -87.766,19.604 -109.218,51.161 10.766,3.143 21.529,6.289 32.293,9.434 C 0.379,-10.846 0.19,-5.424 0,0"
         style="fill:#e8e8e7;fill-opacity:1;fill-rule:evenodd;stroke:none"
         transform="matrix(1.3333333,0,0,-1.3333333,442.9088,592.2956)"
         clip-path="url(#clipPath31)" />
      <path
         id="path32"
         d="m 0,0 c 11.928,-7.93 23.36,-16.874 34.327,-26.767 5.885,-9.657 -13.06,-7.678 -38.19,-2.8 -4.991,1.451 -9.985,2.902 -14.976,4.351 9.684,-8.071 19.367,-16.139 29.051,-24.211 6.312,-11.896 13.926,-24.511 -34.764,-5.958 -6.957,5.928 -13.387,12.778 -19.323,20.484 -15.978,0.177 -30.255,2.005 -42.992,5.326 20.495,3.423 39.005,8.739 38.095,32.591 C -17.104,-7.834 3.172,-11.408 0,0"
         style="fill:#b2b1b0;fill-opacity:1;fill-rule:evenodd;stroke:none"
         transform="matrix(1.3333333,0,0,-1.3333333,604.73307,648.2448)"
         clip-path="url(#clipPath33)" />
      <path
         id="path34"
         d="m 0,0 -14.697,-56.968 -60.777,-12.337 35.922,-15.603 30.843,22.496 9.071,21.409 6.167,3.446 -1.451,7.802 12.337,30.48 z"
         style="fill:#cc2d23;fill-opacity:1;fill-rule:evenodd;stroke:none"
         transform="matrix(1.3333333,0,0,-1.3333333,503.67973,722.5052)"
         clip-path="url(#clipPath35)" />
      <path
         id="path36"
         d="M 0,0 C 16.052,0 29.145,13.093 29.145,29.145 29.145,45.199 16.052,58.291 0,58.291 -16.055,58.291 -29.146,45.199 -29.146,29.145 -29.146,13.093 -16.055,0 0,0"
         style="fill:#ffffff;fill-opacity:1;fill-rule:evenodd;stroke:none"
         transform="matrix(1.3333333,0,0,-1.3333333,318.29693,592.19013)"
         clip-path="url(#clipPath37)" />
      <path
         id="path38"
         d="M 0,0 C 11.944,-8.181 24.992,-19.907 24.115,-52.369 33.988,-37.12 51.982,-19.648 61.853,-4.397 39.743,-7.482 39.739,6.708 40.253,24.857 27.544,19.591 12.708,5.267 0,0"
         style="fill:#ffffff;fill-opacity:1;fill-rule:evenodd;stroke:none"
         transform="matrix(1.3333333,0,0,-1.3333333,303.38667,589.22653)"
         clip-path="url(#clipPath39)" />
      <path
         id="path40"
         d="m 0,0 c -8.355,-1.776 -15.128,-7.553 -15.128,-12.905 0,-5.35 6.773,-8.252 15.128,-6.479 8.354,1.777 15.127,7.553 15.127,12.905 C 15.127,-1.129 8.354,1.773 0,0"
         style="fill:#e8e8e7;fill-opacity:1;fill-rule:evenodd;stroke:none"
         transform="matrix(1.3333333,0,0,-1.3333333,298.5736,540.5248)"
         clip-path="url(#clipPath41)" />
      <path
         id="path42"
         d="m 0,0 c -2.894,-0.616 -5.242,-2.617 -5.242,-4.471 0,-1.856 2.348,-2.86 5.242,-2.245 2.894,0.616 5.241,2.617 5.241,4.472 C 5.241,-0.391 2.894,0.614 0,0"
         style="fill:#464648;fill-opacity:1;fill-rule:evenodd;stroke:none"
         transform="matrix(1.3333333,0,0,-1.3333333,294.94533,549.21093)"
         clip-path="url(#clipPath43)" />
      <path
         id="path44"
         d="m 0,0 c -0.794,-0.039 -1.435,-0.691 -1.435,-1.459 0,-0.769 0.641,-1.361 1.435,-1.323 0.793,0.04 1.435,0.691 1.435,1.459 C 1.435,-0.554 0.793,0.038 0,0"
         style="fill:#ffffff;fill-opacity:1;fill-rule:evenodd;stroke:none"
         transform="matrix(1.3333333,0,0,-1.3333333,299.36787,550.2852)"
         clip-path="url(#clipPath45)" />
      <path
         id="path46"
         d="m 0,0 c -0.395,-0.588 -0.785,-1.174 -1.178,-1.76 -6.869,-10.269 -15.631,-17.178 -27.218,-21.465 l -33.896,-12.546 c -5.863,-2.168 -9.161,-11.399 -5.986,-17.78 3.941,1.595 7.563,2.231 10.826,1.794 7.41,-0.993 13.964,-0.295 20.998,2.233 l 49.662,17.852 C 3.01,-22.959 -0.446,-12.102 0,0"
         style="fill:#cc2d23;fill-opacity:1;fill-rule:evenodd;stroke:none"
         transform="matrix(1.3333333,0,0,-1.3333333,280.48693,544.30733)"
         clip-path="url(#clipPath47)" />
    </g>
  </g>
</svg>
