<?xml version="1.0" encoding="UTF-8" standalone="no"?>
<!-- Created with Inkscape (http://www.inkscape.org/) -->

<svg
   version="1.1"
   id="svg1"
   width="880"
   height="880"
   viewBox="0 0 880 880"
   sodipodi:docname="sea-yachts.svg"
   inkscape:version="1.3.2 (091e20e, 2023-11-25, custom)"
   xmlns:inkscape="http://www.inkscape.org/namespaces/inkscape"
   xmlns:sodipodi="http://sodipodi.sourceforge.net/DTD/sodipodi-0.dtd"
   xmlns="http://www.w3.org/2000/svg"
   xmlns:svg="http://www.w3.org/2000/svg">
  <defs
     id="defs1">
    <clipPath
       clipPathUnits="userSpaceOnUse"
       id="clipPath7">
      <path
         d="M 0,660 H 660 V 0 H 0 Z"
         transform="translate(-243.17191,-402.00491)"
         id="path7" />
    </clipPath>
    <clipPath
       clipPathUnits="userSpaceOnUse"
       id="clipPath9">
      <path
         d="M 0,660 H 660 V 0 H 0 Z"
         transform="translate(-1.4810001,-161.2939)"
         id="path9" />
    </clipPath>
    <clipPath
       clipPathUnits="userSpaceOnUse"
       id="clipPath11">
      <path
         d="M 0,660 H 660 V 0 H 0 Z"
         transform="translate(-1.4810001,-334.86821)"
         id="path11" />
    </clipPath>
    <clipPath
       clipPathUnits="userSpaceOnUse"
       id="clipPath13">
      <path
         d="M 0,660 H 660 V 0 H 0 Z"
         transform="translate(-660.53612,-474.20851)"
         id="path13" />
    </clipPath>
    <clipPath
       clipPathUnits="userSpaceOnUse"
       id="clipPath15">
      <path
         d="M 0,660 H 660 V 0 H 0 Z"
         transform="translate(-455.93751,-173.11431)"
         id="path15" />
    </clipPath>
    <clipPath
       clipPathUnits="userSpaceOnUse"
       id="clipPath17">
      <path
         d="M 0,660 H 660 V 0 H 0 Z"
         transform="translate(-660.53612,-452.74221)"
         id="path17" />
    </clipPath>
    <clipPath
       clipPathUnits="userSpaceOnUse"
       id="clipPath19">
      <path
         d="M 0,660 H 660 V 0 H 0 Z"
         id="path19" />
    </clipPath>
    <clipPath
       clipPathUnits="userSpaceOnUse"
       id="clipPath21">
      <path
         d="M 0,660 H 660 V 0 H 0 Z"
         transform="translate(-1.4810001,-234.92191)"
         id="path21" />
    </clipPath>
    <clipPath
       clipPathUnits="userSpaceOnUse"
       id="clipPath23">
      <path
         d="M 0,660 H 660 V 0 H 0 Z"
         transform="translate(-660.53612,-217.57321)"
         id="path23" />
    </clipPath>
    <clipPath
       clipPathUnits="userSpaceOnUse"
       id="clipPath25">
      <path
         d="M 0,660 H 660 V 0 H 0 Z"
         id="path25" />
    </clipPath>
    <clipPath
       clipPathUnits="userSpaceOnUse"
       id="clipPath27">
      <path
         d="M 0,660 H 660 V 0 H 0 Z"
         transform="translate(-1.4810001,-135.80271)"
         id="path27" />
    </clipPath>
    <clipPath
       clipPathUnits="userSpaceOnUse"
       id="clipPath29">
      <path
         d="M 0,660 H 660 V 0 H 0 Z"
         transform="translate(-1.4810001,-162.05271)"
         id="path29" />
    </clipPath>
    <clipPath
       clipPathUnits="userSpaceOnUse"
       id="clipPath31">
      <path
         d="M 0,660 H 660 V 0 H 0 Z"
         transform="translate(-1.4810001,-193.38771)"
         id="path31" />
    </clipPath>
    <clipPath
       clipPathUnits="userSpaceOnUse"
       id="clipPath33">
      <path
         d="M 0,660 H 660 V 0 H 0 Z"
         transform="translate(-1.4810001,-76.532199)"
         id="path33" />
    </clipPath>
    <clipPath
       clipPathUnits="userSpaceOnUse"
       id="clipPath35">
      <path
         d="M 0,660 H 660 V 0 H 0 Z"
         transform="translate(-1.4810001,-15.037103)"
         id="path35" />
    </clipPath>
    <clipPath
       clipPathUnits="userSpaceOnUse"
       id="clipPath37">
      <path
         d="M 0,660 H 660 V 0 H 0 Z"
         transform="translate(-275.74951,-217.14451)"
         id="path37" />
    </clipPath>
    <clipPath
       clipPathUnits="userSpaceOnUse"
       id="clipPath39">
      <path
         d="M 0,660 H 660 V 0 H 0 Z"
         transform="translate(-467.70611,-178.1797)"
         id="path39" />
    </clipPath>
    <clipPath
       clipPathUnits="userSpaceOnUse"
       id="clipPath41">
      <path
         d="M 0,660 H 660 V 0 H 0 Z"
         transform="translate(-198.4395,-141.7285)"
         id="path41" />
    </clipPath>
    <clipPath
       clipPathUnits="userSpaceOnUse"
       id="clipPath43">
      <path
         d="M 0,660 H 660 V 0 H 0 Z"
         transform="translate(-169.0713,-183.8613)"
         id="path43" />
    </clipPath>
    <clipPath
       clipPathUnits="userSpaceOnUse"
       id="clipPath45">
      <path
         d="M 0,660 H 660 V 0 H 0 Z"
         transform="translate(-497.09471,-88.6924)"
         id="path45" />
    </clipPath>
    <clipPath
       clipPathUnits="userSpaceOnUse"
       id="clipPath47">
      <path
         d="M 0,660 H 660 V 0 H 0 Z"
         transform="translate(-226.38771,-49.980504)"
         id="path47" />
    </clipPath>
    <clipPath
       clipPathUnits="userSpaceOnUse"
       id="clipPath49">
      <path
         d="M 0,660 H 660 V 0 H 0 Z"
         transform="translate(-143.9365,-93.719702)"
         id="path49" />
    </clipPath>
    <clipPath
       clipPathUnits="userSpaceOnUse"
       id="clipPath51">
      <path
         d="M 0,660 H 660 V 0 H 0 Z"
         transform="translate(-529.04101,-31.379903)"
         id="path51" />
    </clipPath>
    <clipPath
       clipPathUnits="userSpaceOnUse"
       id="clipPath53">
      <path
         d="M 0,660 H 660 V 0 H 0 Z"
         transform="translate(-472.23051,-584.40671)"
         id="path53" />
    </clipPath>
    <clipPath
       clipPathUnits="userSpaceOnUse"
       id="clipPath55">
      <path
         d="M 0,660 H 660 V 0 H 0 Z"
         transform="translate(-483.92091,-533.62891)"
         id="path55" />
    </clipPath>
    <clipPath
       clipPathUnits="userSpaceOnUse"
       id="clipPath57">
      <path
         d="M 0,660 H 660 V 0 H 0 Z"
         transform="translate(-364.90041,-503.50882)"
         id="path57" />
    </clipPath>
    <clipPath
       clipPathUnits="userSpaceOnUse"
       id="clipPath59">
      <path
         d="M 0,660 H 660 V 0 H 0 Z"
         transform="translate(-96.905305,-601.32472)"
         id="path59" />
    </clipPath>
    <clipPath
       clipPathUnits="userSpaceOnUse"
       id="clipPath61">
      <path
         d="M 0,660 H 660 V 0 H 0 Z"
         transform="translate(-90.861302,-579.00151)"
         id="path61" />
    </clipPath>
    <clipPath
       clipPathUnits="userSpaceOnUse"
       id="clipPath63">
      <path
         d="M 0,660 H 660 V 0 H 0 Z"
         transform="translate(-146.81691,-572.59571)"
         id="path63" />
    </clipPath>
    <clipPath
       clipPathUnits="userSpaceOnUse"
       id="clipPath65">
      <path
         d="M 0,660 H 660 V 0 H 0 Z"
         transform="translate(-519.48931,-183.459)"
         id="path65" />
    </clipPath>
    <clipPath
       clipPathUnits="userSpaceOnUse"
       id="clipPath67">
      <path
         d="M 0,660 H 660 V 0 H 0 Z"
         transform="translate(-483.02251,-267.5977)"
         id="path67" />
    </clipPath>
    <clipPath
       clipPathUnits="userSpaceOnUse"
       id="clipPath69">
      <path
         d="M 0,660 H 660 V 0 H 0 Z"
         transform="translate(-487.97271,-251.05371)"
         id="path69" />
    </clipPath>
    <clipPath
       clipPathUnits="userSpaceOnUse"
       id="clipPath71">
      <path
         d="M 0,660 H 660 V 0 H 0 Z"
         transform="translate(-260.41801,-222.95701)"
         id="path71" />
    </clipPath>
    <clipPath
       clipPathUnits="userSpaceOnUse"
       id="clipPath73">
      <path
         d="M 0,660 H 660 V 0 H 0 Z"
         transform="translate(-281.39551,-271.3516)"
         id="path73" />
    </clipPath>
    <clipPath
       clipPathUnits="userSpaceOnUse"
       id="clipPath75">
      <path
         d="M 0,660 H 660 V 0 H 0 Z"
         transform="translate(-278.54791,-261.83691)"
         id="path75" />
    </clipPath>
    <clipPath
       clipPathUnits="userSpaceOnUse"
       id="clipPath77">
      <path
         d="M 0,660 H 660 V 0 H 0 Z"
         transform="translate(-89.627402,-84.208)"
         id="path77" />
    </clipPath>
    <clipPath
       clipPathUnits="userSpaceOnUse"
       id="clipPath79">
      <path
         d="M 0,660 H 660 V 0 H 0 Z"
         transform="translate(-166.6558,-261.92581)"
         id="path79" />
    </clipPath>
    <clipPath
       clipPathUnits="userSpaceOnUse"
       id="clipPath81">
      <path
         d="M 0,660 H 660 V 0 H 0 Z"
         transform="translate(-156.1992,-226.98141)"
         id="path81" />
    </clipPath>
    <clipPath
       clipPathUnits="userSpaceOnUse"
       id="clipPath83">
      <path
         d="M 0,660 H 660 V 0 H 0 Z"
         transform="translate(-182.9199,-355.23051)"
         id="path83" />
    </clipPath>
    <clipPath
       clipPathUnits="userSpaceOnUse"
       id="clipPath85">
      <path
         d="M 0,660 H 660 V 0 H 0 Z"
         transform="translate(-89.627402,-84.208)"
         id="path85" />
    </clipPath>
    <clipPath
       clipPathUnits="userSpaceOnUse"
       id="clipPath87">
      <path
         d="M 0,660 H 660 V 0 H 0 Z"
         transform="translate(-268.78081,-68.424804)"
         id="path87" />
    </clipPath>
    <clipPath
       clipPathUnits="userSpaceOnUse"
       id="clipPath89">
      <path
         d="M 0,660 H 660 V 0 H 0 Z"
         transform="translate(-127.6836,0.63480002)"
         id="path89" />
    </clipPath>
    <clipPath
       clipPathUnits="userSpaceOnUse"
       id="clipPath91">
      <path
         d="M 0,660 H 660 V 0 H 0 Z"
         transform="translate(-519.48931,-183.459)"
         id="path91" />
    </clipPath>
    <clipPath
       clipPathUnits="userSpaceOnUse"
       id="clipPath93">
      <path
         d="M 0,660 H 660 V 0 H 0 Z"
         transform="translate(-501.41891,-146.23731)"
         id="path93" />
    </clipPath>
    <clipPath
       clipPathUnits="userSpaceOnUse"
       id="clipPath95">
      <path
         d="M 0,660 H 660 V 0 H 0 Z"
         transform="translate(-502.75291,-153.5557)"
         id="path95" />
    </clipPath>
  </defs>
  <sodipodi:namedview
     id="namedview1"
     pagecolor="#ffffff"
     bordercolor="#000000"
     borderopacity="0.25"
     inkscape:showpageshadow="2"
     inkscape:pageopacity="0.0"
     inkscape:pagecheckerboard="0"
     inkscape:deskcolor="#d1d1d1"
     inkscape:zoom="0.67272727"
     inkscape:cx="439.25676"
     inkscape:cy="440"
     inkscape:window-width="1440"
     inkscape:window-height="830"
     inkscape:window-x="-6"
     inkscape:window-y="-6"
     inkscape:window-maximized="1"
     inkscape:current-layer="g1">
    <inkscape:page
       x="0"
       y="0"
       inkscape:label="1"
       id="page1"
       width="880"
       height="880"
       margin="0 0 2.1053333 1.9733334"
       bleed="0" />
  </sodipodi:namedview>
  <g
     id="g1"
     inkscape:groupmode="layer"
     inkscape:label="1">
    <g
       id="group-MC0">
      <path
         id="path2"
         d="M 1.48,0 H 660 V 658.421 H 1.48 Z"
         style="fill:#f7976e;fill-opacity:1;fill-rule:nonzero;stroke:none"
         transform="matrix(1.3333333,0,0,-1.3333333,0,880)" />
      <path
         id="path3"
         d="M 1.48,527.349 H 660 v 3.016 H 1.48 Z"
         style="fill:#fbc3aa;fill-opacity:1;fill-rule:nonzero;stroke:none"
         transform="matrix(1.3333333,0,0,-1.3333333,0,880)" />
      <path
         id="path4"
         d="M 1.48,608.794 H 660 v 3.017 H 1.48 Z"
         style="fill:#fbc3aa;fill-opacity:1;fill-rule:nonzero;stroke:none"
         transform="matrix(1.3333333,0,0,-1.3333333,0,880)" />
      <path
         id="path5"
         d="M 1.48,545.95 H 660 v 3.017 H 1.48 Z"
         style="fill:#fbc3aa;fill-opacity:1;fill-rule:nonzero;stroke:none"
         transform="matrix(1.3333333,0,0,-1.3333333,0,880)" />
      <path
         id="path6"
         d="m 0,0 c 48.043,0 87.227,39.184 87.227,87.227 0,48.043 -39.184,87.227 -87.227,87.227 -48.042,0 -87.228,-39.184 -87.228,-87.227 C -87.228,39.184 -48.042,0 0,0"
         style="fill:#ffffff;fill-opacity:1;fill-rule:evenodd;stroke:none"
         transform="matrix(1.3333333,0,0,-1.3333333,324.2292,343.99347)"
         clip-path="url(#clipPath7)" />
      <path
         id="path8"
         d="m 0,0 v 139.704 c 5.18,2.709 10.611,4.804 16.198,6.188 12.764,32.371 43.063,56.055 75.267,56.055 4.307,0 8.466,-0.428 12.453,-1.24 13.46,38.697 48.93,67.492 86.715,67.495 19.119,42.436 59.915,72.88 103.163,72.88 29.981,0 54.916,-14.632 70.018,-37.748 10.672,4.902 22.133,7.63 33.813,7.63 28.43,0 51.287,-16.141 62.443,-40.532 1.906,0.207 3.826,0.315 5.756,0.315 31.182,0 52.787,-27.762 48.254,-62.006 -0.207,-1.573 -0.469,-3.128 -0.777,-4.671 12.812,-7.327 20.265,-22.83 17.89,-40.773 -3.31,-25.003 -24.448,-45.274 -47.218,-45.274 -6.514,0 -12.454,1.658 -17.541,4.614 -0.071,-0.797 -0.158,-1.599 -0.265,-2.405 -3.876,-29.273 -28.625,-53.004 -55.279,-53.004 -2.394,0 -4.721,0.195 -6.971,0.564 -4.025,-28.413 -28.114,-51.361 -54.05,-51.361 -26.1,0 -44.182,23.237 -40.389,51.901 l 0.015,0.102 c -1.008,-0.066 -2.018,-0.102 -3.032,-0.102 -15.213,0 -27.868,7.422 -35.533,19.149 -9.325,-12.854 -23.652,-21.358 -38.662,-21.358 -10.574,0 -19.69,4.221 -26.227,11.207 -4.988,-28.371 -29.314,-50.959 -55.454,-50.959 -2.58,0 -5.084,0.221 -7.499,0.645 -0.071,-0.733 -0.151,-1.473 -0.249,-2.214 -4.002,-30.236 -29.566,-54.748 -57.098,-54.748 -21.721,0 -38.177,15.258 -42.19,36.548 C 33.762,1.587 23.094,-1.236 12.197,-1.236 7.975,-1.236 3.9,-0.809 0,0"
         style="fill:#f9ac8a;fill-opacity:1;fill-rule:evenodd;stroke:none"
         transform="matrix(1.3333333,0,0,-1.3333333,1.9746667,664.94147)"
         clip-path="url(#clipPath9)" />
      <path
         id="path10"
         d="m 0,0 v 160.709 c 5.304,3.153 11.708,4.942 18.879,4.942 10.801,0 21.441,-4.058 30.201,-10.73 8.292,18.548 26.703,30.84 50.367,30.84 36.927,0 72.663,-29.936 79.817,-66.865 2.19,-11.307 1.443,-21.956 -1.703,-31.293 9.759,-7.535 17.077,-18.409 19.419,-30.5 0.493,-2.545 0.742,-5.034 0.768,-7.452 15.084,-8.523 26.907,-23.523 30.217,-40.611 4.185,-21.61 -6.538,-39.889 -24.991,-45.936 14.845,-9.297 26.305,-24.55 29.646,-41.79 5.485,-28.32 -13.026,-51.281 -41.348,-51.281 -23.645,0 -46.648,16.006 -56.794,37.772 -22.776,3.479 -43.385,22.607 -47.856,45.686 -2.552,13.176 0.654,25.066 7.863,33.49 C 86.299,-5.243 80.301,4.867 78.16,15.922 77.94,17.06 77.765,18.184 77.633,19.3 74.039,18.351 70.185,17.844 66.113,17.844 54.849,17.844 43.739,21.703 34.275,28.17 28.428,13.916 16.16,3.481 0,0"
         style="fill:#e87849;fill-opacity:1;fill-rule:evenodd;stroke:none"
         transform="matrix(1.3333333,0,0,-1.3333333,1.9746667,433.50907)"
         clip-path="url(#clipPath11)" />
      <path
         id="path12"
         d="m 0,0 v -143.62 c -3.211,-1.316 -6.497,-2.399 -9.839,-3.225 -12.763,-32.373 -43.062,-56.056 -75.268,-56.056 -4.306,0 -8.466,0.428 -12.453,1.239 -13.461,-38.698 -48.928,-67.492 -86.714,-67.495 -19.118,-42.435 -59.914,-72.881 -103.162,-72.881 -29.984,0 -54.915,14.633 -70.019,37.748 -10.671,-4.9 -22.132,-7.629 -33.812,-7.629 -28.431,0 -51.289,16.142 -62.444,40.532 -1.907,-0.208 -3.827,-0.315 -5.756,-0.315 -31.183,0 -52.787,27.761 -48.255,62.008 0.208,1.571 0.469,3.127 0.777,4.669 -12.811,7.327 -20.263,22.831 -17.888,40.774 3.309,25.004 24.448,45.273 47.217,45.273 6.514,0 12.454,-1.658 17.539,-4.614 0.074,0.799 0.16,1.599 0.268,2.406 3.874,29.271 28.623,53.004 55.279,53.004 2.392,0 4.72,-0.195 6.969,-0.564 4.025,28.414 28.115,51.359 54.051,51.359 26.1,0 44.183,-23.236 40.387,-51.9 l -0.013,-0.101 c 1.008,0.065 2.018,0.101 3.032,0.101 15.212,0 27.867,-7.421 35.534,-19.15 9.323,12.857 23.649,21.359 38.662,21.359 10.573,0 19.689,-4.22 26.225,-11.207 4.989,28.372 29.315,50.96 55.454,50.96 2.581,0 5.085,-0.221 7.5,-0.646 0.07,0.735 0.15,1.472 0.249,2.215 4.001,30.236 29.566,54.749 57.097,54.749 21.722,0 38.176,-15.26 42.191,-36.548 9.788,5.012 20.457,7.837 31.354,7.837 C -3.859,0.282 -1.913,0.183 0,0"
         style="fill:#fbc3aa;fill-opacity:1;fill-rule:evenodd;stroke:none"
         transform="matrix(1.3333333,0,0,-1.3333333,880.7148,247.722)"
         clip-path="url(#clipPath13)" />
      <path
         id="path14"
         d="m 0,0 c -21.449,-24.952 -51.499,-40.943 -82.838,-40.943 -23.826,0 -44.463,9.242 -59.51,24.635 -1.361,3.214 -2.402,6.559 -3.067,9.999 -0.221,1.136 -0.395,2.262 -0.526,3.374 -2.023,-0.533 -4.131,-0.928 -6.311,-1.171 -0.203,0.303 -0.404,0.606 -0.604,0.91 -0.869,-0.4 -1.746,-0.784 -2.625,-1.154 -0.655,-0.026 -1.314,-0.041 -1.982,-0.041 -11.263,0 -22.373,3.86 -31.837,10.327 -2.432,-5.927 -5.974,-11.193 -10.445,-15.574 -22.306,4.139 -39.981,18.821 -49.367,39.345 -1.907,-0.208 -3.827,-0.315 -5.756,-0.315 -31.183,0 -52.787,27.761 -48.255,62.008 0.208,1.572 0.468,3.127 0.777,4.669 -1.394,0.797 -2.723,1.691 -3.985,2.676 2.905,2.18 6.639,3.448 10.915,3.448 6.339,0 12.566,-2.787 17.301,-7.202 5.709,2.062 12.035,3.18 18.838,3.18 7.644,0 15.231,-1.413 22.468,-3.985 -0.822,2.278 -1.476,4.615 -1.938,7 -4.518,23.325 10.728,42.232 34.05,42.232 10.803,0 21.442,-4.057 30.202,-10.73 8.293,18.548 26.704,30.84 50.365,30.84 36.931,0 72.665,-29.937 79.819,-66.865 2.189,-11.309 1.443,-21.956 -1.703,-31.294 9.757,-7.533 17.077,-18.408 19.42,-30.499 0.492,-2.545 0.742,-5.034 0.768,-7.453 C -14.781,21.178 -5.486,11.464 0,0"
         style="fill:#fcd8c8;fill-opacity:1;fill-rule:evenodd;stroke:none"
         transform="matrix(1.3333333,0,0,-1.3333333,607.91667,649.18093)"
         clip-path="url(#clipPath15)" />
      <path
         id="path16"
         d="m 0,0 v -277.549 c -15.447,-17.483 -37.834,-28.944 -60.681,-28.944 -23.662,0 -42.074,12.292 -50.366,30.841 -8.761,-6.673 -19.399,-10.732 -30.201,-10.732 -23.324,0 -38.568,18.907 -34.05,42.232 0.461,2.386 1.116,4.724 1.938,7.003 -7.237,-2.575 -14.824,-3.986 -22.468,-3.986 -6.804,0 -13.129,1.116 -18.839,3.179 -4.734,-4.415 -10.962,-7.201 -17.3,-7.201 -8.514,0 -14.88,5.026 -16.837,12.274 -6.536,-4.436 -14.192,-7.081 -21.954,-7.081 -18.483,0 -30.563,14.983 -26.983,33.464 3.58,18.481 21.465,33.465 39.946,33.465 5.18,0 9.854,-1.177 13.824,-3.276 8.203,31.735 39.454,56.841 71.709,56.841 22.108,0 39.176,-11.793 46.41,-29.431 9.463,6.467 20.574,10.327 31.838,10.327 4.073,0 7.926,-0.508 11.52,-1.457 0.133,1.114 0.306,2.24 0.527,3.376 2.141,11.055 8.139,21.166 16.326,28.943 -7.211,8.424 -10.417,20.313 -7.863,33.49 4.469,23.078 25.078,42.207 47.856,45.686 C -20.188,-16.823 -11.004,-6.78 0,0 M -659.055,-224.425 V -68.29 c 0.626,-0.389 1.246,-0.792 1.859,-1.206 5.958,6.478 14.844,10.381 25.68,10.381 24.395,0 49.44,-19.775 55.943,-44.169 1.665,-6.248 1.949,-12.193 1.045,-17.58 8.986,-6.045 16.593,-14.45 21.359,-24.062 4.626,3.039 10.429,4.774 17.1,4.774 3.464,0 6.942,-0.468 10.361,-1.344 5.719,6.736 14.553,10.836 25.439,10.836 23.446,0 47.518,-19.007 53.768,-42.454 0.539,-2.025 0.925,-4.015 1.171,-5.964 8.909,-1.059 17.666,-5.657 24.375,-12.299 4.131,8.496 12.834,13.991 24.289,13.991 19.354,0 39.225,-15.689 44.384,-35.043 5.159,-19.354 -6.349,-35.042 -25.703,-35.042 -12.665,0 -25.552,6.72 -34.392,16.786 -4.005,-6.273 -11.16,-10.217 -20.289,-10.217 -5.912,0 -11.878,1.655 -17.345,4.523 -1.043,-14.094 -11.691,-24.233 -27.41,-24.233 -12.287,0 -24.777,6.195 -33.733,15.631 -5.438,-9.982 -16.099,-16.362 -29.953,-16.362 -10.065,0 -20.239,3.368 -29.178,9.037 -6.936,-6.587 -16.727,-10.497 -28.474,-10.497 -23.972,0 -48.479,16.275 -60.296,38.378"
         style="fill:#f9ac8a;fill-opacity:1;fill-rule:evenodd;stroke:none"
         transform="matrix(1.3333333,0,0,-1.3333333,880.7148,276.34373)"
         clip-path="url(#clipPath17)" />
      <path
         id="path18"
         d="M 1.48,-0.635 H 660.536 V 245.494 H 1.48 Z"
         style="fill:#f28f62;fill-opacity:1;fill-rule:evenodd;stroke:none"
         transform="matrix(1.3333333,0,0,-1.3333333,0,880)"
         clip-path="url(#clipPath19)" />
      <path
         id="path20"
         d="M 0,0 564.009,-4.216 0,-10.493 Z"
         style="fill:#f9ac8a;fill-opacity:1;fill-rule:evenodd;stroke:none"
         transform="matrix(1.3333333,0,0,-1.3333333,1.9746667,566.7708)"
         clip-path="url(#clipPath21)" />
      <path
         id="path22"
         d="M 0,0 -382.631,-4.214 0,-10.494 Z"
         style="fill:#f9ac8a;fill-opacity:1;fill-rule:evenodd;stroke:none"
         transform="matrix(1.3333333,0,0,-1.3333333,880.7148,589.9024)"
         clip-path="url(#clipPath23)" />
      <path
         id="path24"
         d="M 1.48,-0.635 H 660.536 V 156.806 H 1.48 Z"
         style="fill:#e67c4e;fill-opacity:1;fill-rule:evenodd;stroke:none"
         transform="matrix(1.3333333,0,0,-1.3333333,0,880)"
         clip-path="url(#clipPath25)" />
      <path
         id="path26"
         d="M 0,0 347.323,-2.265 0,-5.642 Z m 659.055,-40.8 v 28.087 L 0,-21.15 v -7.085 z"
         style="fill:#f28f62;fill-opacity:1;fill-rule:evenodd;stroke:none"
         transform="matrix(1.3333333,0,0,-1.3333333,1.9746667,698.92973)"
         clip-path="url(#clipPath27)" />
      <path
         id="path28"
         d="M 0,0 659.055,-5.246 0,-10.493 Z"
         style="fill:#f9ac8a;fill-opacity:1;fill-rule:evenodd;stroke:none"
         transform="matrix(1.3333333,0,0,-1.3333333,1.9746667,663.92973)"
         clip-path="url(#clipPath29)" />
      <path
         id="path30"
         d="M 0,0 389.037,-4.215 0,-10.493 Z"
         style="fill:#f9ac8a;fill-opacity:1;fill-rule:evenodd;stroke:none"
         transform="matrix(1.3333333,0,0,-1.3333333,1.9746667,622.14973)"
         clip-path="url(#clipPath31)" />
      <path
         id="path32"
         d="M 0,0 659.055,-5.247 0,-10.493 Z"
         style="fill:#f28f62;fill-opacity:1;fill-rule:evenodd;stroke:none"
         transform="matrix(1.3333333,0,0,-1.3333333,1.9746667,777.95707)"
         clip-path="url(#clipPath33)" />
      <path
         id="path34"
         d="m 0,0 551.44,7.037 -512.805,8.046 620.42,8.042 V -15.672 L 0,-15.672 Z"
         style="fill:#f28f62;fill-opacity:1;fill-rule:evenodd;stroke:none"
         transform="matrix(1.3333333,0,0,-1.3333333,1.9746667,859.95053)"
         clip-path="url(#clipPath35)" />
      <path
         id="path36"
         d="m 0,0 63.499,2.938 63.498,2.935 H 0 -126.998 l 63.499,-2.935 z"
         style="fill:#e07345;fill-opacity:1;fill-rule:evenodd;stroke:none"
         transform="matrix(1.3333333,0,0,-1.3333333,367.666,590.474)"
         clip-path="url(#clipPath37)" />
      <path
         id="path38"
         d="m 0,0 58.341,2.642 58.343,2.637 H 0 -116.687 l 58.342,-2.637 z"
         style="fill:#e07345;fill-opacity:1;fill-rule:evenodd;stroke:none"
         transform="matrix(1.3333333,0,0,-1.3333333,623.60813,642.42707)"
         clip-path="url(#clipPath39)" />
      <path
         id="path40"
         d="m 0,0 60.211,1.604 60.214,1.602 H 0 -120.425 l 60.212,-1.602 z"
         style="fill:#e07345;fill-opacity:1;fill-rule:evenodd;stroke:none"
         transform="matrix(1.3333333,0,0,-1.3333333,264.586,691.02867)"
         clip-path="url(#clipPath41)" />
      <path
         id="path42"
         d="M 0,0 46.598,1.303 93.196,2.605 H 0 -93.196 l 46.598,-1.302 z"
         style="fill:#e07345;fill-opacity:1;fill-rule:evenodd;stroke:none"
         transform="matrix(1.3333333,0,0,-1.3333333,225.4284,634.8516)"
         clip-path="url(#clipPath43)" />
      <path
         id="path44"
         d="m 0,0 61.272,2.523 61.274,2.524 H 0 -122.543 l 61.272,-2.524 z"
         style="fill:#e07345;fill-opacity:1;fill-rule:evenodd;stroke:none"
         transform="matrix(1.3333333,0,0,-1.3333333,662.79293,761.74347)"
         clip-path="url(#clipPath45)" />
      <path
         id="path46"
         d="m 0,0 70.534,3.015 70.533,3.018 H 0 -141.068 l 70.534,-3.018 z"
         style="fill:#e07345;fill-opacity:1;fill-rule:evenodd;stroke:none"
         transform="matrix(1.3333333,0,0,-1.3333333,301.85027,813.35933)"
         clip-path="url(#clipPath47)" />
      <path
         id="path48"
         d="M 0,0 43.974,1.509 87.95,3.015 H 0 -87.95 l 43.975,-1.506 z"
         style="fill:#e07345;fill-opacity:1;fill-rule:evenodd;stroke:none"
         transform="matrix(1.3333333,0,0,-1.3333333,191.91533,755.0404)"
         clip-path="url(#clipPath49)" />
      <path
         id="path50"
         d="m 0,0 53.77,2.507 53.773,2.511 H 0 -107.542 l 53.77,-2.511 z"
         style="fill:#e07345;fill-opacity:1;fill-rule:evenodd;stroke:none"
         transform="matrix(1.3333333,0,0,-1.3333333,705.388,838.16013)"
         clip-path="url(#clipPath51)" />
      <path
         id="path52"
         d="m 0,0 21.117,-28.153 94.516,5.027 -88.986,5.027 z"
         style="fill:#feeee7;fill-opacity:1;fill-rule:evenodd;stroke:none"
         transform="matrix(1.3333333,0,0,-1.3333333,629.64067,100.79107)"
         clip-path="url(#clipPath53)" />
      <path
         id="path54"
         d="m 0,0 13.951,-18.601 62.448,3.321 -58.795,3.322 z"
         style="fill:#feeee7;fill-opacity:1;fill-rule:evenodd;stroke:none"
         transform="matrix(1.3333333,0,0,-1.3333333,645.22787,168.4948)"
         clip-path="url(#clipPath55)" />
      <path
         id="path56"
         d="m 0,0 13.952,-18.601 62.446,3.321 -58.794,3.322 z"
         style="fill:#feeee7;fill-opacity:1;fill-rule:evenodd;stroke:none"
         transform="matrix(1.3333333,0,0,-1.3333333,486.53387,208.65493)"
         clip-path="url(#clipPath57)" />
      <path
         id="path58"
         d="m 0,0 -9.284,-12.378 -41.554,2.211 39.123,2.21 z"
         style="fill:#feeee7;fill-opacity:1;fill-rule:evenodd;stroke:none"
         transform="matrix(1.3333333,0,0,-1.3333333,129.20707,78.233733)"
         clip-path="url(#clipPath59)" />
      <path
         id="path60"
         d="m 0,0 -14.385,-19.18 -64.391,3.425 60.623,3.425 z"
         style="fill:#feeee7;fill-opacity:1;fill-rule:evenodd;stroke:none"
         transform="matrix(1.3333333,0,0,-1.3333333,121.1484,107.998)"
         clip-path="url(#clipPath61)" />
      <path
         id="path62"
         d="m 0,0 -9.283,-12.377 -41.554,2.21 39.122,2.21 z"
         style="fill:#feeee7;fill-opacity:1;fill-rule:evenodd;stroke:none"
         transform="matrix(1.3333333,0,0,-1.3333333,195.75587,116.53907)"
         clip-path="url(#clipPath63)" />
      <path
         id="path64"
         d="M 0,0 H -69.872 L -93.009,13.328 25.138,8.805 20.612,0 Z"
         style="fill:#af4a23;fill-opacity:1;fill-rule:evenodd;stroke:none"
         transform="matrix(1.3333333,0,0,-1.3333333,692.6524,635.388)"
         clip-path="url(#clipPath65)" />
      <path
         id="path66"
         d="m 0,0 -2.688,-64.212 5.219,-8.86 0.564,75.286 z m -50.251,-72.28 c 5.453,37.124 24.241,61.965 55.169,75.625 l 1.006,-79.433 -3.502,2.62 -6.429,7.942 -39.465,0.183 z"
         style="fill:#af4a23;fill-opacity:1;fill-rule:evenodd;stroke:none"
         transform="matrix(1.3333333,0,0,-1.3333333,644.03,523.20307)"
         clip-path="url(#clipPath67)" />
      <path
         id="path68"
         d="m 0,0 49.943,-58.534 -4.532,4.238 -39.213,2.327 -0.263,-5.266 z"
         style="fill:#af4a23;fill-opacity:1;fill-rule:evenodd;stroke:none"
         transform="matrix(1.3333333,0,0,-1.3333333,650.63027,545.26173)"
         clip-path="url(#clipPath69)" />
      <path
         id="path70"
         d="M 0,0 H 40.19 L 53.497,7.668 -14.457,5.063 -11.855,0 Z"
         style="fill:#e07345;fill-opacity:1;fill-rule:evenodd;stroke:none"
         transform="matrix(1.3333333,0,0,-1.3333333,347.224,582.724)"
         clip-path="url(#clipPath71)" />
      <path
         id="path72"
         d="M 0,0 1.545,-36.934 -1.456,-42.029 -1.781,1.273 Z M 28.901,-41.573 C 25.766,-20.221 14.958,-5.934 -2.831,1.925 l -0.576,-45.69 2.013,1.509 3.698,4.567 22.699,0.106 z"
         style="fill:#e07345;fill-opacity:1;fill-rule:evenodd;stroke:none"
         transform="matrix(1.3333333,0,0,-1.3333333,375.194,518.19787)"
         clip-path="url(#clipPath73)" />
      <path
         id="path74"
         d="m 0,0 -28.727,-33.667 2.608,2.439 22.553,1.336 0.15,-3.029 z"
         style="fill:#e07345;fill-opacity:1;fill-rule:evenodd;stroke:none"
         transform="matrix(1.3333333,0,0,-1.3333333,371.3972,530.88413)"
         clip-path="url(#clipPath75)" />
      <path
         id="path76"
         d="M 0,0 H 147.586 L 196.457,28.151 -53.097,18.595 -43.54,0 Z"
         style="fill:#af4a23;fill-opacity:1;fill-rule:evenodd;stroke:none"
         transform="matrix(1.3333333,0,0,-1.3333333,119.5032,767.72267)"
         clip-path="url(#clipPath77)" />
      <path
         id="path78"
         d="M 0,0 5.674,-135.628 -5.348,-154.346 -6.538,4.681 Z M 106.141,-152.67 C 94.621,-74.259 54.938,-21.786 -10.391,7.069 l -2.122,-167.787 7.395,5.539 13.581,16.776 83.358,0.385 z"
         style="fill:#af4a23;fill-opacity:1;fill-rule:evenodd;stroke:none"
         transform="matrix(1.3333333,0,0,-1.3333333,222.20773,530.7656)"
         clip-path="url(#clipPath79)" />
      <path
         id="path80"
         d="m 0,0 -105.492,-123.636 9.57,8.953 82.831,4.916 0.552,-11.123 z"
         style="fill:#af4a23;fill-opacity:1;fill-rule:evenodd;stroke:none"
         transform="matrix(1.3333333,0,0,-1.3333333,208.2656,577.35813)"
         clip-path="url(#clipPath81)" />
      <path
         id="path82"
         d="m 0,0 c 6.51,1.006 11.052,0.604 16.068,-1.822 2.022,14.989 9.361,28.551 19.603,38.373 10.327,9.902 23.614,16.027 37.415,16.027 1.221,0 2.437,-0.052 3.646,-0.149 0.612,-0.05 1.226,-0.113 1.84,-0.189 2.386,13.923 9.436,26.464 19.084,35.63 10.086,9.584 23.019,15.503 36.451,15.503 1.947,0 3.883,-0.13 5.796,-0.384 10.892,-1.441 20.123,-6.906 26.63,-15.026 6.476,-8.084 10.245,-18.785 10.245,-30.741 0,-1.875 -0.094,-3.799 -0.292,-5.765 l 1.026,0.016 c 7.759,0 14.892,-1.863 21.092,-5.205 5.717,-3.08 10.632,-7.413 14.507,-12.697 4.647,5.868 10.338,10.751 16.643,14.234 6.783,3.747 14.278,5.876 21.954,5.876 5.427,0 10.5,-1.068 15.076,-3.022 3.708,-1.585 7.084,-3.756 10.055,-6.416 3.056,13.308 10.24,25.197 19.76,33.945 10.279,9.448 23.291,15.247 36.788,15.247 1.324,0 2.636,-0.058 3.932,-0.169 h 0.007 c 0.669,-0.058 1.335,-0.131 1.998,-0.218 l 0.052,0.403 c 2.055,15.533 9.644,29.592 20.253,39.764 10.655,10.217 24.366,14.756 38.604,14.756 -13.292,0 -26.13,-7.719 -36.139,-17.317 -10.057,-9.642 -17.251,-22.959 -19.197,-37.662 l -0.128,-1.075 -0.115,-1.077 -0.183,-1.919 -1.89,0.333 c -1.159,0.203 -2.349,0.359 -3.561,0.463 -1.185,0.102 -2.396,0.155 -3.633,0.155 -12.577,0 -24.741,-5.44 -34.381,-14.3 -9.733,-8.944 -16.888,-21.358 -19.319,-35.185 l -0.616,-3.504 -2.432,2.599 c -3.157,3.375 -6.953,6.071 -11.248,7.906 -4.13,1.766 -8.735,2.731 -13.683,2.731 -7.061,0 -13.973,-1.969 -20.243,-5.431 -6.539,-3.614 -12.384,-8.854 -16.979,-15.189 l -1.517,-2.093 -1.412,2.161 c -3.746,5.731 -8.728,10.387 -14.636,13.57 -5.686,3.064 -12.248,4.773 -19.409,4.773 -0.608,0 -1.094,-0.007 -1.464,-0.019 -0.425,-0.015 -0.913,-0.04 -1.456,-0.075 l -2.187,-0.143 0.329,2.269 c 0.326,2.444 0.483,4.875 0.483,7.28 0,11.132 -3.48,21.057 -9.454,28.514 -5.948,7.422 -14.377,12.417 -24.318,13.732 -1.705,0.226 -3.488,0.342 -5.338,0.342 -12.491,0 -24.559,-5.542 -34.002,-14.515 C 90.607,76.27 83.771,63.791 81.815,49.988 l -0.255,-1.803 -1.79,0.294 c -1.063,0.173 -2.167,0.309 -3.316,0.401 -1.093,0.089 -2.218,0.135 -3.368,0.135 -12.855,0 -25.272,-5.743 -34.951,-15.024 C 25.914,22.272 20.542,8.701 19.054,-7.546 12.597,-3.797 7.725,0 0,0"
         style="fill:#ffffff;fill-opacity:1;fill-rule:evenodd;stroke:none"
         transform="matrix(1.3333333,0,0,-1.3333333,243.8932,406.35933)"
         clip-path="url(#clipPath83)" />
      <path
         id="path84"
         d="m 0,0 h 147.586 l 44.355,-17.737 -248.02,6.019 L -43.54,0 Z"
         style="fill:#c15c36;fill-opacity:1;fill-rule:evenodd;stroke:none"
         transform="matrix(1.3333333,0,0,-1.3333333,119.5032,767.72267)"
         clip-path="url(#clipPath85)" />
      <path
         id="path86"
         d="m 0,0 c -13.798,-28.286 -35.471,-51.214 -64.606,-69.06 h -57.314 l 18.719,58.325 -8.021,11.793 -18.68,-70.118 h -4.844 l 17.381,74.13 6.508,-3.489 10.89,-10.565 83.297,-0.246 z"
         style="fill:#c15c36;fill-opacity:1;fill-rule:evenodd;stroke:none"
         transform="matrix(1.3333333,0,0,-1.3333333,358.3744,788.76693)"
         clip-path="url(#clipPath87)" />
      <path
         id="path88"
         d="m 0,0 -80.045,72.784 8.134,-5.639 82.042,-3.096 2.336,7.008 L 6.078,0 Z"
         style="fill:#c15c36;fill-opacity:1;fill-rule:evenodd;stroke:none"
         transform="matrix(1.3333333,0,0,-1.3333333,170.2448,880.8464)"
         clip-path="url(#clipPath89)" />
      <path
         id="path90"
         d="M 0,0 H -69.872 L -90.094,-5.896 27.062,-3.895 20.612,0 Z"
         style="fill:#e07345;fill-opacity:1;fill-rule:evenodd;stroke:none"
         transform="matrix(1.3333333,0,0,-1.3333333,692.6524,635.388)"
         clip-path="url(#clipPath91)" />
      <path
         id="path92"
         d="m 0,0 -16.728,28.407 3.282,3.92 L 3.579,-0.981 Z M -66.055,31.975 C -52.484,15.554 -28.265,4.562 5.65,-1.482 l -16.363,35.143 -2.928,-1.159 -4.694,-3.516 -39.424,-0.08 z"
         style="fill:#e07345;fill-opacity:1;fill-rule:evenodd;stroke:none"
         transform="matrix(1.3333333,0,0,-1.3333333,668.55853,685.01693)"
         clip-path="url(#clipPath93)" />
      <path
         id="path94"
         d="M 0,0 37.143,25.896 33.539,24.021 -5.167,22.99 -6.579,25.321 Z"
         style="fill:#e07345;fill-opacity:1;fill-rule:evenodd;stroke:none"
         transform="matrix(1.3333333,0,0,-1.3333333,670.3372,675.25907)"
         clip-path="url(#clipPath95)" />
    </g>
  </g>
</svg>
