<?xml version="1.0" encoding="UTF-8" standalone="no"?>
<!-- Created with Inkscape (http://www.inkscape.org/) -->

<svg
   version="1.1"
   id="svg1"
   width="880"
   height="880"
   viewBox="0 0 880 880"
   sodipodi:docname="bbq.svg"
   inkscape:version="1.3.2 (091e20e, 2023-11-25, custom)"
   xmlns:inkscape="http://www.inkscape.org/namespaces/inkscape"
   xmlns:sodipodi="http://sodipodi.sourceforge.net/DTD/sodipodi-0.dtd"
   xmlns="http://www.w3.org/2000/svg"
   xmlns:svg="http://www.w3.org/2000/svg">
  <defs
     id="defs1">
    <clipPath
       clipPathUnits="userSpaceOnUse"
       id="clipPath8">
      <path
         d="M 0,660 H 660 V 0 H 0 Z"
         transform="translate(-105.7075,-344.76031)"
         id="path8" />
    </clipPath>
    <clipPath
       clipPathUnits="userSpaceOnUse"
       id="clipPath10">
      <path
         d="M 0,660 H 660 V 0 H 0 Z"
         transform="translate(-91.104002,-249.73831)"
         id="path10" />
    </clipPath>
    <clipPath
       clipPathUnits="userSpaceOnUse"
       id="clipPath12">
      <path
         d="M 0,660 H 660 V 0 H 0 Z"
         transform="translate(-56.223101,-387.89401)"
         id="path12" />
    </clipPath>
    <clipPath
       clipPathUnits="userSpaceOnUse"
       id="clipPath14">
      <path
         d="M 0,660 H 660 V 0 H 0 Z"
         transform="translate(-342.47751,-659.53222)"
         id="path14" />
    </clipPath>
    <clipPath
       clipPathUnits="userSpaceOnUse"
       id="clipPath16">
      <path
         d="M 0,660 H 660 V 0 H 0 Z"
         transform="translate(-448.54301,-211.98241)"
         id="path16" />
    </clipPath>
    <clipPath
       clipPathUnits="userSpaceOnUse"
       id="clipPath18">
      <path
         d="M 0,660 H 660 V 0 H 0 Z"
         id="path18" />
    </clipPath>
    <clipPath
       clipPathUnits="userSpaceOnUse"
       id="clipPath20">
      <path
         d="M 0,660 H 660 V 0 H 0 Z"
         id="path20" />
    </clipPath>
    <clipPath
       clipPathUnits="userSpaceOnUse"
       id="clipPath22">
      <path
         d="M 0,660 H 660 V 0 H 0 Z"
         id="path22" />
    </clipPath>
    <clipPath
       clipPathUnits="userSpaceOnUse"
       id="clipPath24">
      <path
         d="M 0,660 H 660 V 0 H 0 Z"
         id="path24" />
    </clipPath>
    <clipPath
       clipPathUnits="userSpaceOnUse"
       id="clipPath26">
      <path
         d="M 0,660 H 660 V 0 H 0 Z"
         transform="translate(-448.35061,-216.4648)"
         id="path26" />
    </clipPath>
    <clipPath
       clipPathUnits="userSpaceOnUse"
       id="clipPath28">
      <path
         d="M 0,660 H 660 V 0 H 0 Z"
         id="path28" />
    </clipPath>
    <clipPath
       clipPathUnits="userSpaceOnUse"
       id="clipPath30">
      <path
         d="M 0,660 H 660 V 0 H 0 Z"
         id="path30" />
    </clipPath>
    <clipPath
       clipPathUnits="userSpaceOnUse"
       id="clipPath32">
      <path
         d="M 0,660 H 660 V 0 H 0 Z"
         id="path32" />
    </clipPath>
    <clipPath
       clipPathUnits="userSpaceOnUse"
       id="clipPath34">
      <path
         d="M 0,660 H 660 V 0 H 0 Z"
         id="path34" />
    </clipPath>
    <clipPath
       clipPathUnits="userSpaceOnUse"
       id="clipPath36">
      <path
         d="M 0,660 H 660 V 0 H 0 Z"
         transform="translate(-278.65381,-354.43411)"
         id="path36" />
    </clipPath>
    <clipPath
       clipPathUnits="userSpaceOnUse"
       id="clipPath38">
      <path
         d="M 0,660 H 660 V 0 H 0 Z"
         transform="translate(-311.24851,-375.06541)"
         id="path38" />
    </clipPath>
    <clipPath
       clipPathUnits="userSpaceOnUse"
       id="clipPath40">
      <path
         d="M 0,660 H 660 V 0 H 0 Z"
         transform="translate(-343.84381,-375.06541)"
         id="path40" />
    </clipPath>
    <clipPath
       clipPathUnits="userSpaceOnUse"
       id="clipPath42">
      <path
         d="M 0,660 H 660 V 0 H 0 Z"
         transform="translate(-376.43751,-375.06541)"
         id="path42" />
    </clipPath>
    <clipPath
       clipPathUnits="userSpaceOnUse"
       id="clipPath44">
      <path
         d="M 0,660 H 660 V 0 H 0 Z"
         transform="translate(-409.03221,-375.06541)"
         id="path44" />
    </clipPath>
    <clipPath
       clipPathUnits="userSpaceOnUse"
       id="clipPath46">
      <path
         d="M 0,660 H 660 V 0 H 0 Z"
         transform="translate(-441.62701,-375.06541)"
         id="path46" />
    </clipPath>
    <clipPath
       clipPathUnits="userSpaceOnUse"
       id="clipPath48">
      <path
         d="M 0,660 H 660 V 0 H 0 Z"
         transform="translate(-474.22071,-354.43411)"
         id="path48" />
    </clipPath>
    <clipPath
       clipPathUnits="userSpaceOnUse"
       id="clipPath50">
      <path
         d="M 0,660 H 660 V 0 H 0 Z"
         transform="translate(-77.284202,-419.70021)"
         id="path50" />
    </clipPath>
  </defs>
  <sodipodi:namedview
     id="namedview1"
     pagecolor="#ffffff"
     bordercolor="#000000"
     borderopacity="0.25"
     inkscape:showpageshadow="2"
     inkscape:pageopacity="0.0"
     inkscape:pagecheckerboard="0"
     inkscape:deskcolor="#d1d1d1"
     inkscape:zoom="0.67272727"
     inkscape:cx="439.25676"
     inkscape:cy="440"
     inkscape:window-width="1440"
     inkscape:window-height="830"
     inkscape:window-x="-6"
     inkscape:window-y="-6"
     inkscape:window-maximized="1"
     inkscape:current-layer="g1">
    <inkscape:page
       x="0"
       y="0"
       inkscape:label="1"
       id="page1"
       width="880"
       height="880"
       margin="0 0 0.62266666 0.80798399"
       bleed="0" />
  </sodipodi:namedview>
  <g
     id="g1"
     inkscape:groupmode="layer"
     inkscape:label="1">
    <g
       id="group-MC0">
      <path
         id="path2"
         d="M 0.606,0 H 660 V 659.534 H 0.606 Z"
         style="fill:#e0f1fb;fill-opacity:1;fill-rule:nonzero;stroke:none"
         transform="matrix(1.3333333,0,0,-1.3333333,0,880)" />
      <path
         id="path3"
         d="M 0,0 512.656,-4.714 V 6.43 Z m -146.738,-92.841 635.013,19.772 -635.013,11.174 z m 267.946,-30.087 391.448,-3.427 v 12.706 z"
         style="fill:#f4fbfe;fill-opacity:1;fill-rule:nonzero;stroke:none"
         transform="matrix(1.3333333,0,0,-1.3333333,196.458,59.9836)" />
      <path
         id="path4"
         d="M 0,0 18.824,-183.715 H -126.298 L -120.651,0 Z"
         style="fill:#e1a04a;fill-opacity:1;fill-rule:evenodd;stroke:none"
         transform="matrix(1.3333333,0,0,-1.3333333,284.13613,362.808)" />
      <path
         id="path5"
         d="M 0,0 -19.122,11.04 H -137.757 L -120.651,0 Z"
         style="fill:#da8a38;fill-opacity:1;fill-rule:evenodd;stroke:none"
         transform="matrix(1.3333333,0,0,-1.3333333,284.13613,362.808)" />
      <path
         id="path6"
         d="M 0,0 -35.839,-183.715 H 109.283 L 120.651,0 Z"
         style="fill:#f7af59;fill-opacity:1;fill-rule:evenodd;stroke:none"
         transform="matrix(1.3333333,0,0,-1.3333333,74.964133,362.808)" />
      <path
         id="path7"
         d="m 0,0 c 25.875,0 45.327,-23.408 43.446,-52.281 -1.88,-28.873 -24.381,-52.279 -50.256,-52.279 -25.875,0 -45.327,23.406 -43.446,52.279 C -48.376,-23.408 -25.876,0 0,0"
         style="fill:#da8a38;fill-opacity:1;fill-rule:evenodd;stroke:none"
         transform="matrix(1.3333333,0,0,-1.3333333,140.94333,420.3196)"
         clip-path="url(#clipPath8)" />
      <path
         id="path9"
         d="M 0,0 C -8.143,3.427 -13.744,12.294 -13.419,22.694 -13.642,55.438 12.676,58.859 10.952,85.482 27.779,71.855 35.714,47.062 33.562,26.617 32.386,15.43 26.727,4.659 16.969,0.4 20.561,3.544 22.727,8.458 23.338,13.516 24.793,25.552 20.351,40.145 10.57,48.17 11.339,32.497 -4.185,30.481 -4.356,11.207 -4.568,6.658 -2.85,2.609 0,0"
         style="fill:#f9cc78;fill-opacity:1;fill-rule:evenodd;stroke:none"
         transform="matrix(1.3333333,0,0,-1.3333333,121.472,547.0156)"
         clip-path="url(#clipPath10)" />
      <path
         id="path11"
         d="M 0,0 19.122,11.04 H 137.757 L 120.651,0 Z"
         style="fill:#f9cc78;fill-opacity:1;fill-rule:evenodd;stroke:none"
         transform="matrix(1.3333333,0,0,-1.3333333,74.964133,362.808)"
         clip-path="url(#clipPath12)" />
      <path
         id="path13"
         d="m 0,0 h 272.084 c -5.792,-19.826 -24.105,-34.311 -45.8,-34.311 -6.564,0 -12.818,1.326 -18.511,3.725 -0.696,-23.953 -15.572,-44.348 -36.526,-53.088 -0.405,-12.772 -7.143,-23.944 -17.179,-30.485 3.011,-5.291 4.733,-11.412 4.733,-17.935 0,-0.414 -0.009,-0.826 -0.02,-1.236 11.459,-3.523 19.792,-14.193 19.792,-26.811 0,-15.489 -12.555,-28.045 -28.048,-28.045 -3.592,0 -7.026,0.676 -10.185,1.908 -2.919,-8.661 -10.589,-15.135 -19.912,-16.325 0.359,-1.729 0.549,-3.52 0.549,-5.355 0,-14.479 -11.74,-26.219 -26.219,-26.219 -14.48,0 -26.219,11.74 -26.219,26.219 0,13.977 10.938,25.399 24.719,26.175 -0.145,1.07 -0.22,2.16 -0.22,3.267 0,6.881 2.862,13.092 7.459,17.511 -8.711,6.635 -14.336,17.114 -14.336,28.911 0,5.618 1.278,10.938 3.556,15.687 -9.982,2.769 -17.31,11.919 -17.31,22.781 0,1.945 0.238,3.834 0.679,5.643 -23.511,0.655 -42.37,19.92 -42.37,43.59 0,5.832 1.144,11.396 3.223,16.48 C 18.578,-24.758 5.945,-14.132 0,0"
         style="fill:#ffffff;fill-opacity:1;fill-rule:evenodd;stroke:none"
         transform="matrix(1.3333333,0,0,-1.3333333,456.63667,0.62373333)"
         clip-path="url(#clipPath14)" />
      <path
         id="path15"
         d="M 0,0 C 6.559,26.062 7.165,54.036 -0.477,84.664 -5.184,74.435 -6.215,57.104 -4.279,34.038 -3.683,29.83 -3.25,25.569 -2.976,21.26 -2.184,14.558 -1.187,7.463 0,0 m 9.418,-33.444 c -0.601,-2.364 -1.235,-4.727 -1.907,-7.09 0.512,-2.472 1.038,-4.971 1.577,-7.495 0.607,1.22 1.199,2.444 1.775,3.675 -0.55,3.635 -1.035,7.273 -1.445,10.91 m 7.19,58.452 c -0.403,-15.567 0.81,-30.458 3.369,-44.784 0.267,0.981 0.522,1.965 0.767,2.953 C 18.372,-0.946 17,12.986 16.608,25.008 m 32.26,-21.19 c 5.44,20.145 7.331,41.432 4.603,64.203 C 48.784,45.3 47.472,23.991 48.868,3.818 m -212.114,12.637 c -0.392,-12.024 -1.764,-25.958 -4.136,-41.84 0.245,-0.986 0.5,-1.97 0.767,-2.951 2.56,14.329 3.774,29.222 3.369,44.791 m -32.259,-21.19 c 1.397,20.172 0.084,41.482 -4.603,64.203 -2.727,-22.772 -0.837,-44.058 4.603,-64.203 m 51.564,-3.251 c 6.56,26.058 7.167,54.03 -0.472,84.655 -6.799,-14.776 -5.933,-44.363 0.472,-84.655 m 19.377,32.787 c -0.402,-15.569 0.811,-30.462 3.371,-44.791 0.266,0.981 0.522,1.965 0.767,2.951 -2.373,15.882 -3.744,29.817 -4.138,41.84 m 85.547,51.283 c 1.711,-3.47 3.287,-6.939 4.731,-10.409 -0.77,5.747 -2.016,10.571 -3.778,14.402 -0.333,-1.337 -0.65,-2.668 -0.953,-3.993 m 0.478,-80.669 c 2.837,17.843 4.589,33.588 5.068,46.875 -1.061,10.188 -3.047,20.67 -6.056,31.482 -6.066,-28.172 -5.12,-54.094 0.988,-78.357 m -11.878,-22.794 c -0.469,-4.594 -1.058,-9.185 -1.754,-13.779 1.075,-2.29 2.203,-4.564 3.384,-6.821 0.74,1.637 1.46,3.283 2.155,4.934 -1.44,5.223 -2.705,10.444 -3.785,15.666 m -7.499,55.584 c -0.392,-12.021 -1.765,-25.954 -4.136,-41.833 0.244,-0.988 0.501,-1.972 0.768,-2.952 2.559,14.326 3.772,29.217 3.368,44.785 m -12.227,-65.607 -3.59,-0.854 c 1.188,-3.93 2.435,-7.943 3.742,-12.038 0.61,1.805 1.199,3.618 1.768,5.44 -0.691,2.483 -1.33,4.968 -1.92,7.452 m -370.43,63.589 c -0.403,-15.571 0.81,-30.463 3.371,-44.791 0.266,0.98 0.521,1.963 0.767,2.95 -2.373,15.882 -3.746,29.816 -4.138,41.841 m 32.26,-21.191 c 5.44,20.145 7.331,41.432 4.603,64.203 -4.686,-22.72 -6,-44.03 -4.603,-64.203 m 134.926,38.334 c -0.472,2.817 -1.016,5.658 -1.63,8.524 -0.412,-2.197 -0.78,-4.379 -1.108,-6.548 0.935,-0.591 1.847,-1.249 2.738,-1.976 m -107.978,25.958 c 0.465,-1.019 0.919,-2.039 1.361,-3.059 1.405,3.007 2.882,6.004 4.434,8.982 -2.27,-1.319 -4.196,-3.306 -5.795,-5.923 m -0.432,-7.001 c -0.32,1.417 -0.661,2.842 -1.017,4.269 -1.988,-4.315 -3.321,-9.898 -4.051,-16.643 1.561,4.152 3.249,8.277 5.068,12.374 M -382.34,-18.1 c 5.411,21.504 6.77,44.309 2.788,68.832 -3.341,-12.54 -5.587,-24.865 -6.875,-37 0.877,-9.672 2.256,-20.315 4.087,-31.832 m 19.376,32.791 c -0.403,-15.57 0.811,-30.462 3.37,-44.792 0.267,0.982 0.522,1.965 0.768,2.952 -2.373,15.881 -3.746,29.815 -4.138,41.84 m 87.091,-22.424 c 1.984,13.465 3.294,25.629 3.843,36.32 -1.345,4.074 -2.979,7.592 -4.924,10.511 -1.886,-16.332 -1.392,-31.901 1.081,-46.831 m 3.188,63.282 c -0.196,1.462 -0.423,2.864 -0.68,4.207 -0.131,-0.567 -0.26,-1.135 -0.385,-1.701 0.363,-0.834 0.718,-1.671 1.065,-2.506 m -5.245,8.111 c -0.999,-4.644 -1.808,-9.227 -2.435,-13.751 1.081,3.173 2.268,6.348 3.564,9.523 -0.359,1.404 -0.735,2.812 -1.129,4.228 m 1.466,6.307 c -0.333,-1.337 -0.651,-2.668 -0.954,-3.994 0.615,-1.245 1.211,-2.493 1.79,-3.738 0.355,0.828 0.716,1.655 1.086,2.48 -0.554,1.917 -1.194,3.67 -1.922,5.252 m -32.08,-117.48 -3.588,-0.854 c 1.187,-3.93 2.434,-7.942 3.74,-12.037 0.61,1.803 1.2,3.616 1.768,5.438 -0.69,2.485 -1.331,4.968 -1.92,7.453 m 501.821,51.84 c 6.562,26.063 7.163,54.038 -0.475,84.666 -4.707,-10.229 -5.74,-27.559 -3.804,-50.626 0.597,-4.209 1.03,-8.469 1.302,-12.78 0.795,-6.701 1.791,-13.797 2.977,-21.26 M 71.81,-5.393 c -0.598,4.434 -1.113,8.706 -1.543,12.814 -1.058,-12.551 -1.103,-24.9 -0.287,-37.083 0.435,8.66 1.044,16.748 1.83,24.269 M 89.922,4.2 C 91.044,-0.119 92.261,-4.574 93.573,-9.16 93.014,-4 92.586,0.906 92.283,5.562 91.338,16.656 91.06,26.45 91.444,34.959 90.213,26.097 89.74,15.779 89.922,4.2 m 63.826,73.902 c -0.693,-3.225 -1.296,-6.421 -1.808,-9.588 3.655,-11.296 5.983,-22.59 7.148,-33.884 0.338,4.192 0.582,8.192 0.719,11.991 -1.061,10.186 -3.048,20.668 -6.059,31.481 m 1.467,6.303 c -0.336,-1.337 -0.653,-2.667 -0.954,-3.992 1.712,-3.47 3.285,-6.939 4.728,-10.409 -0.766,5.747 -2.014,10.571 -3.774,14.401 M 137.991,55.113 c 0.968,-3.942 1.816,-7.886 2.549,-11.831 0.72,4.649 1.643,9.295 2.784,13.942 -1.908,-0.45 -3.685,-1.156 -5.333,-2.111 m 74.91,15.12 V 31.484 c -0.106,1.922 -0.187,3.799 -0.249,5.632 -0.156,-6.058 -0.067,-12.012 0.249,-17.873 v -81.348 c -1.435,5.81 -2.722,11.621 -3.844,17.431 l -6.915,3.014 c 1.69,3.103 3.28,6.239 4.768,9.408 -0.696,4.596 -1.287,9.193 -1.757,13.787 -1.22,-5.913 -2.683,-11.828 -4.365,-17.741 2.854,-13.779 6.137,-28.384 9.788,-43.708 -9.024,2.995 -18.052,5.991 -27.076,8.986 -1.014,7.594 -1.928,14.922 -2.748,21.996 l -12.335,0.381 -0.618,-0.27 c -0.952,-8.51 -2.046,-17.404 -3.283,-26.69 -9.028,-2.996 -18.052,-5.991 -27.08,-8.987 1.943,8.147 3.782,16.089 5.505,23.814 l -5.703,2.485 c 0.929,1.707 1.833,3.422 2.714,5.144 l -1.605,0.701 c -1.364,-6.704 -2.942,-13.407 -4.707,-20.11 l -8.479,4.819 c 0.14,-1.101 0.282,-2.207 0.428,-3.318 -8.594,2.15 -17.188,4.299 -25.78,6.447 0.075,4.727 0.192,9.309 0.354,13.753 l -0.318,0.077 c -0.641,3.455 -1.245,6.834 -1.808,10.14 l -5.16,1.228 c 0.638,-5.929 1.371,-12.039 2.193,-18.321 l -22.63,5.662 c 0.599,-3.932 1.28,-7.847 2.04,-11.747 l -9.122,-2.959 c 0.504,-1.263 1.019,-2.524 1.542,-3.782 -5.589,-3.174 -11.174,-6.348 -16.761,-9.523 -3.119,11.82 -5.642,23.639 -7.442,35.461 l -3.179,1.385 -10.683,2.544 c -0.591,-2.485 -1.229,-4.968 -1.92,-7.454 2.379,-7.616 5.121,-15.081 8.18,-22.413 -5.589,-3.174 -11.176,-6.348 -16.765,-9.523 -2.039,7.734 -3.825,15.47 -5.319,23.206 l -2.239,0.975 c 2.015,-9.166 4.195,-18.655 6.529,-28.436 -9.027,2.995 -18.054,5.991 -27.079,8.986 -1.012,7.594 -1.927,14.922 -2.748,21.996 l -12.335,0.381 -0.618,-0.27 c -0.951,-8.509 -2.045,-17.404 -3.283,-26.69 -9.026,-2.996 -18.053,-5.991 -27.078,-8.987 1.942,8.147 3.779,16.089 5.503,23.813 l -5.7,2.486 c 1.892,3.481 3.689,6.994 5.384,10.54 l -3.664,-1.599 c -1.497,-7.734 -3.282,-15.47 -5.322,-23.206 -5.587,3.176 -11.175,6.351 -16.761,9.525 1.034,2.48 2.03,4.975 2.991,7.486 l -20.022,4.767 c -0.643,3.457 -1.243,6.832 -1.807,10.14 l -17.098,4.069 c -0.591,-2.484 -1.229,-4.967 -1.92,-7.453 2.379,-7.616 5.119,-15.081 8.178,-22.413 -5.587,-3.174 -11.175,-6.348 -16.763,-9.523 -2.04,7.735 -3.826,15.469 -5.32,23.206 l -6.913,3.012 c 1.689,3.105 3.281,6.241 4.767,9.408 -0.697,4.596 -1.287,9.194 -1.756,13.79 -1.221,-5.914 -2.684,-11.826 -4.365,-17.741 2.854,-13.779 6.133,-28.382 9.789,-43.709 -9.027,2.995 -18.052,5.991 -27.079,8.986 -0.89,6.68 -1.702,13.148 -2.446,19.426 l -3.484,-1.52 c -1.495,-7.734 -3.279,-15.47 -5.319,-23.204 -5.588,3.174 -11.176,6.349 -16.763,9.523 3.059,7.332 5.799,14.796 8.178,22.414 -0.691,2.483 -1.329,4.968 -1.92,7.453 l -10.684,-2.545 -3.177,-1.385 c -1.801,-11.82 -4.325,-23.641 -7.442,-35.46 -5.587,3.174 -11.175,6.349 -16.762,9.523 0.524,1.257 1.038,2.518 1.543,3.783 l -9.122,2.959 c 0.758,3.899 1.44,7.814 2.039,11.744 l -22.631,-5.659 c 4.991,38.14 6.755,70.072 3.628,92.597 0.878,-19.566 -1.729,-45.922 -7.926,-79.272 l -1.053,-0.252 c 0.298,-6.349 0.504,-12.995 0.613,-19.95 l -19.16,-4.793 c -0.491,-3.956 -1.009,-7.982 -1.556,-12.089 -9.027,-2.996 -18.052,-5.991 -27.079,-8.987 1.943,8.147 3.78,16.088 5.504,23.813 l -5.701,2.485 c 1.762,3.241 3.441,6.508 5.031,9.803 l -3.434,-1.497 c -1.471,-7.523 -3.214,-15.047 -5.198,-22.57 -5.588,3.174 -11.175,6.35 -16.762,9.525 1.033,2.48 2.03,4.975 2.99,7.485 l -20.021,4.766 c -0.642,3.459 -1.242,6.832 -1.808,10.14 l -17.097,4.072 c -0.589,-2.485 -1.229,-4.969 -1.92,-7.454 2.378,-7.616 5.12,-15.081 8.179,-22.413 -5.587,-3.174 -11.176,-6.349 -16.763,-9.524 -2.04,7.736 -3.825,15.471 -5.32,23.205 l -6.913,3.014 c 1.688,3.105 3.28,6.238 4.767,9.408 -0.698,4.597 -1.288,9.195 -1.757,13.792 -1.222,-5.915 -2.684,-11.831 -4.365,-17.746 2.853,-13.779 6.135,-28.384 9.789,-43.709 -9.025,2.996 -18.052,5.993 -27.078,8.989 -0.989,7.413 -1.885,14.577 -2.691,21.494 l -12.235,-6.952 c -3.116,11.821 -5.641,23.641 -7.44,35.46 l -3.178,1.386 -10.684,2.545 c -0.589,-2.485 -1.229,-4.97 -1.919,-7.453 2.378,-7.617 5.119,-15.082 8.178,-22.413 -5.587,-3.175 -11.176,-6.35 -16.763,-9.525 -2.04,7.735 -3.825,15.471 -5.32,23.206 l -3.484,1.519 -0.283,-2.366 V 77.263 c 2.404,-7.134 4.083,-16.235 5.025,-27.34 0.928,3.691 1.96,7.381 3.104,11.07 l -0.1,0.318 0.125,-0.237 c 1.874,6.036 4.039,12.073 6.52,18.11 -1.015,-4.141 -1.919,-8.233 -2.717,-12.281 4.638,12.145 12.674,17.667 24.011,16.759 -20.95,-3.237 -19.853,-37.036 -5.629,-89.032 -0.189,25.916 3.821,51.834 13.477,77.752 -1.489,10.809 -4.018,21.956 -7.702,33.471 8.693,-16.219 14.348,-32.441 17.462,-48.661 2.479,7.447 5.742,12.764 9.775,15.989 -0.63,2.215 -1.299,4.441 -2.017,6.683 1.059,-1.975 2.066,-3.951 3.036,-5.926 2.65,1.834 5.613,2.821 8.886,2.963 3.765,7.085 7.957,14.081 12.609,20.982 -6.243,-13.134 -11.219,-26.019 -15.066,-38.684 4.306,-11.255 7.248,-22.512 8.994,-33.767 1.489,8.021 3.458,16.045 5.945,24.065 l -0.1,0.318 0.124,-0.236 c 1.874,6.035 4.039,12.073 6.521,18.109 -1.015,-4.14 -1.919,-8.233 -2.717,-12.281 4.638,12.145 12.674,17.667 24.011,16.76 -21.842,-3.375 -19.721,-39.967 -3.744,-95.771 -6.091,56.196 3.183,82.448 26.903,80.547 -18.965,-2.93 -19.859,-30.915 -9.303,-74.771 15.358,54.465 17.114,90.071 -4.415,93.397 11.336,0.91 19.373,-4.614 24.01,-16.76 -0.796,4.049 -1.701,8.141 -2.718,12.283 1.696,-4.124 3.247,-8.249 4.655,-12.372 3.173,10.072 7.4,20.143 12.797,30.216 -4.814,-15.051 -7.658,-29.468 -8.786,-43.332 1.514,-5.585 2.785,-11.172 3.822,-16.759 0.978,6.3 2.331,12.6 4.088,18.901 -1.452,0.59 -2.994,1.01 -4.627,1.253 1.705,0.141 3.363,0.129 4.974,-0.033 1.926,6.706 4.308,13.412 7.188,20.117 -0.252,0.822 -0.51,1.649 -0.775,2.474 0.344,-0.641 0.683,-1.282 1.016,-1.923 0.443,1.021 0.897,2.043 1.364,3.064 -2.483,4.068 -5.755,6.613 -9.883,7.502 4.566,0.51 8.595,-0.436 12.083,-2.853 0.969,1.973 1.976,3.948 3.034,5.921 -0.717,-2.242 -1.386,-4.466 -2.016,-6.68 1.381,-1.106 2.673,-2.457 3.873,-4.058 0.67,1.327 1.36,2.654 2.071,3.98 -0.514,-1.607 -1.006,-3.206 -1.475,-4.799 6.403,-9.207 10.076,-25.829 10.948,-50.058 1.727,-4.452 3.284,-9.453 4.669,-15.005 4.989,24.506 5.599,42.943 0.384,53.305 -2.102,1.194 -4.411,1.994 -6.937,2.372 1.936,0.158 3.811,0.117 5.627,-0.113 -2.597,3.861 -6.261,6.243 -11.104,6.991 9.178,0.735 16.19,-2.749 20.99,-10.545 16.507,-10.369 26.306,-42.27 29.028,-96.874 2.688,39.952 -3.907,81.725 -25.126,126.369 13.462,-19.974 23.078,-40.737 29.612,-62.136 1.393,23.369 7.615,46.737 20.139,70.104 -3.684,-11.516 -6.213,-22.66 -7.703,-33.472 9.656,-25.916 13.667,-51.833 13.477,-77.751 14.224,51.998 15.321,85.796 -5.627,89.032 11.336,0.909 19.371,-4.614 24.009,-16.759 -0.797,4.049 -1.701,8.142 -2.717,12.281 2.482,-6.036 4.648,-12.072 6.52,-18.109 l 0.126,0.236 -0.101,-0.317 c 1.145,-3.69 2.177,-7.379 3.105,-11.071 1.91,22.51 6.843,36.801 14.718,43.105 -0.63,2.213 -1.299,4.437 -2.015,6.679 1.057,-1.974 2.065,-3.947 3.033,-5.92 3.487,2.417 7.517,3.362 12.083,2.853 -4.127,-0.889 -7.398,-3.436 -9.881,-7.505 6.666,-14.619 10.956,-29.237 13.225,-43.856 1.489,8.021 3.456,16.041 5.944,24.06 l -0.101,0.32 0.125,-0.238 c 1.873,6.036 4.039,12.073 6.521,18.111 -1.016,-4.142 -1.919,-8.235 -2.717,-12.282 4.637,12.144 12.673,17.668 24.009,16.759 -21.84,-3.375 -19.72,-39.966 -3.741,-95.771 -6.092,56.197 3.181,82.448 26.901,80.548 -18.965,-2.931 -19.857,-30.915 -9.303,-74.772 15.359,54.465 17.114,90.072 -4.416,93.398 11.336,0.909 19.372,-4.612 24.01,-16.756 -0.796,4.047 -1.7,8.14 -2.716,12.278 2.483,-6.036 4.647,-12.073 6.521,-18.109 l 0.124,0.236 -0.1,-0.317 c 2.486,-8.017 4.454,-16.034 5.942,-24.051 2.083,13.41 5.865,26.822 11.624,40.233 -0.252,0.822 -0.511,1.648 -0.776,2.473 0.345,-0.641 0.683,-1.282 1.016,-1.923 0.444,1.022 0.897,2.043 1.363,3.065 -2.482,4.067 -5.754,6.612 -9.881,7.502 4.566,0.509 8.595,-0.437 12.083,-2.852 0.968,1.973 1.976,3.946 3.034,5.919 -0.718,-2.239 -1.385,-4.464 -2.016,-6.677 8.216,-6.576 13.23,-21.849 14.949,-46.074 -0.217,19.555 -3.268,39.109 -9.765,58.664 7.249,-9.583 12.974,-19.647 17.336,-30.144 2.61,10.723 6.458,18.082 11.524,22.137 -0.63,2.213 -1.299,4.438 -2.015,6.677 1.058,-1.973 2.065,-3.945 3.033,-5.918 3.489,2.415 7.518,3.36 12.083,2.852 -4.128,-0.89 -7.4,-3.434 -9.883,-7.5 C 7.19,73.758 11.339,60.12 13.711,46.48 c 1.064,4.448 2.284,8.891 3.661,13.335 l -0.1,0.319 0.125,-0.237 c 1.873,6.035 4.039,12.073 6.522,18.11 -1.018,-4.142 -1.92,-8.235 -2.718,-12.282 4.64,12.144 12.673,17.669 24.009,16.759 C 24.263,79.248 25.359,45.45 39.583,-6.549 39.392,19.369 43.405,45.286 53.059,71.204 51.571,82.014 49.041,93.159 45.358,104.675 57.881,81.308 64.104,57.94 65.495,34.571 c 1.025,3.353 2.124,6.691 3.305,10.013 1.198,23.931 7.704,37.517 19.331,41.128 2.202,3.689 4.524,7.355 6.978,10.993 -1.662,-3.492 -3.231,-6.971 -4.717,-10.43 2.155,0.415 4.461,0.53 6.925,0.33 -3.363,-0.52 -6.153,-1.832 -8.417,-3.877 -2.826,-6.838 -5.314,-13.609 -7.48,-20.319 -0.358,-5.477 -0.106,-11.8 0.697,-18.888 4.488,11.568 10.127,19.439 16.894,23.69 4.798,7.796 11.811,11.28 20.99,10.545 -4.844,-0.748 -8.507,-3.13 -11.105,-6.991 1.361,0.174 2.751,0.239 4.179,0.196 2.289,0.49 4.754,0.635 7.401,0.422 -12.201,-1.886 -16.921,-14.14 -15.927,-34.315 0.646,-6.604 1.802,-13.915 3.422,-21.867 3.546,14.222 8.221,24.818 14.003,31.864 2.848,25.294 -1.364,40.803 -15.215,42.944 11.336,0.909 19.373,-4.614 24.009,-16.759 -0.797,4.049 -1.701,8.142 -2.716,12.281 2.481,-6.036 4.647,-12.072 6.519,-18.107 l 0.126,0.234 -0.1,-0.314 c 1.054,-3.408 2.017,-6.816 2.89,-10.223 1.908,0.4 3.89,0.572 5.944,0.52 0.904,3.649 1.942,7.298 3.123,10.948 -1.537,9.374 -3.848,18.999 -7.016,28.899 3.795,-7.082 7.01,-14.163 9.688,-21.244 0.916,2.426 1.895,4.852 2.935,7.279 -0.251,0.823 -0.509,1.647 -0.774,2.473 0.343,-0.641 0.682,-1.282 1.015,-1.923 0.443,1.022 0.899,2.043 1.363,3.065 -2.482,4.067 -5.753,6.612 -9.881,7.502 4.564,0.509 8.596,-0.437 12.083,-2.852 0.968,1.973 1.976,3.946 3.034,5.919 -0.717,-2.24 -1.386,-4.464 -2.015,-6.677 8.215,-6.576 13.23,-21.849 14.948,-46.074 -0.218,19.555 -3.268,39.109 -9.766,58.663 7.248,-9.582 12.977,-19.646 17.339,-30.142 2.607,10.722 6.458,18.082 11.523,22.136 -0.63,2.212 -1.299,4.438 -2.014,6.677 1.057,-1.973 2.064,-3.945 3.03,-5.918 3.489,2.415 7.518,3.36 12.083,2.852 -4.128,-0.89 -7.399,-3.434 -9.881,-7.5 6.668,-14.621 10.955,-29.241 13.228,-43.861 1.382,7.456 3.181,14.912 5.425,22.37"
         style="fill:#549d34;fill-opacity:1;fill-rule:evenodd;stroke:none"
         transform="matrix(1.3333333,0,0,-1.3333333,598.05733,597.3568)"
         clip-path="url(#clipPath16)" />
      <path
         id="path17"
         d="m 360.962,175.625 h 16.334 v 266.918 h -16.334 z"
         style="fill:#2f2825;fill-opacity:1;fill-rule:evenodd;stroke:none"
         transform="matrix(1.3333333,0,0,-1.3333333,0,880)"
         clip-path="url(#clipPath18)" />
      <path
         id="path19"
         d="m 248.348,175.625 h 16.334 v 266.918 h -16.334 z"
         style="fill:#2f2825;fill-opacity:1;fill-rule:evenodd;stroke:none"
         transform="matrix(1.3333333,0,0,-1.3333333,0,880)"
         clip-path="url(#clipPath20)" />
      <path
         id="path21"
         d="m 493.775,175.625 h 16.334 v 266.918 h -16.334 z"
         style="fill:#2f2825;fill-opacity:1;fill-rule:evenodd;stroke:none"
         transform="matrix(1.3333333,0,0,-1.3333333,0,880)"
         clip-path="url(#clipPath22)" />
      <path
         id="path23"
         d="m 605.529,175.625 h 16.333 v 266.918 h -16.333 z"
         style="fill:#2f2825;fill-opacity:1;fill-rule:evenodd;stroke:none"
         transform="matrix(1.3333333,0,0,-1.3333333,0,880)"
         clip-path="url(#clipPath24)" />
      <path
         id="path25"
         d="M 0,0 C 6.054,12.267 6.612,25.434 -0.441,39.851 -4.785,35.035 -5.738,26.878 -3.95,16.021 -3.4,14.041 -3,12.034 -2.748,10.006 -2.017,6.852 -1.096,3.512 0,0 m 8.694,-15.743 c -0.555,-1.112 -1.142,-2.225 -1.761,-3.337 0.472,-1.164 0.958,-2.34 1.455,-3.528 0.56,0.574 1.106,1.151 1.639,1.728 -0.509,1.713 -0.956,3.424 -1.333,5.137 m 6.636,27.514 c -0.372,-7.329 0.747,-14.336 3.109,-21.081 0.246,0.462 0.483,0.925 0.708,1.389 -2.188,7.475 -3.456,14.032 -3.817,19.692 M 45.106,1.797 c 5.023,9.481 6.769,19.501 4.25,30.22 C 45.03,21.322 43.819,11.291 45.106,1.797 m -195.791,5.947 c -0.361,-5.659 -1.629,-12.219 -3.82,-19.694 0.227,-0.464 0.462,-0.926 0.708,-1.388 2.365,6.744 3.484,13.754 3.112,21.082 m -29.778,-9.974 c 1.289,9.496 0.077,19.527 -4.249,30.22 -2.517,-10.718 -0.773,-20.738 4.249,-30.22 m 47.598,-1.53 c 6.054,12.266 6.614,25.433 -0.438,39.847 -6.276,-6.955 -5.475,-20.881 0.438,-39.847 m 17.885,15.433 c -0.373,-7.328 0.748,-14.338 3.11,-21.083 0.247,0.461 0.481,0.925 0.708,1.389 -2.188,7.475 -3.455,14.035 -3.818,19.694 m 78.964,24.139 c 1.581,-1.633 3.034,-3.266 4.367,-4.899 -0.709,2.704 -1.861,4.976 -3.487,6.777 -0.307,-0.627 -0.601,-1.254 -0.88,-1.878 m 0.442,-37.971 c 2.618,8.399 4.235,15.809 4.677,22.065 -0.979,4.793 -2.812,9.728 -5.59,14.819 -5.599,-13.262 -4.724,-25.464 0.913,-36.884 m -10.964,-10.729 c -0.432,-2.163 -0.977,-4.324 -1.62,-6.486 0.992,-1.077 2.033,-2.147 3.123,-3.211 0.685,0.771 1.349,1.546 1.99,2.322 -1.328,2.459 -2.496,4.917 -3.493,7.375 m -6.923,26.163 c -0.36,-5.659 -1.628,-12.217 -3.818,-19.69 0.226,-0.466 0.462,-0.929 0.71,-1.391 2.361,6.744 3.48,13.754 3.108,21.081 m -11.285,-30.881 -3.314,-0.403 c 1.096,-1.849 2.247,-3.738 3.453,-5.665 0.563,0.85 1.107,1.702 1.632,2.56 -0.636,1.17 -1.227,2.339 -1.771,3.508 m -341.929,29.931 c -0.372,-7.329 0.748,-14.339 3.111,-21.084 0.246,0.462 0.482,0.925 0.707,1.39 -2.189,7.475 -3.456,14.035 -3.818,19.694 m 29.777,-9.974 c 5.023,9.482 6.767,19.503 4.249,30.22 -4.326,-10.695 -5.537,-20.725 -4.249,-30.22 M -424.495,0.82 c 5.913,18.965 6.713,32.893 0.437,39.847 -7.051,-14.415 -6.492,-27.581 -0.437,-39.847 m -17.886,15.434 c -0.362,-5.659 -1.629,-12.219 -3.818,-19.694 0.226,-0.465 0.462,-0.928 0.708,-1.39 2.363,6.744 3.483,13.756 3.11,21.084 m 190.027,4.141 c -0.435,1.326 -0.936,2.664 -1.504,4.012 -0.379,-1.034 -0.72,-2.062 -1.022,-3.083 0.863,-0.276 1.704,-0.587 2.526,-0.929 m -99.67,12.218 c 0.431,-0.48 0.849,-0.96 1.257,-1.44 1.297,1.416 2.661,2.827 4.093,4.228 -2.095,-0.621 -3.873,-1.555 -5.35,-2.788 m -0.398,-3.295 c -0.296,0.667 -0.61,1.336 -0.938,2.009 -1.836,-2.031 -3.066,-4.659 -3.741,-7.834 1.442,1.953 2.999,3.896 4.679,5.825 m -0.501,-37.838 c 4.995,10.121 6.249,20.855 2.573,32.398 -3.084,-5.901 -5.157,-11.702 -6.345,-17.415 0.808,-4.552 2.081,-9.562 3.772,-14.983 m 17.886,15.435 c -0.373,-7.33 0.747,-14.34 3.11,-21.084 0.246,0.462 0.481,0.925 0.708,1.39 -2.19,7.475 -3.457,14.034 -3.818,19.694 m 80.39,-10.556 c 1.831,6.337 3.041,12.064 3.546,17.095 -1.241,1.919 -2.749,3.575 -4.545,4.947 -1.741,-7.686 -1.284,-15.013 0.999,-22.042 m 2.942,29.787 c -0.181,0.689 -0.39,1.349 -0.628,1.98 -0.121,-0.268 -0.24,-0.533 -0.355,-0.801 0.334,-0.392 0.663,-0.786 0.983,-1.179 m -4.841,3.819 c -0.922,-2.188 -1.669,-4.345 -2.248,-6.475 0.998,1.494 2.093,2.989 3.29,4.484 -0.332,0.66 -0.679,1.323 -1.042,1.991 m 1.353,2.967 c -0.308,-0.628 -0.602,-1.255 -0.88,-1.879 0.566,-0.586 1.117,-1.174 1.651,-1.759 0.328,0.388 0.661,0.776 1.002,1.167 -0.511,0.901 -1.101,1.727 -1.773,2.471 m -29.612,-55.297 -3.312,-0.402 c 1.095,-1.849 2.246,-3.739 3.453,-5.667 0.562,0.85 1.106,1.704 1.632,2.561 -0.637,1.168 -1.229,2.338 -1.773,3.508 M 178.406,2.036 c 6.056,12.268 6.612,25.435 -0.439,39.852 -4.346,-4.815 -5.297,-12.972 -3.512,-23.829 0.551,-1.981 0.951,-3.986 1.203,-6.015 0.734,-3.155 1.652,-6.495 2.748,-10.008 M 196.29,17.47 c -0.372,-7.328 0.747,-14.338 3.111,-21.082 0.247,0.462 0.482,0.924 0.708,1.387 -2.19,7.476 -3.455,14.036 -3.819,19.695 M 66.284,-2.539 c -0.552,2.087 -1.027,4.098 -1.425,6.031 -0.976,-5.907 -1.018,-11.721 -0.262,-17.456 0.399,4.077 0.962,7.885 1.687,11.425 m 16.72,4.515 c 1.035,-2.034 2.157,-4.129 3.369,-6.288 -0.516,2.427 -0.913,4.738 -1.189,6.93 C 84.31,7.84 84.053,12.45 84.405,16.454 83.272,12.283 82.836,7.427 83.004,1.976 m 58.915,34.786 c -0.641,-1.519 -1.197,-3.023 -1.671,-4.514 3.375,-5.315 5.524,-10.633 6.599,-15.949 0.313,1.974 0.537,3.857 0.663,5.644 -0.98,4.795 -2.812,9.73 -5.591,14.819 m 1.352,2.968 c -0.308,-0.63 -0.602,-1.257 -0.881,-1.88 1.58,-1.634 3.036,-3.267 4.367,-4.9 -0.71,2.704 -1.861,4.976 -3.486,6.78 M 127.373,25.94 c 0.894,-1.855 1.677,-3.711 2.351,-5.567 0.666,2.188 1.519,4.374 2.572,6.561 -1.763,-0.211 -3.403,-0.544 -4.923,-0.994 m 85.721,17.97 v -2.223 c -7.354,-4.854 -6.559,-15.468 0,-30.16 v -25.608 l -5.519,0.67 c -0.542,-1.169 -1.133,-2.339 -1.77,-3.507 2.126,-3.476 4.569,-6.883 7.289,-10.232 v -0.394 l -15.211,-4.407 c -1.884,3.64 -3.532,7.281 -4.911,10.922 l -6.383,1.419 c 1.558,1.461 3.027,2.936 4.401,4.428 -0.643,2.163 -1.189,4.327 -1.623,6.49 -1.125,-2.784 -2.476,-5.568 -4.029,-8.351 2.636,-6.486 5.663,-13.36 9.038,-20.573 -8.333,1.41 -16.664,2.821 -24.997,4.229 -0.935,3.575 -1.777,7.025 -2.535,10.355 l -11.387,0.178 -0.57,-0.126 c -0.879,-4.006 -1.887,-8.193 -3.032,-12.564 -8.33,-1.41 -16.661,-2.819 -24.994,-4.229 1.794,3.834 3.49,7.572 5.082,11.209 l -5.263,1.168 c 0.856,0.804 1.69,1.611 2.504,2.422 l -1.483,0.329 c -1.26,-3.155 -2.715,-6.308 -4.346,-9.464 l -7.824,2.267 c 0.129,-0.517 0.26,-1.038 0.395,-1.561 -7.934,1.011 -15.864,2.023 -23.797,3.035 0.07,2.224 0.179,4.382 0.327,6.473 l -0.294,0.037 c -0.593,1.626 -1.149,3.216 -1.67,4.772 l -4.763,0.578 c 0.59,-2.791 1.268,-5.667 2.026,-8.623 l -20.889,2.664 c 0.554,-1.851 1.181,-3.692 1.883,-5.528 l -8.42,-1.394 c 0.464,-0.594 0.941,-1.187 1.424,-1.779 -5.157,-1.494 -10.318,-2.989 -15.475,-4.483 -2.876,5.563 -5.207,11.128 -6.867,16.69 l -2.933,0.653 -9.863,1.197 c -0.543,-1.168 -1.135,-2.338 -1.77,-3.507 2.195,-3.586 4.725,-7.1 7.548,-10.55 -5.157,-1.494 -10.316,-2.989 -15.473,-4.483 -1.882,3.64 -3.53,7.283 -4.91,10.923 l -2.067,0.459 c 1.86,-4.315 3.871,-8.781 6.025,-13.385 -8.33,1.41 -16.662,2.82 -24.994,4.23 -0.935,3.575 -1.779,7.025 -2.538,10.354 l -11.384,0.179 -0.571,-0.128 c -0.878,-4.004 -1.887,-8.191 -3.031,-12.562 -8.332,-1.41 -16.663,-2.82 -24.994,-4.232 1.792,3.836 3.488,7.575 5.079,11.21 l -5.263,1.17 c 1.749,1.639 3.408,3.292 4.971,4.96 l -3.382,-0.751 c -1.382,-3.64 -3.029,-7.283 -4.911,-10.922 -5.157,1.494 -10.316,2.988 -15.473,4.482 0.954,1.167 1.875,2.342 2.76,3.523 l -18.48,2.245 c -0.593,1.626 -1.147,3.216 -1.669,4.772 l -15.781,1.917 c -0.545,-1.17 -1.136,-2.34 -1.773,-3.51 2.195,-3.584 4.725,-7.097 7.549,-10.549 -5.157,-1.495 -10.315,-2.989 -15.473,-4.483 -1.882,3.641 -3.531,7.282 -4.91,10.923 l -6.382,1.419 c 1.557,1.461 3.028,2.936 4.401,4.427 -0.644,2.165 -1.188,4.329 -1.62,6.492 -1.128,-2.784 -2.48,-5.568 -4.03,-8.35 2.633,-6.486 5.661,-13.361 9.035,-20.576 -8.333,1.41 -16.664,2.82 -24.995,4.23 -0.821,3.145 -1.571,6.189 -2.257,9.144 l -3.217,-0.715 c -1.381,-3.641 -3.028,-7.281 -4.911,-10.923 -5.157,1.496 -10.316,2.989 -15.473,4.485 2.823,3.45 5.354,6.964 7.55,10.549 -0.638,1.168 -1.229,2.338 -1.772,3.507 l -9.862,-1.197 -2.934,-0.652 c -1.661,-5.565 -3.991,-11.127 -6.867,-16.692 -5.158,1.496 -10.316,2.989 -15.475,4.485 0.484,0.589 0.959,1.183 1.426,1.778 l -8.421,1.394 c 0.702,1.835 1.329,3.677 1.883,5.528 l -20.89,-2.664 c 4.607,17.953 6.235,32.983 3.349,43.586 0.809,-9.209 -1.596,-21.616 -7.316,-37.314 l -0.973,-0.118 c 0.276,-2.988 0.465,-6.117 0.567,-9.391 l -17.686,-2.256 c -0.454,-1.862 -0.932,-3.756 -1.437,-5.69 -8.331,-1.41 -16.663,-2.82 -24.996,-4.23 1.793,3.835 3.489,7.573 5.081,11.208 l -5.262,1.17 c 1.626,1.526 3.177,3.064 4.644,4.614 l -3.171,-0.705 c -1.356,-3.54 -2.966,-7.081 -4.797,-10.622 -5.158,1.494 -10.315,2.988 -15.474,4.482 0.956,1.167 1.876,2.341 2.762,3.524 l -18.482,2.244 c -0.593,1.627 -1.146,3.215 -1.668,4.772 l -15.782,1.915 c -0.544,-1.168 -1.134,-2.338 -1.772,-3.507 2.195,-3.585 4.726,-7.099 7.549,-10.549 -5.157,-1.495 -10.315,-2.99 -15.472,-4.484 -1.884,3.641 -3.531,7.283 -4.911,10.922 l -6.382,1.419 c 1.559,1.462 3.028,2.937 4.401,4.429 -0.644,2.164 -1.189,4.328 -1.622,6.491 -1.127,-2.784 -2.476,-5.568 -4.03,-8.353 2.635,-6.485 5.664,-13.359 9.037,-20.573 -8.331,1.41 -16.663,2.821 -24.995,4.232 -0.912,3.488 -1.739,6.861 -2.483,10.117 l -11.294,-3.273 c -2.877,5.565 -5.207,11.127 -6.868,16.692 l -2.933,0.652 -9.863,1.197 c -0.543,-1.169 -1.134,-2.339 -1.771,-3.508 2.195,-3.585 4.725,-7.098 7.549,-10.55 -5.158,-1.494 -10.316,-2.989 -15.473,-4.483 -1.883,3.641 -3.53,7.283 -4.911,10.923 l -3.216,0.715 c -0.686,-2.955 -1.435,-5.999 -2.258,-9.145 -8.331,-1.409 -16.663,-2.819 -24.995,-4.229 3.374,7.215 6.402,14.088 9.037,20.574 -1.552,2.784 -2.903,5.568 -4.03,8.352 -0.434,-2.164 -0.978,-4.327 -1.621,-6.492 1.372,-1.492 2.842,-2.966 4.4,-4.427 l -6.381,-1.419 c -1.38,-3.642 -3.028,-7.282 -4.91,-10.923 l -3.775,1.093 V 36.77 c 0.396,-0.43 0.771,-0.878 1.124,-1.352 -0.351,0.912 -0.726,1.829 -1.124,2.75 v 1.269 c 1.723,-2.254 3.265,-4.508 4.636,-6.761 l 0.114,0.11 -0.091,-0.149 c 2.294,-3.775 4.111,-7.55 5.485,-11.325 2.096,6.881 6.054,13.762 12.208,20.642 -2.292,1.916 -5.31,3.114 -9.121,3.534 4.215,0.24 7.933,-0.207 11.154,-1.343 0.894,0.929 1.823,1.857 2.799,2.787 -0.661,-1.055 -1.278,-2.105 -1.86,-3.145 7.269,-2.967 11.824,-9.693 13.586,-20.29 0.857,1.738 1.81,3.475 2.866,5.212 l -0.092,0.148 0.114,-0.11 c 1.73,2.842 3.729,5.684 6.019,8.524 -0.938,-1.95 -1.772,-3.875 -2.507,-5.78 4.281,5.715 11.698,8.315 22.162,7.888 -19.336,-1.524 -18.324,-17.432 -5.195,-41.907 -0.175,12.199 3.527,24.397 12.44,36.596 -1.376,5.09 -3.709,10.335 -7.11,15.756 8.024,-7.636 13.245,-15.269 16.119,-22.904 2.288,3.505 5.3,6.008 9.023,7.526 -0.582,1.042 -1.2,2.09 -1.862,3.145 0.977,-0.929 1.907,-1.86 2.802,-2.788 2.447,0.863 5.182,1.326 8.203,1.394 3.475,3.335 7.344,6.627 11.638,9.876 -5.762,-6.181 -10.355,-12.247 -13.906,-18.209 3.975,-5.297 6.689,-10.595 8.303,-15.894 1.374,3.776 3.19,7.551 5.486,11.328 l -0.092,0.149 0.115,-0.11 c 1.729,2.84 3.728,5.682 6.019,8.523 -0.938,-1.949 -1.772,-3.876 -2.509,-5.781 4.282,5.717 11.699,8.317 22.164,7.889 -20.161,-1.589 -18.203,-18.812 -3.455,-45.08 -5.624,26.453 2.938,38.81 24.832,37.915 -17.506,-1.38 -18.331,-14.552 -8.587,-35.195 14.177,25.637 15.797,42.396 -4.076,43.961 10.465,0.428 17.883,-2.172 22.164,-7.888 -0.736,1.906 -1.571,3.833 -2.509,5.781 1.566,-1.941 2.997,-3.882 4.296,-5.824 2.93,4.741 6.831,9.482 11.813,14.223 -4.445,-7.084 -7.07,-13.87 -8.11,-20.396 1.398,-2.629 2.571,-5.259 3.528,-7.888 0.903,2.965 2.152,5.93 3.773,8.897 -1.341,0.276 -2.763,0.475 -4.27,0.589 1.573,0.067 3.104,0.061 4.59,-0.016 1.779,3.156 3.978,6.313 6.636,9.47 -0.233,0.387 -0.472,0.775 -0.715,1.164 0.316,-0.301 0.629,-0.604 0.937,-0.905 0.409,0.481 0.829,0.962 1.259,1.442 -2.292,1.915 -5.312,3.113 -9.122,3.531 4.214,0.241 7.934,-0.205 11.153,-1.343 0.894,0.929 1.824,1.859 2.8,2.787 -0.661,-1.054 -1.279,-2.103 -1.861,-3.144 1.275,-0.52 2.467,-1.156 3.575,-1.909 0.618,0.624 1.255,1.248 1.912,1.872 -0.474,-0.756 -0.928,-1.509 -1.362,-2.259 5.911,-4.333 9.302,-12.157 10.106,-23.563 1.595,-2.094 3.032,-4.448 4.31,-7.061 4.604,11.534 5.167,20.213 0.354,25.091 -1.94,0.562 -4.071,0.937 -6.403,1.116 1.787,0.074 3.519,0.055 5.194,-0.055 -2.397,1.818 -5.779,2.941 -10.249,3.291 8.471,0.347 14.944,-1.294 19.375,-4.963 15.237,-4.881 24.282,-19.895 26.794,-45.597 2.482,18.803 -3.606,38.467 -23.192,59.48 12.425,-9.401 21.301,-19.174 27.333,-29.247 1.286,11.001 7.029,21.999 18.589,32.999 -3.401,-5.421 -5.735,-10.667 -7.11,-15.756 8.914,-12.199 12.616,-24.398 12.441,-36.597 13.128,24.475 14.142,40.383 -5.195,41.908 10.463,0.427 17.881,-2.172 22.163,-7.889 -0.736,1.905 -1.57,3.832 -2.509,5.779 2.29,-2.839 4.29,-5.681 6.019,-8.523 l 0.116,0.112 -0.092,-0.149 c 1.055,-1.738 2.008,-3.475 2.864,-5.211 1.761,10.595 6.317,17.321 13.587,20.288 -0.582,1.042 -1.2,2.09 -1.861,3.146 0.977,-0.93 1.906,-1.859 2.799,-2.788 3.22,1.136 6.94,1.582 11.153,1.343 -3.809,-0.42 -6.827,-1.619 -9.119,-3.533 6.153,-6.881 10.112,-13.762 12.206,-20.643 1.374,3.775 3.192,7.551 5.488,11.325 l -0.093,0.15 0.115,-0.111 c 1.73,2.842 3.728,5.683 6.019,8.524 -0.937,-1.949 -1.773,-3.876 -2.508,-5.78 4.281,5.717 11.698,8.315 22.164,7.889 -20.162,-1.59 -18.205,-18.814 -3.456,-45.08 -5.623,26.451 2.937,38.808 24.833,37.913 -17.507,-1.378 -18.331,-14.551 -8.588,-35.195 14.177,25.637 15.797,42.397 -4.075,43.962 10.463,0.428 17.88,-2.17 22.162,-7.888 -0.736,1.907 -1.57,3.833 -2.507,5.781 2.29,-2.84 4.289,-5.682 6.018,-8.524 l 0.114,0.111 -0.091,-0.149 c 2.293,-3.773 4.111,-7.548 5.483,-11.321 1.923,6.312 5.413,12.626 10.731,18.938 -0.234,0.386 -0.472,0.776 -0.715,1.164 0.315,-0.301 0.629,-0.604 0.938,-0.905 0.408,0.482 0.828,0.961 1.257,1.443 -2.292,1.914 -5.311,3.113 -9.121,3.53 4.214,0.24 7.935,-0.204 11.153,-1.341 0.895,0.928 1.824,1.856 2.8,2.785 -0.662,-1.054 -1.278,-2.101 -1.86,-3.142 7.583,-3.096 12.212,-10.286 13.798,-21.688 -0.2,9.204 -3.015,18.409 -9.013,27.614 6.691,-4.51 11.975,-9.249 16.002,-14.189 2.41,5.047 5.963,8.512 10.638,10.42 -0.582,1.041 -1.199,2.088 -1.861,3.142 0.976,-0.929 1.907,-1.858 2.799,-2.786 3.221,1.138 6.941,1.583 11.155,1.342 -3.812,-0.418 -6.829,-1.614 -9.122,-3.528 5.741,-6.419 9.569,-12.839 11.759,-19.258 0.984,2.092 2.109,4.183 3.38,6.275 l -0.093,0.15 0.116,-0.111 c 1.729,2.84 3.728,5.682 6.019,8.524 -0.937,-1.949 -1.771,-3.876 -2.508,-5.781 4.282,5.716 11.699,8.316 22.162,7.888 -19.335,-1.522 -18.324,-17.432 -5.193,-41.908 -0.177,12.199 3.526,24.4 12.439,36.598 -1.374,5.089 -3.709,10.335 -7.109,15.756 11.558,-11 17.303,-21.999 18.59,-32.999 0.942,1.58 1.958,3.151 3.047,4.713 1.105,11.265 7.113,17.661 17.845,19.36 2.032,1.736 4.174,3.463 6.439,5.175 -1.531,-1.646 -2.98,-3.282 -4.351,-4.91 1.986,0.195 4.116,0.247 6.391,0.156 -3.103,-0.244 -5.681,-0.863 -7.769,-1.825 -2.608,-3.219 -4.905,-6.407 -6.906,-9.565 -0.33,-2.578 -0.097,-5.553 0.647,-8.89 4.138,5.445 9.343,9.149 15.592,11.15 4.429,3.67 10.902,5.309 19.373,4.965 -4.469,-0.353 -7.853,-1.474 -10.248,-3.291 1.253,0.081 2.541,0.113 3.856,0.091 2.113,0.232 4.388,0.299 6.834,0.2 -11.264,-0.889 -15.62,-6.657 -14.705,-16.153 0.599,-3.108 1.665,-6.551 3.159,-10.293 3.273,6.695 7.589,11.682 12.925,14.999 2.631,11.907 -1.256,19.206 -14.044,20.213 10.465,0.427 17.884,-2.171 22.165,-7.887 -0.736,1.905 -1.572,3.832 -2.51,5.779 2.291,-2.84 4.289,-5.682 6.019,-8.523 l 0.115,0.112 -0.093,-0.149 c 0.974,-1.603 1.863,-3.209 2.667,-4.811 1.766,0.188 3.593,0.269 5.487,0.244 0.837,1.717 1.794,3.435 2.883,5.153 -1.416,4.413 -3.551,8.944 -6.475,13.604 3.503,-3.334 6.472,-6.668 8.943,-10.001 0.845,1.141 1.749,2.285 2.709,3.426 -0.232,0.388 -0.471,0.776 -0.714,1.165 0.317,-0.301 0.63,-0.603 0.938,-0.906 0.408,0.482 0.828,0.963 1.256,1.443 -2.291,1.916 -5.308,3.113 -9.12,3.531 4.214,0.239 7.934,-0.205 11.155,-1.342 0.892,0.93 1.821,1.858 2.798,2.786 -0.661,-1.054 -1.279,-2.102 -1.861,-3.143 7.586,-3.095 12.211,-10.284 13.801,-21.688 -0.201,9.205 -3.017,18.409 -9.016,27.614 6.691,-4.51 11.977,-9.249 16.003,-14.189 2.409,5.049 5.963,8.512 10.637,10.42 -0.579,1.041 -1.198,2.089 -1.858,3.142 0.973,-0.927 1.905,-1.855 2.799,-2.784 3.22,1.136 6.939,1.581 11.153,1.342 -3.812,-0.419 -6.83,-1.616 -9.122,-3.53 6.156,-6.883 10.113,-13.764 12.209,-20.646 1.374,3.775 3.189,7.551 5.484,11.326 l -0.09,0.15 0.113,-0.112 c 1.732,2.841 3.73,5.683 6.022,8.523 -0.94,-1.947 -1.774,-3.874 -2.511,-5.779 2.829,3.776 7.027,6.191 12.565,7.274"
         style="fill:#448733;fill-opacity:1;fill-rule:evenodd;stroke:none"
         transform="matrix(1.3333333,0,0,-1.3333333,597.8008,591.38027)"
         clip-path="url(#clipPath26)" />
      <path
         id="path27"
         d="m 0.606,-1.305 h 660.838 v 215.61 H 0.606 Z"
         style="fill:#448733;fill-opacity:1;fill-rule:evenodd;stroke:none"
         transform="matrix(1.3333333,0,0,-1.3333333,0,880)"
         clip-path="url(#clipPath28)" />
      <path
         id="path29"
         d="m 248.348,347.984 h 264.341 v 94.56 H 248.348 Z"
         style="fill:#766864;fill-opacity:1;fill-rule:evenodd;stroke:none"
         transform="matrix(1.3333333,0,0,-1.3333333,0,880)"
         clip-path="url(#clipPath30)" />
      <path
         id="path31"
         d="m 502.372,347.984 h 119.49 v 94.56 h -119.49 z"
         style="fill:#463d3b;fill-opacity:1;fill-rule:evenodd;stroke:none"
         transform="matrix(1.3333333,0,0,-1.3333333,0,880)"
         clip-path="url(#clipPath32)" />
      <path
         id="path33"
         d="M 0.606,-1.305 H 661.444 V 163.164 H 0.606 Z"
         style="fill:#3b722e;fill-opacity:1;fill-rule:evenodd;stroke:none"
         transform="matrix(1.3333333,0,0,-1.3333333,0,880)"
         clip-path="url(#clipPath34)" />
      <path
         id="path35"
         d="m 0,0 c 4.499,0 8.167,4.634 8.167,10.316 0,5.681 -3.668,10.315 -8.167,10.315 -4.497,0 -8.167,-4.634 -8.167,-10.315 C -8.167,4.634 -4.497,0 0,0"
         style="fill:#2f2825;fill-opacity:1;fill-rule:evenodd;stroke:none"
         transform="matrix(1.3333333,0,0,-1.3333333,371.5384,407.4212)"
         clip-path="url(#clipPath36)" />
      <path
         id="path37"
         d="m 0,0 c 4.511,0 8.166,-4.619 8.166,-10.315 0,-5.698 -3.655,-10.316 -8.166,-10.316 -4.511,0 -8.167,4.618 -8.167,10.316 C -8.167,-4.619 -4.511,0 0,0"
         style="fill:#2f2825;fill-opacity:1;fill-rule:evenodd;stroke:none"
         transform="matrix(1.3333333,0,0,-1.3333333,414.998,379.9128)"
         clip-path="url(#clipPath38)" />
      <path
         id="path39"
         d="m 0,0 c 4.511,0 8.165,-4.619 8.165,-10.315 0,-5.698 -3.654,-10.316 -8.165,-10.316 -4.512,0 -8.167,4.618 -8.167,10.316 C -8.167,-4.619 -4.512,0 0,0"
         style="fill:#2f2825;fill-opacity:1;fill-rule:evenodd;stroke:none"
         transform="matrix(1.3333333,0,0,-1.3333333,458.4584,379.9128)"
         clip-path="url(#clipPath40)" />
      <path
         id="path41"
         d="m 0,0 c 4.512,0 8.167,-4.619 8.167,-10.315 0,-5.698 -3.655,-10.316 -8.167,-10.316 -4.509,0 -8.165,4.618 -8.165,10.316 C -8.165,-4.619 -4.509,0 0,0"
         style="fill:#2f2825;fill-opacity:1;fill-rule:evenodd;stroke:none"
         transform="matrix(1.3333333,0,0,-1.3333333,501.91667,379.9128)"
         clip-path="url(#clipPath42)" />
      <path
         id="path43"
         d="m 0,0 c 4.511,0 8.167,-4.619 8.167,-10.315 0,-5.698 -3.656,-10.316 -8.167,-10.316 -4.509,0 -8.165,4.618 -8.165,10.316 C -8.165,-4.619 -4.509,0 0,0"
         style="fill:#2f2825;fill-opacity:1;fill-rule:evenodd;stroke:none"
         transform="matrix(1.3333333,0,0,-1.3333333,545.37627,379.9128)"
         clip-path="url(#clipPath44)" />
      <path
         id="path45"
         d="m 0,0 c 4.511,0 8.167,-4.619 8.167,-10.315 0,-5.698 -3.656,-10.316 -8.167,-10.316 -4.509,0 -8.165,4.618 -8.165,10.316 C -8.165,-4.619 -4.509,0 0,0"
         style="fill:#2f2825;fill-opacity:1;fill-rule:evenodd;stroke:none"
         transform="matrix(1.3333333,0,0,-1.3333333,588.836,379.9128)"
         clip-path="url(#clipPath46)" />
      <path
         id="path47"
         d="M 0,0 C 4.5,0 8.169,4.634 8.169,10.316 8.169,15.997 4.5,20.631 0,20.631 -4.496,20.631 -8.164,15.997 -8.164,10.316 -8.164,4.634 -4.496,0 0,0"
         style="fill:#2f2825;fill-opacity:1;fill-rule:evenodd;stroke:none"
         transform="matrix(1.3333333,0,0,-1.3333333,632.29427,407.4212)"
         clip-path="url(#clipPath48)" />
      <path
         id="path49"
         d="M 0,0 -1.939,-20.766 H 116.696 L 120.651,0 Z"
         style="fill:#f7af59;fill-opacity:1;fill-rule:evenodd;stroke:none"
         transform="matrix(1.3333333,0,0,-1.3333333,103.0456,320.39973)"
         clip-path="url(#clipPath50)" />
    </g>
  </g>
</svg>
