<?xml version="1.0" encoding="UTF-8" standalone="no"?>
<!-- Created with Inkscape (http://www.inkscape.org/) -->

<svg
   version="1.1"
   id="svg1"
   width="880"
   height="880"
   viewBox="0 0 880 880"
   sodipodi:docname="sewage-water.svg"
   inkscape:version="1.3.2 (091e20e, 2023-11-25, custom)"
   xmlns:inkscape="http://www.inkscape.org/namespaces/inkscape"
   xmlns:sodipodi="http://sodipodi.sourceforge.net/DTD/sodipodi-0.dtd"
   xmlns="http://www.w3.org/2000/svg"
   xmlns:svg="http://www.w3.org/2000/svg">
  <defs
     id="defs1">
    <clipPath
       clipPathUnits="userSpaceOnUse"
       id="clipPath5">
      <path
         d="M 0,660 H 660 V 0 H 0 Z"
         transform="translate(-659.70701,-541.46092)"
         id="path5" />
    </clipPath>
    <clipPath
       clipPathUnits="userSpaceOnUse"
       id="clipPath7">
      <path
         d="M 0,660 H 660 V 0 H 0 Z"
         transform="translate(-1.9189,-408.89311)"
         id="path7" />
    </clipPath>
    <clipPath
       clipPathUnits="userSpaceOnUse"
       id="clipPath9">
      <path
         d="M 0,660 H 660 V 0 H 0 Z"
         id="path9" />
    </clipPath>
    <clipPath
       clipPathUnits="userSpaceOnUse"
       id="clipPath11">
      <path
         d="M 0,660 H 660 V 0 H 0 Z"
         id="path11" />
    </clipPath>
    <clipPath
       clipPathUnits="userSpaceOnUse"
       id="clipPath13">
      <path
         d="M 0,660 H 660 V 0 H 0 Z"
         id="path13" />
    </clipPath>
    <clipPath
       clipPathUnits="userSpaceOnUse"
       id="clipPath15">
      <path
         d="M 0,660 H 660 V 0 H 0 Z"
         id="path15" />
    </clipPath>
    <clipPath
       clipPathUnits="userSpaceOnUse"
       id="clipPath17">
      <path
         d="M 0,660 H 660 V 0 H 0 Z"
         id="path17" />
    </clipPath>
    <clipPath
       clipPathUnits="userSpaceOnUse"
       id="clipPath19">
      <path
         d="M 0,660 H 660 V 0 H 0 Z"
         transform="translate(-307.56201)"
         id="path19" />
    </clipPath>
    <clipPath
       clipPathUnits="userSpaceOnUse"
       id="clipPath21">
      <path
         d="M 0,660 H 660 V 0 H 0 Z"
         transform="translate(-348.33791,-49.196304)"
         id="path21" />
    </clipPath>
    <clipPath
       clipPathUnits="userSpaceOnUse"
       id="clipPath23">
      <path
         d="M 0,660 H 660 V 0 H 0 Z"
         transform="translate(-330.81491,-75.480504)"
         id="path23" />
    </clipPath>
    <clipPath
       clipPathUnits="userSpaceOnUse"
       id="clipPath25">
      <path
         d="M 0,660 H 660 V 0 H 0 Z"
         transform="translate(-330.81491,-102.0967)"
         id="path25" />
    </clipPath>
    <clipPath
       clipPathUnits="userSpaceOnUse"
       id="clipPath27">
      <path
         d="M 0,660 H 660 V 0 H 0 Z"
         id="path27" />
    </clipPath>
    <clipPath
       clipPathUnits="userSpaceOnUse"
       id="clipPath29">
      <path
         d="M 0,660 H 660 V 0 H 0 Z"
         id="path29" />
    </clipPath>
    <clipPath
       clipPathUnits="userSpaceOnUse"
       id="clipPath31">
      <path
         d="M 0,660 H 660 V 0 H 0 Z"
         transform="translate(-348.44531)"
         id="path31" />
    </clipPath>
  </defs>
  <sodipodi:namedview
     id="namedview1"
     pagecolor="#ffffff"
     bordercolor="#000000"
     borderopacity="0.25"
     inkscape:showpageshadow="2"
     inkscape:pageopacity="0.0"
     inkscape:pagecheckerboard="0"
     inkscape:deskcolor="#d1d1d1"
     inkscape:zoom="0.67272727"
     inkscape:cx="439.25676"
     inkscape:cy="440"
     inkscape:window-width="1440"
     inkscape:window-height="830"
     inkscape:window-x="-6"
     inkscape:window-y="-6"
     inkscape:window-maximized="1"
     inkscape:current-layer="g1">
    <inkscape:page
       x="0"
       y="0"
       inkscape:label="1"
       id="page1"
       width="880"
       height="880"
       margin="0 0.39066666 2.948 2.5585067"
       bleed="0" />
  </sodipodi:namedview>
  <g
     id="g1"
     inkscape:groupmode="layer"
     inkscape:label="1">
    <g
       id="group-MC0">
      <path
         id="path2"
         d="M 1.919,0 H 659.707 V 657.788 H 1.919 Z"
         style="fill:#fcfaa7;fill-opacity:1;fill-rule:nonzero;stroke:none"
         transform="matrix(1.3333333,0,0,-1.3333333,0,880)" />
      <path
         id="path3"
         d="M 0,0 H 22.24 V 17.522 H 45.157 V 0 h 30.999 v -14.153 h 16.178 v -43.134 h 26.959 v 47.178 h 33.022 v -40.438 h 19.545 v 80.875 h 6.067 v 16.176 h 35.045 V 30.328 h 17.525 v -80.201 h 18.869 v -22.915 h 14.829 V 47.851 h 10.78 V 69.419 H 318.11 V 47.851 h 31.004 V -4.718 h 24.262 v 22.915 h 43.134 v -6.065 h 18.619 v -43.134 h 23.165 v -13.479 h 29.656 v -104.464 h -29.656 v -0.674 h -63.352 v 28.98 h -6.74 v -18.197 h -39.088 v -25.612 h -84.919 v 20.893 h -14.829 v -2.021 h -18.869 v -14.153 h -44.484 v -27.296 h -45.155 v 25.949 H 130.073 V -178.6 H 60.657 v 7.748 h -13.48 v -29.314 H -20.219 V -54.591 H 0 Z"
         style="fill:#e0dd7a;fill-opacity:1;fill-rule:evenodd;stroke:none"
         transform="matrix(1.3333333,0,0,-1.3333333,118.94467,125.60867)" />
      <path
         id="path4"
         d="m 0,0 v -161.659 c -2.266,-0.234 -4.541,-0.362 -6.82,-0.362 -14.691,0 -27.474,5.024 -37.371,13.646 -12.815,-13.727 -29.681,-22.408 -46.793,-22.408 -24.57,0 -42.347,17.895 -45.846,42.93 -13.008,-17.179 -32.055,-28.499 -51.421,-28.499 -9.754,0 -18.415,2.874 -25.504,7.918 -9.589,-18.927 -27.917,-32.38 -46.629,-32.38 -24.176,0 -39.832,22.464 -34.966,50.17 4.867,27.71 28.412,50.173 52.588,50.173 4.434,0 8.58,-0.758 12.367,-2.163 9.502,30.617 36.711,54.057 64.582,54.057 23.959,0 41.343,-17.321 44.957,-41.633 13.249,17.763 32.813,29.503 52.713,29.503 5.995,0 11.583,-1.069 16.66,-3.043 C -39.274,-22.983 -20.592,-6.949 0,0"
         style="fill:#87b027;fill-opacity:1;fill-rule:evenodd;stroke:none"
         transform="matrix(1.3333333,0,0,-1.3333333,879.60933,158.05213)"
         clip-path="url(#clipPath5)" />
      <path
         id="path6"
         d="m 0,0 v 96.142 c 4.966,2.457 10.57,3.806 16.662,3.806 20.346,0 40.217,-15.018 50.839,-36.283 4.43,2.542 9.553,3.957 15.186,3.957 8.213,0 16.331,-3.002 23.487,-8.136 5.944,18.832 20.849,31.521 40.315,31.521 23.635,0 46.676,-18.705 57.408,-44.403 2.269,0.698 4.695,1.071 7.257,1.071 17.165,0 33.808,-16.628 37.169,-37.14 3.361,-20.511 -7.828,-37.14 -24.995,-37.14 -8.194,0 -16.267,3.79 -22.832,9.979 -7.643,-10.861 -19.363,-17.544 -33.492,-17.544 -15.8,0 -31.337,8.361 -43.109,21.583 -5.732,-8.652 -14.783,-14.018 -25.765,-14.018 -13.838,0 -27.404,8.52 -36.553,21.407 C 54.809,-11.753 45.896,-15.601 35.6,-15.601 22.821,-15.601 10.231,-9.673 0,0"
         style="fill:#87b027;fill-opacity:1;fill-rule:evenodd;stroke:none"
         transform="matrix(1.3333333,0,0,-1.3333333,2.5585333,334.8092)"
         clip-path="url(#clipPath7)" />
      <path
         id="path8"
         d="M 1.919,0 H 659.707 V 342.374 H 1.919 Z"
         style="fill:#323438;fill-opacity:1;fill-rule:evenodd;stroke:none"
         transform="matrix(1.3333333,0,0,-1.3333333,0,880)"
         clip-path="url(#clipPath9)" />
      <path
         id="path10"
         d="m 1.919,328.895 h 657.788 v 49.874 H 1.919 Z"
         style="fill:#46484d;fill-opacity:1;fill-rule:evenodd;stroke:none"
         transform="matrix(1.3333333,0,0,-1.3333333,0,880)"
         clip-path="url(#clipPath11)" />
      <path
         id="path12"
         d="m 1.919,311.368 h 657.788 v 17.526 H 1.919 Z"
         style="fill:#2a2b2e;fill-opacity:1;fill-rule:evenodd;stroke:none"
         transform="matrix(1.3333333,0,0,-1.3333333,0,880)"
         clip-path="url(#clipPath13)" />
      <path
         id="path14"
         d="m 1.919,378.769 h 657.788 v 16.173 H 1.919 Z"
         style="fill:#bd4c1f;fill-opacity:1;fill-rule:evenodd;stroke:none"
         transform="matrix(1.3333333,0,0,-1.3333333,0,880)"
         clip-path="url(#clipPath15)" />
      <path
         id="path16"
         d="m 1.919,394.942 h 657.788 v 38.415 H 1.919 Z"
         style="fill:#9ac421;fill-opacity:1;fill-rule:evenodd;stroke:none"
         transform="matrix(1.3333333,0,0,-1.3333333,0,880)"
         clip-path="url(#clipPath17)" />
      <path
         id="path18"
         d="M 0,0 14.828,148.27 48.527,0 Z m 170.513,0 35.719,100.417 -33.025,87.615 46.504,85.594 -15.5,-88.288 42.458,-83.574 L 228.474,0 Z m -347.766,0 -22.915,155.01 43.133,105.135 -6.739,-110.528 L -93.682,0 Z"
         style="fill:#2a2b2e;fill-opacity:1;fill-rule:evenodd;stroke:none"
         transform="matrix(1.3333333,0,0,-1.3333333,410.08267,880)"
         clip-path="url(#clipPath19)" />
      <path
         id="path20"
         d="m 0,0 c 55.494,0 100.756,45.262 100.756,100.759 0,55.494 -45.262,100.756 -100.756,100.756 -55.495,0 -100.759,-45.262 -100.759,-100.756 C -100.759,45.262 -55.495,0 0,0"
         style="fill:#2a2b2e;fill-opacity:1;fill-rule:evenodd;stroke:none"
         transform="matrix(1.3333333,0,0,-1.3333333,464.45053,814.40493)"
         clip-path="url(#clipPath21)" />
      <path
         id="path22"
         d="m 0,0 c 55.495,0 100.756,45.263 100.756,100.757 0,55.497 -45.261,100.757 -100.756,100.757 -55.496,0 -100.759,-45.26 -100.759,-100.757 C -100.759,45.263 -55.496,0 0,0"
         style="fill:#585d62;fill-opacity:1;fill-rule:evenodd;stroke:none"
         transform="matrix(1.3333333,0,0,-1.3333333,441.08653,779.35933)"
         clip-path="url(#clipPath23)" />
      <path
         id="path24"
         d="m 0,0 c 40.835,0 74.14,33.306 74.14,74.141 0,40.836 -33.305,74.14 -74.14,74.14 -40.837,0 -74.142,-33.304 -74.142,-74.14 C -74.142,33.306 -40.837,0 0,0"
         style="fill:#222122;fill-opacity:1;fill-rule:evenodd;stroke:none"
         transform="matrix(1.3333333,0,0,-1.3333333,441.08653,743.87107)"
         clip-path="url(#clipPath25)" />
      <path
         id="path26"
         d="M 379.675,225.1 H 350.47 v -29.205 h 29.205 z m 0,-68.518 H 350.47 v -29.207 h 29.205 z m -29.205,5.053 h 29.205 V 190.84 H 350.47 Z M 311.158,225.1 h -29.207 v -29.205 h 29.207 z m 0,-34.26 h -29.207 v -29.205 h 29.207 z m 0,-34.258 h -29.207 v -29.207 h 29.207 z m 5.052,-29.207 h 29.205 v 29.207 H 316.21 Z m 0,34.26 h 29.205 V 190.84 H 316.21 Z m 0,34.26 h 29.205 V 225.1 H 316.21 Z m 29.205,53.043 c 1.707,-0.341 3.395,-0.741 5.055,-1.198 v -17.586 h 29.205 v 1.843 c 2.446,-2.145 4.75,-4.449 6.895,-6.897 h -1.841 v -29.205 h 17.587 c 0.454,-1.661 0.856,-3.348 1.198,-5.055 h -18.785 v -29.205 h 18.785 c -0.34,-1.704 -0.742,-3.392 -1.198,-5.053 h -17.587 v -29.207 h 1.843 c -2.145,-2.444 -4.451,-4.75 -6.897,-6.895 v 1.84 H 350.47 v -17.586 c -1.66,-0.454 -3.346,-0.855 -5.055,-1.198 V 122.32 H 316.21 v -18.784 c -1.705,0.343 -3.392,0.744 -5.052,1.2 V 122.32 H 281.95 v -1.84 c -2.446,2.145 -4.749,4.451 -6.895,6.895 h 1.843 v 29.207 h -17.587 c -0.456,1.661 -0.857,3.349 -1.197,5.053 h 18.784 v 29.205 h -18.784 c 0.342,1.707 0.741,3.394 1.197,5.055 h 17.587 V 225.1 h -1.843 c 2.146,2.448 4.449,4.752 6.895,6.895 v -1.841 h 29.208 v 17.586 c 1.66,0.457 3.347,0.857 5.052,1.198 v -18.784 h 29.205 z"
         style="fill:#494e53;fill-opacity:1;fill-rule:evenodd;stroke:none"
         transform="matrix(1.3333333,0,0,-1.3333333,0,880)"
         clip-path="url(#clipPath27)" />
      <path
         id="path28"
         d="M 263.8,0 H 397.825 V 144.475 H 263.8 Z"
         style="fill:#ef6d17;fill-opacity:1;fill-rule:evenodd;stroke:none"
         transform="matrix(1.3333333,0,0,-1.3333333,0,880)"
         clip-path="url(#clipPath29)" />
      <path
         id="path30"
         d="m 0,0 h 264.113 c -0.658,13.758 -11.167,24.26 -25.5,24.587 0.475,24.527 -18.167,41.067 -42.074,37.072 -14.773,-2.47 -28.145,-12.211 -36.563,-25.122 -6.042,1.341 -12.632,1.525 -19.565,0.366 -5.88,-0.982 -11.589,-2.86 -16.987,-5.475 C 117.82,49.33 100.951,60.031 80.458,56.609 65.637,54.13 52.14,44.802 43.105,32.252 39.292,33.586 34.957,33.968 30.326,33.196 14.804,30.603 1.607,15.97 0,0 m -279.933,0 h 240.574 c -0.153,1.222 -0.355,2.457 -0.616,3.703 -5.129,24.568 -29.203,44.482 -53.77,44.482 -0.47,0 -0.935,-0.009 -1.396,-0.023 -12.009,23.6 -37.484,40.798 -63.392,40.798 -28.878,0 -48.298,-21.368 -46.447,-49.156 -1.779,0.193 -3.567,0.294 -5.357,0.294 -17.082,0 -30.173,-9.017 -35.721,-22.547 -3.286,1.071 -6.699,1.654 -10.127,1.654 -12.7,0 -21.866,-7.983 -23.748,-19.205"
         style="fill:#f68413;fill-opacity:1;fill-rule:evenodd;stroke:none"
         transform="matrix(1.3333333,0,0,-1.3333333,464.59373,880)"
         clip-path="url(#clipPath31)" />
    </g>
  </g>
</svg>
