<?xml version="1.0" encoding="UTF-8" standalone="no"?>
<!-- Created with Inkscape (http://www.inkscape.org/) -->

<svg
   version="1.1"
   id="svg1"
   width="880"
   height="880"
   viewBox="0 0 880 880"
   sodipodi:docname="snowdrop-flowers.svg"
   inkscape:version="1.3.2 (091e20e, 2023-11-25, custom)"
   xmlns:inkscape="http://www.inkscape.org/namespaces/inkscape"
   xmlns:sodipodi="http://sodipodi.sourceforge.net/DTD/sodipodi-0.dtd"
   xmlns="http://www.w3.org/2000/svg"
   xmlns:svg="http://www.w3.org/2000/svg">
  <defs
     id="defs1">
    <clipPath
       clipPathUnits="userSpaceOnUse"
       id="clipPath4">
      <path
         d="M 0,660 H 660 V 0 H 0 Z"
         transform="translate(-342.99801,-44.884801)"
         id="path4" />
    </clipPath>
    <clipPath
       clipPathUnits="userSpaceOnUse"
       id="clipPath6">
      <path
         d="M 0,660 H 660 V 0 H 0 Z"
         transform="translate(-347.88671,-59.614299)"
         id="path6" />
    </clipPath>
    <clipPath
       clipPathUnits="userSpaceOnUse"
       id="clipPath8">
      <path
         d="M 0,660 H 660 V 0 H 0 Z"
         transform="translate(-315.65721,-353.01811)"
         id="path8" />
    </clipPath>
    <clipPath
       clipPathUnits="userSpaceOnUse"
       id="clipPath10">
      <path
         d="M 0,660 H 660 V 0 H 0 Z"
         transform="translate(-198.4243,-423.46241)"
         id="path10" />
    </clipPath>
    <clipPath
       clipPathUnits="userSpaceOnUse"
       id="clipPath12">
      <path
         d="M 0,660 H 660 V 0 H 0 Z"
         transform="translate(-193.4302,-425.98971)"
         id="path12" />
    </clipPath>
    <clipPath
       clipPathUnits="userSpaceOnUse"
       id="clipPath14">
      <path
         d="M 0,660 H 660 V 0 H 0 Z"
         transform="translate(-189.19821,-425.21481)"
         id="path14" />
    </clipPath>
    <clipPath
       clipPathUnits="userSpaceOnUse"
       id="clipPath16">
      <path
         d="M 0,660 H 660 V 0 H 0 Z"
         transform="translate(-194.041,-437.47271)"
         id="path16" />
    </clipPath>
    <clipPath
       clipPathUnits="userSpaceOnUse"
       id="clipPath18">
      <path
         d="M 0,660 H 660 V 0 H 0 Z"
         transform="translate(-186.76461,-420.29151)"
         id="path18" />
    </clipPath>
    <clipPath
       clipPathUnits="userSpaceOnUse"
       id="clipPath20">
      <path
         d="M 0,660 H 660 V 0 H 0 Z"
         transform="translate(-343.24611,-272.17771)"
         id="path20" />
    </clipPath>
    <clipPath
       clipPathUnits="userSpaceOnUse"
       id="clipPath22">
      <path
         d="M 0,660 H 660 V 0 H 0 Z"
         transform="translate(-428.07811,-342.62111)"
         id="path22" />
    </clipPath>
    <clipPath
       clipPathUnits="userSpaceOnUse"
       id="clipPath24">
      <path
         d="M 0,660 H 660 V 0 H 0 Z"
         transform="translate(-432.73541,-345.35451)"
         id="path24" />
    </clipPath>
    <clipPath
       clipPathUnits="userSpaceOnUse"
       id="clipPath26">
      <path
         d="M 0,660 H 660 V 0 H 0 Z"
         transform="translate(-436.85641,-344.86331)"
         id="path26" />
    </clipPath>
    <clipPath
       clipPathUnits="userSpaceOnUse"
       id="clipPath28">
      <path
         d="M 0,660 H 660 V 0 H 0 Z"
         transform="translate(-429.83691,-343.11721)"
         id="path28" />
    </clipPath>
    <clipPath
       clipPathUnits="userSpaceOnUse"
       id="clipPath30">
      <path
         d="M 0,660 H 660 V 0 H 0 Z"
         transform="translate(-439.49711,-340.26861)"
         id="path30" />
    </clipPath>
    <clipPath
       clipPathUnits="userSpaceOnUse"
       id="clipPath32">
      <path
         d="M 0,660 H 660 V 0 H 0 Z"
         transform="translate(-276.6172,-357.26901)"
         id="path32" />
    </clipPath>
    <clipPath
       clipPathUnits="userSpaceOnUse"
       id="clipPath34">
      <path
         d="M 0,660 H 660 V 0 H 0 Z"
         transform="translate(-272.13771,-361.65921)"
         id="path34" />
    </clipPath>
    <clipPath
       clipPathUnits="userSpaceOnUse"
       id="clipPath36">
      <path
         d="M 0,660 H 660 V 0 H 0 Z"
         transform="translate(-268.47901,-360.98931)"
         id="path36" />
    </clipPath>
    <clipPath
       clipPathUnits="userSpaceOnUse"
       id="clipPath38">
      <path
         d="M 0,660 H 660 V 0 H 0 Z"
         transform="translate(-320.02441,-125.25591)"
         id="path38" />
    </clipPath>
    <clipPath
       clipPathUnits="userSpaceOnUse"
       id="clipPath40">
      <path
         d="M 0,660 H 660 V 0 H 0 Z"
         transform="translate(-272.34421,-371.39841)"
         id="path40" />
    </clipPath>
    <clipPath
       clipPathUnits="userSpaceOnUse"
       id="clipPath42">
      <path
         d="M 0,660 H 660 V 0 H 0 Z"
         transform="translate(-266.37651,-356.73491)"
         id="path42" />
    </clipPath>
    <clipPath
       clipPathUnits="userSpaceOnUse"
       id="clipPath44">
      <path
         d="M 0,660 H 660 V 0 H 0 Z"
         transform="translate(-396.30181,-526.14841)"
         id="path44" />
    </clipPath>
    <clipPath
       clipPathUnits="userSpaceOnUse"
       id="clipPath46">
      <path
         d="M 0,660 H 660 V 0 H 0 Z"
         transform="translate(-401.73341,-532.38382)"
         id="path46" />
    </clipPath>
    <clipPath
       clipPathUnits="userSpaceOnUse"
       id="clipPath48">
      <path
         d="M 0,660 H 660 V 0 H 0 Z"
         transform="translate(-406.70211,-531.79441)"
         id="path48" />
    </clipPath>
    <clipPath
       clipPathUnits="userSpaceOnUse"
       id="clipPath50">
      <path
         d="M 0,660 H 660 V 0 H 0 Z"
         transform="translate(-340.84181,-147.36621)"
         id="path50" />
    </clipPath>
    <clipPath
       clipPathUnits="userSpaceOnUse"
       id="clipPath52">
      <path
         d="M 0,660 H 660 V 0 H 0 Z"
         transform="translate(-396.63281,-534.82672)"
         id="path52" />
    </clipPath>
    <clipPath
       clipPathUnits="userSpaceOnUse"
       id="clipPath54">
      <path
         d="M 0,660 H 660 V 0 H 0 Z"
         transform="translate(-410.04391,-526.28812)"
         id="path54" />
    </clipPath>
  </defs>
  <sodipodi:namedview
     id="namedview1"
     pagecolor="#ffffff"
     bordercolor="#000000"
     borderopacity="0.25"
     inkscape:showpageshadow="2"
     inkscape:pageopacity="0.0"
     inkscape:pagecheckerboard="0"
     inkscape:deskcolor="#d1d1d1"
     inkscape:zoom="0.67272727"
     inkscape:cx="439.25676"
     inkscape:cy="440"
     inkscape:window-width="1440"
     inkscape:window-height="830"
     inkscape:window-x="-6"
     inkscape:window-y="-6"
     inkscape:window-maximized="1"
     inkscape:current-layer="g1">
    <inkscape:page
       x="0"
       y="0"
       inkscape:label="1"
       id="page1"
       width="880"
       height="880"
       margin="0.184916 0 0 0.18878134"
       bleed="0" />
  </sodipodi:namedview>
  <g
     id="g1"
     inkscape:groupmode="layer"
     inkscape:label="1">
    <g
       id="group-MC0">
      <path
         id="path2"
         d="M 0.141,0.139 H 659.999 V 660 H 0.141 Z"
         style="fill:#445367;fill-opacity:1;fill-rule:nonzero;stroke:none"
         transform="matrix(1.3333333,0,0,-1.3333333,0,880)" />
      <path
         id="path3"
         d="M 0,0 C 37.097,0 67.352,8.171 67.352,18.189 67.352,28.211 37.097,36.382 0,36.382 -37.098,36.382 -67.354,28.211 -67.354,18.189 -67.354,8.171 -37.098,0 0,0"
         style="fill:#323c4b;fill-opacity:1;fill-rule:evenodd;stroke:none"
         transform="matrix(1.3333333,0,0,-1.3333333,457.33067,820.1536)"
         clip-path="url(#clipPath4)" />
      <path
         id="path5"
         d="M 0,0 C 1.641,0.413 3.282,0.822 4.923,1.232 7.339,94.922 9.325,189.073 33.775,259.002 -9.077,236.597 -9.061,127.449 0,0"
         style="fill:#9ac421;fill-opacity:1;fill-rule:evenodd;stroke:none"
         transform="matrix(1.3333333,0,0,-1.3333333,463.84893,800.51427)"
         clip-path="url(#clipPath6)" />
      <path
         id="path7"
         d="M 0,0 C -5.182,76.562 -13.028,155.923 22.618,189.582 -21.641,174.648 -14.942,90.274 -4.707,1.082 -3.138,0.722 -1.568,0.361 0,0"
         style="fill:#c6e446;fill-opacity:1;fill-rule:evenodd;stroke:none"
         transform="matrix(1.3333333,0,0,-1.3333333,420.87627,409.3092)"
         clip-path="url(#clipPath8)" />
      <path
         id="path9"
         d="m 0,0 c -0.804,-2.058 -1.607,-4.118 -2.41,-6.177 -2.689,-6.893 0.262,-13.561 -2.731,-19.908 -13.503,-28.632 -24.334,-62.899 -49.472,-82.121 -16.596,41.675 -9.068,65.996 29.666,88.557 6.468,3.767 9.994,9.782 13.287,16.478 0.984,2.001 1.968,4.001 2.953,6.001 C -2.552,2.513 -4.86,3.263 0,0"
         style="fill:#d0e3f4;fill-opacity:1;fill-rule:evenodd;stroke:none"
         transform="matrix(1.3333333,0,0,-1.3333333,264.56573,315.38347)"
         clip-path="url(#clipPath10)" />
      <path
         id="path11"
         d="m 0,0 c 0.197,-2.202 0.393,-4.403 0.589,-6.605 0.657,-7.37 -4.038,-12.947 -2.937,-19.879 4.97,-31.263 5.8,-67.191 24.571,-92.668 27.572,35.382 27.137,60.838 -3.757,93.318 -5.157,5.423 -6.864,12.183 -8.155,19.532 C 9.924,-4.106 9.538,-1.91 9.152,0.285 3.152,1.699 5.577,1.775 0,0"
         style="fill:#d0e3f4;fill-opacity:1;fill-rule:evenodd;stroke:none"
         transform="matrix(1.3333333,0,0,-1.3333333,257.90693,312.01373)"
         clip-path="url(#clipPath12)" />
      <path
         id="path13"
         d="m 0,0 c -0.021,-2.346 -0.043,-4.692 -0.065,-7.038 -0.074,-7.853 -1.619,-14.54 -4.893,-21.175 -16.011,-32.45 -12.432,-71.037 15.339,-98.784 24.13,38.738 24.58,66.123 5.476,99.434 -3.681,6.418 -5.639,12.995 -6.201,20.828 -0.168,2.34 -0.337,4.68 -0.505,7.02 C 3.31,1.805 5.735,1.88 0,0"
         style="fill:#edf4fc;fill-opacity:1;fill-rule:evenodd;stroke:none"
         transform="matrix(1.3333333,0,0,-1.3333333,252.26427,313.04693)"
         clip-path="url(#clipPath14)" />
      <path
         id="path15"
         d="m 0,0 c 5.683,43.79 18.34,73.934 33.459,87.663 7.849,7.128 16.394,9.97 25.06,8.178 8.484,-1.751 16.929,-7.972 24.761,-18.993 20.821,-29.302 37.964,-93.673 40.252,-199.776 0.43,-19.911 2.989,-41.893 5.743,-65.549 5.743,-49.324 12.329,-105.907 2.368,-167.761 l -4.573,0.723 c 9.857,61.202 3.306,117.466 -2.404,166.512 -2.758,23.701 -5.324,45.726 -5.759,65.985 C 116.639,-17.951 99.866,45.509 79.505,74.162 72.385,84.181 64.921,89.792 57.595,91.305 50.454,92.781 43.286,90.324 36.58,84.234 22.213,71.188 10.124,42.053 4.59,-0.58 Z"
         style="fill:#adda1a;fill-opacity:1;fill-rule:evenodd;stroke:none"
         transform="matrix(1.3333333,0,0,-1.3333333,258.72133,296.70307)"
         clip-path="url(#clipPath16)" />
      <path
         id="path17"
         d="M 0,0 C -0.604,-5.629 17.299,-6.256 16.976,-0.604 L 16.145,13.92 C 15.62,23.092 2.316,21.578 1.504,14.014 Z"
         style="fill:#9ac421;fill-opacity:1;fill-rule:evenodd;stroke:none"
         transform="matrix(1.3333333,0,0,-1.3333333,249.01947,319.61133)"
         clip-path="url(#clipPath18)" />
      <path
         id="path19"
         d="M 0,0 C 0.314,59.9 2.566,122.11 -26.841,146.601 8.366,137.118 7.249,71.058 3.613,1.072 2.408,0.715 1.203,0.356 0,0"
         style="fill:#c6e446;fill-opacity:1;fill-rule:evenodd;stroke:none"
         transform="matrix(1.3333333,0,0,-1.3333333,457.66147,517.0964)"
         clip-path="url(#clipPath20)" />
      <path
         id="path21"
         d="m 0,0 c 0.898,-1.933 1.796,-3.868 2.691,-5.803 3.004,-6.475 0.564,-13.073 3.828,-19.006 14.722,-26.757 27.209,-59.1 52.572,-76.099 13.475,41.126 4.764,64.093 -33.889,83.487 -6.454,3.239 -10.21,8.819 -13.783,15.068 C 10.352,-0.486 9.282,1.381 8.215,3.249 2.307,2.573 4.484,3.435 0,0"
         style="fill:#d0e3f4;fill-opacity:1;fill-rule:evenodd;stroke:none"
         transform="matrix(1.3333333,0,0,-1.3333333,570.7708,423.17187)"
         clip-path="url(#clipPath22)" />
      <path
         id="path23"
         d="m 0,0 c -0.058,-2.131 -0.113,-4.263 -0.17,-6.395 -0.19,-7.134 4.667,-12.225 4.022,-18.964 -2.907,-30.404 -1.546,-65.047 -18.087,-90.707 -28.678,32.412 -29.79,56.95 -1.994,90.08 4.641,5.534 5.877,12.145 6.679,19.3 0.24,2.136 0.481,4.273 0.721,6.411 C -3.137,1.447 -5.479,1.373 0,0"
         style="fill:#d0e3f4;fill-opacity:1;fill-rule:evenodd;stroke:none"
         transform="matrix(1.3333333,0,0,-1.3333333,576.98053,419.52733)"
         clip-path="url(#clipPath24)" />
      <path
         id="path25"
         d="m 0,0 c 0.163,-2.258 0.324,-4.515 0.486,-6.774 0.542,-7.557 2.433,-13.903 5.984,-20.094 17.369,-30.283 16.242,-67.653 -8.832,-96.041 -25.563,35.852 -27.643,62.192 -11.249,95.415 3.157,6.4 4.649,12.852 4.719,20.429 0.021,2.262 0.042,4.525 0.064,6.788 C -3.296,1.538 -5.635,1.466 0,0"
         style="fill:#edf4fc;fill-opacity:1;fill-rule:evenodd;stroke:none"
         transform="matrix(1.3333333,0,0,-1.3333333,582.4752,420.18227)"
         clip-path="url(#clipPath26)" />
      <path
         id="path27"
         d="m 0,0 c -6.363,32.831 -17.125,54.837 -28.855,64.225 -5.389,4.313 -10.941,5.846 -16.27,4.394 -5.513,-1.503 -10.954,-6.163 -15.94,-14.196 -14.423,-23.239 -24.37,-73.399 -21.033,-155.262 0.646,-15.789 -0.283,-33.098 -1.28,-51.728 -2.061,-38.453 -4.427,-82.564 6.214,-129.704 l -4.518,-1.014 c -10.783,47.766 -8.4,92.211 -6.324,130.955 0.994,18.535 1.917,35.758 1.283,51.311 -3.38,82.874 6.877,133.958 21.72,157.874 5.64,9.085 12.019,14.417 18.662,16.228 6.83,1.861 13.777,0.03 20.37,-5.247 C -13.425,57.797 -2.026,34.824 4.553,0.871 Z"
         style="fill:#adda1a;fill-opacity:1;fill-rule:evenodd;stroke:none"
         transform="matrix(1.3333333,0,0,-1.3333333,573.11587,422.5104)"
         clip-path="url(#clipPath28)" />
      <path
         id="path29"
         d="m 0,0 c 0.918,-5.383 -16.282,-7.064 -16.312,-1.6 l -0.071,14.034 c -0.047,8.862 12.854,8.205 14.091,0.971 z"
         style="fill:#9ac421;fill-opacity:1;fill-rule:evenodd;stroke:none"
         transform="matrix(1.3333333,0,0,-1.3333333,585.99613,426.30853)"
         clip-path="url(#clipPath30)" />
      <path
         id="path31"
         d="m 0,0 c 0.016,-1.886 0.032,-3.772 0.048,-5.659 0.054,-6.313 4.63,-11.745 4.258,-17.621 -1.675,-26.514 0.661,-57.594 -13.555,-77.357 -27.086,34.161 -28.874,56.202 -4.671,80.526 4.041,4.061 4.955,9.715 5.457,15.933 0.15,1.858 0.299,3.714 0.45,5.571 C -2.897,1.87 -5.021,2.239 0,0"
         style="fill:#d0e3f4;fill-opacity:1;fill-rule:evenodd;stroke:none"
         transform="matrix(1.3333333,0,0,-1.3333333,368.82293,403.64133)"
         clip-path="url(#clipPath32)" />
      <path
         id="path33"
         d="m 0,0 c 0.169,-1.902 0.339,-3.805 0.509,-5.708 0.568,-6.37 -3.49,-11.192 -2.54,-17.182 4.295,-27.023 5.014,-58.075 21.238,-80.095 23.832,30.579 23.457,52.584 -3.247,80.657 -4.459,4.685 -5.932,10.53 -7.049,16.882 C 8.576,-3.548 8.243,-1.651 7.91,0.247 2.724,1.47 4.82,1.535 0,0"
         style="fill:#d0e3f4;fill-opacity:1;fill-rule:evenodd;stroke:none"
         transform="matrix(1.3333333,0,0,-1.3333333,362.85027,397.78773)"
         clip-path="url(#clipPath34)" />
      <path
         id="path35"
         d="m 0,0 c -0.019,-2.028 -0.038,-4.055 -0.056,-6.083 -0.064,-6.788 -1.399,-12.567 -4.228,-18.302 -13.84,-28.048 -10.748,-61.399 13.257,-85.382 20.856,33.483 21.245,57.153 4.734,85.943 C 10.526,-18.275 8.832,-12.591 8.346,-5.82 8.2,-3.798 8.055,-1.776 7.911,0.247 2.86,1.56 4.958,1.626 0,0"
         style="fill:#edf4fc;fill-opacity:1;fill-rule:evenodd;stroke:none"
         transform="matrix(1.3333333,0,0,-1.3333333,357.972,398.68093)"
         clip-path="url(#clipPath36)" />
      <path
         id="path37"
         d="M 0,0 C 1.641,0.413 3.281,0.823 4.923,1.234 7.339,94.923 9.326,189.076 33.775,259.004 -9.077,236.6 -9.061,127.452 0,0"
         style="fill:#c6e446;fill-opacity:1;fill-rule:evenodd;stroke:none"
         transform="matrix(1.3333333,0,0,-1.3333333,426.6992,712.99213)"
         clip-path="url(#clipPath38)" />
      <path
         id="path39"
         d="m 0,0 c 1.15,37.414 4.814,63.066 9.564,74.666 2.797,6.838 6.282,9.515 10.253,7.739 3.145,-1.406 6.201,-6.388 8.967,-15.178 7.646,-24.308 14.745,-80.642 17.346,-175.176 0.472,-17.214 1.691,-36.291 3,-56.822 2.719,-42.627 5.838,-91.526 3.566,-144.655 l -4.625,0.183 c 2.26,52.844 -0.855,101.643 -3.569,144.181 -1.304,20.466 -2.519,39.483 -2.999,56.985 -2.586,94.046 -9.6,149.936 -17.148,173.925 -2.341,7.443 -4.514,11.474 -6.425,12.328 -1.085,0.485 -2.477,-1.325 -4.086,-5.252 C 9.29,61.795 5.759,36.723 4.628,-0.127 Z"
         style="fill:#adda1a;fill-opacity:1;fill-rule:evenodd;stroke:none"
         transform="matrix(1.3333333,0,0,-1.3333333,363.1256,384.80213)"
         clip-path="url(#clipPath40)" />
      <path
         id="path41"
         d="M 0,0 C -0.523,-4.866 14.952,-5.408 14.672,-0.522 L 13.953,12.032 C 13.501,19.959 2.002,18.651 1.299,12.113 Z"
         style="fill:#9ac421;fill-opacity:1;fill-rule:evenodd;stroke:none"
         transform="matrix(1.3333333,0,0,-1.3333333,355.16867,404.35347)"
         clip-path="url(#clipPath42)" />
      <path
         id="path43"
         d="m 0,0 c 0.215,-2.519 0.429,-5.04 0.643,-7.56 0.717,-8.435 -4.709,-16.067 -3.479,-23.885 5.557,-35.262 6.328,-76.956 27.785,-102.161 31.889,47.874 31.518,77.453 -3.844,107.913 -5.905,5.087 -7.832,12.559 -9.282,20.818 -0.431,2.468 -0.865,4.936 -1.298,7.404 C 3.633,2.738 6.422,3.409 0,0"
         style="fill:#d0e3f4;fill-opacity:1;fill-rule:evenodd;stroke:none"
         transform="matrix(1.3333333,0,0,-1.3333333,528.4024,178.4688)"
         clip-path="url(#clipPath44)" />
      <path
         id="path45"
         d="m 0,0 c 0.011,-2.554 0.024,-5.109 0.035,-7.664 0.04,-8.552 6.063,-14.653 5.54,-22.732 -2.352,-36.44 0.578,-77.962 -18.327,-108.718 -35.65,38.846 -37.903,68.257 -5.764,107.968 5.366,6.631 6.603,14.555 7.299,23.13 0.208,2.562 0.416,5.124 0.624,7.685 C -3.821,1.734 -6.629,1.648 0,0"
         style="fill:#d0e3f4;fill-opacity:1;fill-rule:evenodd;stroke:none"
         transform="matrix(1.3333333,0,0,-1.3333333,535.64453,170.15493)"
         clip-path="url(#clipPath46)" />
      <path
         id="path47"
         d="m 0,0 c 0.278,-2.706 0.559,-5.411 0.837,-8.118 0.934,-9.057 3.441,-16.663 7.936,-24.084 21.993,-36.296 22.038,-81.087 -7.01,-115.113 -32.041,42.97 -35.524,74.542 -17.081,114.362 3.552,7.672 5.102,15.404 4.903,24.484 -0.059,2.713 -0.118,5.426 -0.178,8.139 C -4.015,1.845 -6.823,1.757 0,0"
         style="fill:#edf4fc;fill-opacity:1;fill-rule:evenodd;stroke:none"
         transform="matrix(1.3333333,0,0,-1.3333333,542.26947,170.9408)"
         clip-path="url(#clipPath48)" />
      <path
         id="path49"
         d="M 0,0 C -2.195,0.413 -4.392,0.826 -6.589,1.24 -9.525,126.511 -11.881,252.439 -44.401,344.048 12.918,317.622 12.545,171.443 0,0"
         style="fill:#dfee71;fill-opacity:1;fill-rule:evenodd;stroke:none"
         transform="matrix(1.3333333,0,0,-1.3333333,454.45573,683.51173)"
         clip-path="url(#clipPath50)" />
      <path
         id="path51"
         d="m 0,0 c -2.634,24.051 -6.385,40.027 -10.668,47.039 -1.811,2.965 -3.589,3.84 -5.242,2.482 -2.676,-2.199 -5.525,-7.892 -8.438,-17.292 -10.184,-32.893 -19.75,-108.372 -23.511,-234.443 -0.699,-23.435 -2.385,-49.015 -4.201,-76.542 -3.772,-57.214 -8.1,-122.848 -5.24,-193.47 l -4.627,-0.183 c -2.871,70.917 1.463,136.647 5.239,193.942 1.821,27.599 3.512,53.243 4.202,76.381 3.777,126.541 13.426,202.461 23.713,235.675 3.187,10.3 6.551,16.735 9.924,19.508 4.397,3.612 8.504,2.304 12.137,-3.644 C -2.085,41.877 1.898,25.236 4.609,0.49 Z"
         style="fill:#adda1a;fill-opacity:1;fill-rule:evenodd;stroke:none"
         transform="matrix(1.3333333,0,0,-1.3333333,528.84373,166.89773)"
         clip-path="url(#clipPath52)" />
      <path
         id="path53"
         d="m 0,0 c 1.306,-6.454 -19.289,-8.467 -19.527,-1.92 l -0.612,16.822 c -0.387,10.622 15.13,9.835 16.885,1.163 z"
         style="fill:#9ac421;fill-opacity:1;fill-rule:evenodd;stroke:none"
         transform="matrix(1.3333333,0,0,-1.3333333,546.7252,178.28253)"
         clip-path="url(#clipPath54)" />
    </g>
  </g>
</svg>
