<?xml version="1.0" encoding="UTF-8" standalone="no"?>
<!-- Created with Inkscape (http://www.inkscape.org/) -->

<svg
   version="1.1"
   id="svg1"
   width="880"
   height="880"
   viewBox="0 0 880 880"
   sodipodi:docname="snowman-clipart.svg"
   inkscape:version="1.3.2 (091e20e, 2023-11-25, custom)"
   xmlns:inkscape="http://www.inkscape.org/namespaces/inkscape"
   xmlns:sodipodi="http://sodipodi.sourceforge.net/DTD/sodipodi-0.dtd"
   xmlns="http://www.w3.org/2000/svg"
   xmlns:svg="http://www.w3.org/2000/svg">
  <defs
     id="defs1">
    <clipPath
       clipPathUnits="userSpaceOnUse"
       id="clipPath17">
      <path
         d="M 0,660 H 660 V 0 H 0 Z"
         transform="translate(-245.7646,-486.63961)"
         id="path17" />
    </clipPath>
    <clipPath
       clipPathUnits="userSpaceOnUse"
       id="clipPath19">
      <path
         d="M 0,660 H 660 V 0 H 0 Z"
         transform="translate(-9.9999752e-4,-27.437498)"
         id="path19" />
    </clipPath>
    <clipPath
       clipPathUnits="userSpaceOnUse"
       id="clipPath21">
      <path
         d="M 0,660 H 660 V 0 H 0 Z"
         transform="translate(-379.26561,-347.06051)"
         id="path21" />
    </clipPath>
    <clipPath
       clipPathUnits="userSpaceOnUse"
       id="clipPath23">
      <path
         d="M 0,660 H 660 V 0 H 0 Z"
         transform="translate(-247.6372,-400.55811)"
         id="path23" />
    </clipPath>
    <clipPath
       clipPathUnits="userSpaceOnUse"
       id="clipPath25">
      <path
         d="M 0,660 H 660 V 0 H 0 Z"
         transform="translate(-486.06641,-253.6729)"
         id="path25" />
    </clipPath>
    <clipPath
       clipPathUnits="userSpaceOnUse"
       id="clipPath27">
      <path
         d="M 0,660 H 660 V 0 H 0 Z"
         transform="translate(-487.58401,-249.9316)"
         id="path27" />
    </clipPath>
    <clipPath
       clipPathUnits="userSpaceOnUse"
       id="clipPath29">
      <path
         d="M 0,660 H 660 V 0 H 0 Z"
         transform="translate(-329.99951,-359.38531)"
         id="path29" />
    </clipPath>
    <clipPath
       clipPathUnits="userSpaceOnUse"
       id="clipPath31">
      <path
         d="M 0,660 H 660 V 0 H 0 Z"
         transform="translate(-402.46291,-273.09081)"
         id="path31" />
    </clipPath>
    <clipPath
       clipPathUnits="userSpaceOnUse"
       id="clipPath33">
      <path
         d="M 0,660 H 660 V 0 H 0 Z"
         transform="translate(-406.42971,-238.10551)"
         id="path33" />
    </clipPath>
    <clipPath
       clipPathUnits="userSpaceOnUse"
       id="clipPath35">
      <path
         d="M 0,660 H 660 V 0 H 0 Z"
         transform="translate(-406.42971,-238.10551)"
         id="path35" />
    </clipPath>
    <clipPath
       clipPathUnits="userSpaceOnUse"
       id="clipPath37">
      <path
         d="M 0,660 H 660 V 0 H 0 Z"
         transform="translate(-329.99951,-260.47461)"
         id="path37" />
    </clipPath>
    <clipPath
       clipPathUnits="userSpaceOnUse"
       id="clipPath39">
      <path
         d="M 0,660 H 660 V 0 H 0 Z"
         transform="translate(-429.77931,-141.6514)"
         id="path39" />
    </clipPath>
    <clipPath
       clipPathUnits="userSpaceOnUse"
       id="clipPath41">
      <path
         d="M 0,660 H 660 V 0 H 0 Z"
         transform="translate(-329.99951,-137.8213)"
         id="path41" />
    </clipPath>
    <clipPath
       clipPathUnits="userSpaceOnUse"
       id="clipPath43">
      <path
         d="M 0,660 H 660 V 0 H 0 Z"
         transform="translate(-180.92241,-0.26660251)"
         id="path43" />
    </clipPath>
    <clipPath
       clipPathUnits="userSpaceOnUse"
       id="clipPath45">
      <path
         d="M 0,660 H 660 V 0 H 0 Z"
         transform="translate(-361.43361,-335.98241)"
         id="path45" />
    </clipPath>
    <clipPath
       clipPathUnits="userSpaceOnUse"
       id="clipPath47">
      <path
         d="M 0,660 H 660 V 0 H 0 Z"
         transform="translate(-116.1357,-283.3525)"
         id="path47" />
    </clipPath>
    <clipPath
       clipPathUnits="userSpaceOnUse"
       id="clipPath49">
      <path
         d="M 0,660 H 660 V 0 H 0 Z"
         transform="translate(-114.2671,-279.77151)"
         id="path49" />
    </clipPath>
    <clipPath
       clipPathUnits="userSpaceOnUse"
       id="clipPath51">
      <path
         d="M 0,660 H 660 V 0 H 0 Z"
         transform="translate(-329.35501,-351.06151)"
         id="path51" />
    </clipPath>
    <clipPath
       clipPathUnits="userSpaceOnUse"
       id="clipPath53">
      <path
         d="M 0,660 H 660 V 0 H 0 Z"
         transform="translate(-368.14651,-307.01071)"
         id="path53" />
    </clipPath>
    <clipPath
       clipPathUnits="userSpaceOnUse"
       id="clipPath55">
      <path
         d="M 0,660 H 660 V 0 H 0 Z"
         transform="translate(-348.65721,-312.22561)"
         id="path55" />
    </clipPath>
    <clipPath
       clipPathUnits="userSpaceOnUse"
       id="clipPath57">
      <path
         d="M 0,660 H 660 V 0 H 0 Z"
         transform="translate(-387.88281,-310.04691)"
         id="path57" />
    </clipPath>
    <clipPath
       clipPathUnits="userSpaceOnUse"
       id="clipPath59">
      <path
         d="M 0,660 H 660 V 0 H 0 Z"
         transform="translate(-424.44731,-593.73442)"
         id="path59" />
    </clipPath>
    <clipPath
       clipPathUnits="userSpaceOnUse"
       id="clipPath61">
      <path
         d="M 0,660 H 660 V 0 H 0 Z"
         transform="translate(-397.67581,-520.26421)"
         id="path61" />
    </clipPath>
    <clipPath
       clipPathUnits="userSpaceOnUse"
       id="clipPath63">
      <path
         d="M 0,660 H 660 V 0 H 0 Z"
         transform="translate(-476.00491,-486.88481)"
         id="path63" />
    </clipPath>
    <clipPath
       clipPathUnits="userSpaceOnUse"
       id="clipPath65">
      <path
         d="M 0,660 H 660 V 0 H 0 Z"
         transform="translate(-604.38281,-514.03912)"
         id="path65" />
    </clipPath>
    <clipPath
       clipPathUnits="userSpaceOnUse"
       id="clipPath67">
      <path
         d="M 0,660 H 660 V 0 H 0 Z"
         transform="translate(-586.60552,-233.90821)"
         id="path67" />
    </clipPath>
    <clipPath
       clipPathUnits="userSpaceOnUse"
       id="clipPath69">
      <path
         d="M 0,660 H 660 V 0 H 0 Z"
         transform="translate(-567.87502,-139.22751)"
         id="path69" />
    </clipPath>
    <clipPath
       clipPathUnits="userSpaceOnUse"
       id="clipPath71">
      <path
         d="M 0,660 H 660 V 0 H 0 Z"
         transform="translate(-525.31151,-353.40431)"
         id="path71" />
    </clipPath>
    <clipPath
       clipPathUnits="userSpaceOnUse"
       id="clipPath73">
      <path
         d="M 0,660 H 660 V 0 H 0 Z"
         transform="translate(-380.86621,-411.93021)"
         id="path73" />
    </clipPath>
    <clipPath
       clipPathUnits="userSpaceOnUse"
       id="clipPath75">
      <path
         d="M 0,660 H 660 V 0 H 0 Z"
         transform="translate(-94.463905,-337.21681)"
         id="path75" />
    </clipPath>
    <clipPath
       clipPathUnits="userSpaceOnUse"
       id="clipPath77">
      <path
         d="M 0,660 H 660 V 0 H 0 Z"
         transform="translate(-75.787599,-510.30181)"
         id="path77" />
    </clipPath>
    <clipPath
       clipPathUnits="userSpaceOnUse"
       id="clipPath79">
      <path
         d="M 0,660 H 660 V 0 H 0 Z"
         transform="translate(-91.9741,-591.24322)"
         id="path79" />
    </clipPath>
    <clipPath
       clipPathUnits="userSpaceOnUse"
       id="clipPath81">
      <path
         d="M 0,660 H 660 V 0 H 0 Z"
         transform="translate(-16.6699,-382.04491)"
         id="path81" />
    </clipPath>
    <clipPath
       clipPathUnits="userSpaceOnUse"
       id="clipPath83">
      <path
         d="M 0,660 H 660 V 0 H 0 Z"
         transform="translate(-24.7324,-155.415)"
         id="path83" />
    </clipPath>
    <clipPath
       clipPathUnits="userSpaceOnUse"
       id="clipPath85">
      <path
         d="M 0,660 H 660 V 0 H 0 Z"
         transform="translate(-123.7959,-140.9668)"
         id="path85" />
    </clipPath>
    <clipPath
       clipPathUnits="userSpaceOnUse"
       id="clipPath87">
      <path
         d="M 0,660 H 660 V 0 H 0 Z"
         transform="translate(-93.841802,-54.550801)"
         id="path87" />
    </clipPath>
    <clipPath
       clipPathUnits="userSpaceOnUse"
       id="clipPath89">
      <path
         d="M 0,660 H 660 V 0 H 0 Z"
         transform="translate(-543.36721,-623.61912)"
         id="path89" />
    </clipPath>
  </defs>
  <sodipodi:namedview
     id="namedview1"
     pagecolor="#ffffff"
     bordercolor="#000000"
     borderopacity="0.25"
     inkscape:showpageshadow="2"
     inkscape:pageopacity="0.0"
     inkscape:pagecheckerboard="0"
     inkscape:deskcolor="#d1d1d1"
     inkscape:zoom="0.67272727"
     inkscape:cx="439.25676"
     inkscape:cy="440"
     inkscape:window-width="1440"
     inkscape:window-height="830"
     inkscape:window-x="-6"
     inkscape:window-y="-6"
     inkscape:window-maximized="1"
     inkscape:current-layer="g1">
    <inkscape:page
       x="0"
       y="0"
       inkscape:label="1"
       id="page1"
       width="880"
       height="880"
       margin="0.35544801 0 0"
       bleed="0" />
  </sodipodi:namedview>
  <g
     id="g1"
     inkscape:groupmode="layer"
     inkscape:label="1">
    <g
       id="group-MC0">
      <path
         id="path2"
         d="M 0,0.266 H 660 V 659.999 H 0 Z"
         style="fill:#97dcdf;fill-opacity:1;fill-rule:nonzero;stroke:none"
         transform="matrix(1.3333333,0,0,-1.3333333,0,880)" />
      <path
         id="path3"
         d="M 0,0 V -38.733 L 7.298,-39.076 0,-41.164 v -180.294 h 53.562 l 4.128,54.99 -41.674,33.998 43.812,-5.529 11.795,157.072 -20.741,7.224 21.409,1.66 6.607,87.995 z"
         style="fill:#7ed4d3;fill-opacity:1;fill-rule:nonzero;stroke:none"
         transform="matrix(1.3333333,0,0,-1.3333333,0.0012,354.2008)" />
      <path
         id="path4"
         d="M 0,0 21.407,-1.66 0.666,-8.883 12.46,-165.956 l 43.813,5.53 -41.675,-33.998 4.128,-54.989 h 110.542 v 137.719 l -22.211,32.642 -42.066,12.018 32.837,1.546 L -6.61,87.995 Z"
         style="fill:#7ed4d3;fill-opacity:1;fill-rule:nonzero;stroke:none"
         transform="matrix(1.3333333,0,0,-1.3333333,707.6424,235.5712)" />
      <path
         id="path5"
         d="m 0,0 18.556,-1.438 -17.978,-6.263 10.225,-136.151 37.976,4.792 -36.124,-29.469 3.579,-47.664 h 150.325 v 12.037 l -27.112,7.891 27.112,2.854 v 16.488 l -73.759,108.4 -36.465,10.416 28.463,1.34 -90.526,133.041 z"
         style="fill:#408c92;fill-opacity:1;fill-rule:nonzero;stroke:none"
         transform="matrix(1.3333333,0,0,-1.3333333,611.7636,591.3868)" />
      <path
         id="path6"
         d="M 0,0 18.557,-1.439 0.578,-7.7 l 10.225,-136.152 37.976,4.793 -36.124,-29.47 11.692,-155.718 39.544,4.393 -38.147,-22.97 5.444,-72.513 h 135.371 v 211.181 l -27.114,7.892 27.114,2.854 v 16.488 l -73.761,108.4 -36.463,10.417 28.463,1.339 -90.526,133.04 z"
         style="fill:#56adae;fill-opacity:1;fill-rule:nonzero;stroke:none"
         transform="matrix(1.3333333,0,0,-1.3333333,657.9216,325.8616)" />
      <path
         id="path7"
         d="m 0,0 h 23.224 v 97.661 l -88.612,175.783 z m -62.05,0 h 19.876 l -41.892,187.526 z"
         style="fill:#408c92;fill-opacity:1;fill-rule:nonzero;stroke:none"
         transform="matrix(1.3333333,0,0,-1.3333333,849.0336,879.6448)" />
      <path
         id="path8"
         d="m 0,0 -12.865,-0.606 -62.91,84.897 0.255,-28.245 -9.278,0.72 -5.727,76.274 z"
         style="fill:#ffffff;fill-opacity:1;fill-rule:evenodd;stroke:none"
         transform="matrix(1.3333333,0,0,-1.3333333,770.98573,401.54947)" />
      <path
         id="path9"
         d="M 0,0 1.234,-139.284 -8.991,-3.131 Z"
         style="fill:#ffffff;fill-opacity:1;fill-rule:evenodd;stroke:none"
         transform="matrix(1.3333333,0,0,-1.3333333,670.67973,331.95373)" />
      <path
         id="path10"
         d="m 0,0 v 16.488 l -73.76,108.4 -18.231,5.208 z"
         style="fill:#ffffff;fill-opacity:1;fill-rule:nonzero;stroke:none"
         transform="matrix(1.3333333,0,0,-1.3333333,879.9996,583.7416)" />
      <path
         id="path11"
         d="M 0,0 32.837,-1.545 -9.229,-13.567 -94.323,-138.622 v -19.02 l 31.277,-3.294 -31.277,-9.102 v -13.888 H 79.099 l 4.13,54.988 -41.675,33.998 43.812,-5.529 11.795,157.072 -20.741,7.225 21.408,1.66 6.609,87.994 z"
         style="fill:#408c92;fill-opacity:1;fill-rule:nonzero;stroke:none"
         transform="matrix(1.3333333,0,0,-1.3333333,179.016,634.4104)" />
      <path
         id="path12"
         d="M 0,0 32.836,-1.545 -9.23,-13.565 -94.324,-138.621 v -19.02 l 31.278,-3.294 -31.278,-9.102 V -413.669 H 61.847 l 6.282,83.653 -44.009,26.503 45.618,-5.067 13.49,179.642 -41.676,34.002 43.815,-5.529 11.794,157.071 -20.741,7.224 21.408,1.659 6.608,87.994 z"
         style="fill:#56adae;fill-opacity:1;fill-rule:nonzero;stroke:none"
         transform="matrix(1.3333333,0,0,-1.3333333,125.766,328.0864)" />
      <path
         id="path13"
         d="m 0,0 14.843,-0.699 72.576,97.943 -0.295,-32.586 10.704,0.83 6.608,87.995 z"
         style="fill:#ffffff;fill-opacity:1;fill-rule:evenodd;stroke:none"
         transform="matrix(1.3333333,0,0,-1.3333333,125.7656,328.086)" />
      <path
         id="path14"
         d="M 0,0 -1.424,-160.682 10.371,-3.611 Z"
         style="fill:#ffffff;fill-opacity:1;fill-rule:evenodd;stroke:none"
         transform="matrix(1.3333333,0,0,-1.3333333,241.48627,247.79747)" />
      <path
         id="path15"
         d="m 0,0 -85.093,-125.056 v -19.021 L 21.033,6.01 Z"
         style="fill:#ffffff;fill-opacity:1;fill-rule:nonzero;stroke:none"
         transform="matrix(1.3333333,0,0,-1.3333333,113.4588,346.1728)" />
      <path
         id="path16"
         d="m 0,0 c 41.838,0 75.96,34.122 75.96,75.959 0,41.837 -34.122,75.959 -75.96,75.959 -41.836,0 -75.958,-34.122 -75.958,-75.959 C -75.958,34.122 -41.836,0 0,0"
         style="fill:#ffffff;fill-opacity:1;fill-rule:evenodd;stroke:none"
         transform="matrix(1.3333333,0,0,-1.3333333,327.68613,231.1472)"
         clip-path="url(#clipPath17)" />
      <path
         id="path18"
         d="M 0,0 115.567,280.065 42.732,-27.171 H 0 Z"
         style="fill:#408c92;fill-opacity:1;fill-rule:evenodd;stroke:none"
         transform="matrix(1.3333333,0,0,-1.3333333,0.00133333,843.41667)"
         clip-path="url(#clipPath19)" />
      <path
         id="path20"
         d="m 0,0 -77.15,71.864 c -14.021,13.063 -56.738,0.663 -54.478,-18.366 l 8.986,-75.65 z"
         style="fill:#463d3b;fill-opacity:1;fill-rule:evenodd;stroke:none"
         transform="matrix(1.3333333,0,0,-1.3333333,505.68747,417.25267)"
         clip-path="url(#clipPath21)" />
      <path
         id="path22"
         d="m 0,0 8.986,-75.65 91.289,16.49 17.064,12.14 C 83.335,-25.344 48.119,-27.261 12.452,-37.981 8.301,-25.32 4.151,-12.661 0,0"
         style="fill:#2f2825;fill-opacity:1;fill-rule:evenodd;stroke:none"
         transform="matrix(1.3333333,0,0,-1.3333333,330.18293,345.92253)"
         clip-path="url(#clipPath23)" />
      <path
         id="path24"
         d="m 0,0 -15.614,-33.271 -128.207,-14.977 c -3.527,-0.414 -2.258,-12.132 1.259,-11.64 l 129.639,18.133 38.78,-14.094 c 1.837,-0.667 3.139,2.546 1.353,3.349 l -33.153,14.88 53.347,26.87 c 1.747,0.88 -0.24,4.621 -2.011,3.786 L -7.651,-31.933 3.99,-1.303 C 4.684,0.523 0.828,1.768 0,0"
         style="fill:#ffffff;fill-opacity:1;fill-rule:evenodd;stroke:none"
         transform="matrix(1.3333333,0,0,-1.3333333,648.08853,541.76947)"
         clip-path="url(#clipPath25)" />
      <path
         id="path26"
         d="M 0,0 -15.612,-33.272 -143.819,-48.25 c -3.531,-0.412 -2.26,-12.131 1.256,-11.64 l 129.642,18.135 38.78,-14.094 c 1.836,-0.669 3.139,2.544 1.354,3.346 L -5.94,-37.62 47.405,-10.75 c 1.749,0.88 -0.241,4.621 -2.012,3.786 L -7.651,-31.934 3.99,-1.306 C 4.684,0.523 0.829,1.766 0,0"
         style="fill:#985422;fill-opacity:1;fill-rule:evenodd;stroke:none"
         transform="matrix(1.3333333,0,0,-1.3333333,650.112,546.75787)"
         clip-path="url(#clipPath27)" />
      <path
         id="path28"
         d="m 0,0 c 44.702,0 80.938,-26.723 80.938,-59.685 0,-32.963 -36.236,-59.686 -80.938,-59.686 -44.7,0 -80.935,26.723 -80.935,59.686 C -80.935,-26.723 -44.7,0 0,0"
         style="fill:#ffffff;fill-opacity:1;fill-rule:evenodd;stroke:none"
         transform="matrix(1.3333333,0,0,-1.3333333,439.99933,400.8196)"
         clip-path="url(#clipPath29)" />
      <path
         id="path30"
         d="m 0,0 c -13.267,-19.608 -40.729,-33.076 -72.463,-33.076 -44.7,0 -80.936,26.723 -80.936,59.685 0,9.009 2.712,17.552 7.56,25.208 -0.807,-3.189 -1.228,-6.466 -1.228,-9.813 0,-32.225 38.866,-58.35 86.813,-58.35 23.404,0 44.641,6.227 60.254,16.346"
         style="fill:#ceeff1;fill-opacity:1;fill-rule:evenodd;stroke:none"
         transform="matrix(1.3333333,0,0,-1.3333333,536.6172,515.87893)"
         clip-path="url(#clipPath31)" />
      <path
         id="path32"
         d="M 0,0 C 13.786,-3.443 13.555,37.407 0.338,42.637 -48.875,62.1 -102.393,59.109 -150.576,37.626 -161.144,32.916 -159.474,-0.066 -148.314,2.989 -100.342,16.135 -47.778,11.936 0,0"
         style="fill:#f14960;fill-opacity:1;fill-rule:evenodd;stroke:none"
         transform="matrix(1.3333333,0,0,-1.3333333,541.90627,562.526)"
         clip-path="url(#clipPath33)" />
      <path
         id="path34"
         d="M 0,0 C 13.786,-3.443 13.555,37.407 0.338,42.637 3.536,38.992 5.075,33.613 4.891,28.072 4.738,23.488 2.539,19.613 -1.317,17.132 -5.177,14.653 -9.615,14.263 -13.849,16.027 -56.945,33.999 -99.178,31.93 -140.449,7.465 l 4.163,-1.559 C -91.655,15.383 -43.816,10.944 0,0"
         style="fill:#eb3545;fill-opacity:1;fill-rule:evenodd;stroke:none"
         transform="matrix(1.3333333,0,0,-1.3333333,541.90627,562.526)"
         clip-path="url(#clipPath35)" />
      <path
         id="path36"
         d="m 0,0 c 61.552,0 111.448,-36.795 111.448,-82.184 0,-45.388 -49.896,-82.184 -111.448,-82.184 -61.55,0 -111.446,36.796 -111.446,82.184 C -111.446,-36.795 -61.55,0 0,0"
         style="fill:#ffffff;fill-opacity:1;fill-rule:evenodd;stroke:none"
         transform="matrix(1.3333333,0,0,-1.3333333,439.99933,532.70053)"
         clip-path="url(#clipPath37)" />
      <path
         id="path38"
         d="m 0,0 c -18.267,-27 -56.084,-45.545 -99.78,-45.545 -61.55,0 -111.446,36.796 -111.446,82.185 0,12.405 3.733,24.166 10.41,34.712 -1.109,-4.393 -1.695,-8.909 -1.695,-13.513 0,-44.375 53.522,-80.348 119.541,-80.348 32.227,0 61.471,8.573 82.97,22.509"
         style="fill:#ceeff1;fill-opacity:1;fill-rule:evenodd;stroke:none"
         transform="matrix(1.3333333,0,0,-1.3333333,573.03907,691.13147)"
         clip-path="url(#clipPath39)" />
      <path
         id="path40"
         d="m 0,0 c 84.399,0 152.82,-50.456 152.82,-112.692 0,-8.545 -1.298,-16.863 -3.739,-24.863 h -298.158 c -2.443,8 -3.74,16.318 -3.74,24.863 C -152.817,-50.456 -84.397,0 0,0"
         style="fill:#ffffff;fill-opacity:1;fill-rule:evenodd;stroke:none"
         transform="matrix(1.3333333,0,0,-1.3333333,439.99933,696.23827)"
         clip-path="url(#clipPath41)" />
      <path
         id="path42"
         d="m 0,0 c -2.443,8 -3.74,16.317 -3.74,24.862 0,17.01 5.121,33.137 14.273,47.598 C 9.014,66.435 8.212,60.247 8.212,53.932 8.212,34.337 15.831,15.942 29.174,0 Z"
         style="fill:#ceeff1;fill-opacity:1;fill-rule:evenodd;stroke:none"
         transform="matrix(1.3333333,0,0,-1.3333333,241.22987,879.64453)"
         clip-path="url(#clipPath43)" />
      <path
         id="path44"
         d="M 0,0 86.544,25.837 10.586,-22.26 C -0.315,-29.16 -13.116,-3.918 0,0"
         style="fill:#f68413;fill-opacity:1;fill-rule:evenodd;stroke:none"
         transform="matrix(1.3333333,0,0,-1.3333333,481.91147,432.02347)"
         clip-path="url(#clipPath45)" />
      <path
         id="path46"
         d="m 0,0 12.366,-34.612 126.193,-27.143 c 3.473,-0.748 1.09,-12.292 -2.364,-11.467 L 8.878,-42.801 -31.07,-53.129 c -1.893,-0.488 -2.882,2.833 -1.028,3.462 l 34.422,11.649 -50.539,31.84 c -1.656,1.042 0.681,4.574 2.365,3.575 L 4.567,-32.521 -4.097,-0.92 C -4.613,0.965 -0.657,1.836 0,0"
         style="fill:#ffffff;fill-opacity:1;fill-rule:evenodd;stroke:none"
         transform="matrix(1.3333333,0,0,-1.3333333,154.8476,502.19667)"
         clip-path="url(#clipPath47)" />
      <path
         id="path48"
         d="m 0,0 12.366,-34.61 126.193,-27.145 c 3.473,-0.748 1.09,-12.292 -2.364,-11.465 L 8.878,-42.799 -31.069,-53.127 c -1.894,-0.488 -2.883,2.833 -1.029,3.462 l 34.422,11.649 -50.539,31.838 c -1.656,1.044 0.682,4.575 2.365,3.577 L 4.568,-32.519 -4.097,-0.918 C -4.613,0.967 -0.657,1.836 0,0"
         style="fill:#985422;fill-opacity:1;fill-rule:evenodd;stroke:none"
         transform="matrix(1.3333333,0,0,-1.3333333,152.35613,506.97133)"
         clip-path="url(#clipPath49)" />
      <path
         id="path50"
         d="m 0,0 c 4.986,0 9.027,-3.764 9.027,-8.407 0,-4.641 -4.041,-8.405 -9.027,-8.405 -4.986,0 -9.027,3.764 -9.027,8.405 C -9.027,-3.764 -4.986,0 0,0"
         style="fill:#2f2825;fill-opacity:1;fill-rule:evenodd;stroke:none"
         transform="matrix(1.3333333,0,0,-1.3333333,439.14,411.918)"
         clip-path="url(#clipPath51)" />
      <path
         id="path52"
         d="m 0,0 c 3.368,0 6.101,-2.544 6.101,-5.682 0,-3.136 -2.733,-5.682 -6.101,-5.682 -3.37,0 -6.103,2.546 -6.103,5.682 C -6.103,-2.544 -3.37,0 0,0"
         style="fill:#2f2825;fill-opacity:1;fill-rule:evenodd;stroke:none"
         transform="matrix(1.3333333,0,0,-1.3333333,490.862,470.6524)"
         clip-path="url(#clipPath53)" />
      <path
         id="path54"
         d="m 0,0 c 3.369,0 6.101,-2.544 6.101,-5.684 0,-3.136 -2.732,-5.678 -6.101,-5.678 -3.37,0 -6.103,2.542 -6.103,5.678 C -6.103,-2.544 -3.37,0 0,0"
         style="fill:#2f2825;fill-opacity:1;fill-rule:evenodd;stroke:none"
         transform="matrix(1.3333333,0,0,-1.3333333,464.87627,463.6992)"
         clip-path="url(#clipPath55)" />
      <path
         id="path56"
         d="m 0,0 c 3.368,0 6.101,-2.544 6.101,-5.682 0,-3.136 -2.733,-5.682 -6.101,-5.682 -3.37,0 -6.103,2.546 -6.103,5.682 C -6.103,-2.544 -3.37,0 0,0"
         style="fill:#2f2825;fill-opacity:1;fill-rule:evenodd;stroke:none"
         transform="matrix(1.3333333,0,0,-1.3333333,517.17707,466.60413)"
         clip-path="url(#clipPath57)" />
      <path
         id="path58"
         d="m 0,0 c 3.429,0 6.228,2.796 6.228,6.225 0,3.429 -2.799,6.227 -6.228,6.227 -3.428,0 -6.225,-2.798 -6.225,-6.227 C -6.225,2.796 -3.428,0 0,0"
         style="fill:#ffffff;fill-opacity:1;fill-rule:evenodd;stroke:none"
         transform="matrix(1.3333333,0,0,-1.3333333,565.92973,88.354133)"
         clip-path="url(#clipPath59)" />
      <path
         id="path60"
         d="m 0,0 c 7.889,0 14.321,6.434 14.321,14.321 0,7.887 -6.432,14.32 -14.321,14.32 -7.886,0 -14.318,-6.433 -14.318,-14.32 C -14.318,6.434 -7.886,0 0,0"
         style="fill:#ffffff;fill-opacity:1;fill-rule:evenodd;stroke:none"
         transform="matrix(1.3333333,0,0,-1.3333333,530.2344,186.3144)"
         clip-path="url(#clipPath61)" />
      <path
         id="path62"
         d="m 0,0 c 6.449,0 11.709,5.261 11.709,11.709 0,6.45 -5.26,11.709 -11.709,11.709 -6.448,0 -11.71,-5.259 -11.71,-11.709 C -11.71,5.261 -6.448,0 0,0"
         style="fill:#ffffff;fill-opacity:1;fill-rule:evenodd;stroke:none"
         transform="matrix(1.3333333,0,0,-1.3333333,634.6732,230.82027)"
         clip-path="url(#clipPath63)" />
      <path
         id="path64"
         d="m 0,0 c 3.086,0 5.604,2.517 5.604,5.603 0,3.086 -2.518,5.604 -5.604,5.604 -3.085,0 -5.602,-2.518 -5.602,-5.604 C -5.602,2.517 -3.085,0 0,0"
         style="fill:#ffffff;fill-opacity:1;fill-rule:evenodd;stroke:none"
         transform="matrix(1.3333333,0,0,-1.3333333,805.84373,194.61453)"
         clip-path="url(#clipPath65)" />
      <path
         id="path66"
         d="m 0,0 c 6.018,0 10.927,4.909 10.927,10.926 0,6.017 -4.909,10.927 -10.927,10.927 -6.017,0 -10.926,-4.91 -10.926,-10.927 C -10.926,4.909 -6.017,0 0,0"
         style="fill:#ffffff;fill-opacity:1;fill-rule:evenodd;stroke:none"
         transform="matrix(1.3333333,0,0,-1.3333333,782.14067,568.1224)"
         clip-path="url(#clipPath67)" />
      <path
         id="path68"
         d="m 0,0 c 4.299,0 7.805,3.506 7.805,7.803 0,4.299 -3.506,7.805 -7.805,7.805 -4.299,0 -7.803,-3.506 -7.803,-7.805 C -7.803,3.506 -4.299,0 0,0"
         style="fill:#ffffff;fill-opacity:1;fill-rule:evenodd;stroke:none"
         transform="matrix(1.3333333,0,0,-1.3333333,757.16667,694.36333)"
         clip-path="url(#clipPath69)" />
      <path
         id="path70"
         d="M 0,0 C 2.058,0 3.735,1.678 3.735,3.737 3.735,5.792 2.058,7.471 0,7.471 -2.058,7.471 -3.735,5.792 -3.735,3.737 -3.735,1.678 -2.058,0 0,0"
         style="fill:#ffffff;fill-opacity:1;fill-rule:evenodd;stroke:none"
         transform="matrix(1.3333333,0,0,-1.3333333,700.41533,408.79427)"
         clip-path="url(#clipPath71)" />
      <path
         id="path72"
         d="m 0,0 c 5.486,0 9.962,4.475 9.962,9.961 0,5.488 -4.476,9.963 -9.962,9.963 -5.488,0 -9.963,-4.475 -9.963,-9.963 C -9.963,4.475 -5.488,0 0,0"
         style="fill:#ffffff;fill-opacity:1;fill-rule:evenodd;stroke:none"
         transform="matrix(1.3333333,0,0,-1.3333333,507.8216,330.75973)"
         clip-path="url(#clipPath73)" />
      <path
         id="path74"
         d="m 0,0 c 3.429,0 6.226,2.797 6.226,6.226 0,3.429 -2.797,6.228 -6.226,6.228 -3.429,0 -6.226,-2.799 -6.226,-6.228 C -6.226,2.797 -3.429,0 0,0"
         style="fill:#ffffff;fill-opacity:1;fill-rule:evenodd;stroke:none"
         transform="matrix(1.3333333,0,0,-1.3333333,125.95187,430.3776)"
         clip-path="url(#clipPath75)" />
      <path
         id="path76"
         d="m 0,0 c 5.487,0 9.962,4.475 9.962,9.962 0,5.488 -4.475,9.964 -9.962,9.964 -5.488,0 -9.963,-4.476 -9.963,-9.964 C -9.963,4.475 -5.488,0 0,0"
         style="fill:#ffffff;fill-opacity:1;fill-rule:evenodd;stroke:none"
         transform="matrix(1.3333333,0,0,-1.3333333,101.05013,199.5976)"
         clip-path="url(#clipPath77)" />
      <path
         id="path78"
         d="m 0,0 c 2.743,0 4.98,2.238 4.98,4.981 0,2.743 -2.237,4.98 -4.98,4.98 -2.743,0 -4.981,-2.237 -4.981,-4.98 C -4.981,2.238 -2.743,0 0,0"
         style="fill:#ffffff;fill-opacity:1;fill-rule:evenodd;stroke:none"
         transform="matrix(1.3333333,0,0,-1.3333333,122.63213,91.675733)"
         clip-path="url(#clipPath79)" />
      <path
         id="path80"
         d="m 0,0 c 5.842,0 10.607,4.765 10.607,10.607 0,5.841 -4.765,10.607 -10.607,10.607 -5.842,0 -10.607,-4.766 -10.607,-10.607 C -10.607,4.765 -5.842,0 0,0"
         style="fill:#ffffff;fill-opacity:1;fill-rule:evenodd;stroke:none"
         transform="matrix(1.3333333,0,0,-1.3333333,22.226533,370.6068)"
         clip-path="url(#clipPath81)" />
      <path
         id="path82"
         d="m 0,0 c 7.545,0 13.696,6.153 13.696,13.696 0,7.546 -6.151,13.7 -13.696,13.7 -7.545,0 -13.698,-6.154 -13.698,-13.7 C -13.698,6.153 -7.545,0 0,0"
         style="fill:#ffffff;fill-opacity:1;fill-rule:evenodd;stroke:none"
         transform="matrix(1.3333333,0,0,-1.3333333,32.976533,672.78)"
         clip-path="url(#clipPath83)" />
      <path
         id="path84"
         d="m 0,0 c 4.42,0 8.025,3.605 8.025,8.023 0,4.42 -3.605,8.026 -8.025,8.026 -4.419,0 -8.025,-3.606 -8.025,-8.026 C -8.025,3.605 -4.419,0 0,0"
         style="fill:#ffffff;fill-opacity:1;fill-rule:evenodd;stroke:none"
         transform="matrix(1.3333333,0,0,-1.3333333,165.0612,692.04427)"
         clip-path="url(#clipPath85)" />
      <path
         id="path86"
         d="m 0,0 c 5.144,0 9.339,4.195 9.339,9.339 0,5.146 -4.195,9.34 -9.339,9.34 -5.144,0 -9.339,-4.194 -9.339,-9.34 C -9.339,4.195 -5.144,0 0,0"
         style="fill:#ffffff;fill-opacity:1;fill-rule:evenodd;stroke:none"
         transform="matrix(1.3333333,0,0,-1.3333333,125.1224,807.2656)"
         clip-path="url(#clipPath87)" />
      <path
         id="path88"
         d="m 0,0 c 4.457,0 8.096,3.635 8.096,8.094 0,4.458 -3.639,8.093 -8.096,8.093 -4.458,0 -8.094,-3.635 -8.094,-8.093 C -8.094,3.635 -4.458,0 0,0"
         style="fill:#ffffff;fill-opacity:1;fill-rule:evenodd;stroke:none"
         transform="matrix(1.3333333,0,0,-1.3333333,724.4896,48.507867)"
         clip-path="url(#clipPath89)" />
    </g>
  </g>
</svg>
