<?xml version="1.0" encoding="UTF-8" standalone="no"?>
<!-- Created with Inkscape (http://www.inkscape.org/) -->

<svg
   version="1.1"
   id="svg1"
   width="880"
   height="880"
   viewBox="0 0 880 880"
   sodipodi:docname="solar-eclipse.svg"
   inkscape:version="1.3.2 (091e20e, 2023-11-25, custom)"
   xmlns:inkscape="http://www.inkscape.org/namespaces/inkscape"
   xmlns:sodipodi="http://sodipodi.sourceforge.net/DTD/sodipodi-0.dtd"
   xmlns="http://www.w3.org/2000/svg"
   xmlns:svg="http://www.w3.org/2000/svg">
  <defs
     id="defs1">
    <clipPath
       clipPathUnits="userSpaceOnUse"
       id="clipPath6">
      <path
         d="M 0,660 H 660 V 0 H 0 Z"
         transform="translate(-330.96881,-612.16552)"
         id="path6" />
    </clipPath>
    <clipPath
       clipPathUnits="userSpaceOnUse"
       id="clipPath8">
      <path
         d="M 0,660 H 660 V 0 H 0 Z"
         transform="translate(-330.96881,-590.96191)"
         id="path8" />
    </clipPath>
    <clipPath
       clipPathUnits="userSpaceOnUse"
       id="clipPath10">
      <path
         d="M 0,660 H 660 V 0 H 0 Z"
         transform="translate(-330.96881,-569.75782)"
         id="path10" />
    </clipPath>
    <clipPath
       clipPathUnits="userSpaceOnUse"
       id="clipPath12">
      <path
         d="M 0,660 H 660 V 0 H 0 Z"
         transform="translate(-330.96881,-458.04441)"
         id="path12" />
    </clipPath>
    <clipPath
       clipPathUnits="userSpaceOnUse"
       id="clipPath14">
      <path
         d="M 0,660 H 660 V 0 H 0 Z"
         transform="translate(-330.96881,-301.82521)"
         id="path14" />
    </clipPath>
    <clipPath
       clipPathUnits="userSpaceOnUse"
       id="clipPath16">
      <path
         d="M 0,660 H 660 V 0 H 0 Z"
         transform="translate(-96.316405,-303.00291)"
         id="path16" />
    </clipPath>
    <clipPath
       clipPathUnits="userSpaceOnUse"
       id="clipPath18">
      <path
         d="M 0,660 H 660 V 0 H 0 Z"
         transform="translate(-330.96881,-306.27341)"
         id="path18" />
    </clipPath>
    <clipPath
       clipPathUnits="userSpaceOnUse"
       id="clipPath20">
      <path
         d="M 0,660 H 660 V 0 H 0 Z"
         transform="translate(-330.96881,-537.55811)"
         id="path20" />
    </clipPath>
    <clipPath
       clipPathUnits="userSpaceOnUse"
       id="clipPath22">
      <path
         d="M 0,660 H 660 V 0 H 0 Z"
         transform="translate(-84.476605,-146.12211)"
         id="path22" />
    </clipPath>
    <clipPath
       clipPathUnits="userSpaceOnUse"
       id="clipPath24">
      <path
         d="M 0,660 H 660 V 0 H 0 Z"
         transform="translate(-96.013705,-586.10501)"
         id="path24" />
    </clipPath>
    <clipPath
       clipPathUnits="userSpaceOnUse"
       id="clipPath26">
      <path
         d="M 0,660 H 660 V 0 H 0 Z"
         transform="translate(-79.503902,-386.68121)"
         id="path26" />
    </clipPath>
    <clipPath
       clipPathUnits="userSpaceOnUse"
       id="clipPath28">
      <path
         d="M 0,660 H 660 V 0 H 0 Z"
         transform="translate(-489.20801,-243.81151)"
         id="path28" />
    </clipPath>
    <clipPath
       clipPathUnits="userSpaceOnUse"
       id="clipPath30">
      <path
         d="M 0,660 H 660 V 0 H 0 Z"
         transform="translate(-560.26171,-478.78861)"
         id="path30" />
    </clipPath>
    <clipPath
       clipPathUnits="userSpaceOnUse"
       id="clipPath32">
      <path
         d="M 0,660 H 660 V 0 H 0 Z"
         transform="translate(-307.24611,-269.8477)"
         id="path32" />
    </clipPath>
    <clipPath
       clipPathUnits="userSpaceOnUse"
       id="clipPath34">
      <path
         d="M 0,660 H 660 V 0 H 0 Z"
         transform="translate(-550.44341,-370.30521)"
         id="path34" />
    </clipPath>
    <clipPath
       clipPathUnits="userSpaceOnUse"
       id="clipPath36">
      <path
         d="M 0,660 H 660 V 0 H 0 Z"
         transform="translate(-399.18951,-293.1328)"
         id="path36" />
    </clipPath>
    <clipPath
       clipPathUnits="userSpaceOnUse"
       id="clipPath38">
      <path
         d="M 0,660 H 660 V 0 H 0 Z"
         transform="translate(-139.0864,-245.6104)"
         id="path38" />
    </clipPath>
    <clipPath
       clipPathUnits="userSpaceOnUse"
       id="clipPath40">
      <path
         d="M 0,660 H 660 V 0 H 0 Z"
         transform="translate(-490.89261,-593.14601)"
         id="path40" />
    </clipPath>
    <clipPath
       clipPathUnits="userSpaceOnUse"
       id="clipPath42">
      <path
         d="M 0,660 H 660 V 0 H 0 Z"
         transform="translate(-585.08201,-562.63181)"
         id="path42" />
    </clipPath>
    <clipPath
       clipPathUnits="userSpaceOnUse"
       id="clipPath44">
      <path
         d="M 0,660 H 660 V 0 H 0 Z"
         transform="translate(-575.45411,-182.125)"
         id="path44" />
    </clipPath>
    <clipPath
       clipPathUnits="userSpaceOnUse"
       id="clipPath46">
      <path
         d="M 0,660 H 660 V 0 H 0 Z"
         transform="translate(-168.1543,-349.75101)"
         id="path46" />
    </clipPath>
    <clipPath
       clipPathUnits="userSpaceOnUse"
       id="clipPath48">
      <path
         d="M 0,660 H 660 V 0 H 0 Z"
         transform="translate(-168.5728,-599.80711)"
         id="path48" />
    </clipPath>
  </defs>
  <sodipodi:namedview
     id="namedview1"
     pagecolor="#ffffff"
     bordercolor="#000000"
     borderopacity="0.25"
     inkscape:showpageshadow="2"
     inkscape:pageopacity="0.0"
     inkscape:pagecheckerboard="0"
     inkscape:deskcolor="#d1d1d1"
     inkscape:zoom="0.67272727"
     inkscape:cx="439.25676"
     inkscape:cy="440"
     inkscape:window-width="1440"
     inkscape:window-height="830"
     inkscape:window-x="-6"
     inkscape:window-y="-6"
     inkscape:window-maximized="1"
     inkscape:current-layer="g1">
    <inkscape:page
       x="0"
       y="0"
       inkscape:label="1"
       id="page1"
       width="880"
       height="880"
       margin="0 0 1.2413334 0.65624934"
       bleed="0" />
  </sodipodi:namedview>
  <g
     id="g1"
     inkscape:groupmode="layer"
     inkscape:label="1">
    <g
       id="group-MC0">
      <path
         id="path2"
         d="M 0.492,0 H 659.999 V 659.069 H 0.492 Z"
         style="fill:#2a3340;fill-opacity:1;fill-rule:nonzero;stroke:none"
         transform="matrix(1.3333333,0,0,-1.3333333,0,880)" />
      <path
         id="path3"
         d="M 0,0 75.437,36.981 132.816,-78.45 286.951,9.98 423.758,-122.329 575.523,-15.34 v 7.241 L 452.606,-79.066 288.12,15.9 207.265,-30.784 76.973,44.439 Z"
         style="fill:#798fa7;fill-opacity:1;fill-rule:nonzero;stroke:none"
         transform="matrix(1.3333333,0,0,-1.3333333,112.6356,679.7704)" />
      <path
         id="path4"
         d="M 0,0 V -97.633 H 659.507 V 40.39 L 536.591,-30.577 372.104,64.389 291.249,17.705 160.957,92.929 Z"
         style="fill:#181a1e;fill-opacity:1;fill-rule:nonzero;stroke:none"
         transform="matrix(1.3333333,0,0,-1.3333333,0.6564,749.8228)" />
      <path
         id="path5"
         d="m 0,0 c 60.124,0 108.865,-48.741 108.865,-108.867 0,-60.125 -48.741,-108.866 -108.865,-108.866 -60.126,0 -108.868,48.741 -108.868,108.866 C -108.868,-48.741 -60.126,0 0,0"
         style="fill:#3d4959;fill-opacity:1;fill-rule:evenodd;stroke:none"
         transform="matrix(1.3333333,0,0,-1.3333333,441.29173,63.779333)"
         clip-path="url(#clipPath6)" />
      <path
         id="path7"
         d="m 0,0 c 48.413,0 87.662,-39.247 87.662,-87.663 0,-48.414 -39.249,-87.662 -87.662,-87.662 -48.416,0 -87.664,39.248 -87.664,87.662 C -87.664,-39.247 -48.416,0 0,0"
         style="fill:#65788c;fill-opacity:1;fill-rule:evenodd;stroke:none"
         transform="matrix(1.3333333,0,0,-1.3333333,441.29173,92.0508)"
         clip-path="url(#clipPath8)" />
      <path
         id="path9"
         d="m 0,0 c 36.703,0 66.458,-29.754 66.458,-66.459 0,-36.704 -29.755,-66.459 -66.458,-66.459 -36.705,0 -66.46,29.755 -66.46,66.459 C -66.46,-29.754 -36.705,0 0,0"
         style="fill:#94a6be;fill-opacity:1;fill-rule:evenodd;stroke:none"
         transform="matrix(1.3333333,0,0,-1.3333333,441.29173,120.32293)"
         clip-path="url(#clipPath10)" />
      <path
         id="path11"
         d="M 0,0 C 24.925,0 45.255,20.33 45.255,45.254 45.255,70.18 24.925,90.509 0,90.509 -24.926,90.509 -45.254,70.18 -45.254,45.254 -45.254,20.33 -24.926,0 0,0"
         style="fill:#c4d9f0;fill-opacity:1;fill-rule:evenodd;stroke:none"
         transform="matrix(1.3333333,0,0,-1.3333333,441.29173,269.27413)"
         clip-path="url(#clipPath12)" />
      <path
         id="path13"
         d="m 0,0 c 61.448,0 111.565,50.118 111.565,111.566 0,61.448 -50.117,111.565 -111.565,111.565 -61.448,0 -111.566,-50.117 -111.566,-111.565 C -111.566,50.118 -61.448,0 0,0"
         style="fill:#7696bd;fill-opacity:1;fill-rule:evenodd;stroke:none"
         transform="matrix(1.3333333,0,0,-1.3333333,441.29173,477.5664)"
         clip-path="url(#clipPath14)" />
      <path
         id="path15"
         d="m 0,0 50.081,-50.081 -1.503,-1.503 -50.082,50.081 z m 481.528,94.506 83.6,-83.598 V 7.9 L 480.025,93.003 Z M 54.002,315.02 403.224,-34.201 401.721,-35.704 52.499,313.516 Z M -87.306,192.612 33.301,72.005 31.798,70.502 -88.81,191.109 Z"
         style="fill:#a1b3c9;fill-opacity:1;fill-rule:evenodd;stroke:none"
         transform="matrix(1.3333333,0,0,-1.3333333,128.42187,475.99613)"
         clip-path="url(#clipPath16)" />
      <path
         id="path17"
         d="m 0,0 c 61.448,0 111.565,50.117 111.565,111.565 0,61.448 -50.117,111.566 -111.565,111.566 -61.448,0 -111.566,-50.118 -111.566,-111.566 C -111.566,50.117 -61.448,0 0,0"
         style="fill:#181a1e;fill-opacity:1;fill-rule:evenodd;stroke:none"
         transform="matrix(1.3333333,0,0,-1.3333333,441.29173,471.63547)"
         clip-path="url(#clipPath18)" />
      <path
         id="path19"
         d="m 0,0 c 61.615,0 111.565,-49.95 111.565,-111.565 0,-1.366 -0.034,-2.724 -0.082,-4.078 C 109.335,-55.917 60.25,-8.154 0,-8.154 c -60.251,0 -109.337,-47.763 -111.484,-107.489 -0.049,1.354 -0.082,2.712 -0.082,4.078 C -111.566,-49.95 -61.617,0 0,0"
         style="fill:#c4d9f0;fill-opacity:1;fill-rule:evenodd;stroke:none"
         transform="matrix(1.3333333,0,0,-1.3333333,441.29173,163.25587)"
         clip-path="url(#clipPath20)" />
      <path
         id="path21"
         d="m 0,0 75.437,36.981 57.378,-115.432 154.136,88.43 136.807,-132.308 153.21,108.007 v 7.056 L 452.606,-79.066 288.12,15.899 207.265,-30.784 76.973,44.44 Z"
         style="fill:#364254;fill-opacity:1;fill-rule:evenodd;stroke:none"
         transform="matrix(1.3333333,0,0,-1.3333333,112.63547,685.17053)"
         clip-path="url(#clipPath22)" />
      <path
         id="path23"
         d="M 0,0 1.249,-39.253 40.502,-40.503 1.249,-41.751 0,-81.005 l -1.249,39.254 -39.254,1.248 39.254,1.25 z"
         style="fill:#7696bd;fill-opacity:1;fill-rule:evenodd;stroke:none"
         transform="matrix(1.3333333,0,0,-1.3333333,128.01827,98.526667)"
         clip-path="url(#clipPath24)" />
      <path
         id="path25"
         d="M 0,0 0.634,-19.93 20.564,-20.564 0.634,-21.199 0,-41.128 l -0.634,19.929 -19.93,0.635 19.93,0.634 z"
         style="fill:#7696bd;fill-opacity:1;fill-rule:evenodd;stroke:none"
         transform="matrix(1.3333333,0,0,-1.3333333,106.0052,364.42507)"
         clip-path="url(#clipPath26)" />
      <path
         id="path27"
         d="M 0,0 0.634,-19.931 20.563,-20.564 0.634,-21.199 0,-41.128 l -0.635,19.929 -19.929,0.635 19.929,0.633 z"
         style="fill:#7696bd;fill-opacity:1;fill-rule:evenodd;stroke:none"
         transform="matrix(1.3333333,0,0,-1.3333333,652.27733,554.918)"
         clip-path="url(#clipPath28)" />
      <path
         id="path29"
         d="M 0,0 0.633,-19.929 20.564,-20.563 0.633,-21.198 0,-41.126 l -0.635,19.928 -19.929,0.635 19.929,0.634 z"
         style="fill:#7696bd;fill-opacity:1;fill-rule:evenodd;stroke:none"
         transform="matrix(1.3333333,0,0,-1.3333333,747.0156,241.6152)"
         clip-path="url(#clipPath30)" />
      <path
         id="path31"
         d="M 0,0 0.895,-28.186 29.082,-29.082 0.895,-29.979 0,-58.164 l -0.898,28.185 -28.185,0.897 28.185,0.896 z"
         style="fill:#7696bd;fill-opacity:1;fill-rule:evenodd;stroke:none"
         transform="matrix(1.3333333,0,0,-1.3333333,409.66147,520.20307)"
         clip-path="url(#clipPath32)" />
      <path
         id="path33"
         d="M 0,0 1.248,-39.253 40.503,-40.503 1.248,-41.752 0,-81.004 l -1.249,39.252 -39.253,1.249 39.253,1.25 z"
         style="fill:#c4d9f0;fill-opacity:1;fill-rule:evenodd;stroke:none"
         transform="matrix(1.3333333,0,0,-1.3333333,733.92453,386.25973)"
         clip-path="url(#clipPath34)" />
      <path
         id="path35"
         d="M 0,0 0.635,-19.929 20.563,-20.563 0.635,-21.196 0,-41.127 l -0.635,19.931 -19.928,0.633 19.928,0.634 z"
         style="fill:#c4d9f0;fill-opacity:1;fill-rule:evenodd;stroke:none"
         transform="matrix(1.3333333,0,0,-1.3333333,532.25267,489.15627)"
         clip-path="url(#clipPath36)" />
      <path
         id="path37"
         d="M 0,0 0.634,-19.929 20.563,-20.564 0.634,-21.197 0,-41.127 l -0.634,19.93 -19.929,0.633 19.929,0.635 z"
         style="fill:#c4d9f0;fill-opacity:1;fill-rule:evenodd;stroke:none"
         transform="matrix(1.3333333,0,0,-1.3333333,185.44853,552.51947)"
         clip-path="url(#clipPath38)" />
      <path
         id="path39"
         d="M 0,0 0.635,-19.929 20.564,-20.563 0.635,-21.197 0,-41.127 l -0.635,19.93 -19.929,0.634 19.929,0.634 z"
         style="fill:#c4d9f0;fill-opacity:1;fill-rule:evenodd;stroke:none"
         transform="matrix(1.3333333,0,0,-1.3333333,654.52347,89.138667)"
         clip-path="url(#clipPath40)" />
      <path
         id="path41"
         d="M 0,0 0.316,-9.965 10.28,-10.282 0.316,-10.599 0,-20.563 l -0.318,9.964 -9.964,0.317 9.964,0.317 z"
         style="fill:#c4d9f0;fill-opacity:1;fill-rule:evenodd;stroke:none"
         transform="matrix(1.3333333,0,0,-1.3333333,780.10933,129.82427)"
         clip-path="url(#clipPath42)" />
      <path
         id="path43"
         d="M 0,0 0.316,-9.965 10.281,-10.281 0.316,-10.6 0,-20.564 l -0.317,9.964 -9.965,0.319 9.965,0.316 z"
         style="fill:#c4d9f0;fill-opacity:1;fill-rule:evenodd;stroke:none"
         transform="matrix(1.3333333,0,0,-1.3333333,767.27213,637.16667)"
         clip-path="url(#clipPath44)" />
      <path
         id="path45"
         d="m 0,0 0.316,-9.965 9.966,-0.317 -9.966,-0.317 -0.316,-9.965 -0.317,9.965 -9.965,0.317 9.965,0.317 z"
         style="fill:#c4d9f0;fill-opacity:1;fill-rule:evenodd;stroke:none"
         transform="matrix(1.3333333,0,0,-1.3333333,224.20573,413.66533)"
         clip-path="url(#clipPath46)" />
      <path
         id="path47"
         d="m 0,0 0.316,-9.964 9.965,-0.318 -9.965,-0.317 -0.316,-9.964 -0.318,9.964 -9.965,0.317 9.965,0.318 z"
         style="fill:#c4d9f0;fill-opacity:1;fill-rule:evenodd;stroke:none"
         transform="matrix(1.3333333,0,0,-1.3333333,224.76373,80.2572)"
         clip-path="url(#clipPath48)" />
    </g>
  </g>
</svg>
