<?xml version="1.0" encoding="UTF-8" standalone="no"?>
<!-- Created with Inkscape (http://www.inkscape.org/) -->

<svg
   version="1.1"
   id="svg1"
   width="880"
   height="880"
   viewBox="0 0 880 880"
   sodipodi:docname="solar-plant-clipart.svg"
   inkscape:version="1.3.2 (091e20e, 2023-11-25, custom)"
   xmlns:inkscape="http://www.inkscape.org/namespaces/inkscape"
   xmlns:sodipodi="http://sodipodi.sourceforge.net/DTD/sodipodi-0.dtd"
   xmlns="http://www.w3.org/2000/svg"
   xmlns:svg="http://www.w3.org/2000/svg">
  <defs
     id="defs1">
    <clipPath
       clipPathUnits="userSpaceOnUse"
       id="clipPath3">
      <path
         d="M 0,660 H 660 V 0 H 0 Z"
         transform="translate(-0.97950002,-660.55372)"
         id="path3" />
    </clipPath>
    <clipPath
       clipPathUnits="userSpaceOnUse"
       id="clipPath5">
      <path
         d="M 0,660 H 660 V 0 H 0 Z"
         id="path5" />
    </clipPath>
    <clipPath
       clipPathUnits="userSpaceOnUse"
       id="clipPath7">
      <path
         d="M 0,660 H 660 V 0 H 0 Z"
         id="path7" />
    </clipPath>
    <clipPath
       clipPathUnits="userSpaceOnUse"
       id="clipPath9">
      <path
         d="M 0,660 H 660 V 0 H 0 Z"
         id="path9" />
    </clipPath>
    <clipPath
       clipPathUnits="userSpaceOnUse"
       id="clipPath11">
      <path
         d="M 0,660 H 660 V 0 H 0 Z"
         transform="translate(-662.35252,-336.60161)"
         id="path11" />
    </clipPath>
    <clipPath
       clipPathUnits="userSpaceOnUse"
       id="clipPath13">
      <path
         d="M 0,660 H 660 V 0 H 0 Z"
         transform="translate(-662.35252,-313.05571)"
         id="path13" />
    </clipPath>
    <clipPath
       clipPathUnits="userSpaceOnUse"
       id="clipPath15">
      <path
         d="M 0,660 H 660 V 0 H 0 Z"
         transform="translate(-104.3403,-228.52831)"
         id="path15" />
    </clipPath>
    <clipPath
       clipPathUnits="userSpaceOnUse"
       id="clipPath17">
      <path
         d="M 0,660 H 660 V 0 H 0 Z"
         transform="translate(-167.28081,-501.11872)"
         id="path17" />
    </clipPath>
    <clipPath
       clipPathUnits="userSpaceOnUse"
       id="clipPath19">
      <path
         d="M 0,660 H 660 V 0 H 0 Z"
         transform="translate(-145.99851,-538.70212)"
         id="path19" />
    </clipPath>
    <clipPath
       clipPathUnits="userSpaceOnUse"
       id="clipPath21">
      <path
         d="M 0,660 H 660 V 0 H 0 Z"
         transform="translate(-137.9824,-531.74801)"
         id="path21" />
    </clipPath>
    <clipPath
       clipPathUnits="userSpaceOnUse"
       id="clipPath23">
      <path
         d="M 0,660 H 660 V 0 H 0 Z"
         transform="translate(-138.7539,-522.40091)"
         id="path23" />
    </clipPath>
    <clipPath
       clipPathUnits="userSpaceOnUse"
       id="clipPath25">
      <path
         d="M 0,660 H 660 V 0 H 0 Z"
         transform="translate(-312.18071,-305.50591)"
         id="path25" />
    </clipPath>
    <clipPath
       clipPathUnits="userSpaceOnUse"
       id="clipPath27">
      <path
         d="M 0,660 H 660 V 0 H 0 Z"
         transform="translate(-375.12111,-578.09621)"
         id="path27" />
    </clipPath>
    <clipPath
       clipPathUnits="userSpaceOnUse"
       id="clipPath29">
      <path
         d="M 0,660 H 660 V 0 H 0 Z"
         transform="translate(-353.83981,-615.67972)"
         id="path29" />
    </clipPath>
    <clipPath
       clipPathUnits="userSpaceOnUse"
       id="clipPath31">
      <path
         d="M 0,660 H 660 V 0 H 0 Z"
         transform="translate(-345.82321,-608.72561)"
         id="path31" />
    </clipPath>
    <clipPath
       clipPathUnits="userSpaceOnUse"
       id="clipPath33">
      <path
         d="M 0,660 H 660 V 0 H 0 Z"
         transform="translate(-346.59571,-599.37892)"
         id="path33" />
    </clipPath>
    <clipPath
       clipPathUnits="userSpaceOnUse"
       id="clipPath35">
      <path
         d="M 0,660 H 660 V 0 H 0 Z"
         transform="translate(-513.24712,-377.18161)"
         id="path35" />
    </clipPath>
    <clipPath
       clipPathUnits="userSpaceOnUse"
       id="clipPath37">
      <path
         d="M 0,660 H 660 V 0 H 0 Z"
         transform="translate(-576.18751,-649.77252)"
         id="path37" />
    </clipPath>
    <clipPath
       clipPathUnits="userSpaceOnUse"
       id="clipPath39">
      <path
         d="M 0,660 H 660 V 0 H 0 Z"
         transform="translate(-568.83592,-660.55372)"
         id="path39" />
    </clipPath>
    <clipPath
       clipPathUnits="userSpaceOnUse"
       id="clipPath41">
      <path
         d="M 0,660 H 660 V 0 H 0 Z"
         transform="translate(-545.08981,-660.55372)"
         id="path41" />
    </clipPath>
    <clipPath
       clipPathUnits="userSpaceOnUse"
       id="clipPath43">
      <path
         d="M 0,660 H 660 V 0 H 0 Z"
         transform="translate(-206.9341,-56.548801)"
         id="path43" />
    </clipPath>
    <clipPath
       clipPathUnits="userSpaceOnUse"
       id="clipPath45">
      <path
         d="M 0,660 H 660 V 0 H 0 Z"
         transform="translate(-294.41361,-435.41501)"
         id="path45" />
    </clipPath>
    <clipPath
       clipPathUnits="userSpaceOnUse"
       id="clipPath47">
      <path
         d="M 0,660 H 660 V 0 H 0 Z"
         transform="translate(-264.8335,-487.65091)"
         id="path47" />
    </clipPath>
    <clipPath
       clipPathUnits="userSpaceOnUse"
       id="clipPath49">
      <path
         d="M 0,660 H 660 V 0 H 0 Z"
         transform="translate(-253.69341,-477.98541)"
         id="path49" />
    </clipPath>
    <clipPath
       clipPathUnits="userSpaceOnUse"
       id="clipPath51">
      <path
         d="M 0,660 H 660 V 0 H 0 Z"
         transform="translate(-254.7646,-464.99371)"
         id="path51" />
    </clipPath>
    <clipPath
       clipPathUnits="userSpaceOnUse"
       id="clipPath53">
      <path
         d="M 0,660 H 660 V 0 H 0 Z"
         transform="translate(-417.09381,-84.668905)"
         id="path53" />
    </clipPath>
    <clipPath
       clipPathUnits="userSpaceOnUse"
       id="clipPath55">
      <path
         d="M 0,660 H 660 V 0 H 0 Z"
         transform="translate(-494.60161,-420.34671)"
         id="path55" />
    </clipPath>
    <clipPath
       clipPathUnits="userSpaceOnUse"
       id="clipPath57">
      <path
         d="M 0,660 H 660 V 0 H 0 Z"
         transform="translate(-468.39361,-466.62741)"
         id="path57" />
    </clipPath>
    <clipPath
       clipPathUnits="userSpaceOnUse"
       id="clipPath59">
      <path
         d="M 0,660 H 660 V 0 H 0 Z"
         transform="translate(-458.52251,-458.06451)"
         id="path59" />
    </clipPath>
    <clipPath
       clipPathUnits="userSpaceOnUse"
       id="clipPath61">
      <path
         d="M 0,660 H 660 V 0 H 0 Z"
         transform="translate(-459.47361,-446.55321)"
         id="path61" />
    </clipPath>
    <clipPath
       clipPathUnits="userSpaceOnUse"
       id="clipPath63">
      <path
         d="M 0,660 H 660 V 0 H 0 Z"
         id="path63" />
    </clipPath>
    <clipPath
       clipPathUnits="userSpaceOnUse"
       id="clipPath65">
      <path
         d="M 0,660 H 660 V 0 H 0 Z"
         id="path65" />
    </clipPath>
    <clipPath
       clipPathUnits="userSpaceOnUse"
       id="clipPath67">
      <path
         d="M 0,660 H 660 V 0 H 0 Z"
         transform="translate(-58.895002,-83.773405)"
         id="path67" />
    </clipPath>
    <clipPath
       clipPathUnits="userSpaceOnUse"
       id="clipPath69">
      <path
         d="M 0,660 H 660 V 0 H 0 Z"
         transform="translate(-140.19291,-152.27931)"
         id="path69" />
    </clipPath>
    <clipPath
       clipPathUnits="userSpaceOnUse"
       id="clipPath71">
      <path
         d="M 0,660 H 660 V 0 H 0 Z"
         transform="translate(-135.4375,-152.27931)"
         id="path71" />
    </clipPath>
    <clipPath
       clipPathUnits="userSpaceOnUse"
       id="clipPath73">
      <path
         d="M 0,660 H 660 V 0 H 0 Z"
         transform="translate(-93.963902,-220.78711)"
         id="path73" />
    </clipPath>
    <clipPath
       clipPathUnits="userSpaceOnUse"
       id="clipPath75">
      <path
         d="M 0,660 H 660 V 0 H 0 Z"
         transform="translate(-151.5181,-154.1455)"
         id="path75" />
    </clipPath>
    <clipPath
       clipPathUnits="userSpaceOnUse"
       id="clipPath77">
      <path
         d="M 0,660 H 660 V 0 H 0 Z"
         transform="translate(-175.59771,-154.1455)"
         id="path77" />
    </clipPath>
    <clipPath
       clipPathUnits="userSpaceOnUse"
       id="clipPath79">
      <path
         d="M 0,660 H 660 V 0 H 0 Z"
         transform="translate(-340.10251,-83.773405)"
         id="path79" />
    </clipPath>
    <clipPath
       clipPathUnits="userSpaceOnUse"
       id="clipPath81">
      <path
         d="M 0,660 H 660 V 0 H 0 Z"
         transform="translate(-421.40041,-152.27931)"
         id="path81" />
    </clipPath>
    <clipPath
       clipPathUnits="userSpaceOnUse"
       id="clipPath83">
      <path
         d="M 0,660 H 660 V 0 H 0 Z"
         transform="translate(-416.64551,-152.27931)"
         id="path83" />
    </clipPath>
    <clipPath
       clipPathUnits="userSpaceOnUse"
       id="clipPath85">
      <path
         d="M 0,660 H 660 V 0 H 0 Z"
         transform="translate(-375.17191,-220.78711)"
         id="path85" />
    </clipPath>
    <clipPath
       clipPathUnits="userSpaceOnUse"
       id="clipPath87">
      <path
         d="M 0,660 H 660 V 0 H 0 Z"
         transform="translate(-432.72661,-154.1455)"
         id="path87" />
    </clipPath>
    <clipPath
       clipPathUnits="userSpaceOnUse"
       id="clipPath89">
      <path
         d="M 0,660 H 660 V 0 H 0 Z"
         transform="translate(-456.80571,-154.1455)"
         id="path89" />
    </clipPath>
    <clipPath
       clipPathUnits="userSpaceOnUse"
       id="clipPath91">
      <path
         d="M 0,660 H 660 V 0 H 0 Z"
         transform="translate(-662.35252,-40.398399)"
         id="path91" />
    </clipPath>
    <clipPath
       clipPathUnits="userSpaceOnUse"
       id="clipPath93">
      <path
         d="M 0,660 H 660 V 0 H 0 Z"
         transform="translate(-44.481901,-529.27252)"
         id="path93" />
    </clipPath>
    <clipPath
       clipPathUnits="userSpaceOnUse"
       id="clipPath95">
      <path
         d="M 0,660 H 660 V 0 H 0 Z"
         transform="translate(-502.27051,-590.51512)"
         id="path95" />
    </clipPath>
    <clipPath
       clipPathUnits="userSpaceOnUse"
       id="clipPath97">
      <path
         d="M 0,660 H 660 V 0 H 0 Z"
         transform="translate(-596.00291,-253.9639)"
         id="path97" />
    </clipPath>
    <clipPath
       clipPathUnits="userSpaceOnUse"
       id="clipPath99">
      <path
         d="M 0,660 H 660 V 0 H 0 Z"
         transform="translate(-100.1763,-242.75881)"
         id="path99" />
    </clipPath>
    <clipPath
       clipPathUnits="userSpaceOnUse"
       id="clipPath101">
      <path
         d="M 0,660 H 660 V 0 H 0 Z"
         transform="translate(-279.48781,-624.92822)"
         id="path101" />
    </clipPath>
  </defs>
  <sodipodi:namedview
     id="namedview1"
     pagecolor="#ffffff"
     bordercolor="#000000"
     borderopacity="0.25"
     inkscape:showpageshadow="2"
     inkscape:pageopacity="0.0"
     inkscape:pagecheckerboard="0"
     inkscape:deskcolor="#d1d1d1"
     inkscape:zoom="0.67272727"
     inkscape:cx="439.25676"
     inkscape:cy="440"
     inkscape:window-width="1440"
     inkscape:window-height="830"
     inkscape:window-x="-6"
     inkscape:window-y="-6"
     inkscape:window-maximized="1"
     inkscape:current-layer="g1">
    <inkscape:page
       x="0"
       y="0"
       inkscape:label="1"
       id="page1"
       width="880"
       height="880"
       margin="0 0 0 1.3046466"
       bleed="0" />
  </sodipodi:namedview>
  <g
     id="g1"
     inkscape:groupmode="layer"
     inkscape:label="1">
    <g
       id="group-MC0">
      <path
         id="path2"
         d="m 0,0 h 661.373 v -99.457 c -17.486,-16.43 -38.239,-26.559 -64.876,-22.277 -42.192,6.782 -62.908,7.651 -99.1,-20.969 -39.554,-31.28 -42.688,-64.915 -121.352,-52.271 -58.2,9.353 -91.425,14.339 -133.126,-30.301 -61.948,-66.315 -91.549,-26.689 -175.768,-20.808 -18.759,1.31 -42.331,-2.746 -67.151,-6.858 z"
         style="fill:#caede4;fill-opacity:1;fill-rule:evenodd;stroke:none"
         transform="matrix(1.3333333,0,0,-1.3333333,1.306,-0.73826667)"
         clip-path="url(#clipPath3)" />
      <path
         id="path4"
         d="m 0.979,603.54 h 661.374 v 1.811 H 0.979 Z"
         style="fill:#ffffff;fill-opacity:1;fill-rule:evenodd;stroke:none"
         transform="matrix(1.3333333,0,0,-1.3333333,0,880)"
         clip-path="url(#clipPath5)" />
      <path
         id="path6"
         d="m 0.979,505.961 h 661.374 v 1.811 H 0.979 Z"
         style="fill:#ffffff;fill-opacity:1;fill-rule:evenodd;stroke:none"
         transform="matrix(1.3333333,0,0,-1.3333333,0,880)"
         clip-path="url(#clipPath7)" />
      <path
         id="path8"
         d="m 0.979,572.07 h 661.374 v 1.811 H 0.979 Z"
         style="fill:#ffffff;fill-opacity:1;fill-rule:evenodd;stroke:none"
         transform="matrix(1.3333333,0,0,-1.3333333,0,880)"
         clip-path="url(#clipPath9)" />
      <path
         id="path10"
         d="m 0,0 v -337.421 h -661.374 v 170.392 c 17.485,16.787 38.238,27.342 64.876,23.605 42.193,-5.918 62.909,-6.362 99.101,22.999 39.554,32.09 42.688,65.79 121.351,54.757 58.2,-8.161 91.426,-12.468 133.126,33.027 61.948,67.584 91.549,28.564 175.769,24.407 C -48.393,-9.159 -24.82,-4.62 0,0"
         style="fill:#caede4;fill-opacity:1;fill-rule:evenodd;stroke:none"
         transform="matrix(1.3333333,0,0,-1.3333333,883.13667,431.19787)"
         clip-path="url(#clipPath11)" />
      <path
         id="path12"
         d="m 0,0 v -313.875 h -661.374 v 54.088 c 17.485,19.242 38.238,32.705 64.876,32.705 42.193,0 62.909,2.46 99.101,36.898 39.554,37.637 42.688,71.776 121.351,71.776 58.2,0 91.426,0.354 133.126,51.699 61.948,76.269 91.549,41.402 175.769,49.057 C -48.393,-15.945 -24.82,-8.101 0,0"
         style="fill:#9adcc7;fill-opacity:1;fill-rule:evenodd;stroke:none"
         transform="matrix(1.3333333,0,0,-1.3333333,883.13667,462.5924)"
         clip-path="url(#clipPath13)" />
      <path
         id="path14"
         d="M 0,0 41.658,293.42 H 54.337 L 41.658,11.044 Z"
         style="fill:#ffffff;fill-opacity:1;fill-rule:evenodd;stroke:none"
         transform="matrix(1.3333333,0,0,-1.3333333,139.1204,575.2956)"
         clip-path="url(#clipPath15)" />
      <path
         id="path16"
         d="m 0,0 -40.753,22.641 c -8.875,4.931 13.095,29.716 20.377,22.64 L 11.773,14.037 C 16.152,9.781 5.337,-2.966 0,0"
         style="fill:#ffffff;fill-opacity:1;fill-rule:evenodd;stroke:none"
         transform="matrix(1.3333333,0,0,-1.3333333,223.04107,211.84173)"
         clip-path="url(#clipPath17)" />
      <path
         id="path18"
         d="M 0,0 10.415,74.26 6.34,70.638 -16.301,10.414 -7.245,-4.529 Z"
         style="fill:#ffffff;fill-opacity:1;fill-rule:evenodd;stroke:none"
         transform="matrix(1.3333333,0,0,-1.3333333,194.66467,161.73053)"
         clip-path="url(#clipPath19)" />
      <path
         id="path20"
         d="m 0,0 110.91,-100.31 1.306,7.799 L 35.128,1.602 2.024,3.762 Z"
         style="fill:#ffffff;fill-opacity:1;fill-rule:evenodd;stroke:none"
         transform="matrix(1.3333333,0,0,-1.3333333,183.97653,171.00267)"
         clip-path="url(#clipPath21)" />
      <path
         id="path22"
         d="m 0,0 -5.434,-22.188 -82.863,-39.847 -3.17,4.981 90.696,66.401 z"
         style="fill:#ffffff;fill-opacity:1;fill-rule:evenodd;stroke:none"
         transform="matrix(1.3333333,0,0,-1.3333333,185.0052,183.46547)"
         clip-path="url(#clipPath23)" />
      <path
         id="path24"
         d="M 0,0 41.658,293.42 H 54.337 L 41.658,11.043 Z"
         style="fill:#ffffff;fill-opacity:1;fill-rule:evenodd;stroke:none"
         transform="matrix(1.3333333,0,0,-1.3333333,416.24093,472.6588)"
         clip-path="url(#clipPath25)" />
      <path
         id="path26"
         d="m 0,0 -40.752,22.641 c -8.875,4.93 13.095,29.715 20.376,22.64 L 11.773,14.038 C 16.152,9.781 5.338,-2.965 0,0"
         style="fill:#ffffff;fill-opacity:1;fill-rule:evenodd;stroke:none"
         transform="matrix(1.3333333,0,0,-1.3333333,500.16147,109.20507)"
         clip-path="url(#clipPath27)" />
      <path
         id="path28"
         d="M 0,0 6.293,44.874 H -3.346 L -16.301,10.414 -7.244,-4.528 Z"
         style="fill:#ffffff;fill-opacity:1;fill-rule:evenodd;stroke:none"
         transform="matrix(1.3333333,0,0,-1.3333333,471.7864,59.093733)"
         clip-path="url(#clipPath29)" />
      <path
         id="path30"
         d="m 0,0 110.91,-100.31 1.306,7.799 L 35.128,1.602 2.023,3.762 Z"
         style="fill:#ffffff;fill-opacity:1;fill-rule:evenodd;stroke:none"
         transform="matrix(1.3333333,0,0,-1.3333333,461.0976,68.365867)"
         clip-path="url(#clipPath31)" />
      <path
         id="path32"
         d="m 0,0 -5.435,-22.188 -82.863,-39.848 -3.17,4.981 90.696,66.402 z"
         style="fill:#ffffff;fill-opacity:1;fill-rule:evenodd;stroke:none"
         transform="matrix(1.3333333,0,0,-1.3333333,462.1276,80.828133)"
         clip-path="url(#clipPath33)" />
      <path
         id="path34"
         d="M 0,0 40.232,283.372 H 53.886 L 41.658,11.043 Z"
         style="fill:#ffffff;fill-opacity:1;fill-rule:evenodd;stroke:none"
         transform="matrix(1.3333333,0,0,-1.3333333,684.32947,377.0912)"
         clip-path="url(#clipPath35)" />
      <path
         id="path36"
         d="M 0,0 -19.406,10.781 H 12.756 C 12.165,5.43 4.303,-2.391 0,0"
         style="fill:#ffffff;fill-opacity:1;fill-rule:evenodd;stroke:none"
         transform="matrix(1.3333333,0,0,-1.3333333,768.25,13.636667)"
         clip-path="url(#clipPath37)" />
      <path
         id="path38"
         d="m 0,0 88.964,-80.463 1.306,7.8 L 30.751,0 Z"
         style="fill:#ffffff;fill-opacity:1;fill-rule:evenodd;stroke:none"
         transform="matrix(1.3333333,0,0,-1.3333333,758.44787,-0.73826667)"
         clip-path="url(#clipPath39)" />
      <path
         id="path40"
         d="m 0,0 -2.862,-11.688 -82.863,-39.846 -3.171,4.98 L -25.31,0 Z"
         style="fill:#ffffff;fill-opacity:1;fill-rule:evenodd;stroke:none"
         transform="matrix(1.3333333,0,0,-1.3333333,726.7864,-0.73826667)"
         clip-path="url(#clipPath41)" />
      <path
         id="path42"
         d="M 0,0 57.899,407.816 H 75.521 L 57.899,15.349 Z"
         style="fill:#9adcc7;fill-opacity:1;fill-rule:evenodd;stroke:none"
         transform="matrix(1.3333333,0,0,-1.3333333,275.91213,804.6016)"
         clip-path="url(#clipPath43)" />
      <path
         id="path44"
         d="m 0,0 -56.642,31.467 c -12.335,6.854 18.201,41.302 28.321,31.467 L 16.363,19.509 C 22.449,13.595 7.417,-4.122 0,0"
         style="fill:#9adcc7;fill-opacity:1;fill-rule:evenodd;stroke:none"
         transform="matrix(1.3333333,0,0,-1.3333333,392.55147,299.44667)"
         clip-path="url(#clipPath45)" />
      <path
         id="path46"
         d="M 0,0 14.475,103.211 8.811,98.177 -22.655,14.474 -10.069,-6.294 Z"
         style="fill:#9adcc7;fill-opacity:1;fill-rule:evenodd;stroke:none"
         transform="matrix(1.3333333,0,0,-1.3333333,353.11133,229.7988)"
         clip-path="url(#clipPath47)" />
      <path
         id="path48"
         d="m 0,0 154.149,-139.418 1.816,10.84 L 48.821,2.226 2.812,5.229 Z"
         style="fill:#9adcc7;fill-opacity:1;fill-rule:evenodd;stroke:none"
         transform="matrix(1.3333333,0,0,-1.3333333,338.25787,242.68613)"
         clip-path="url(#clipPath49)" />
      <path
         id="path50"
         d="m 0,0 -7.551,-30.838 -115.171,-55.382 -4.406,6.923 126.057,92.289 z"
         style="fill:#9adcc7;fill-opacity:1;fill-rule:evenodd;stroke:none"
         transform="matrix(1.3333333,0,0,-1.3333333,339.68613,260.0084)"
         clip-path="url(#clipPath51)" />
      <path
         id="path52"
         d="M 0,0 51.3,361.327 H 66.912 L 51.3,13.6 Z"
         style="fill:#9adcc7;fill-opacity:1;fill-rule:evenodd;stroke:none"
         transform="matrix(1.3333333,0,0,-1.3333333,556.12507,767.10813)"
         clip-path="url(#clipPath53)" />
      <path
         id="path54"
         d="m 0,0 -50.186,27.879 c -10.927,6.073 16.127,36.594 25.094,27.881 L 14.498,17.285 C 19.89,12.044 6.572,-3.652 0,0"
         style="fill:#9adcc7;fill-opacity:1;fill-rule:evenodd;stroke:none"
         transform="matrix(1.3333333,0,0,-1.3333333,659.4688,319.53773)"
         clip-path="url(#clipPath55)" />
      <path
         id="path56"
         d="M 0,0 12.825,91.446 7.808,86.986 -20.072,12.824 -8.92,-5.576 Z"
         style="fill:#9adcc7;fill-opacity:1;fill-rule:evenodd;stroke:none"
         transform="matrix(1.3333333,0,0,-1.3333333,624.5248,257.83013)"
         clip-path="url(#clipPath57)" />
      <path
         id="path58"
         d="m 0,0 136.578,-123.527 1.608,9.605 L 43.257,1.973 2.492,4.633 Z"
         style="fill:#9adcc7;fill-opacity:1;fill-rule:evenodd;stroke:none"
         transform="matrix(1.3333333,0,0,-1.3333333,611.36333,269.24733)"
         clip-path="url(#clipPath59)" />
      <path
         id="path60"
         d="m 0,0 -6.692,-27.323 -102.041,-49.068 -3.904,6.133 111.686,81.769 z"
         style="fill:#9adcc7;fill-opacity:1;fill-rule:evenodd;stroke:none"
         transform="matrix(1.3333333,0,0,-1.3333333,612.63147,284.59573)"
         clip-path="url(#clipPath61)" />
      <path
         id="path62"
         d="m 0.979,260.457 h 661.374 v 1.812 H 0.979 Z"
         style="fill:#9adcc7;fill-opacity:1;fill-rule:evenodd;stroke:none"
         transform="matrix(1.3333333,0,0,-1.3333333,0,880)"
         clip-path="url(#clipPath63)" />
      <path
         id="path64"
         d="m 0.979,206.202 h 661.374 v 1.812 H 0.979 Z"
         style="fill:#9adcc7;fill-opacity:1;fill-rule:evenodd;stroke:none"
         transform="matrix(1.3333333,0,0,-1.3333333,0,880)"
         clip-path="url(#clipPath65)" />
      <path
         id="path66"
         d="m 0,0 260.937,137.014 3.395,-6.341 L 229.263,-6.34 H 3.396 Z"
         style="fill:#caede4;fill-opacity:1;fill-rule:evenodd;stroke:none"
         transform="matrix(1.3333333,0,0,-1.3333333,78.526667,768.30213)"
         clip-path="url(#clipPath67)" />
      <path
         id="path68"
         d="M 0,0 33.49,-107.754 H 3.375 L -31.955,10.261 Z M 65.599,0 99.088,-107.754 H 68.974 L 33.645,10.261 Z"
         style="fill:#caede4;fill-opacity:1;fill-rule:evenodd;stroke:none"
         transform="matrix(1.3333333,0,0,-1.3333333,186.92387,676.96093)"
         clip-path="url(#clipPath69)" />
      <path
         id="path70"
         d="M 0,0 33.49,-107.754 H 3.376 L -31.954,10.261 Z M 65.6,0 99.089,-107.754 H 68.975 L 33.646,10.261 Z"
         style="fill:#ffffff;fill-opacity:1;fill-rule:evenodd;stroke:none"
         transform="matrix(1.3333333,0,0,-1.3333333,180.58333,676.96093)"
         clip-path="url(#clipPath71)" />
      <path
         id="path72"
         d="M 0,0 H 225.869 L 190.798,-137.014 H -35.069 Z"
         style="fill:#ffffff;fill-opacity:1;fill-rule:evenodd;stroke:none"
         transform="matrix(1.3333333,0,0,-1.3333333,125.2852,585.6172)"
         clip-path="url(#clipPath73)" />
      <path
         id="path74"
         d="M 0,0 3.173,12.394 H -17.176 L -20.348,0 Z m -4.127,-16.122 3.172,12.392 h -20.348 l -3.172,-12.392 z m -4.127,-16.124 3.172,12.392 H -25.43 l -3.172,-12.392 z m -4.126,-16.124 3.172,12.393 H -29.557 L -32.729,-48.37 Z M 24.08,0 27.251,12.394 H 6.903 L 3.731,0 Z M 19.953,-16.122 23.124,-3.73 H 2.776 l -3.172,-12.392 z m -4.127,-16.124 3.171,12.392 H -1.351 l -3.171,-12.392 z m -4.127,-16.124 3.172,12.393 H -5.478 L -8.649,-48.37 Z M 48.159,0 51.33,12.394 H 30.981 L 27.811,0 Z M 44.032,-16.122 47.204,-3.73 H 26.855 l -3.172,-12.392 z m -4.127,-16.124 3.172,12.392 H 22.728 L 19.557,-32.246 Z M 35.778,-48.37 38.95,-35.977 H 18.602 L 15.43,-48.37 Z M 72.238,0 75.41,12.394 H 55.061 L 51.889,0 Z M 68.111,-16.122 71.283,-3.73 H 50.934 l -3.172,-12.392 z m -4.127,-16.124 3.171,12.392 H 46.807 l -3.171,-12.392 z m -4.127,-16.124 3.172,12.393 H 42.681 L 39.509,-48.37 Z M 96.317,0 99.49,12.394 H 79.141 L 75.968,0 Z M 92.19,-16.122 95.362,-3.73 H 75.013 l -3.172,-12.392 z m -4.127,-16.124 3.172,12.392 H 70.887 l -3.173,-12.392 z m -4.127,-16.124 3.172,12.393 H 66.76 L 63.588,-48.37 Z M 120.396,0 123.568,12.394 H 103.219 L 100.047,0 Z m -4.126,-16.122 3.171,12.392 h -20.35 l -3.172,-12.392 z m -4.128,-16.124 3.172,12.392 H 94.966 l -3.172,-12.392 z m -4.127,-16.124 3.172,12.393 H 90.839 L 87.666,-48.37 Z m -161.651,12.393 -3.172,-12.393 h 20.349 l 3.172,12.393 z m 4.127,16.123 -3.172,-12.392 h 20.348 l 3.172,12.392 z m 4.127,16.124 -3.172,-12.392 h 20.348 l 3.172,12.392 z M -41.255,12.394 -44.427,0 h 20.348 l 3.172,12.394 z M -16.78,28.516 H -37.128 L -40.3,16.124 h 20.348 z m 24.079,0 H -13.049 L -16.221,16.124 H 4.127 Z m 24.079,0 H 11.03 L 7.858,16.124 h 20.348 z m 24.079,0 H 35.109 L 31.937,16.124 h 20.348 z m 24.079,0 H 59.188 L 56.016,16.124 h 20.348 z m 24.079,0 H 83.267 L 80.095,16.124 h 20.35 z m 24.079,0 h -20.348 l -3.172,-12.392 h 20.35 z m -19.393,3.73 h 20.348 l 3.172,12.394 h -20.348 z m -24.079,0 h 20.348 l 3.172,12.394 H 87.394 Z m -24.079,0 H 80.491 L 83.663,44.64 H 63.315 Z m -24.079,0 H 56.412 L 59.584,44.64 H 39.236 Z m -24.08,0 H 32.333 L 35.505,44.64 H 15.156 Z m -24.079,0 H 8.254 L 11.426,44.64 H -8.922 Z m -24.079,0 h 20.349 l 3.172,12.394 h -20.348 z m -24.079,0 3.173,12.394 h 20.348 l -3.172,-12.394 z m -4.126,-16.122 3.172,12.392 H -40.86 L -44.031,16.124 Z M -68.506,0 l 3.171,12.394 h 20.349 L -48.157,0 Z m -4.127,-16.122 3.172,12.392 h 20.349 l -3.173,-12.392 z m -4.127,-16.124 3.172,12.392 h 20.348 l -3.172,-12.392 z m -4.127,-16.124 3.172,12.393 h 20.348 l -3.172,-12.393 z m 16.28,-15.898 h -20.349 l 3.115,12.167 h 20.348 z m 24.079,0 h -20.349 l 3.114,12.167 h 20.349 z m 24.079,0 h -20.348 l 3.113,12.167 h 20.349 z m 24.079,0 h -20.348 l 3.113,12.167 h 20.349 z m 24.079,0 H 11.361 l 3.114,12.167 h 20.348 z m 24.079,0 H 35.44 l 3.114,12.167 h 20.349 z m 24.08,0 h -20.35 l 3.114,12.167 h 20.349 z m 24.079,0 H 83.598 l 3.115,12.167 h 20.347 z m 27.87,12.167 -3.113,-12.167 h -21.028 l 3.116,12.167 z m 4.127,16.124 -3.172,-12.393 h -21.026 l 3.171,12.393 z m 4.127,16.123 -3.172,-12.392 h -21.026 l 3.17,12.392 z m 4.127,16.124 -3.173,-12.392 H 119.999 L 123.17,-3.73 Z M 148.324,12.394 145.152,0 h -21.027 l 3.173,12.394 z m 4.127,16.122 -3.172,-12.392 h -21.026 l 3.172,12.392 z m 4.128,16.124 -3.173,-12.394 H 132.38 l 3.172,12.394 z M 139.62,60.537 h 21.026 L 157.532,48.37 h -21.025 z m -24.079,0 h 20.35 L 132.776,48.37 h -20.348 z m -24.079,0 h 20.35 L 108.698,48.37 H 88.349 Z m -24.078,0 H 87.733 L 84.619,48.37 H 64.27 Z m -24.08,0 H 63.652 L 60.538,48.37 H 40.191 Z m -24.079,0 H 39.574 L 36.46,48.37 H 16.111 Z m -24.079,0 H 15.495 L 12.381,48.37 H -7.968 Z m -24.079,0 H -8.585 L -11.698,48.37 h -20.349 z m -24.079,0 h 20.348 L -35.777,48.37 h -20.349 z"
         style="fill:#7b90d1;fill-opacity:1;fill-rule:evenodd;stroke:none"
         transform="matrix(1.3333333,0,0,-1.3333333,202.02413,674.47267)"
         clip-path="url(#clipPath75)" />
      <path
         id="path76"
         d="M 0,0 3.171,12.394 H -17.177 L -20.348,0 Z M 24.079,0 27.25,12.394 H 6.902 L 3.731,0 Z M 19.952,-16.122 23.124,-3.73 H 2.776 l -3.172,-12.392 z m -4.126,-16.124 3.171,12.392 H -1.352 L -4.523,-32.246 Z M 48.158,0 51.33,12.394 H 30.982 L 27.81,0 Z M 44.031,-16.122 47.203,-3.73 H 26.854 l -3.171,-12.392 z m -4.126,-16.124 3.171,12.392 H 22.728 l -3.172,-12.392 z m -4.128,-16.124 3.172,12.393 H 18.601 L 15.429,-48.37 Z m 32.334,32.248 3.172,12.392 H 50.934 l -3.172,-12.392 z m -4.128,-16.124 3.173,12.392 H 46.807 l -3.172,-12.392 z m -4.127,-16.124 3.172,12.393 H 42.68 L 39.508,-48.37 Z m 24.08,0 3.171,12.393 H 66.759 L 63.587,-48.37 Z M 7.299,28.516 H -13.05 L -16.222,16.124 H 4.126 Z m 24.078,0 H 11.029 L 7.857,16.124 h 20.349 z m 24.079,0 H 35.108 L 31.936,16.124 h 20.349 z m -43.472,3.73 H 32.333 L 35.505,44.64 H 15.156 Z m -24.079,0 H 8.254 L 11.426,44.64 H -8.923 Z m -24.079,0 h 20.349 l 3.172,12.394 H -33.001 Z M 31.708,-64.268 H 11.36 l 3.115,12.167 h 20.348 z m 24.08,0 H 35.439 l 3.114,12.167 h 20.349 z m 24.079,0 H 59.518 l 3.115,12.167 H 82.98 Z m 27.87,12.167 -3.112,-12.167 H 83.597 l 3.115,12.167 z M 19.225,60.537 H 39.573 L 36.459,48.37 H 16.111 Z m -24.079,0 H 15.495 L 12.38,48.37 H -7.968 Z m -24.08,0 h 20.35 L -11.699,48.37 h -20.348 z m -26.284,-12.167 -0.634,1.073 2.839,11.094 h 20.349 L -35.778,48.37 Z m 9.53,-16.124 -7.325,12.394 h 16.281 l -3.172,-12.394 z m 4.036,-6.827 -1.83,3.097 h 2.623 z m 5.494,-9.295 -2.891,4.891 1.92,7.501 H -16.78 L -19.953,16.124 Z M -26.628,0 -33.953,12.394 h 13.046 L -24.08,0 Z m 9.529,-16.122 -5.147,8.708 0.943,3.684 h 20.348 l -3.172,-12.392 z m 9.052,-15.315 -6.846,11.583 h 9.811 z M 1.961,-48.37 -5.364,-35.977 H 14.871 L 11.698,-48.37 Z m 6.795,-11.496 -4.589,7.765 h 6.576 z m 90.553,23.889 7.324,-12.393 H 87.666 l 3.172,12.393 z m -5.911,10 3.706,-6.269 h -5.311 z m -3.62,6.123 1.017,-1.719 -2.732,-10.673 H 67.714 l 3.172,12.392 z M 80.247,-3.73 87.573,-16.122 H 71.84 L 75.012,-3.73 Z M 76.595,2.451 78.044,0 H 75.967 Z M 70.72,12.394 73.992,6.856 72.238,0 H 51.889 l 3.172,12.394 z m -9.531,16.122 7.326,-12.392 h -12.5 l 3.173,12.392 z M 51.66,44.64 57.189,35.284 56.412,32.246 H 36.063 L 39.235,44.64 Z M 42.99,59.308 49.454,48.37 H 40.19 Z m -105.398,1.229 h 5.665 l -1.712,-6.689 z"
         style="fill:#a3b2e1;fill-opacity:1;fill-rule:evenodd;stroke:none"
         transform="matrix(1.3333333,0,0,-1.3333333,234.13027,674.47267)"
         clip-path="url(#clipPath77)" />
      <path
         id="path78"
         d="m 0,0 260.939,137.014 3.394,-6.341 L 229.264,-6.34 H 3.397 Z"
         style="fill:#caede4;fill-opacity:1;fill-rule:evenodd;stroke:none"
         transform="matrix(1.3333333,0,0,-1.3333333,453.47,768.30213)"
         clip-path="url(#clipPath79)" />
      <path
         id="path80"
         d="M 0,0 33.488,-107.754 H 3.375 L -31.955,10.261 Z M 65.6,0 99.089,-107.754 H 68.975 L 33.645,10.261 Z"
         style="fill:#caede4;fill-opacity:1;fill-rule:evenodd;stroke:none"
         transform="matrix(1.3333333,0,0,-1.3333333,561.8672,676.96093)"
         clip-path="url(#clipPath81)" />
      <path
         id="path82"
         d="M 0,0 33.49,-107.754 H 3.375 L -31.953,10.261 Z M 65.6,0 99.088,-107.754 H 68.975 L 33.645,10.261 Z"
         style="fill:#ffffff;fill-opacity:1;fill-rule:evenodd;stroke:none"
         transform="matrix(1.3333333,0,0,-1.3333333,555.52733,676.96093)"
         clip-path="url(#clipPath83)" />
      <path
         id="path84"
         d="M 0,0 H 225.869 L 190.8,-137.014 H -35.069 Z"
         style="fill:#ffffff;fill-opacity:1;fill-rule:evenodd;stroke:none"
         transform="matrix(1.3333333,0,0,-1.3333333,500.2292,585.6172)"
         clip-path="url(#clipPath85)" />
      <path
         id="path86"
         d="M 0,0 3.172,12.394 H -17.177 L -20.349,0 Z m -4.127,-16.122 3.172,12.392 h -20.349 l -3.172,-12.392 z m -4.128,-16.124 3.174,12.392 h -20.35 l -3.172,-12.392 z m -4.125,-16.124 3.172,12.393 h -20.35 L -32.729,-48.37 Z M 24.079,0 27.251,12.394 H 6.902 L 3.73,0 Z M 19.951,-16.122 23.124,-3.73 H 2.775 l -3.172,-12.392 z m -4.127,-16.124 3.174,12.392 h -20.35 l -3.171,-12.392 z m -4.125,-16.124 3.172,12.393 H -5.478 L -8.65,-48.37 Z M 48.158,0 51.33,12.394 H 30.981 L 27.809,0 Z M 44.03,-16.122 47.203,-3.73 H 26.854 l -3.171,-12.392 z m -4.127,-16.124 3.172,12.392 H 22.728 L 19.557,-32.246 Z M 35.777,-48.37 38.95,-35.977 H 18.602 L 15.43,-48.37 Z M 72.236,0 75.409,12.394 H 55.06 L 51.889,0 Z M 68.109,-16.122 71.281,-3.73 H 50.934 l -3.171,-12.392 z m -4.125,-16.124 3.172,12.392 H 46.808 l -3.172,-12.392 z m -4.128,-16.124 3.173,12.393 H 42.681 L 39.509,-48.37 Z M 96.315,0 99.488,12.394 H 79.14 L 75.968,0 Z M 92.19,-16.122 95.36,-3.73 H 75.014 L 71.84,-16.122 Z m -4.128,-16.124 3.173,12.392 H 70.887 l -3.172,-12.392 z m -4.126,-16.124 3.171,12.393 H 66.76 L 63.588,-48.37 Z M 120.395,0 123.566,12.394 H 103.219 L 100.047,0 Z m -4.125,-16.122 3.171,12.392 H 99.093 l -3.174,-12.392 z m -4.128,-16.124 3.172,12.392 H 94.966 l -3.172,-12.392 z m -4.127,-16.124 3.171,12.393 H 90.839 L 87.666,-48.37 Z m -161.651,12.393 -3.173,-12.393 h 20.35 l 3.172,12.393 z m 4.126,16.123 -3.172,-12.392 h 20.35 l 3.171,12.392 z m 4.127,16.124 -3.172,-12.392 h 20.349 l 3.172,12.392 z M -41.256,12.394 -44.428,0 h 20.349 l 3.172,12.394 z m 24.476,16.122 h -20.349 l -3.172,-12.392 h 20.349 z m 24.079,0 H -13.05 L -16.222,16.124 H 4.127 Z m 24.079,0 H 11.029 L 7.857,16.124 h 20.349 z m 24.079,0 H 35.108 L 31.936,16.124 h 20.349 z m 24.079,0 H 59.188 L 56.016,16.124 h 20.348 z m 24.079,0 H 83.267 L 80.095,16.124 h 20.348 z m 24.079,0 h -20.348 l -3.172,-12.392 h 20.348 z m -19.393,3.73 h 20.348 l 3.172,12.394 h -20.348 z m -24.079,0 h 20.348 l 3.172,12.394 H 87.393 Z m -24.08,0 H 80.491 L 83.663,44.64 H 63.314 Z m -24.079,0 H 56.412 L 59.584,44.64 H 39.235 Z m -24.079,0 h 20.349 l 3.172,12.394 h -20.35 z m -24.08,0 h 20.35 l 3.172,12.394 h -20.35 z m -24.079,0 h 20.35 l 3.171,12.394 h -20.349 z m -24.079,0 3.172,12.394 h 20.349 l -3.172,-12.394 z m -4.126,-16.122 3.173,12.392 h 20.348 L -44.031,16.124 Z M -68.507,0 l 3.172,12.394 h 20.349 L -48.158,0 Z m -4.127,-16.122 3.172,12.392 h 20.349 l -3.172,-12.392 z m -4.127,-16.124 3.172,12.392 h 20.349 l -3.172,-12.392 z m -4.127,-16.124 3.173,12.393 h 20.348 l -3.171,-12.393 z m 16.28,-15.898 h -20.348 l 3.114,12.167 h 20.349 z m 24.079,0 h -20.348 l 3.114,12.167 h 20.349 z m 24.079,0 h -20.348 l 3.114,12.167 h 20.349 z m 24.079,0 h -20.348 l 3.114,12.167 h 20.349 z m 24.079,0 H 11.359 l 3.116,12.167 h 20.347 z m 24.079,0 H 35.438 l 3.116,12.167 h 20.347 z m 24.08,0 h -20.35 l 3.116,12.167 H 82.98 Z m 24.079,0 H 83.597 l 3.114,12.167 h 20.348 z m 27.87,12.167 -3.114,-12.167 h -21.026 l 3.114,12.167 z m 4.128,16.124 -3.173,-12.393 h -21.026 l 3.173,12.393 z m 4.125,16.123 -3.172,-12.392 h -21.024 l 3.172,12.392 z m 4.128,16.124 -3.173,-12.392 H 120 l 3.17,12.392 z M 148.324,12.394 145.152,0 h -21.027 l 3.173,12.394 z m 4.127,16.122 -3.172,-12.392 h -21.026 l 3.172,12.392 z m 4.127,16.124 -3.172,-12.394 H 132.38 l 3.172,12.394 z M 139.62,60.537 h 21.026 L 157.532,48.37 h -21.025 z m -24.079,0 H 135.89 L 132.776,48.37 h -20.348 z m -24.079,0 h 20.349 L 108.697,48.37 H 88.349 Z m -24.079,0 H 87.731 L 84.617,48.37 H 64.27 Z m -24.079,0 H 63.652 L 60.538,48.37 H 40.189 Z m -24.079,0 H 39.573 L 36.46,48.37 H 16.11 Z m -24.08,0 H 15.494 L 12.381,48.37 h -20.35 z m -24.078,0 H -8.585 L -11.699,48.37 h -20.349 z m -24.079,0 h 20.348 L -35.778,48.37 h -20.349 z"
         style="fill:#7b90d1;fill-opacity:1;fill-rule:evenodd;stroke:none"
         transform="matrix(1.3333333,0,0,-1.3333333,576.9688,674.47267)"
         clip-path="url(#clipPath87)" />
      <path
         id="path88"
         d="M 0,0 3.172,12.394 H -17.177 L -20.349,0 Z m -4.128,-16.122 3.173,12.392 h -20.349 l -3.172,-12.392 z M 24.079,0 27.251,12.394 H 6.902 L 3.73,0 Z M 19.951,-16.122 23.124,-3.73 H 2.775 l -3.172,-12.392 z m -4.127,-16.124 3.172,12.392 H -1.351 l -3.172,-12.392 z m -4.126,-16.124 3.173,12.393 H -5.478 L -8.649,-48.37 Z M 48.157,0 51.33,12.394 H 30.981 L 27.809,0 Z M 44.03,-16.122 47.202,-3.73 H 26.854 l -3.17,-12.392 z m -4.125,-16.124 3.172,12.392 H 22.728 L 19.557,-32.246 Z M 35.777,-48.37 38.95,-35.977 H 18.602 L 15.43,-48.37 Z m 28.206,16.124 3.173,12.392 H 46.808 l -3.172,-12.392 z m -4.127,-16.124 3.172,12.393 H 42.681 L 39.509,-48.37 Z M -16.78,28.516 h -20.349 l -3.172,-12.392 h 20.349 z m 24.079,0 H -13.05 L -16.222,16.124 H 4.127 Z m 24.079,0 H 11.029 L 7.857,16.124 h 20.349 z m -19.394,3.73 H 32.333 L 35.505,44.64 H 15.156 Z m -24.079,0 H 8.254 l 3.172,12.394 h -20.35 z m -24.08,0 h 20.35 l 3.172,12.394 h -20.35 z m -24.079,0 h 20.35 l 3.171,12.394 H -57.082 Z M 31.708,-64.268 H 11.359 l 3.116,12.167 h 20.347 z m 24.08,0 h -20.35 l 3.116,12.167 h 20.347 z m 24.079,0 h -20.35 l 3.115,12.167 H 82.98 Z M -4.855,60.537 H 15.494 L 12.381,48.37 h -20.35 z m -24.079,0 H -8.585 L -11.698,48.37 h -20.35 z m -24.078,0 h 20.348 L -35.778,48.37 h -20.349 z m -9.85,-23.911 -4.737,8.014 h 6.786 z m 12.117,-20.502 -7.324,12.392 h 17.21 l -3.172,-12.392 z m 4.685,-7.926 -2.48,4.196 h 3.554 z M -41.216,0 l -2.24,3.793 2.2,8.601 h 20.349 L -24.079,0 Z m 9.531,-16.122 -7.326,12.392 h 13.977 l -3.172,-12.392 z m 2.427,-4.109 -0.222,0.377 h 0.32 z m 7.103,-12.015 -4.499,7.61 1.223,4.782 h 20.35 l -3.174,-12.392 z m 9.529,-16.124 -7.324,12.393 H -9.208 L -12.38,-48.37 Z m 9.396,-15.898 -6.621,11.205 0.246,0.962 H 10.743 L 7.629,-64.268 Z m 97.481,12.167 7.191,-12.167 H 83.597 l 3.114,12.167 z m -5.261,8.902 3.056,-5.171 h -4.38 z m -4.268,7.222 1.665,-2.818 -2.451,-9.575 H 63.587 l 3.173,12.393 z m -9.53,16.123 7.325,-12.392 H 67.715 l 3.172,12.392 z m -3.006,5.084 0.799,-1.352 H 71.84 Z m -6.525,11.04 3.923,-6.636 -1.473,-5.756 H 47.761 L 50.934,-3.73 Z M 56.132,12.394 63.456,0 H 51.889 l 3.171,12.394 z m -9.53,16.122 6.179,-10.454 -0.496,-1.938 H 31.936 l 3.172,12.392 z m -8.021,13.571 5.815,-9.841 H 36.063 Z M 27.677,60.537 34.867,48.37 H 16.11 l 3.115,12.167 z m -104.672,0 h 20.252 L -59.858,48.37 h -9.946 z"
         style="fill:#a3b2e1;fill-opacity:1;fill-rule:evenodd;stroke:none"
         transform="matrix(1.3333333,0,0,-1.3333333,609.07427,674.47267)"
         clip-path="url(#clipPath89)" />
      <path
         id="path90"
         d="m 0,0 v -41.218 h -661.374 c 64.542,12.729 85.723,20.823 140.147,54.047 56.035,34.21 117.236,-13.661 178.923,-13.661 87.737,0 127.614,40.795 234.441,-0.701 C -75.241,-14.205 -35.457,-0.457 0,0"
         style="fill:#ffffff;fill-opacity:1;fill-rule:evenodd;stroke:none"
         transform="matrix(1.3333333,0,0,-1.3333333,883.13667,826.13547)"
         clip-path="url(#clipPath91)" />
      <path
         id="path92"
         d="M 0,0 C 2.187,0 3.961,-1.774 3.961,-3.962 3.961,-6.15 2.187,-7.924 0,-7.924 c -2.188,0 -3.962,1.774 -3.962,3.962 C -3.962,-1.774 -2.188,0 0,0 m -14.943,1.812 c 3.189,0 5.774,-2.585 5.774,-5.774 0,-3.189 -2.585,-5.774 -5.774,-5.774 -3.189,0 -5.773,2.585 -5.773,5.774 0,3.189 2.584,5.774 5.773,5.774"
         style="fill:#ffffff;fill-opacity:1;fill-rule:evenodd;stroke:none"
         transform="matrix(1.3333333,0,0,-1.3333333,59.3092,174.30333)"
         clip-path="url(#clipPath93)" />
      <path
         id="path94"
         d="m 0,0 c -2.187,0 -3.962,-1.774 -3.962,-3.962 0,-2.188 1.775,-3.961 3.962,-3.961 2.189,0 3.962,1.773 3.962,3.961 C 3.962,-1.774 2.189,0 0,0 m 14.943,1.812 c -3.189,0 -5.773,-2.585 -5.773,-5.774 0,-3.188 2.584,-5.773 5.773,-5.773 3.189,0 5.772,2.585 5.772,5.773 0,3.189 -2.583,5.774 -5.772,5.774"
         style="fill:#ffffff;fill-opacity:1;fill-rule:evenodd;stroke:none"
         transform="matrix(1.3333333,0,0,-1.3333333,669.694,92.646533)"
         clip-path="url(#clipPath95)" />
      <path
         id="path96"
         d="m 0,0 c 2.188,0 3.962,-1.773 3.962,-3.962 0,-2.187 -1.774,-3.961 -3.962,-3.961 -2.189,0 -3.962,1.774 -3.962,3.961 C -3.962,-1.773 -2.189,0 0,0 m -14.943,1.812 c 3.189,0 5.773,-2.585 5.773,-5.774 0,-3.186 -2.584,-5.772 -5.773,-5.772 -3.189,0 -5.773,2.586 -5.773,5.772 0,3.189 2.584,5.774 5.773,5.774"
         style="fill:#caede4;fill-opacity:1;fill-rule:evenodd;stroke:none"
         transform="matrix(1.3333333,0,0,-1.3333333,794.67053,541.38147)"
         clip-path="url(#clipPath97)" />
      <path
         id="path98"
         d="m 0,0 c 2.188,0 3.962,-1.774 3.962,-3.962 0,-2.187 -1.774,-3.963 -3.962,-3.963 -2.188,0 -3.962,1.776 -3.962,3.963 C -3.962,-1.774 -2.188,0 0,0 m -14.942,1.81 c 3.189,0 5.773,-2.584 5.773,-5.772 0,-3.19 -2.584,-5.774 -5.773,-5.774 -3.189,0 -5.773,2.584 -5.773,5.774 0,3.188 2.584,5.772 5.773,5.772"
         style="fill:#caede4;fill-opacity:1;fill-rule:evenodd;stroke:none"
         transform="matrix(1.3333333,0,0,-1.3333333,133.5684,556.3216)"
         clip-path="url(#clipPath99)" />
      <path
         id="path100"
         d="m 0,0 c 2.189,0 3.962,-1.774 3.962,-3.962 0,-2.187 -1.773,-3.961 -3.962,-3.961 -2.187,0 -3.962,1.774 -3.962,3.961 C -3.962,-1.774 -2.187,0 0,0 m -14.942,1.812 c 3.189,0 5.774,-2.585 5.774,-5.774 0,-3.188 -2.585,-5.773 -5.774,-5.773 -3.188,0 -5.773,2.585 -5.773,5.773 0,3.189 2.585,5.774 5.773,5.774"
         style="fill:#ffffff;fill-opacity:1;fill-rule:evenodd;stroke:none"
         transform="matrix(1.3333333,0,0,-1.3333333,372.6504,46.7624)"
         clip-path="url(#clipPath101)" />
    </g>
  </g>
</svg>
