<?xml version="1.0" encoding="UTF-8" standalone="no"?>
<!-- Created with Inkscape (http://www.inkscape.org/) -->

<svg
   version="1.1"
   id="svg1"
   width="880"
   height="880"
   viewBox="0 0 880 880"
   sodipodi:docname="speed-boat-on-sea.svg"
   inkscape:version="1.3.2 (091e20e, 2023-11-25, custom)"
   xmlns:inkscape="http://www.inkscape.org/namespaces/inkscape"
   xmlns:sodipodi="http://sodipodi.sourceforge.net/DTD/sodipodi-0.dtd"
   xmlns="http://www.w3.org/2000/svg"
   xmlns:svg="http://www.w3.org/2000/svg">
  <defs
     id="defs1">
    <clipPath
       clipPathUnits="userSpaceOnUse"
       id="clipPath4">
      <path
         d="M 0,660 H 660 V 0 H 0 Z"
         transform="translate(-542.68951,-505.95071)"
         id="path4" />
    </clipPath>
    <clipPath
       clipPathUnits="userSpaceOnUse"
       id="clipPath6">
      <path
         d="M 0,660 H 660 V 0 H 0 Z"
         transform="translate(-659.62892,-470.03171)"
         id="path6" />
    </clipPath>
    <clipPath
       clipPathUnits="userSpaceOnUse"
       id="clipPath8">
      <path
         d="M 0,660 H 660 V 0 H 0 Z"
         transform="translate(-335.70901,-432.60251)"
         id="path8" />
    </clipPath>
    <clipPath
       clipPathUnits="userSpaceOnUse"
       id="clipPath10">
      <path
         d="M 0,660 H 660 V 0 H 0 Z"
         transform="translate(-346.42771,-465.60451)"
         id="path10" />
    </clipPath>
    <clipPath
       clipPathUnits="userSpaceOnUse"
       id="clipPath12">
      <path
         d="M 0,660 H 660 V 0 H 0 Z"
         transform="translate(-353.97171,-453.43651)"
         id="path12" />
    </clipPath>
    <clipPath
       clipPathUnits="userSpaceOnUse"
       id="clipPath14">
      <path
         d="M 0,660 H 660 V 0 H 0 Z"
         transform="translate(-355.24901,-437.33301)"
         id="path14" />
    </clipPath>
    <clipPath
       clipPathUnits="userSpaceOnUse"
       id="clipPath16">
      <path
         d="M 0,660 H 660 V 0 H 0 Z"
         id="path16" />
    </clipPath>
    <clipPath
       clipPathUnits="userSpaceOnUse"
       id="clipPath18">
      <path
         d="M 0,660 H 660 V 0 H 0 Z"
         id="path18" />
    </clipPath>
    <clipPath
       clipPathUnits="userSpaceOnUse"
       id="clipPath20">
      <path
         d="M 0,660 H 660 V 0 H 0 Z"
         transform="translate(-659.62892,-238.46001)"
         id="path20" />
    </clipPath>
    <clipPath
       clipPathUnits="userSpaceOnUse"
       id="clipPath22">
      <path
         d="M 0,660 H 660 V 0 H 0 Z"
         transform="translate(-369.43751,-420.17971)"
         id="path22" />
    </clipPath>
    <clipPath
       clipPathUnits="userSpaceOnUse"
       id="clipPath24">
      <path
         d="M 0,660 H 660 V 0 H 0 Z"
         id="path24" />
    </clipPath>
    <clipPath
       clipPathUnits="userSpaceOnUse"
       id="clipPath26">
      <path
         d="M 0,660 H 660 V 0 H 0 Z"
         transform="translate(-176.5767,-394.87651)"
         id="path26" />
    </clipPath>
    <clipPath
       clipPathUnits="userSpaceOnUse"
       id="clipPath28">
      <path
         d="M 0,660 H 660 V 0 H 0 Z"
         transform="translate(-535.67092,-274.32711)"
         id="path28" />
    </clipPath>
    <clipPath
       clipPathUnits="userSpaceOnUse"
       id="clipPath30">
      <path
         d="M 0,660 H 660 V 0 H 0 Z"
         transform="translate(-185.60691,-257.21391)"
         id="path30" />
    </clipPath>
    <clipPath
       clipPathUnits="userSpaceOnUse"
       id="clipPath32">
      <path
         d="M 0,660 H 660 V 0 H 0 Z"
         transform="translate(-83.672402,-348.84621)"
         id="path32" />
    </clipPath>
    <clipPath
       clipPathUnits="userSpaceOnUse"
       id="clipPath34">
      <path
         d="M 0,660 H 660 V 0 H 0 Z"
         transform="translate(-185.6206,-257.22271)"
         id="path34" />
    </clipPath>
    <clipPath
       clipPathUnits="userSpaceOnUse"
       id="clipPath36">
      <path
         d="M 0,660 H 660 V 0 H 0 Z"
         transform="translate(-109.82571,-312.96581)"
         id="path36" />
    </clipPath>
    <clipPath
       clipPathUnits="userSpaceOnUse"
       id="clipPath38">
      <path
         d="M 0,660 H 660 V 0 H 0 Z"
         transform="translate(-253.1479,-283.4209)"
         id="path38" />
    </clipPath>
    <clipPath
       clipPathUnits="userSpaceOnUse"
       id="clipPath40">
      <path
         d="M 0,660 H 660 V 0 H 0 Z"
         transform="translate(-444.33891,-220.459)"
         id="path40" />
    </clipPath>
    <clipPath
       clipPathUnits="userSpaceOnUse"
       id="clipPath42">
      <path
         d="M 0,660 H 660 V 0 H 0 Z"
         transform="translate(-62.847202,-383.07281)"
         id="path42" />
    </clipPath>
    <clipPath
       clipPathUnits="userSpaceOnUse"
       id="clipPath44">
      <path
         d="M 0,660 H 660 V 0 H 0 Z"
         transform="translate(-501.36821,-243.60741)"
         id="path44" />
    </clipPath>
    <clipPath
       clipPathUnits="userSpaceOnUse"
       id="clipPath46">
      <path
         d="M 0,660 H 660 V 0 H 0 Z"
         transform="translate(-349.77051,-471.03171)"
         id="path46" />
    </clipPath>
    <clipPath
       clipPathUnits="userSpaceOnUse"
       id="clipPath48">
      <path
         d="M 0,660 H 660 V 0 H 0 Z"
         transform="translate(-369.03321,-466.56741)"
         id="path48" />
    </clipPath>
    <clipPath
       clipPathUnits="userSpaceOnUse"
       id="clipPath50">
      <path
         d="M 0,660 H 660 V 0 H 0 Z"
         transform="translate(-365.04001,-466.65531)"
         id="path50" />
    </clipPath>
    <clipPath
       clipPathUnits="userSpaceOnUse"
       id="clipPath52">
      <path
         d="M 0,660 H 660 V 0 H 0 Z"
         transform="translate(-363.94531,-458.34771)"
         id="path52" />
    </clipPath>
    <clipPath
       clipPathUnits="userSpaceOnUse"
       id="clipPath54">
      <path
         d="M 0,660 H 660 V 0 H 0 Z"
         transform="translate(-545.13961,-534.75391)"
         id="path54" />
    </clipPath>
    <clipPath
       clipPathUnits="userSpaceOnUse"
       id="clipPath56">
      <path
         d="M 0,660 H 660 V 0 H 0 Z"
         id="path56" />
    </clipPath>
  </defs>
  <sodipodi:namedview
     id="namedview1"
     pagecolor="#ffffff"
     bordercolor="#000000"
     borderopacity="0.25"
     inkscape:showpageshadow="2"
     inkscape:pageopacity="0.0"
     inkscape:pagecheckerboard="0"
     inkscape:deskcolor="#d1d1d1"
     inkscape:zoom="0.67272727"
     inkscape:cx="439.25676"
     inkscape:cy="440"
     inkscape:window-width="1440"
     inkscape:window-height="830"
     inkscape:window-x="-6"
     inkscape:window-y="-6"
     inkscape:window-maximized="1"
     inkscape:current-layer="g1">
    <inkscape:page
       x="0"
       y="0"
       inkscape:label="1"
       id="page1"
       width="880"
       height="880"
       margin="0.49479201 0.49466667 0 0"
       bleed="0" />
  </sodipodi:namedview>
  <g
     id="g1"
     inkscape:groupmode="layer"
     inkscape:label="1">
    <g
       id="group-MC0">
      <path
         id="path2"
         d="M 0,0.371 H 659.629 V 660 H 0 Z"
         style="fill:#89d9f0;fill-opacity:1;fill-rule:nonzero;stroke:none"
         transform="matrix(1.3333333,0,0,-1.3333333,0,880)" />
      <path
         id="path3"
         d="m 0,0 c 14.281,0 26.896,-7.127 34.488,-18.017 7.889,5.192 17.332,8.213 27.483,8.213 27.652,0 50.068,-22.416 50.068,-50.067 0,-27.65 -22.416,-50.067 -50.068,-50.067 -9.835,0 -19.008,2.839 -26.746,7.738 -6.581,-12.117 -19.417,-20.342 -34.174,-20.342 -5.27,0 -10.294,1.051 -14.875,2.95 -3.962,-30.7 -30.198,-54.419 -61.979,-54.419 -34.514,0 -62.497,27.981 -62.497,62.497 0,12.4 3.613,23.957 9.84,33.676 -3.255,-0.841 -6.669,-1.29 -10.188,-1.29 -22.431,0 -40.614,18.184 -40.614,40.615 0,22.43 18.183,40.614 40.614,40.614 10.027,0 19.204,-3.636 26.288,-9.659 8.653,14.982 24.841,25.063 43.386,25.063 18.868,0 35.295,-10.439 43.829,-25.855 C -18.133,-3.105 -9.43,0 0,0 m -474.416,18.906 c 17.853,0 33.834,-8.002 44.558,-20.613 1.468,23.618 21.085,42.32 45.073,42.32 24.945,0 45.166,-20.22 45.166,-45.165 0,-1.125 -0.042,-2.241 -0.123,-3.346 6.356,2.388 13.24,3.696 20.43,3.696 32.099,0 58.119,-26.021 58.119,-58.12 0,-32.098 -26.02,-58.12 -58.119,-58.12 -32.099,0 -58.12,26.022 -58.12,58.12 0,4.644 0.548,9.16 1.577,13.489 -2.887,-0.579 -5.873,-0.885 -8.93,-0.885 -12.108,0 -23.102,4.765 -31.211,12.522 0.031,-0.786 0.051,-1.575 0.051,-2.368 0,-32.292 -26.178,-58.47 -58.471,-58.47 -32.292,0 -58.47,26.178 -58.47,58.47 0,32.292 26.178,58.47 58.47,58.47"
         style="fill:#ffffff;fill-opacity:1;fill-rule:evenodd;stroke:none"
         transform="matrix(1.3333333,0,0,-1.3333333,723.586,205.39907)"
         clip-path="url(#clipPath4)" />
      <path
         id="path5"
         d="m 0,0 v -153.831 c -9.038,-11.521 -23.086,-18.922 -38.864,-18.922 -15.122,0 -28.655,6.801 -37.711,17.51 -5.355,-2.898 -11.27,-4.895 -17.54,-5.783 -2.905,-29.772 -28.003,-53.042 -58.538,-53.042 -24.08,0 -44.776,14.471 -53.877,35.19 -7.486,-3.742 -15.929,-5.849 -24.867,-5.849 -30.763,0 -55.704,24.939 -55.704,55.704 0,9.782 2.526,18.972 6.953,26.962 -1.193,0.726 -2.352,1.503 -3.473,2.328 -7.706,-9.506 -19.475,-15.584 -32.664,-15.584 -22.73,0 -41.241,18.043 -42,40.588 -7.437,-4.073 -15.972,-6.392 -25.049,-6.392 -7.861,0 -15.315,1.741 -22.003,4.854 -7.696,-12.911 -21.795,-21.56 -37.917,-21.56 -21.38,0 -39.206,15.209 -43.253,35.398 -4.662,-2.296 -9.781,-3.807 -15.183,-4.356 0.663,-3.024 1.016,-6.165 1.016,-9.389 0,-20.419 -14.033,-37.559 -32.98,-42.308 7.02,-8.057 11.273,-18.588 11.273,-30.112 0,-25.332 -20.535,-45.867 -45.867,-45.867 -24.034,0 -43.748,18.488 -45.703,42.017 -8.253,-4.892 -17.882,-7.705 -28.172,-7.705 -6.118,0 -12.004,0.993 -17.506,2.827 V 12.8 c 0.233,0.007 0.466,0.011 0.7,0.011 14.696,0 26.609,-11.913 26.609,-26.609 0,-6.165 -2.097,-11.84 -5.616,-16.351 2.303,-3.252 4.251,-6.772 5.791,-10.504 9.249,5.918 20.242,9.349 32.037,9.349 11.452,0 22.146,-3.238 31.224,-8.843 5.569,3.809 12.066,6.361 19.082,7.246 -0.841,3.429 -1.289,7.011 -1.289,10.7 0,24.75 20.064,44.816 44.815,44.816 21.907,0 40.14,-15.72 44.041,-36.494 5.75,2.744 12.185,4.282 18.981,4.282 3.752,0 7.394,-0.47 10.871,-1.351 7.322,19.994 26.519,34.263 49.049,34.263 10.306,0 19.912,-2.987 28.005,-8.141 9.097,8.932 21.562,14.443 35.318,14.443 26.012,0 47.42,-19.7 50.126,-44.993 4.616,1.478 9.537,2.278 14.646,2.278 26.491,0 47.966,-21.476 47.966,-47.966 0,-5.778 -1.022,-11.317 -2.893,-16.447 12.412,-5.121 22.566,-14.597 28.566,-26.524 8.545,4.841 18.422,7.609 28.947,7.609 l 0.125,-0.003 c 5.646,22.918 26.332,39.916 50.991,39.916 9.884,0 19.127,-2.732 27.02,-7.478 2.833,20.057 20.066,35.488 40.905,35.488 8.775,0 16.911,-2.739 23.603,-7.405 -1.226,3.406 -1.896,7.078 -1.896,10.906 0,10.09 4.64,19.096 11.905,25.002"
         style="fill:#caeef9;fill-opacity:1;fill-rule:evenodd;stroke:none"
         transform="matrix(1.3333333,0,0,-1.3333333,879.5052,253.29107)"
         clip-path="url(#clipPath6)" />
      <path
         id="path7"
         d="m 0,0 c 2.14,4.015 7.131,5.533 11.144,3.393 4.015,-2.141 5.534,-7.132 3.393,-11.146 -8.692,-16.332 -17.276,-26.769 -25.784,-33.102 -9.362,-6.969 -18.544,-9.099 -27.625,-8.507 -4.549,0.285 -8.006,4.206 -7.72,8.755 0.285,4.55 4.205,8.007 8.755,7.721 5.426,-0.354 10.982,0.971 16.768,5.277 C -14.429,-22.667 -7.455,-14.005 0,0"
         style="fill:#f28f62;fill-opacity:1;fill-rule:evenodd;stroke:none"
         transform="matrix(1.3333333,0,0,-1.3333333,447.612,303.19667)"
         clip-path="url(#clipPath8)" />
      <path
         id="path9"
         d="M 0,0 H 23.476 L 20.633,-26.26 H 8.896 c -6.457,0 -11.167,5.282 -10.468,11.738 z"
         style="fill:#f28f62;fill-opacity:1;fill-rule:evenodd;stroke:none"
         transform="matrix(1.3333333,0,0,-1.3333333,461.9036,259.194)"
         clip-path="url(#clipPath10)" />
      <path
         id="path11"
         d="m 0,0 h 12.779 l 2.366,-19.169 H 2.364 Z"
         style="fill:#f28f62;fill-opacity:1;fill-rule:evenodd;stroke:none"
         transform="matrix(1.3333333,0,0,-1.3333333,471.96227,275.418)"
         clip-path="url(#clipPath12)" />
      <path
         id="path13"
         d="m 0,0 15.622,-2.298 c 4.967,-0.731 9.029,-5.479 9.029,-10.554 V -61.86 c 0,-5.074 -4.062,-8.626 -9.029,-7.896 l -25.111,3.694 c -4.967,0.73 -9.031,5.48 -9.031,10.553 v 39.314 C -18.52,-5.789 -10.186,1.499 0,0"
         style="fill:#335789;fill-opacity:1;fill-rule:evenodd;stroke:none"
         transform="matrix(1.3333333,0,0,-1.3333333,473.66533,296.88933)"
         clip-path="url(#clipPath14)" />
      <path
         id="path15"
         d="M 0,0.371 H 659.629 V 322.483 H 0 Z"
         style="fill:#4ba5ce;fill-opacity:1;fill-rule:evenodd;stroke:none"
         transform="matrix(1.3333333,0,0,-1.3333333,0,880)"
         clip-path="url(#clipPath16)" />
      <path
         id="path17"
         d="m 0,274.266 h 659.629 v 3.715 H 0 Z"
         style="fill:#4094bf;fill-opacity:1;fill-rule:evenodd;stroke:none"
         transform="matrix(1.3333333,0,0,-1.3333333,0,880)"
         clip-path="url(#clipPath18)" />
      <path
         id="path19"
         d="m 0,0 v -35.729 c -26.674,-0.436 -54.766,-0.671 -83.787,-0.671 -173.125,0 -313.468,8.299 -313.468,18.535 0,10.237 140.343,18.535 313.468,18.535 C -54.766,0.67 -26.674,0.436 0,0"
         style="fill:#71cdec;fill-opacity:1;fill-rule:evenodd;stroke:none"
         transform="matrix(1.3333333,0,0,-1.3333333,879.5052,562.05333)"
         clip-path="url(#clipPath20)" />
      <path
         id="path21"
         d="M 0,0 C -2.783,3.604 -2.118,8.783 1.486,11.566 5.09,14.349 10.269,13.684 13.052,10.08 27.46,-8.493 33.218,-23.52 31.861,-35.633 30.348,-49.154 20.956,-58.267 5.396,-63.924 c -4.283,-1.553 -9.012,0.661 -10.565,4.942 -1.552,4.283 0.661,9.012 4.943,10.564 9.379,3.411 14.954,8.153 15.674,14.594 C 16.327,-25.976 11.584,-14.931 0,0"
         style="fill:#f28f62;fill-opacity:1;fill-rule:evenodd;stroke:none"
         transform="matrix(1.3333333,0,0,-1.3333333,492.58333,319.7604)"
         clip-path="url(#clipPath22)" />
      <path
         id="path23"
         d="m 0,298.676 h 659.629 v 23.808 H 0 Z"
         style="fill:#4094bf;fill-opacity:1;fill-rule:evenodd;stroke:none"
         transform="matrix(1.3333333,0,0,-1.3333333,0,880)"
         clip-path="url(#clipPath24)" />
      <path
         id="path25"
         d="M 0,0 C 39.657,2.804 74.48,12.639 103.867,30.383 172.917,10.189 220.065,-24.821 257.361,-66.494 171.574,-44.33 85.787,-22.165 0,0"
         style="fill:#4ba5ce;fill-opacity:1;fill-rule:evenodd;stroke:none"
         transform="matrix(1.3333333,0,0,-1.3333333,235.4356,353.498)"
         clip-path="url(#clipPath26)" />
      <path
         id="path27"
         d="M 0,0 C -132.494,88.944 -349.926,135.883 -473.139,121.826 -430.003,-9.581 -300.01,-65.973 -90.662,-53.831 -60.441,-35.888 -30.221,-17.944 0,0"
         style="fill:#ffffff;fill-opacity:1;fill-rule:evenodd;stroke:none"
         transform="matrix(1.3333333,0,0,-1.3333333,714.22787,514.23053)"
         clip-path="url(#clipPath28)" />
      <path
         id="path29"
         d="M 0,0 C 64.708,-31.031 151.518,-42.976 259.402,-36.718 L 337.364,9.571 C 298.134,27.436 241.194,38.679 177.819,38.679 103.765,38.679 38.487,23.332 0,0"
         style="fill:#e4f6fc;fill-opacity:1;fill-rule:evenodd;stroke:none"
         transform="matrix(1.3333333,0,0,-1.3333333,247.47587,537.04813)"
         clip-path="url(#clipPath30)" />
      <path
         id="path31"
         d="m 0,0 c 57.029,-97.552 179.115,-138.917 361.336,-128.35 l 33.417,19.84 C 280.01,-40.887 117.026,-1.391 0,0"
         style="fill:#e83720;fill-opacity:1;fill-rule:evenodd;stroke:none"
         transform="matrix(1.3333333,0,0,-1.3333333,111.5632,414.87173)"
         clip-path="url(#clipPath32)" />
      <path
         id="path33"
         d="m 0,0 c 64.705,-31.033 151.505,-42.984 259.388,-36.727 l 33.417,19.84 C 256.419,4.559 215.176,23.169 172.09,38.638 100.41,37.872 37.497,22.725 0,0"
         style="fill:#cc2d23;fill-opacity:1;fill-rule:evenodd;stroke:none"
         transform="matrix(1.3333333,0,0,-1.3333333,247.49413,537.0364)"
         clip-path="url(#clipPath34)" />
      <path
         id="path35"
         d="m 0,0 c 2.729,-3.041 5.538,-6.013 8.44,-8.902 50.959,-4.119 106.087,-13.15 160.823,-26.736 57.046,-14.16 113.63,-33.266 164.577,-56.904 0.449,0.025 0.894,0.046 1.343,0.072 l 7.921,4.703 C 290.178,-62.649 230.946,-42.448 171.233,-27.627 112.825,-13.129 53.925,-3.776 0,0"
         style="fill:#ffffff;fill-opacity:1;fill-rule:evenodd;stroke:none"
         transform="matrix(1.3333333,0,0,-1.3333333,146.43427,462.71227)"
         clip-path="url(#clipPath36)" />
      <path
         id="path37"
         d="m 0,0 c 8.646,-1.916 17.298,-3.948 25.94,-6.093 57.047,-14.16 113.631,-33.266 164.578,-56.904 0.449,0.025 0.894,0.046 1.343,0.072 l 7.921,4.703 C 146.856,-33.105 87.624,-12.903 27.911,1.918 24.896,2.667 21.879,3.401 18.861,4.122 12.391,2.873 6.095,1.497 0,0"
         style="fill:#e4f6fc;fill-opacity:1;fill-rule:evenodd;stroke:none"
         transform="matrix(1.3333333,0,0,-1.3333333,337.53053,502.10547)"
         clip-path="url(#clipPath38)" />
      <path
         id="path39"
         d="m 0,0 c 26.605,48.406 77.861,81.995 133.078,75.334 40.168,-4.845 38.287,-39.945 3.959,-29.16 -29.254,9.19 -47.216,6.133 -64.936,-4.167 29.475,12.676 65.363,1.769 88.809,-18.117 22.524,-19.103 2.015,-38.204 -18.373,-18.187 -24.647,24.2 -41.613,23.887 -66.898,22.422 29.735,-1.973 49.372,-17.24 64.439,-38.521 4.644,-6.558 3.802,-13.954 -2.065,-18.133 -5.868,-4.181 -14.912,-3.83 -22.179,0.857 -2.874,1.856 -5.418,4.175 -7.533,6.905 C 83.614,11.106 57.075,20.622 0,0"
         style="fill:#8ddaf5;fill-opacity:1;fill-rule:evenodd;stroke:none"
         transform="matrix(1.3333333,0,0,-1.3333333,592.45187,586.05467)"
         clip-path="url(#clipPath40)" />
      <path
         id="path41"
         d="M 0,0 C 62.448,-0.134 122.242,-6.046 176.11,-24.859 122.092,-14.31 66.083,-8.094 5.629,-11.554 3.753,-7.703 1.876,-3.852 0,0"
         style="fill:#e83720;fill-opacity:1;fill-rule:evenodd;stroke:none"
         transform="matrix(1.3333333,0,0,-1.3333333,83.796267,369.23627)"
         clip-path="url(#clipPath42)" />
      <path
         id="path43"
         d="M 0,0 C 38.311,28.437 91.831,40.284 134.922,22.209 166.268,9.061 152.79,-15.748 128.261,0.27 107.354,13.921 91.562,16.04 73.505,12.89 c 28.52,2.033 54.289,-14.448 66.787,-34.399 12.008,-19.167 -11.331,-27.981 -21.274,-8.67 -12.017,23.344 -26.061,27.2 -47.328,32.228 23.754,-8.573 34.693,-24.284 39.835,-43.224 1.585,-5.837 -1.62,-10.956 -7.861,-12.554 -6.239,-1.598 -13.552,0.83 -17.926,5.953 -1.729,2.025 -3.031,4.306 -3.841,6.78 C 72.456,-12.118 53.892,1.113 0,0"
         style="fill:#ffffff;fill-opacity:1;fill-rule:evenodd;stroke:none"
         transform="matrix(1.3333333,0,0,-1.3333333,668.49093,555.19013)"
         clip-path="url(#clipPath44)" />
      <path
         id="path45"
         d="m 0,0 h 15.143 c 2.358,0 4.289,-1.93 4.289,-4.289 0,-2.359 -1.931,-4.289 -4.289,-4.289 H 0 c -2.359,0 -4.289,1.93 -4.289,4.289 C -4.289,-1.93 -2.359,0 0,0"
         style="fill:#f9de1c;fill-opacity:1;fill-rule:evenodd;stroke:none"
         transform="matrix(1.3333333,0,0,-1.3333333,466.36067,251.95773)"
         clip-path="url(#clipPath46)" />
      <path
         id="path47"
         d="m 0,0 v 0 c 2.538,0 4.401,-2.076 4.142,-4.614 l -1.277,-12.48 c -0.26,-2.538 -2.549,-4.613 -5.086,-4.613 h -10e-4 c -2.538,0 -4.401,2.075 -4.141,4.613 l 1.276,12.48 C -4.827,-2.076 -2.539,0 0,0"
         style="fill:#f9de1c;fill-opacity:1;fill-rule:evenodd;stroke:none"
         transform="matrix(1.3333333,0,0,-1.3333333,492.04427,257.91013)"
         clip-path="url(#clipPath48)" />
      <path
         id="path49"
         d="m 0,0 v 0 c 2.552,0 4.35,-2.087 3.996,-4.639 l -0.46,-3.328 c -0.353,-2.552 -2.73,-4.639 -5.282,-4.639 -2.552,0 -4.35,2.087 -3.995,4.639 l 0.46,3.328 C -4.928,-2.087 -2.552,0 0,0"
         style="fill:#f9de1c;fill-opacity:1;fill-rule:evenodd;stroke:none"
         transform="matrix(1.3333333,0,0,-1.3333333,486.72,257.79293)"
         clip-path="url(#clipPath50)" />
      <path
         id="path51"
         d="m 0,0 c 2.055,0 3.44,-1.754 3.095,-3.919 -0.344,-2.165 -2.288,-3.919 -4.342,-3.919 -2.054,0 -3.439,1.754 -3.096,3.919 C -3.998,-1.754 -2.054,0 0,0"
         style="fill:#f28f62;fill-opacity:1;fill-rule:evenodd;stroke:none"
         transform="matrix(1.3333333,0,0,-1.3333333,485.2604,268.86973)"
         clip-path="url(#clipPath52)" />
      <path
         id="path53"
         d="m 0,0 c 28.927,0 52.519,23.592 52.519,52.518 0,28.926 -23.592,52.518 -52.519,52.518 -28.926,0 -52.518,-23.592 -52.518,-52.518 C -52.518,23.592 -28.926,0 0,0"
         style="fill:#ffffff;fill-opacity:1;fill-rule:evenodd;stroke:none"
         transform="matrix(1.3333333,0,0,-1.3333333,726.8528,166.9948)"
         clip-path="url(#clipPath54)" />
      <path
         id="path55"
         d="m 0,89.226 h 659.629 v 3.716 H 0 Z"
         style="fill:#5bb9df;fill-opacity:1;fill-rule:evenodd;stroke:none"
         transform="matrix(1.3333333,0,0,-1.3333333,0,880)"
         clip-path="url(#clipPath56)" />
    </g>
  </g>
</svg>
