<?xml version="1.0" encoding="UTF-8" standalone="no"?>
<!-- Created with Inkscape (http://www.inkscape.org/) -->

<svg
   version="1.1"
   id="svg1"
   width="880"
   height="880"
   viewBox="0 0 880 880"
   sodipodi:docname="rural-landscape (2).svg"
   inkscape:version="1.3.2 (091e20e, 2023-11-25, custom)"
   xmlns:inkscape="http://www.inkscape.org/namespaces/inkscape"
   xmlns:sodipodi="http://sodipodi.sourceforge.net/DTD/sodipodi-0.dtd"
   xmlns="http://www.w3.org/2000/svg"
   xmlns:svg="http://www.w3.org/2000/svg">
  <defs
     id="defs1">
    <clipPath
       clipPathUnits="userSpaceOnUse"
       id="clipPath4">
      <path
         d="M 0,660 H 660 V 0 H 0 Z"
         transform="translate(-660.53612,-477.01711)"
         id="path4" />
    </clipPath>
    <clipPath
       clipPathUnits="userSpaceOnUse"
       id="clipPath6">
      <path
         d="M 0,660 H 660 V 0 H 0 Z"
         transform="translate(-660.53612,-297.0088)"
         id="path6" />
    </clipPath>
    <clipPath
       clipPathUnits="userSpaceOnUse"
       id="clipPath8">
      <path
         d="M 0,660 H 660 V 0 H 0 Z"
         transform="translate(-660.53612,-218.74021)"
         id="path8" />
    </clipPath>
    <clipPath
       clipPathUnits="userSpaceOnUse"
       id="clipPath10">
      <path
         d="M 0,660 H 660 V 0 H 0 Z"
         id="path10" />
    </clipPath>
    <clipPath
       clipPathUnits="userSpaceOnUse"
       id="clipPath12">
      <path
         d="M 0,660 H 660 V 0 H 0 Z"
         transform="translate(-660.53612,-144.291)"
         id="path12" />
    </clipPath>
    <clipPath
       clipPathUnits="userSpaceOnUse"
       id="clipPath14">
      <path
         d="M 0,660 H 660 V 0 H 0 Z"
         transform="translate(-1.2251001,-173.0869)"
         id="path14" />
    </clipPath>
    <clipPath
       clipPathUnits="userSpaceOnUse"
       id="clipPath16">
      <path
         d="M 0,660 H 660 V 0 H 0 Z"
         transform="translate(-1.2251001,-173.0869)"
         id="path16" />
    </clipPath>
    <clipPath
       clipPathUnits="userSpaceOnUse"
       id="clipPath18">
      <path
         d="M 0,660 H 660 V 0 H 0 Z"
         transform="translate(-613.06252,-72.884799)"
         id="path18" />
    </clipPath>
    <clipPath
       clipPathUnits="userSpaceOnUse"
       id="clipPath20">
      <path
         d="M 0,660 H 660 V 0 H 0 Z"
         transform="translate(-624.12791,-41.495101)"
         id="path20" />
    </clipPath>
    <clipPath
       clipPathUnits="userSpaceOnUse"
       id="clipPath22">
      <path
         d="M 0,660 H 660 V 0 H 0 Z"
         transform="translate(-187.021,-365.62551)"
         id="path22" />
    </clipPath>
    <clipPath
       clipPathUnits="userSpaceOnUse"
       id="clipPath24">
      <path
         d="M 0,660 H 660 V 0 H 0 Z"
         transform="translate(-170.09961,-433.64211)"
         id="path24" />
    </clipPath>
    <clipPath
       clipPathUnits="userSpaceOnUse"
       id="clipPath26">
      <path
         d="M 0,660 H 660 V 0 H 0 Z"
         transform="translate(-126.54441,-397.09521)"
         id="path26" />
    </clipPath>
    <clipPath
       clipPathUnits="userSpaceOnUse"
       id="clipPath28">
      <path
         d="M 0,660 H 660 V 0 H 0 Z"
         id="path28" />
    </clipPath>
    <clipPath
       clipPathUnits="userSpaceOnUse"
       id="clipPath30">
      <path
         d="M 0,660 H 660 V 0 H 0 Z"
         id="path30" />
    </clipPath>
    <clipPath
       clipPathUnits="userSpaceOnUse"
       id="clipPath32">
      <path
         d="M 0,660 H 660 V 0 H 0 Z"
         id="path32" />
    </clipPath>
    <clipPath
       clipPathUnits="userSpaceOnUse"
       id="clipPath34">
      <path
         d="M 0,660 H 660 V 0 H 0 Z"
         id="path34" />
    </clipPath>
    <clipPath
       clipPathUnits="userSpaceOnUse"
       id="clipPath36">
      <path
         d="M 0,660 H 660 V 0 H 0 Z"
         transform="translate(-398.05371,-375.83691)"
         id="path36" />
    </clipPath>
    <clipPath
       clipPathUnits="userSpaceOnUse"
       id="clipPath38">
      <path
         d="M 0,660 H 660 V 0 H 0 Z"
         transform="translate(-381.13181,-443.85301)"
         id="path38" />
    </clipPath>
    <clipPath
       clipPathUnits="userSpaceOnUse"
       id="clipPath40">
      <path
         d="M 0,660 H 660 V 0 H 0 Z"
         transform="translate(-337.57711,-407.30661)"
         id="path40" />
    </clipPath>
    <clipPath
       clipPathUnits="userSpaceOnUse"
       id="clipPath42">
      <path
         d="M 0,660 H 660 V 0 H 0 Z"
         id="path42" />
    </clipPath>
    <clipPath
       clipPathUnits="userSpaceOnUse"
       id="clipPath44">
      <path
         d="M 0,660 H 660 V 0 H 0 Z"
         id="path44" />
    </clipPath>
    <clipPath
       clipPathUnits="userSpaceOnUse"
       id="clipPath46">
      <path
         d="M 0,660 H 660 V 0 H 0 Z"
         id="path46" />
    </clipPath>
    <clipPath
       clipPathUnits="userSpaceOnUse"
       id="clipPath48">
      <path
         d="M 0,660 H 660 V 0 H 0 Z"
         id="path48" />
    </clipPath>
    <clipPath
       clipPathUnits="userSpaceOnUse"
       id="clipPath50">
      <path
         d="M 0,660 H 660 V 0 H 0 Z"
         transform="translate(-534.43162,-214.4434)"
         id="path50" />
    </clipPath>
    <clipPath
       clipPathUnits="userSpaceOnUse"
       id="clipPath52">
      <path
         d="M 0,660 H 660 V 0 H 0 Z"
         transform="translate(-502.00681,-180.17091)"
         id="path52" />
    </clipPath>
    <clipPath
       clipPathUnits="userSpaceOnUse"
       id="clipPath54">
      <path
         d="M 0,660 H 660 V 0 H 0 Z"
         transform="translate(-434.44531,-214.4434)"
         id="path54" />
    </clipPath>
    <clipPath
       clipPathUnits="userSpaceOnUse"
       id="clipPath56">
      <path
         d="M 0,660 H 660 V 0 H 0 Z"
         transform="translate(-463.42191,-180.17091)"
         id="path56" />
    </clipPath>
    <clipPath
       clipPathUnits="userSpaceOnUse"
       id="clipPath58">
      <path
         d="M 0,660 H 660 V 0 H 0 Z"
         id="path58" />
    </clipPath>
    <clipPath
       clipPathUnits="userSpaceOnUse"
       id="clipPath60">
      <path
         d="M 0,660 H 660 V 0 H 0 Z"
         id="path60" />
    </clipPath>
    <clipPath
       clipPathUnits="userSpaceOnUse"
       id="clipPath62">
      <path
         d="M 0,660 H 660 V 0 H 0 Z"
         id="path62" />
    </clipPath>
    <clipPath
       clipPathUnits="userSpaceOnUse"
       id="clipPath64">
      <path
         d="M 0,660 H 660 V 0 H 0 Z"
         transform="translate(-101.00931,-476.82961)"
         id="path64" />
    </clipPath>
  </defs>
  <sodipodi:namedview
     id="namedview1"
     pagecolor="#ffffff"
     bordercolor="#000000"
     borderopacity="0.25"
     inkscape:showpageshadow="2"
     inkscape:pageopacity="0.0"
     inkscape:pagecheckerboard="0"
     inkscape:deskcolor="#d1d1d1"
     inkscape:zoom="0.67272727"
     inkscape:cx="439.25676"
     inkscape:cy="440"
     inkscape:window-width="1440"
     inkscape:window-height="830"
     inkscape:window-x="-6"
     inkscape:window-y="-6"
     inkscape:window-maximized="1"
     inkscape:current-layer="g1">
    <inkscape:page
       x="0"
       y="0"
       inkscape:label="1"
       id="page1"
       width="880"
       height="880"
       margin="0.46091732 0 0.45733333 1.6327866"
       bleed="0" />
  </sodipodi:namedview>
  <g
     id="g1"
     inkscape:groupmode="layer"
     inkscape:label="1">
    <g
       id="group-MC0">
      <path
         id="path2"
         d="M 1.225,0.346 H 660 V 659.657 H 1.225 Z"
         style="fill:#f2e9c4;fill-opacity:1;fill-rule:nonzero;stroke:none"
         transform="matrix(1.3333333,0,0,-1.3333333,0,880)" />
      <path
         id="path3"
         d="m 0,0 v -243.809 c -9.266,-4.427 -19.638,-6.906 -30.59,-6.906 -0.632,0 -1.262,0.008 -1.89,0.025 -13.759,-13.192 -32.43,-21.299 -52.995,-21.299 -18.736,0 -35.895,6.732 -49.204,17.903 -12.709,-10.642 -29.081,-17.052 -46.952,-17.052 -17.647,0 -33.837,6.249 -46.476,16.653 -14.577,-14.143 -34.453,-22.852 -56.365,-22.852 -25.796,0 -48.772,12.066 -63.598,30.859 -7.834,-2.741 -16.252,-4.237 -25.022,-4.237 -7.484,0 -14.714,1.092 -21.543,3.113 -15.171,-12.572 -34.648,-20.132 -55.891,-20.132 -19.782,0 -38.03,6.557 -52.698,17.609 -14.31,-14.828 -34.387,-24.051 -56.622,-24.051 -42.683,0 -77.425,33.984 -78.65,76.37 -2.179,-0.358 -4.417,-0.545 -6.698,-0.545 -4.961,0 -9.715,0.881 -14.117,2.492 v 132.06 c 3.837,1.29 7.946,1.991 12.219,1.991 20.371,0 37.024,-15.908 38.221,-35.98 2.74,0.713 5.616,1.092 8.58,1.092 5.515,0 10.722,-1.313 15.33,-3.641 0.552,25.603 21.478,46.188 47.214,46.188 4.521,0 8.893,-0.637 13.033,-1.823 3.767,21.346 22.405,37.562 44.831,37.562 13.701,0 25.987,-6.053 34.333,-15.63 10.282,17.271 29.02,28.922 50.504,29.238 -0.111,1.406 -0.169,2.827 -0.169,4.262 0,29.607 24.001,53.608 53.608,53.608 29.607,0 53.609,-24.001 53.609,-53.608 0,-6.628 -1.205,-12.973 -3.404,-18.832 30.45,-6.828 53.867,-32.262 57.691,-63.74 2.947,0.576 5.991,0.882 9.108,0.882 1.88,0 3.734,-0.114 5.556,-0.328 6.09,23.677 27.581,41.173 53.159,41.173 6.486,0 12.707,-1.129 18.484,-3.194 9.433,11.8 23.948,19.361 40.229,19.361 23.285,0 42.956,-15.459 49.318,-36.673 8.375,8.275 18.711,14.569 30.249,18.121 l -0.003,0.257 C -27.611,-24.28 -16.316,-7.688 0,0"
         style="fill:#fdfaf0;fill-opacity:1;fill-rule:evenodd;stroke:none"
         transform="matrix(1.3333333,0,0,-1.3333333,880.7148,243.9772)"
         clip-path="url(#clipPath4)" />
      <path
         id="path5"
         d="m 0,0 v -204.829 c -21.167,3.275 -38.308,18.739 -44.023,38.994 -6.448,3.323 -11.946,8.229 -15.982,14.203 -4.639,-2.076 -9.782,-3.232 -15.195,-3.232 -3.563,0 -7.009,0.503 -10.271,1.436 -6.756,-18.938 -24.844,-32.494 -46.104,-32.494 -19.383,0 -36.133,11.27 -44.059,27.612 -0.195,-0.022 -0.393,-0.044 -0.591,-0.062 0.048,-0.959 0.073,-1.923 0.073,-2.894 0,-32.095 -26.019,-58.114 -58.115,-58.114 -20.708,0 -38.882,10.832 -49.176,27.137 -3.246,-0.566 -6.587,-0.859 -9.995,-0.859 -29.746,0 -54.257,22.389 -57.612,51.235 -6.261,-3.222 -13.205,-5.306 -20.558,-5.977 -11.482,-28.095 -39.08,-47.895 -71.306,-47.895 -28.847,0 -53.985,15.865 -67.176,39.344 -9.844,-6.096 -21.449,-9.617 -33.879,-9.617 -16.34,0 -31.257,6.083 -42.618,16.104 -11.265,-10.268 -26.246,-16.528 -42.689,-16.528 -10.868,0 -21.095,2.736 -30.035,7.554 V -1.101 c 6.021,5.145 13.835,8.254 22.377,8.254 15.315,0 28.295,-9.991 32.782,-23.81 3.269,1.359 6.854,2.111 10.615,2.111 0.48,0 0.957,-0.012 1.431,-0.036 5.237,9.172 15.11,15.353 26.426,15.353 0.375,0 0.747,-0.009 1.118,-0.022 0.874,17.078 14.998,30.656 32.293,30.656 11.651,0 21.863,-6.164 27.554,-15.409 2.801,0.956 5.804,1.474 8.929,1.474 15.274,0 27.655,-12.382 27.655,-27.656 0,-4.603 -1.126,-8.945 -3.117,-12.763 5.94,4.537 13.361,7.233 21.414,7.233 2.196,0 4.346,-0.202 6.432,-0.586 3.809,17.368 19.282,30.368 37.794,30.368 18.913,0 34.655,-13.568 38.026,-31.501 2.861,1.108 5.971,1.719 9.224,1.719 13.843,0 25.112,-11.018 25.514,-24.764 3.062,-1.436 5.823,-3.408 8.16,-5.795 4.348,2.13 9.236,3.329 14.403,3.329 1.313,0 2.608,-0.079 3.882,-0.23 -0.034,0.64 -0.053,1.283 -0.053,1.932 0,20.209 16.382,36.59 36.591,36.59 3.161,0 6.229,-0.402 9.155,-1.156 4.674,16.388 19.759,28.386 37.646,28.386 21.618,0 39.142,-17.524 39.142,-39.143 0,-2.117 -0.17,-4.195 -0.494,-6.221 3.56,1.273 7.395,1.966 11.392,1.966 10.846,0 20.502,-5.097 26.701,-13.025 6.282,3.421 13.484,5.368 21.14,5.368 1.115,0 2.22,-0.042 3.314,-0.124 4.444,13.891 17.461,23.949 32.827,23.949 18.15,0 33.02,-14.029 34.364,-31.835 2.928,0.784 6.005,1.202 9.183,1.202 6.48,0 12.555,-1.739 17.781,-4.776 3.711,3.401 8.05,6.124 12.824,7.978 -0.357,1.856 -0.546,3.773 -0.546,5.732 0,11.316 6.223,21.177 15.432,26.353"
         style="fill:#769a2a;fill-opacity:1;fill-rule:evenodd;stroke:none"
         transform="matrix(1.3333333,0,0,-1.3333333,880.7148,483.98827)"
         clip-path="url(#clipPath6)" />
      <path
         id="path7"
         d="m 0,0 v -126.56 c -21.167,3.275 -38.308,18.739 -44.023,38.994 -6.448,3.323 -11.946,8.228 -15.982,14.203 -4.639,-2.076 -9.782,-3.233 -15.195,-3.233 -3.563,0 -7.009,0.503 -10.271,1.437 -6.756,-18.939 -24.844,-32.494 -46.104,-32.494 -19.383,0 -36.133,11.269 -44.059,27.612 -0.195,-0.022 -0.393,-0.045 -0.591,-0.062 0.048,-0.959 0.073,-1.923 0.073,-2.894 0,-32.096 -26.019,-58.114 -58.115,-58.114 -20.708,0 -38.882,10.832 -49.176,27.136 -3.246,-0.565 -6.587,-0.859 -9.995,-0.859 -29.746,0 -54.257,22.39 -57.612,51.235 -6.261,-3.221 -13.205,-5.305 -20.558,-5.976 -11.482,-28.096 -39.08,-47.896 -71.306,-47.896 -28.847,0 -53.985,15.866 -67.176,39.344 -9.844,-6.096 -21.449,-9.616 -33.879,-9.616 -16.34,0 -31.257,6.083 -42.618,16.103 -11.265,-10.267 -26.246,-16.528 -42.689,-16.528 -10.868,0 -21.095,2.736 -30.035,7.555 v 39.315 c 5.533,1.576 11.374,2.421 17.412,2.421 16.444,0 31.424,-6.26 42.69,-16.528 11.361,10.021 26.278,16.104 42.617,16.104 12.429,0 24.035,-3.521 33.88,-9.616 13.191,23.478 38.328,39.344 67.175,39.344 32.227,0 59.824,-19.8 71.306,-47.896 7.353,-0.67 14.297,-2.755 20.559,-5.977 3.354,28.845 27.865,51.236 57.611,51.236 3.409,0 6.749,-0.295 9.997,-0.859 10.293,16.304 28.466,27.136 49.173,27.136 32.098,0 58.116,-26.02 58.116,-58.115 0,-0.969 -0.025,-1.933 -0.072,-2.892 0.197,-0.02 0.395,-0.04 0.59,-0.064 7.926,16.345 24.676,27.614 44.059,27.614 21.26,0 39.349,-13.556 46.105,-32.496 3.263,0.935 6.707,1.437 10.271,1.437 5.413,0 10.555,-1.155 15.196,-3.234 4.034,5.976 9.533,10.882 15.98,14.206 C -50.19,-16.604 -29.168,0.16 -4.229,0.16 -2.806,0.16 -1.396,0.105 0,0"
         style="fill:#5f7d29;fill-opacity:1;fill-rule:evenodd;stroke:none"
         transform="matrix(1.3333333,0,0,-1.3333333,880.7148,588.3464)"
         clip-path="url(#clipPath8)" />
      <path
         id="path9"
         d="M 28.604,0.346 H 660.537 V 155.354 H 28.604 Z"
         style="fill:#87b027;fill-opacity:1;fill-rule:evenodd;stroke:none"
         transform="matrix(1.3333333,0,0,-1.3333333,0,880)"
         clip-path="url(#clipPath10)" />
      <path
         id="path11"
         d="m 0,0 -616.191,-22.974 34.039,34.037 H 0 Z"
         style="fill:#9ac421;fill-opacity:1;fill-rule:evenodd;stroke:none"
         transform="matrix(1.3333333,0,0,-1.3333333,880.7148,687.612)"
         clip-path="url(#clipPath12)" />
      <path
         id="path13"
         d="m 0,0 659.311,-107.977 v -64.764 l -659.311,0 z"
         style="fill:#f39c0f;fill-opacity:1;fill-rule:evenodd;stroke:none"
         transform="matrix(1.3333333,0,0,-1.3333333,1.6334667,649.21747)"
         clip-path="url(#clipPath14)" />
      <path
         id="path15"
         d="m 0,0 659.311,-107.977 v -28.287 L 0,-51.689 Z"
         style="fill:#fab40a;fill-opacity:1;fill-rule:evenodd;stroke:none"
         transform="matrix(1.3333333,0,0,-1.3333333,1.6334667,649.21747)"
         clip-path="url(#clipPath16)" />
      <path
         id="path17"
         d="M 0,0 47.474,-7.775 V -72.539 H 25.57 Z m -126.413,20.702 63.398,-10.383 29.208,-82.858 h -59.739 z m -126.413,20.703 63.399,-10.384 36.504,-103.56 h -59.737 z m -126.412,20.703 63.398,-10.383 43.802,-124.264 h -59.738 z m -126.414,20.704 63.398,-10.383 51.101,-144.968 h -59.739 z m -106.185,17.39 43.17,-7.07 58.398,-165.671 h -59.737 l -41.831,118.67 z"
         style="fill:#fab40a;fill-opacity:1;fill-rule:evenodd;stroke:none"
         transform="matrix(1.3333333,0,0,-1.3333333,817.41667,782.82027)"
         clip-path="url(#clipPath18)" />
      <path
         id="path19"
         d="m 0,0 36.408,-4.672 v 28.286 l -47.473,7.776 z m -124.756,16.002 62.568,-8.026 -11.892,33.733 -63.398,10.383 z m -124.757,16.004 62.568,-8.026 -13.547,38.431 -63.4,10.384 z m -124.756,16.003 62.566,-8.026 -15.202,43.131 -63.399,10.384 z m -124.757,16.002 62.568,-8.026 -16.861,47.833 -63.398,10.384 z m -123.877,67.581 43.171,-7.071 18.517,-52.533 -61.688,7.914 z"
         style="fill:#fbca07;fill-opacity:1;fill-rule:evenodd;stroke:none"
         transform="matrix(1.3333333,0,0,-1.3333333,832.17053,824.6732)"
         clip-path="url(#clipPath20)" />
      <path
         id="path21"
         d="M 0,0 -5.774,-194.102 H 16.607 L 10.832,0 Z m -2.964,0 h 16.761 l 8.935,-197.508 h -34.631 z"
         style="fill:#5f7d29;fill-opacity:1;fill-rule:evenodd;stroke:none"
         transform="matrix(1.3333333,0,0,-1.3333333,249.36133,392.49933)"
         clip-path="url(#clipPath22)" />
      <path
         id="path23"
         d="m 0,0 18.012,-11.793 7.158,-54.76 68.015,18.042 -11.791,-18.012 -54.761,-7.158 18.042,-68.016 -18.011,11.793 -7.159,54.761 -68.016,-18.043 11.793,18.012 54.76,7.158 z"
         style="fill:#5f7d29;fill-opacity:1;fill-rule:evenodd;stroke:none"
         transform="matrix(1.3333333,0,0,-1.3333333,226.79947,301.81053)"
         clip-path="url(#clipPath24)" />
      <path
         id="path25"
         d="m 0,0 21.075,4.398 43.783,-33.66 35.337,60.853 4.398,-21.075 -33.66,-43.783 60.852,-35.336 -21.074,-4.399 -43.784,33.661 -35.336,-60.854 -4.398,21.075 33.66,43.784 z"
         style="fill:#5f7d29;fill-opacity:1;fill-rule:evenodd;stroke:none"
         transform="matrix(1.3333333,0,0,-1.3333333,168.72587,350.53973)"
         clip-path="url(#clipPath26)" />
      <path
         id="path27"
         d="m 179.987,327.51 h 24.9 v 3.5 h -24.9 z"
         style="fill:#5f7d29;fill-opacity:1;fill-rule:evenodd;stroke:none"
         transform="matrix(1.3333333,0,0,-1.3333333,0,880)"
         clip-path="url(#clipPath28)" />
      <path
         id="path29"
         d="m 178.102,299.937 h 28.67 v -3.5 h -28.67 z"
         style="fill:#5f7d29;fill-opacity:1;fill-rule:evenodd;stroke:none"
         transform="matrix(1.3333333,0,0,-1.3333333,0,880)"
         clip-path="url(#clipPath30)" />
      <path
         id="path31"
         d="m 176.217,268.867 h 32.441 v -3.5 h -32.441 z"
         style="fill:#5f7d29;fill-opacity:1;fill-rule:evenodd;stroke:none"
         transform="matrix(1.3333333,0,0,-1.3333333,0,880)"
         clip-path="url(#clipPath32)" />
      <path
         id="path33"
         d="m 174.332,234.296 h 36.211 v 3.5 h -36.211 z"
         style="fill:#5f7d29;fill-opacity:1;fill-rule:evenodd;stroke:none"
         transform="matrix(1.3333333,0,0,-1.3333333,0,880)"
         clip-path="url(#clipPath34)" />
      <path
         id="path35"
         d="M 0,0 -5.774,-194.102 H 16.605 L 10.832,0 Z m -2.964,0 h 16.76 l 8.936,-197.508 H -11.9 Z"
         style="fill:#5f7d29;fill-opacity:1;fill-rule:evenodd;stroke:none"
         transform="matrix(1.3333333,0,0,-1.3333333,530.73827,378.88413)"
         clip-path="url(#clipPath36)" />
      <path
         id="path37"
         d="m 0,0 18.012,-11.793 7.159,-54.76 68.015,18.042 -11.793,-18.011 -54.76,-7.159 18.043,-68.016 -18.012,11.793 -7.159,54.76 -68.016,-18.042 11.793,18.012 54.76,7.158 z"
         style="fill:#5f7d29;fill-opacity:1;fill-rule:evenodd;stroke:none"
         transform="matrix(1.3333333,0,0,-1.3333333,508.17573,288.196)"
         clip-path="url(#clipPath38)" />
      <path
         id="path39"
         d="m 0,0 21.075,4.398 43.782,-33.66 35.336,60.853 4.4,-21.075 -33.661,-43.783 60.853,-35.337 -21.075,-4.398 -43.783,33.66 -35.337,-60.853 -4.398,21.076 33.66,43.783 z"
         style="fill:#5f7d29;fill-opacity:1;fill-rule:evenodd;stroke:none"
         transform="matrix(1.3333333,0,0,-1.3333333,450.1028,336.92453)"
         clip-path="url(#clipPath40)" />
      <path
         id="path41"
         d="m 391.02,337.721 h 24.9 v 3.499 h -24.9 z"
         style="fill:#5f7d29;fill-opacity:1;fill-rule:evenodd;stroke:none"
         transform="matrix(1.3333333,0,0,-1.3333333,0,880)"
         clip-path="url(#clipPath42)" />
      <path
         id="path43"
         d="m 389.134,310.149 h 28.671 v -3.499 h -28.671 z"
         style="fill:#5f7d29;fill-opacity:1;fill-rule:evenodd;stroke:none"
         transform="matrix(1.3333333,0,0,-1.3333333,0,880)"
         clip-path="url(#clipPath44)" />
      <path
         id="path45"
         d="m 387.249,279.078 h 32.44 v -3.5 h -32.44 z"
         style="fill:#5f7d29;fill-opacity:1;fill-rule:evenodd;stroke:none"
         transform="matrix(1.3333333,0,0,-1.3333333,0,880)"
         clip-path="url(#clipPath46)" />
      <path
         id="path47"
         d="m 385.364,244.508 h 36.211 v 3.5 h -36.211 z"
         style="fill:#5f7d29;fill-opacity:1;fill-rule:evenodd;stroke:none"
         transform="matrix(1.3333333,0,0,-1.3333333,0,880)"
         clip-path="url(#clipPath48)" />
      <path
         id="path49"
         d="M 0,0 32.547,-32.548 V -59.09 H -97.219 L -99.986,0 Z"
         style="fill:#ef6d17;fill-opacity:1;fill-rule:evenodd;stroke:none"
         transform="matrix(1.3333333,0,0,-1.3333333,712.57547,594.07547)"
         clip-path="url(#clipPath50)" />
      <path
         id="path51"
         d="M 0,0 35.997,35.997 H -74.582 L -110.578,0 Z"
         style="fill:#f7e4c7;fill-opacity:1;fill-rule:evenodd;stroke:none"
         transform="matrix(1.3333333,0,0,-1.3333333,669.3424,639.77213)"
         clip-path="url(#clipPath52)" />
      <path
         id="path53"
         d="M 0,0 32.549,-32.548 V -59.09 h -65.096 v 26.542 z"
         style="fill:#f68413;fill-opacity:1;fill-rule:evenodd;stroke:none"
         transform="matrix(1.3333333,0,0,-1.3333333,579.2604,594.07547)"
         clip-path="url(#clipPath54)" />
      <path
         id="path55"
         d="M 0,0 -35.997,35.997 H 74.582 L 110.577,0 Z"
         style="fill:#ffffff;fill-opacity:1;fill-rule:evenodd;stroke:none"
         transform="matrix(1.3333333,0,0,-1.3333333,617.89587,639.77213)"
         clip-path="url(#clipPath56)" />
      <path
         id="path57"
         d="m 419.502,155.354 h 29.889 v 24.817 h -29.889 z"
         style="fill:#f7e4c7;fill-opacity:1;fill-rule:evenodd;stroke:none"
         transform="matrix(1.3333333,0,0,-1.3333333,0,880)"
         clip-path="url(#clipPath58)" />
      <path
         id="path59"
         d="m 420.782,155.354 h 27.326 v 23.536 h -27.326 z"
         style="fill:#ef6d17;fill-opacity:1;fill-rule:evenodd;stroke:none"
         transform="matrix(1.3333333,0,0,-1.3333333,0,880)"
         clip-path="url(#clipPath60)" />
      <path
         id="path61"
         d="m 434.02,155.354 h 0.852 v 24.202 h -0.852 z"
         style="fill:#f7e4c7;fill-opacity:1;fill-rule:evenodd;stroke:none"
         transform="matrix(1.3333333,0,0,-1.3333333,0,880)"
         clip-path="url(#clipPath62)" />
      <path
         id="path63"
         d="m 0,0 c 35.151,0 63.82,28.669 63.82,63.82 0,35.151 -28.669,63.82 -63.82,63.82 -35.151,0 -63.82,-28.669 -63.82,-63.82 C -63.82,28.669 -35.151,0 0,0"
         style="fill:#f9de1c;fill-opacity:1;fill-rule:evenodd;stroke:none"
         transform="matrix(1.3333333,0,0,-1.3333333,134.67907,244.2272)"
         clip-path="url(#clipPath64)" />
    </g>
  </g>
</svg>
