<?xml version="1.0" encoding="UTF-8" standalone="no"?>
<!-- Created with Inkscape (http://www.inkscape.org/) -->

<svg
   version="1.1"
   id="svg1"
   width="880"
   height="880"
   viewBox="0 0 880 880"
   sodipodi:docname="blue-ocean.svg"
   inkscape:version="1.3.2 (091e20e, 2023-11-25, custom)"
   xmlns:inkscape="http://www.inkscape.org/namespaces/inkscape"
   xmlns:sodipodi="http://sodipodi.sourceforge.net/DTD/sodipodi-0.dtd"
   xmlns="http://www.w3.org/2000/svg"
   xmlns:svg="http://www.w3.org/2000/svg">
  <defs
     id="defs1">
    <clipPath
       clipPathUnits="userSpaceOnUse"
       id="clipPath4">
      <path
         d="M 0,660 H 660 V 0 H 0 Z"
         transform="translate(-171.2451,-347.85301)"
         id="path4" />
    </clipPath>
    <clipPath
       clipPathUnits="userSpaceOnUse"
       id="clipPath6">
      <path
         d="M 0,660 H 660 V 0 H 0 Z"
         id="path6" />
    </clipPath>
    <clipPath
       clipPathUnits="userSpaceOnUse"
       id="clipPath8">
      <path
         d="M 0,660 H 660 V 0 H 0 Z"
         transform="translate(-171.2451,-311.26861)"
         id="path8" />
    </clipPath>
    <clipPath
       clipPathUnits="userSpaceOnUse"
       id="clipPath10">
      <path
         d="M 0,660 H 660 V 0 H 0 Z"
         transform="translate(-328.63331,-394.13961)"
         id="path10" />
    </clipPath>
    <clipPath
       clipPathUnits="userSpaceOnUse"
       id="clipPath12">
      <path
         d="M 0,660 H 660 V 0 H 0 Z"
         transform="translate(-328.63331,-565.63672)"
         id="path12" />
    </clipPath>
    <clipPath
       clipPathUnits="userSpaceOnUse"
       id="clipPath14">
      <path
         d="M 0,660 H 660 V 0 H 0 Z"
         transform="translate(-328.63331,-544.83502)"
         id="path14" />
    </clipPath>
    <clipPath
       clipPathUnits="userSpaceOnUse"
       id="clipPath16">
      <path
         d="M 0,660 H 660 V 0 H 0 Z"
         transform="translate(-328.63331,-456.54591)"
         id="path16" />
    </clipPath>
    <clipPath
       clipPathUnits="userSpaceOnUse"
       id="clipPath18">
      <path
         d="M 0,660 H 660 V 0 H 0 Z"
         transform="translate(-340.29591,-305.97171)"
         id="path18" />
    </clipPath>
    <clipPath
       clipPathUnits="userSpaceOnUse"
       id="clipPath20">
      <path
         d="M 0,660 H 660 V 0 H 0 Z"
         transform="translate(-174.56301,-308.43751)"
         id="path20" />
    </clipPath>
  </defs>
  <sodipodi:namedview
     id="namedview1"
     pagecolor="#ffffff"
     bordercolor="#000000"
     borderopacity="0.25"
     inkscape:showpageshadow="2"
     inkscape:pageopacity="0.0"
     inkscape:pagecheckerboard="0"
     inkscape:deskcolor="#d1d1d1"
     inkscape:zoom="0.67272727"
     inkscape:cx="439.25676"
     inkscape:cy="440"
     inkscape:window-width="1440"
     inkscape:window-height="830"
     inkscape:window-x="-6"
     inkscape:window-y="-6"
     inkscape:window-maximized="1"
     inkscape:current-layer="g1">
    <inkscape:page
       x="0"
       y="0"
       inkscape:label="1"
       id="page1"
       width="880"
       height="880"
       margin="0 2.4093332 1.1706667 0"
       bleed="0" />
  </sodipodi:namedview>
  <g
     id="g1"
     inkscape:groupmode="layer"
     inkscape:label="1">
    <g
       id="group-MC0">
      <path
         id="path2"
         d="M 0,0 H 658.193 V 659.122 H 0 Z"
         style="fill:#4ba5ce;fill-opacity:1;fill-rule:nonzero;stroke:none"
         transform="matrix(1.3333333,0,0,-1.3333333,0,880)" />
      <path
         id="path3"
         d="M 0,0 C 10.853,0 19.854,-7.918 21.545,-18.293 H -172.172 V 2.934 c 5.86,-0.11 11.12,-2.67 14.8,-6.7 3.952,8.896 12.864,15.101 23.226,15.101 9.086,0 17.056,-4.771 21.546,-11.945 -2.577,7.372 -8.457,13.194 -15.866,15.691 3.855,6.077 10.642,10.111 18.371,10.111 10.319,0 18.96,-7.189 21.186,-16.833 13.526,-0.321 25.007,-8.902 29.596,-20.893 -0.104,4.816 -1.255,9.372 -3.233,13.454 5.217,9.463 15.288,15.874 26.858,15.874 12.488,0 23.231,-7.47 28.007,-18.186 C -5.291,-0.493 -2.703,0 0,0 m 88.171,3.778 c 11.191,0 20.335,-8.756 20.959,-19.79 0.635,2.005 0.979,4.14 0.979,6.355 0,1.052 -0.078,2.086 -0.228,3.096 1.219,0.317 2.495,0.486 3.813,0.486 7.357,0 13.484,-5.256 14.837,-12.218 H 45.109 c 3.414,5.201 9.296,8.635 15.981,8.635 2.481,0 4.851,-0.472 7.027,-1.334 2.651,8.556 10.627,14.77 20.054,14.77 m 352.677,1.281 c 5.734,0 11.005,-1.991 15.157,-5.319 -0.02,0.435 -0.03,0.871 -0.03,1.309 0,15.653 12.688,28.341 28.34,28.341 0.889,0 1.766,-0.043 2.633,-0.123 v -47.56 H 146.633 c 1.155,13.309 12.324,23.751 25.932,23.751 11.472,0 21.21,-7.423 24.677,-17.726 2.938,2.418 6.698,3.871 10.8,3.871 2.238,0 4.373,-0.434 6.328,-1.218 1.767,13.249 13.11,23.47 26.842,23.47 2.429,0 4.782,-0.32 7.022,-0.919 1.019,11.11 10.362,19.813 21.739,19.813 12.058,0 21.833,-9.775 21.833,-21.833 0,-1.585 -0.17,-3.13 -0.492,-4.62 2.299,3.458 3.642,7.609 3.642,12.073 0,1.251 -0.109,2.476 -0.311,3.67 0.103,10e-4 0.207,0.003 0.311,0.003 12.574,0 22.941,-9.451 24.385,-21.638 2.215,0.824 4.606,1.275 7.104,1.275 10.268,0 18.758,-7.597 20.16,-17.474 0.306,1.403 0.467,2.859 0.467,4.353 0,2.319 -0.387,4.546 -1.104,6.623 3.385,2.317 7.473,3.673 11.883,3.673 6.287,0 11.931,-2.759 15.789,-7.131 2.858,11.273 13.071,19.612 25.232,19.612 14.378,0 26.031,-11.654 26.031,-26.03 v -0.046 c 0.965,2.721 1.49,5.65 1.49,8.701 0,2.001 -0.227,3.949 -0.654,5.82 4.145,3.304 9.396,5.279 15.109,5.279"
         style="fill:#ffffff;fill-opacity:1;fill-rule:evenodd;stroke:none"
         transform="matrix(1.3333333,0,0,-1.3333333,228.3268,416.196)"
         clip-path="url(#clipPath4)" />
      <path
         id="path5"
         d="M -0.928,0 H 658.193 V 329.561 H -0.928 Z"
         style="fill:#3c8db7;fill-opacity:1;fill-rule:evenodd;stroke:none"
         transform="matrix(1.3333333,0,0,-1.3333333,0,880)"
         clip-path="url(#clipPath6)" />
      <path
         id="path7"
         d="M 0,0 C 10.853,0 19.854,7.918 21.545,18.292 H -172.172 V -2.934 c 5.86,0.11 11.12,2.67 14.8,6.699 3.952,-8.897 12.864,-15.102 23.226,-15.102 9.086,0 17.056,4.773 21.546,11.946 -2.577,-7.372 -8.457,-13.193 -15.866,-15.69 3.855,-6.077 10.642,-10.111 18.371,-10.111 10.319,0 18.96,7.188 21.186,16.833 13.526,0.321 25.007,8.902 29.596,20.892 -0.104,-4.815 -1.255,-9.372 -3.233,-13.454 5.217,-9.462 15.288,-15.874 26.858,-15.874 12.488,0 23.231,7.471 28.007,18.186 C -5.291,0.493 -2.703,0 0,0 m 88.171,-3.779 c 11.191,0 20.335,8.756 20.959,19.791 0.635,-2.005 0.979,-4.14 0.979,-6.356 0,-1.052 -0.078,-2.085 -0.228,-3.095 1.219,-0.317 2.495,-0.486 3.813,-0.486 7.357,0 13.484,5.256 14.837,12.217 H 45.109 c 3.414,-5.2 9.296,-8.636 15.981,-8.636 2.481,0 4.851,0.474 7.027,1.334 2.651,-8.555 10.627,-14.769 20.054,-14.769 m 352.677,-1.28 c 5.734,0 11.005,1.991 15.157,5.318 -0.02,-0.434 -0.03,-0.87 -0.03,-1.309 0,-15.652 12.688,-28.34 28.34,-28.34 0.889,0 1.766,0.042 2.633,0.123 V 18.292 H 146.633 c 1.155,-13.309 12.324,-23.75 25.932,-23.75 11.472,0 21.21,7.422 24.677,17.726 2.938,-2.418 6.698,-3.871 10.8,-3.871 2.238,0 4.373,0.433 6.328,1.218 1.767,-13.249 13.11,-23.47 26.842,-23.47 2.429,0 4.782,0.321 7.022,0.919 1.019,-11.111 10.362,-19.813 21.739,-19.813 12.058,0 21.833,9.774 21.833,21.832 0,1.586 -0.17,3.131 -0.492,4.62 2.299,-3.457 3.642,-7.609 3.642,-12.073 0,-1.249 -0.109,-2.477 -0.311,-3.668 0.103,-0.003 0.207,-0.006 0.311,-0.006 12.574,0 22.941,9.453 24.385,21.64 2.215,-0.825 4.606,-1.275 7.104,-1.275 10.268,0 18.758,7.596 20.16,17.474 0.306,-1.403 0.467,-2.859 0.467,-4.354 0,-2.319 -0.387,-4.545 -1.104,-6.623 3.385,-2.316 7.473,-3.672 11.883,-3.672 6.287,0 11.931,2.758 15.789,7.13 2.858,-11.272 13.071,-19.613 25.232,-19.613 14.378,0 26.031,11.655 26.031,26.032 v 0.045 c 0.965,-2.72 1.49,-5.649 1.49,-8.7 0,-2.001 -0.227,-3.949 -0.654,-5.821 4.145,-3.304 9.396,-5.278 15.109,-5.278"
         style="fill:#4ba5ce;fill-opacity:1;fill-rule:evenodd;stroke:none"
         transform="matrix(1.3333333,0,0,-1.3333333,228.3268,464.9752)"
         clip-path="url(#clipPath8)" />
      <path
         id="path9"
         d="m 0,0 c 52.957,0 96.151,43.192 96.151,96.15 0,52.957 -43.194,96.149 -96.151,96.149 -52.957,0 -96.149,-43.192 -96.149,-96.149 C -96.149,43.192 -52.957,0 0,0"
         style="fill:#4ba5ce;fill-opacity:1;fill-rule:evenodd;stroke:none"
         transform="matrix(1.3333333,0,0,-1.3333333,438.17773,354.48053)"
         clip-path="url(#clipPath10)" />
      <path
         id="path11"
         d="m 0,0 c 41.613,0 75.347,-33.734 75.347,-75.347 0,-41.613 -33.734,-75.347 -75.347,-75.347 -41.613,0 -75.347,33.734 -75.347,75.347 C -75.347,-33.734 -41.613,0 0,0"
         style="fill:#7dc8de;fill-opacity:1;fill-rule:evenodd;stroke:none"
         transform="matrix(1.3333333,0,0,-1.3333333,438.17773,125.81773)"
         clip-path="url(#clipPath12)" />
      <path
         id="path13"
         d="m 0,0 c 30.125,0 54.545,-24.421 54.545,-54.545 0,-30.125 -24.42,-54.547 -54.545,-54.547 -30.125,0 -54.545,24.422 -54.545,54.547 C -54.545,-24.421 -30.125,0 0,0"
         style="fill:#bee6ef;fill-opacity:1;fill-rule:evenodd;stroke:none"
         transform="matrix(1.3333333,0,0,-1.3333333,438.17773,153.55333)"
         clip-path="url(#clipPath14)" />
      <path
         id="path15"
         d="M 0,0 C 18.585,0 33.745,15.158 33.745,33.744 33.745,52.329 18.585,67.487 0,67.487 -18.585,67.487 -33.742,52.329 -33.742,33.744 -33.742,15.158 -18.585,0 0,0"
         style="fill:#ffffff;fill-opacity:1;fill-rule:evenodd;stroke:none"
         transform="matrix(1.3333333,0,0,-1.3333333,438.17773,271.27213)"
         clip-path="url(#clipPath16)" />
      <path
         id="path17"
         d="M 0,0 27.167,-0.466 54.335,-0.932 27.167,-1.397 0,-1.863 l -27.167,0.466 -27.169,0.465 27.169,0.466 z m 39.466,-42.181 16.621,-0.644 -16.621,-0.647 c -33.818,-1.312 -62.677,-1.312 -96.496,0 l -16.62,0.647 16.62,0.644 c 33.819,1.314 62.678,1.314 96.496,0 m -116.507,-33.769 1.713,-0.044 33.168,-0.839 -33.168,-0.841 -1.713,-0.042 c -22.055,-0.558 -40.858,-0.558 -62.913,0 l -1.713,0.042 -33.169,0.841 33.169,0.839 1.713,0.044 c 22.055,0.557 40.858,0.557 62.913,0 m 116.545,-36.152 46.08,-0.735 46.08,-0.735 -46.08,-0.735 -46.08,-0.735 -46.079,0.735 -46.082,0.735 46.082,0.735 z m -11.703,22.344 3.725,-0.091 34.221,-0.839 -34.221,-0.84 -3.725,-0.092 c -21.379,-0.525 -39.606,-0.525 -60.985,0 l -3.727,0.092 -34.219,0.84 34.219,0.839 3.727,0.091 c 21.379,0.525 39.606,0.525 60.985,0 m -54.826,-53.185 15.097,-0.649 -15.097,-0.649 c -37.384,-1.605 -69.299,-1.605 -106.684,0 l -15.096,0.649 15.096,0.649 c 37.385,1.605 69.3,1.605 106.684,0 m 94.786,-26.592 20.659,-0.509 51.224,-1.26 -51.224,-1.258 -20.659,-0.509 c -21.43,-0.528 -39.7,-0.528 -61.128,0 l -20.66,0.509 -51.224,1.258 51.224,1.26 20.66,0.509 c 21.428,0.526 39.698,0.526 61.128,0 m 16.055,115.222 22.238,-0.477 -22.238,-0.479 c -18.705,-0.4 -34.647,-0.4 -53.353,0 l -22.236,0.479 22.236,0.477 c 18.706,0.402 34.648,0.402 53.353,0 m -37.802,43.398 15.745,-0.315 15.745,-0.315 -15.745,-0.314 -15.745,-0.316 -15.746,0.316 -15.744,0.314 15.744,0.315 z m -159.847,-177.397 10.586,-0.31 46.814,-1.363 -46.814,-1.365 -10.586,-0.308 c -25.399,-0.741 -47.059,-0.741 -72.459,0 l -10.585,0.308 -46.815,1.365 46.815,1.363 10.585,0.31 c 25.4,0.74 47.06,0.74 72.459,0 m 95.411,-54.825 7.44,-0.276 53.638,-1.995 -53.638,-1.994 -7.44,-0.277 c -32.383,-1.204 -60.013,-1.204 -92.394,0 l -7.441,0.277 -53.638,1.994 53.638,1.995 7.441,0.276 c 32.381,1.204 60.011,1.204 92.394,0 m -109.592,33.44 19.098,-0.652 -19.098,-0.652 c -29.73,-1.016 -55.093,-1.016 -84.824,0 l -19.098,0.652 19.098,0.652 c 29.731,1.014 55.094,1.014 84.824,0 m 234.462,-7.64 22.595,-0.675 59.724,-1.784 -59.724,-1.785 -22.595,-0.675 c -26.032,-0.777 -48.232,-0.777 -74.263,0 l -22.595,0.675 -59.724,1.785 59.724,1.784 22.595,0.675 c 26.031,0.777 48.231,0.777 74.263,0 m -189.691,-55.75 4.033,-0.136 46.289,-1.575 -46.289,-1.574 -4.033,-0.138 c -29.623,-1.008 -54.892,-1.008 -84.515,0 l -4.033,0.138 -46.29,1.574 46.29,1.575 4.033,0.136 c 29.623,1.008 54.892,1.008 84.515,0 m -49.814,155.527 20.888,-0.733 20.889,-0.735 -20.889,-0.735 -20.888,-0.735 -20.888,0.735 -20.889,0.735 20.889,0.735 z m 69.215,63.149 16.227,-0.378 -16.227,-0.377 c -20.269,-0.472 -37.548,-0.472 -57.817,0 l -16.227,0.377 16.227,0.378 c 20.269,0.472 37.548,0.472 57.817,0 m 166.958,-87.498 32.329,-0.839 32.331,-0.841 -32.331,-0.839 -32.329,-0.84 -32.33,0.84 -32.329,0.839 32.329,0.841 z m 13.409,75.708 9.683,-0.342 -9.683,-0.342 c -30.737,-1.085 -56.962,-1.085 -87.699,0 l -9.683,0.342 9.683,0.342 c 30.737,1.084 56.962,1.084 87.699,0 m -77.648,36.186 13.749,-0.42 13.751,-0.419 -13.751,-0.419 -13.749,-0.42 -13.751,0.42 -13.751,0.419 13.751,0.419 z m -60.987,43.877 9.395,-0.367 9.395,-0.367 -9.395,-0.367 -9.395,-0.368 -9.395,0.368 -9.395,0.367 9.395,0.367 z M 17.777,21 25.912,20.738 34.047,20.476 25.912,20.213 17.777,19.95 9.643,20.213 1.507,20.476 9.643,20.738 Z M 19.561,7.774 28.484,7.459 37.406,7.145 28.484,6.83 19.561,6.515 10.64,6.83 1.718,7.145 10.64,7.459 Z m 106.858,-204.268 57.835,-1.05 57.838,-1.05 -57.838,-1.05 -57.835,-1.048 -57.837,1.048 -57.836,1.05 57.836,1.05 z m 22.359,-77.788 37.261,-1.251 53.111,-1.785 -53.111,-1.785 -37.261,-1.251 c -11.111,-0.374 -20.591,-0.374 -31.704,0 l -37.261,1.251 -53.113,1.785 53.113,1.785 37.261,1.251 c 11.113,0.374 20.593,0.374 31.704,0 M -29.31,-22.81 2.347,-23.87 -29.296,-24.931 c -29.179,-0.977 -54.069,-0.977 -83.247,0 l -31.643,1.061 31.657,1.06 c 29.168,0.976 54.05,0.976 83.219,0"
         style="fill:#b1e6f7;fill-opacity:1;fill-rule:evenodd;stroke:none"
         transform="matrix(1.3333333,0,0,-1.3333333,453.72787,472.03773)"
         clip-path="url(#clipPath18)" />
      <path
         id="path19"
         d="M 0,0 18.294,-0.359 61.016,-1.199 18.294,-2.039 0,-2.397 c -17.128,-0.337 -31.726,-0.337 -48.854,0 l -18.294,0.358 -42.721,0.84 42.721,0.84 L -48.854,0 C -31.726,0.337 -17.128,0.337 0,0 m -16.139,-96.881 33.069,-0.571 54.583,-0.944 -54.583,-0.946 -33.069,-0.571 c -15.085,-0.262 -27.941,-0.262 -43.027,0 l -33.069,0.571 -54.583,0.946 54.583,0.944 33.069,0.571 c 15.086,0.263 27.942,0.263 43.027,0 m -15.068,44.388 17.067,-0.559 -17.067,-0.558 c -28.507,-0.933 -52.822,-0.933 -81.329,0 l -17.067,0.558 17.067,0.559 c 28.507,0.933 52.822,0.933 81.329,0 m 453.686,33.544 2.908,-0.091 41.78,-1.307 -41.78,-1.306 -2.908,-0.091 c -27.25,-0.853 -50.493,-0.853 -77.743,0 l -2.905,0.091 -41.78,1.306 41.78,1.307 2.905,0.091 c 27.25,0.853 50.493,0.853 77.743,0 m -29.268,-75.535 34.204,-0.608 56.215,-0.995 -56.215,-0.994 -34.204,-0.608 c -15.432,-0.273 -28.586,-0.273 -44.022,0 l -34.201,0.608 -56.217,0.994 56.217,0.995 34.201,0.608 c 15.436,0.273 28.59,0.273 44.022,0 m 46.727,-36.736 1.266,-0.03 30.861,-0.735 -30.861,-0.735 -1.266,-0.029 c -20.75,-0.495 -38.438,-0.495 -59.188,0 l -1.266,0.029 -30.862,0.735 30.862,0.735 1.266,0.03 c 20.75,0.493 38.438,0.493 59.188,0 m -43.87,92.655 21.204,-0.84 21.201,-0.839 -21.201,-0.841 -21.204,-0.839 -21.203,0.839 -21.204,0.841 21.204,0.839 z m -77.661,50.746 18.46,-0.363 -18.46,-0.361 c -17.084,-0.335 -31.648,-0.335 -48.734,0 l -18.459,0.361 18.459,0.363 c 17.086,0.334 31.65,0.334 48.734,0 m 99.231,-79.018 29.234,-0.699 -29.234,-0.7 c -20.865,-0.499 -38.651,-0.499 -59.516,0 l -29.232,0.7 29.232,0.699 c 20.865,0.5 38.651,0.5 59.516,0 m -469.033,-89.706 4.189,-0.108 36.424,-0.946 -36.424,-0.944 -4.189,-0.108 c -22.599,-0.586 -41.868,-0.586 -64.467,0 l -4.189,0.108 -36.424,0.944 36.424,0.946 4.189,0.108 c 22.599,0.586 41.868,0.586 64.467,0 m -15.616,29.496 10.465,-0.319 -10.465,-0.319 c -26.514,-0.807 -49.127,-0.807 -75.641,0 l -10.464,0.319 10.464,0.319 c 26.514,0.806 49.127,0.806 75.641,0 m 32.93,-124.403 9.864,-0.405 -9.864,-0.408 c -35.903,-1.48 -66.55,-1.48 -102.454,0 l -9.863,0.408 9.863,0.405 c 35.904,1.482 66.551,1.482 102.454,0 m -78.518,31.504 19.209,-1.156 19.208,-1.154 -19.208,-1.153 -19.209,-1.155 -19.209,1.155 -19.209,1.153 19.209,1.154 z m 520.301,-26.082 9.881,-0.264 43.143,-1.154 -43.143,-1.156 -9.881,-0.264 c -23.317,-0.624 -43.201,-0.624 -66.517,0 l -9.882,0.264 -43.141,1.156 43.141,1.154 9.882,0.264 c 23.316,0.625 43.2,0.625 66.517,0 m 33.789,85.969 24.273,-0.685 -24.273,-0.687 c -24.635,-0.697 -45.642,-0.697 -70.276,0 l -24.273,0.687 24.273,0.685 c 24.634,0.698 45.641,0.698 70.276,0 m -527.815,175.038 19.278,-0.43 -19.278,-0.431 c -19.454,-0.434 -36.039,-0.434 -55.494,0 l -19.278,0.431 19.278,0.43 c 19.455,0.434 36.04,0.434 55.494,0 m -54.303,-79.996 12.438,-0.419 12.438,-0.419 -12.438,-0.42 -12.438,-0.419 -12.439,0.419 -12.438,0.42 12.438,0.419 z m 88.132,33.98 26.043,-0.497 49.679,-0.944 -49.679,-0.945 -26.043,-0.494 c -16.573,-0.316 -30.699,-0.316 -47.273,0 l -26.043,0.494 -49.679,0.945 49.679,0.944 26.043,0.497 c 16.574,0.313 30.7,0.313 47.273,0"
         style="fill:#2d6c96;fill-opacity:1;fill-rule:evenodd;stroke:none"
         transform="matrix(1.3333333,0,0,-1.3333333,232.75067,468.75)"
         clip-path="url(#clipPath20)" />
    </g>
  </g>
</svg>
