<?xml version="1.0" encoding="UTF-8" standalone="no"?>
<!-- Created with Inkscape (http://www.inkscape.org/) -->

<svg
   version="1.1"
   id="svg1"
   width="880"
   height="880"
   viewBox="0 0 880 880"
   sodipodi:docname="sunset-scene.svg"
   inkscape:version="1.3.2 (091e20e, 2023-11-25, custom)"
   xmlns:inkscape="http://www.inkscape.org/namespaces/inkscape"
   xmlns:sodipodi="http://sodipodi.sourceforge.net/DTD/sodipodi-0.dtd"
   xmlns="http://www.w3.org/2000/svg"
   xmlns:svg="http://www.w3.org/2000/svg">
  <defs
     id="defs1">
    <clipPath
       clipPathUnits="userSpaceOnUse"
       id="clipPath6">
      <path
         d="M 0,660 H 660 V 0 H 0 Z"
         transform="translate(-330.55761,-410.98631)"
         id="path6" />
    </clipPath>
    <clipPath
       clipPathUnits="userSpaceOnUse"
       id="clipPath8">
      <path
         d="M 0,660 H 660 V 0 H 0 Z"
         id="path8" />
    </clipPath>
    <clipPath
       clipPathUnits="userSpaceOnUse"
       id="clipPath10">
      <path
         d="M 0,660 H 660 V 0 H 0 Z"
         transform="translate(-290.17041,-352.25931)"
         id="path10" />
    </clipPath>
    <clipPath
       clipPathUnits="userSpaceOnUse"
       id="clipPath12">
      <path
         d="M 0,660 H 660 V 0 H 0 Z"
         id="path12" />
    </clipPath>
    <clipPath
       clipPathUnits="userSpaceOnUse"
       id="clipPath14">
      <path
         d="M 0,660 H 660 V 0 H 0 Z"
         id="path14" />
    </clipPath>
    <clipPath
       clipPathUnits="userSpaceOnUse"
       id="clipPath16">
      <path
         d="M 0,660 H 660 V 0 H 0 Z"
         id="path16" />
    </clipPath>
    <clipPath
       clipPathUnits="userSpaceOnUse"
       id="clipPath18">
      <path
         d="M 0,660 H 660 V 0 H 0 Z"
         id="path18" />
    </clipPath>
    <clipPath
       clipPathUnits="userSpaceOnUse"
       id="clipPath20">
      <path
         d="M 0,660 H 660 V 0 H 0 Z"
         id="path20" />
    </clipPath>
    <clipPath
       clipPathUnits="userSpaceOnUse"
       id="clipPath22">
      <path
         d="M 0,660 H 660 V 0 H 0 Z"
         id="path22" />
    </clipPath>
    <clipPath
       clipPathUnits="userSpaceOnUse"
       id="clipPath24">
      <path
         d="M 0,660 H 660 V 0 H 0 Z"
         id="path24" />
    </clipPath>
    <clipPath
       clipPathUnits="userSpaceOnUse"
       id="clipPath26">
      <path
         d="M 0,660 H 660 V 0 H 0 Z"
         id="path26" />
    </clipPath>
    <clipPath
       clipPathUnits="userSpaceOnUse"
       id="clipPath28">
      <path
         d="M 0,660 H 660 V 0 H 0 Z"
         transform="translate(-1.146,-281.78811)"
         id="path28" />
    </clipPath>
    <clipPath
       clipPathUnits="userSpaceOnUse"
       id="clipPath30">
      <path
         d="M 0,660 H 660 V 0 H 0 Z"
         id="path30" />
    </clipPath>
    <clipPath
       clipPathUnits="userSpaceOnUse"
       id="clipPath32">
      <path
         d="M 0,660 H 660 V 0 H 0 Z"
         id="path32" />
    </clipPath>
    <clipPath
       clipPathUnits="userSpaceOnUse"
       id="clipPath34">
      <path
         d="M 0,660 H 660 V 0 H 0 Z"
         id="path34" />
    </clipPath>
    <clipPath
       clipPathUnits="userSpaceOnUse"
       id="clipPath36">
      <path
         d="M 0,660 H 660 V 0 H 0 Z"
         id="path36" />
    </clipPath>
    <clipPath
       clipPathUnits="userSpaceOnUse"
       id="clipPath38">
      <path
         d="M 0,660 H 660 V 0 H 0 Z"
         id="path38" />
    </clipPath>
    <clipPath
       clipPathUnits="userSpaceOnUse"
       id="clipPath40">
      <path
         d="M 0,660 H 660 V 0 H 0 Z"
         transform="translate(-491.34181,-47.882799)"
         id="path40" />
    </clipPath>
    <clipPath
       clipPathUnits="userSpaceOnUse"
       id="clipPath42">
      <path
         d="M 0,660 H 660 V 0 H 0 Z"
         transform="translate(-495.61331,-46.345704)"
         id="path42" />
    </clipPath>
    <clipPath
       clipPathUnits="userSpaceOnUse"
       id="clipPath44">
      <path
         d="M 0,660 H 660 V 0 H 0 Z"
         transform="translate(-1.146,-0.30270001)"
         id="path44" />
    </clipPath>
  </defs>
  <sodipodi:namedview
     id="namedview1"
     pagecolor="#ffffff"
     bordercolor="#000000"
     borderopacity="0.25"
     inkscape:showpageshadow="2"
     inkscape:pageopacity="0.0"
     inkscape:pagecheckerboard="0"
     inkscape:deskcolor="#d1d1d1"
     inkscape:zoom="0.69318182"
     inkscape:cx="439.27869"
     inkscape:cy="440"
     inkscape:window-width="1440"
     inkscape:window-height="830"
     inkscape:window-x="-6"
     inkscape:window-y="-6"
     inkscape:window-maximized="1"
     inkscape:current-layer="g1">
    <inkscape:page
       x="0"
       y="0"
       inkscape:label="1"
       id="page1"
       width="880"
       height="880"
       margin="0.40358534 0.04266667 1.164 1.528"
       bleed="0" />
  </sodipodi:namedview>
  <g
     id="g1"
     inkscape:groupmode="layer"
     inkscape:label="1">
    <g
       id="group-MC0">
      <path
         id="path2"
         d="M 0,0 H -146.635 V -658.824 H 512.187 V -602.969 0 Z"
         style="fill:#ae4b36;fill-opacity:1;fill-rule:nonzero;stroke:none"
         transform="matrix(1.3333333,0,0,-1.3333333,197.0412,1.1644)" />
      <path
         id="path3"
         d="m 1.146,352.259 h 658.823 v 49.653 H 1.146 Z"
         style="fill:#99402c;fill-opacity:1;fill-rule:nonzero;stroke:none"
         transform="matrix(1.3333333,0,0,-1.3333333,0,880)" />
      <path
         id="path4"
         d="M 1.146,112.014 H 659.969 V 248.689 H 1.146 Z"
         style="fill:#963b29;fill-opacity:1;fill-rule:nonzero;stroke:none"
         transform="matrix(1.3333333,0,0,-1.3333333,0,880)" />
      <path
         id="path5"
         d="m 0,0 c 23.882,0 43.244,-19.361 43.244,-43.244 0,-23.884 -19.362,-43.244 -43.244,-43.244 -23.884,0 -43.246,19.36 -43.246,43.244 C -43.246,-19.361 -23.884,0 0,0"
         style="fill:#fce7c1;fill-opacity:1;fill-rule:evenodd;stroke:none"
         transform="matrix(1.3333333,0,0,-1.3333333,440.74347,332.01827)"
         clip-path="url(#clipPath6)" />
      <path
         id="path7"
         d="M 1.146,352.259 H 659.968 V 248.688 H 1.146 Z"
         style="fill:#843323;fill-opacity:1;fill-rule:evenodd;stroke:none"
         transform="matrix(1.3333333,0,0,-1.3333333,0,880)"
         clip-path="url(#clipPath8)" />
      <path
         id="path9"
         d="M 0,0 H 80.774 C 74.547,-16.234 58.814,-27.761 40.387,-27.761 21.96,-27.761 6.227,-16.234 0,0"
         style="fill:#924130;fill-opacity:1;fill-rule:evenodd;stroke:none"
         transform="matrix(1.3333333,0,0,-1.3333333,386.89387,410.32093)"
         clip-path="url(#clipPath10)" />
      <path
         id="path11"
         d="M 287.923,243.153 H 373.1 v -15.075 h -85.177 z"
         style="fill:#e07c63;fill-opacity:1;fill-rule:evenodd;stroke:none"
         transform="matrix(1.3333333,0,0,-1.3333333,0,880)"
         clip-path="url(#clipPath12)" />
      <path
         id="path13"
         d="M 287.923,222.543 H 373.1 v -13.251 h -85.177 z"
         style="fill:#e07c63;fill-opacity:1;fill-rule:evenodd;stroke:none"
         transform="matrix(1.3333333,0,0,-1.3333333,0,880)"
         clip-path="url(#clipPath14)" />
      <path
         id="path15"
         d="M 287.923,201.934 H 373.1 v -11.432 h -85.177 z"
         style="fill:#e07c63;fill-opacity:1;fill-rule:evenodd;stroke:none"
         transform="matrix(1.3333333,0,0,-1.3333333,0,880)"
         clip-path="url(#clipPath16)" />
      <path
         id="path17"
         d="M 287.923,181.325 H 373.1 v -9.612 h -85.177 z"
         style="fill:#e07c63;fill-opacity:1;fill-rule:evenodd;stroke:none"
         transform="matrix(1.3333333,0,0,-1.3333333,0,880)"
         clip-path="url(#clipPath18)" />
      <path
         id="path19"
         d="M 287.923,160.714 H 373.1 v -7.789 h -85.177 z"
         style="fill:#e07c63;fill-opacity:1;fill-rule:evenodd;stroke:none"
         transform="matrix(1.3333333,0,0,-1.3333333,0,880)"
         clip-path="url(#clipPath20)" />
      <path
         id="path21"
         d="M 287.923,140.106 H 373.1 v -5.97 h -85.177 z"
         style="fill:#e07c63;fill-opacity:1;fill-rule:evenodd;stroke:none"
         transform="matrix(1.3333333,0,0,-1.3333333,0,880)"
         clip-path="url(#clipPath22)" />
      <path
         id="path23"
         d="M 287.923,119.497 H 373.1 v -4.148 h -85.177 z"
         style="fill:#e07c63;fill-opacity:1;fill-rule:evenodd;stroke:none"
         transform="matrix(1.3333333,0,0,-1.3333333,0,880)"
         clip-path="url(#clipPath24)" />
      <path
         id="path25"
         d="M 1.146,317.024 H 659.968 V 248.688 H 1.146 Z"
         style="fill:#6f291d;fill-opacity:1;fill-rule:evenodd;stroke:none"
         transform="matrix(1.3333333,0,0,-1.3333333,0,880)"
         clip-path="url(#clipPath26)" />
      <path
         id="path27"
         d="m 0,0 107.091,28.694 108.241,-29.002 46.844,12.551 87.492,-23.444 126.111,33.791 97.193,-26.043 85.85,22.139 V -33.1 L 0,-33.1 Z"
         style="fill:#421b16;fill-opacity:1;fill-rule:evenodd;stroke:none"
         transform="matrix(1.3333333,0,0,-1.3333333,1.528,504.28253)"
         clip-path="url(#clipPath28)" />
      <path
         id="path29"
         d="M 1.146,491.071 H 659.968 V 466.512 H 1.146 Z"
         style="fill:#f68413;fill-opacity:1;fill-rule:evenodd;stroke:none"
         transform="matrix(1.3333333,0,0,-1.3333333,0,880)"
         clip-path="url(#clipPath30)" />
      <path
         id="path31"
         d="M 1.146,451.297 H 659.968 V 440.886 H 1.146 Z"
         style="fill:#f68413;fill-opacity:1;fill-rule:evenodd;stroke:none"
         transform="matrix(1.3333333,0,0,-1.3333333,0,880)"
         clip-path="url(#clipPath32)" />
      <path
         id="path33"
         d="M 659.968,432.077 H 1.146 v 2.136 h 658.822 z"
         style="fill:#f68413;fill-opacity:1;fill-rule:evenodd;stroke:none"
         transform="matrix(1.3333333,0,0,-1.3333333,0,880)"
         clip-path="url(#clipPath34)" />
      <path
         id="path35"
         d="M 1.146,626.143 H 659.968 V 596.245 H 1.146 Z"
         style="fill:#c45e47;fill-opacity:1;fill-rule:evenodd;stroke:none"
         transform="matrix(1.3333333,0,0,-1.3333333,0,880)"
         clip-path="url(#clipPath36)" />
      <path
         id="path37"
         d="M 659.968,574.89 H 1.146 v -12.813 h 658.822 z"
         style="fill:#c45e47;fill-opacity:1;fill-rule:evenodd;stroke:none"
         transform="matrix(1.3333333,0,0,-1.3333333,0,880)"
         clip-path="url(#clipPath38)" />
      <path
         id="path39"
         d="m 0,0 24.842,97.215 c 18.36,71.851 21.181,136.508 9.139,209.49 l -8.58,51.99 c -4.293,26.021 -6.67,50.784 -7.117,75.294 l -0.667,0.373 c -38.157,21.323 -65.885,50.984 -83.123,88.897 -8.966,-4.448 -22.433,-7.28 -37.474,-7.28 -18.396,0 -34.383,4.234 -42.641,10.482 -4.83,-0.678 -10.002,-1.046 -15.38,-1.046 -26.391,0 -47.729,8.85 -47.662,19.769 0.064,10.916 21.511,19.766 47.899,19.766 1.356,0 2.698,-0.025 4.024,-0.07 -4.096,3.311 -6.384,7.026 -6.359,10.95 0.083,13.923 29.193,25.21 65.018,25.21 35.825,0 64.799,-11.287 64.716,-25.21 -0.033,-5.285 -4.25,-10.19 -11.427,-14.242 21.788,-1.237 38.515,-8.823 38.459,-17.997 -0.061,-10.038 -20.189,-18.176 -44.955,-18.176 -3.085,0 -6.097,0.127 -9.006,0.367 18.383,-31.821 44.616,-56.618 78.593,-74.268 0.58,29.778 4.035,59.537 10.399,91.094 l 7.932,39.332 c -27.232,0.245 -49.078,10.008 -49.005,22.019 0.016,2.554 1.023,5.004 2.858,7.285 h 177.3 c 0.169,-0.65 0.254,-1.309 0.25,-1.978 -0.056,-9.184 -16.847,-16.832 -39.018,-18.501 -0.489,-13.126 -18.556,-23.691 -40.709,-23.691 -13.262,0 -25.012,3.786 -32.38,9.642 L 50.74,537.966 C 41.844,471.512 44.996,413.33 61.016,348.357 l 9.957,-40.381 c 2.144,-8.695 4.057,-17.287 5.75,-25.806 l 2.641,1.236 c 33.78,15.805 60.583,38.144 80.314,66.899 -13.62,3.023 -22.973,9.359 -22.93,16.688 0.014,2.224 0.892,4.356 2.488,6.332 -29.238,3.314 -50.656,14.29 -50.576,27.321 0.037,6.174 4.897,11.888 13.114,16.542 -8.446,3.894 -13.781,9.681 -13.741,16.144 0.069,11.724 17.798,21.228 39.596,21.228 21.799,0 39.412,-9.504 39.341,-21.228 -0.009,-1.554 -0.332,-3.068 -0.93,-4.526 0.867,-0.04 1.729,-0.088 2.586,-0.142 v -79.789 c -0.537,0.056 -1.07,0.115 -1.599,0.179 -17.804,-33.143 -44.209,-59.449 -79.161,-78.85 l -8.137,-4.516 C 89.309,208.013 88.372,153.07 77.148,92.714 L 60.894,5.307 Z"
         style="fill:#f0beb1;fill-opacity:1;fill-rule:evenodd;stroke:none"
         transform="matrix(1.3333333,0,0,-1.3333333,655.1224,816.15627)"
         clip-path="url(#clipPath40)" />
      <path
         id="path41"
         d="m 0,0 24.256,97.796 c 17.927,72.277 20.356,137.321 7.873,210.736 l -8.893,52.3 c -4.449,26.175 -6.977,51.084 -7.57,75.742 l -0.671,0.375 c -38.286,21.449 -66.193,51.287 -83.659,89.426 -8.939,-4.475 -22.389,-7.323 -37.432,-7.323 -18.394,0 -34.407,4.258 -42.704,10.544 -4.824,-0.682 -9.994,-1.052 -15.373,-1.052 -26.388,0 -47.782,8.902 -47.782,19.885 0,10.983 21.394,19.885 47.782,19.885 1.356,0 2.697,-0.024 4.024,-0.071 -4.118,3.331 -6.426,7.068 -6.426,11.016 0,14.006 29.041,25.359 64.865,25.359 35.825,0 64.867,-11.353 64.867,-25.359 0,-5.317 -4.186,-10.251 -11.34,-14.327 21.795,-1.246 38.57,-8.875 38.57,-18.105 0,-10.097 -20.08,-18.283 -44.847,-18.283 -3.085,0 -6.099,0.128 -9.008,0.369 18.575,-32.01 44.958,-56.956 79.04,-74.711 0.404,29.956 3.679,59.892 9.85,91.636 l 7.694,39.566 c -27.233,0.247 -49.137,10.069 -49.137,22.151 0,1.8 0.49,3.551 1.408,5.226 h 178.965 c -0.134,-9.188 -16.833,-16.826 -38.904,-18.499 -0.41,-13.204 -18.413,-23.831 -40.565,-23.831 -13.262,0 -25.034,3.808 -32.438,9.699 l -4.953,-38.981 c -8.495,-66.85 -4.99,-125.377 11.421,-190.736 l 10.2,-40.622 c 2.197,-8.746 4.164,-17.39 5.908,-25.96 l 2.633,1.244 c 33.685,15.9 60.353,38.37 79.91,67.297 -13.638,3.041 -23.03,9.415 -23.03,16.787 0,2.237 0.864,4.382 2.45,6.369 -29.258,3.335 -50.743,14.375 -50.743,27.484 0,6.212 4.826,11.958 13.016,16.642 -8.471,3.916 -13.839,9.737 -13.839,16.239 0,11.793 17.671,21.354 39.468,21.354 21.798,0 39.468,-9.561 39.468,-21.354 0,-1.564 -0.312,-3.086 -0.901,-4.553 l 0.901,-0.045 v -81.24 c -17.597,-32.843 -43.652,-58.952 -78.12,-78.261 l -8.107,-4.542 C 88.055,209.252 87.449,153.983 76.59,93.267 L 60.863,5.339 Z"
         style="fill:#421b16;fill-opacity:1;fill-rule:evenodd;stroke:none"
         transform="matrix(1.3333333,0,0,-1.3333333,660.81773,818.20573)"
         clip-path="url(#clipPath42)" />
      <path
         id="path43"
         d="m 0,0 h 658.822 v 55.855 55.856 H 0 Z"
         style="fill:#421b16;fill-opacity:1;fill-rule:evenodd;stroke:none"
         transform="matrix(1.3333333,0,0,-1.3333333,1.528,879.5964)"
         clip-path="url(#clipPath44)" />
    </g>
  </g>
</svg>
