<?xml version="1.0" encoding="UTF-8" standalone="no"?>
<!-- Created with Inkscape (http://www.inkscape.org/) -->

<svg
   version="1.1"
   id="svg1"
   width="880"
   height="880"
   viewBox="0 0 880 880"
   sodipodi:docname="palm-tree-seashore.svg"
   inkscape:version="1.3.2 (091e20e, 2023-11-25, custom)"
   xmlns:inkscape="http://www.inkscape.org/namespaces/inkscape"
   xmlns:sodipodi="http://sodipodi.sourceforge.net/DTD/sodipodi-0.dtd"
   xmlns="http://www.w3.org/2000/svg"
   xmlns:svg="http://www.w3.org/2000/svg">
  <defs
     id="defs1">
    <clipPath
       clipPathUnits="userSpaceOnUse"
       id="clipPath4">
      <path
         d="M 0,660 H 660 V 0 H 0 Z"
         transform="translate(-247.9888,-450.10501)"
         id="path4" />
    </clipPath>
    <clipPath
       clipPathUnits="userSpaceOnUse"
       id="clipPath6">
      <path
         d="M 0,660 H 660 V 0 H 0 Z"
         transform="translate(-316.01811,-308.64261)"
         id="path6" />
    </clipPath>
    <clipPath
       clipPathUnits="userSpaceOnUse"
       id="clipPath8">
      <path
         d="M 0,660 H 660 V 0 H 0 Z"
         transform="translate(-659.62892,-466.59381)"
         id="path8" />
    </clipPath>
    <clipPath
       clipPathUnits="userSpaceOnUse"
       id="clipPath10">
      <path
         d="M 0,660 H 660 V 0 H 0 Z"
         transform="translate(-659.62892,-424.81591)"
         id="path10" />
    </clipPath>
    <clipPath
       clipPathUnits="userSpaceOnUse"
       id="clipPath12">
      <path
         d="M 0,660 H 660 V 0 H 0 Z"
         transform="translate(-659.62892,-371.68751)"
         id="path12" />
    </clipPath>
    <clipPath
       clipPathUnits="userSpaceOnUse"
       id="clipPath14">
      <path
         d="M 0,660 H 660 V 0 H 0 Z"
         transform="translate(-659.62892,-347.86281)"
         id="path14" />
    </clipPath>
    <clipPath
       clipPathUnits="userSpaceOnUse"
       id="clipPath16">
      <path
         d="M 0,660 H 660 V 0 H 0 Z"
         transform="translate(-409.26661,-248.3467)"
         id="path16" />
    </clipPath>
    <clipPath
       clipPathUnits="userSpaceOnUse"
       id="clipPath18">
      <path
         d="M 0,660 H 660 V 0 H 0 Z"
         transform="translate(0.0674,-108.5586)"
         id="path18" />
    </clipPath>
    <clipPath
       clipPathUnits="userSpaceOnUse"
       id="clipPath20">
      <path
         d="M 0,660 H 660 V 0 H 0 Z"
         id="path20" />
    </clipPath>
    <clipPath
       clipPathUnits="userSpaceOnUse"
       id="clipPath22">
      <path
         d="M 0,660 H 660 V 0 H 0 Z"
         id="path22" />
    </clipPath>
    <clipPath
       clipPathUnits="userSpaceOnUse"
       id="clipPath24">
      <path
         d="M 0,660 H 660 V 0 H 0 Z"
         transform="translate(-108.3096,-217.1914)"
         id="path24" />
    </clipPath>
    <clipPath
       clipPathUnits="userSpaceOnUse"
       id="clipPath26">
      <path
         d="M 0,660 H 660 V 0 H 0 Z"
         transform="translate(-108.3096,-217.1914)"
         id="path26" />
    </clipPath>
    <clipPath
       clipPathUnits="userSpaceOnUse"
       id="clipPath28">
      <path
         d="M 0,660 H 660 V 0 H 0 Z"
         transform="translate(-259.5889,-238.79791)"
         id="path28" />
    </clipPath>
    <clipPath
       clipPathUnits="userSpaceOnUse"
       id="clipPath30">
      <path
         d="M 0,660 H 660 V 0 H 0 Z"
         transform="translate(-428.82131,-262.96881)"
         id="path30" />
    </clipPath>
    <clipPath
       clipPathUnits="userSpaceOnUse"
       id="clipPath32">
      <path
         d="M 0,660 H 660 V 0 H 0 Z"
         transform="translate(-213.23391,-584.09281)"
         id="path32" />
    </clipPath>
    <clipPath
       clipPathUnits="userSpaceOnUse"
       id="clipPath34">
      <path
         d="M 0,660 H 660 V 0 H 0 Z"
         transform="translate(-81.955105,-460.54641)"
         id="path34" />
    </clipPath>
    <clipPath
       clipPathUnits="userSpaceOnUse"
       id="clipPath36">
      <path
         d="M 0,660 H 660 V 0 H 0 Z"
         transform="translate(-264.4141,-457.41941)"
         id="path36" />
    </clipPath>
    <clipPath
       clipPathUnits="userSpaceOnUse"
       id="clipPath38">
      <path
         d="M 0,660 H 660 V 0 H 0 Z"
         transform="translate(-250.68991,-449.65091)"
         id="path38" />
    </clipPath>
    <clipPath
       clipPathUnits="userSpaceOnUse"
       id="clipPath40">
      <path
         d="M 0,660 H 660 V 0 H 0 Z"
         transform="translate(-312.57321,-246.3652)"
         id="path40" />
    </clipPath>
    <clipPath
       clipPathUnits="userSpaceOnUse"
       id="clipPath42">
      <path
         d="M 0,660 H 660 V 0 H 0 Z"
         transform="translate(-252.81351,-453.50441)"
         id="path42" />
    </clipPath>
    <clipPath
       clipPathUnits="userSpaceOnUse"
       id="clipPath44">
      <path
         d="M 0,660 H 660 V 0 H 0 Z"
         transform="translate(-246.01321,-451.29641)"
         id="path44" />
    </clipPath>
    <clipPath
       clipPathUnits="userSpaceOnUse"
       id="clipPath46">
      <path
         d="M 0,660 H 660 V 0 H 0 Z"
         transform="translate(-322.30181,-110.7832)"
         id="path46" />
    </clipPath>
    <clipPath
       clipPathUnits="userSpaceOnUse"
       id="clipPath48">
      <path
         d="M 0,660 H 660 V 0 H 0 Z"
         transform="translate(-353.82521,-108.5586)"
         id="path48" />
    </clipPath>
  </defs>
  <sodipodi:namedview
     id="namedview1"
     pagecolor="#ffffff"
     bordercolor="#000000"
     borderopacity="0.25"
     inkscape:showpageshadow="2"
     inkscape:pageopacity="0.0"
     inkscape:pagecheckerboard="0"
     inkscape:deskcolor="#d1d1d1"
     inkscape:zoom="0.67272727"
     inkscape:cx="439.25676"
     inkscape:cy="440"
     inkscape:window-width="1440"
     inkscape:window-height="830"
     inkscape:window-x="-6"
     inkscape:window-y="-6"
     inkscape:window-maximized="1"
     inkscape:current-layer="g1">
    <inkscape:page
       x="0"
       y="0"
       inkscape:label="1"
       id="page1"
       width="880"
       height="880"
       margin="0 0.49466667 0.50266665 0"
       bleed="0" />
  </sodipodi:namedview>
  <g
     id="g1"
     inkscape:groupmode="layer"
     inkscape:label="1">
    <g
       id="group-MC0">
      <path
         id="path2"
         d="M 0,0 H 659.629 V 659.623 H 0 Z"
         style="fill:#e9f4fc;fill-opacity:1;fill-rule:nonzero;stroke:none"
         transform="matrix(1.3333333,0,0,-1.3333333,0,880)" />
      <path
         id="path3"
         d="m 0,0 c 28.465,33.721 101.016,-0.853 101.791,-35.079 l -26.382,9.092 1.47,13.44 -6.633,-11.661 -19.312,6.655 4.159,12.828 -7.92,-11.532 -23.829,8.212 0.976,8.845 -3.262,-8.057 z"
         style="fill:#4da136;fill-opacity:1;fill-rule:evenodd;stroke:none"
         transform="matrix(1.3333333,0,0,-1.3333333,330.65173,279.86)"
         clip-path="url(#clipPath4)" />
      <path
         id="path5"
         d="m 0,0 c 9.46,19.554 26.499,35.203 46.681,42.956 15.422,5.922 25.642,20.601 25.324,36.377 -0.054,2.784 0.072,5.626 0.392,8.51 3.976,35.931 36.328,65.059 72.259,65.059 35.931,0 61.836,-29.128 57.857,-65.059 -3.977,-35.931 -36.33,-65.058 -72.26,-65.058 -0.76,0 -1.514,0.018 -2.265,0.044 9.937,-13.041 14.945,-30.098 12.88,-48.765 -4.537,-40.98 -41.433,-74.199 -82.413,-74.199 -15.04,0 -28.534,4.479 -39.372,12.167 -9.252,-17.264 -27.707,-29.372 -47.651,-29.372 -26.634,0 -45.834,21.592 -42.886,48.225 2.572,23.233 21.149,42.63 43.531,47.204 C -15.604,-19.393 -5.577,-11.526 0,0"
         style="fill:#ffffff;fill-opacity:1;fill-rule:evenodd;stroke:none"
         transform="matrix(1.3333333,0,0,-1.3333333,421.35747,468.47653)"
         clip-path="url(#clipPath6)" />
      <path
         id="path7"
         d="m 0,0 v -215.403 c -3.415,-1.182 -6.875,-1.926 -10.356,-2.174 -14.448,-1.034 -26.944,6.487 -36.191,19.971 -10.101,14.727 -28.357,19.856 -47.468,13.334 -1.883,-0.643 -3.773,-1.04 -5.66,-1.174 -4.659,-0.334 -9.022,0.943 -13.035,3.635 -17.177,11.53 -41.725,7.624 -59.129,-9.407 -8.983,-8.79 -18.79,-14.11 -28.733,-14.821 -32.307,-2.311 -53.803,44.91 -48.016,105.469 5.789,60.559 36.673,111.525 68.979,113.835 2.557,0.182 5.046,0.054 7.461,-0.365 22.339,-3.887 46.613,10.265 56.763,33.098 12.114,27.248 27.223,44.777 42.216,45.849 18.45,1.319 32.279,-22.597 38.031,-59.863 C -32.273,13.438 -18.264,1.112 0,0"
         style="fill:#42a883;fill-opacity:1;fill-rule:evenodd;stroke:none"
         transform="matrix(1.3333333,0,0,-1.3333333,879.5052,257.87493)"
         clip-path="url(#clipPath8)" />
      <path
         id="path9"
         d="m 0,0 v -174.061 c -3.081,-0.955 -6.202,-1.557 -9.342,-1.758 -13.033,-0.834 -24.308,5.244 -32.649,16.138 -9.115,11.902 -25.585,16.047 -42.824,10.775 -1.701,-0.517 -3.406,-0.84 -5.109,-0.949 -4.2,-0.267 -8.137,0.763 -11.76,2.941 -15.496,9.314 -37.642,6.159 -53.343,-7.603 -8.104,-7.104 -16.953,-11.403 -25.922,-11.978 -29.146,-1.866 -48.54,36.291 -43.317,85.228 5.222,48.936 33.083,90.119 62.23,91.986 2.307,0.147 4.554,0.044 6.73,-0.295 20.156,-3.141 42.054,8.295 51.209,26.744 10.929,22.02 24.56,36.184 38.087,37.051 16.644,1.065 29.122,-18.261 34.311,-48.375 C -29.116,10.858 -16.478,0.898 0,0"
         style="fill:#358c6d;fill-opacity:1;fill-rule:evenodd;stroke:none"
         transform="matrix(1.3333333,0,0,-1.3333333,879.5052,313.5788)"
         clip-path="url(#clipPath10)" />
      <path
         id="path11"
         d="m 0,0 v -121.463 c -6.623,4.731 -51.553,13.381 -54.633,20.951 -14.457,-20.289 -38.888,-34.72 -61.86,-34.72 -11.312,0 -20.632,3.501 -27.282,9.477 -10.438,-29.264 -42.24,-52.792 -71.654,-52.792 -21.678,0 -36.087,12.779 -38.501,31.215 -2.254,-0.316 -4.508,-0.482 -6.744,-0.482 -24.796,0 -38.163,20.1 -29.856,44.896 5.925,17.689 21.28,32.988 38.598,40.304 14.793,6.252 26.707,16.841 34.472,30.643 14.93,26.537 45.306,46.344 73.673,46.344 21.839,0 37.001,-11.74 41.52,-29.251 2.234,-8.646 9.443,-13.444 19.618,-13.055 0.704,0.027 1.409,0.04 2.114,0.04 7.555,0 14.223,-1.562 19.801,-4.38 7.973,-4.03 19.833,-0.597 27.99,8.104 C -23.37,-14.173 -12.079,-5.834 0,0"
         style="fill:#70c82d;fill-opacity:1;fill-rule:evenodd;stroke:none"
         transform="matrix(1.3333333,0,0,-1.3333333,879.5052,384.41667)"
         clip-path="url(#clipPath12)" />
      <path
         id="path13"
         d="m 0,0 v -105.254 c -6.623,4.097 -51.553,11.592 -54.633,18.155 -14.457,-17.582 -38.888,-30.089 -61.86,-30.089 -11.312,0 -20.632,3.034 -27.282,8.213 -10.438,-25.358 -42.24,-45.747 -71.654,-45.747 -21.678,0 -36.087,11.075 -38.501,27.049 -2.254,-0.273 -4.508,-0.416 -6.744,-0.416 -24.796,0 -38.163,17.417 -29.856,38.903 5.925,15.328 21.28,28.587 38.598,34.927 14.793,5.416 26.707,14.594 34.472,26.553 14.93,22.996 45.306,40.16 73.673,40.16 21.839,0 37.001,-10.173 41.52,-25.349 2.234,-7.49 9.443,-11.648 19.618,-11.312 0.704,0.023 1.409,0.035 2.114,0.035 7.555,0 14.223,-1.354 19.801,-3.795 7.973,-3.493 19.833,-0.518 27.99,7.022 C -23.37,-12.283 -12.079,-5.056 0,0"
         style="fill:#4da136;fill-opacity:1;fill-rule:evenodd;stroke:none"
         transform="matrix(1.3333333,0,0,-1.3333333,879.5052,416.18293)"
         clip-path="url(#clipPath14)" />
      <path
         id="path15"
         d="M 0,0 C 8.052,28.205 56.503,43.57 80.797,37.093 137.507,21.972 222.932,90.142 222.961,8.69 222.976,-30.564 46.407,-45.77 28.957,-25.001 17.392,-11.234 -2.922,-10.236 0,0"
         style="fill:#3a7a32;fill-opacity:1;fill-rule:evenodd;stroke:none"
         transform="matrix(1.3333333,0,0,-1.3333333,545.6888,548.87107)"
         clip-path="url(#clipPath16)" />
      <path
         id="path17"
         d="m 0,0 v 226.541 c 27.127,3.185 52.084,-9.596 57.157,-30.067 0.613,-2.469 0.908,-4.943 0.911,-7.398 0.01,-9.755 5.958,-17.814 16.683,-22.61 5.82,-2.602 10.918,-6.069 14.963,-10.248 8.484,-8.764 21.462,-12.978 36.275,-11.779 26.123,2.118 49.686,-10.495 54.6,-30.322 5.41,-21.826 -13.833,-44.13 -42.98,-49.816 C 124.016,61.648 110.669,63.08 99.747,67.578 100.539,44.56 28.68,9.221 0,0"
         style="fill:#ffffff;fill-opacity:1;fill-rule:evenodd;stroke:none"
         transform="matrix(1.3333333,0,0,-1.3333333,-0.08986667,735.2552)"
         clip-path="url(#clipPath18)" />
      <path
         id="path19"
         d="M -0.067,-0.074 H 659.629 V 217.192 H -0.067 Z"
         style="fill:#8ebae7;fill-opacity:1;fill-rule:evenodd;stroke:none"
         transform="matrix(1.3333333,0,0,-1.3333333,0,880)"
         clip-path="url(#clipPath20)" />
      <path
         id="path21"
         d="M 659.629,186.055 H -0.067 V 169.084 H 659.629 Z M -0.067,145.368 h 659.696 v -36.81 H -0.067 Z m 0,60.484 h 659.696 v -7.354 H -0.067 Z"
         style="fill:#afd3f1;fill-opacity:1;fill-rule:evenodd;stroke:none"
         transform="matrix(1.3333333,0,0,-1.3333333,0,880)"
         clip-path="url(#clipPath22)" />
      <path
         id="path23"
         d="M 0,0 551.319,78.741 V 0 Z"
         style="fill:#fbd050;fill-opacity:1;fill-rule:evenodd;stroke:none"
         transform="matrix(1.3333333,0,0,-1.3333333,144.4128,590.41147)"
         clip-path="url(#clipPath24)" />
      <path
         id="path25"
         d="M 0,0 551.319,16.414 V 0 Z"
         style="fill:#ffffff;fill-opacity:1;fill-rule:evenodd;stroke:none"
         transform="matrix(1.3333333,0,0,-1.3333333,144.4128,590.41147)"
         clip-path="url(#clipPath26)" />
      <path
         id="path27"
         d="M 0,0 400.04,25.519 V 57.135 Z"
         style="fill:#f2bc31;fill-opacity:1;fill-rule:evenodd;stroke:none"
         transform="matrix(1.3333333,0,0,-1.3333333,346.11853,561.6028)"
         clip-path="url(#clipPath28)" />
      <path
         id="path29"
         d="M 0,0 230.808,22.615 V 34.557 Z"
         style="fill:#3a7a32;fill-opacity:1;fill-rule:evenodd;stroke:none"
         transform="matrix(1.3333333,0,0,-1.3333333,571.76173,529.37493)"
         clip-path="url(#clipPath30)" />
      <path
         id="path31"
         d="m 0,0 c 76.709,-31.522 32.669,62.104 141.302,14.799 42.35,-18.441 2.632,48.951 105.249,-8.49 15.327,-8.58 96.268,28.286 53.596,-31.191 -24.499,-34.15 -87.339,48.4 -140.389,-0.453 C 125.982,-56.439 84.62,-8.11 26.032,-22.524 -11.143,-31.669 -14.625,9.634 0,0"
         style="fill:#ffffff;fill-opacity:1;fill-rule:evenodd;stroke:none"
         transform="matrix(1.3333333,0,0,-1.3333333,284.31187,101.2096)"
         clip-path="url(#clipPath32)" />
      <path
         id="path33"
         d="m 0,0 c 45.839,10.504 75.79,19.056 103.139,-7.802 11.031,-10.834 24.237,-10.253 34.633,-7.891 15.377,3.494 25.214,-3.835 12.187,-18.599 C 123.611,-64.154 62.708,-28.625 18.63,-39.891 -25.447,-51.157 -45.839,-10.503 0,0"
         style="fill:#ffffff;fill-opacity:1;fill-rule:evenodd;stroke:none"
         transform="matrix(1.3333333,0,0,-1.3333333,109.27347,265.93813)"
         clip-path="url(#clipPath34)" />
      <path
         id="path35"
         d="m 0,0 c -28.413,6.126 -52.326,-41.098 -38.954,-59.255 l 10.096,15.358 -6.176,6.415 8.151,-3.411 7.39,11.243 -7.33,5.015 8.77,-2.826 9.118,13.872 -4.067,4.218 4.944,-2.886 z"
         style="fill:#4da136;fill-opacity:1;fill-rule:evenodd;stroke:none"
         transform="matrix(1.3333333,0,0,-1.3333333,352.55213,270.10747)"
         clip-path="url(#clipPath36)" />
      <path
         id="path37"
         d="m 0,0 c 37.359,-32.425 40.963,-113.738 37.082,-206.828 11.537,1.648 23.075,3.296 34.611,4.944 C 65.38,-83.008 41.494,-20.32 5.761,5.947 1.139,9.344 -4.818,4.182 0,0"
         style="fill:#bd4c1f;fill-opacity:1;fill-rule:evenodd;stroke:none"
         transform="matrix(1.3333333,0,0,-1.3333333,334.2532,280.46547)"
         clip-path="url(#clipPath38)" />
      <path
         id="path39"
         d="m 0,0 9.81,1.401 c -6.113,115.09 -28.695,177.512 -62.553,205.208 l 11.233,-16.926 -3.241,-4.266 4.606,1.878 8.816,-15.071 -4.55,-4.094 6.697,1.046 6.724,-15.377 -7.052,-6.37 9.099,0.227 4.094,-17.515 -8.416,-5.915 10.009,0.911 2.957,-19.109 -10.009,-5.459 h 11.374 l 2.275,-21.838 -12.284,-6.825 13.193,0.684 2.233,-22.029 -14.289,-4.36 16.606,-0.909 2.957,-27.297 -18.881,-4.323 18.426,-0.681 z"
         style="fill:#7c2e19;fill-opacity:1;fill-rule:evenodd;stroke:none"
         transform="matrix(1.3333333,0,0,-1.3333333,416.76427,551.51307)"
         clip-path="url(#clipPath40)" />
      <path
         id="path41"
         d="m 0,0 c -47.228,9.22 -86.98,-61.857 -64.753,-89.184 l 16.783,23.115 -10.265,9.655 13.549,-5.132 12.286,16.92 -12.186,7.548 14.579,-4.253 15.159,20.878 -6.764,6.35 8.218,-4.345 z"
         style="fill:#70c82d;fill-opacity:1;fill-rule:evenodd;stroke:none"
         transform="matrix(1.3333333,0,0,-1.3333333,337.08467,275.32747)"
         clip-path="url(#clipPath42)" />
      <path
         id="path43"
         d="M 0,0 C 20.603,43.487 101.401,33.306 110.208,-0.801 L 81.643,-0.593 79.964,13.4 76.055,-0.552 55.147,-0.4 56.301,13.887 51.072,-0.371 25.274,-0.184 24.175,9.028 22.796,-0.165 Z"
         style="fill:#70c82d;fill-opacity:1;fill-rule:evenodd;stroke:none"
         transform="matrix(1.3333333,0,0,-1.3333333,328.0176,278.27147)"
         clip-path="url(#clipPath44)" />
      <path
         id="path45"
         d="M 0,0 C 15.615,4.267 27.171,10.442 27.478,16.594 L 1.096,12.467 2.566,6.365 -4.067,11.658 -23.379,8.637 -19.22,2.814 -27.14,8.049 -50.969,4.321 -49.993,0.305 -52.86,3.519 c 29.452,14.689 41.5,40.295 47.385,60.633 C 4.129,55.62 20.778,48.811 40.397,45.39 55.819,42.7 66.039,36.036 65.722,28.874 c -0.055,-1.263 0.071,-2.555 0.391,-3.863 3.45,-14.145 28.234,-25.965 58.186,-28.857 10.204,-5.333 21.717,-8.613 33.419,-8.993 2.557,-0.083 5.047,-0.024 7.461,0.166 22.339,1.764 46.613,-4.66 56.763,-15.025 12.115,-12.371 27.223,-20.329 42.216,-20.816 18.45,-0.599 32.279,10.259 38.031,27.178 2.865,8.419 16.874,14.014 35.138,14.52 V 106.408 H 215.554 18.281 h -7.519 -85.496 -35.21 -104.048 l 136.021,-8.82 c 0.05,-0.437 0.124,-0.877 0.234,-1.321 2.571,-10.547 21.148,-19.353 43.53,-21.429 0.287,-0.027 0.574,-0.056 0.86,-0.085 0.622,-32.365 -6.402,-59.47 -34.896,-72.448 l -2.646,-0.703 4.067,1.916 -9.119,6.296 -8.625,-1.26 -0.025,0.015 7.211,2.239 -7.39,5.105 -8.151,-1.549 6.175,2.913 -10.096,6.972 c -2.778,-1.712 -3.942,-3.995 -3.795,-6.512 l -13.438,-1.778 12.186,3.427 -12.285,7.68 -13.549,-2.33 10.265,4.384 -16.783,10.492 c -21.169,-11.814 13.881,-41.645 58.068,-40.841 0.682,-0.175 1.376,-0.336 2.076,-0.486 23.58,-17.587 99.495,-12.774 108.017,2.206 L 5.355,0.396 3.676,-5.955 Z m -21.541,-4.255 c 0.396,0.052 0.79,0.104 1.183,0.157 l 0.371,-2.079 z"
         style="fill:#74a6de;fill-opacity:1;fill-rule:evenodd;stroke:none"
         transform="matrix(1.3333333,0,0,-1.3333333,429.73573,732.28907)"
         clip-path="url(#clipPath46)" />
      <path
         id="path47"
         d="m 0,0 h -26.861 l 0.692,2.621 28.565,0.095 C 1.857,1.768 1.048,0.862 0,0 m 32.189,36.81 c 1.389,-1.819 2.097,-3.746 2.009,-5.711 C 34.144,29.836 34.27,28.544 34.59,27.235 37.578,14.98 56.588,4.47 81.097,0 h 224.707 v 36.81 z m -71.017,23.715 c 0.671,1.988 1.277,3.945 1.829,5.852 2.318,-2.059 5.047,-4.017 8.128,-5.852 h 334.675 v 0.341 1.769 1.769 1.769 1.769 1.77 1.768 1.77 1.768 1.77 0.708 H -69.614 c 1.28,-0.167 2.574,-0.312 3.884,-0.434 0.287,-0.027 0.574,-0.055 0.86,-0.085 0.108,-5.661 -0.018,-11.16 -0.45,-16.452 z m 7.305,-58.3 c 15.615,4.266 27.17,10.442 27.477,16.593 l -26.382,-4.127 1.471,-6.101 -6.633,5.293 -19.312,-3.022 4.159,-5.823 -7.921,5.235 -23.828,-3.727 0.976,-4.017 -2.867,3.214 c 16.025,7.993 26.895,19.217 34.426,31.067 h -20.15 C -75.127,22.823 -84.271,11.586 -99.766,4.529 l -2.647,-0.702 4.067,1.915 -9.118,6.297 -8.625,-1.262 -0.025,0.017 7.21,2.238 -7.39,5.106 -8.151,-1.549 6.175,2.913 -10.095,6.972 c -2.779,-1.712 -3.942,-3.996 -3.796,-6.512 l -13.437,-1.778 12.186,3.426 -12.285,7.681 -13.55,-2.33 10.266,4.384 -8.74,5.465 h -13.353 c -7.185,-13.597 24.569,-36.52 63.377,-35.815 0.683,-0.175 1.376,-0.336 2.076,-0.485 0.233,-0.174 0.479,-0.341 0.72,-0.51 h 74.751 z m -77.372,95.069 H 305.804 V 96.249 94.479 92.71 90.941 89.94 h -409.159 c -2.689,2.28 -4.598,4.756 -5.54,7.354"
         style="fill:#8ebae7;fill-opacity:1;fill-rule:evenodd;stroke:none"
         transform="matrix(1.3333333,0,0,-1.3333333,471.76693,735.2552)"
         clip-path="url(#clipPath48)" />
    </g>
  </g>
</svg>
