<?xml version="1.0" encoding="UTF-8" standalone="no"?>
<!-- Created with Inkscape (http://www.inkscape.org/) -->

<svg
   version="1.1"
   id="svg1"
   width="880"
   height="880"
   viewBox="0 0 880 880"
   sodipodi:docname="ufo-landing.svg"
   inkscape:version="1.3.2 (091e20e, 2023-11-25, custom)"
   xmlns:inkscape="http://www.inkscape.org/namespaces/inkscape"
   xmlns:sodipodi="http://sodipodi.sourceforge.net/DTD/sodipodi-0.dtd"
   xmlns="http://www.w3.org/2000/svg"
   xmlns:svg="http://www.w3.org/2000/svg">
  <defs
     id="defs1">
    <clipPath
       clipPathUnits="userSpaceOnUse"
       id="clipPath4">
      <path
         d="M 0,660 H 660 V 0 H 0 Z"
         transform="translate(-660.95411,-130.3828)"
         id="path4" />
    </clipPath>
    <clipPath
       clipPathUnits="userSpaceOnUse"
       id="clipPath6">
      <path
         d="M 0,660 H 660 V 0 H 0 Z"
         transform="translate(-465.76951,-488.60941)"
         id="path6" />
    </clipPath>
    <clipPath
       clipPathUnits="userSpaceOnUse"
       id="clipPath8">
      <path
         d="M 0,660 H 660 V 0 H 0 Z"
         transform="translate(-330.79251,-584.50681)"
         id="path8" />
    </clipPath>
    <clipPath
       clipPathUnits="userSpaceOnUse"
       id="clipPath10">
      <path
         d="M 0,660 H 660 V 0 H 0 Z"
         transform="translate(-330.79251,-386.77931)"
         id="path10" />
    </clipPath>
    <clipPath
       clipPathUnits="userSpaceOnUse"
       id="clipPath12">
      <path
         d="M 0,660 H 660 V 0 H 0 Z"
         transform="translate(-465.76951,-454.67481)"
         id="path12" />
    </clipPath>
    <clipPath
       clipPathUnits="userSpaceOnUse"
       id="clipPath14">
      <path
         d="M 0,660 H 660 V 0 H 0 Z"
         transform="translate(-465.76951,-455.77291)"
         id="path14" />
    </clipPath>
    <clipPath
       clipPathUnits="userSpaceOnUse"
       id="clipPath16">
      <path
         d="M 0,660 H 660 V 0 H 0 Z"
         transform="translate(-200.23491,-92.71)"
         id="path16" />
    </clipPath>
    <clipPath
       clipPathUnits="userSpaceOnUse"
       id="clipPath18">
      <path
         d="M 0,660 H 660 V 0 H 0 Z"
         transform="translate(-200.23491,-92.71)"
         id="path18" />
    </clipPath>
    <clipPath
       clipPathUnits="userSpaceOnUse"
       id="clipPath20">
      <path
         d="M 0,660 H 660 V 0 H 0 Z"
         transform="translate(-315.66651,-353.43311)"
         id="path20" />
    </clipPath>
    <clipPath
       clipPathUnits="userSpaceOnUse"
       id="clipPath22">
      <path
         d="M 0,660 H 660 V 0 H 0 Z"
         transform="translate(-388.21971,-353.46141)"
         id="path22" />
    </clipPath>
    <clipPath
       clipPathUnits="userSpaceOnUse"
       id="clipPath24">
      <path
         d="M 0,660 H 660 V 0 H 0 Z"
         transform="translate(-330.83061,-351.50931)"
         id="path24" />
    </clipPath>
    <clipPath
       clipPathUnits="userSpaceOnUse"
       id="clipPath26">
      <path
         d="M 0,660 H 660 V 0 H 0 Z"
         transform="translate(-318.97021,-289.2979)"
         id="path26" />
    </clipPath>
    <clipPath
       clipPathUnits="userSpaceOnUse"
       id="clipPath28">
      <path
         d="M 0,660 H 660 V 0 H 0 Z"
         transform="translate(-328.66551,-224.55571)"
         id="path28" />
    </clipPath>
    <clipPath
       clipPathUnits="userSpaceOnUse"
       id="clipPath30">
      <path
         d="M 0,660 H 660 V 0 H 0 Z"
         transform="translate(-328.66551,-239.9482)"
         id="path30" />
    </clipPath>
    <clipPath
       clipPathUnits="userSpaceOnUse"
       id="clipPath32">
      <path
         d="M 0,660 H 660 V 0 H 0 Z"
         transform="translate(-183.0391,-501.13481)"
         id="path32" />
    </clipPath>
    <clipPath
       clipPathUnits="userSpaceOnUse"
       id="clipPath34">
      <path
         d="M 0,660 H 660 V 0 H 0 Z"
         transform="translate(-160.9395,-494.24461)"
         id="path34" />
    </clipPath>
    <clipPath
       clipPathUnits="userSpaceOnUse"
       id="clipPath36">
      <path
         d="M 0,660 H 660 V 0 H 0 Z"
         transform="translate(-158.5068,-495.46091)"
         id="path36" />
    </clipPath>
    <clipPath
       clipPathUnits="userSpaceOnUse"
       id="clipPath38">
      <path
         d="M 0,660 H 660 V 0 H 0 Z"
         transform="translate(-137.292,-433.56351)"
         id="path38" />
    </clipPath>
    <clipPath
       clipPathUnits="userSpaceOnUse"
       id="clipPath40">
      <path
         d="M 0,660 H 660 V 0 H 0 Z"
         transform="translate(-114.92481,-373.36471)"
         id="path40" />
    </clipPath>
    <clipPath
       clipPathUnits="userSpaceOnUse"
       id="clipPath42">
      <path
         d="M 0,660 H 660 V 0 H 0 Z"
         transform="translate(-105.17331,-308.63281)"
         id="path42" />
    </clipPath>
    <clipPath
       clipPathUnits="userSpaceOnUse"
       id="clipPath44">
      <path
         d="M 0,660 H 660 V 0 H 0 Z"
         transform="translate(-105.17241,-324.02731)"
         id="path44" />
    </clipPath>
    <clipPath
       clipPathUnits="userSpaceOnUse"
       id="clipPath46">
      <path
         d="M 0,660 H 660 V 0 H 0 Z"
         transform="translate(-478.73341,-501.13481)"
         id="path46" />
    </clipPath>
    <clipPath
       clipPathUnits="userSpaceOnUse"
       id="clipPath48">
      <path
         d="M 0,660 H 660 V 0 H 0 Z"
         transform="translate(-500.98141,-494.24461)"
         id="path48" />
    </clipPath>
    <clipPath
       clipPathUnits="userSpaceOnUse"
       id="clipPath50">
      <path
         d="M 0,660 H 660 V 0 H 0 Z"
         transform="translate(-503.26661,-495.46091)"
         id="path50" />
    </clipPath>
    <clipPath
       clipPathUnits="userSpaceOnUse"
       id="clipPath52">
      <path
         d="M 0,660 H 660 V 0 H 0 Z"
         transform="translate(-524.48141,-433.56351)"
         id="path52" />
    </clipPath>
    <clipPath
       clipPathUnits="userSpaceOnUse"
       id="clipPath54">
      <path
         d="M 0,660 H 660 V 0 H 0 Z"
         transform="translate(-546.84961,-373.36471)"
         id="path54" />
    </clipPath>
    <clipPath
       clipPathUnits="userSpaceOnUse"
       id="clipPath56">
      <path
         d="M 0,660 H 660 V 0 H 0 Z"
         transform="translate(-556.60162,-308.63281)"
         id="path56" />
    </clipPath>
    <clipPath
       clipPathUnits="userSpaceOnUse"
       id="clipPath58">
      <path
         d="M 0,660 H 660 V 0 H 0 Z"
         transform="translate(-556.60162,-324.02731)"
         id="path58" />
    </clipPath>
    <clipPath
       clipPathUnits="userSpaceOnUse"
       id="clipPath60">
      <path
         d="M 0,660 H 660 V 0 H 0 Z"
         transform="translate(-330.83061,-57.624001)"
         id="path60" />
    </clipPath>
  </defs>
  <sodipodi:namedview
     id="namedview1"
     pagecolor="#ffffff"
     bordercolor="#000000"
     borderopacity="0.25"
     inkscape:showpageshadow="2"
     inkscape:pageopacity="0.0"
     inkscape:pagecheckerboard="0"
     inkscape:deskcolor="#d1d1d1"
     inkscape:zoom="0.67272727"
     inkscape:cx="439.25676"
     inkscape:cy="440"
     inkscape:window-width="1440"
     inkscape:window-height="830"
     inkscape:window-x="-6"
     inkscape:window-y="-6"
     inkscape:window-maximized="1"
     inkscape:current-layer="g1">
    <inkscape:page
       x="0"
       y="0"
       inkscape:label="1"
       id="page1"
       width="880"
       height="880"
       margin="0 0 0.164 1.0917161"
       bleed="0" />
  </sodipodi:namedview>
  <g
     id="g1"
     inkscape:groupmode="layer"
     inkscape:label="1">
    <g
       id="group-MC0">
      <path
         id="path2"
         d="M 0.819,0 H 660 V 659.877 H 0.819 Z"
         style="fill:#2f2825;fill-opacity:1;fill-rule:nonzero;stroke:none"
         transform="matrix(1.3333333,0,0,-1.3333333,0,880)" />
      <path
         id="path3"
         d="M 0,0 V -130.642 H -660.135 V 0 c 95.793,19.43 208.891,30.667 330.067,30.667 C -208.892,30.667 -95.793,19.43 0,0"
         style="fill:#181514;fill-opacity:1;fill-rule:evenodd;stroke:none"
         transform="matrix(1.3333333,0,0,-1.3333333,881.27213,706.15627)"
         clip-path="url(#clipPath4)" />
      <path
         id="path5"
         d="m 0,0 c -2.172,62.939 -61.767,113.387 -134.99,113.387 -73.595,0 -133.423,-50.962 -135.018,-114.346 -0.033,-0.358 -0.054,-0.717 -0.054,-1.077 0,-21.527 60.496,-38.978 135.122,-38.978 74.626,0 135.122,17.451 135.122,38.978 C 0.182,-1.353 0.12,-0.674 0,0"
         style="fill:#6599d7;fill-opacity:1;fill-rule:evenodd;stroke:none"
         transform="matrix(1.3333333,0,0,-1.3333333,621.026,228.5208)"
         clip-path="url(#clipPath6)" />
      <path
         id="path7"
         d="m 0,0 c 107.645,0 194.909,-38.663 194.909,-86.356 v -25.016 H 186.59 C 162.381,-146.865 88.008,-172.711 0,-172.711 c -88.008,0 -162.381,25.846 -186.591,61.339 h -8.317 v 25.016 C -194.908,-38.663 -107.644,0 0,0"
         style="fill:#607fa7;fill-opacity:1;fill-rule:evenodd;stroke:none"
         transform="matrix(1.3333333,0,0,-1.3333333,441.05667,100.6576)"
         clip-path="url(#clipPath8)" />
      <path
         id="path9"
         d="m 0,0 c 107.352,0 194.909,38.792 194.909,86.355 0,47.563 -87.557,86.356 -194.909,86.356 -107.351,0 -194.908,-38.793 -194.908,-86.356 C -194.908,38.792 -107.351,0 0,0"
         style="fill:#374b67;fill-opacity:1;fill-rule:evenodd;stroke:none"
         transform="matrix(1.3333333,0,0,-1.3333333,441.05667,364.29427)"
         clip-path="url(#clipPath10)" />
      <path
         id="path11"
         d="m 0,0 c -2.172,-64.622 -61.767,-116.42 -134.99,-116.42 -73.595,0 -133.423,52.325 -135.018,117.405 -0.033,0.368 -0.054,0.736 -0.054,1.106 0,0.143 0.013,0.286 0.019,0.429 0.008,-0.155 0.021,-0.309 0.035,-0.463 1.595,-63.383 61.423,-114.345 135.018,-114.345 73.223,0 132.818,50.449 134.99,113.386 C 0.082,1.564 0.138,2.032 0.164,2.502 0.169,2.365 0.182,2.228 0.182,2.091 0.182,1.389 0.12,0.693 0,0"
         style="fill:#fab40a;fill-opacity:1;fill-rule:evenodd;stroke:none"
         transform="matrix(1.3333333,0,0,-1.3333333,621.026,273.76693)"
         clip-path="url(#clipPath12)" />
      <path
         id="path13"
         d="m 0,0 c -2.172,-62.938 -61.767,-113.386 -134.99,-113.386 -73.595,0 -133.423,50.962 -135.018,114.345 -0.033,0.358 -0.054,0.717 -0.054,1.077 0,21.528 60.496,38.979 135.122,38.979 C -60.314,41.015 0.182,23.564 0.182,2.036 0.182,1.353 0.12,0.674 0,0"
         style="fill:#293a51;fill-opacity:1;fill-rule:evenodd;stroke:none"
         transform="matrix(1.3333333,0,0,-1.3333333,621.026,272.3028)"
         clip-path="url(#clipPath14)" />
      <path
         id="path15"
         d="M 0,0 76.927,274.002 H 184.263 L 261.003,0.792 Z"
         style="fill:#fab40a;fill-opacity:1;fill-rule:evenodd;stroke:none"
         transform="matrix(1.3333333,0,0,-1.3333333,266.97987,756.38667)"
         clip-path="url(#clipPath16)" />
      <path
         id="path17"
         d="m 0,0 18.264,65.055 c 36.458,2.157 74.016,3.285 112.387,3.285 38.341,0 75.87,-1.127 112.301,-3.281 L 261.003,0.792 Z"
         style="fill:#f39c0f;fill-opacity:1;fill-rule:evenodd;stroke:none"
         transform="matrix(1.3333333,0,0,-1.3333333,266.97987,756.38667)"
         clip-path="url(#clipPath18)" />
      <path
         id="path19"
         d="m 0,0 c 0.062,10.032 30.159,9.843 30.095,-0.188 l -0.397,-63.83 c -0.064,-10.031 -30.159,-9.844 -30.097,0.188 z"
         style="fill:#aca073;fill-opacity:1;fill-rule:evenodd;stroke:none"
         transform="matrix(1.3333333,0,0,-1.3333333,420.88867,408.75587)"
         clip-path="url(#clipPath20)" />
      <path
         id="path21"
         d="m 0,0 c -17.429,-7.103 -36.898,-11.075 -57.44,-11.075 -20.506,0 -39.941,3.96 -57.349,11.04 l 3.731,13.285 H -3.722 Z"
         style="fill:#c29d22;fill-opacity:1;fill-rule:evenodd;stroke:none"
         transform="matrix(1.3333333,0,0,-1.3333333,517.62627,408.71813)"
         clip-path="url(#clipPath22)" />
      <path
         id="path23"
         d="m 0,0 c 29.558,0 53.667,6.829 53.667,15.203 0,8.374 -24.109,15.204 -53.667,15.204 -29.56,0 -53.669,-6.83 -53.669,-15.204 C -53.669,6.829 -29.56,0 0,0"
         style="fill:#f9de1c;fill-opacity:1;fill-rule:evenodd;stroke:none"
         transform="matrix(1.3333333,0,0,-1.3333333,441.10747,411.32093)"
         clip-path="url(#clipPath24)" />
      <path
         id="path25"
         d="m 0,0 c 0.046,7.563 22.735,7.421 22.687,-0.141 l -0.3,-48.12 c -0.047,-7.564 -22.736,-7.422 -22.688,0.141 z"
         style="fill:#cec39a;fill-opacity:1;fill-rule:evenodd;stroke:none"
         transform="matrix(1.3333333,0,0,-1.3333333,425.2936,494.26947)"
         clip-path="url(#clipPath26)" />
      <path
         id="path27"
         d="M 0,0 C 9.714,0 17.636,7.922 17.636,17.635 17.636,27.35 9.714,35.271 0,35.271 -9.712,35.271 -17.634,27.35 -17.634,17.635 -17.634,7.922 -9.712,0 0,0"
         style="fill:#8d8358;fill-opacity:1;fill-rule:evenodd;stroke:none"
         transform="matrix(1.3333333,0,0,-1.3333333,438.22067,580.5924)"
         clip-path="url(#clipPath28)" />
      <path
         id="path29"
         d="m 0,0 c 6.114,0 11.099,4.056 11.099,9.028 0,4.971 -4.985,9.027 -11.099,9.027 -6.112,0 -11.098,-4.056 -11.098,-9.027 C -11.098,4.056 -6.112,0 0,0"
         style="fill:#aca073;fill-opacity:1;fill-rule:evenodd;stroke:none"
         transform="matrix(1.3333333,0,0,-1.3333333,438.22067,560.06907)"
         clip-path="url(#clipPath30)" />
      <path
         id="path31"
         d="m 0,0 c 14.499,-6.361 23.859,-16.975 20.906,-23.705 -2.953,-6.731 -17.1,-7.03 -31.6,-0.67 C -25.192,-18.013 -34.552,-7.4 -31.599,-0.669 -28.646,6.061 -14.498,6.361 0,0"
         style="fill:#1e2836;fill-opacity:1;fill-rule:evenodd;stroke:none"
         transform="matrix(1.3333333,0,0,-1.3333333,244.05213,211.82027)"
         clip-path="url(#clipPath32)" />
      <path
         id="path33"
         d="M 0,0 C 5.488,12.508 43.013,-3.957 37.525,-16.464 L 11.853,-74.979 c -1.254,-2.856 -4.182,-4.197 -7.883,-4.424 l -23.27,-53.038 c -0.884,-2.014 -2.897,-3.004 -5.461,-3.228 l -12.027,-27.411 c 0.705,-1.905 1.089,-3.962 1.089,-6.111 0,-9.739 -7.896,-17.636 -17.636,-17.636 -9.74,0 -17.636,7.897 -17.636,17.636 0,8.608 6.169,15.774 14.327,17.324 l 11.105,25.313 c -1.571,2.038 -2.206,4.192 -1.322,6.205 l 23.27,53.037 c -2.34,2.877 -3.336,5.94 -2.082,8.798 z"
         style="fill:#fab40a;fill-opacity:1;fill-rule:evenodd;stroke:none"
         transform="matrix(1.3333333,0,0,-1.3333333,214.586,221.0072)"
         clip-path="url(#clipPath34)" />
      <path
         id="path35"
         d="M 0,0 C 5.488,12.508 43.013,-3.956 37.525,-16.464 L 11.853,-74.978 c -5.488,-12.509 -43.013,3.955 -37.525,16.464 z"
         style="fill:#607fa7;fill-opacity:1;fill-rule:evenodd;stroke:none"
         transform="matrix(1.3333333,0,0,-1.3333333,211.3424,219.38547)"
         clip-path="url(#clipPath36)" />
      <path
         id="path37"
         d="M 0,0 C 4.03,9.187 31.591,-2.906 27.56,-12.091 L 1.914,-70.544 c -4.029,-9.186 -31.59,2.905 -27.559,12.092 z"
         style="fill:#7c9bc0;fill-opacity:1;fill-rule:evenodd;stroke:none"
         transform="matrix(1.3333333,0,0,-1.3333333,183.056,301.91533)"
         clip-path="url(#clipPath38)" />
      <path
         id="path39"
         d="M 0,0 C 3.038,6.926 23.816,-2.19 20.777,-9.115 L 1.444,-53.182 c -3.039,-6.926 -23.817,2.189 -20.778,9.115 z"
         style="fill:#9bb8de;fill-opacity:1;fill-rule:evenodd;stroke:none"
         transform="matrix(1.3333333,0,0,-1.3333333,153.23307,382.1804)"
         clip-path="url(#clipPath40)" />
      <path
         id="path41"
         d="M 0,0 C 9.713,0 17.635,7.924 17.635,17.637 17.635,27.35 9.713,35.273 0,35.273 -9.714,35.273 -17.636,27.35 -17.636,17.637 -17.636,7.924 -9.714,0 0,0"
         style="fill:#1e2836;fill-opacity:1;fill-rule:evenodd;stroke:none"
         transform="matrix(1.3333333,0,0,-1.3333333,140.23107,468.4896)"
         clip-path="url(#clipPath42)" />
      <path
         id="path43"
         d="m 0,0 c 6.113,0 11.099,4.054 11.099,9.026 0,4.972 -4.986,9.028 -11.099,9.028 -6.113,0 -11.099,-4.056 -11.099,-9.028 C -11.099,4.054 -6.113,0 0,0"
         style="fill:#2d3d54;fill-opacity:1;fill-rule:evenodd;stroke:none"
         transform="matrix(1.3333333,0,0,-1.3333333,140.22987,447.9636)"
         clip-path="url(#clipPath44)" />
      <path
         id="path45"
         d="m 0,0 c -14.498,-6.361 -23.857,-16.975 -20.903,-23.705 2.952,-6.731 17.098,-7.03 31.598,-0.67 C 25.192,-18.013 34.554,-7.4 31.6,-0.669 28.647,6.061 14.499,6.361 0,0"
         style="fill:#1e2836;fill-opacity:1;fill-rule:evenodd;stroke:none"
         transform="matrix(1.3333333,0,0,-1.3333333,638.3112,211.82027)"
         clip-path="url(#clipPath46)" />
      <path
         id="path47"
         d="m 0,0 c -5.488,12.508 -43.014,-3.957 -37.524,-16.464 l 25.67,-58.515 c 1.255,-2.856 4.182,-4.197 7.884,-4.424 l 23.27,-53.038 c 0.883,-2.014 2.897,-3.004 5.461,-3.228 l 12.027,-27.411 c -0.704,-1.905 -1.089,-3.962 -1.089,-6.111 0,-9.739 7.897,-17.636 17.636,-17.636 9.74,0 17.637,7.897 17.637,17.636 0,8.608 -6.17,15.774 -14.327,17.324 l -11.107,25.313 c 1.57,2.038 2.206,4.192 1.322,6.205 l -23.27,53.037 c 2.341,2.877 3.336,5.94 2.083,8.798 z"
         style="fill:#fab40a;fill-opacity:1;fill-rule:evenodd;stroke:none"
         transform="matrix(1.3333333,0,0,-1.3333333,667.9752,221.0072)"
         clip-path="url(#clipPath48)" />
      <path
         id="path49"
         d="m 0,0 c -5.488,12.508 -43.013,-3.956 -37.526,-16.464 l 25.674,-58.514 c 5.486,-12.509 43.012,3.955 37.525,16.464 z"
         style="fill:#607fa7;fill-opacity:1;fill-rule:evenodd;stroke:none"
         transform="matrix(1.3333333,0,0,-1.3333333,671.02213,219.38547)"
         clip-path="url(#clipPath50)" />
      <path
         id="path51"
         d="m 0,0 c -4.03,9.187 -31.59,-2.906 -27.56,-12.091 l 25.645,-58.453 c 4.03,-9.186 31.592,2.905 27.561,12.092 z"
         style="fill:#7c9bc0;fill-opacity:1;fill-rule:evenodd;stroke:none"
         transform="matrix(1.3333333,0,0,-1.3333333,699.30853,301.91533)"
         clip-path="url(#clipPath52)" />
      <path
         id="path53"
         d="m 0,0 c -3.04,6.926 -23.816,-2.19 -20.779,-9.115 l 19.336,-44.067 c 3.037,-6.926 23.814,2.189 20.776,9.115 z"
         style="fill:#9bb8de;fill-opacity:1;fill-rule:evenodd;stroke:none"
         transform="matrix(1.3333333,0,0,-1.3333333,729.1328,382.1804)"
         clip-path="url(#clipPath54)" />
      <path
         id="path55"
         d="M 0,0 C 9.713,0 17.635,7.924 17.635,17.637 17.635,27.35 9.713,35.273 0,35.273 -9.714,35.273 -17.636,27.35 -17.636,17.637 -17.636,7.924 -9.714,0 0,0"
         style="fill:#1e2836;fill-opacity:1;fill-rule:evenodd;stroke:none"
         transform="matrix(1.3333333,0,0,-1.3333333,742.13547,468.4896)"
         clip-path="url(#clipPath56)" />
      <path
         id="path57"
         d="m 0,0 c 6.112,0 11.098,4.054 11.098,9.026 0,4.972 -4.986,9.028 -11.098,9.028 -6.113,0 -11.098,-4.056 -11.098,-9.028 C -11.098,4.054 -6.113,0 0,0"
         style="fill:#2d3d54;fill-opacity:1;fill-rule:evenodd;stroke:none"
         transform="matrix(1.3333333,0,0,-1.3333333,742.13547,447.9636)"
         clip-path="url(#clipPath58)" />
      <path
         id="path59"
         d="M 0,0 C 72.014,0 130.748,15.023 130.748,33.447 130.748,51.868 72.014,66.894 0,66.894 -72.015,66.894 -130.75,51.868 -130.75,33.447 -130.75,15.023 -72.015,0 0,0"
         style="fill:#f9de1c;fill-opacity:1;fill-rule:evenodd;stroke:none"
         transform="matrix(1.3333333,0,0,-1.3333333,441.10747,803.168)"
         clip-path="url(#clipPath60)" />
    </g>
  </g>
</svg>
