<?xml version="1.0" encoding="UTF-8" standalone="no"?>
<!-- Created with Inkscape (http://www.inkscape.org/) -->

<svg
   version="1.1"
   id="svg1"
   width="880"
   height="880"
   viewBox="0 0 880 880"
   sodipodi:docname="road-winter-landscape.svg"
   inkscape:version="1.3.2 (091e20e, 2023-11-25, custom)"
   xmlns:inkscape="http://www.inkscape.org/namespaces/inkscape"
   xmlns:sodipodi="http://sodipodi.sourceforge.net/DTD/sodipodi-0.dtd"
   xmlns="http://www.w3.org/2000/svg"
   xmlns:svg="http://www.w3.org/2000/svg">
  <defs
     id="defs1">
    <clipPath
       clipPathUnits="userSpaceOnUse"
       id="clipPath4">
      <path
         d="M 0,660 H 660 V 0 H 0 Z"
         transform="translate(-490.49221,-656.49952)"
         id="path4" />
    </clipPath>
    <clipPath
       clipPathUnits="userSpaceOnUse"
       id="clipPath6">
      <path
         d="M 0,660 H 660 V 0 H 0 Z"
         transform="translate(-660.45701,-457.12301)"
         id="path6" />
    </clipPath>
    <clipPath
       clipPathUnits="userSpaceOnUse"
       id="clipPath8">
      <path
         d="M 0,660 H 660 V 0 H 0 Z"
         transform="translate(-660.45701,-326.01951)"
         id="path8" />
    </clipPath>
    <clipPath
       clipPathUnits="userSpaceOnUse"
       id="clipPath10">
      <path
         d="M 0,660 H 660 V 0 H 0 Z"
         transform="translate(-1.731,-293.84281)"
         id="path10" />
    </clipPath>
    <clipPath
       clipPathUnits="userSpaceOnUse"
       id="clipPath12">
      <path
         d="M 0,660 H 660 V 0 H 0 Z"
         transform="translate(-659.37701,-134.6865)"
         id="path12" />
    </clipPath>
    <clipPath
       clipPathUnits="userSpaceOnUse"
       id="clipPath14">
      <path
         d="M 0,660 H 660 V 0 H 0 Z"
         transform="translate(-660.45701,-270.4219)"
         id="path14" />
    </clipPath>
    <clipPath
       clipPathUnits="userSpaceOnUse"
       id="clipPath16">
      <path
         d="M 0,660 H 660 V 0 H 0 Z"
         transform="translate(-1.731,-285.08691)"
         id="path16" />
    </clipPath>
    <clipPath
       clipPathUnits="userSpaceOnUse"
       id="clipPath18">
      <path
         d="M 0,660 H 660 V 0 H 0 Z"
         transform="translate(-1.731,-389.59181)"
         id="path18" />
    </clipPath>
    <clipPath
       clipPathUnits="userSpaceOnUse"
       id="clipPath20">
      <path
         d="M 0,660 H 660 V 0 H 0 Z"
         transform="translate(-1.731,-391.15771)"
         id="path20" />
    </clipPath>
    <clipPath
       clipPathUnits="userSpaceOnUse"
       id="clipPath22">
      <path
         d="M 0,660 H 660 V 0 H 0 Z"
         transform="translate(-660.45701,-36.532201)"
         id="path22" />
    </clipPath>
    <clipPath
       clipPathUnits="userSpaceOnUse"
       id="clipPath24">
      <path
         d="M 0,660 H 660 V 0 H 0 Z"
         transform="translate(-490.49221,-627.92292)"
         id="path24" />
    </clipPath>
    <clipPath
       clipPathUnits="userSpaceOnUse"
       id="clipPath26">
      <path
         d="M 0,660 H 660 V 0 H 0 Z"
         transform="translate(-490.49221,-599.34571)"
         id="path26" />
    </clipPath>
    <clipPath
       clipPathUnits="userSpaceOnUse"
       id="clipPath28">
      <path
         d="M 0,660 H 660 V 0 H 0 Z"
         transform="translate(-44.665001,-240.54981)"
         id="path28" />
    </clipPath>
    <clipPath
       clipPathUnits="userSpaceOnUse"
       id="clipPath30">
      <path
         d="M 0,660 H 660 V 0 H 0 Z"
         transform="translate(-611.51561,-250.0186)"
         id="path30" />
    </clipPath>
    <clipPath
       clipPathUnits="userSpaceOnUse"
       id="clipPath32">
      <path
         d="M 0,660 H 660 V 0 H 0 Z"
         id="path32" />
    </clipPath>
    <clipPath
       clipPathUnits="userSpaceOnUse"
       id="clipPath34">
      <path
         d="M 0,660 H 660 V 0 H 0 Z"
         transform="translate(-37.077101,-127.97271)"
         id="path34" />
    </clipPath>
    <clipPath
       clipPathUnits="userSpaceOnUse"
       id="clipPath36">
      <path
         d="M 0,660 H 660 V 0 H 0 Z"
         transform="translate(-16.424301,-300.68071)"
         id="path36" />
    </clipPath>
    <clipPath
       clipPathUnits="userSpaceOnUse"
       id="clipPath38">
      <path
         d="M 0,660 H 660 V 0 H 0 Z"
         transform="translate(-289.2046,-293.6797)"
         id="path38" />
    </clipPath>
    <clipPath
       clipPathUnits="userSpaceOnUse"
       id="clipPath40">
      <path
         d="M 0,660 H 660 V 0 H 0 Z"
         transform="translate(-436.07911,-300.68071)"
         id="path40" />
    </clipPath>
    <clipPath
       clipPathUnits="userSpaceOnUse"
       id="clipPath42">
      <path
         d="M 0,660 H 660 V 0 H 0 Z"
         transform="translate(-535.07812,-293.6797)"
         id="path42" />
    </clipPath>
    <clipPath
       clipPathUnits="userSpaceOnUse"
       id="clipPath44">
      <path
         d="M 0,660 H 660 V 0 H 0 Z"
         id="path44" />
    </clipPath>
    <clipPath
       clipPathUnits="userSpaceOnUse"
       id="clipPath46">
      <path
         d="M 0,660 H 660 V 0 H 0 Z"
         transform="translate(-575.58691,-459.59811)"
         id="path46" />
    </clipPath>
    <clipPath
       clipPathUnits="userSpaceOnUse"
       id="clipPath48">
      <path
         d="M 0,660 H 660 V 0 H 0 Z"
         id="path48" />
    </clipPath>
    <clipPath
       clipPathUnits="userSpaceOnUse"
       id="clipPath50">
      <path
         d="M 0,660 H 660 V 0 H 0 Z"
         transform="translate(-570.02542,-421.88481)"
         id="path50" />
    </clipPath>
    <clipPath
       clipPathUnits="userSpaceOnUse"
       id="clipPath52">
      <path
         d="M 0,660 H 660 V 0 H 0 Z"
         id="path52" />
    </clipPath>
    <clipPath
       clipPathUnits="userSpaceOnUse"
       id="clipPath54">
      <path
         d="M 0,660 H 660 V 0 H 0 Z"
         id="path54" />
    </clipPath>
    <clipPath
       clipPathUnits="userSpaceOnUse"
       id="clipPath56">
      <path
         d="M 0,660 H 660 V 0 H 0 Z"
         transform="translate(-324.24511,-459.59811)"
         id="path56" />
    </clipPath>
    <clipPath
       clipPathUnits="userSpaceOnUse"
       id="clipPath58">
      <path
         d="M 0,660 H 660 V 0 H 0 Z"
         id="path58" />
    </clipPath>
    <clipPath
       clipPathUnits="userSpaceOnUse"
       id="clipPath60">
      <path
         d="M 0,660 H 660 V 0 H 0 Z"
         transform="translate(-318.68701,-421.88481)"
         id="path60" />
    </clipPath>
    <clipPath
       clipPathUnits="userSpaceOnUse"
       id="clipPath62">
      <path
         d="M 0,660 H 660 V 0 H 0 Z"
         id="path62" />
    </clipPath>
    <clipPath
       clipPathUnits="userSpaceOnUse"
       id="clipPath64">
      <path
         d="M 0,660 H 660 V 0 H 0 Z"
         id="path64" />
    </clipPath>
    <clipPath
       clipPathUnits="userSpaceOnUse"
       id="clipPath66">
      <path
         d="M 0,660 H 660 V 0 H 0 Z"
         transform="translate(-72.906302,-459.59811)"
         id="path66" />
    </clipPath>
    <clipPath
       clipPathUnits="userSpaceOnUse"
       id="clipPath68">
      <path
         d="M 0,660 H 660 V 0 H 0 Z"
         id="path68" />
    </clipPath>
    <clipPath
       clipPathUnits="userSpaceOnUse"
       id="clipPath70">
      <path
         d="M 0,660 H 660 V 0 H 0 Z"
         transform="translate(-67.346702,-421.88481)"
         id="path70" />
    </clipPath>
    <clipPath
       clipPathUnits="userSpaceOnUse"
       id="clipPath72">
      <path
         d="M 0,660 H 660 V 0 H 0 Z"
         id="path72" />
    </clipPath>
    <clipPath
       clipPathUnits="userSpaceOnUse"
       id="clipPath74">
      <path
         d="M 0,660 H 660 V 0 H 0 Z"
         transform="translate(-1.731,-393.95651)"
         id="path74" />
    </clipPath>
    <clipPath
       clipPathUnits="userSpaceOnUse"
       id="clipPath76">
      <path
         d="M 0,660 H 660 V 0 H 0 Z"
         transform="translate(-1.731,-395.52251)"
         id="path76" />
    </clipPath>
    <clipPath
       clipPathUnits="userSpaceOnUse"
       id="clipPath78">
      <path
         d="M 0,660 H 660 V 0 H 0 Z"
         id="path78" />
    </clipPath>
    <clipPath
       clipPathUnits="userSpaceOnUse"
       id="clipPath80">
      <path
         d="M 0,660 H 660 V 0 H 0 Z"
         transform="translate(-546.11332,-404.61671)"
         id="path80" />
    </clipPath>
    <clipPath
       clipPathUnits="userSpaceOnUse"
       id="clipPath82">
      <path
         d="M 0,660 H 660 V 0 H 0 Z"
         id="path82" />
    </clipPath>
    <clipPath
       clipPathUnits="userSpaceOnUse"
       id="clipPath84">
      <path
         d="M 0,660 H 660 V 0 H 0 Z"
         transform="translate(-597.30961,-404.61671)"
         id="path84" />
    </clipPath>
    <clipPath
       clipPathUnits="userSpaceOnUse"
       id="clipPath86">
      <path
         d="M 0,660 H 660 V 0 H 0 Z"
         id="path86" />
    </clipPath>
    <clipPath
       clipPathUnits="userSpaceOnUse"
       id="clipPath88">
      <path
         d="M 0,660 H 660 V 0 H 0 Z"
         transform="translate(-294.7729,-404.61671)"
         id="path88" />
    </clipPath>
    <clipPath
       clipPathUnits="userSpaceOnUse"
       id="clipPath90">
      <path
         d="M 0,660 H 660 V 0 H 0 Z"
         id="path90" />
    </clipPath>
    <clipPath
       clipPathUnits="userSpaceOnUse"
       id="clipPath92">
      <path
         d="M 0,660 H 660 V 0 H 0 Z"
         transform="translate(-345.96781,-404.61671)"
         id="path92" />
    </clipPath>
    <clipPath
       clipPathUnits="userSpaceOnUse"
       id="clipPath94">
      <path
         d="M 0,660 H 660 V 0 H 0 Z"
         id="path94" />
    </clipPath>
    <clipPath
       clipPathUnits="userSpaceOnUse"
       id="clipPath96">
      <path
         d="M 0,660 H 660 V 0 H 0 Z"
         transform="translate(-43.433601,-404.61671)"
         id="path96" />
    </clipPath>
    <clipPath
       clipPathUnits="userSpaceOnUse"
       id="clipPath98">
      <path
         d="M 0,660 H 660 V 0 H 0 Z"
         id="path98" />
    </clipPath>
    <clipPath
       clipPathUnits="userSpaceOnUse"
       id="clipPath100">
      <path
         d="M 0,660 H 660 V 0 H 0 Z"
         transform="translate(-94.628402,-404.61671)"
         id="path100" />
    </clipPath>
    <clipPath
       clipPathUnits="userSpaceOnUse"
       id="clipPath102">
      <path
         d="M 0,660 H 660 V 0 H 0 Z"
         transform="translate(-28.9126,-140.7793)"
         id="path102" />
    </clipPath>
    <clipPath
       clipPathUnits="userSpaceOnUse"
       id="clipPath104">
      <path
         d="M 0,660 H 660 V 0 H 0 Z"
         transform="translate(-82.619605,-140.7793)"
         id="path104" />
    </clipPath>
    <clipPath
       clipPathUnits="userSpaceOnUse"
       id="clipPath106">
      <path
         d="M 0,660 H 660 V 0 H 0 Z"
         transform="translate(-136.3267,-140.7793)"
         id="path106" />
    </clipPath>
    <clipPath
       clipPathUnits="userSpaceOnUse"
       id="clipPath108">
      <path
         d="M 0,660 H 660 V 0 H 0 Z"
         transform="translate(-190.0342,-140.7793)"
         id="path108" />
    </clipPath>
    <clipPath
       clipPathUnits="userSpaceOnUse"
       id="clipPath110">
      <path
         d="M 0,660 H 660 V 0 H 0 Z"
         transform="translate(-243.7417,-140.7793)"
         id="path110" />
    </clipPath>
    <clipPath
       clipPathUnits="userSpaceOnUse"
       id="clipPath112">
      <path
         d="M 0,660 H 660 V 0 H 0 Z"
         transform="translate(-297.44821,-140.7793)"
         id="path112" />
    </clipPath>
    <clipPath
       clipPathUnits="userSpaceOnUse"
       id="clipPath114">
      <path
         d="M 0,660 H 660 V 0 H 0 Z"
         transform="translate(-351.15631,-140.7793)"
         id="path114" />
    </clipPath>
    <clipPath
       clipPathUnits="userSpaceOnUse"
       id="clipPath116">
      <path
         d="M 0,660 H 660 V 0 H 0 Z"
         transform="translate(-404.86231,-140.7793)"
         id="path116" />
    </clipPath>
    <clipPath
       clipPathUnits="userSpaceOnUse"
       id="clipPath118">
      <path
         d="M 0,660 H 660 V 0 H 0 Z"
         transform="translate(-458.57031,-140.7793)"
         id="path118" />
    </clipPath>
    <clipPath
       clipPathUnits="userSpaceOnUse"
       id="clipPath120">
      <path
         d="M 0,660 H 660 V 0 H 0 Z"
         transform="translate(-512.27641,-140.7793)"
         id="path120" />
    </clipPath>
    <clipPath
       clipPathUnits="userSpaceOnUse"
       id="clipPath122">
      <path
         d="M 0,660 H 660 V 0 H 0 Z"
         transform="translate(-565.98541,-140.7793)"
         id="path122" />
    </clipPath>
    <clipPath
       clipPathUnits="userSpaceOnUse"
       id="clipPath124">
      <path
         d="M 0,660 H 660 V 0 H 0 Z"
         transform="translate(-619.69241,-140.7793)"
         id="path124" />
    </clipPath>
    <clipPath
       clipPathUnits="userSpaceOnUse"
       id="clipPath126">
      <path
         d="M 0,660 H 660 V 0 H 0 Z"
         id="path126" />
    </clipPath>
    <clipPath
       clipPathUnits="userSpaceOnUse"
       id="clipPath128">
      <path
         d="M 0,660 H 660 V 0 H 0 Z"
         id="path128" />
    </clipPath>
    <clipPath
       clipPathUnits="userSpaceOnUse"
       id="clipPath130">
      <path
         d="M 0,660 H 660 V 0 H 0 Z"
         transform="translate(-568.27732,-196.873)"
         id="path130" />
    </clipPath>
  </defs>
  <sodipodi:namedview
     id="namedview1"
     pagecolor="#ffffff"
     bordercolor="#000000"
     borderopacity="0.25"
     inkscape:showpageshadow="2"
     inkscape:pageopacity="0.0"
     inkscape:pagecheckerboard="0"
     inkscape:deskcolor="#d1d1d1"
     inkscape:zoom="0.67272727"
     inkscape:cx="439.25676"
     inkscape:cy="440"
     inkscape:window-width="1440"
     inkscape:window-height="830"
     inkscape:window-x="-6"
     inkscape:window-y="-6"
     inkscape:window-maximized="1"
     inkscape:current-layer="g1">
    <inkscape:page
       x="0"
       y="0"
       inkscape:label="1"
       id="page1"
       width="880"
       height="880"
       margin="0.63545734 0 1.0613333 2.3079867"
       bleed="0" />
  </sodipodi:namedview>
  <g
     id="g1"
     inkscape:groupmode="layer"
     inkscape:label="1">
    <g
       id="group-MC0">
      <path
         id="path2"
         d="m 0,0 v -112.479 -476.768 -69.479 H 658.269 V 0 Z"
         style="fill:#f7efed;fill-opacity:1;fill-rule:nonzero;stroke:none"
         transform="matrix(1.3333333,0,0,-1.3333333,2.3076,1.0624)" />
      <path
         id="path3"
         d="m 0,0 c 53.984,0 97.747,-43.763 97.747,-97.748 0,-53.985 -43.763,-97.748 -97.747,-97.748 -53.985,0 -97.749,43.763 -97.749,97.748 C -97.749,-43.763 -53.985,0 0,0"
         style="fill:#f7efed;fill-opacity:1;fill-rule:evenodd;stroke:none"
         transform="matrix(1.3333333,0,0,-1.3333333,653.9896,4.6673333)"
         clip-path="url(#clipPath4)" />
      <path
         id="path5"
         d="m 0,0 v -286.707 l -658.726,70.695 v 157.131 l 27.249,47.119 49.86,-105.558 44.926,79.073 62.28,-121.356 87.508,196.393 73.941,-147.832 76.887,131.982 60.448,-128.426 34.374,60.158 58.404,-100.993 z"
         style="fill:#eadbee;fill-opacity:1;fill-rule:evenodd;stroke:none"
         transform="matrix(1.3333333,0,0,-1.3333333,880.60933,270.50267)"
         clip-path="url(#clipPath6)" />
      <path
         id="path7"
         d="m 0,0 v -51.616 l -658.726,4.44 v 42.458 l 73.58,155.841 68.26,-144.571 61.709,130.697 64.418,-136.434 78.142,165.5 80.414,-170.312 44.043,93.284 42.366,-89.731 73.002,154.614 z"
         style="fill:#cfb8d8;fill-opacity:1;fill-rule:evenodd;stroke:none"
         transform="matrix(1.3333333,0,0,-1.3333333,880.60933,445.30733)"
         clip-path="url(#clipPath8)" />
      <path
         id="path9"
         d="M 0,0 H 658.726 V -293.366 H 0 v 69.639 26.462 z"
         style="fill:#eadbee;fill-opacity:1;fill-rule:evenodd;stroke:none"
         transform="matrix(1.3333333,0,0,-1.3333333,2.308,488.2096)"
         clip-path="url(#clipPath10)" />
      <path
         id="path11"
         d="m 0,0 v -3.175 c -15.674,-0.675 -31.315,-1.549 -46.956,-2.634 0.043,-0.219 0.082,-0.436 0.121,-0.655 0.061,-0.326 -0.41,-0.601 -1.06,-0.731 0.071,-0.385 0.141,-0.762 0.208,-1.139 0.976,0 2.028,-0.003 3.079,-0.003 0.18,-0.941 0.357,-1.872 0.537,-2.822 2.971,-0.152 4.617,-0.085 4.771,-0.858 0.151,-0.773 -10.13,-2.069 -25,-2.443 0.523,-3.365 1.054,-6.762 1.588,-10.189 2.407,-0.101 3.917,0.095 4.243,-1.914 0.326,-2.011 -4.903,-4.809 -11.994,-4.8 -7.088,0.006 -13.043,2.814 -13.291,4.824 -0.247,2.011 1.243,1.812 3.697,1.906 -0.432,3.369 -0.862,6.695 -1.211,10.001 -21.402,0.082 -38.51,1.749 -38.572,2.68 -0.061,0.931 1.611,0.711 4.468,0.857 -0.07,0.951 -0.141,1.881 -0.211,2.821 2.331,-0.003 4.658,-0.003 7.059,-0.006 -0.031,0.365 -0.064,0.751 -0.095,1.127 -0.838,0.14 -1.31,0.419 -1.338,0.745 -0.017,0.208 -0.034,0.417 -0.054,0.633 -38.942,2.359 -77.629,3.905 -116.377,4.459 -35.283,-0.455 -70.897,-1.819 -107.046,-4.248 -0.064,-0.228 -0.123,-0.445 -0.184,-0.661 -0.09,-0.318 -0.618,-0.602 -1.404,-0.731 -0.107,-0.385 -0.214,-0.759 -0.318,-1.133 1.052,-0.003 2.103,-0.003 3.155,-0.003 -0.259,-0.93 -0.518,-1.867 -0.779,-2.805 2.826,-0.162 4.414,-0.428 4.296,-0.864 -0.298,-1.105 -11.093,-2.063 -25.996,-2.435 -1.037,-3.354 -2.086,-6.731 -3.143,-10.147 2.359,-0.109 3.767,-0.546 3.353,-1.906 -0.882,-2.645 -7.225,-4.794 -14.158,-4.785 -7.012,0.009 -11.957,2.165 -11.049,4.81 0.469,1.361 2.162,1.794 4.585,1.901 1.132,3.354 2.327,6.672 3.433,9.956 -21.218,0.081 -37.599,1.26 -37.034,2.68 0.175,0.435 1.864,0.699 4.867,0.845 0.368,0.946 0.734,1.884 1.099,2.812 2.254,-0.003 4.582,-0.006 6.911,-0.008 0.14,0.376 0.284,0.75 0.428,1.136 -0.625,0.129 -1.042,0.416 -0.92,0.73 0.079,0.208 0.161,0.425 0.244,0.633 -37.567,2.348 -75.401,3.889 -113.609,4.434 -35.207,-0.445 -71.32,-1.814 -108.311,-4.226 -0.167,-0.225 -0.33,-0.441 -0.487,-0.649 -0.242,-0.321 -0.974,-0.608 -1.745,-0.737 -0.283,-0.374 -0.567,-0.757 -0.842,-1.122 0.976,0 2.027,0 3.079,-0.003 -0.691,-0.933 -1.383,-1.869 -2.081,-2.802 2.678,-0.161 4.391,-0.088 3.824,-0.861 -0.568,-0.773 -11.903,-2.047 -26.985,-2.427 -2.591,-3.345 -5.209,-6.708 -7.848,-10.113 2.388,-0.1 4.008,0.105 2.47,-1.891 -1.01,-1.311 -4.692,-2.958 -9.063,-3.931 v 28.064 c 2.402,-0.118 4.803,-0.236 7.201,-0.359 10.335,12.865 20.22,25.205 29.749,37.019 9.175,11.379 17.976,22.279 26.42,32.802 h 4.413 10.079 c -8.095,-10.436 -16.477,-21.277 -25.244,-32.523 -9.148,-11.733 -18.657,-23.932 -28.545,-36.663 34.67,1.566 68.415,2.23 101.609,2.103 7.765,-0.025 15.431,-0.09 23.155,-0.194 11.492,0.138 22.858,0.197 34.173,0.16 36.029,-0.126 71.636,-1.152 107.036,-2.93 4.426,12.909 8.569,25.296 12.602,37.147 3.884,11.407 7.614,22.351 11.235,32.9 h 4.479 0.132 0.067 0.131 0.131 0.132 0.067 0.131 0.198 0.065 0.067 0.131 0.198 0.065 0.067 0.131 0.066 0.132 0.065 0.132 0.067 0.065 0.132 0.065 0.132 0.066 0.066 0.197 0.132 0.066 0.133 0.066 0.065 0.131 0.066 0.133 0.066 0.065 0.198 0.132 0.066 0.064 0.199 0.132 0.066 0.132 0.131 0.198 0.132 0.131 0.198 0.132 0.131 0.066 0.132 0.133 0.13 0.066 0.132 0.197 0.066 0.066 0.133 0.064 0.132 0.066 0.066 0.133 0.064 0.132 0.066 0.133 0.065 0.065 0.199 0.132 0.066 0.066 0.197 0.132 0.066 0.132 0.131 0.132 0.066 0.132 0.131 0.198 0.132 0.131 0.066 0.132 c -3.309,-10.462 -6.711,-21.307 -10.251,-32.61 -3.68,-11.755 -7.445,-24.014 -11.479,-36.798 34.077,1.571 67.8,2.238 101.259,2.111 7.775,-0.025 15.546,-0.089 23.313,-0.196 11.498,0.141 22.983,0.199 34.388,0.163 36.293,-0.13 72.515,-1.159 109.023,-2.93 -1.667,12.95 -3.267,25.358 -4.799,37.259 -1.474,11.438 -2.821,22.427 -4.181,33.001 h 4.479 10.276 c 1.637,-10.487 3.334,-21.381 5.103,-32.709 1.841,-11.797 3.689,-24.094 5.69,-36.921 C -44.181,-0.931 -22.127,-0.29 0,0"
         style="fill:#b394c0;fill-opacity:1;fill-rule:evenodd;stroke:none"
         transform="matrix(1.3333333,0,0,-1.3333333,879.16933,700.418)"
         clip-path="url(#clipPath12)" />
      <path
         id="path13"
         d="M 0,0 -531.483,-2.441 0,-4.836 Z"
         style="fill:#d6c0dc;fill-opacity:1;fill-rule:evenodd;stroke:none"
         transform="matrix(1.3333333,0,0,-1.3333333,880.60933,519.43747)"
         clip-path="url(#clipPath14)" />
      <path
         id="path15"
         d="M 0,0 530.404,-2.441 0,-4.836 Z"
         style="fill:#dfcee5;fill-opacity:1;fill-rule:evenodd;stroke:none"
         transform="matrix(1.3333333,0,0,-1.3333333,2.308,499.88413)"
         clip-path="url(#clipPath16)" />
      <path
         id="path17"
         d="m 0,0 c 30.981,1.609 61.893,5.15 92.75,10.253 l 0.18,0.03 0.175,-0.034 c 42.14,-8.074 84.098,-11.512 125.907,-11.212 41.814,0.299 83.497,4.339 125.078,11.216 l 0.179,0.03 0.176,-0.034 c 42.14,-8.074 84.097,-11.512 125.907,-11.212 41.812,0.299 83.497,4.339 125.077,11.216 l 0.18,0.03 0.175,-0.034 C 616.808,6.22 637.788,3.346 658.726,1.515 V -0.528 C 637.718,1.304 616.667,4.181 595.579,8.216 553.97,1.342 512.241,-2.695 470.36,-2.995 428.471,-3.296 386.439,0.142 344.238,8.216 302.629,1.342 260.902,-2.695 219.02,-2.995 177.13,-3.296 135.1,0.142 92.898,8.216 62.002,3.112 31.042,-0.428 0,-2.035 Z"
         style="fill:#463d3b;fill-opacity:1;fill-rule:evenodd;stroke:none"
         transform="matrix(1.3333333,0,0,-1.3333333,2.308,360.54427)"
         clip-path="url(#clipPath18)" />
      <path
         id="path19"
         d="m 0,0 c 30.981,1.609 61.893,5.15 92.75,10.254 l 0.18,0.029 0.175,-0.033 c 42.14,-8.076 84.098,-11.514 125.907,-11.214 41.814,0.3 83.497,4.34 125.078,11.218 l 0.179,0.029 0.176,-0.033 c 42.14,-8.076 84.097,-11.514 125.907,-11.214 41.812,0.3 83.497,4.34 125.077,11.218 l 0.18,0.029 0.175,-0.033 C 616.808,6.221 637.788,3.346 658.726,1.515 V -0.528 C 637.718,1.303 616.667,4.18 595.579,8.215 553.97,1.342 512.241,-2.695 470.36,-2.996 428.471,-3.296 386.439,0.141 344.238,8.215 302.629,1.342 260.902,-2.695 219.02,-2.996 177.13,-3.296 135.1,0.141 92.898,8.215 62.002,3.112 31.042,-0.427 0,-2.035 Z"
         style="fill:#ffffff;fill-opacity:1;fill-rule:evenodd;stroke:none"
         transform="matrix(1.3333333,0,0,-1.3333333,2.308,358.4564)"
         clip-path="url(#clipPath20)" />
      <path
         id="path21"
         d="m 0,0 v -36.056 h -605.904 c 6.698,17.269 23.469,29.513 43.101,29.513 13.232,0 25.164,-5.564 33.59,-14.474 13.706,15.852 33.965,25.883 56.567,25.883 21.248,0 40.424,-8.864 54.033,-23.099 9.108,8.657 21.424,13.97 34.982,13.97 16.899,0 31.867,-8.257 41.099,-20.952 8.086,26.022 32.355,44.918 61.039,44.918 24.85,0 46.385,-14.182 56.957,-34.894 10.444,7.591 23.295,12.07 37.193,12.07 15.281,0 29.299,-5.412 40.239,-14.424 11.938,21.531 34.891,36.107 61.252,36.107 24.231,0 45.581,-12.312 58.147,-31.023 C -20.193,-5.686 -10.6,-1.176 0,0"
         style="fill:#ffffff;fill-opacity:1;fill-rule:evenodd;stroke:none"
         transform="matrix(1.3333333,0,0,-1.3333333,880.60933,831.2904)"
         clip-path="url(#clipPath22)" />
      <path
         id="path23"
         d="m 0,0 c 38.201,0 69.17,-30.969 69.17,-69.171 0,-38.203 -30.969,-69.171 -69.17,-69.171 -38.203,0 -69.172,30.968 -69.172,69.171 C -69.172,-30.969 -38.203,0 0,0"
         style="fill:#fcfaf8;fill-opacity:1;fill-rule:evenodd;stroke:none"
         transform="matrix(1.3333333,0,0,-1.3333333,653.9896,42.769467)"
         clip-path="url(#clipPath24)" />
      <path
         id="path25"
         d="m 0,0 c 22.42,0 40.594,-18.174 40.594,-40.594 0,-22.42 -18.174,-40.595 -40.594,-40.595 -22.42,0 -40.596,18.175 -40.596,40.595 C -40.596,-18.174 -22.42,0 0,0"
         style="fill:#ffffff;fill-opacity:1;fill-rule:evenodd;stroke:none"
         transform="matrix(1.3333333,0,0,-1.3333333,653.9896,80.8724)"
         clip-path="url(#clipPath26)" />
      <path
         id="path27"
         d="m 0,0 c 3.556,0 6.926,-0.793 9.946,-2.21 5.182,14.774 19.248,25.368 35.792,25.368 15.263,0 28.419,-9.019 34.433,-22.017 3.266,1.496 6.899,2.334 10.726,2.334 10.52,0 19.566,-6.307 23.568,-15.346 5.564,9.851 16.129,16.503 28.249,16.503 7.205,0 13.86,-2.353 19.242,-6.326 5.355,10.294 16.117,17.326 28.523,17.326 11.151,0 20.973,-5.68 26.735,-14.303 6.396,6.22 15.126,10.055 24.753,10.055 12.874,0 24.146,-6.852 30.373,-17.106 4.35,3.575 9.917,5.722 15.984,5.722 13.472,0 24.474,-10.579 25.153,-23.882 h -336.92 c -0.003,0.144 -0.006,0.289 -0.006,0.433 C -23.449,-10.499 -12.95,0 0,0"
         style="fill:#ffffff;fill-opacity:1;fill-rule:evenodd;stroke:none"
         transform="matrix(1.3333333,0,0,-1.3333333,59.553333,559.26693)"
         clip-path="url(#clipPath28)" />
      <path
         id="path29"
         d="m 0,0 c 0.015,0.288 0.023,0.579 0.023,0.872 0,9.295 -7.535,16.831 -16.833,16.831 -4.333,0 -8.283,-1.638 -11.266,-4.328 -4.26,6.346 -11.499,10.519 -19.715,10.519 -8.94,0 -16.723,-4.941 -20.769,-12.243 -3.711,3.056 -8.462,4.891 -13.644,4.891 -4.712,0 -9.07,-1.519 -12.61,-4.092 -3.584,7.023 -10.889,11.83 -19.313,11.83 -9.727,0 -17.954,-6.405 -20.698,-15.229 -3.13,4.304 -8.205,7.104 -13.935,7.104 -4.597,0 -8.772,-1.801 -11.861,-4.737 -4.615,4.827 -11.116,7.833 -18.321,7.833 -7.663,0 -14.534,-3.402 -19.181,-8.777 -2.856,3.021 -6.902,4.908 -11.388,4.908 -8.558,0 -15.512,-6.861 -15.669,-15.382 z"
         style="fill:#ffffff;fill-opacity:1;fill-rule:evenodd;stroke:none"
         transform="matrix(1.3333333,0,0,-1.3333333,815.35413,546.64187)"
         clip-path="url(#clipPath30)" />
      <path
         id="path31"
         d="M 1.731,195.217 H 660.457 V 73.434 H 1.731 Z"
         style="fill:#514558;fill-opacity:1;fill-rule:evenodd;stroke:none"
         transform="matrix(1.3333333,0,0,-1.3333333,0,880)"
         clip-path="url(#clipPath32)" />
      <path
         id="path33"
         d="m 0,0 c -0.651,0.126 -0.892,0.416 -0.648,0.739 0.151,0.197 0.315,0.413 0.476,0.63 -4.501,0.278 -8.931,0.548 -13.439,0.807 -0.848,-1.091 -1.699,-2.185 -2.556,-3.284 5.107,-0.005 10.14,-0.011 15.321,-0.014 C -0.569,-0.76 -0.285,-0.374 0,0 M -12.432,3.691 -12.44,3.683 C -7.222,3.393 -2.097,3.061 3.099,2.724 22.314,4.006 41.098,4.987 59.723,5.71 36.07,5.463 12.093,4.793 -12.432,3.691 M 453.991,5.35 c 20.07,-0.776 40.203,-1.793 60.421,-3.037 4.302,0.313 8.598,0.585 12.817,0.861 -24.443,1.088 -48.867,1.83 -73.238,2.176 m 118.314,-5.829 c -0.774,0.13 -1.274,0.409 -1.333,0.735 -0.036,0.208 -0.073,0.424 -0.113,0.632 -4.836,0.293 -9.589,0.562 -14.338,0.824 0.171,-1.1 0.342,-2.207 0.517,-3.317 5.182,-0.003 10.29,-0.009 15.472,-0.015 -0.068,0.377 -0.135,0.754 -0.205,1.141 m -55.452,1.434 c 0.019,-0.228 0.039,-0.435 0.058,-0.654 0.029,-0.326 -0.469,-0.602 -1.133,-0.74 0.034,-0.377 0.071,-0.762 0.102,-1.13 8.038,-0.006 16.149,-0.014 24.334,-0.02 -0.169,1.324 -0.341,2.643 -0.512,3.97 -7.637,-0.419 -15.275,-0.9 -22.849,-1.426 M 271.533,3.466 271.53,3.455 c 5.362,-0.29 10.72,-0.621 16.004,-0.95 18.719,1.276 37.293,2.261 55.756,2.985 C 319.5,5.243 295.649,4.582 271.533,3.466 M 170.688,5.572 c 19.677,-0.776 39.303,-1.788 58.762,-3.028 4.376,0.312 8.811,0.585 13.242,0.857 -23.912,1.086 -47.821,1.814 -72.004,2.171 m 115.015,-5.811 c -0.638,0.129 -1.082,0.416 -0.989,0.73 0.058,0.208 0.12,0.425 0.182,0.633 -4.563,0.29 -9.199,0.56 -13.835,0.821 -0.01,-0.031 -0.02,-0.07 -0.027,-0.09 -0.163,-0.523 -0.327,-1.046 -0.491,-1.577 -0.168,-0.534 -0.333,-1.066 -0.497,-1.6 -0.004,-0.008 -0.007,-0.028 -0.011,-0.039 5.116,-0.006 10.231,-0.008 15.348,-0.014 0.104,0.377 0.214,0.75 0.32,1.136 m -54.519,1.427 c -0.084,-0.215 -0.165,-0.432 -0.246,-0.649 -0.121,-0.317 -0.677,-0.601 -1.477,-0.73 -0.144,-0.386 -0.287,-0.76 -0.425,-1.133 8.05,-0.009 16.099,-0.015 24.223,-0.023 0.448,1.332 0.89,2.634 1.337,3.958 C 246.822,2.192 239.017,1.715 231.184,1.188 M 22.391,67.244 H 37.108 C 30.726,59.022 24.157,50.557 17.358,41.85 8.195,30.117 -1.329,17.918 -11.233,5.186 23.494,6.753 57.293,7.417 90.542,7.29 98.32,7.265 105.999,7.2 113.735,7.096 c 11.51,0.137 22.896,0.197 34.23,0.16 36.087,-0.126 71.754,-1.152 107.212,-2.93 4.432,12.908 8.582,25.296 12.622,37.147 3.021,8.859 5.948,17.439 8.806,25.771 h 14.907 C 288.909,59.002 286.246,50.517 283.499,41.763 279.813,30.008 276.04,17.749 272,4.965 c 34.134,1.571 67.911,2.238 101.427,2.111 7.788,-0.025 15.569,-0.09 23.351,-0.196 11.515,0.14 23.02,0.199 34.442,0.163 36.354,-0.13 72.634,-1.159 109.205,-2.93 -1.673,12.949 -3.276,25.358 -4.811,37.259 -1.144,8.89 -2.216,17.508 -3.275,25.872 h 14.982 l 3.998,-25.58 c 1.845,-11.797 3.695,-24.095 5.7,-36.921 22.107,1.04 44.197,1.681 66.361,1.971 V 3.539 C 607.68,2.864 592.014,1.99 576.345,0.905 c 0.043,-0.219 0.085,-0.436 0.124,-0.655 0.058,-0.326 -0.413,-0.602 -1.063,-0.732 0.071,-0.384 0.141,-0.761 0.208,-1.138 0.979,0 2.032,-0.003 3.084,-0.003 0.177,-0.941 0.358,-1.872 0.537,-2.822 2.978,-0.153 4.625,-0.085 4.78,-0.858 0.152,-0.773 -10.144,-2.069 -25.042,-2.443 0.525,-3.365 1.056,-6.762 1.593,-10.19 2.41,-0.1 3.919,0.096 4.249,-1.914 0.326,-2.01 -4.912,-4.808 -12.014,-4.8 -7.102,0.006 -13.066,2.815 -13.313,4.825 -0.247,2.011 1.245,1.811 3.703,1.906 -0.433,3.369 -0.863,6.694 -1.212,10.001 -21.441,0.082 -38.575,1.749 -38.636,2.68 -0.062,0.93 1.614,0.711 4.476,0.857 -0.07,0.95 -0.14,1.881 -0.211,2.82 2.33,-0.003 4.665,-0.003 7.071,-0.005 -0.031,0.365 -0.065,0.75 -0.098,1.127 -0.838,0.14 -1.31,0.418 -1.339,0.745 -0.016,0.208 -0.033,0.417 -0.054,0.632 -39.006,2.36 -77.757,3.906 -116.569,4.459 -35.34,-0.455 -71.015,-1.818 -107.222,-4.248 -0.063,-0.227 -0.123,-0.444 -0.182,-0.66 -0.09,-0.318 -0.621,-0.602 -1.409,-0.731 -0.106,-0.385 -0.213,-0.759 -0.317,-1.133 1.053,-0.003 2.106,-0.003 3.16,-0.003 -0.259,-0.931 -0.518,-1.867 -0.779,-2.806 2.828,-0.161 4.421,-0.427 4.302,-0.863 -0.298,-1.105 -11.111,-2.063 -26.038,-2.435 -1.04,-3.354 -2.091,-6.731 -3.149,-10.147 2.362,-0.109 3.773,-0.546 3.358,-1.906 -0.881,-2.646 -7.235,-4.794 -14.18,-4.785 -7.023,0.008 -11.977,2.165 -11.067,4.81 0.469,1.36 2.163,1.794 4.592,1.901 1.133,3.354 2.331,6.671 3.439,9.956 -21.256,0.081 -37.661,1.259 -37.096,2.679 0.176,0.436 1.867,0.699 4.875,0.846 0.371,0.945 0.737,1.884 1.102,2.812 2.257,-0.003 4.589,-0.006 6.921,-0.008 0.14,0.376 0.285,0.75 0.429,1.135 -0.626,0.129 -1.044,0.416 -0.92,0.731 0.079,0.208 0.161,0.425 0.242,0.633 C 189.053,3.522 151.157,5.063 112.886,5.608 77.62,5.164 41.449,3.795 4.397,1.383 4.229,1.158 4.066,0.941 3.91,0.733 3.667,0.413 2.934,0.126 2.161,-0.003 1.877,-0.377 1.594,-0.76 1.318,-1.125 c 0.978,0 2.031,0 3.084,-0.003 C 3.71,-2.062 3.017,-2.997 2.317,-3.931 5,-4.091 6.715,-4.019 6.147,-4.791 5.579,-5.564 -5.774,-6.838 -20.882,-7.218 c -2.595,-3.345 -5.218,-6.708 -7.86,-10.113 2.391,-0.101 4.014,0.104 2.473,-1.892 -1.011,-1.31 -4.699,-2.958 -9.077,-3.93 V 4.911 c 2.407,-0.118 4.811,-0.236 7.213,-0.359 10.351,12.865 20.253,25.205 29.797,37.019 7.132,8.831 14.038,17.372 20.727,25.673"
         style="fill:#262026;fill-opacity:1;fill-rule:evenodd;stroke:none"
         transform="matrix(1.3333333,0,0,-1.3333333,49.436133,709.36973)"
         clip-path="url(#clipPath34)" />
      <path
         id="path35"
         d="m 0,0 c 1.061,0 2.068,-0.236 2.969,-0.661 1.547,4.411 5.746,7.574 10.684,7.574 4.556,0 8.484,-2.693 10.28,-6.573 0.975,0.447 2.059,0.697 3.201,0.697 3.141,0 5.842,-1.884 7.036,-4.581 1.661,2.94 4.815,4.927 8.433,4.927 2.15,0 4.138,-0.703 5.745,-1.89 1.597,3.073 4.811,5.174 8.514,5.174 3.328,0 6.261,-1.697 7.981,-4.271 1.91,1.857 4.516,3.001 7.389,3.001 3.844,0 7.208,-2.045 9.068,-5.107 1.297,1.068 2.96,1.71 4.771,1.71 4.022,0 7.306,-3.158 7.508,-7.131 H -6.998 C -6.999,-7.087 -7,-7.043 -7,-7.001 -7,-3.136 -3.866,0 0,0"
         style="fill:#ffffff;fill-opacity:1;fill-rule:evenodd;stroke:none"
         transform="matrix(1.3333333,0,0,-1.3333333,21.899067,479.0924)"
         clip-path="url(#clipPath36)" />
      <path
         id="path37"
         d="m 0,0 c 0.007,0.138 0.01,0.273 0.01,0.41 0,4.383 -3.553,7.938 -7.936,7.938 -2.041,0 -3.905,-0.774 -5.311,-2.042 -2.009,2.992 -5.42,4.96 -9.295,4.96 -4.214,0 -7.883,-2.331 -9.791,-5.773 -1.749,1.442 -3.988,2.306 -6.431,2.306 -2.223,0 -4.277,-0.716 -5.947,-1.929 -1.69,3.311 -5.132,5.578 -9.104,5.578 -4.585,0 -8.465,-3.02 -9.757,-7.18 -1.476,2.03 -3.869,3.348 -6.57,3.348 -2.167,0 -4.135,-0.848 -5.592,-2.232 -2.175,2.274 -5.24,3.691 -8.637,3.691 -3.613,0 -6.851,-1.602 -9.042,-4.136 -1.347,1.423 -3.254,2.312 -5.37,2.312 -4.035,0 -7.312,-3.233 -7.386,-7.251 z"
         style="fill:#ffffff;fill-opacity:1;fill-rule:evenodd;stroke:none"
         transform="matrix(1.3333333,0,0,-1.3333333,385.60613,488.42707)"
         clip-path="url(#clipPath38)" />
      <path
         id="path39"
         d="m 0,0 c -1.061,0 -2.066,-0.236 -2.968,-0.661 -1.547,4.411 -5.746,7.574 -10.684,7.574 -4.558,0 -8.485,-2.693 -10.28,-6.573 -0.975,0.447 -2.059,0.697 -3.202,0.697 -3.14,0 -5.842,-1.884 -7.036,-4.581 -1.66,2.94 -4.815,4.927 -8.432,4.927 -2.151,0 -4.137,-0.703 -5.744,-1.89 -1.598,3.073 -4.812,5.174 -8.514,5.174 -3.329,0 -6.262,-1.697 -7.983,-4.271 -1.909,1.857 -4.515,3.001 -7.388,3.001 -3.844,0 -7.209,-2.045 -9.068,-5.105 C -82.597,-0.642 -84.258,0 -86.07,0 c -4.022,0 -7.306,-3.158 -7.508,-7.131 H 7 c 0,0.044 0.001,0.088 0.001,0.13 C 7.001,-3.136 3.866,0 0,0"
         style="fill:#ffffff;fill-opacity:1;fill-rule:evenodd;stroke:none"
         transform="matrix(1.3333333,0,0,-1.3333333,581.4388,479.0924)"
         clip-path="url(#clipPath40)" />
      <path
         id="path41"
         d="m 0,0 c -0.009,0.138 -0.012,0.272 -0.012,0.41 0,4.383 3.554,7.938 7.935,7.938 2.044,0 3.905,-0.774 5.313,-2.042 2.008,2.992 5.421,4.96 9.293,4.96 4.214,0 7.883,-2.331 9.792,-5.773 1.749,1.442 3.991,2.306 6.434,2.306 2.221,0 4.276,-0.716 5.943,-1.929 1.69,3.311 5.134,5.578 9.107,5.578 4.583,0 8.463,-3.02 9.756,-7.18 1.476,2.03 3.869,3.348 6.571,3.348 2.167,0 4.136,-0.848 5.592,-2.232 2.174,2.274 5.241,3.691 8.636,3.691 3.614,0 6.853,-1.602 9.042,-4.136 1.348,1.423 3.254,2.313 5.369,2.313 4.037,0 7.315,-3.234 7.388,-7.252 z"
         style="fill:#ffffff;fill-opacity:1;fill-rule:evenodd;stroke:none"
         transform="matrix(1.3333333,0,0,-1.3333333,713.43747,488.42707)"
         clip-path="url(#clipPath42)" />
      <path
         id="path43"
         d="m 568.246,447.641 h 14.682 V 202.346 h -14.682 z"
         style="fill:#603616;fill-opacity:1;fill-rule:evenodd;stroke:none"
         transform="matrix(1.3333333,0,0,-1.3333333,0,880)"
         clip-path="url(#clipPath44)" />
      <path
         id="path45"
         d="m 0,0 c 5.901,0 10.687,-4.785 10.687,-10.688 0,-5.903 -4.786,-4.052 -10.687,-4.052 -5.904,0 -10.689,-1.851 -10.689,4.052 C -10.689,-4.785 -5.904,0 0,0"
         style="fill:#ffffff;fill-opacity:1;fill-rule:evenodd;stroke:none"
         transform="matrix(1.3333333,0,0,-1.3333333,767.4492,267.20253)"
         clip-path="url(#clipPath46)" />
      <path
         id="path47"
         d="m 539.096,415.145 h 61.863 v -8.097 h -61.863 z"
         style="fill:#3d2316;fill-opacity:1;fill-rule:evenodd;stroke:none"
         transform="matrix(1.3333333,0,0,-1.3333333,0,880)"
         clip-path="url(#clipPath48)" />
      <path
         id="path49"
         d="M 0,0 C 19.26,0 34.875,-2.768 34.875,-6.182 34.875,-9.596 19.26,-8.525 0,-8.525 c -19.259,0 -34.871,-1.071 -34.871,2.343 C -34.871,-2.768 -19.259,0 0,0"
         style="fill:#ffffff;fill-opacity:1;fill-rule:evenodd;stroke:none"
         transform="matrix(1.3333333,0,0,-1.3333333,760.03387,317.48693)"
         clip-path="url(#clipPath50)" />
      <path
         id="path51"
         d="m 572.727,444.858 h 10.2 V 202.345 h -10.2 z"
         style="fill:#3d2316;fill-opacity:1;fill-rule:evenodd;stroke:none"
         transform="matrix(1.3333333,0,0,-1.3333333,0,880)"
         clip-path="url(#clipPath52)" />
      <path
         id="path53"
         d="m 316.904,447.641 h 14.684 V 202.346 h -14.684 z"
         style="fill:#603616;fill-opacity:1;fill-rule:evenodd;stroke:none"
         transform="matrix(1.3333333,0,0,-1.3333333,0,880)"
         clip-path="url(#clipPath54)" />
      <path
         id="path55"
         d="m 0,0 c 5.904,0 10.689,-4.785 10.689,-10.688 0,-5.903 -4.785,-4.052 -10.689,-4.052 -5.901,0 -10.686,-1.851 -10.686,4.052 C -10.686,-4.785 -5.901,0 0,0"
         style="fill:#ffffff;fill-opacity:1;fill-rule:evenodd;stroke:none"
         transform="matrix(1.3333333,0,0,-1.3333333,432.3268,267.20253)"
         clip-path="url(#clipPath56)" />
      <path
         id="path57"
         d="m 287.754,415.145 h 61.864 v -8.097 h -61.864 z"
         style="fill:#3d2316;fill-opacity:1;fill-rule:evenodd;stroke:none"
         transform="matrix(1.3333333,0,0,-1.3333333,0,880)"
         clip-path="url(#clipPath58)" />
      <path
         id="path59"
         d="m 0,0 c 19.259,0 34.872,-2.768 34.872,-6.182 0,-3.414 -15.613,-2.343 -34.872,-2.343 -19.259,0 -34.874,-1.071 -34.874,2.343 C -34.874,-2.768 -19.259,0 0,0"
         style="fill:#ffffff;fill-opacity:1;fill-rule:evenodd;stroke:none"
         transform="matrix(1.3333333,0,0,-1.3333333,424.916,317.48693)"
         clip-path="url(#clipPath60)" />
      <path
         id="path61"
         d="m 321.386,444.858 h 10.202 V 202.345 h -10.202 z"
         style="fill:#3d2316;fill-opacity:1;fill-rule:evenodd;stroke:none"
         transform="matrix(1.3333333,0,0,-1.3333333,0,880)"
         clip-path="url(#clipPath62)" />
      <path
         id="path63"
         d="M 65.564,447.641 H 80.248 V 202.346 H 65.564 Z"
         style="fill:#603616;fill-opacity:1;fill-rule:evenodd;stroke:none"
         transform="matrix(1.3333333,0,0,-1.3333333,0,880)"
         clip-path="url(#clipPath64)" />
      <path
         id="path65"
         d="m 0,0 c 5.903,0 10.688,-4.785 10.688,-10.688 0,-5.903 -4.785,-4.052 -10.688,-4.052 -5.903,0 -10.688,-1.851 -10.688,4.052 C -10.688,-4.785 -5.903,0 0,0"
         style="fill:#ffffff;fill-opacity:1;fill-rule:evenodd;stroke:none"
         transform="matrix(1.3333333,0,0,-1.3333333,97.2084,267.20253)"
         clip-path="url(#clipPath66)" />
      <path
         id="path67"
         d="m 36.415,415.145 h 61.863 v -8.097 H 36.415 Z"
         style="fill:#3d2316;fill-opacity:1;fill-rule:evenodd;stroke:none"
         transform="matrix(1.3333333,0,0,-1.3333333,0,880)"
         clip-path="url(#clipPath68)" />
      <path
         id="path69"
         d="m 0,0 c 19.258,0 34.872,-2.768 34.872,-6.182 0,-3.414 -15.614,-2.343 -34.872,-2.343 -19.259,0 -34.874,-1.071 -34.874,2.343 C -34.874,-2.768 -19.259,0 0,0"
         style="fill:#ffffff;fill-opacity:1;fill-rule:evenodd;stroke:none"
         transform="matrix(1.3333333,0,0,-1.3333333,89.7956,317.48693)"
         clip-path="url(#clipPath70)" />
      <path
         id="path71"
         d="M 70.046,444.858 H 80.248 V 202.345 H 70.046 Z"
         style="fill:#3d2316;fill-opacity:1;fill-rule:evenodd;stroke:none"
         transform="matrix(1.3333333,0,0,-1.3333333,0,880)"
         clip-path="url(#clipPath72)" />
      <path
         id="path73"
         d="m 0,0 c 13.858,1.628 27.704,3.6 41.539,5.889 l 0.18,0.03 0.174,-0.034 c 42.142,-8.075 84.099,-11.513 125.908,-11.213 41.814,0.3 83.496,4.34 125.078,11.217 l 0.179,0.03 0.177,-0.034 c 42.14,-8.075 84.096,-11.513 125.906,-11.213 41.813,0.3 83.495,4.34 125.078,11.217 l 0.177,0.03 0.178,-0.034 C 582.766,-1.434 620.809,-4.943 658.726,-5.313 V -7.345 C 620.733,-6.977 582.62,-3.468 544.366,3.851 502.757,-3.022 461.03,-7.059 419.149,-7.36 377.259,-7.661 335.228,-4.223 293.027,3.851 251.418,-3.022 209.691,-7.059 167.809,-7.36 125.919,-7.661 83.889,-4.223 41.687,3.851 27.805,1.558 13.91,-0.419 0,-2.047 Z"
         style="fill:#463d3b;fill-opacity:1;fill-rule:evenodd;stroke:none"
         transform="matrix(1.3333333,0,0,-1.3333333,2.308,354.72467)"
         clip-path="url(#clipPath74)" />
      <path
         id="path75"
         d="m 0,0 c 13.858,1.626 27.704,3.6 41.539,5.889 l 0.18,0.029 0.174,-0.033 c 42.142,-8.076 84.099,-11.513 125.908,-11.214 41.814,0.301 83.496,4.34 125.078,11.218 l 0.179,0.029 0.177,-0.033 c 42.14,-8.076 84.096,-11.513 125.906,-11.214 41.813,0.301 83.495,4.34 125.078,11.218 l 0.177,0.029 0.178,-0.033 c 38.192,-7.32 76.235,-10.828 114.152,-11.198 V -7.346 C 620.733,-6.978 582.62,-3.468 544.366,3.85 502.757,-3.023 461.03,-7.06 419.149,-7.36 377.259,-7.661 335.228,-4.224 293.027,3.85 251.418,-3.023 209.691,-7.06 167.809,-7.36 125.919,-7.661 83.889,-4.224 41.687,3.85 27.805,1.558 13.91,-0.419 0,-2.047 Z"
         style="fill:#ffffff;fill-opacity:1;fill-rule:evenodd;stroke:none"
         transform="matrix(1.3333333,0,0,-1.3333333,2.308,352.63667)"
         clip-path="url(#clipPath76)" />
      <path
         id="path77"
         d="m 545.197,410.771 h 1.836 v -8.637 h -1.836 z"
         style="fill:#2f2825;fill-opacity:1;fill-rule:evenodd;stroke:none"
         transform="matrix(1.3333333,0,0,-1.3333333,0,880)"
         clip-path="url(#clipPath78)" />
      <path
         id="path79"
         d="m 0,0 v 0 c 1.088,0 1.977,-0.889 1.977,-1.977 v -1.821 c 0,-1.088 -0.889,-1.978 -1.977,-1.978 -1.088,0 -1.977,0.89 -1.977,1.978 v 1.821 C -1.977,-0.889 -1.088,0 0,0"
         style="fill:#2f2825;fill-opacity:1;fill-rule:evenodd;stroke:none"
         transform="matrix(1.3333333,0,0,-1.3333333,728.15107,340.51107)"
         clip-path="url(#clipPath80)" />
      <path
         id="path81"
         d="m 596.39,410.771 h 1.836 v -8.637 h -1.836 z"
         style="fill:#2f2825;fill-opacity:1;fill-rule:evenodd;stroke:none"
         transform="matrix(1.3333333,0,0,-1.3333333,0,880)"
         clip-path="url(#clipPath82)" />
      <path
         id="path83"
         d="m 0,0 v 0 c 1.088,0 1.976,-0.889 1.976,-1.977 v -1.821 c 0,-1.088 -0.888,-1.978 -1.976,-1.978 -1.089,0 -1.979,0.89 -1.979,1.978 v 1.821 C -1.979,-0.889 -1.089,0 0,0"
         style="fill:#2f2825;fill-opacity:1;fill-rule:evenodd;stroke:none"
         transform="matrix(1.3333333,0,0,-1.3333333,796.4128,340.51107)"
         clip-path="url(#clipPath84)" />
      <path
         id="path85"
         d="m 293.855,410.771 h 1.836 v -8.637 h -1.836 z"
         style="fill:#2f2825;fill-opacity:1;fill-rule:evenodd;stroke:none"
         transform="matrix(1.3333333,0,0,-1.3333333,0,880)"
         clip-path="url(#clipPath86)" />
      <path
         id="path87"
         d="m 0,0 v 0 c 1.088,0 1.978,-0.889 1.978,-1.977 v -1.821 c 0,-1.088 -0.89,-1.978 -1.978,-1.978 -1.086,0 -1.978,0.89 -1.978,1.978 v 1.821 C -1.978,-0.889 -1.086,0 0,0"
         style="fill:#2f2825;fill-opacity:1;fill-rule:evenodd;stroke:none"
         transform="matrix(1.3333333,0,0,-1.3333333,393.03053,340.51107)"
         clip-path="url(#clipPath88)" />
      <path
         id="path89"
         d="m 345.051,410.771 h 1.835 v -8.637 h -1.835 z"
         style="fill:#2f2825;fill-opacity:1;fill-rule:evenodd;stroke:none"
         transform="matrix(1.3333333,0,0,-1.3333333,0,880)"
         clip-path="url(#clipPath90)" />
      <path
         id="path91"
         d="m 0,0 v 0 c 1.088,0 1.978,-0.889 1.978,-1.977 v -1.821 c 0,-1.088 -0.89,-1.978 -1.978,-1.978 -1.087,0 -1.977,0.89 -1.977,1.978 v 1.821 C -1.977,-0.889 -1.087,0 0,0"
         style="fill:#2f2825;fill-opacity:1;fill-rule:evenodd;stroke:none"
         transform="matrix(1.3333333,0,0,-1.3333333,461.2904,340.51107)"
         clip-path="url(#clipPath92)" />
      <path
         id="path93"
         d="m 42.516,410.771 h 1.835 v -8.637 h -1.835 z"
         style="fill:#2f2825;fill-opacity:1;fill-rule:evenodd;stroke:none"
         transform="matrix(1.3333333,0,0,-1.3333333,0,880)"
         clip-path="url(#clipPath94)" />
      <path
         id="path95"
         d="m 0,0 v 0 c 1.088,0 1.977,-0.889 1.977,-1.977 v -1.821 c 0,-1.088 -0.889,-1.978 -1.977,-1.978 -1.088,0 -1.977,0.89 -1.977,1.978 v 1.821 C -1.977,-0.889 -1.088,0 0,0"
         style="fill:#2f2825;fill-opacity:1;fill-rule:evenodd;stroke:none"
         transform="matrix(1.3333333,0,0,-1.3333333,57.911467,340.51107)"
         clip-path="url(#clipPath96)" />
      <path
         id="path97"
         d="m 93.71,410.771 h 1.835 v -8.637 H 93.71 Z"
         style="fill:#2f2825;fill-opacity:1;fill-rule:evenodd;stroke:none"
         transform="matrix(1.3333333,0,0,-1.3333333,0,880)"
         clip-path="url(#clipPath98)" />
      <path
         id="path99"
         d="m 0,0 v 0 c 1.087,0 1.977,-0.889 1.977,-1.977 v -1.821 c 0,-1.088 -0.89,-1.978 -1.977,-1.978 -1.088,0 -1.978,0.89 -1.978,1.978 v 1.821 C -1.978,-0.889 -1.088,0 0,0"
         style="fill:#2f2825;fill-opacity:1;fill-rule:evenodd;stroke:none"
         transform="matrix(1.3333333,0,0,-1.3333333,126.1712,340.51107)"
         clip-path="url(#clipPath100)" />
      <path
         id="path101"
         d="M 0,0 H 26.701 L 21.116,-5.612 H -5.585 Z"
         style="fill:#f39c0f;fill-opacity:1;fill-rule:evenodd;stroke:none"
         transform="matrix(1.3333333,0,0,-1.3333333,38.550133,692.29427)"
         clip-path="url(#clipPath102)" />
      <path
         id="path103"
         d="M 0,0 H 26.701 C 24.839,-1.87 22.978,-3.742 21.116,-5.612 H -5.585 C -3.723,-3.742 -1.862,-1.87 0,0"
         style="fill:#f39c0f;fill-opacity:1;fill-rule:evenodd;stroke:none"
         transform="matrix(1.3333333,0,0,-1.3333333,110.15947,692.29427)"
         clip-path="url(#clipPath104)" />
      <path
         id="path105"
         d="M 0,0 H 26.701 C 24.839,-1.87 22.979,-3.742 21.116,-5.612 H -5.585 C -3.723,-3.742 -1.861,-1.87 0,0"
         style="fill:#f39c0f;fill-opacity:1;fill-rule:evenodd;stroke:none"
         transform="matrix(1.3333333,0,0,-1.3333333,181.76893,692.29427)"
         clip-path="url(#clipPath106)" />
      <path
         id="path107"
         d="M 0,0 H 26.701 C 24.839,-1.87 22.978,-3.742 21.116,-5.612 H -5.585 C -3.724,-3.742 -1.862,-1.87 0,0"
         style="fill:#f39c0f;fill-opacity:1;fill-rule:evenodd;stroke:none"
         transform="matrix(1.3333333,0,0,-1.3333333,253.37893,692.29427)"
         clip-path="url(#clipPath108)" />
      <path
         id="path109"
         d="m 0,0 h 26.7 c -1.861,-1.87 -3.724,-3.742 -5.585,-5.612 h -26.7 C -3.724,-3.742 -1.862,-1.87 0,0"
         style="fill:#f39c0f;fill-opacity:1;fill-rule:evenodd;stroke:none"
         transform="matrix(1.3333333,0,0,-1.3333333,324.98893,692.29427)"
         clip-path="url(#clipPath110)" />
      <path
         id="path111"
         d="M 0,0 H 26.702 C 24.84,-1.87 22.978,-3.742 21.116,-5.612 h -26.7 C -3.723,-3.742 -1.861,-1.87 0,0"
         style="fill:#f39c0f;fill-opacity:1;fill-rule:evenodd;stroke:none"
         transform="matrix(1.3333333,0,0,-1.3333333,396.5976,692.29427)"
         clip-path="url(#clipPath112)" />
      <path
         id="path113"
         d="M 0,0 H 26.7 C 24.839,-1.87 22.978,-3.742 21.116,-5.612 H -5.585 C -3.724,-3.742 -1.863,-1.87 0,0"
         style="fill:#f39c0f;fill-opacity:1;fill-rule:evenodd;stroke:none"
         transform="matrix(1.3333333,0,0,-1.3333333,468.2084,692.29427)"
         clip-path="url(#clipPath114)" />
      <path
         id="path115"
         d="M 0,0 H 26.702 C 24.841,-1.87 22.978,-3.742 21.116,-5.612 H -5.583 C -3.723,-3.742 -1.861,-1.87 0,0"
         style="fill:#f39c0f;fill-opacity:1;fill-rule:evenodd;stroke:none"
         transform="matrix(1.3333333,0,0,-1.3333333,539.8164,692.29427)"
         clip-path="url(#clipPath116)" />
      <path
         id="path117"
         d="M 0,0 H 26.701 C 24.84,-1.87 22.979,-3.742 21.117,-5.612 H -5.585 C -3.724,-3.742 -1.862,-1.87 0,0"
         style="fill:#f39c0f;fill-opacity:1;fill-rule:evenodd;stroke:none"
         transform="matrix(1.3333333,0,0,-1.3333333,611.42707,692.29427)"
         clip-path="url(#clipPath118)" />
      <path
         id="path119"
         d="M 0,0 H 26.701 C 24.84,-1.87 22.979,-3.742 21.117,-5.612 H -5.584 C -3.723,-3.742 -1.861,-1.87 0,0"
         style="fill:#f39c0f;fill-opacity:1;fill-rule:evenodd;stroke:none"
         transform="matrix(1.3333333,0,0,-1.3333333,683.0352,692.29427)"
         clip-path="url(#clipPath120)" />
      <path
         id="path121"
         d="m 0,0 h 26.698 c -1.86,-1.87 -3.721,-3.742 -5.583,-5.612 H -5.587 C -3.726,-3.742 -1.861,-1.87 0,0"
         style="fill:#f39c0f;fill-opacity:1;fill-rule:evenodd;stroke:none"
         transform="matrix(1.3333333,0,0,-1.3333333,754.6472,692.29427)"
         clip-path="url(#clipPath122)" />
      <path
         id="path123"
         d="M 0,0 H 26.701 L 21.114,-5.612 H -5.584 Z"
         style="fill:#f39c0f;fill-opacity:1;fill-rule:evenodd;stroke:none"
         transform="matrix(1.3333333,0,0,-1.3333333,826.25653,692.29427)"
         clip-path="url(#clipPath124)" />
      <path
         id="path125"
         d="M 1.731,69.523 H 660.457 V 82.479 H 1.731 Z"
         style="fill:#ffffff;fill-opacity:1;fill-rule:evenodd;stroke:none"
         transform="matrix(1.3333333,0,0,-1.3333333,0,880)"
         clip-path="url(#clipPath126)" />
      <path
         id="path127"
         d="m 1.731,189.146 h 658.726 v 7.727 H 1.731 Z"
         style="fill:#ffffff;fill-opacity:1;fill-rule:evenodd;stroke:none"
         transform="matrix(1.3333333,0,0,-1.3333333,0,880)"
         clip-path="url(#clipPath128)" />
      <path
         id="path129"
         d="m 0,0 h 14.909 l 1.203,-7.727 H 0.973 C 0.646,-5.127 0.323,-2.552 0,0 m -254.539,0 h 14.837 c -0.804,-2.552 -1.617,-5.127 -2.434,-7.727 h -15.046 z m -253.033,0 h 14.645 l -5.988,-7.727 h -14.875 c 2.093,2.6 4.165,5.175 6.218,7.727"
         style="fill:#eadbee;fill-opacity:1;fill-rule:evenodd;stroke:none"
         transform="matrix(1.3333333,0,0,-1.3333333,757.70307,617.50267)"
         clip-path="url(#clipPath130)" />
    </g>
  </g>
</svg>
