<?xml version="1.0" encoding="UTF-8" standalone="no"?>
<!-- Created with Inkscape (http://www.inkscape.org/) -->

<svg
   version="1.1"
   id="svg1"
   width="880"
   height="880"
   viewBox="0 0 880 880"
   sodipodi:docname="wavy-sea.svg"
   inkscape:version="1.3.2 (091e20e, 2023-11-25, custom)"
   xmlns:inkscape="http://www.inkscape.org/namespaces/inkscape"
   xmlns:sodipodi="http://sodipodi.sourceforge.net/DTD/sodipodi-0.dtd"
   xmlns="http://www.w3.org/2000/svg"
   xmlns:svg="http://www.w3.org/2000/svg">
  <defs
     id="defs1">
    <clipPath
       clipPathUnits="userSpaceOnUse"
       id="clipPath4">
      <path
         d="M 0,660 H 660 V 0 H 0 Z"
         transform="translate(-658.72172,-509.86381)"
         id="path4" />
    </clipPath>
    <clipPath
       clipPathUnits="userSpaceOnUse"
       id="clipPath6">
      <path
         d="M 0,660 H 660 V 0 H 0 Z"
         transform="translate(-236.8564,-213.22071)"
         id="path6" />
    </clipPath>
    <clipPath
       clipPathUnits="userSpaceOnUse"
       id="clipPath8">
      <path
         d="M 0,660 H 660 V 0 H 0 Z"
         transform="translate(-77.491704,-231.0127)"
         id="path8" />
    </clipPath>
    <clipPath
       clipPathUnits="userSpaceOnUse"
       id="clipPath10">
      <path
         d="M 0,660 H 660 V 0 H 0 Z"
         transform="translate(-658.72172,-199.666)"
         id="path10" />
    </clipPath>
    <clipPath
       clipPathUnits="userSpaceOnUse"
       id="clipPath12">
      <path
         d="M 0,660 H 660 V 0 H 0 Z"
         transform="translate(-658.72172,-200.5225)"
         id="path12" />
    </clipPath>
    <clipPath
       clipPathUnits="userSpaceOnUse"
       id="clipPath14">
      <path
         d="M 0,660 H 660 V 0 H 0 Z"
         transform="translate(-390.60641,-133.78911)"
         id="path14" />
    </clipPath>
    <clipPath
       clipPathUnits="userSpaceOnUse"
       id="clipPath16">
      <path
         d="M 0,660 H 660 V 0 H 0 Z"
         transform="translate(-9.9999752e-4,-196.9531)"
         id="path16" />
    </clipPath>
    <clipPath
       clipPathUnits="userSpaceOnUse"
       id="clipPath18">
      <path
         d="M 0,660 H 660 V 0 H 0 Z"
         transform="translate(-390.60641,-133.78911)"
         id="path18" />
    </clipPath>
    <clipPath
       clipPathUnits="userSpaceOnUse"
       id="clipPath20">
      <path
         d="M 0,660 H 660 V 0 H 0 Z"
         transform="translate(-9.9999752e-4,-163.52151)"
         id="path20" />
    </clipPath>
    <clipPath
       clipPathUnits="userSpaceOnUse"
       id="clipPath22">
      <path
         d="M 0,660 H 660 V 0 H 0 Z"
         transform="translate(-9.9999752e-4,-158.0742)"
         id="path22" />
    </clipPath>
    <clipPath
       clipPathUnits="userSpaceOnUse"
       id="clipPath24">
      <path
         d="M 0,660 H 660 V 0 H 0 Z"
         transform="translate(-9.9999752e-4,-75.862299)"
         id="path24" />
    </clipPath>
    <clipPath
       clipPathUnits="userSpaceOnUse"
       id="clipPath26">
      <path
         d="M 0,660 H 660 V 0 H 0 Z"
         transform="translate(-9.9999752e-4,-76.821302)"
         id="path26" />
    </clipPath>
    <clipPath
       clipPathUnits="userSpaceOnUse"
       id="clipPath28">
      <path
         d="M 0,660 H 660 V 0 H 0 Z"
         transform="translate(-152.35551,-260.39751)"
         id="path28" />
    </clipPath>
    <clipPath
       clipPathUnits="userSpaceOnUse"
       id="clipPath30">
      <path
         d="M 0,660 H 660 V 0 H 0 Z"
         transform="translate(-9.9999752e-4,-245.58111)"
         id="path30" />
    </clipPath>
    <clipPath
       clipPathUnits="userSpaceOnUse"
       id="clipPath32">
      <path
         d="M 0,660 H 660 V 0 H 0 Z"
         transform="translate(-152.35551,-260.39751)"
         id="path32" />
    </clipPath>
    <clipPath
       clipPathUnits="userSpaceOnUse"
       id="clipPath34">
      <path
         d="M 0,660 H 660 V 0 H 0 Z"
         transform="translate(-324.47801,-254.59671)"
         id="path34" />
    </clipPath>
    <clipPath
       clipPathUnits="userSpaceOnUse"
       id="clipPath36">
      <path
         d="M 0,660 H 660 V 0 H 0 Z"
         transform="translate(-535.69631,-599.79881)"
         id="path36" />
    </clipPath>
    <clipPath
       clipPathUnits="userSpaceOnUse"
       id="clipPath38">
      <path
         d="M 0,660 H 660 V 0 H 0 Z"
         transform="translate(-91.131805,-606.77002)"
         id="path38" />
    </clipPath>
    <clipPath
       clipPathUnits="userSpaceOnUse"
       id="clipPath40">
      <path
         d="M 0,660 H 660 V 0 H 0 Z"
         transform="translate(-276.9238,-494.80521)"
         id="path40" />
    </clipPath>
  </defs>
  <sodipodi:namedview
     id="namedview1"
     pagecolor="#ffffff"
     bordercolor="#000000"
     borderopacity="0.25"
     inkscape:showpageshadow="2"
     inkscape:pageopacity="0.0"
     inkscape:pagecheckerboard="0"
     inkscape:deskcolor="#d1d1d1"
     inkscape:zoom="0.67272727"
     inkscape:cx="439.25676"
     inkscape:cy="440"
     inkscape:window-width="1440"
     inkscape:window-height="830"
     inkscape:window-x="-6"
     inkscape:window-y="-6"
     inkscape:window-maximized="1"
     inkscape:current-layer="g1">
    <inkscape:page
       x="0"
       y="0"
       inkscape:label="1"
       id="page1"
       width="880"
       height="880"
       margin="0.37371868 1.704 1.3333334 0"
       bleed="0" />
  </sodipodi:namedview>
  <g
     id="g1"
     inkscape:groupmode="layer"
     inkscape:label="1">
    <g
       id="group-MC0">
      <path
         id="path2"
         d="M 0,0.28 H 658.722 V 659 H 0 Z"
         style="fill:#c3dff5;fill-opacity:1;fill-rule:nonzero;stroke:none"
         transform="matrix(1.3333333,0,0,-1.3333333,0,880)" />
      <path
         id="path3"
         d="m 0,0 v -234.276 c -8.174,-3.222 -17.077,-4.991 -26.395,-4.991 -22.751,0 -43.032,10.555 -56.228,27.03 -2.371,-1.376 -4.827,-2.616 -7.363,-3.716 1.808,-6.284 2.776,-12.925 2.776,-19.792 0,-39.496 -32.017,-71.512 -71.514,-71.512 -28.412,0 -52.953,16.568 -64.491,40.569 -5.968,-2.803 -12.628,-4.374 -19.658,-4.374 -7.486,0 -14.556,1.781 -20.814,4.937 -9.604,-19.402 -29.6,-32.744 -52.714,-32.744 -10.263,0 -19.91,2.633 -28.308,7.254 -4.92,-9.941 -15.166,-16.778 -27.01,-16.778 -12.939,0 -23.971,8.158 -28.236,19.609 -0.625,-0.027 -1.253,-0.044 -1.886,-0.044 -5.141,0 -10.057,0.955 -14.585,2.696 -1.757,-33.287 -29.303,-59.739 -63.03,-59.739 -34.86,0 -63.119,28.261 -63.119,63.121 0,2.766 0.179,5.489 0.524,8.161 -12.67,5.349 -22.889,15.362 -28.51,27.886 -10.622,-9.34 -24.553,-15.008 -39.81,-15.008 -19.789,0 -37.352,9.533 -48.35,24.254 v 226.581 c 28.186,-4.399 49.754,-28.781 49.754,-58.202 0,-9.118 -2.074,-17.752 -5.772,-25.459 1.496,0.139 3.012,0.211 4.546,0.211 17.114,0 32.158,-8.861 40.797,-22.244 7.628,7.836 18.288,12.705 30.087,12.705 23.187,0 41.985,-18.798 41.985,-41.986 0,-9.892 -3.423,-18.985 -9.147,-26.161 21.938,-6.026 38.328,-25.449 39.831,-48.922 10.001,-2.064 19.138,-6.494 26.8,-12.678 5.851,15.284 20.656,26.139 37.999,26.139 11.85,0 22.515,-5.069 29.949,-13.155 8.031,22.908 29.841,39.337 55.491,39.337 14.462,0 27.7,-5.224 37.94,-13.884 8.491,10.197 21.281,16.69 35.588,16.69 11.331,0 21.71,-4.073 29.755,-10.834 7.178,8.401 16.265,15.122 26.591,19.483 -1.676,6.047 -2.577,12.418 -2.577,19 0,39.178 31.761,70.938 70.94,70.938 10.516,0 20.501,-2.292 29.477,-6.399 6.734,11.952 19.542,20.025 34.239,20.025 2.192,0 4.338,-0.183 6.429,-0.526 -1.144,4.342 -1.754,8.901 -1.754,13.604 0,28.253 21.981,51.37 49.773,53.194"
         style="fill:#eff6fc;fill-opacity:1;fill-rule:evenodd;stroke:none"
         transform="matrix(1.3333333,0,0,-1.3333333,878.2956,200.1816)"
         clip-path="url(#clipPath4)" />
      <path
         id="path5"
         d="m 0,0 140.897,66.535 25.249,-6.825 54.468,33.429 75.517,12.7 63.178,-15.506 62.556,12.323 V -33.569 Z"
         style="fill:#79a8de;fill-opacity:1;fill-rule:evenodd;stroke:none"
         transform="matrix(1.3333333,0,0,-1.3333333,315.80853,595.70573)"
         clip-path="url(#clipPath6)" />
      <path
         id="path7"
         d="m 0,0 0.006,0.001 c 10.909,4.196 28,4.604 38.743,0 L 38.754,0 c 10.744,-4.605 27.835,-4.196 38.744,0 l 0.005,0.001 c 10.909,4.196 28,4.604 38.743,0 L 116.251,0 c 10.743,-4.605 28,-4.605 38.743,0 L 155,0.001 c 10.743,4.604 28.131,4.897 38.743,0 L 193.749,0 c 10.611,-4.898 28,-4.605 38.742,0 l 0.006,0.001 c 10.742,4.604 27.835,4.196 38.744,0 L 271.246,0 c 10.908,-4.196 27.835,-4.196 38.743,0 l 0.005,0.001 c 10.908,4.196 28.001,4.604 38.743,0 L 348.744,0 c 10.742,-4.605 27.834,-4.196 38.742,0 l 0.006,0.001 c 10.908,4.196 28,4.604 38.742,0 L 426.24,0 c 10.741,-4.605 28.001,-4.605 38.743,0 l 0.007,0.001 c 10.742,4.604 28.129,4.897 38.743,0 L 503.736,0 c 10.614,-4.898 28.002,-4.605 38.744,0 l 0.006,0.001 c 10.742,4.604 28.074,4.772 38.744,0 V -230.732 H -77.491 V 0.001 c 10.669,4.772 28,4.604 38.742,0 L -38.743,0 C -28,-4.605 -10.908,-4.196 0,0"
         style="fill:#add0ef;fill-opacity:1;fill-rule:evenodd;stroke:none"
         transform="matrix(1.3333333,0,0,-1.3333333,103.32227,571.98307)"
         clip-path="url(#clipPath8)" />
      <path
         id="path9"
         d="M 0,0 V -199.386 H -658.721 V 0.686 c 2.956,1.227 5.748,2.775 8.278,4.625 l 0.008,0.008 c 13.905,10.184 35.694,11.173 49.389,0 l 0.007,-0.008 c 13.695,-11.174 35.483,-10.182 49.389,0 l 0.007,0.008 c 13.907,10.184 35.696,11.173 49.39,0 l 0.007,-0.008 c 13.694,-11.174 35.695,-11.174 49.389,0 l 0.008,0.008 c 13.694,11.173 35.861,11.885 49.39,0 l 0.006,-0.008 c 13.528,-11.886 35.695,-11.174 49.39,0 l 0.006,0.008 c 13.695,11.173 35.486,10.182 49.39,0 l 0.008,-0.008 c 13.905,-10.182 35.483,-10.182 49.388,0 l 0.008,0.008 c 13.906,10.184 35.695,11.173 49.388,0 l 0.01,-0.008 c 13.694,-11.174 35.483,-10.182 49.387,0 l 0.008,0.008 c 13.908,10.184 35.697,11.173 49.392,0 l 0.006,-0.008 c 13.695,-11.174 35.693,-11.174 49.388,0 l 0.009,0.008 c 13.696,11.173 35.862,11.885 49.389,0 L -8.28,5.311 C -5.778,3.113 -2.983,1.348 0,0"
         style="fill:#eaf4fc;fill-opacity:1;fill-rule:evenodd;stroke:none"
         transform="matrix(1.3333333,0,0,-1.3333333,878.2956,613.77867)"
         clip-path="url(#clipPath10)" />
      <path
         id="path11"
         d="M 0,0 V -200.242 H -658.721 V 0.36 c 2.956,0.645 5.748,1.455 8.278,2.43 l 0.008,0.003 c 13.905,5.349 35.694,5.869 49.389,0 l 0.007,-0.003 c 13.695,-5.869 35.483,-5.349 49.389,0 l 0.007,0.003 c 13.907,5.349 35.696,5.869 49.39,0 l 0.007,-0.003 c 13.694,-5.869 35.695,-5.869 49.389,0 l 0.008,0.003 c 13.694,5.869 35.861,6.243 49.39,0 l 0.006,-0.003 c 13.528,-6.243 35.695,-5.869 49.39,0 l 0.006,0.003 c 13.695,5.869 35.486,5.349 49.39,0 l 0.008,-0.003 c 13.905,-5.349 35.483,-5.349 49.388,0 l 0.008,0.003 c 13.906,5.349 35.695,5.869 49.388,0 l 0.01,-0.003 c 13.694,-5.869 35.483,-5.349 49.387,0 l 0.008,0.003 c 13.908,5.349 35.697,5.869 49.392,0 l 0.006,-0.003 c 13.695,-5.869 35.693,-5.869 49.388,0 l 0.009,0.003 c 13.696,5.869 35.862,6.243 49.389,0 L -8.28,2.79 C -5.778,1.636 -2.983,0.708 0,0"
         style="fill:#9bc0e8;fill-opacity:1;fill-rule:evenodd;stroke:none"
         transform="matrix(1.3333333,0,0,-1.3333333,878.2956,612.63667)"
         clip-path="url(#clipPath12)" />
      <path
         id="path13"
         d="m 0,0 -127.174,46.75 -42.08,51.749 -45.82,20.558 -59.847,60.849 -115.684,21.455 V -6.198 Z"
         style="fill:#deaf25;fill-opacity:1;fill-rule:evenodd;stroke:none"
         transform="matrix(1.3333333,0,0,-1.3333333,520.80853,701.61453)"
         clip-path="url(#clipPath14)" />
      <path
         id="path15"
         d="m 0,0 v -69.362 l 89.163,1.413 114.193,15.114 -38.339,50.963 -39.275,2.807 -17.766,21.04 -11.222,-37.873 -37.872,3.273 -39.275,34.131 z"
         style="fill:#c69819;fill-opacity:1;fill-rule:evenodd;stroke:none"
         transform="matrix(1.3333333,0,0,-1.3333333,0.00133333,617.39587)"
         clip-path="url(#clipPath16)" />
      <path
         id="path17"
         d="m 0,0 -127.174,46.75 -42.08,51.749 -45.82,20.558 -59.847,60.849 -115.684,21.455 113.345,-27.383 52.367,-63.589 48.625,-19.17 30.391,-53.301 53.805,-39.379 z"
         style="fill:#fbe590;fill-opacity:1;fill-rule:evenodd;stroke:none"
         transform="matrix(1.3333333,0,0,-1.3333333,520.80853,701.61453)"
         clip-path="url(#clipPath18)" />
      <path
         id="path19"
         d="m 0,0 c 5.182,-1.518 10.05,-3.96 14.26,-7.394 l 0.008,-0.009 c 15.883,-12.959 41.154,-11.811 57.282,0 l 0.008,0.009 c 16.128,11.809 41.399,12.958 57.282,0 l 0.009,-0.009 c 15.881,-12.959 41.398,-12.962 57.28,0 l 0.01,0.009 c 15.882,12.958 41.591,13.787 57.281,0 l 0.008,-0.009 c 15.691,-13.786 41.4,-12.962 57.282,0 l 0.009,0.009 c 15.882,12.958 41.154,11.808 57.281,0 l 0.01,-0.009 c 16.127,-11.808 41.152,-11.811 57.279,0 l 0.01,0.009 c 16.128,11.809 41.399,12.958 57.281,0 l 0.009,-0.009 c 15.884,-12.959 41.152,-11.811 57.283,0 l 0.009,0.009 c 16.127,11.809 41.398,12.958 57.282,0 l 0.009,-0.009 c 15.88,-12.959 41.394,-12.962 57.278,0 l 0.009,0.009 c 4.192,3.418 9.065,5.993 14.262,7.677 V -163.241 H 0 Z"
         style="fill:#eaf4fc;fill-opacity:1;fill-rule:evenodd;stroke:none"
         transform="matrix(1.3333333,0,0,-1.3333333,0.00133333,661.97133)"
         clip-path="url(#clipPath20)" />
      <path
         id="path21"
         d="m 0,0 c 5.182,-0.796 10.05,-2.08 14.26,-3.883 l 0.008,-0.004 c 15.883,-6.806 41.154,-6.202 57.282,0 l 0.008,0.004 c 16.128,6.202 41.399,6.805 57.282,0 l 0.009,-0.004 c 15.881,-6.806 41.398,-6.808 57.28,0 l 0.01,0.004 c 15.882,6.807 41.591,7.239 57.281,0 l 0.008,-0.004 c 15.691,-7.242 41.4,-6.808 57.282,0 l 0.009,0.004 c 15.882,6.807 41.154,6.201 57.281,0 l 0.01,-0.004 c 16.127,-6.202 41.152,-6.202 57.279,0 l 0.01,0.004 c 16.128,6.202 41.399,6.805 57.281,0 l 0.009,-0.004 c 15.884,-6.806 41.152,-6.202 57.283,0 l 0.009,0.004 c 16.127,6.202 41.398,6.805 57.282,0 l 0.009,-0.004 c 15.88,-6.806 41.394,-6.808 57.278,0 l 0.009,0.004 c 4.192,1.796 9.065,3.148 14.262,4.032 V -157.794 H 0 Z"
         style="fill:#79a8de;fill-opacity:1;fill-rule:evenodd;stroke:none"
         transform="matrix(1.3333333,0,0,-1.3333333,0.00133333,669.2344)"
         clip-path="url(#clipPath22)" />
      <path
         id="path23"
         d="m 0,0 c 4.605,1.808 8.95,4.158 12.857,7.016 l 0.01,0.012 c 19.8,14.498 50.824,15.908 70.322,0 l 0.012,-0.012 c 19.497,-15.908 50.822,-15.911 70.32,0 l 0.012,0.012 c 19.499,15.908 51.061,16.921 70.322,0 l 0.011,-0.012 c 19.261,-16.924 50.822,-15.911 70.322,0 l 0.011,0.012 c 19.498,15.908 50.524,14.495 70.321,0 l 0.011,-0.012 c 19.8,-14.498 50.523,-14.498 70.321,0 l 0.011,0.012 c 19.8,14.498 50.824,15.908 70.322,0 l 0.011,-0.012 c 19.501,-15.908 50.526,-14.498 70.324,0 l 0.011,0.012 c 19.799,14.498 50.823,15.908 70.323,0 l 0.008,-0.012 c 3.881,-3.165 8.229,-5.699 12.859,-7.604 V -75.582 H 0 Z"
         style="fill:#eaf4fc;fill-opacity:1;fill-rule:evenodd;stroke:none"
         transform="matrix(1.3333333,0,0,-1.3333333,0.00133333,778.85027)"
         clip-path="url(#clipPath24)" />
      <path
         id="path25"
         d="m 0,0 c 4.605,0.949 8.95,2.186 12.857,3.686 l 0.01,0.006 c 19.8,7.613 50.824,8.356 70.322,0 l 0.012,-0.006 c 19.497,-8.356 50.822,-8.356 70.32,0 l 0.012,0.006 c 19.499,8.356 51.061,8.888 70.322,0 l 0.011,-0.006 c 19.261,-8.888 50.822,-8.356 70.322,0 l 0.011,0.006 c 19.498,8.356 50.524,7.613 70.321,0 l 0.011,-0.006 c 19.8,-7.613 50.523,-7.613 70.321,0 l 0.011,0.006 c 19.8,7.613 50.824,8.356 70.322,0 l 0.011,-0.006 c 19.501,-8.356 50.526,-7.613 70.324,0 l 0.011,0.006 c 19.799,7.613 50.823,8.356 70.323,0 l 0.008,-0.006 c 3.881,-1.663 8.229,-2.993 12.859,-3.994 V -76.541 L 0,-76.541 Z"
         style="fill:#6193d4;fill-opacity:1;fill-rule:evenodd;stroke:none"
         transform="matrix(1.3333333,0,0,-1.3333333,0.00133333,777.5716)"
         clip-path="url(#clipPath26)" />
      <path
         id="path27"
         d="m 0,0 -16.798,-3.946 -56.107,-32.262 -79.449,12.156 v 20.574 z"
         style="fill:#c69819;fill-opacity:1;fill-rule:evenodd;stroke:none"
         transform="matrix(1.3333333,0,0,-1.3333333,203.14067,532.80333)"
         clip-path="url(#clipPath28)" />
      <path
         id="path29"
         d="m 0,0 77.491,-14.568 56.896,28.127 32.702,2.29 L 117.554,76.212 0,104.264 Z"
         style="fill:#2f9a3f;fill-opacity:1;fill-rule:evenodd;stroke:none"
         transform="matrix(1.3333333,0,0,-1.3333333,0.00133333,552.55853)"
         clip-path="url(#clipPath30)" />
      <path
         id="path31"
         d="M 0,0 -37.372,56.253 -152.354,89.448 -34.8,61.396 14.734,1.032 Z"
         style="fill:#47bc53;fill-opacity:1;fill-rule:evenodd;stroke:none"
         transform="matrix(1.3333333,0,0,-1.3333333,203.14067,532.80333)"
         clip-path="url(#clipPath32)" />
      <path
         id="path33"
         d="m 0,0 46.486,11.793 27.586,-10.286 43.481,27.117 86.03,21.508 67.148,-23.838 63.513,15.421 V 61.28 L 271.687,48.957 208.509,64.463 132.993,51.763 78.524,18.334 53.276,25.159 Z"
         style="fill:#9bc0e8;fill-opacity:1;fill-rule:evenodd;stroke:none"
         transform="matrix(1.3333333,0,0,-1.3333333,432.63733,540.53773)"
         clip-path="url(#clipPath34)" />
      <path
         id="path35"
         d="M 0,0 C 7.287,0 13.396,-5.027 15.056,-11.802 L 36.878,-15.5 15.056,-19.198 C 13.396,-25.973 7.287,-30.999 0,-30.999 c -3.598,0 -6.913,1.227 -9.543,3.287 -3.97,-6.006 -10.779,-9.968 -18.517,-9.968 -6.568,0 -12.469,2.856 -16.53,7.394 -2.392,-1.307 -5.137,-2.049 -8.054,-2.049 -8.03,0 -14.747,5.622 -16.428,13.143 l -21.786,3.692 21.786,3.692 c 1.681,7.522 8.398,13.144 16.428,13.144 2.917,0 5.662,-0.743 8.054,-2.049 4.061,4.537 9.962,7.393 16.53,7.393 7.738,0 14.547,-3.962 18.517,-9.967 C -6.913,-1.227 -3.598,0 0,0"
         style="fill:#ffffff;fill-opacity:1;fill-rule:evenodd;stroke:none"
         transform="matrix(1.3333333,0,0,-1.3333333,714.26173,80.268267)"
         clip-path="url(#clipPath36)" />
      <path
         id="path37"
         d="m 0,0 c 7.392,0 14.098,-2.934 19.021,-7.698 6.816,11.864 19.615,19.855 34.281,19.855 13.938,0 26.19,-7.219 33.223,-18.122 2.728,1.132 5.719,1.757 8.856,1.757 6.832,0 12.973,-2.96 17.209,-7.669 5.522,10.271 16.367,17.254 28.845,17.254 12.316,0 23.039,-6.802 28.625,-16.854 0.275,0.014 0.552,0.022 0.831,0.022 7.465,0 13.727,-5.146 15.437,-12.084 l 26.876,-3.813 -26.876,-3.812 c -1.71,-6.938 -7.972,-12.085 -15.437,-12.085 -0.279,0 -0.556,0.008 -0.831,0.022 -5.586,-10.051 -16.309,-16.854 -28.625,-16.854 -12.478,0 -23.323,6.984 -28.845,17.255 -4.236,-4.709 -10.377,-7.67 -17.209,-7.67 -3.137,0 -6.128,0.626 -8.856,1.757 C 79.492,-59.641 67.24,-66.86 53.302,-66.86 c -14.666,0 -27.465,7.99 -34.281,19.855 C 14.098,-51.77 7.392,-54.703 0,-54.703 c -13.822,0 -25.247,10.253 -27.09,23.567 l -26.678,3.784 26.678,3.785 C -25.247,-10.253 -13.822,0 0,0"
         style="fill:#ffffff;fill-opacity:1;fill-rule:evenodd;stroke:none"
         transform="matrix(1.3333333,0,0,-1.3333333,121.50907,70.973333)"
         clip-path="url(#clipPath38)" />
      <path
         id="path39"
         d="m 0,0 c 3.235,0 6.258,-0.909 8.829,-2.485 4.318,5.582 11.08,9.177 18.682,9.177 9.179,0 17.135,-5.239 21.04,-12.89 1.563,0.756 3.317,1.179 5.17,1.179 2.228,0 4.314,-0.613 6.096,-1.679 4.026,9.819 13.678,16.736 24.947,16.736 14.229,0 25.881,-11.027 26.882,-25.002 l 16.057,-1.952 -16.057,-1.951 c -1.001,-13.974 -12.653,-25.001 -26.882,-25.001 -11.269,0 -20.921,6.916 -24.947,16.736 -1.782,-1.067 -3.868,-1.68 -6.096,-1.68 -1.853,0 -3.607,0.424 -5.17,1.18 -3.905,-7.651 -11.861,-12.89 -21.04,-12.89 -7.602,0 -14.364,3.595 -18.682,9.176 -2.571,-1.575 -5.594,-2.485 -8.829,-2.485 -8.68,0 -15.832,6.54 -16.802,14.959 l -16.1,1.956 16.1,1.957 C -15.832,-6.539 -8.68,0 0,0"
         style="fill:#ffffff;fill-opacity:1;fill-rule:evenodd;stroke:none"
         transform="matrix(1.3333333,0,0,-1.3333333,369.23173,220.25973)"
         clip-path="url(#clipPath40)" />
    </g>
  </g>
</svg>
