<?xml version="1.0" encoding="UTF-8" standalone="no"?>
<!-- Created with Inkscape (http://www.inkscape.org/) -->

<svg
   version="1.1"
   id="svg1"
   width="880"
   height="880"
   viewBox="0 0 880 880"
   sodipodi:docname="autumn-countryside.svg"
   inkscape:version="1.3.2 (091e20e, 2023-11-25, custom)"
   xmlns:inkscape="http://www.inkscape.org/namespaces/inkscape"
   xmlns:sodipodi="http://sodipodi.sourceforge.net/DTD/sodipodi-0.dtd"
   xmlns="http://www.w3.org/2000/svg"
   xmlns:svg="http://www.w3.org/2000/svg">
  <defs
     id="defs1">
    <clipPath
       clipPathUnits="userSpaceOnUse"
       id="clipPath5">
      <path
         d="M 0,660 H 660 V 0 H 0 Z"
         transform="translate(-454.51861,-376.73631)"
         id="path5" />
    </clipPath>
    <clipPath
       clipPathUnits="userSpaceOnUse"
       id="clipPath7">
      <path
         d="M 0,660 H 660 V 0 H 0 Z"
         transform="translate(-661.48732,-382.22951)"
         id="path7" />
    </clipPath>
    <clipPath
       clipPathUnits="userSpaceOnUse"
       id="clipPath9">
      <path
         d="M 0,660 H 660 V 0 H 0 Z"
         transform="translate(-269.15431,-342.38281)"
         id="path9" />
    </clipPath>
    <clipPath
       clipPathUnits="userSpaceOnUse"
       id="clipPath11">
      <path
         d="M 0,660 H 660 V 0 H 0 Z"
         transform="translate(-5.7739001,-369.22661)"
         id="path11" />
    </clipPath>
    <clipPath
       clipPathUnits="userSpaceOnUse"
       id="clipPath13">
      <path
         d="M 0,660 H 660 V 0 H 0 Z"
         transform="translate(-71.840802,-358.54541)"
         id="path13" />
    </clipPath>
    <clipPath
       clipPathUnits="userSpaceOnUse"
       id="clipPath15">
      <path
         d="M 0,660 H 660 V 0 H 0 Z"
         id="path15" />
    </clipPath>
    <clipPath
       clipPathUnits="userSpaceOnUse"
       id="clipPath17">
      <path
         d="M 0,660 H 660 V 0 H 0 Z"
         transform="translate(-661.48732,-230.31451)"
         id="path17" />
    </clipPath>
    <clipPath
       clipPathUnits="userSpaceOnUse"
       id="clipPath19">
      <path
         d="M 0,660 H 660 V 0 H 0 Z"
         transform="translate(-151.0938,-491.16651)"
         id="path19" />
    </clipPath>
    <clipPath
       clipPathUnits="userSpaceOnUse"
       id="clipPath21">
      <path
         d="M 0,660 H 660 V 0 H 0 Z"
         id="path21" />
    </clipPath>
    <clipPath
       clipPathUnits="userSpaceOnUse"
       id="clipPath23">
      <path
         d="M 0,660 H 660 V 0 H 0 Z"
         id="path23" />
    </clipPath>
    <clipPath
       clipPathUnits="userSpaceOnUse"
       id="clipPath25">
      <path
         d="M 0,660 H 660 V 0 H 0 Z"
         transform="translate(-242.44431,-132.9873)"
         id="path25" />
    </clipPath>
    <clipPath
       clipPathUnits="userSpaceOnUse"
       id="clipPath27">
      <path
         d="M 0,660 H 660 V 0 H 0 Z"
         id="path27" />
    </clipPath>
    <clipPath
       clipPathUnits="userSpaceOnUse"
       id="clipPath29">
      <path
         d="M 0,660 H 660 V 0 H 0 Z"
         transform="translate(-590.32132,-104.11041)"
         id="path29" />
    </clipPath>
    <clipPath
       clipPathUnits="userSpaceOnUse"
       id="clipPath31">
      <path
         d="M 0,660 H 660 V 0 H 0 Z"
         transform="translate(-160.8516,-191.2275)"
         id="path31" />
    </clipPath>
    <clipPath
       clipPathUnits="userSpaceOnUse"
       id="clipPath33">
      <path
         d="M 0,660 H 660 V 0 H 0 Z"
         transform="translate(-160.8516,-86.621102)"
         id="path33" />
    </clipPath>
    <clipPath
       clipPathUnits="userSpaceOnUse"
       id="clipPath35">
      <path
         d="M 0,660 H 660 V 0 H 0 Z"
         transform="translate(-199.0776,-66.965799)"
         id="path35" />
    </clipPath>
    <clipPath
       clipPathUnits="userSpaceOnUse"
       id="clipPath37">
      <path
         d="M 0,660 H 660 V 0 H 0 Z"
         transform="translate(-175.0669,-284.46781)"
         id="path37" />
    </clipPath>
    <clipPath
       clipPathUnits="userSpaceOnUse"
       id="clipPath39">
      <path
         d="M 0,660 H 660 V 0 H 0 Z"
         transform="translate(-2.1465001,-261.46881)"
         id="path39" />
    </clipPath>
    <clipPath
       clipPathUnits="userSpaceOnUse"
       id="clipPath41">
      <path
         d="M 0,660 H 660 V 0 H 0 Z"
         transform="translate(-661.48732,-291.66411)"
         id="path41" />
    </clipPath>
    <clipPath
       clipPathUnits="userSpaceOnUse"
       id="clipPath43">
      <path
         d="M 0,660 H 660 V 0 H 0 Z"
         transform="translate(-498.71481,-274.92291)"
         id="path43" />
    </clipPath>
    <clipPath
       clipPathUnits="userSpaceOnUse"
       id="clipPath45">
      <path
         d="M 0,660 H 660 V 0 H 0 Z"
         transform="translate(-465.49901,-275.5918)"
         id="path45" />
    </clipPath>
    <clipPath
       clipPathUnits="userSpaceOnUse"
       id="clipPath47">
      <path
         d="M 0,660 H 660 V 0 H 0 Z"
         transform="translate(-503.03321,-275.5918)"
         id="path47" />
    </clipPath>
    <clipPath
       clipPathUnits="userSpaceOnUse"
       id="clipPath49">
      <path
         d="M 0,660 H 660 V 0 H 0 Z"
         transform="translate(-242.47021,-266.56051)"
         id="path49" />
    </clipPath>
    <clipPath
       clipPathUnits="userSpaceOnUse"
       id="clipPath51">
      <path
         d="M 0,660 H 660 V 0 H 0 Z"
         transform="translate(-207.5005,-267.26371)"
         id="path51" />
    </clipPath>
    <clipPath
       clipPathUnits="userSpaceOnUse"
       id="clipPath53">
      <path
         d="M 0,660 H 660 V 0 H 0 Z"
         transform="translate(-247.0171,-267.2656)"
         id="path53" />
    </clipPath>
    <clipPath
       clipPathUnits="userSpaceOnUse"
       id="clipPath55">
      <path
         d="M 0,660 H 660 V 0 H 0 Z"
         transform="translate(-374.02441,-230.30571)"
         id="path55" />
    </clipPath>
    <clipPath
       clipPathUnits="userSpaceOnUse"
       id="clipPath57">
      <path
         d="M 0,660 H 660 V 0 H 0 Z"
         transform="translate(-332.54881,-231.1396)"
         id="path57" />
    </clipPath>
    <clipPath
       clipPathUnits="userSpaceOnUse"
       id="clipPath59">
      <path
         d="M 0,660 H 660 V 0 H 0 Z"
         transform="translate(-379.41701,-231.1396)"
         id="path59" />
    </clipPath>
    <clipPath
       clipPathUnits="userSpaceOnUse"
       id="clipPath61">
      <path
         d="M 0,660 H 660 V 0 H 0 Z"
         transform="translate(-53.813501,-296.50881)"
         id="path61" />
    </clipPath>
    <clipPath
       clipPathUnits="userSpaceOnUse"
       id="clipPath63">
      <path
         d="M 0,660 H 660 V 0 H 0 Z"
         transform="translate(-32.621101,-296.93361)"
         id="path63" />
    </clipPath>
    <clipPath
       clipPathUnits="userSpaceOnUse"
       id="clipPath65">
      <path
         d="M 0,660 H 660 V 0 H 0 Z"
         transform="translate(-56.569301,-296.93361)"
         id="path65" />
    </clipPath>
  </defs>
  <sodipodi:namedview
     id="namedview1"
     pagecolor="#ffffff"
     bordercolor="#000000"
     borderopacity="0.25"
     inkscape:showpageshadow="2"
     inkscape:pageopacity="0.0"
     inkscape:pagecheckerboard="0"
     inkscape:deskcolor="#d1d1d1"
     inkscape:zoom="0.67272727"
     inkscape:cx="439.25676"
     inkscape:cy="440"
     inkscape:window-width="1440"
     inkscape:window-height="830"
     inkscape:window-x="-6"
     inkscape:window-y="-6"
     inkscape:window-maximized="1"
     inkscape:current-layer="g1">
    <inkscape:page
       x="0"
       y="0"
       inkscape:label="1"
       id="page1"
       width="880"
       height="880"
       margin="0 0 2.1186666 2.8606534"
       bleed="0" />
  </sodipodi:namedview>
  <g
     id="g1"
     inkscape:groupmode="layer"
     inkscape:label="1">
    <g
       id="group-MC0">
      <path
         id="path2"
         d="M 2.146,0 H 660 V 658.411 H 2.146 Z"
         style="fill:#e7efcd;fill-opacity:1;fill-rule:nonzero;stroke:none"
         transform="matrix(1.3333333,0,0,-1.3333333,0,880)" />
      <path
         id="path3"
         d="m 0,0 604.092,-10.668 v 20.27 z m -53.762,-67.379 414.189,9.625 -414.189,7.488 z m 298.682,-32.085 359.172,-7.457 v 15.977 z M -53.762,-263.496 h 657.854 v 25.568 l -447.41,11.726 447.41,5.329 v 41.729 H -0.536 l 403.208,20.321 -335.829,3.209 506.952,10.695 -627.557,3.209 z"
         style="fill:#f2f6e2;fill-opacity:1;fill-rule:nonzero;stroke:none"
         transform="matrix(1.3333333,0,0,-1.3333333,74.544,90.352)" />
      <path
         id="path4"
         d="m 0,0 c 5.103,0 9.196,-2.444 11.994,-6.608 7.773,12.239 18.662,20.511 28.684,20.511 7.6,0 13.218,-4.757 16.093,-12.394 7.957,20.543 22.56,35.924 35.233,35.924 8.618,0 14.419,-7.116 16.377,-18.131 6.26,5.026 13.019,7.971 19.475,7.971 16.983,0 25.438,-20.351 18.889,-45.454 -6.549,-25.104 -25.625,-45.455 -42.608,-45.455 -9.718,0 -16.643,6.668 -19.563,17.076 -5.39,-4.708 -11.081,-7.451 -16.429,-7.451 -7.861,0 -13.378,5.924 -15.773,15.326 -7.684,-16.039 -20.762,-27.626 -32.623,-27.626 -6.551,0 -11.629,3.537 -14.746,9.403 -6.838,-9.745 -15.797,-16.155 -24.067,-16.155 -13.207,0 -19.643,16.355 -14.379,36.532 C -28.18,-16.356 -13.207,0 0,0"
         style="fill:#549d34;fill-opacity:1;fill-rule:evenodd;stroke:none"
         transform="matrix(1.3333333,0,0,-1.3333333,606.0248,377.68493)"
         clip-path="url(#clipPath5)" />
      <path
         id="path6"
         d="m 0,0 v -68.309 c -10.972,-23.207 -41.789,-40.766 -54.247,-39.87 -12.459,0.897 -16.263,6.849 -20.692,16.609 -7.546,-12.527 -16.747,-20.304 -24.989,-19.708 -6.721,0.483 -11.583,6.444 -14.09,15.781 -6.929,-11.35 -16.414,-18.574 -25.232,-17.939 -7.968,0.574 -13.609,7.433 -15.848,17.581 -8.037,-13.213 -18.076,-21.456 -27.157,-20.802 -8.868,0.64 -14.846,9.615 -16.896,23.002 -6.819,-7.203 -14.889,-11.374 -22.628,-10.818 -9.962,0.718 -16.972,9.094 -19.369,21.163 -5.52,-5.083 -12.687,-8.041 -19.826,-7.527 -12.957,0.933 -20.915,12.949 -17.777,26.838 3.139,13.889 16.187,24.392 29.145,23.459 5.53,-0.399 10.15,-2.817 13.384,-6.538 7.52,16.94 21.038,28.635 33.68,27.725 7.121,-0.514 12.733,-4.94 16.232,-11.83 8.262,14.688 18.994,24.038 28.646,23.343 11.118,-0.801 17.697,-14.705 17.68,-33.983 5.892,6.451 12.677,10.172 19.111,9.709 5.163,-0.373 9.348,-3.385 12.266,-8.221 8.137,21.858 21.468,37.248 32.942,36.421 3.976,-0.286 7.299,-2.489 9.871,-6.173 10.955,19.737 28.392,32.416 40.837,31.521 C -12.511,20.538 -4.133,12.52 0,0"
         style="fill:#f39c0f;fill-opacity:1;fill-rule:evenodd;stroke:none"
         transform="matrix(1.3333333,0,0,-1.3333333,881.98307,370.36067)"
         clip-path="url(#clipPath7)" />
      <path
         id="path8"
         d="m 0,0 c 8.154,0 16.544,-10.13 18.741,-22.627 2.194,-12.495 -2.636,-22.624 -10.789,-22.624 -8.156,0 -16.544,10.129 -18.741,22.624 C -12.984,-10.13 -8.153,0 0,0"
         style="fill:#549d34;fill-opacity:1;fill-rule:evenodd;stroke:none"
         transform="matrix(1.3333333,0,0,-1.3333333,358.8724,423.4896)"
         clip-path="url(#clipPath9)" />
      <path
         id="path10"
         d="m 0,0 c 6.311,0 12.805,-5.262 17.53,-13.281 2.327,1.633 5.072,2.544 8.133,2.544 2.497,0 4.997,-0.606 7.41,-1.717 -0.934,20.255 7.494,35.464 20.791,35.464 12.548,0 25.516,-13.541 32.134,-32.083 2.414,1.155 5.133,1.786 8.087,1.786 5.668,0 11.288,-2.322 16.092,-6.213 2.992,10.65 10.304,17.719 20.045,17.719 12.276,0 24.64,-11.228 30.854,-26.707 2.669,1.391 5.746,2.163 9.122,2.163 6.647,0 13.186,-2.988 18.377,-7.813 1.395,8.943 6.528,15.1 13.714,15.1 10.063,0 20.344,-12.075 22.962,-26.969 2.615,-14.893 -3.422,-26.969 -13.487,-26.969 -4.813,0 -9.676,2.765 -13.726,7.276 -2.683,-8.081 -9.554,-13.547 -18.542,-13.547 -7.431,0 -14.726,3.732 -20.152,9.592 -3.776,-5.279 -9.202,-8.44 -15.716,-8.44 -8.863,0 -17.772,5.853 -24.379,14.932 -3.474,-4.745 -8.726,-7.647 -15.058,-7.647 -6.789,0 -13.508,3.333 -18.84,8.702 -3.654,-6.394 -9.107,-10.236 -15.789,-10.236 -6.672,0 -13.462,3.83 -19.355,10.201 -2.567,-6.893 -7.799,-11.351 -14.574,-11.351 -6.216,0 -12.451,3.755 -17.291,9.697 -2.109,-2.032 -4.688,-3.178 -7.631,-3.178 -4.986,0 -10.087,3.286 -14.338,8.621 V -0.629 C -2.493,-0.216 -1.281,0 0,0"
         style="fill:#549d34;fill-opacity:1;fill-rule:evenodd;stroke:none"
         transform="matrix(1.3333333,0,0,-1.3333333,7.6985333,387.69787)"
         clip-path="url(#clipPath11)" />
      <path
         id="path12"
         d="M 0,0 C 6.742,0 13.374,-3.687 18.666,-9.656 20.759,3.429 27.152,12.3 35.95,12.3 c 8.607,0 17.329,-8.489 23.149,-21.109 2.534,1.534 5.482,2.393 8.721,2.393 11.847,0 23.083,-11.467 25.095,-25.611 2.013,-14.144 -5.961,-25.609 -17.809,-25.609 -3.724,0 -7.388,1.132 -10.724,3.126 -2.697,-10.705 -8.609,-17.683 -16.411,-17.683 -7.727,0 -15.547,6.845 -21.276,17.377 -3.467,-7.349 -9.591,-12.029 -17.185,-12.029 -13.586,0 -26.729,14.964 -29.355,33.423 C -22.47,-14.963 -13.585,0 0,0"
         style="fill:#f39c0f;fill-opacity:1;fill-rule:evenodd;stroke:none"
         transform="matrix(1.3333333,0,0,-1.3333333,95.787733,401.93947)"
         clip-path="url(#clipPath13)" />
      <path
         id="path14"
         d="M 2.145,-0.929 H 661.487 V 328.74 H 2.145 Z"
         style="fill:#fbca07;fill-opacity:1;fill-rule:evenodd;stroke:none"
         transform="matrix(1.3333333,0,0,-1.3333333,0,880)"
         clip-path="url(#clipPath15)" />
      <path
         id="path16"
         d="M 0,0 -536.152,-9.624 0,-21.925 Z m -659.341,-25.667 334.953,-1.605 -195.188,-6.951 370.053,-3.21 -509.818,-10.695 z m 0,124.093 H 0 V 43.206 L -556.383,37.858 -8.789,23.953 -659.341,17.536 v 38.662 l 559.643,12.675 -559.643,6.008 z"
         style="fill:#f9de1c;fill-opacity:1;fill-rule:evenodd;stroke:none"
         transform="matrix(1.3333333,0,0,-1.3333333,881.98307,572.914)"
         clip-path="url(#clipPath17)" />
      <path
         id="path18"
         d="m 0,0 c 31.516,0 57.22,25.704 57.22,57.219 0,31.516 -25.704,57.22 -57.22,57.22 -31.515,0 -57.219,-25.704 -57.219,-57.22 C -57.219,25.704 -31.515,0 0,0"
         style="fill:#fffff7;fill-opacity:1;fill-rule:evenodd;stroke:none"
         transform="matrix(1.3333333,0,0,-1.3333333,201.4584,225.11133)"
         clip-path="url(#clipPath19)" />
      <path
         id="path20"
         d="M 2.145,-0.929 H 661.487 V 132.987 H 2.145 Z"
         style="fill:#5d7c87;fill-opacity:1;fill-rule:evenodd;stroke:none"
         transform="matrix(1.3333333,0,0,-1.3333333,0,880)"
         clip-path="url(#clipPath21)" />
      <path
         id="path22"
         d="m 2.146,132.985 h 659.341 v 30.92 H 2.146 Z"
         style="fill:#e09015;fill-opacity:1;fill-rule:evenodd;stroke:none"
         transform="matrix(1.3333333,0,0,-1.3333333,0,880)"
         clip-path="url(#clipPath23)" />
      <path
         id="path24"
         d="m 0,0 -87.962,-133.916 h 28.878 L 28.876,0 Z m 109.09,0 h 30.546 L 51.676,-133.916 H 21.129 Z m 133.689,0 -87.96,-133.916 h 83.422 L 326.203,0 Z m 124.066,0 h 35.294 l -87.961,-133.916 h -35.295 z m -504.814,0 h 65.241 l -87.961,-133.916 h -65.241 z"
         style="fill:#6f8e99;fill-opacity:1;fill-rule:evenodd;stroke:none"
         transform="matrix(1.3333333,0,0,-1.3333333,323.25907,702.6836)"
         clip-path="url(#clipPath25)" />
      <path
         id="path26"
         d="m 2.146,104.11 h 659.341 v 28.877 H 2.146 Z"
         style="fill:#4c636e;fill-opacity:1;fill-rule:evenodd;stroke:none"
         transform="matrix(1.3333333,0,0,-1.3333333,0,880)"
         clip-path="url(#clipPath27)" />
      <path
         id="path28"
         d="M 0,0 H 35.294 L 54.262,28.877 H 18.968 Z m -124.065,0 h 83.424 l 18.967,28.877 h -83.424 z m -133.69,0 h 30.547 l 18.967,28.877 h -30.546 z m -109.089,0 h 28.875 l 18.968,28.877 h -28.876 z m -119.002,28.877 h 65.241 L -439.572,0 h -65.241 z"
         style="fill:#5d7c87;fill-opacity:1;fill-rule:evenodd;stroke:none"
         transform="matrix(1.3333333,0,0,-1.3333333,787.09507,741.18613)"
         clip-path="url(#clipPath29)" />
      <path
         id="path30"
         d="m 0,0 c 1.557,39.885 12.397,65.877 28.055,57.521 -13.923,11.11 -30.399,1.328 -34.064,-45.635 -5.727,36.951 -23.066,44.243 -38.016,34.268 21.858,9.77 35.341,-28.588 31.758,-80.723 H 1.023 C 3.841,4.97 21.16,33.543 41.432,26.031 27.731,33.806 9.848,28.275 0,0 m 417.782,8.032 c -1.556,47.279 -12.397,78.09 -28.054,68.184 13.923,13.169 30.399,1.573 34.064,-54.096 5.726,43.803 23.066,52.447 38.016,40.624 -22.048,11.681 -35.574,-34.689 -31.659,-97.313 h -13.295 c -2.511,47.709 -19.997,82.465 -40.504,73.458 13.703,9.216 31.586,2.66 41.432,-30.857 M 274.498,-34.569 c 0.886,30.998 13.49,51.586 32.285,45.222 -14.951,7.556 -32.291,2.034 -38.017,-25.949 -3.666,35.566 -20.141,42.973 -34.064,34.558 17.369,7.022 28.814,-17.972 28.229,-53.831 z"
         style="fill:#e09015;fill-opacity:1;fill-rule:evenodd;stroke:none"
         transform="matrix(1.3333333,0,0,-1.3333333,214.4688,625.03)"
         clip-path="url(#clipPath31)" />
      <path
         id="path32"
         d="m 0,0 c 1.557,-29.12 12.397,-48.1 28.055,-41.998 -13.923,-8.111 -30.399,-0.97 -34.064,33.32 -5.727,-26.978 -23.066,-32.304 -38.016,-25.02 21.858,-7.133 35.341,20.874 31.758,58.938 H 1.023 C 3.841,-3.63 21.16,-24.491 41.432,-19.006 27.731,-24.683 9.848,-20.644 0,0 m 417.782,-5.863 c -1.556,-34.521 -12.397,-57.017 -28.054,-49.784 13.923,-9.616 30.399,-1.149 34.064,39.496 5.726,-31.98 23.066,-38.293 38.016,-29.659 -22.048,-8.53 -35.574,25.327 -31.659,71.05 h -13.295 c -2.511,-34.834 -19.997,-60.209 -40.504,-53.634 13.703,-6.73 31.586,-1.943 41.432,22.531 M 274.498,25.24 c 0.886,-22.633 13.49,-37.664 32.285,-33.02 -14.951,-5.515 -32.291,-1.483 -38.017,18.947 -3.666,-25.966 -20.141,-31.374 -34.064,-25.231 17.369,-5.126 28.814,13.122 28.229,39.304 z"
         style="fill:#4c636e;fill-opacity:1;fill-rule:evenodd;stroke:none"
         transform="matrix(1.3333333,0,0,-1.3333333,214.4688,764.5052)"
         clip-path="url(#clipPath33)" />
      <path
         id="path34"
         d="M 0,0 C 1.06,0.145 2.128,0.357 3.206,0.649 2.038,0.165 0.838,-0.247 -0.384,-0.585 Z m -15.417,-23.473 c 1.68,0.056 3.429,0.424 5.246,1.13 -2.017,-1.175 -4.086,-2.026 -6.162,-2.525 z M 379.556,13.792 C 378,-20.729 367.159,-43.225 351.503,-35.992 c 13.922,-9.615 30.398,-1.149 34.063,39.496 1.426,-7.958 3.57,-14.326 6.218,-19.27 l 5.07,7.718 C 392.62,3.457 390.61,19.313 391.435,37.436 L 361.068,-8.798 c 7.118,3.562 13.738,10.784 18.488,22.59 M 251.67,13.531 c 4.758,-2.529 10.46,-3.243 16.887,-1.656 C 262.331,9.579 255.69,8.941 249.646,10.45 Z M -82,-14.119 l -0.021,-0.033 -0.23,0.109 c 0.084,-0.027 0.167,-0.05 0.251,-0.076 m 38.762,59.014 -6.695,-10.193 c -0.048,3.301 -0.232,6.703 -0.56,10.193 z"
         style="fill:#5d7c87;fill-opacity:1;fill-rule:evenodd;stroke:none"
         transform="matrix(1.3333333,0,0,-1.3333333,265.4368,790.71227)"
         clip-path="url(#clipPath35)" />
      <path
         id="path36"
         d="m 0,0 c 4.135,0 7.487,-1.317 7.487,-2.941 0,-1.625 -3.352,-2.941 -7.487,-2.941 -4.134,0 -7.486,1.316 -7.486,2.941 C -7.486,-1.317 -4.134,0 0,0 m -137.167,-54.547 c 5.759,0 10.428,-1.556 10.428,-3.476 0,-1.919 -4.669,-3.476 -10.428,-3.476 -5.759,0 -10.427,1.557 -10.427,3.476 0,1.92 4.668,3.476 10.427,3.476 m 561.232,74.866 c 2.806,0 5.081,-0.837 5.081,-1.871 0,-1.032 -2.275,-1.871 -5.081,-1.871 -2.807,0 -5.08,0.839 -5.08,1.871 0,1.034 2.273,1.871 5.08,1.871 M 228.61,-1.604 c 5.464,0 9.893,-1.079 9.893,-2.407 0,-1.328 -4.429,-2.405 -9.893,-2.405 -5.463,0 -9.894,1.077 -9.894,2.405 0,1.328 4.431,2.407 9.894,2.407 m 81.284,-37.432 c 6.645,0 12.032,-1.198 12.032,-2.674 0,-1.479 -5.387,-2.676 -12.032,-2.676 -6.645,0 -12.032,1.197 -12.032,2.676 0,1.476 5.387,2.674 12.032,2.674 m 54.545,-49.199 c 6.94,0 12.566,-1.677 12.566,-3.745 0,-2.066 -5.626,-3.743 -12.566,-3.743 -6.941,0 -12.566,1.677 -12.566,3.743 0,2.068 5.625,3.745 12.566,3.745 M -25.133,30.481 c 3.543,0 6.416,-1.077 6.416,-2.406 0,-1.329 -2.873,-2.406 -6.416,-2.406 -3.544,0 -6.417,1.077 -6.417,2.406 0,1.329 2.873,2.406 6.417,2.406"
         style="fill:#fab40a;fill-opacity:1;fill-rule:evenodd;stroke:none"
         transform="matrix(1.3333333,0,0,-1.3333333,233.42253,500.7096)"
         clip-path="url(#clipPath37)" />
      <path
         id="path38"
         d="M 0,0 387.36,-3.739 0,-6.373 Z"
         style="fill:#faf462;fill-opacity:1;fill-rule:evenodd;stroke:none"
         transform="matrix(1.3333333,0,0,-1.3333333,2.862,531.37493)"
         clip-path="url(#clipPath39)" />
      <path
         id="path40"
         d="M 0,0 -387.361,-3.739 0,-6.373 Z"
         style="fill:#faf462;fill-opacity:1;fill-rule:evenodd;stroke:none"
         transform="matrix(1.3333333,0,0,-1.3333333,881.98307,491.11453)"
         clip-path="url(#clipPath41)" />
      <path
         id="path42"
         d="M 0,0 C 23.749,0 43.121,0.822 43.121,1.83 43.121,2.838 23.749,3.659 0,3.659 -23.751,3.659 -43.122,2.838 -43.122,1.83 -43.122,0.822 -23.751,0 0,0"
         style="fill:#f39c0f;fill-opacity:1;fill-rule:evenodd;stroke:none"
         transform="matrix(1.3333333,0,0,-1.3333333,664.95307,513.43613)"
         clip-path="url(#clipPath43)" />
      <path
         id="path44"
         d="m 0,0 c -9.986,0 -18.081,8.197 -18.081,18.31 0,10.109 8.095,18.306 18.081,18.306 H 37.534 V 0 Z"
         style="fill:#f39c0f;fill-opacity:1;fill-rule:evenodd;stroke:none"
         transform="matrix(1.3333333,0,0,-1.3333333,620.66533,512.54427)"
         clip-path="url(#clipPath45)" />
      <path
         id="path46"
         d="M 0,0 C 9.959,0 18.081,8.224 18.081,18.31 18.081,28.392 9.959,36.616 0,36.616 -9.959,36.616 -18.081,28.392 -18.081,18.31 -18.081,8.224 -9.959,0 0,0"
         style="fill:#e09015;fill-opacity:1;fill-rule:evenodd;stroke:none"
         transform="matrix(1.3333333,0,0,-1.3333333,670.71093,512.54427)"
         clip-path="url(#clipPath47)" />
      <path
         id="path48"
         d="M 0,0 C 25.006,0 45.399,0.867 45.399,1.926 45.399,2.987 25.006,3.853 0,3.853 -25.006,3.853 -45.398,2.987 -45.398,1.926 -45.398,0.867 -25.006,0 0,0"
         style="fill:#f39c0f;fill-opacity:1;fill-rule:evenodd;stroke:none"
         transform="matrix(1.3333333,0,0,-1.3333333,323.2936,524.586)"
         clip-path="url(#clipPath49)" />
      <path
         id="path50"
         d="m 0,0 c -10.513,0 -19.036,8.631 -19.036,19.277 0,10.643 8.523,19.274 19.036,19.274 H 39.517 V 0 Z"
         style="fill:#f39c0f;fill-opacity:1;fill-rule:evenodd;stroke:none"
         transform="matrix(1.3333333,0,0,-1.3333333,276.66733,523.6484)"
         clip-path="url(#clipPath51)" />
      <path
         id="path52"
         d="m 0,0 c 10.485,0 19.035,8.658 19.035,19.275 0,10.616 -8.55,19.276 -19.035,19.276 -10.484,0 -19.035,-8.66 -19.035,-19.276 C -19.035,8.658 -10.484,0 0,0"
         style="fill:#e09015;fill-opacity:1;fill-rule:evenodd;stroke:none"
         transform="matrix(1.3333333,0,0,-1.3333333,329.35613,523.64587)"
         clip-path="url(#clipPath53)" />
      <path
         id="path54"
         d="M 0,0 C 29.655,0 53.843,1.025 53.843,2.284 53.843,3.543 29.655,4.568 0,4.568 -29.655,4.568 -53.845,3.543 -53.845,2.284 -53.845,1.025 -29.655,0 0,0"
         style="fill:#f39c0f;fill-opacity:1;fill-rule:evenodd;stroke:none"
         transform="matrix(1.3333333,0,0,-1.3333333,498.6992,572.92573)"
         clip-path="url(#clipPath55)" />
      <path
         id="path56"
         d="m 0,0 c -12.467,0 -22.577,10.235 -22.577,22.861 0,12.626 10.11,22.862 22.577,22.862 H 46.868 V 0 Z"
         style="fill:#f39c0f;fill-opacity:1;fill-rule:evenodd;stroke:none"
         transform="matrix(1.3333333,0,0,-1.3333333,443.3984,571.81387)"
         clip-path="url(#clipPath57)" />
      <path
         id="path58"
         d="M 0,0 C 12.435,0 22.576,10.271 22.576,22.861 22.576,35.452 12.435,45.723 0,45.723 -12.436,45.723 -22.577,35.452 -22.577,22.861 -22.577,10.271 -12.436,0 0,0"
         style="fill:#e09015;fill-opacity:1;fill-rule:evenodd;stroke:none"
         transform="matrix(1.3333333,0,0,-1.3333333,505.88933,571.81387)"
         clip-path="url(#clipPath59)" />
      <path
         id="path60"
         d="M 0,0 C 15.153,0 27.512,0.523 27.512,1.166 27.512,1.811 15.153,2.334 0,2.334 -15.153,2.334 -27.512,1.811 -27.512,1.166 -27.512,0.523 -15.153,0 0,0"
         style="fill:#f39c0f;fill-opacity:1;fill-rule:evenodd;stroke:none"
         transform="matrix(1.3333333,0,0,-1.3333333,71.751333,484.65493)"
         clip-path="url(#clipPath61)" />
      <path
         id="path62"
         d="m 0,0 c -6.371,0 -11.536,5.23 -11.536,11.682 0,6.451 5.165,11.681 11.536,11.681 H 23.948 V 0 Z"
         style="fill:#f39c0f;fill-opacity:1;fill-rule:evenodd;stroke:none"
         transform="matrix(1.3333333,0,0,-1.3333333,43.4948,484.08853)"
         clip-path="url(#clipPath63)" />
      <path
         id="path64"
         d="m 0,0 c 6.354,0 11.536,5.248 11.536,11.682 0,6.433 -5.182,11.682 -11.536,11.682 -6.354,0 -11.536,-5.249 -11.536,-11.682 C -11.536,5.248 -6.354,0 0,0"
         style="fill:#e09015;fill-opacity:1;fill-rule:evenodd;stroke:none"
         transform="matrix(1.3333333,0,0,-1.3333333,75.425733,484.08853)"
         clip-path="url(#clipPath65)" />
    </g>
  </g>
</svg>
