<?xml version="1.0" encoding="UTF-8" standalone="no"?>
<!-- Created with Inkscape (http://www.inkscape.org/) -->

<svg
   version="1.1"
   id="svg1"
   width="880"
   height="880"
   viewBox="0 0 880 880"
   sodipodi:docname="white-flower-in-green-pot.svg"
   inkscape:version="1.3.2 (091e20e, 2023-11-25, custom)"
   xmlns:inkscape="http://www.inkscape.org/namespaces/inkscape"
   xmlns:sodipodi="http://sodipodi.sourceforge.net/DTD/sodipodi-0.dtd"
   xmlns="http://www.w3.org/2000/svg"
   xmlns:svg="http://www.w3.org/2000/svg">
  <defs
     id="defs1">
    <clipPath
       clipPathUnits="userSpaceOnUse"
       id="clipPath6">
      <path
         d="M 0,660 H 660 V 0 H 0 Z"
         transform="translate(-329.86721,-71.712902)"
         id="path6" />
    </clipPath>
    <clipPath
       clipPathUnits="userSpaceOnUse"
       id="clipPath8">
      <path
         d="M 0,660 H 660 V 0 H 0 Z"
         transform="translate(-237.80421,-254.3047)"
         id="path8" />
    </clipPath>
    <clipPath
       clipPathUnits="userSpaceOnUse"
       id="clipPath10">
      <path
         d="M 0,660 H 660 V 0 H 0 Z"
         transform="translate(-237.80421,-254.3047)"
         id="path10" />
    </clipPath>
    <clipPath
       clipPathUnits="userSpaceOnUse"
       id="clipPath12">
      <path
         d="M 0,660 H 660 V 0 H 0 Z"
         transform="translate(-272.8735,-184.1455)"
         id="path12" />
    </clipPath>
    <clipPath
       clipPathUnits="userSpaceOnUse"
       id="clipPath14">
      <path
         d="M 0,660 H 660 V 0 H 0 Z"
         transform="translate(-331.18551,-254.3047)"
         id="path14" />
    </clipPath>
    <clipPath
       clipPathUnits="userSpaceOnUse"
       id="clipPath16">
      <path
         d="M 0,660 H 660 V 0 H 0 Z"
         transform="translate(-379.12501,-504.64111)"
         id="path16" />
    </clipPath>
    <clipPath
       clipPathUnits="userSpaceOnUse"
       id="clipPath18">
      <path
         d="M 0,660 H 660 V 0 H 0 Z"
         transform="translate(-325.17091,-254.3047)"
         id="path18" />
    </clipPath>
    <clipPath
       clipPathUnits="userSpaceOnUse"
       id="clipPath20">
      <path
         d="M 0,660 H 660 V 0 H 0 Z"
         transform="translate(-284.99661,-440.63481)"
         id="path20" />
    </clipPath>
    <clipPath
       clipPathUnits="userSpaceOnUse"
       id="clipPath22">
      <path
         d="M 0,660 H 660 V 0 H 0 Z"
         transform="translate(-322.50051,-254.3047)"
         id="path22" />
    </clipPath>
    <clipPath
       clipPathUnits="userSpaceOnUse"
       id="clipPath24">
      <path
         d="M 0,660 H 660 V 0 H 0 Z"
         transform="translate(-207.39361,-426.74071)"
         id="path24" />
    </clipPath>
    <clipPath
       clipPathUnits="userSpaceOnUse"
       id="clipPath26">
      <path
         d="M 0,660 H 660 V 0 H 0 Z"
         transform="translate(-186.5947,-447.53861)"
         id="path26" />
    </clipPath>
    <clipPath
       clipPathUnits="userSpaceOnUse"
       id="clipPath28">
      <path
         d="M 0,660 H 660 V 0 H 0 Z"
         transform="translate(-309.05811,-537.60941)"
         id="path28" />
    </clipPath>
    <clipPath
       clipPathUnits="userSpaceOnUse"
       id="clipPath30">
      <path
         d="M 0,660 H 660 V 0 H 0 Z"
         transform="translate(-279.4204,-554.70652)"
         id="path30" />
    </clipPath>
    <clipPath
       clipPathUnits="userSpaceOnUse"
       id="clipPath32">
      <path
         d="M 0,660 H 660 V 0 H 0 Z"
         transform="translate(-294.37551,-550.21091)"
         id="path32" />
    </clipPath>
  </defs>
  <sodipodi:namedview
     id="namedview1"
     pagecolor="#ffffff"
     bordercolor="#000000"
     borderopacity="0.25"
     inkscape:showpageshadow="2"
     inkscape:pageopacity="0.0"
     inkscape:pagecheckerboard="0"
     inkscape:deskcolor="#d1d1d1"
     inkscape:zoom="0.69318182"
     inkscape:cx="439.27869"
     inkscape:cy="440"
     inkscape:window-width="1440"
     inkscape:window-height="830"
     inkscape:window-x="-6"
     inkscape:window-y="-6"
     inkscape:window-maximized="1"
     inkscape:current-layer="g1">
    <inkscape:page
       x="0"
       y="0"
       inkscape:label="1"
       id="page1"
       width="880"
       height="880"
       margin="0 0.35733333 0.35733333 0"
       bleed="0" />
  </sodipodi:namedview>
  <g
     id="g1"
     inkscape:groupmode="layer"
     inkscape:label="1">
    <g
       id="group-MC0">
      <path
         id="path2"
         d="M 0,0 H 659.732 V 659.732 H 0 Z"
         style="fill:#a6db68;fill-opacity:1;fill-rule:nonzero;stroke:none"
         transform="matrix(1.3333333,0,0,-1.3333333,0,880)" />
      <path
         id="path3"
         d="m 0,0 8.798,11.563 8.797,11.562 H 0 -17.595 l 8.798,-11.562 z"
         style="fill:#c6e896;fill-opacity:1;fill-rule:evenodd;stroke:none"
         transform="matrix(1.3333333,0,0,-1.3333333,276.52347,323.42507)" />
      <path
         id="path4"
         d="M 0,0 16.552,219.269 H -32.213 L -46.512,88.613 -26.38,130.32 -17.835,0 Z"
         style="fill:#599731;fill-opacity:1;fill-rule:evenodd;stroke:none"
         transform="matrix(1.3333333,0,0,-1.3333333,447.388,540.92707)" />
      <path
         id="path5"
         d="m 0,0 c 105.625,0 191.773,3.435 191.773,7.65 0,4.212 -86.148,7.652 -191.773,7.652 -105.626,0 -191.775,-3.44 -191.775,-7.652 C -191.775,3.435 -105.626,0 0,0"
         style="fill:#599731;fill-opacity:1;fill-rule:evenodd;stroke:none"
         transform="matrix(1.3333333,0,0,-1.3333333,439.82293,784.3828)"
         clip-path="url(#clipPath6)" />
      <path
         id="path7"
         d="M 0,0 H 184.124 L 161.683,-176.982 H 22.44 Z"
         style="fill:#66a53a;fill-opacity:1;fill-rule:evenodd;stroke:none"
         transform="matrix(1.3333333,0,0,-1.3333333,317.07227,540.92707)"
         clip-path="url(#clipPath8)" />
      <path
         id="path9"
         d="M 0,0 143.577,-29.073 131.844,-144.341 22.44,-176.982 H 161.683 L 184.124,0 Z"
         style="fill:#599731;fill-opacity:1;fill-rule:evenodd;stroke:none"
         transform="matrix(1.3333333,0,0,-1.3333333,317.07227,540.92707)"
         clip-path="url(#clipPath10)" />
      <path
         id="path11"
         d="m 0,0 7.772,-63.727 31.621,7.142 -5.594,50.074 z m -4.98,40.832 3.407,-27.93 33.989,-7.048 -2.712,24.267 z"
         style="fill:#a6db68;fill-opacity:1;fill-rule:evenodd;stroke:none"
         transform="matrix(1.3333333,0,0,-1.3333333,363.83133,634.47267)"
         clip-path="url(#clipPath12)" />
      <path
         id="path13"
         d="m 0,0 47.94,250.336 h 55.677 L 20.362,0 Z"
         style="fill:#396128;fill-opacity:1;fill-rule:evenodd;stroke:none"
         transform="matrix(1.3333333,0,0,-1.3333333,441.58067,540.92707)"
         clip-path="url(#clipPath14)" />
      <path
         id="path15"
         d="M 0,0 32.174,-149.168 55.678,0 Z"
         style="fill:#599731;fill-opacity:1;fill-rule:evenodd;stroke:none"
         transform="matrix(1.3333333,0,0,-1.3333333,505.5,207.1452)"
         clip-path="url(#clipPath16)" />
      <path
         id="path17"
         d="M 0,0 -40.174,186.33 H -81.615 L -15.156,0 Z"
         style="fill:#396128;fill-opacity:1;fill-rule:evenodd;stroke:none"
         transform="matrix(1.3333333,0,0,-1.3333333,433.5612,540.92707)"
         clip-path="url(#clipPath18)" />
      <path
         id="path19"
         d="M 0,0 -21.271,-111.029 -41.441,0 Z"
         style="fill:#599731;fill-opacity:1;fill-rule:evenodd;stroke:none"
         transform="matrix(1.3333333,0,0,-1.3333333,379.99547,292.48693)"
         clip-path="url(#clipPath20)" />
      <path
         id="path21"
         d="m 0,0 v 243.088 c 0,15.213 -6.208,29.025 -16.217,39.035 -10.008,10.01 -23.822,16.217 -39.034,16.217 h -0.482 c -15.213,0 -29.027,-6.207 -39.036,-16.217 -10.01,-10.01 -16.216,-23.822 -16.216,-39.035 v -37.201 h -8.245 v 37.201 c 0,17.489 7.13,33.365 18.63,44.865 11.501,11.501 27.377,18.632 44.867,18.632 h 0.482 c 17.489,0 33.362,-7.131 44.865,-18.632 11.5,-11.5 18.632,-27.376 18.632,-44.865 L 8.246,0 Z"
         style="fill:#c6e896;fill-opacity:1;fill-rule:evenodd;stroke:none"
         transform="matrix(1.3333333,0,0,-1.3333333,430.00067,540.92707)"
         clip-path="url(#clipPath22)" />
      <path
         id="path23"
         d="m 0,0 c 11.456,0 20.798,9.343 20.798,20.798 0,11.455 -9.342,20.8 -20.798,20.8 -11.456,0 -20.799,-9.345 -20.799,-20.8 C -20.799,9.343 -11.456,0 0,0"
         style="fill:#ffffff;fill-opacity:1;fill-rule:evenodd;stroke:none"
         transform="matrix(1.3333333,0,0,-1.3333333,276.5248,311.0124)"
         clip-path="url(#clipPath24)" />
      <path
         id="path25"
         d="M 0,0 V -30.107 L 20.798,-4.43 41.597,-30.107 V 0 L 20.798,-3.816 Z"
         style="fill:#ffffff;fill-opacity:1;fill-rule:evenodd;stroke:none"
         transform="matrix(1.3333333,0,0,-1.3333333,248.79293,283.28187)"
         clip-path="url(#clipPath26)" />
      <path
         id="path27"
         d="m 0,0 c -1.268,2.89 -1.947,5.709 -2.143,8.388 -0.364,4.909 0.882,9.331 3.011,12.876 2.149,3.582 5.211,6.279 8.435,7.696 h 0.009 c 0.551,0.241 1.108,0.447 1.665,0.615 1.159,0.502 2.439,0.78 3.78,0.78 5.261,0 9.526,-4.266 9.526,-9.527 0,-5.261 -4.265,-9.526 -9.526,-9.526 -5.127,0 -9.306,4.051 -9.517,9.128 C 4.943,20.022 4.659,19.597 4.394,19.153 2.672,16.287 1.665,12.691 1.962,8.679 2.127,6.459 2.697,4.101 3.769,1.659 Z"
         style="fill:#c6e896;fill-opacity:1;fill-rule:evenodd;stroke:none"
         transform="matrix(1.3333333,0,0,-1.3333333,412.07747,163.18747)"
         clip-path="url(#clipPath28)" />
      <path
         id="path29"
         d="m 0,0 c -3.112,0.53 -5.837,1.518 -8.183,2.828 -4.299,2.398 -7.304,5.874 -9.091,9.601 -1.807,3.767 -2.372,7.809 -1.78,11.281 l 0.005,0.007 c 0.102,0.592 0.236,1.17 0.403,1.728 0.22,1.244 0.691,2.464 1.431,3.585 2.896,4.393 8.805,5.605 13.197,2.708 4.392,-2.896 5.604,-8.805 2.708,-13.197 -2.823,-4.281 -8.507,-5.54 -12.859,-2.92 0.176,-0.473 0.375,-0.942 0.598,-1.409 1.446,-3.016 3.893,-5.837 7.407,-7.797 C -4.221,5.33 -1.939,4.508 0.69,4.06 Z"
         style="fill:#c6e896;fill-opacity:1;fill-rule:evenodd;stroke:none"
         transform="matrix(1.3333333,0,0,-1.3333333,372.56053,140.39133)"
         clip-path="url(#clipPath30)" />
      <path
         id="path31"
         d="m 0,0 c -3.119,0.477 -6.017,0.398 -8.656,-0.106 -4.836,-0.922 -8.783,-3.274 -11.653,-6.249 -2.901,-3.006 -4.711,-6.664 -5.242,-10.146 l 0.002,-0.008 c -0.091,-0.594 -0.145,-1.185 -0.162,-1.767 -0.183,-1.25 -0.12,-2.557 0.228,-3.854 1.366,-5.08 6.592,-8.092 11.673,-6.727 5.081,1.366 8.093,6.591 6.725,11.672 -1.329,4.953 -6.327,7.939 -11.283,6.823 0.317,0.393 0.653,0.777 1.013,1.149 2.321,2.405 5.531,4.313 9.484,5.067 2.188,0.417 4.612,0.479 7.248,0.076 z"
         style="fill:#c6e896;fill-opacity:1;fill-rule:evenodd;stroke:none"
         transform="matrix(1.3333333,0,0,-1.3333333,392.50067,146.38547)"
         clip-path="url(#clipPath32)" />
    </g>
  </g>
</svg>
