<?xml version="1.0" encoding="UTF-8" standalone="no"?>
<!-- Created with Inkscape (http://www.inkscape.org/) -->

<svg
   version="1.1"
   id="svg1"
   width="880"
   height="880"
   viewBox="0 0 880 880"
   sodipodi:docname="airplane-trail.svg"
   inkscape:version="1.3.2 (091e20e, 2023-11-25, custom)"
   xmlns:inkscape="http://www.inkscape.org/namespaces/inkscape"
   xmlns:sodipodi="http://sodipodi.sourceforge.net/DTD/sodipodi-0.dtd"
   xmlns="http://www.w3.org/2000/svg"
   xmlns:svg="http://www.w3.org/2000/svg">
  <defs
     id="defs1">
    <clipPath
       clipPathUnits="userSpaceOnUse"
       id="clipPath4">
      <path
         d="M 0,660 H 660 V 0 H 0 Z"
         transform="translate(-659.62892,-267.7783)"
         id="path4" />
    </clipPath>
    <clipPath
       clipPathUnits="userSpaceOnUse"
       id="clipPath6">
      <path
         d="M 0,660 H 660 V 0 H 0 Z"
         transform="translate(0.0659,-148.4883)"
         id="path6" />
    </clipPath>
    <clipPath
       clipPathUnits="userSpaceOnUse"
       id="clipPath8">
      <path
         d="M 0,660 H 660 V 0 H 0 Z"
         transform="translate(-164.50881,-81.541)"
         id="path8" />
    </clipPath>
    <clipPath
       clipPathUnits="userSpaceOnUse"
       id="clipPath10">
      <path
         d="M 0,660 H 660 V 0 H 0 Z"
         transform="translate(-659.62892,-52.252899)"
         id="path10" />
    </clipPath>
    <clipPath
       clipPathUnits="userSpaceOnUse"
       id="clipPath12">
      <path
         d="M 0,660 H 660 V 0 H 0 Z"
         transform="translate(-659.62892,-130.3555)"
         id="path12" />
    </clipPath>
    <clipPath
       clipPathUnits="userSpaceOnUse"
       id="clipPath14">
      <path
         d="M 0,660 H 660 V 0 H 0 Z"
         transform="translate(-250.57471,-535.37261)"
         id="path14" />
    </clipPath>
    <clipPath
       clipPathUnits="userSpaceOnUse"
       id="clipPath16">
      <path
         d="M 0,660 H 660 V 0 H 0 Z"
         transform="translate(-213.32571,-524.35501)"
         id="path16" />
    </clipPath>
    <clipPath
       clipPathUnits="userSpaceOnUse"
       id="clipPath18">
      <path
         d="M 0,660 H 660 V 0 H 0 Z"
         transform="translate(-403.44241,-539.87741)"
         id="path18" />
    </clipPath>
    <clipPath
       clipPathUnits="userSpaceOnUse"
       id="clipPath20">
      <path
         d="M 0,660 H 660 V 0 H 0 Z"
         transform="translate(-403.44241,-539.87741)"
         id="path20" />
    </clipPath>
    <clipPath
       clipPathUnits="userSpaceOnUse"
       id="clipPath22">
      <path
         d="M 0,660 H 660 V 0 H 0 Z"
         transform="translate(-479.10741,-536.47711)"
         id="path22" />
    </clipPath>
    <clipPath
       clipPathUnits="userSpaceOnUse"
       id="clipPath24">
      <path
         d="M 0,660 H 660 V 0 H 0 Z"
         transform="translate(-402.30761,-538.03081)"
         id="path24" />
    </clipPath>
    <clipPath
       clipPathUnits="userSpaceOnUse"
       id="clipPath26">
      <path
         d="M 0,660 H 660 V 0 H 0 Z"
         transform="translate(-278.16891,-533.13091)"
         id="path26" />
    </clipPath>
    <clipPath
       clipPathUnits="userSpaceOnUse"
       id="clipPath28">
      <path
         d="M 0,660 H 660 V 0 H 0 Z"
         transform="translate(-397.30271,-527.64652)"
         id="path28" />
    </clipPath>
    <clipPath
       clipPathUnits="userSpaceOnUse"
       id="clipPath30">
      <path
         d="M 0,660 H 660 V 0 H 0 Z"
         transform="translate(-274.7866,-526.44821)"
         id="path30" />
    </clipPath>
    <clipPath
       clipPathUnits="userSpaceOnUse"
       id="clipPath32">
      <path
         d="M 0,660 H 660 V 0 H 0 Z"
         transform="translate(-391.94241,-522.96142)"
         id="path32" />
    </clipPath>
    <clipPath
       clipPathUnits="userSpaceOnUse"
       id="clipPath34">
      <path
         d="M 0,660 H 660 V 0 H 0 Z"
         transform="translate(-443.02341,-417.19731)"
         id="path34" />
    </clipPath>
    <clipPath
       clipPathUnits="userSpaceOnUse"
       id="clipPath36">
      <path
         d="M 0,660 H 660 V 0 H 0 Z"
         transform="translate(-498.81151,-427.92191)"
         id="path36" />
    </clipPath>
    <clipPath
       clipPathUnits="userSpaceOnUse"
       id="clipPath38">
      <path
         d="M 0,660 H 660 V 0 H 0 Z"
         transform="translate(-95.656705,-301.02051)"
         id="path38" />
    </clipPath>
    <clipPath
       clipPathUnits="userSpaceOnUse"
       id="clipPath40">
      <path
         d="M 0,660 H 660 V 0 H 0 Z"
         transform="translate(-132.2178,-308.05081)"
         id="path40" />
    </clipPath>
  </defs>
  <sodipodi:namedview
     id="namedview1"
     pagecolor="#ffffff"
     bordercolor="#000000"
     borderopacity="0.25"
     inkscape:showpageshadow="2"
     inkscape:pageopacity="0.0"
     inkscape:pagecheckerboard="0"
     inkscape:deskcolor="#d1d1d1"
     inkscape:zoom="0.67272727"
     inkscape:cx="439.25676"
     inkscape:cy="440"
     inkscape:window-width="1440"
     inkscape:window-height="830"
     inkscape:window-x="-6"
     inkscape:window-y="-6"
     inkscape:window-maximized="1"
     inkscape:current-layer="g1">
    <inkscape:page
       x="0"
       y="0"
       inkscape:label="1"
       id="page1"
       width="880"
       height="880"
       margin="0 0.49466667 1.3986666 0"
       bleed="0" />
  </sodipodi:namedview>
  <g
     id="g1"
     inkscape:groupmode="layer"
     inkscape:label="1">
    <g
       id="group-MC0">
      <path
         id="path2"
         d="M 0,0 H 659.629 V 658.95 H 0 Z"
         style="fill:#85d3bb;fill-opacity:1;fill-rule:nonzero;stroke:none"
         transform="matrix(1.3333333,0,0,-1.3333333,0,880)" />
      <path
         id="path3"
         d="m 0,0 v -166.063 c -22.866,2.853 -42.865,14.929 -56.16,32.39 -10.953,-14.012 -28.013,-23.022 -47.176,-23.022 -14.249,0 -27.334,4.982 -37.61,13.298 -1.285,-21.18 -18.864,-37.959 -40.366,-37.959 -14.632,0 -27.447,7.767 -34.549,19.408 -11.365,-10.733 -26.692,-17.314 -43.558,-17.314 -15.686,0 -30.041,5.696 -41.114,15.125 -7.95,-8.453 -19.237,-13.733 -31.758,-13.733 -15.722,0 -29.502,8.326 -37.165,20.811 -13.034,-12.866 -30.938,-20.811 -50.701,-20.811 -24.012,0 -45.282,11.729 -58.404,29.769 -6.247,-20.757 -25.505,-35.88 -48.299,-35.88 -12.604,0 -24.128,4.625 -32.97,12.267 -8.142,-4.372 -17.451,-6.855 -27.341,-6.855 -20.536,0 -38.572,10.696 -48.846,26.818 -6.334,-6.252 -14.527,-10.624 -23.678,-12.211 v 144.213 c 8.552,5.412 18.687,8.544 29.556,8.544 29.758,0 54.028,-23.481 55.302,-52.923 13.5,-2.933 25.243,-10.574 33.424,-21.116 4.608,1.388 9.492,2.134 14.553,2.134 13.605,0 25.949,-5.387 35.021,-14.142 4.183,35.882 34.676,63.734 71.682,63.734 1.603,0 3.192,-0.055 4.769,-0.158 8.93,29.935 36.666,51.759 69.502,51.759 39.868,0 72.221,-32.171 72.518,-71.971 4.488,1.005 9.157,1.541 13.949,1.541 30.897,0 56.633,-22.083 62.294,-51.325 4.858,2.066 10.202,3.207 15.813,3.207 6.743,0 13.098,-1.654 18.692,-4.571 -0.368,2.676 -0.561,5.409 -0.561,8.185 0,33.052 26.793,59.845 59.845,59.845 13.958,0 26.8,-4.78 36.979,-12.789 C -54.821,-23.172 -29.854,-3.723 0,0"
         style="fill:#ffffff;fill-opacity:1;fill-rule:evenodd;stroke:none"
         transform="matrix(1.3333333,0,0,-1.3333333,879.5052,522.96227)"
         clip-path="url(#clipPath4)" />
      <path
         id="path5"
         d="M 0,0 606.697,-43.237 274.757,-126.919 0,-47.421 Z"
         style="fill:#f9de1c;fill-opacity:1;fill-rule:evenodd;stroke:none"
         transform="matrix(1.3333333,0,0,-1.3333333,-0.08786667,682.0156)"
         clip-path="url(#clipPath6)" />
      <path
         id="path7"
         d="M 0,0 495.12,69.735 V -55.788 Z"
         style="fill:#fab40a;fill-opacity:1;fill-rule:evenodd;stroke:none"
         transform="matrix(1.3333333,0,0,-1.3333333,219.34507,771.27867)"
         clip-path="url(#clipPath8)" />
      <path
         id="path9"
         d="M 0,0 -659.695,80.893 V -52.998 l 659.695,0 z"
         style="fill:#9ac421;fill-opacity:1;fill-rule:evenodd;stroke:none"
         transform="matrix(1.3333333,0,0,-1.3333333,879.5052,810.32947)"
         clip-path="url(#clipPath10)" />
      <path
         id="path11"
         d="M 0,0 -659.695,-131.101 H 0 Z"
         style="fill:#769a2a;fill-opacity:1;fill-rule:evenodd;stroke:none"
         transform="matrix(1.3333333,0,0,-1.3333333,879.5052,706.19267)"
         clip-path="url(#clipPath12)" />
      <path
         id="path13"
         d="m 0,0 -44.22,9.904 -28.941,-8.368 12.901,0.697 23.011,-13.251 34.52,6.974 z"
         style="fill:#dcf3f0;fill-opacity:1;fill-rule:evenodd;stroke:none"
         transform="matrix(1.3333333,0,0,-1.3333333,334.0996,166.16987)"
         clip-path="url(#clipPath14)" />
      <path
         id="path15"
         d="m 0,0 188.029,55.622 c 18.268,5.404 34.901,6.656 53.772,4.046 7.586,-1.048 15.11,-1.775 23.002,-2.228 4.892,-0.282 8.837,-3.739 9.757,-8.551 0.919,-4.813 -1.474,-9.482 -5.914,-11.547 C 255.094,31.041 241.474,26.574 225.922,23.228 L 94.901,-4.967 c -25.036,-5.387 -47.462,-5.36 -72.484,0.087 z"
         style="fill:#c4ebe2;fill-opacity:1;fill-rule:evenodd;stroke:none"
         transform="matrix(1.3333333,0,0,-1.3333333,284.43427,180.86)"
         clip-path="url(#clipPath16)" />
      <path
         id="path17"
         d="m 0,0 -157.253,11.244 -16.606,-6.411 93.246,-22.179 z"
         style="fill:#b2e5d8;fill-opacity:1;fill-rule:evenodd;stroke:none"
         transform="matrix(1.3333333,0,0,-1.3333333,537.9232,160.16347)"
         clip-path="url(#clipPath18)" />
      <path
         id="path19"
         d="M 0,0 75.665,-3.4 59.058,-9.811 -80.613,-17.346 Z"
         style="fill:#b2e5d8;fill-opacity:1;fill-rule:evenodd;stroke:none"
         transform="matrix(1.3333333,0,0,-1.3333333,537.9232,160.16347)"
         clip-path="url(#clipPath20)" />
      <path
         id="path21"
         d="M 0,0 -64.88,5.722 -83.605,1.691 Z"
         style="fill:#b2e5d8;fill-opacity:1;fill-rule:evenodd;stroke:none"
         transform="matrix(1.3333333,0,0,-1.3333333,638.80987,164.6972)"
         clip-path="url(#clipPath22)" />
      <path
         id="path23"
         d="m 0,0 -15.339,8.292 -140.78,4.798 z"
         style="fill:#b2e5d8;fill-opacity:1;fill-rule:evenodd;stroke:none"
         transform="matrix(1.3333333,0,0,-1.3333333,536.41013,162.6256)"
         clip-path="url(#clipPath24)" />
      <path
         id="path25"
         d="M 0,0 30.267,10.978 C 38.404,13.93 42.954,-0.669 34.296,-2.52 L 4.463,-8.896 C -0.749,-10.01 -4.953,-1.795 0,0"
         style="fill:#9adcc7;fill-opacity:1;fill-rule:evenodd;stroke:none"
         transform="matrix(1.3333333,0,0,-1.3333333,370.89187,169.1588)"
         clip-path="url(#clipPath26)" />
      <path
         id="path27"
         d="m 0,0 26.303,9.541 c 7.073,2.565 11.027,-10.123 3.5,-11.731 L 3.879,-7.732 C -0.652,-8.699 -4.305,-1.561 0,0"
         style="fill:#9adcc7;fill-opacity:1;fill-rule:evenodd;stroke:none"
         transform="matrix(1.3333333,0,0,-1.3333333,529.73693,176.47133)"
         clip-path="url(#clipPath28)" />
      <path
         id="path29"
         d="M 0,0 -274.852,-55.717 V -86.401 Z"
         style="fill:#ffffff;fill-opacity:1;fill-rule:evenodd;stroke:none"
         transform="matrix(1.3333333,0,0,-1.3333333,366.38213,178.06907)"
         clip-path="url(#clipPath30)" />
      <path
         id="path31"
         d="M 0,0 -392.008,-102.336 V -133.02 Z"
         style="fill:#ffffff;fill-opacity:1;fill-rule:evenodd;stroke:none"
         transform="matrix(1.3333333,0,0,-1.3333333,522.58987,182.71813)"
         clip-path="url(#clipPath32)" />
      <path
         id="path33"
         d="m 0,0 c 5.37,1.368 10.196,0.261 13.516,-2.604 4.771,12.943 16.28,24.141 29.72,27.565 10.168,2.59 19.233,0.166 25.11,-5.718 4.97,6.043 11.724,10.699 19.163,12.593 8.465,2.157 16.04,0.286 21.116,-4.406 0.96,0.401 1.945,0.737 2.953,0.993 10.013,2.551 18.131,-3.498 18.131,-13.512 0,-10.014 -8.118,-20.198 -18.131,-22.749 -1.008,-0.257 -1.993,-0.425 -2.953,-0.511 -5.076,-7.279 -12.651,-13.009 -21.116,-15.165 -7.439,-1.894 -14.193,-0.68 -19.163,2.829 -5.877,-8.879 -14.942,-15.919 -25.11,-18.51 -13.44,-3.424 -24.949,1.911 -29.72,12.423 -3.32,-4.557 -8.146,-8.122 -13.516,-9.489 -10.012,-2.551 -18.129,3.498 -18.129,13.512 0,10.013 8.117,20.199 18.129,22.749"
         style="fill:#ffffff;fill-opacity:1;fill-rule:evenodd;stroke:none"
         transform="matrix(1.3333333,0,0,-1.3333333,590.69787,323.73693)"
         clip-path="url(#clipPath34)" />
      <path
         id="path35"
         d="M 0,0 52.304,6.002 104.605,12.003 52.304,-8.643 0,-29.289 l -52.302,-6.001 -52.301,-6.001 52.301,20.646 z"
         style="fill:#ffffff;fill-opacity:1;fill-rule:evenodd;stroke:none"
         transform="matrix(1.3333333,0,0,-1.3333333,665.082,309.43747)"
         clip-path="url(#clipPath36)" />
      <path
         id="path37"
         d="m 0,0 c 3.52,0.899 6.682,0.173 8.857,-1.704 3.127,8.482 10.67,15.819 19.479,18.064 6.663,1.696 12.602,0.11 16.454,-3.748 3.257,3.959 7.684,7.01 12.559,8.254 5.546,1.412 10.51,0.187 13.837,-2.888 0.63,0.264 1.276,0.482 1.936,0.65 6.563,1.671 11.881,-2.293 11.881,-8.853 0,-6.565 -5.318,-13.239 -11.881,-14.91 -0.66,-0.168 -1.306,-0.276 -1.936,-0.336 -3.327,-4.769 -8.291,-8.523 -13.837,-9.938 -4.875,-1.239 -9.302,-0.445 -12.559,1.855 -3.852,-5.818 -9.791,-10.433 -16.454,-12.132 -8.809,-2.242 -16.352,1.254 -19.479,8.143 C 6.682,-20.53 3.52,-22.866 0,-23.763 c -6.563,-1.671 -11.881,2.293 -11.881,8.856 0,6.562 5.318,13.236 11.881,14.907"
         style="fill:#ffffff;fill-opacity:1;fill-rule:evenodd;stroke:none"
         transform="matrix(1.3333333,0,0,-1.3333333,127.54227,478.63933)"
         clip-path="url(#clipPath38)" />
      <path
         id="path39"
         d="M 0,0 34.275,3.935 68.552,7.866 34.275,-5.663 0,-19.192 l -34.276,-3.935 -34.276,-3.934 34.276,13.53 z"
         style="fill:#ffffff;fill-opacity:1;fill-rule:evenodd;stroke:none"
         transform="matrix(1.3333333,0,0,-1.3333333,176.2904,469.2656)"
         clip-path="url(#clipPath40)" />
    </g>
  </g>
</svg>
