<?xml version="1.0" encoding="UTF-8" standalone="no"?>
<!-- Created with Inkscape (http://www.inkscape.org/) -->

<svg
   version="1.1"
   id="svg1"
   width="880"
   height="880"
   viewBox="0 0 880 880"
   sodipodi:docname="window-with-flower.svg"
   inkscape:version="1.3.2 (091e20e, 2023-11-25, custom)"
   xmlns:inkscape="http://www.inkscape.org/namespaces/inkscape"
   xmlns:sodipodi="http://sodipodi.sourceforge.net/DTD/sodipodi-0.dtd"
   xmlns="http://www.w3.org/2000/svg"
   xmlns:svg="http://www.w3.org/2000/svg">
  <defs
     id="defs1">
    <clipPath
       clipPathUnits="userSpaceOnUse"
       id="clipPath12">
      <path
         d="M 0,660 H 660 V 0 H 0 Z"
         transform="translate(-354.16111,-559.45171)"
         id="path12" />
    </clipPath>
    <clipPath
       clipPathUnits="userSpaceOnUse"
       id="clipPath14">
      <path
         d="M 0,660 H 660 V 0 H 0 Z"
         transform="translate(-382.03131,-541.75441)"
         id="path14" />
    </clipPath>
    <clipPath
       clipPathUnits="userSpaceOnUse"
       id="clipPath16">
      <path
         d="M 0,660 H 660 V 0 H 0 Z"
         transform="translate(-354.16111,-559.45171)"
         id="path16" />
    </clipPath>
    <clipPath
       clipPathUnits="userSpaceOnUse"
       id="clipPath18">
      <path
         d="M 0,660 H 660 V 0 H 0 Z"
         id="path18" />
    </clipPath>
    <clipPath
       clipPathUnits="userSpaceOnUse"
       id="clipPath20">
      <path
         d="M 0,660 H 660 V 0 H 0 Z"
         transform="translate(-258.95701,-491.77201)"
         id="path20" />
    </clipPath>
    <clipPath
       clipPathUnits="userSpaceOnUse"
       id="clipPath22">
      <path
         d="M 0,660 H 660 V 0 H 0 Z"
         transform="translate(-420.88181,-384.92331)"
         id="path22" />
    </clipPath>
    <clipPath
       clipPathUnits="userSpaceOnUse"
       id="clipPath24">
      <path
         d="M 0,660 H 660 V 0 H 0 Z"
         transform="translate(-209.87061,-282.2959)"
         id="path24" />
    </clipPath>
    <clipPath
       clipPathUnits="userSpaceOnUse"
       id="clipPath26">
      <path
         d="M 0,660 H 660 V 0 H 0 Z"
         transform="translate(-407.27831,-529.54051)"
         id="path26" />
    </clipPath>
    <clipPath
       clipPathUnits="userSpaceOnUse"
       id="clipPath28">
      <path
         d="M 0,660 H 660 V 0 H 0 Z"
         id="path28" />
    </clipPath>
    <clipPath
       clipPathUnits="userSpaceOnUse"
       id="clipPath30">
      <path
         d="M 0,660 H 660 V 0 H 0 Z"
         transform="translate(-376.26171,-107.9082)"
         id="path30" />
    </clipPath>
    <clipPath
       clipPathUnits="userSpaceOnUse"
       id="clipPath32">
      <path
         d="M 0,660 H 660 V 0 H 0 Z"
         transform="translate(-379.15141,-160.0488)"
         id="path32" />
    </clipPath>
    <clipPath
       clipPathUnits="userSpaceOnUse"
       id="clipPath34">
      <path
         d="M 0,660 H 660 V 0 H 0 Z"
         transform="translate(-333.11821,-169.3369)"
         id="path34" />
    </clipPath>
    <clipPath
       clipPathUnits="userSpaceOnUse"
       id="clipPath36">
      <path
         d="M 0,660 H 660 V 0 H 0 Z"
         transform="translate(-333.11821,-171.3643)"
         id="path36" />
    </clipPath>
    <clipPath
       clipPathUnits="userSpaceOnUse"
       id="clipPath38">
      <path
         d="M 0,660 H 660 V 0 H 0 Z"
         transform="translate(-362.37011,-172.74411)"
         id="path38" />
    </clipPath>
    <clipPath
       clipPathUnits="userSpaceOnUse"
       id="clipPath40">
      <path
         d="M 0,660 H 660 V 0 H 0 Z"
         transform="translate(-330.47561,-172.55271)"
         id="path40" />
    </clipPath>
    <clipPath
       clipPathUnits="userSpaceOnUse"
       id="clipPath42">
      <path
         d="M 0,660 H 660 V 0 H 0 Z"
         transform="translate(-335.28321,-172.55271)"
         id="path42" />
    </clipPath>
    <clipPath
       clipPathUnits="userSpaceOnUse"
       id="clipPath44">
      <path
         d="M 0,660 H 660 V 0 H 0 Z"
         transform="translate(-334.47071,-172.55271)"
         id="path44" />
    </clipPath>
    <clipPath
       clipPathUnits="userSpaceOnUse"
       id="clipPath46">
      <path
         d="M 0,660 H 660 V 0 H 0 Z"
         id="path46" />
    </clipPath>
    <clipPath
       clipPathUnits="userSpaceOnUse"
       id="clipPath48">
      <path
         d="M 0,660 H 660 V 0 H 0 Z"
         id="path48" />
    </clipPath>
    <clipPath
       clipPathUnits="userSpaceOnUse"
       id="clipPath50">
      <path
         d="M 0,660 H 660 V 0 H 0 Z"
         id="path50" />
    </clipPath>
    <clipPath
       clipPathUnits="userSpaceOnUse"
       id="clipPath52">
      <path
         d="M 0,660 H 660 V 0 H 0 Z"
         id="path52" />
    </clipPath>
    <clipPath
       clipPathUnits="userSpaceOnUse"
       id="clipPath54">
      <path
         d="M 0,660 H 660 V 0 H 0 Z"
         id="path54" />
    </clipPath>
    <clipPath
       clipPathUnits="userSpaceOnUse"
       id="clipPath56">
      <path
         d="M 0,660 H 660 V 0 H 0 Z"
         id="path56" />
    </clipPath>
    <clipPath
       clipPathUnits="userSpaceOnUse"
       id="clipPath58">
      <path
         d="M 0,660 H 660 V 0 H 0 Z"
         id="path58" />
    </clipPath>
    <clipPath
       clipPathUnits="userSpaceOnUse"
       id="clipPath60">
      <path
         d="M 0,660 H 660 V 0 H 0 Z"
         id="path60" />
    </clipPath>
    <clipPath
       clipPathUnits="userSpaceOnUse"
       id="clipPath62">
      <path
         d="M 0,660 H 660 V 0 H 0 Z"
         id="path62" />
    </clipPath>
  </defs>
  <sodipodi:namedview
     id="namedview1"
     pagecolor="#ffffff"
     bordercolor="#000000"
     borderopacity="0.25"
     inkscape:showpageshadow="2"
     inkscape:pageopacity="0.0"
     inkscape:pagecheckerboard="0"
     inkscape:deskcolor="#d1d1d1"
     inkscape:zoom="0.67272727"
     inkscape:cx="439.25676"
     inkscape:cy="440"
     inkscape:window-width="1440"
     inkscape:window-height="830"
     inkscape:window-x="-6"
     inkscape:window-y="-6"
     inkscape:window-maximized="1"
     inkscape:current-layer="g1">
    <inkscape:page
       x="0"
       y="0"
       inkscape:label="1"
       id="page1"
       width="880"
       height="880"
       margin="0 0.090666667 0.91600001 0.82611066"
       bleed="0" />
  </sodipodi:namedview>
  <g
     id="g1"
     inkscape:groupmode="layer"
     inkscape:label="1">
    <g
       id="group-MC0">
      <path
         id="path2"
         d="M 0.619,0 H 659.931 V 659.313 H 0.619 Z"
         style="fill:#e2beac;fill-opacity:1;fill-rule:nonzero;stroke:none"
         transform="matrix(1.3333333,0,0,-1.3333333,0,880)" />
      <path
         id="path3"
         d="M 0,0 V -359.174 L 356.793,-659.313 H 659.31 V -338.53 L 269.279,0 Z"
         style="fill:#f1d0c1;fill-opacity:1;fill-rule:nonzero;stroke:none"
         transform="matrix(1.3333333,0,0,-1.3333333,0.828,0.916)" />
      <path
         id="path4"
         d="M 0,0 53.114,-53.113 V -68.069 H -341.404 L -388.307,-4.38 Z"
         style="fill:#cda38b;fill-opacity:1;fill-rule:evenodd;stroke:none"
         transform="matrix(1.3333333,0,0,-1.3333333,709.00653,744.28907)" />
      <path
         id="path5"
         d="m 0,0 19.002,-19.003 v -457.999 l -185.466,74.513 z"
         style="fill:#cda38b;fill-opacity:1;fill-rule:evenodd;stroke:none"
         transform="matrix(1.3333333,0,0,-1.3333333,677.93093,114.1256)" />
      <path
         id="path6"
         d="M 157.787,113.39 H 508.449 V 574.407 H 157.787 Z"
         style="fill:#f6e3d8;fill-opacity:1;fill-rule:evenodd;stroke:none"
         transform="matrix(1.3333333,0,0,-1.3333333,0,880)" />
      <path
         id="path7"
         d="M 172.741,128.344 H 493.495 V 559.452 H 172.741 Z"
         style="fill:#2f2825;fill-opacity:1;fill-rule:evenodd;stroke:none"
         transform="matrix(1.3333333,0,0,-1.3333333,0,880)" />
      <path
         id="path8"
         d="m 98.384,75.743 h 469.467 v 21.66 H 98.384 Z"
         style="fill:#f6e3d8;fill-opacity:1;fill-rule:evenodd;stroke:none"
         transform="matrix(1.3333333,0,0,-1.3333333,0,880)" />
      <path
         id="path9"
         d="M 0,0 59.403,15.986 H 410.064 L 469.466,0 Z"
         style="fill:#ffffff;fill-opacity:1;fill-rule:evenodd;stroke:none"
         transform="matrix(1.3333333,0,0,-1.3333333,131.17907,750.12893)" />
      <path
         id="path10"
         d="m 382.031,541.754 h 63.24 V 384.923 h -63.24 z m -132.458,0 h 79.476 V 384.923 h -79.476 z"
         style="fill:#574e4e;fill-opacity:1;fill-rule:evenodd;stroke:none"
         transform="matrix(1.3333333,0,0,-1.3333333,0,880)" />
      <path
         id="path11"
         d="M 0,0 C 20.781,-181.484 69.046,-322.508 139.334,-431.108 V 0 Z M -42.087,0 C -62.868,-181.484 -111.132,-322.508 -181.42,-431.108 V 0 Z"
         style="fill:#b2a29e;fill-opacity:1;fill-rule:evenodd;stroke:none"
         transform="matrix(1.3333333,0,0,-1.3333333,472.2148,134.0644)"
         clip-path="url(#clipPath12)" />
      <path
         id="path13"
         d="M 0,0 H 63.24 V -156.831 H 3.438 c -1.17,4.604 -2.315,9.244 -3.438,13.916 z m -72.089,0 c -7.087,-56.158 -16.87,-108.35 -29.175,-156.831 h -31.194 V 0 Z"
         style="fill:#cbbdba;fill-opacity:1;fill-rule:evenodd;stroke:none"
         transform="matrix(1.3333333,0,0,-1.3333333,509.37507,157.6608)"
         clip-path="url(#clipPath14)" />
      <path
         id="path15"
         d="m 0,0 c 1.726,-15.063 3.643,-29.839 5.744,-44.349 h 133.59 V 0 Z m -42.087,0 c -1.725,-15.063 -3.642,-29.839 -5.743,-44.349 h -96.46 v -322.294 c -11.581,-22.659 -23.969,-44.131 -37.13,-64.465 V 0 Z"
         style="fill:#948681;fill-opacity:1;fill-rule:evenodd;stroke:none"
         transform="matrix(1.3333333,0,0,-1.3333333,472.2148,134.0644)"
         clip-path="url(#clipPath16)" />
      <path
         id="path17"
         d="m 382.031,541.754 h 63.24 v -26.652 h -63.24 z m -72.089,0 c -1.134,-8.983 -2.34,-17.867 -3.611,-26.652 h -56.758 v 26.652 z"
         style="fill:#b2a29e;fill-opacity:1;fill-rule:evenodd;stroke:none"
         transform="matrix(1.3333333,0,0,-1.3333333,0,880)"
         clip-path="url(#clipPath18)" />
      <path
         id="path19"
         d="m 0,0 c -19.628,-69.714 -45.956,-135.311 -86.216,-192.34 v -28.948 C -45.383,-151.775 -14.705,-78.695 0,0 m 0,-50.927 c -19.628,-89.522 -45.956,-168.326 -86.216,-224.835 v -42.802 C -45.383,-243.993 -14.705,-157.13 0,-50.927 M 148.321,0 c 19.628,-69.714 45.956,-135.311 86.217,-192.34 v -28.948 C 193.705,-151.775 163.026,-78.695 148.321,0 m 0,-50.927 c 19.628,-89.522 45.956,-168.326 86.217,-224.835 v -42.802 c -40.833,74.571 -71.512,161.434 -86.217,267.637 m 0,88.695 c 14.705,-64.407 45.384,-117.088 86.217,-162.313 v 25.957 c -40.261,34.273 -66.589,82.064 -86.217,136.356 M 0,37.768 C -14.705,-26.639 -45.383,-79.32 -86.216,-124.545 v 25.957 C -45.956,-64.315 -19.628,-16.524 0,37.768"
         style="fill:#948681;fill-opacity:1;fill-rule:evenodd;stroke:none"
         transform="matrix(1.3333333,0,0,-1.3333333,345.276,224.304)"
         clip-path="url(#clipPath20)" />
      <path
         id="path21"
         d="M 0,0 C -4.888,18.074 -9.4,36.752 -13.603,55.921 -10.936,36.658 -7.74,18.034 -4.057,0 Z M 24.39,0.001 C 9.117,34.014 -3.185,69.851 -13.603,106.849 -6.731,70.077 3.628,34.53 16.881,0 h 7.509 z m 0,64.719 V 47.934 C 7.509,77.066 -5.483,109.053 -13.603,144.617 -3.185,115.804 9.117,88.822 24.39,64.72 m -195.699,0.462 v 10.356 c 3.298,10.334 6.417,20.775 9.384,31.311 -2.628,-14.065 -5.769,-27.949 -9.384,-41.667 m 0,-64.387 v 15.314 c 3.298,13 6.417,26.283 9.384,39.812 -2.628,-18.98 -5.769,-37.34 -9.384,-55.126 m 9.384,143.822 c -2.628,-11.511 -5.769,-22.645 -9.384,-33.432 v 9.287 c 3.298,7.884 6.417,15.939 9.384,24.145"
         style="fill:#b2a29e;fill-opacity:1;fill-rule:evenodd;stroke:none"
         transform="matrix(1.3333333,0,0,-1.3333333,561.17573,366.76893)"
         clip-path="url(#clipPath22)" />
      <path
         id="path23"
         d="m 0,0 c -10.905,-24.449 -23.181,-46.707 -37.129,-66.286 v -42.802 C -23.559,-84.307 -11.114,-58.165 0,-30.41 Z M 0,79.314 V 58.749 C -11.114,34.784 -23.559,11.29 -37.129,-11.811 V 17.136 C -23.181,36.896 -10.905,57.684 0,79.314 m 0,53.333 C -11.113,115.814 -23.559,99.96 -37.129,84.931 v 25.957 C -23.18,122.763 -10.905,136.262 0,151.09 Z m 197.408,114.598 c 1.114,-4.88 2.321,-9.692 3.617,-14.438 h 1.83 c -1.873,4.757 -3.688,9.57 -5.447,14.438 m -148.322,0 c -1.113,-4.88 -2.321,-9.692 -3.616,-14.438 h -1.83 c 1.873,4.757 3.688,9.57 5.446,14.438"
         style="fill:#7c6c67;fill-opacity:1;fill-rule:evenodd;stroke:none"
         transform="matrix(1.3333333,0,0,-1.3333333,279.82747,503.60547)"
         clip-path="url(#clipPath24)" />
      <path
         id="path25"
         d="m 0,0 c 1.114,-4.879 2.321,-9.691 3.617,-14.438 h 1.83 C 3.574,-9.681 1.76,-4.867 0,0 m -148.321,0 c -1.114,-4.879 -2.322,-9.691 -3.616,-14.438 h -1.831 c 1.873,4.757 3.688,9.571 5.447,14.438"
         style="fill:#948681;fill-opacity:1;fill-rule:evenodd;stroke:none"
         transform="matrix(1.3333333,0,0,-1.3333333,543.03773,173.946)"
         clip-path="url(#clipPath26)" />
      <path
         id="path27"
         d="M 172.741,367.227 H 493.495 V 559.452 H 172.741 Z m 17.698,174.527 H 475.796 V 384.923 H 190.439 Z"
         style="fill:#fff9f5;fill-opacity:1;fill-rule:evenodd;stroke:none"
         transform="matrix(1.3333333,0,0,-1.3333333,0,880)"
         clip-path="url(#clipPath28)" />
      <path
         id="path29"
         d="m 0,0 c 0,-2.672 -19.317,-4.838 -43.143,-4.838 -23.829,0 -43.145,2.166 -43.145,4.838 V 56.479 H 0 Z"
         style="fill:#da8a38;fill-opacity:1;fill-rule:evenodd;stroke:none"
         transform="matrix(1.3333333,0,0,-1.3333333,501.68227,736.1224)"
         clip-path="url(#clipPath30)" />
      <path
         id="path31"
         d="m 0,0 c 0,-2.851 -20.61,-5.162 -46.033,-5.162 -25.425,0 -46.034,2.311 -46.034,5.162 V 14.448 H 0 Z"
         style="fill:#da8a38;fill-opacity:1;fill-rule:evenodd;stroke:none"
         transform="matrix(1.3333333,0,0,-1.3333333,505.5352,666.6016)"
         clip-path="url(#clipPath32)" />
      <path
         id="path33"
         d="m 0,0 c 25.353,0 46.033,2.319 46.033,5.16 0,2.844 -20.68,5.161 -46.033,5.161 -25.354,0 -46.034,-2.317 -46.034,-5.161 C -46.034,2.319 -25.354,0 0,0"
         style="fill:#fab66b;fill-opacity:1;fill-rule:evenodd;stroke:none"
         transform="matrix(1.3333333,0,0,-1.3333333,444.1576,654.21747)"
         clip-path="url(#clipPath34)" />
      <path
         id="path35"
         d="M 0,0 C 19.441,0 35.298,1.407 35.298,3.133 35.298,4.859 19.441,6.268 0,6.268 -19.442,6.268 -35.3,4.859 -35.3,3.133 -35.3,1.407 -19.442,0 0,0"
         style="fill:#845326;fill-opacity:1;fill-rule:evenodd;stroke:none"
         transform="matrix(1.3333333,0,0,-1.3333333,444.1576,651.51427)"
         clip-path="url(#clipPath36)" />
      <path
         id="path37"
         d="m 0,0 c -6.346,-0.832 -17.079,-1.38 -29.252,-1.38 -12.174,0 -22.907,0.548 -29.252,1.38 6.345,0.831 17.078,1.378 29.252,1.378 C -17.079,1.378 -6.346,0.831 0,0"
         style="fill:#6a3d1a;fill-opacity:1;fill-rule:evenodd;stroke:none"
         transform="matrix(1.3333333,0,0,-1.3333333,483.16013,649.67453)"
         clip-path="url(#clipPath38)" />
      <path
         id="path39"
         d="M 0,0 C -9.816,87.182 -3.978,150.128 35.033,161.727 9.721,128.967 37.007,62.791 3.186,0 Z"
         style="fill:#769a2a;fill-opacity:1;fill-rule:evenodd;stroke:none"
         transform="matrix(1.3333333,0,0,-1.3333333,440.63413,649.92973)"
         clip-path="url(#clipPath40)" />
      <path
         id="path41"
         d="M 0,0 C 9.816,61.885 3.979,106.566 -35.033,114.799 -9.721,91.545 -37.007,44.571 -3.185,0 Z"
         style="fill:#87b027;fill-opacity:1;fill-rule:evenodd;stroke:none"
         transform="matrix(1.3333333,0,0,-1.3333333,447.04427,649.92973)"
         clip-path="url(#clipPath42)" />
      <path
         id="path43"
         d="M 0,0 C -9.816,53.145 -3.978,91.52 35.033,98.59 9.721,78.619 37.008,38.278 3.187,0 Z"
         style="fill:#9ac421;fill-opacity:1;fill-rule:evenodd;stroke:none"
         transform="matrix(1.3333333,0,0,-1.3333333,445.96093,649.92973)"
         clip-path="url(#clipPath44)" />
      <path
         id="path45"
         d="m 516.855,611.454 h 84.568 v 24.752 h -84.568 z"
         style="fill:#d7af9b;fill-opacity:1;fill-rule:evenodd;stroke:none"
         transform="matrix(1.3333333,0,0,-1.3333333,0,880)"
         clip-path="url(#clipPath46)" />
      <path
         id="path47"
         d="m 560.685,493.621 h 84.571 v 24.752 h -84.571 z"
         style="fill:#d7af9b;fill-opacity:1;fill-rule:evenodd;stroke:none"
         transform="matrix(1.3333333,0,0,-1.3333333,0,880)"
         clip-path="url(#clipPath48)" />
      <path
         id="path49"
         d="m 58.158,422.715 h 84.571 v 24.753 H 58.158 Z"
         style="fill:#e2beac;fill-opacity:1;fill-rule:evenodd;stroke:none"
         transform="matrix(1.3333333,0,0,-1.3333333,0,880)"
         clip-path="url(#clipPath50)" />
      <path
         id="path51"
         d="m 27.219,313.393 h 84.57 v 24.752 h -84.57 z"
         style="fill:#e2beac;fill-opacity:1;fill-rule:evenodd;stroke:none"
         transform="matrix(1.3333333,0,0,-1.3333333,0,880)"
         clip-path="url(#clipPath52)" />
      <path
         id="path53"
         d="m 560.431,161.783 h 84.571 v 24.753 h -84.571 z"
         style="fill:#e2beac;fill-opacity:1;fill-rule:evenodd;stroke:none"
         transform="matrix(1.3333333,0,0,-1.3333333,0,880)"
         clip-path="url(#clipPath54)" />
      <path
         id="path55"
         d="m 29.537,136.77 h 84.572 v 24.754 H 29.537 Z"
         style="fill:#d7af9b;fill-opacity:1;fill-rule:evenodd;stroke:none"
         transform="matrix(1.3333333,0,0,-1.3333333,0,880)"
         clip-path="url(#clipPath56)" />
      <path
         id="path57"
         d="m 84.974,22.551 h 84.572 v 24.75 H 84.974 Z"
         style="fill:#d7af9b;fill-opacity:1;fill-rule:evenodd;stroke:none"
         transform="matrix(1.3333333,0,0,-1.3333333,0,880)"
         clip-path="url(#clipPath58)" />
      <path
         id="path59"
         d="m 139.634,611.454 h 84.571 v 24.752 h -84.571 z"
         style="fill:#e2beac;fill-opacity:1;fill-rule:evenodd;stroke:none"
         transform="matrix(1.3333333,0,0,-1.3333333,0,880)"
         clip-path="url(#clipPath60)" />
      <path
         id="path61"
         d="m 23.093,571.231 h 84.572 v 24.753 H 23.093 Z"
         style="fill:#e2beac;fill-opacity:1;fill-rule:evenodd;stroke:none"
         transform="matrix(1.3333333,0,0,-1.3333333,0,880)"
         clip-path="url(#clipPath62)" />
    </g>
  </g>
</svg>
