<?xml version="1.0" encoding="UTF-8" standalone="no"?>
<!-- Created with Inkscape (http://www.inkscape.org/) -->

<svg
   version="1.1"
   id="svg1"
   width="880"
   height="880"
   viewBox="0 0 880 880"
   sodipodi:docname="wooden-boat-on-the-river.svg"
   inkscape:version="1.3.2 (091e20e, 2023-11-25, custom)"
   xmlns:inkscape="http://www.inkscape.org/namespaces/inkscape"
   xmlns:sodipodi="http://sodipodi.sourceforge.net/DTD/sodipodi-0.dtd"
   xmlns="http://www.w3.org/2000/svg"
   xmlns:svg="http://www.w3.org/2000/svg">
  <defs
     id="defs1">
    <clipPath
       clipPathUnits="userSpaceOnUse"
       id="clipPath4">
      <path
         d="M 0,660 H 660 V 0 H 0 Z"
         transform="translate(-216.17971,-660.00002)"
         id="path4" />
    </clipPath>
    <clipPath
       clipPathUnits="userSpaceOnUse"
       id="clipPath6">
      <path
         d="M 0,660 H 660 V 0 H 0 Z"
         transform="translate(-511.06451,-660.00002)"
         id="path6" />
    </clipPath>
    <clipPath
       clipPathUnits="userSpaceOnUse"
       id="clipPath8">
      <path
         d="M 0,660 H 660 V 0 H 0 Z"
         transform="translate(-189.32031,-123.7275)"
         id="path8" />
    </clipPath>
    <clipPath
       clipPathUnits="userSpaceOnUse"
       id="clipPath10">
      <path
         d="M 0,660 H 660 V 0 H 0 Z"
         transform="translate(-661.44431,-505.26172)"
         id="path10" />
    </clipPath>
    <clipPath
       clipPathUnits="userSpaceOnUse"
       id="clipPath12">
      <path
         d="M 0,660 H 660 V 0 H 0 Z"
         transform="translate(-376.72271,-199.04391)"
         id="path12" />
    </clipPath>
    <clipPath
       clipPathUnits="userSpaceOnUse"
       id="clipPath14">
      <path
         d="M 0,660 H 660 V 0 H 0 Z"
         transform="translate(-661.44431,-445.17191)"
         id="path14" />
    </clipPath>
    <clipPath
       clipPathUnits="userSpaceOnUse"
       id="clipPath16">
      <path
         d="M 0,660 H 660 V 0 H 0 Z"
         transform="translate(-495.94531,-660.00002)"
         id="path16" />
    </clipPath>
    <clipPath
       clipPathUnits="userSpaceOnUse"
       id="clipPath18">
      <path
         d="M 0,660 H 660 V 0 H 0 Z"
         transform="translate(-130.3252,-590.16262)"
         id="path18" />
    </clipPath>
    <clipPath
       clipPathUnits="userSpaceOnUse"
       id="clipPath20">
      <path
         d="M 0,660 H 660 V 0 H 0 Z"
         transform="translate(-661.44431,-431.01511)"
         id="path20" />
    </clipPath>
    <clipPath
       clipPathUnits="userSpaceOnUse"
       id="clipPath22">
      <path
         d="M 0,660 H 660 V 0 H 0 Z"
         transform="translate(-661.44431,-395.66501)"
         id="path22" />
    </clipPath>
    <clipPath
       clipPathUnits="userSpaceOnUse"
       id="clipPath24">
      <path
         d="M 0,660 H 660 V 0 H 0 Z"
         transform="translate(-176.9712,-114.00681)"
         id="path24" />
    </clipPath>
    <clipPath
       clipPathUnits="userSpaceOnUse"
       id="clipPath26">
      <path
         d="M 0,660 H 660 V 0 H 0 Z"
         transform="translate(-178.86231,-102.2383)"
         id="path26" />
    </clipPath>
    <clipPath
       clipPathUnits="userSpaceOnUse"
       id="clipPath28">
      <path
         d="M 0,660 H 660 V 0 H 0 Z"
         transform="translate(-19.0176,-660.00002)"
         id="path28" />
    </clipPath>
    <clipPath
       clipPathUnits="userSpaceOnUse"
       id="clipPath30">
      <path
         d="M 0,660 H 660 V 0 H 0 Z"
         transform="translate(-385.95021,-377.30471)"
         id="path30" />
    </clipPath>
    <clipPath
       clipPathUnits="userSpaceOnUse"
       id="clipPath32">
      <path
         d="M 0,660 H 660 V 0 H 0 Z"
         transform="translate(-343.08301,-351.66851)"
         id="path32" />
    </clipPath>
    <clipPath
       clipPathUnits="userSpaceOnUse"
       id="clipPath34">
      <path
         d="M 0,660 H 660 V 0 H 0 Z"
         transform="translate(-276.313,-318.65041)"
         id="path34" />
    </clipPath>
    <clipPath
       clipPathUnits="userSpaceOnUse"
       id="clipPath36">
      <path
         d="M 0,660 H 660 V 0 H 0 Z"
         transform="translate(-360.60941,-292.64551)"
         id="path36" />
    </clipPath>
    <clipPath
       clipPathUnits="userSpaceOnUse"
       id="clipPath38">
      <path
         d="M 0,660 H 660 V 0 H 0 Z"
         transform="translate(-297.21391,-318.65041)"
         id="path38" />
    </clipPath>
    <clipPath
       clipPathUnits="userSpaceOnUse"
       id="clipPath40">
      <path
         d="M 0,660 H 660 V 0 H 0 Z"
         transform="translate(-360.60941,-306.81841)"
         id="path40" />
    </clipPath>
    <clipPath
       clipPathUnits="userSpaceOnUse"
       id="clipPath42">
      <path
         d="M 0,660 H 660 V 0 H 0 Z"
         transform="translate(-352.51951,-291.5557)"
         id="path42" />
    </clipPath>
  </defs>
  <sodipodi:namedview
     id="namedview1"
     pagecolor="#ffffff"
     bordercolor="#000000"
     borderopacity="0.25"
     inkscape:showpageshadow="2"
     inkscape:pageopacity="0.0"
     inkscape:pagecheckerboard="0"
     inkscape:deskcolor="#d1d1d1"
     inkscape:zoom="0.67272727"
     inkscape:cx="439.25676"
     inkscape:cy="440"
     inkscape:window-width="1440"
     inkscape:window-height="830"
     inkscape:window-x="-6"
     inkscape:window-y="-6"
     inkscape:window-maximized="1"
     inkscape:current-layer="g1">
    <inkscape:page
       x="0"
       y="0"
       inkscape:label="1"
       id="page1"
       width="880"
       height="880"
       margin="0"
       bleed="0" />
  </sodipodi:namedview>
  <g
     id="g1"
     inkscape:groupmode="layer"
     inkscape:label="1">
    <g
       id="group-MC0">
      <path
         id="path2"
         d="M 0,0 H 660 V 660 H 0 Z"
         style="fill:#c6e446;fill-opacity:1;fill-rule:nonzero;stroke:none"
         transform="matrix(1.3333333,0,0,-1.3333333,0,880)" />
      <path
         id="path3"
         d="m 0,0 c -8.228,-9.08 -20.113,-14.782 -33.33,-14.782 -7.527,0 -14.62,1.851 -20.853,5.12 -0.949,-20.968 -13.56,-38.897 -31.499,-47.458 4.286,-6.898 6.763,-15.036 6.763,-23.754 0,-24.895 -20.182,-45.078 -45.078,-45.078 -24.895,0 -45.077,20.183 -45.077,45.078 0,3.802 0.471,7.495 1.358,11.021 -10.681,-7.66 -23.773,-12.171 -37.921,-12.171 -3.59,0 -7.11,0.294 -10.543,0.853 V 0 Z m 127.228,-444.289 c 22.991,0 41.627,-18.637 41.627,-41.626 0,-20.252 -14.464,-37.126 -33.625,-40.855 0.594,-3.204 0.905,-6.506 0.905,-9.882 0,-29.799 -24.159,-53.956 -53.959,-53.956 -22.846,0 -42.376,14.2 -50.245,34.256 -10.967,-15.982 -29.363,-26.466 -50.211,-26.466 -33.613,0 -60.86,27.248 -60.86,60.858 0,33.612 27.247,60.86 60.86,60.86 8.872,0 17.301,-1.901 24.902,-5.312 4.408,23.594 25.108,41.455 49.982,41.455 19.813,0 36.978,-11.333 45.371,-27.868 7.004,5.352 15.756,8.536 25.253,8.536 m 318.037,-94.148 c -9.99,3.413 -18.468,10.088 -24.16,18.759 -8.536,-17.314 -26.359,-29.229 -46.966,-29.229 -28.905,0 -52.336,23.431 -52.336,52.338 0,28.904 23.431,52.335 52.336,52.335 0.965,0 1.923,-0.028 2.875,-0.078 -0.031,0.718 -0.049,1.439 -0.049,2.166 0,28.574 23.163,51.736 51.736,51.736 5.792,0 11.362,-0.953 16.564,-2.71 z M 249.067,-81.645 c 0.367,1.208 0.777,2.399 1.226,3.569 -1.013,-0.18 -2.039,-0.32 -3.077,-0.418 0.647,-1.03 1.266,-2.079 1.851,-3.151 m 111.046,72.746 c 22.094,0 40.004,-17.911 40.004,-40.004 0,-22.093 -17.91,-40.004 -40.004,-40.004 -2.753,0 -5.439,0.28 -8.036,0.809 0.498,-2.92 0.761,-5.92 0.761,-8.982 0,-29.286 -23.741,-53.027 -53.028,-53.027 -19.264,0 -36.126,10.274 -45.414,25.64 -6.511,-25.466 -29.608,-44.295 -57.104,-44.295 -32.549,0 -58.936,26.387 -58.936,58.936 0,32.551 26.387,58.937 58.936,58.937 3.446,0 6.823,-0.299 10.107,-0.866 -1.04,3.457 -1.601,7.12 -1.601,10.916 0,20.889 16.934,37.823 37.823,37.823 11.249,0 21.346,-4.91 28.274,-12.703 7.037,6.121 16.227,9.827 26.285,9.827 13.204,0 24.912,-6.385 32.212,-16.237 7.324,8.123 17.926,13.23 29.721,13.23"
         style="fill:#a8c935;fill-opacity:1;fill-rule:evenodd;stroke:none"
         transform="matrix(1.3333333,0,0,-1.3333333,288.2396,0)"
         clip-path="url(#clipPath4)" />
      <path
         id="path5"
         d="m 0,0 c 0.425,-2.201 0.648,-4.474 0.648,-6.798 0,-19.729 -15.992,-35.723 -35.721,-35.723 -3.666,0 -7.207,0.554 -10.538,1.581 0.02,-0.524 0.031,-1.051 0.031,-1.581 0,-21.817 -17.687,-39.503 -39.504,-39.503 -3.218,0 -6.344,0.386 -9.339,1.112 -5.484,-11.116 -16.931,-18.764 -30.165,-18.764 -18.568,0 -33.621,15.053 -33.621,33.621 0,2.74 0.33,5.403 0.948,7.952 -20.943,2.821 -37.091,20.763 -37.091,42.479 0,5.514 1.042,10.783 2.938,15.624 z m 64.53,-85.387 c 14.855,0 26.896,-12.042 26.896,-26.897 0,-14.854 -12.041,-26.897 -26.896,-26.897 -14.856,0 -26.897,12.043 -26.897,26.897 0,14.855 12.041,26.897 26.897,26.897 m -243.332,-37.824 c 24.37,0 44.127,-19.756 44.127,-44.127 0,-24.371 -19.757,-44.127 -44.127,-44.127 -24.371,0 -44.127,19.756 -44.127,44.127 0,24.371 19.756,44.127 44.127,44.127 m -180.362,-46.966 c -9.008,-8.406 -21.098,-13.552 -34.391,-13.552 -27.853,0 -50.431,22.579 -50.431,50.432 0,24.204 17.053,44.423 39.799,49.305 -0.193,1.61 -0.294,3.247 -0.294,4.909 0,22.513 18.251,40.765 40.764,40.765 22.514,0 40.765,-18.252 40.765,-40.765 0,-10.722 -4.14,-20.475 -10.907,-27.751 1.913,0.285 3.871,0.433 5.864,0.433 21.818,0 39.504,-17.686 39.504,-39.504 0,-21.818 -17.686,-39.504 -39.504,-39.504 -12.666,0 -23.939,5.962 -31.169,15.232"
         style="fill:#a8c935;fill-opacity:1;fill-rule:evenodd;stroke:none"
         transform="matrix(1.3333333,0,0,-1.3333333,681.41933,0)"
         clip-path="url(#clipPath6)" />
      <path
         id="path7"
         d="m 0,0 c 25.067,0 45.388,-20.32 45.388,-45.389 0,-21.954 -15.591,-40.269 -36.305,-44.477 2.807,-6.46 4.365,-13.59 4.365,-21.081 0,-4.928 -0.675,-9.698 -1.934,-14.225 H -90.522 c -1.259,4.527 -1.936,9.297 -1.936,14.225 0,0.533 0.012,1.064 0.027,1.594 -15.051,8.337 -25.242,24.379 -25.242,42.804 0,27.005 21.893,48.899 48.899,48.899 10.254,0 19.77,-3.158 27.631,-8.553 C -33.912,-10.726 -18.21,0 0,0 m 294.185,61.359 c 32.028,0 57.993,-25.965 57.993,-57.997 0,-20.771 -10.922,-38.991 -27.336,-49.232 17.973,-11.694 29.858,-31.952 29.858,-54.992 0,-8.589 -1.655,-16.791 -4.656,-24.31 H 153.512 c -0.352,2.591 -0.536,5.234 -0.536,7.921 0,6.998 1.231,13.71 3.488,19.929 -20.252,4.373 -35.429,22.389 -35.429,43.95 0,24.835 20.133,44.967 44.969,44.967 9.881,0 19.016,-3.191 26.438,-8.591 7.657,15.073 23.309,25.401 41.373,25.401 0.87,0 1.73,-0.027 2.586,-0.074 2.522,29.703 27.426,53.028 57.784,53.028 M 455.562,15.131 c 5.829,0 11.411,-1.062 16.562,-2.999 v -88.14 c -5.151,-1.937 -10.733,-3.002 -16.562,-3.002 -25.995,0 -47.068,21.076 -47.068,47.072 0,25.996 21.073,47.069 47.068,47.069 m -616.522,100.02 c 28.549,0 51.692,-23.141 51.692,-51.69 0,-28.549 -23.143,-51.693 -51.692,-51.693 -10.473,0 -20.217,3.117 -28.36,8.471 v 86.441 c 8.143,5.354 17.887,8.471 28.36,8.471"
         style="fill:#a8c935;fill-opacity:1;fill-rule:evenodd;stroke:none"
         transform="matrix(1.3333333,0,0,-1.3333333,252.42707,715.03)"
         clip-path="url(#clipPath8)" />
      <path
         id="path9"
         d="m 0,0 v -267.292 c -117.262,23.875 -239.206,-101.527 -495.926,3.491 -61.068,24.985 -114.072,24.947 -165.518,15.383 v 115.111 c 51.046,19.783 105.323,36.042 172.835,36.704 C -216.11,-93.927 -116.018,-30.828 0,0"
         style="fill:#fdeac1;fill-opacity:1;fill-rule:evenodd;stroke:none"
         transform="matrix(1.3333333,0,0,-1.3333333,881.92573,206.31773)"
         clip-path="url(#clipPath10)" />
      <path
         id="path11"
         d="m 0,0 c -42.016,-0.989 -88.902,3.674 -142.242,18.589 9.321,10.668 23.024,17.41 38.303,17.41 19.813,0 36.978,-11.333 45.371,-27.868 7.004,5.352 15.756,8.536 25.253,8.536 C -19.689,16.667 -7.594,10.119 0,0 m 284.722,67.836 v -28.91 c -20.92,4.261 -41.996,3.754 -63.952,0.667 8.005,18.223 26.208,30.953 47.388,30.953 5.792,0 11.362,-0.953 16.564,-2.71"
         style="fill:#ebcd91;fill-opacity:1;fill-rule:evenodd;stroke:none"
         transform="matrix(1.3333333,0,0,-1.3333333,502.29693,614.60813)"
         clip-path="url(#clipPath12)" />
      <path
         id="path13"
         d="m 0,0 v -162.437 c -117.262,12.283 -239.206,-66.246 -495.926,-7.295 -61.068,14.022 -114.072,12.993 -165.518,6.204 v 69.956 c 51.046,12.991 105.323,23.903 172.835,25.588 C -216.11,-61.185 -116.018,-20.937 0,0"
         style="fill:#7694b8;fill-opacity:1;fill-rule:evenodd;stroke:none"
         transform="matrix(1.3333333,0,0,-1.3333333,881.92573,286.43747)"
         clip-path="url(#clipPath14)" />
      <path
         id="path15"
         d="m 0,0 c 1.497,-3.941 2.32,-8.216 2.32,-12.683 0,-19.728 -15.992,-35.721 -35.722,-35.721 -3.669,0 -7.208,0.553 -10.539,1.581 0.02,-0.526 0.031,-1.052 0.031,-1.581 0,-21.818 -17.686,-39.505 -39.503,-39.505 -3.218,0 -6.345,0.388 -9.338,1.113 -5.486,-11.116 -16.933,-18.764 -30.167,-18.764 -18.568,0 -33.621,15.053 -33.621,33.621 0,2.74 0.331,5.402 0.95,7.953 -20.944,2.82 -37.092,20.763 -37.092,42.478 0,7.839 2.106,15.186 5.78,21.508 z m 66.199,-91.271 c 14.857,0 26.899,-12.043 26.899,-26.897 0,-14.855 -12.042,-26.897 -26.899,-26.897 -14.854,0 -26.895,12.042 -26.895,26.897 0,14.854 12.041,26.897 26.895,26.897 m -243.331,-37.824 c 24.372,0 44.128,-19.756 44.128,-44.127 0,-24.371 -19.756,-44.127 -44.128,-44.127 -24.37,0 -44.127,19.756 -44.127,44.127 0,24.371 19.757,44.127 44.127,44.127 m -180.361,-46.967 c -9.009,-8.404 -21.098,-13.55 -34.391,-13.55 -27.853,0 -50.431,22.579 -50.431,50.431 0,24.204 17.053,44.423 39.799,49.305 -0.193,1.61 -0.295,3.247 -0.295,4.909 0,22.514 18.251,40.765 40.765,40.765 22.514,0 40.765,-18.251 40.765,-40.765 0,-10.721 -4.14,-20.474 -10.907,-27.751 1.913,0.285 3.871,0.434 5.864,0.434 21.817,0 39.504,-17.687 39.504,-39.505 0,-21.817 -17.687,-39.504 -39.504,-39.504 -12.666,0 -23.939,5.962 -31.169,15.231"
         style="fill:#2f9a3f;fill-opacity:1;fill-rule:evenodd;stroke:none"
         transform="matrix(1.3333333,0,0,-1.3333333,661.2604,0)"
         clip-path="url(#clipPath16)" />
      <path
         id="path17"
         d="m 0,0 c 6.15,0 11.137,-4.987 11.137,-11.137 0,-6.151 -4.987,-11.137 -11.137,-11.137 -6.151,0 -11.137,4.986 -11.137,11.137 C -11.137,-4.987 -6.151,0 0,0 m 43.077,-74.806 c 8.356,0 15.129,-6.774 15.129,-15.13 0,-8.356 -6.773,-15.129 -15.129,-15.129 -8.356,0 -15.129,6.773 -15.129,15.129 0,8.356 6.773,15.13 15.129,15.13 M 271.736,69.837 c -6.752,0 -12.224,-5.473 -12.224,-12.224 0,-6.752 5.472,-12.225 12.224,-12.225 6.751,0 12.225,5.473 12.225,12.225 0,6.751 -5.474,12.224 -12.225,12.224 m 13.831,-40.839 c 9.981,0 18.072,-8.091 18.072,-18.071 0,-9.98 -8.091,-18.071 -18.072,-18.071 -9.98,0 -18.071,8.091 -18.071,18.071 0,9.98 8.091,18.071 18.071,18.071 m -39.715,-5.463 c 8.705,0 15.76,-7.056 15.76,-15.76 0,-8.704 -7.055,-15.76 -15.76,-15.76 -8.704,0 -15.759,7.056 -15.759,15.76 0,0.506 0.025,1.006 0.071,1.5 -3.39,-1.635 -7.193,-2.55 -11.208,-2.55 -14.274,0 -25.846,11.571 -25.846,25.846 0,14.274 11.572,25.846 25.846,25.846 14.273,0 25.846,-11.572 25.846,-25.846 0,-3.271 -0.61,-6.399 -1.718,-9.279 0.898,0.16 1.825,0.243 2.768,0.243 m 87.242,46.302 c 5.825,0 10.545,-4.72 10.545,-10.543 0,-5.823 -4.72,-10.544 -10.545,-10.544 -5.824,0 -10.543,4.721 -10.543,10.544 0,5.823 4.719,10.543 10.543,10.543 M 186.951,-65.092 c 11.27,0 20.406,-9.137 20.406,-20.407 0,-11.271 -9.136,-20.407 -20.406,-20.407 -11.27,0 -20.407,9.136 -20.407,20.407 0,11.27 9.137,20.407 20.407,20.407 m 241.454,35.78 c 8.618,0 15.604,-6.985 15.604,-15.603 0,-8.617 -6.986,-15.603 -15.604,-15.603 -8.616,0 -15.604,6.986 -15.604,15.603 0,8.618 6.988,15.603 15.604,15.603 M -23.954,-45.388 c 15.434,0 27.947,-12.513 27.947,-27.948 0,-15.435 -12.513,-27.947 -27.947,-27.947 -15.435,0 -27.948,12.512 -27.948,27.947 0,15.435 12.513,27.948 27.948,27.948"
         style="fill:#47bc53;fill-opacity:1;fill-rule:evenodd;stroke:none"
         transform="matrix(1.3333333,0,0,-1.3333333,173.76693,93.116533)"
         clip-path="url(#clipPath18)" />
      <path
         id="path19"
         d="m 0,0 v -138.474 c -117.262,9.978 -239.206,-57.478 -495.926,-8.306 -61.068,11.698 -114.072,10.597 -165.518,4.593 v 59.636 c 51.046,11.288 105.323,20.819 172.835,22.539 C -216.11,-53.068 -116.018,-18.337 0,0"
         style="fill:#5979a0;fill-opacity:1;fill-rule:evenodd;stroke:none"
         transform="matrix(1.3333333,0,0,-1.3333333,881.92573,305.3132)"
         clip-path="url(#clipPath20)" />
      <path
         id="path21"
         d="m 0,0 v -79.112 c -117.262,3.913 -239.206,-36.483 -495.926,-12.301 -61.068,5.752 -114.072,4.315 -165.518,0.102 v 34.07 c 51.046,7.228 105.323,13.5 172.835,15.511 C -216.11,-33.611 -116.018,-12.244 0,0"
         style="fill:#49668d;fill-opacity:1;fill-rule:evenodd;stroke:none"
         transform="matrix(1.3333333,0,0,-1.3333333,881.92573,352.44667)"
         clip-path="url(#clipPath22)" />
      <path
         id="path23"
         d="m 0,0 c 25.067,0 45.388,-20.324 45.388,-45.389 0,-21.957 -15.592,-40.272 -36.306,-44.48 2.808,-6.46 4.366,-13.588 4.366,-21.082 0,-1.516 -0.067,-3.015 -0.192,-4.5 H -92.265 c -0.126,1.485 -0.192,2.984 -0.192,4.5 0,0.534 0.01,1.067 0.025,1.598 -15.05,8.337 -25.242,24.378 -25.242,42.8 0,27.008 21.893,48.9 48.899,48.9 10.255,0 19.771,-3.158 27.632,-8.551 C -33.913,-10.729 -18.21,0 0,0 m 294.183,61.355 c 32.03,0 57.996,-25.964 57.996,-57.996 0,-20.772 -10.925,-38.989 -27.336,-49.232 17.971,-11.691 29.856,-31.952 29.856,-54.99 0,-5.015 -0.564,-9.896 -1.631,-14.588 H 153.001 c 0.193,6.349 1.4,12.443 3.463,18.126 -20.253,4.375 -35.429,22.389 -35.429,43.949 0,24.836 20.132,44.971 44.966,44.971 9.883,0 19.019,-3.191 26.44,-8.595 7.658,15.073 23.309,25.405 41.375,25.405 0.867,0 1.728,-0.028 2.584,-0.074 2.522,29.702 27.426,53.024 57.783,53.024 M 455.562,15.127 c 10.9,0 20.934,-3.704 28.911,-9.924 v -74.289 c -7.977,-6.22 -18.011,-9.924 -28.911,-9.924 -25.996,0 -47.069,21.073 -47.069,47.069 0,25.995 21.073,47.068 47.069,47.068 M -160.96,115.15 c 28.548,0 51.691,-23.144 51.691,-51.693 0,-28.548 -23.143,-51.692 -51.691,-51.692 -5.589,0 -10.969,0.891 -16.011,2.533 v 98.32 c 5.042,1.641 10.422,2.532 16.011,2.532"
         style="fill:#2f9a3f;fill-opacity:1;fill-rule:evenodd;stroke:none"
         transform="matrix(1.3333333,0,0,-1.3333333,235.9616,727.99093)"
         clip-path="url(#clipPath24)" />
      <path
         id="path25"
         d="m 0,0 c -13.346,0 -24.164,-10.818 -24.164,-24.165 0,-13.346 10.818,-24.165 24.164,-24.165 13.347,0 24.165,10.819 24.165,24.165 C 24.165,-10.818 13.347,0 0,0 m -38.981,-57.367 c 16.769,0 30.364,-13.593 30.364,-30.363 0,-5.851 -1.657,-11.315 -4.526,-15.953 h -51.676 c -2.869,4.638 -4.526,10.102 -4.526,15.953 0,5.506 1.467,10.671 4.03,15.125 -1.287,-0.338 -2.637,-0.519 -4.03,-0.519 -8.704,0 -15.759,7.054 -15.759,15.757 0,8.706 7.055,15.76 15.759,15.76 8.704,0 15.76,-7.054 15.76,-15.76 0,-1.393 -0.182,-2.741 -0.521,-4.028 4.453,2.562 9.618,4.028 15.125,4.028 m 249.739,32.152 c 21.353,0 38.665,-17.311 38.665,-38.664 0,-21.354 -17.312,-38.663 -38.665,-38.663 -21.353,0 -38.663,17.309 -38.663,38.663 0,0.632 0.016,1.265 0.048,1.891 -2.136,-0.681 -4.411,-1.051 -6.772,-1.051 -12.301,0 -22.273,9.974 -22.273,22.274 0,12.302 9.972,22.272 22.273,22.272 9.854,0 18.212,-6.397 21.148,-15.267 6.631,5.343 15.061,8.545 24.239,8.545 m 64.091,39.084 c 9.168,0 16.6,-7.433 16.6,-16.599 0,-9.168 -7.432,-16.603 -16.6,-16.603 -9.168,0 -16.601,7.435 -16.601,16.603 0,9.166 7.433,16.599 16.601,16.599 m 36.984,-91.617 c 14.274,0 25.848,-11.573 25.848,-25.848 l -0.003,-0.087 h -51.691 l -0.001,0.087 c 0,14.275 11.573,25.848 25.847,25.848 m 136.332,90.856 c 15.342,0 27.779,-12.434 27.779,-27.776 0,-15.341 -12.437,-27.776 -27.779,-27.776 -15.341,0 -27.776,12.435 -27.776,27.776 0,15.342 12.435,27.776 27.776,27.776 m -606.813,90.277 c 13.23,0 23.955,-10.725 23.955,-23.956 0,-13.23 -10.725,-23.955 -23.955,-23.955 -8.498,0 -15.962,4.424 -20.214,11.097 v 25.717 c 4.252,6.671 11.716,11.097 20.214,11.097"
         style="fill:#47bc53;fill-opacity:1;fill-rule:evenodd;stroke:none"
         transform="matrix(1.3333333,0,0,-1.3333333,238.48307,743.68227)"
         clip-path="url(#clipPath26)" />
      <path
         id="path27"
         d="M 0,0 C 5.218,-3.556 9.893,-7.849 13.874,-12.731 17.222,-7.868 21.329,-3.569 26.021,0 h 154.11 c 0.336,-2.217 0.511,-4.487 0.511,-6.798 0,-24.834 -20.133,-44.967 -44.968,-44.967 -7.527,0 -14.62,1.851 -20.853,5.12 -0.949,-20.968 -13.559,-38.897 -31.499,-47.458 4.286,-6.897 6.763,-15.036 6.763,-23.753 0,-24.896 -20.182,-45.078 -45.077,-45.078 -24.896,0 -45.078,20.182 -45.078,45.078 0,3.801 0.472,7.494 1.358,11.021 -6.072,-4.355 -12.924,-7.692 -20.306,-9.761 l 0,116.596 z m 296.234,-481.271 c 22.988,0 41.625,-18.639 41.625,-41.627 0,-20.252 -14.465,-37.123 -33.624,-40.855 0.593,-3.204 0.903,-6.507 0.903,-9.881 0,-29.801 -24.157,-53.958 -53.956,-53.958 -22.848,0 -42.377,14.2 -50.247,34.259 -10.967,-15.984 -29.363,-26.469 -50.212,-26.469 -33.612,0 -60.859,27.248 -60.859,60.862 0,33.609 27.247,60.858 60.859,60.858 8.874,0 17.302,-1.901 24.903,-5.314 4.409,23.593 25.108,41.456 49.982,41.456 19.813,0 36.979,-11.334 45.372,-27.869 7.004,5.355 15.757,8.538 25.254,8.538 m 346.193,-94.858 c -4.115,-1.174 -8.457,-1.803 -12.947,-1.803 -16.468,0 -30.959,8.46 -39.37,21.271 -8.536,-17.315 -26.358,-29.228 -46.967,-29.228 -28.904,0 -52.335,23.433 -52.335,52.336 0,28.905 23.431,52.336 52.335,52.336 0.963,0 1.923,-0.027 2.874,-0.08 -0.028,0.72 -0.047,1.443 -0.047,2.167 0,28.574 23.161,51.737 51.733,51.737 11.984,0 23.014,-4.075 31.782,-10.913 3.617,4.541 7.995,8.45 12.942,11.532 z m -224.356,457.501 c 0.367,1.209 0.777,2.399 1.227,3.569 -1.014,-0.179 -2.04,-0.32 -3.078,-0.418 0.647,-1.03 1.266,-2.079 1.851,-3.151 m 111.047,72.746 c 22.094,0 40.004,-17.91 40.004,-40.004 0,-22.093 -17.91,-40.003 -40.004,-40.003 -2.752,0 -5.442,0.278 -8.038,0.808 0.498,-2.92 0.763,-5.92 0.763,-8.981 0,-29.286 -23.741,-53.028 -53.028,-53.028 -19.264,0 -36.13,10.274 -45.416,25.641 -6.51,-25.467 -29.607,-44.296 -57.101,-44.296 -32.552,0 -58.938,26.387 -58.938,58.936 0,32.551 26.386,58.937 58.938,58.937 3.446,0 6.822,-0.298 10.106,-0.866 -1.041,3.457 -1.601,7.12 -1.601,10.916 0,20.889 16.933,37.823 37.823,37.823 11.247,0 21.346,-4.91 28.273,-12.703 7.037,6.121 16.228,9.828 26.286,9.828 13.201,0 24.912,-6.386 32.211,-16.237 7.322,8.122 17.924,13.229 29.722,13.229"
         style="fill:#ffffff;fill-opacity:1;fill-rule:evenodd;stroke:none"
         transform="matrix(1.3333333,0,0,-1.3333333,25.3568,0)"
         clip-path="url(#clipPath28)" />
      <path
         id="path29"
         d="M 0,0 C 31.063,0 58.351,-13.166 73.91,-33.019 58.351,-52.872 31.063,-66.037 0,-66.037 c -31.065,0 -58.351,13.165 -73.911,33.018 C -58.351,-13.166 -31.065,0 0,0"
         style="fill:#21334c;fill-opacity:1;fill-rule:evenodd;stroke:none"
         transform="matrix(1.3333333,0,0,-1.3333333,514.60027,376.92707)"
         clip-path="url(#clipPath30)" />
      <path
         id="path31"
         d="M 0,0 C 31.063,0 58.351,-13.166 73.912,-33.018 58.351,-52.872 31.063,-66.037 0,-66.037 c -31.063,0 -58.35,13.165 -73.911,33.019 C -58.35,-13.166 -31.063,0 0,0"
         style="fill:#e1a04a;fill-opacity:1;fill-rule:evenodd;stroke:none"
         transform="matrix(1.3333333,0,0,-1.3333333,457.444,411.10867)"
         clip-path="url(#clipPath32)" />
      <path
         id="path33"
         d="m 0,0 c 16.541,-18.543 42.299,-27.539 66.77,-27.539 24.471,0 50.229,8.996 66.77,27.539 C 116.999,18.543 91.241,27.538 66.77,27.538 42.299,27.538 16.541,18.543 0,0"
         style="fill:#bc751e;fill-opacity:1;fill-rule:evenodd;stroke:none"
         transform="matrix(1.3333333,0,0,-1.3333333,368.41733,455.1328)"
         clip-path="url(#clipPath34)" />
      <path
         id="path35"
         d="M 0,0 C 5.955,1.047 11.838,2.635 17.499,4.769 V 47.241 C 11.838,49.374 5.955,50.961 0,52.009 Z m -37.403,0.441 c 5.794,-1.161 11.673,-1.808 17.499,-1.946 v 55.019 c -5.826,-0.138 -11.705,-0.785 -17.499,-1.947 z m -46.893,25.564 c 7.752,-8.691 17.528,-15.284 28.25,-19.838 V 45.842 C -66.768,41.289 -76.544,34.695 -84.296,26.005"
         style="fill:#9e5a1d;fill-opacity:1;fill-rule:evenodd;stroke:none"
         transform="matrix(1.3333333,0,0,-1.3333333,480.81253,489.806)"
         clip-path="url(#clipPath36)" />
      <path
         id="path37"
         d="m 0,0 c 13.222,-9.213 30.035,-13.615 45.869,-13.615 15.833,0 32.648,4.402 45.87,13.615 C 78.517,9.213 61.702,13.615 45.869,13.615 30.035,13.615 13.222,9.213 0,0"
         style="fill:#e1a04a;fill-opacity:1;fill-rule:evenodd;stroke:none"
         transform="matrix(1.3333333,0,0,-1.3333333,396.2852,455.1328)"
         clip-path="url(#clipPath38)" />
      <path
         id="path39"
         d="M 0,0 C 6.013,1.235 11.929,3.116 17.499,5.669 V 17.995 C 11.929,20.546 6.013,22.429 0,23.663 Z m -37.403,0.518 c 5.785,-1.359 11.693,-2.108 17.499,-2.268 v 27.164 c -5.806,-0.161 -11.714,-0.91 -17.499,-2.268 z m -25.992,11.314 c 2.344,-1.635 4.803,-3.117 7.349,-4.45 v 8.899 c -2.546,-1.334 -5.005,-2.815 -7.349,-4.449"
         style="fill:#d18e38;fill-opacity:1;fill-rule:evenodd;stroke:none"
         transform="matrix(1.3333333,0,0,-1.3333333,480.81253,470.9088)"
         clip-path="url(#clipPath40)" />
      <path
         id="path41"
         d="M 0,0 C 5.884,0.553 11.765,1.623 17.498,3.218 V 50.971 C 11.765,52.566 5.884,53.636 0,54.188 Z m -37.402,3.511 c 5.723,-1.661 11.605,-2.795 17.497,-3.409 v 53.985 c -5.892,-0.614 -11.774,-1.748 -17.497,-3.409 z m -38.805,23.584 c 5.753,-6.449 12.621,-11.742 20.16,-15.904 v 31.806 c -7.539,-4.162 -14.407,-9.454 -20.16,-15.902"
         style="fill:#7f471b;fill-opacity:1;fill-rule:evenodd;stroke:none"
         transform="matrix(1.3333333,0,0,-1.3333333,470.026,491.25907)"
         clip-path="url(#clipPath42)" />
    </g>
  </g>
</svg>
