<?xml version="1.0" encoding="UTF-8" standalone="no"?>
<!-- Created with Inkscape (http://www.inkscape.org/) -->

<svg
   version="1.1"
   id="svg1"
   width="880"
   height="880"
   viewBox="0 0 880 880"
   sodipodi:docname="workplace-computer.svg"
   inkscape:version="1.3.2 (091e20e, 2023-11-25, custom)"
   xmlns:inkscape="http://www.inkscape.org/namespaces/inkscape"
   xmlns:sodipodi="http://sodipodi.sourceforge.net/DTD/sodipodi-0.dtd"
   xmlns="http://www.w3.org/2000/svg"
   xmlns:svg="http://www.w3.org/2000/svg">
  <defs
     id="defs1">
    <clipPath
       clipPathUnits="userSpaceOnUse"
       id="clipPath5">
      <path
         d="M 0,660 H 660 V 0 H 0 Z"
         transform="translate(-515.48141,-214.88671)"
         id="path5" />
    </clipPath>
    <clipPath
       clipPathUnits="userSpaceOnUse"
       id="clipPath7">
      <path
         d="M 0,660 H 660 V 0 H 0 Z"
         transform="translate(-489.96781,-267.1582)"
         id="path7" />
    </clipPath>
    <clipPath
       clipPathUnits="userSpaceOnUse"
       id="clipPath9">
      <path
         d="M 0,660 H 660 V 0 H 0 Z"
         transform="translate(-526.08011,-274.50781)"
         id="path9" />
    </clipPath>
    <clipPath
       clipPathUnits="userSpaceOnUse"
       id="clipPath11">
      <path
         d="M 0,660 H 660 V 0 H 0 Z"
         id="path11" />
    </clipPath>
    <clipPath
       clipPathUnits="userSpaceOnUse"
       id="clipPath13">
      <path
         d="M 0,660 H 660 V 0 H 0 Z"
         transform="translate(-599.89552,-471.55271)"
         id="path13" />
    </clipPath>
    <clipPath
       clipPathUnits="userSpaceOnUse"
       id="clipPath15">
      <path
         d="M 0,660 H 660 V 0 H 0 Z"
         transform="translate(-595.20412,-421.08011)"
         id="path15" />
    </clipPath>
    <clipPath
       clipPathUnits="userSpaceOnUse"
       id="clipPath17">
      <path
         d="M 0,660 H 660 V 0 H 0 Z"
         id="path17" />
    </clipPath>
    <clipPath
       clipPathUnits="userSpaceOnUse"
       id="clipPath19">
      <path
         d="M 0,660 H 660 V 0 H 0 Z"
         transform="translate(-46.131301,-78.103502)"
         id="path19" />
    </clipPath>
    <clipPath
       clipPathUnits="userSpaceOnUse"
       id="clipPath21">
      <path
         d="M 0,660 H 660 V 0 H 0 Z"
         transform="translate(-46.131301,-90.6592)"
         id="path21" />
    </clipPath>
    <clipPath
       clipPathUnits="userSpaceOnUse"
       id="clipPath23">
      <path
         d="M 0,660 H 660 V 0 H 0 Z"
         transform="translate(-60.209002,-97.3486)"
         id="path23" />
    </clipPath>
    <clipPath
       clipPathUnits="userSpaceOnUse"
       id="clipPath25">
      <path
         d="M 0,660 H 660 V 0 H 0 Z"
         transform="translate(-60.209002,-98.036102)"
         id="path25" />
    </clipPath>
    <clipPath
       clipPathUnits="userSpaceOnUse"
       id="clipPath27">
      <path
         d="M 0,660 H 660 V 0 H 0 Z"
         transform="translate(-1.1494,-497.71531)"
         id="path27" />
    </clipPath>
    <clipPath
       clipPathUnits="userSpaceOnUse"
       id="clipPath29">
      <path
         d="M 0,660 H 660 V 0 H 0 Z"
         transform="translate(-1.1494,-480.88331)"
         id="path29" />
    </clipPath>
    <clipPath
       clipPathUnits="userSpaceOnUse"
       id="clipPath31">
      <path
         d="M 0,660 H 660 V 0 H 0 Z"
         transform="translate(-143.21781,-135.47271)"
         id="path31" />
    </clipPath>
    <clipPath
       clipPathUnits="userSpaceOnUse"
       id="clipPath33">
      <path
         d="M 0,660 H 660 V 0 H 0 Z"
         transform="translate(-1.1494,-135.47271)"
         id="path33" />
    </clipPath>
    <clipPath
       clipPathUnits="userSpaceOnUse"
       id="clipPath35">
      <path
         d="M 0,660 H 660 V 0 H 0 Z"
         transform="translate(-1.1494,-193.0479)"
         id="path35" />
    </clipPath>
    <clipPath
       clipPathUnits="userSpaceOnUse"
       id="clipPath37">
      <path
         d="M 0,660 H 660 V 0 H 0 Z"
         transform="translate(-1.1494,-396.42291)"
         id="path37" />
    </clipPath>
    <clipPath
       clipPathUnits="userSpaceOnUse"
       id="clipPath39">
      <path
         d="M 0,660 H 660 V 0 H 0 Z"
         transform="translate(-162.85551,-155.68071)"
         id="path39" />
    </clipPath>
    <clipPath
       clipPathUnits="userSpaceOnUse"
       id="clipPath41">
      <path
         d="M 0,660 H 660 V 0 H 0 Z"
         transform="translate(-195.32031,-155.68071)"
         id="path41" />
    </clipPath>
    <clipPath
       clipPathUnits="userSpaceOnUse"
       id="clipPath43">
      <path
         d="M 0,660 H 660 V 0 H 0 Z"
         id="path43" />
    </clipPath>
    <clipPath
       clipPathUnits="userSpaceOnUse"
       id="clipPath45">
      <path
         d="M 0,660 H 660 V 0 H 0 Z"
         transform="translate(-234.49801,-155.68071)"
         id="path45" />
    </clipPath>
    <clipPath
       clipPathUnits="userSpaceOnUse"
       id="clipPath47">
      <path
         d="M 0,660 H 660 V 0 H 0 Z"
         id="path47" />
    </clipPath>
    <clipPath
       clipPathUnits="userSpaceOnUse"
       id="clipPath49">
      <path
         d="M 0,660 H 660 V 0 H 0 Z"
         id="path49" />
    </clipPath>
    <clipPath
       clipPathUnits="userSpaceOnUse"
       id="clipPath51">
      <path
         d="M 0,660 H 660 V 0 H 0 Z"
         id="path51" />
    </clipPath>
    <clipPath
       clipPathUnits="userSpaceOnUse"
       id="clipPath53">
      <path
         d="M 0,660 H 660 V 0 H 0 Z"
         id="path53" />
    </clipPath>
  </defs>
  <sodipodi:namedview
     id="namedview1"
     pagecolor="#ffffff"
     bordercolor="#000000"
     borderopacity="0.25"
     inkscape:showpageshadow="2"
     inkscape:pageopacity="0.0"
     inkscape:pagecheckerboard="0"
     inkscape:deskcolor="#d1d1d1"
     inkscape:zoom="0.67272727"
     inkscape:cx="439.25676"
     inkscape:cy="440"
     inkscape:window-width="1440"
     inkscape:window-height="830"
     inkscape:window-x="-6"
     inkscape:window-y="-6"
     inkscape:window-maximized="1"
     inkscape:current-layer="g1">
    <inkscape:page
       x="0"
       y="0"
       inkscape:label="1"
       id="page1"
       width="880"
       height="880"
       margin="0 0 0.28533334 1.5325067"
       bleed="0" />
  </sodipodi:namedview>
  <g
     id="g1"
     inkscape:groupmode="layer"
     inkscape:label="1">
    <g
       id="group-MC0">
      <path
         id="path2"
         d="m 1.149,0 h 658.85 V 659.786 H 1.149 Z"
         style="fill:#b2a29e;fill-opacity:1;fill-rule:nonzero;stroke:none"
         transform="matrix(1.3333333,0,0,-1.3333333,0,880)" />
      <path
         id="path3"
         d="M 0,0 -0.459,-108.267 H 319.275 V 0 Z"
         style="fill:#948681;fill-opacity:1;fill-rule:nonzero;stroke:none"
         transform="matrix(1.3333333,0,0,-1.3333333,65.2356,0.2848)" />
      <path
         id="path4"
         d="M 0,0 C 7.17,8.986 13.69,17.865 19.669,26.643 24.762,20.271 30.205,13.846 36.11,7.35 42.746,13.905 49.382,20.461 56.018,27.018 50.253,38.102 45.767,50.517 42.14,63.828 120.575,212.15 50.528,325.4 142.994,379.388 52.241,387.566 28.062,316.566 16.174,230.947 2.861,296.281 -24.734,346.712 -106.884,340.217 -14.487,292.885 -84.365,193.636 -6.207,63.645 -9.804,48.75 -14.234,34.845 -19.905,22.415 -13.271,14.944 -6.636,7.474 0,0"
         style="fill:#948681;fill-opacity:1;fill-rule:evenodd;stroke:none"
         transform="matrix(1.3333333,0,0,-1.3333333,687.30853,593.4844)"
         clip-path="url(#clipPath5)" />
      <path
         id="path6"
         d="M 0,0 C 143.218,179.52 37.674,317.894 142.994,379.388 -24.009,394.436 34.393,141.407 -19.905,22.417 -13.27,14.946 -6.634,7.473 0,0"
         style="fill:#448733;fill-opacity:1;fill-rule:evenodd;stroke:none"
         transform="matrix(1.3333333,0,0,-1.3333333,653.2904,523.78907)"
         clip-path="url(#clipPath7)" />
      <path
         id="path8"
         d="M 0,0 C -143.217,157.508 -37.674,278.915 -142.994,332.869 24.009,346.072 -34.394,124.068 19.905,19.669 13.27,13.113 6.636,6.556 0,0"
         style="fill:#549d34;fill-opacity:1;fill-rule:evenodd;stroke:none"
         transform="matrix(1.3333333,0,0,-1.3333333,701.44013,513.9896)"
         clip-path="url(#clipPath9)" />
      <path
         id="path10"
         d="M 332.523,234.082 H 526.08 v 40.426 H 332.523 Z"
         style="fill:#2f2825;fill-opacity:1;fill-rule:evenodd;stroke:none"
         transform="matrix(1.3333333,0,0,-1.3333333,0,880)"
         clip-path="url(#clipPath11)" />
      <path
         id="path12"
         d="m 0,0 h 61.549 v -354.752 h -230.916 l 26.205,226.438 C -134.995,-57.741 -70.573,0 0,0"
         style="fill:#2f2825;fill-opacity:1;fill-rule:evenodd;stroke:none"
         transform="matrix(1.3333333,0,0,-1.3333333,799.86067,251.26307)"
         clip-path="url(#clipPath13)" />
      <path
         id="path14"
         d="m 0,0 h 66.24 v -319.913 h -218.974 l 23.63,204.202 C -121.737,-52.071 -63.643,0 0,0"
         style="fill:#4ba5ce;fill-opacity:1;fill-rule:evenodd;stroke:none"
         transform="matrix(1.3333333,0,0,-1.3333333,793.60547,318.55987)"
         clip-path="url(#clipPath15)" />
      <path
         id="path16"
         d="M 1.149,-0.509 H 661.444 V 212.032 H 1.149 Z"
         style="fill:#d7c9c4;fill-opacity:1;fill-rule:evenodd;stroke:none"
         transform="matrix(1.3333333,0,0,-1.3333333,0,880)"
         clip-path="url(#clipPath17)" />
      <path
         id="path18"
         d="m 0,0 h 254.738 254.684 c 5.175,0 11.132,1.615 13.159,3.562 12.91,12.405 25.744,24.737 38.527,37.021 12.818,12.316 25.642,24.643 38.535,37.03 0.607,0.582 0.798,1.131 0.632,1.616 h 0.002 l 0.056,12.214 -24.993,-5.445 1.708,-4.863 H 339.172 84.277 C 79.26,81.135 73.659,79.609 71.7,77.727 58.883,65.411 45.981,53.013 33.046,40.583 20.145,28.186 7.234,15.779 -5.6,3.447 -7.567,1.558 -5.122,0 0,0"
         style="fill:#2f2825;fill-opacity:1;fill-rule:evenodd;stroke:none"
         transform="matrix(1.3333333,0,0,-1.3333333,61.5084,775.862)"
         clip-path="url(#clipPath19)" />
      <path
         id="path20"
         d="m 0,0 h 254.738 254.684 c 5.175,0 11.132,1.615 13.159,3.563 12.91,12.406 25.744,24.738 38.527,37.022 12.818,12.316 25.642,24.641 38.535,37.03 2.02,1.938 -0.56,3.522 -5.629,3.522 H 339.172 84.277 C 79.26,81.137 73.659,79.611 71.7,77.728 58.883,65.413 45.981,53.015 33.046,40.585 20.145,28.187 7.234,15.781 -5.6,3.449 -7.567,1.559 -5.122,0 0,0"
         style="fill:#463d3b;fill-opacity:1;fill-rule:evenodd;stroke:none"
         transform="matrix(1.3333333,0,0,-1.3333333,61.5084,759.12107)"
         clip-path="url(#clipPath21)" />
      <path
         id="path22"
         d="m 0,0 c 8.403,0.006 16.8,0.008 25.249,0.008 1.162,0 2.349,0.227 2.636,0.502 2.078,1.996 4.13,3.968 6.197,5.956 0.287,0.275 -0.426,0.505 -1.588,0.503 C 24.038,6.962 15.587,6.96 7.191,6.96 6.029,6.96 4.828,6.725 4.548,6.45 2.533,4.47 0.488,2.498 -1.589,0.502 -1.877,0.227 -1.164,-0.002 0,0 m 38.354,0.016 c 8.449,0 16.784,-0.008 25.188,0 1.217,0 2.408,0.227 2.688,0.503 2.032,1.995 4.085,3.975 6.146,5.955 0.295,0.283 -0.426,0.505 -1.642,0.503 -8.351,-0.006 -16.74,0 -25.197,-0.008 -1.163,0 -2.348,-0.228 -2.635,-0.503 C 40.841,4.486 38.833,2.506 36.756,0.51 36.47,0.235 37.192,0.016 38.354,0.016 M 76.7,0.023 c 8.395,0 16.792,0.002 25.249,0.008 1.163,0.002 2.348,0.228 2.635,0.503 2.078,1.996 4.13,3.968 6.199,5.956 0.287,0.277 -0.48,0.504 -1.642,0.504 -8.449,0 -16.854,-0.008 -25.249,-0.008 -1.163,0 -2.349,-0.229 -2.636,-0.504 C 79.186,4.494 77.135,2.523 75.058,0.526 74.771,0.251 75.485,0.023 76.7,0.023 m 39.982,0.008 c 8.343,0 16.643,0.009 25.038,0.009 1.11,0 2.296,0.227 2.583,0.502 2.078,1.996 4.138,3.976 6.207,5.964 0.286,0.277 -0.428,0.504 -1.589,0.504 -8.343,0 -16.695,-0.008 -24.985,-0.008 -1.163,0 -2.35,-0.228 -2.637,-0.504 -2.068,-1.988 -4.075,-3.968 -6.152,-5.964 -0.287,-0.275 0.427,-0.503 1.535,-0.503 m 37.976,0.009 c 8.403,0.008 16.8,0.008 25.302,0.008 1.163,0 2.35,0.226 2.637,0.502 2.085,2.006 4.139,3.986 6.162,5.971 0.28,0.278 -0.373,0.505 -1.537,0.505 -8.509,-0.007 -16.959,-0.007 -25.302,-0.007 -1.162,0 -2.358,-0.236 -2.645,-0.513 -2.068,-1.988 -4.122,-3.968 -6.153,-5.964 -0.28,-0.275 0.427,-0.502 1.536,-0.502 m 38.249,0.016 c 8.396,0 16.792,0.002 25.302,0.008 1.164,0.002 2.349,0.227 2.636,0.504 2.077,1.996 4.131,3.976 6.153,5.961 0.281,0.278 -0.427,0.505 -1.587,0.505 -8.45,0 -16.849,-0.002 -25.25,-0.008 -1.165,-0.002 -2.35,-0.227 -2.637,-0.505 -2.069,-1.985 -4.122,-3.965 -6.152,-5.963 -0.282,-0.275 0.373,-0.502 1.535,-0.502 m 39.929,0.008 c 8.502,0 16.854,0.007 25.199,0.007 1.16,0 2.348,0.228 2.635,0.505 2.078,1.996 4.143,3.984 6.213,5.972 0.287,0.275 -0.427,0.502 -1.587,0.502 -8.344,0 -16.696,-0.008 -25.198,-0.008 -1.161,0 -2.349,-0.228 -2.636,-0.502 -2.068,-1.988 -4.137,-3.976 -6.213,-5.972 -0.287,-0.277 0.427,-0.504 1.587,-0.504 m 38.188,0.007 c 8.403,0.008 16.749,0.008 25.091,0.008 1.163,0 2.349,0.228 2.636,0.505 2.086,2.004 4.161,3.991 6.277,5.98 0.293,0.275 -0.428,0.502 -1.643,0.502 -8.342,0 -16.695,-0.008 -25.091,-0.008 -1.162,0 -2.349,-0.227 -2.644,-0.51 -2.069,-1.988 -4.129,-3.968 -6.215,-5.972 -0.287,-0.277 0.427,-0.505 1.589,-0.505 m 38.249,0.017 c 8.35,0.008 16.687,0 25.082,0 1.163,0 2.358,0.237 2.645,0.512 2.077,1.996 4.153,3.984 6.267,5.971 0.302,0.284 -0.417,0.513 -1.58,0.511 -8.404,-0.006 -16.751,-0.008 -25.152,-0.016 -1.165,0 -2.403,-0.227 -2.69,-0.502 -2.068,-1.989 -4.137,-3.976 -6.215,-5.972 -0.285,-0.276 0.48,-0.504 1.643,-0.504 m 39.772,0.01 c 8.396,0 16.846,0 25.353,0.007 1.165,0 2.35,0.228 2.637,0.502 2.085,2.004 4.161,3.993 6.276,5.981 0.293,0.274 -0.48,0.502 -1.641,0.502 -8.449,0 -16.899,0 -25.304,-0.008 -1.214,0 -2.394,-0.227 -2.687,-0.503 -2.117,-1.987 -4.19,-3.975 -6.275,-5.979 -0.288,-0.275 0.426,-0.502 1.641,-0.502 m 38.292,0.007 c 8.345,0 16.694,0.008 25.144,0.008 1.163,0 2.349,0.228 2.636,0.503 2.086,2.004 4.159,3.991 6.283,5.988 0.295,0.275 -0.424,0.503 -1.587,0.503 -8.45,0 -16.854,-0.009 -25.145,-0.009 -1.162,0 -2.349,-0.228 -2.636,-0.502 -2.077,-1.996 -4.151,-3.985 -6.284,-5.989 -0.293,-0.274 0.429,-0.502 1.589,-0.502 m 38.188,0.008 c 8.403,0.006 16.853,0.008 25.249,0.008 1.163,0 2.349,0.228 2.644,0.511 2.086,2.004 4.207,3.991 6.284,5.987 0.287,0.277 -0.427,0.505 -1.589,0.505 -8.402,-0.008 -16.851,-0.008 -25.302,-0.008 -1.163,0 -2.357,-0.237 -2.644,-0.512 -2.069,-1.989 -4.137,-3.976 -6.223,-5.98 -0.295,-0.283 0.417,-0.513 1.581,-0.511 m 39.886,0.016 h 25.399 c 1.162,0 2.358,0.235 2.645,0.511 2.085,2.004 4.169,4 6.282,5.987 0.304,0.285 -0.47,0.513 -1.633,0.513 -8.507,-0.008 -16.96,-0.01 -25.362,-0.016 -1.164,-0.002 -2.343,-0.228 -2.636,-0.505 -2.123,-1.996 -4.199,-3.983 -6.284,-5.987 -0.287,-0.275 0.426,-0.503 1.589,-0.503 m -455.34,9.8 c 7.506,0.009 15.05,0.003 22.608,0.01 1.058,0 2.239,0.323 2.645,0.714 2.972,2.855 5.912,5.687 8.838,8.543 0.399,0.39 -0.093,0.723 -1.149,0.723 C 35.454,19.91 27.954,19.91 20.456,19.91 c -1.057,0 -2.247,-0.333 -2.653,-0.721 -2.972,-2.858 -5.927,-5.697 -8.89,-8.544 -0.405,-0.391 0.101,-0.716 1.158,-0.716 m 104.544,0.042 c 7.613,0.009 15.112,0.009 22.558,0.009 1.056,0 2.245,0.324 2.644,0.712 2.917,2.848 5.857,5.681 8.83,8.537 0.405,0.388 -0.102,0.713 -1.159,0.713 -7.445,0 -14.997,0 -22.556,-0.007 -1.057,-0.002 -2.239,-0.326 -2.644,-0.714 -2.972,-2.858 -5.866,-5.689 -8.83,-8.536 -0.406,-0.389 0.101,-0.714 1.157,-0.714 M 44.464,9.947 c -1.056,0 -1.616,0.324 -1.21,0.714 2.963,2.847 5.904,5.679 8.829,8.535 0.407,0.398 1.596,0.723 2.706,0.723 7.498,0 15.103,0 22.609,0.008 1.057,0.002 1.563,-0.325 1.149,-0.722 -2.964,-2.85 -5.911,-5.688 -8.829,-8.536 -0.399,-0.391 -1.589,-0.714 -2.644,-0.714 -7.499,0 -15.111,-0.008 -22.61,-0.008 m 34.288,0.016 c 7.498,0 15.104,0 22.662,0.008 1.058,0 2.239,0.325 2.645,0.714 2.963,2.847 5.857,5.678 8.829,8.536 0.405,0.388 -0.102,0.714 -1.158,0.714 -7.55,0 -15.164,-0.008 -22.662,-0.008 -1.003,0 -2.245,-0.325 -2.644,-0.714 -2.926,-2.856 -5.973,-5.696 -8.89,-8.544 -0.401,-0.391 0.215,-0.706 1.218,-0.706 m 70.099,0.024 c -1.056,0 -1.563,0.326 -1.157,0.714 2.955,2.839 5.857,5.681 8.821,8.528 0.405,0.388 1.596,0.721 2.652,0.721 h 22.548 c 1.056,0 1.563,-0.325 1.158,-0.714 -2.963,-2.846 -5.91,-5.678 -8.874,-8.527 -0.405,-0.389 -1.587,-0.712 -2.644,-0.714 -7.506,-0.008 -15.059,-0.008 -22.504,-0.008 m 34.227,0.008 c 7.559,0.008 15.112,0.008 22.609,0.008 0.952,0 2.134,0.325 2.539,0.714 2.964,2.849 5.912,5.681 8.875,8.527 0.414,0.398 -0.092,0.725 -1.097,0.723 -7.505,-0.007 -15.006,-0.009 -22.611,-0.009 -1.001,0 -2.185,-0.324 -2.591,-0.714 -2.971,-2.854 -5.866,-5.686 -8.828,-8.535 -0.407,-0.389 0.1,-0.714 1.104,-0.714 m 35.713,0.016 c -1.057,0 -1.563,0.325 -1.156,0.714 2.955,2.841 5.909,5.68 8.872,8.528 0.407,0.389 1.588,0.714 2.644,0.714 7.499,0 15.058,0.008 22.662,0.008 1.058,0 1.564,-0.324 1.161,-0.714 -2.965,-2.848 -5.912,-5.679 -8.877,-8.529 -0.405,-0.388 -1.587,-0.713 -2.643,-0.713 -7.605,0 -15.164,-0.008 -22.663,-0.008 m 34.492,0.008 c 7.453,0.008 14.901,0.01 22.407,0.018 1.057,0 2.24,0.323 2.634,0.703 2.965,2.85 5.912,5.681 8.875,8.529 0.406,0.39 -0.101,0.713 -1.157,0.713 -7.498,0 -14.945,0 -22.399,-0.007 -1.059,0 -2.239,-0.324 -2.643,-0.714 -2.965,-2.848 -5.913,-5.679 -8.876,-8.529 -0.404,-0.388 0.102,-0.713 1.159,-0.713 m 34.129,0.018 c -1.057,0 -1.563,0.323 -1.158,0.714 2.957,2.839 5.912,5.679 8.866,8.518 0.405,0.39 1.588,0.713 2.645,0.713 7.504,0.008 15.006,0.01 22.556,0.01 1.003,0 1.563,-0.325 1.158,-0.716 -2.955,-2.839 -5.901,-5.671 -8.867,-8.517 -0.404,-0.391 -1.64,-0.714 -2.643,-0.714 -7.551,0 -15.11,-0.008 -22.557,-0.008 m 35.662,0.016 c 7.497,0 14.998,0 22.557,0.008 1.056,0 2.237,0.323 2.644,0.713 2.955,2.84 5.908,5.671 8.918,8.518 0.411,0.392 -0.101,0.716 -1.158,0.716 C 348.477,20 340.924,20 333.479,20 c -1.003,0 -2.24,-0.325 -2.644,-0.716 -2.965,-2.847 -5.918,-5.679 -8.929,-8.525 -0.402,-0.383 0.163,-0.706 1.168,-0.706 m 34.28,0.008 c -1.057,-0.002 -1.564,0.323 -1.16,0.713 2.965,2.848 5.91,5.671 8.919,8.518 0.413,0.392 1.589,0.716 2.644,0.716 7.499,0 15.105,0 22.717,0.009 1.056,0 1.562,-0.326 1.158,-0.716 -2.955,-2.84 -5.91,-5.671 -8.919,-8.519 -0.412,-0.388 -1.589,-0.714 -2.644,-0.714 -7.604,0 -15.209,-0.002 -22.715,-0.007 m 34.445,0.016 c 7.447,0 14.946,0 22.505,0.008 0.951,0 2.231,0.323 2.644,0.714 3.001,2.839 5.907,5.672 8.91,8.51 0.411,0.39 -0.155,0.715 -1.158,0.715 -7.551,0 -15.057,-0.007 -22.505,-0.007 -1.003,0 -2.179,-0.326 -2.59,-0.716 -3.003,-2.84 -5.956,-5.671 -8.911,-8.51 -0.404,-0.39 0.103,-0.714 1.105,-0.714 m 35.549,0.008 c -1.005,-0.002 -1.572,0.325 -1.159,0.714 3.011,2.847 5.954,5.672 8.909,8.51 0.407,0.39 1.641,0.714 2.644,0.715 7.507,0.006 15.06,0.008 22.662,0.008 1.057,0 1.564,-0.325 1.158,-0.714 -2.944,-2.831 -5.945,-5.665 -8.908,-8.511 -0.407,-0.389 -1.589,-0.714 -2.643,-0.714 -7.606,0 -15.159,-0.002 -22.663,-0.008 m 34.34,0.016 c 13.261,0.007 26.571,0.007 39.938,0.015 1.057,0 2.239,0.325 2.643,0.714 2.956,2.84 5.905,5.673 8.849,8.504 0.407,0.389 -0.101,0.714 -1.156,0.714 -13.308,0 -26.622,-0.008 -39.825,-0.008 -1.055,0 -2.232,-0.325 -2.645,-0.714 -3.001,-2.839 -5.953,-5.673 -8.908,-8.512 -0.407,-0.388 0.1,-0.713 1.104,-0.713 m 30.648,12.908 c -1.057,0 -1.569,0.325 -1.166,0.706 3.003,2.839 5.953,5.673 8.892,8.496 0.407,0.389 1.589,0.714 2.644,0.714 h 22.706 c 1.057,0 1.565,-0.325 1.169,-0.706 -2.947,-2.831 -5.9,-5.665 -8.894,-8.496 -0.412,-0.389 -1.578,-0.704 -2.636,-0.706 -7.558,-0.006 -15.164,-0.008 -22.715,-0.008 m -34.28,-0.008 c 7.499,0 15.059,0.008 22.556,0.008 1.057,0 2.234,0.325 2.636,0.706 2.995,2.831 5.956,5.673 8.895,8.496 0.405,0.389 -0.104,0.714 -1.159,0.714 h -22.549 c -1.056,0 -2.233,-0.325 -2.643,-0.714 -2.993,-2.831 -5.946,-5.665 -8.893,-8.496 -0.405,-0.389 0.102,-0.714 1.157,-0.714 m -34.279,-0.008 c -1.056,0 -1.569,0.325 -1.159,0.714 2.993,2.831 5.956,5.673 8.903,8.504 0.405,0.389 1.587,0.714 2.644,0.714 h 22.547 c 1.005,0 1.563,-0.325 1.158,-0.714 -2.947,-2.831 -5.899,-5.665 -8.9,-8.504 -0.404,-0.381 -1.633,-0.706 -2.636,-0.706 -7.499,0 -15.058,-0.008 -22.557,-0.008 M 388.07,22.985 c 7.606,0 15.166,0.008 22.665,0.008 1.055,0 2.179,0.325 2.582,0.706 3.001,2.839 5.97,5.681 8.962,8.512 0.411,0.389 -0.109,0.706 -1.166,0.706 h -22.654 c -1.057,0 -2.239,-0.325 -2.645,-0.714 -2.946,-2.832 -5.945,-5.665 -8.9,-8.504 -0.406,-0.389 0.102,-0.714 1.156,-0.714 m -34.384,-0.007 c -1.056,0 -1.563,0.324 -1.158,0.713 2.954,2.839 5.911,5.68 8.857,8.512 0.407,0.389 1.589,0.714 2.643,0.714 h 22.655 c 1.057,0 1.563,-0.325 1.159,-0.714 -2.948,-2.832 -5.908,-5.673 -8.902,-8.504 -0.412,-0.389 -1.588,-0.714 -2.645,-0.714 -7.551,0 -15.11,-0.007 -22.609,-0.007 m -34.332,-0.009 c 7.611,0.006 15.164,0.009 22.714,0.009 0.951,0 2.127,0.324 2.538,0.713 3.003,2.839 5.964,5.68 8.911,8.512 0.407,0.389 -0.102,0.714 -1.105,0.714 h -22.706 c -1.005,0 -2.188,-0.325 -2.592,-0.714 -2.955,-2.842 -5.91,-5.68 -8.865,-8.52 -0.406,-0.389 0.101,-0.716 1.105,-0.714 m -35.6,-0.008 c -1.058,-0.002 -1.564,0.325 -1.159,0.714 2.965,2.848 5.92,5.686 8.875,8.528 0.405,0.389 1.589,0.714 2.643,0.714 h 22.549 c 1.057,0 1.564,-0.325 1.158,-0.714 -2.954,-2.842 -5.911,-5.68 -8.866,-8.52 -0.405,-0.389 -1.587,-0.714 -2.644,-0.714 -7.55,0 -15.103,-0.002 -22.556,-0.008 m -34.333,-0.008 c 7.559,0.006 15.217,0.008 22.768,0.008 1.057,0 2.185,0.325 2.592,0.714 2.955,2.84 5.918,5.686 8.875,8.528 0.404,0.389 -0.051,0.714 -1.107,0.714 -7.611,-0.009 -15.217,-0.009 -22.768,-0.009 -1.056,0 -2.239,-0.324 -2.644,-0.714 -2.954,-2.84 -5.91,-5.679 -8.872,-8.527 -0.407,-0.389 0.099,-0.716 1.156,-0.714 m -34.386,-0.008 c -0.95,-0.002 -1.51,0.326 -1.105,0.714 2.965,2.847 5.874,5.695 8.831,8.535 0.404,0.39 1.641,0.714 2.644,0.714 h 22.652 c 1.057,0 1.564,-0.324 1.161,-0.714 -2.955,-2.84 -5.91,-5.679 -8.877,-8.527 -0.403,-0.389 -1.587,-0.714 -2.644,-0.714 -7.549,0 -15.154,-0.002 -22.662,-0.008 m -35.652,-0.008 c 7.453,0.006 15.059,0.008 22.664,0.008 1.003,0 2.237,0.326 2.643,0.714 2.963,2.847 5.874,5.695 8.829,8.535 0.405,0.39 -0.155,0.714 -1.158,0.714 h -22.654 c -1.055,0 -2.237,-0.324 -2.643,-0.714 -2.956,-2.84 -5.913,-5.688 -8.838,-8.543 -0.391,-0.38 0.101,-0.715 1.157,-0.714 m -34.165,0 c -1.056,0 -1.564,0.323 -1.158,0.714 2.963,2.847 5.921,5.695 8.83,8.536 0.406,0.397 1.596,0.721 2.651,0.721 h 22.444 c 1.055,0 1.556,-0.324 1.157,-0.714 -2.916,-2.848 -5.874,-5.696 -8.838,-8.543 -0.405,-0.391 -1.587,-0.714 -2.644,-0.714 z M 110.779,22.93 h 22.76 c 1.057,0 2.239,0.322 2.644,0.713 2.973,2.855 5.883,5.703 8.838,8.544 0.414,0.397 -0.093,0.721 -1.149,0.721 -7.657,0 -15.27,-0.008 -22.769,-0.008 -1.002,0 -2.238,-0.325 -2.644,-0.713 -2.954,-2.841 -5.873,-5.697 -8.837,-8.544 -0.405,-0.391 0.154,-0.713 1.157,-0.713 M 75.074,22.921 c -1.056,0 -1.562,0.323 -1.158,0.712 2.973,2.857 5.929,5.705 8.846,8.554 0.399,0.388 1.589,0.713 2.645,0.713 h 22.549 c 1.056,0 1.615,-0.325 1.21,-0.713 -2.964,-2.849 -5.92,-5.697 -8.847,-8.554 -0.398,-0.389 -1.64,-0.712 -2.643,-0.712 z M 23.571,22.903 c 13.21,0.008 26.465,0.008 39.771,0.008 1.057,0 2.254,0.333 2.654,0.722 2.917,2.849 5.882,5.705 8.846,8.554 0.405,0.388 -0.102,0.713 -1.157,0.713 H 33.92 c -1.055,0 -2.237,-0.325 -2.652,-0.721 -2.963,-2.85 -5.92,-5.697 -8.846,-8.554 -0.407,-0.396 0.093,-0.722 1.149,-0.722 M 37.028,35.886 H 93.9 c 1.057,0 2.231,0.316 2.644,0.714 2.981,2.865 5.892,5.712 8.855,8.559 0.413,0.399 -0.101,0.714 -1.158,0.714 -19.01,0 -37.959,0.008 -56.863,0.008 -1.057,0 -2.178,-0.316 -2.592,-0.714 -2.963,-2.848 -5.935,-5.702 -8.915,-8.567 -0.414,-0.398 0.101,-0.714 1.157,-0.714 m 68.542,0 c -1.003,0 -1.565,0.316 -1.157,0.714 2.934,2.865 5.891,5.712 8.855,8.559 0.413,0.399 1.641,0.714 2.644,0.714 7.499,0 15.041,-0.009 22.645,-0.009 1.057,0 1.571,-0.314 1.157,-0.713 -2.955,-2.839 -5.911,-5.686 -8.845,-8.551 -0.408,-0.398 -1.589,-0.714 -2.644,-0.714 z m 35.856,0 h 22.601 c 1.003,0 2.178,0.316 2.592,0.714 2.971,2.856 5.928,5.704 8.837,8.543 0.407,0.399 -0.103,0.713 -1.105,0.713 -7.491,0.008 -14.988,0.008 -22.593,0.008 -1.055,0 -2.23,-0.314 -2.644,-0.713 -2.954,-2.839 -5.866,-5.686 -8.846,-8.551 -0.414,-0.398 0.102,-0.714 1.158,-0.714 m 34.219,0 c -1.004,0 -1.514,0.316 -1.106,0.714 2.925,2.856 5.883,5.704 8.838,8.543 0.414,0.399 1.588,0.713 2.644,0.713 h 22.55 c 1.055,0 1.571,-0.314 1.156,-0.713 -2.955,-2.839 -5.918,-5.687 -8.891,-8.543 -0.412,-0.398 -1.533,-0.714 -2.589,-0.714 z m 34.269,0 h 22.655 c 1.005,0 2.185,0.316 2.592,0.714 2.927,2.856 5.874,5.696 8.829,8.535 0.414,0.399 -0.102,0.714 -1.105,0.714 -7.499,0 -15.05,0.002 -22.593,0.007 -1.003,0.002 -2.177,-0.314 -2.591,-0.713 -2.955,-2.839 -5.918,-5.687 -8.891,-8.543 -0.415,-0.398 0.102,-0.714 1.104,-0.714 m 35.75,0 c -1.056,0 -1.571,0.316 -1.156,0.714 2.971,2.856 5.926,5.696 8.881,8.535 0.415,0.399 1.589,0.714 2.644,0.714 7.501,0 15.095,-0.008 22.646,-0.008 1.057,0 1.625,-0.318 1.211,-0.714 -2.946,-2.831 -5.901,-5.671 -8.873,-8.527 -0.415,-0.398 -1.589,-0.714 -2.698,-0.714 z m 34.536,0 h 22.443 c 1.057,0 2.232,0.316 2.644,0.714 2.963,2.848 5.92,5.688 8.875,8.527 0.412,0.396 -0.103,0.714 -1.158,0.714 H 290.56 c -1.054,0 -2.283,-0.318 -2.697,-0.714 -2.945,-2.831 -5.894,-5.671 -8.821,-8.527 -0.407,-0.398 0.101,-0.714 1.158,-0.714 m 34.167,0 c -1.057,0 -1.573,0.316 -1.158,0.714 2.963,2.848 5.918,5.688 8.873,8.527 0.414,0.396 1.581,0.706 2.636,0.706 h 22.549 c 1.002,0 1.63,-0.317 1.21,-0.714 -2.994,-2.831 -5.955,-5.671 -8.919,-8.519 -0.412,-0.398 -1.641,-0.714 -2.644,-0.714 z m 35.696,0 h 22.549 c 1.055,0 2.23,0.316 2.644,0.714 2.963,2.848 5.864,5.679 8.857,8.511 0.42,0.397 -0.101,0.714 -1.159,0.714 -7.551,0 -15.041,0.008 -22.54,0.008 -0.949,0 -2.17,-0.317 -2.59,-0.714 -2.993,-2.831 -5.956,-5.671 -8.919,-8.519 -0.413,-0.398 0.155,-0.714 1.158,-0.714 m 34.271,0 c -1.057,0 -1.571,0.316 -1.158,0.714 2.965,2.848 5.964,5.679 8.91,8.511 0.415,0.397 1.588,0.714 2.644,0.714 7.551,0 15.102,0 22.752,-0.009 1.055,-0.002 1.579,-0.308 1.166,-0.705 -2.946,-2.832 -5.955,-5.673 -8.91,-8.511 -0.415,-0.398 -1.589,-0.714 -2.644,-0.714 z m 34.482,0 h 22.497 c 1.003,0 2.229,0.316 2.644,0.714 2.955,2.838 5.908,5.671 8.9,8.504 0.421,0.396 -0.153,0.712 -1.158,0.712 h -22.495 c -1.003,0 -2.171,-0.316 -2.582,-0.705 -2.992,-2.832 -5.955,-5.673 -8.91,-8.511 -0.413,-0.398 0.05,-0.714 1.104,-0.714 m 35.539,0 c -1.003,0 -1.578,0.316 -1.159,0.714 3.003,2.838 5.956,5.671 8.904,8.504 0.414,0.396 1.642,0.712 2.643,0.712 7.491,-0.007 15.042,-0.007 22.647,-0.007 1.054,0 1.571,-0.317 1.156,-0.714 -2.937,-2.824 -5.938,-5.657 -8.893,-8.495 -0.413,-0.398 -1.587,-0.714 -2.643,-0.714 z m 34.325,0 h 39.815 c 1.057,0 2.232,0.316 2.644,0.714 2.957,2.838 5.894,5.664 8.833,8.487 0.413,0.396 -0.102,0.714 -1.159,0.714 -13.253,0 -26.501,0.008 -39.753,0.008 -1.057,0 -2.224,-0.317 -2.644,-0.714 -2.985,-2.824 -5.841,-5.657 -8.841,-8.495 -0.421,-0.398 0.048,-0.714 1.105,-0.714 m -3.623,12.908 c -1.109,0 -1.58,0.316 -1.166,0.706 2.992,2.831 5.885,5.656 8.839,8.495 0.413,0.398 1.65,0.722 2.707,0.722 18.948,-0.008 37.851,-0.008 56.855,-0.016 1.055,0 1.563,-0.325 1.141,-0.729 -2.956,-2.842 -5.895,-5.665 -8.824,-8.481 -0.415,-0.396 -1.588,-0.714 -2.643,-0.714 -19.056,0.009 -37.96,0.009 -56.909,0.017 m -34.263,0.008 c 7.499,0 15.042,-0.008 22.541,-0.008 1.003,0 2.223,0.316 2.644,0.714 2.984,2.825 5.927,5.648 8.884,8.487 0.421,0.405 -0.139,0.731 -1.142,0.731 -7.499,0 -15.048,0.002 -22.488,0.007 -1.054,0.002 -2.23,-0.325 -2.659,-0.73 -3.003,-2.839 -5.946,-5.662 -8.894,-8.495 -0.406,-0.389 0.057,-0.706 1.114,-0.706 m -35.689,0.008 c -1.056,0 -1.571,0.317 -1.166,0.706 2.947,2.833 5.894,5.664 8.849,8.504 0.413,0.396 1.648,0.721 2.706,0.721 7.551,0 15.153,0 22.644,-0.008 1.054,0 1.569,-0.325 1.15,-0.721 -3.011,-2.848 -5.955,-5.671 -8.895,-8.496 -0.412,-0.397 -1.586,-0.714 -2.641,-0.714 -7.501,0 -15.096,0.008 -22.647,0.008 m -34.473,0.007 c 7.543,-0.005 15.094,-0.007 22.698,-0.007 1.057,0 2.23,0.317 2.644,0.715 2.939,2.824 5.891,5.655 8.892,8.495 0.429,0.406 -0.084,0.729 -1.14,0.729 -7.605,0 -15.156,0.002 -22.699,0.01 -1.054,0 -2.239,-0.325 -2.651,-0.724 -2.965,-2.847 -5.918,-5.679 -8.911,-8.51 -0.41,-0.39 0.112,-0.706 1.167,-0.708 m -34.317,0.008 c -1.001,0.002 -1.517,0.318 -1.113,0.708 2.955,2.84 5.895,5.663 8.858,8.51 0.414,0.399 1.596,0.724 2.599,0.724 7.605,0 15.207,-0.002 22.75,-0.008 1.003,-0.002 1.518,-0.325 1.097,-0.724 -3.009,-2.847 -5.953,-5.671 -8.901,-8.502 -0.413,-0.398 -1.587,-0.716 -2.591,-0.716 -7.497,0 -15.102,0.002 -22.699,0.008 m -35.634,0.011 c 7.491,-0.009 15.04,-0.011 22.592,-0.011 1.055,0 2.229,0.318 2.644,0.716 2.947,2.832 5.893,5.663 8.849,8.502 0.422,0.407 -0.086,0.732 -1.143,0.732 -7.551,0 -15.094,0.008 -22.592,0.008 -1.054,0 -2.185,-0.325 -2.6,-0.723 -2.963,-2.848 -5.91,-5.679 -8.865,-8.519 -0.405,-0.391 0.058,-0.705 1.115,-0.705 m -34.325,0 c -1.054,0 -1.557,0.322 -1.158,0.714 2.908,2.839 5.85,5.67 8.813,8.519 0.415,0.397 1.596,0.722 2.651,0.722 7.551,0 15.208,-0.002 22.805,-0.008 1.054,-0.002 1.51,-0.325 1.096,-0.723 -2.962,-2.848 -5.91,-5.679 -8.857,-8.51 -0.412,-0.4 -1.535,-0.714 -2.59,-0.714 -7.604,0 -15.217,-0.009 -22.76,0 m -34.42,0.008 h 22.652 c 1.057,0 2.231,0.314 2.644,0.714 2.947,2.831 5.902,5.67 8.857,8.511 0.423,0.405 -0.084,0.73 -1.141,0.73 -7.604,0 -15.147,0.008 -22.644,0.008 -1.005,0 -2.241,-0.326 -2.654,-0.722 -2.964,-2.849 -5.92,-5.689 -8.875,-8.527 -0.412,-0.4 0.156,-0.714 1.161,-0.714 m -35.69,0.008 c -1.057,0 -1.571,0.315 -1.149,0.721 2.955,2.839 5.848,5.671 8.813,8.52 0.413,0.397 1.595,0.721 2.652,0.721 7.497,0 15.102,-10e-4 22.646,-0.007 1.053,-0.002 1.615,-0.326 1.201,-0.722 -2.963,-2.849 -5.91,-5.681 -8.865,-8.52 -0.415,-0.398 -1.641,-0.713 -2.644,-0.713 z m -34.21,0.007 h 22.496 c 1.055,0 2.23,0.316 2.644,0.714 2.954,2.839 5.856,5.679 8.813,8.52 0.42,0.405 -0.086,0.73 -1.143,0.73 -7.549,0 -15.04,0.008 -22.486,0.008 -1.055,0 -2.185,-0.325 -2.6,-0.722 -2.963,-2.849 -5.965,-5.688 -8.873,-8.528 -0.416,-0.406 0.093,-0.722 1.149,-0.722 m -34.421,0.008 c -1.003,0 -1.573,0.318 -1.15,0.722 2.955,2.84 5.858,5.681 8.821,8.528 0.414,0.397 1.65,0.722 2.653,0.722 7.499,0 15.101,0 22.751,-0.008 1.056,-0.002 1.563,-0.325 1.149,-0.722 -2.964,-2.849 -5.865,-5.688 -8.821,-8.528 -0.413,-0.396 -1.587,-0.714 -2.643,-0.714 z M 50.51,48.892 c 24.547,-0.008 49.304,-0.017 74.018,-0.017 1.003,0 2.236,0.317 2.643,0.714 2.91,2.84 5.858,5.681 8.831,8.536 0.413,0.396 -0.201,0.722 -1.204,0.722 -24.652,0.007 -49.409,0.015 -73.903,0.024 -1.055,0 -2.238,-0.323 -2.652,-0.722 -2.963,-2.847 -5.927,-5.695 -8.891,-8.544 -0.414,-0.397 0.102,-0.713 1.158,-0.713 M 63.994,61.85 c -1.056,0 -1.563,0.325 -1.157,0.713 2.963,2.847 5.857,5.679 8.804,8.51 0.405,0.391 1.58,0.706 2.635,0.706 18.852,0 37.748,-0.008 56.758,-0.008 1.057,0 1.564,-0.323 1.158,-0.713 -2.946,-2.832 -5.849,-5.671 -8.813,-8.519 -0.405,-0.391 -1.588,-0.716 -2.643,-0.714 -19.003,0.007 -37.951,0.017 -56.742,0.025 m 68.412,-0.025 c 7.491,-0.008 15.04,-0.008 22.645,-0.008 1.057,0 2.245,0.324 2.644,0.712 2.917,2.85 5.913,5.689 8.813,8.52 0.4,0.391 -0.165,0.706 -1.219,0.706 -7.544,0.008 -15.094,0.008 -22.593,0.008 -1.003,0 -2.23,-0.315 -2.636,-0.705 -2.946,-2.832 -5.895,-5.671 -8.812,-8.519 -0.399,-0.391 0.156,-0.714 1.158,-0.714 m 35.839,-0.017 c -1.057,0 -1.558,0.325 -1.159,0.713 2.917,2.85 5.866,5.689 8.822,8.528 0.397,0.383 1.579,0.706 2.636,0.706 7.603,0 15.1,0 22.591,-0.008 1.055,0 1.564,-0.325 1.167,-0.706 -2.955,-2.839 -5.904,-5.679 -8.821,-8.527 -0.399,-0.389 -1.589,-0.714 -2.644,-0.714 -7.491,0.008 -14.989,0.008 -22.592,0.008 M 202.507,61.8 c 32.829,-0.014 65.662,-0.029 98.599,-0.04 32.728,-0.012 65.623,-0.016 98.503,-0.032 1.055,0 2.24,0.323 2.644,0.713 2.965,2.848 5.928,5.698 8.883,8.537 0.405,0.388 -0.094,0.721 -1.151,0.721 -32.827,0.016 -65.777,0.016 -98.508,0.025 -32.944,0.007 -65.833,0.015 -98.671,0.023 -1.057,0 -2.245,-0.325 -2.644,-0.714 -2.899,-2.831 -5.851,-5.671 -8.813,-8.519 -0.405,-0.389 0.104,-0.712 1.158,-0.714 m 208.826,-0.072 c -1.057,0 -1.571,0.323 -1.158,0.713 3.009,2.848 5.979,5.698 8.934,8.537 0.405,0.388 1.589,0.713 2.644,0.713 7.553,0 15.155,-0.002 22.752,-0.007 1.106,-0.002 1.621,-0.326 1.211,-0.714 -3.001,-2.842 -5.972,-5.689 -8.935,-8.536 -0.405,-0.391 -1.59,-0.714 -2.698,-0.714 -7.603,0 -15.207,0 -22.75,0.008 m 34.519,-0.016 c 7.444,0 14.943,-0.002 22.486,-0.008 1.003,-0.002 2.239,0.323 2.643,0.714 2.965,2.847 5.981,5.694 8.946,8.542 0.404,0.391 -0.156,0.714 -1.159,0.716 -7.545,0.006 -15.041,0.008 -22.487,0.008 -1.003,0 -2.181,-0.326 -2.592,-0.714 -3.01,-2.85 -5.98,-5.697 -8.943,-8.544 -0.406,-0.391 0.048,-0.714 1.106,-0.714 m 35.53,-0.008 c -1.003,0 -1.572,0.323 -1.158,0.714 3.008,2.847 5.979,5.694 8.944,8.542 0.404,0.391 1.639,0.716 2.642,0.716 7.499,0 15.042,-0.009 22.646,-0.009 1.057,0 1.569,-0.324 1.158,-0.716 -3.01,-2.847 -5.979,-5.694 -8.944,-8.541 -0.404,-0.39 -1.587,-0.714 -2.644,-0.714 -7.604,0 -15.153,0 -22.644,0.008 m 34.306,-0.017 c 13.202,0 26.447,-0.009 39.695,-0.017 1.054,0 2.236,0.325 2.643,0.714 2.963,2.849 5.988,5.705 8.953,8.552 0.405,0.39 -0.104,0.713 -1.159,0.713 -13.247,0.008 -26.501,0.01 -39.694,0.018 -1.055,0 -2.239,-0.324 -2.644,-0.716 -2.963,-2.847 -5.941,-5.702 -8.952,-8.552 -0.411,-0.388 0.102,-0.712 1.158,-0.712"
         style="fill:#766864;fill-opacity:1;fill-rule:evenodd;stroke:none"
         transform="matrix(1.3333333,0,0,-1.3333333,80.278667,750.20187)"
         clip-path="url(#clipPath23)" />
      <path
         id="path24"
         d="m 0,0 c 8.403,0.008 16.8,0.008 25.249,0.008 1.162,0 2.349,0.227 2.636,0.505 2.078,1.996 4.13,3.967 6.197,5.953 0.287,0.277 -0.426,0.505 -1.588,0.505 C 24.038,6.963 15.587,6.963 7.191,6.963 6.029,6.963 4.828,6.728 4.548,6.45 2.533,4.471 0.488,2.5 -1.589,0.503 -1.877,0.228 -1.164,0 0,0 m 38.354,0.016 c 8.449,0 16.784,-0.006 25.188,0 1.217,0.002 2.408,0.227 2.688,0.505 2.032,1.996 4.085,3.975 6.146,5.954 C 72.671,6.76 71.95,6.979 70.734,6.979 62.383,6.971 53.994,6.977 45.537,6.971 44.374,6.969 43.189,6.743 42.902,6.466 40.841,4.488 38.833,2.509 36.756,0.513 36.47,0.235 37.192,0.016 38.354,0.016 M 76.7,0.024 c 8.395,0 16.792,0.002 25.249,0.008 1.163,0.002 2.348,0.228 2.635,0.504 2.078,1.996 4.13,3.968 6.199,5.954 0.287,0.278 -0.48,0.504 -1.642,0.504 -8.449,0 -16.854,-0.008 -25.249,-0.008 -1.163,0 -2.349,-0.226 -2.636,-0.504 C 79.186,4.496 77.135,2.524 75.058,0.528 74.771,0.251 75.485,0.024 76.7,0.024 m 39.982,0.008 c 8.343,0 16.643,0.01 25.038,0.01 1.11,0 2.296,0.228 2.583,0.503 2.078,1.995 4.138,3.976 6.207,5.963 0.286,0.275 -0.428,0.503 -1.589,0.503 -8.343,0 -16.695,-0.008 -24.985,-0.008 -1.163,0 -2.35,-0.228 -2.637,-0.503 -2.068,-1.987 -4.075,-3.968 -6.152,-5.964 -0.287,-0.276 0.427,-0.504 1.535,-0.504 m 37.976,0.01 c 8.403,0.006 16.8,0.008 25.302,0.008 1.163,0 2.35,0.227 2.637,0.503 2.085,2.004 4.139,3.983 6.162,5.971 0.28,0.275 -0.373,0.504 -1.537,0.502 -8.509,-0.005 -16.959,-0.007 -25.302,-0.007 -1.162,0 -2.358,-0.236 -2.645,-0.511 -2.068,-1.987 -4.122,-3.968 -6.153,-5.963 -0.28,-0.275 0.427,-0.505 1.536,-0.503 m 38.249,0.016 c 8.396,0 16.792,0 25.302,0.008 1.164,0 2.349,0.227 2.636,0.502 2.077,1.996 4.131,3.976 6.153,5.964 0.281,0.276 -0.427,0.502 -1.587,0.502 -8.45,0 -16.849,0 -25.25,-0.008 -1.165,0 -2.35,-0.227 -2.637,-0.502 -2.069,-1.988 -4.122,-3.967 -6.152,-5.963 -0.282,-0.276 0.373,-0.503 1.535,-0.503 m 39.929,0.008 c 8.502,0 16.854,0.008 25.199,0.008 1.16,0 2.348,0.227 2.635,0.502 2.078,1.996 4.143,3.985 6.213,5.972 0.287,0.275 -0.427,0.505 -1.587,0.505 -8.344,0 -16.696,-0.011 -25.198,-0.011 -1.161,0 -2.349,-0.226 -2.636,-0.502 -2.068,-1.988 -4.137,-3.976 -6.213,-5.972 -0.287,-0.275 0.427,-0.502 1.587,-0.502 m 38.188,0.008 c 8.403,0.008 16.749,0.008 25.091,0.008 1.163,0 2.349,0.228 2.636,0.502 2.086,2.004 4.161,3.992 6.277,5.98 0.293,0.277 -0.428,0.504 -1.643,0.504 -8.342,0 -16.695,-0.007 -25.091,-0.007 -1.162,0 -2.349,-0.228 -2.644,-0.513 -2.069,-1.987 -4.129,-3.968 -6.215,-5.972 -0.287,-0.275 0.427,-0.504 1.589,-0.502 m 38.249,0.016 c 8.35,0.008 16.687,0 25.082,0 1.163,0 2.358,0.235 2.645,0.511 2.077,1.995 4.153,3.983 6.267,5.971 0.302,0.285 -0.417,0.512 -1.58,0.512 -8.404,-0.008 -16.751,-0.01 -25.152,-0.016 -1.165,-0.002 -2.403,-0.227 -2.69,-0.504 -2.068,-1.988 -4.137,-3.976 -6.215,-5.971 -0.285,-0.276 0.48,-0.503 1.643,-0.503 m 39.772,0.008 c 8.396,0 16.846,0 25.353,0.007 1.165,0.002 2.35,0.228 2.637,0.505 2.085,2.002 4.161,3.99 6.276,5.98 0.293,0.275 -0.48,0.503 -1.641,0.503 -8.449,0 -16.899,-0.003 -25.304,-0.009 -1.214,-0.002 -2.394,-0.227 -2.687,-0.504 -2.117,-1.988 -4.19,-3.975 -6.275,-5.979 -0.288,-0.276 0.426,-0.503 1.641,-0.503 m 38.292,0.007 c 8.345,0 16.694,0.008 25.144,0.008 1.163,0 2.349,0.228 2.636,0.505 2.086,2.004 4.159,3.992 6.283,5.987 0.295,0.276 -0.424,0.503 -1.587,0.503 -8.45,0 -16.854,-0.007 -25.145,-0.007 -1.162,0 -2.349,-0.228 -2.636,-0.503 -2.077,-1.998 -4.151,-3.986 -6.284,-5.988 -0.293,-0.277 0.429,-0.505 1.589,-0.505 m 38.188,0.008 c 8.403,0.009 16.853,0.009 25.249,0.009 1.163,0 2.349,0.227 2.644,0.512 2.086,2.004 4.207,3.992 6.284,5.988 0.287,0.274 -0.427,0.504 -1.589,0.502 -8.402,-0.006 -16.851,-0.008 -25.302,-0.008 -1.163,0 -2.357,-0.235 -2.644,-0.511 -2.069,-1.987 -4.137,-3.975 -6.223,-5.979 -0.295,-0.285 0.417,-0.513 1.581,-0.513 m 39.886,0.017 h 25.399 c 1.162,0 2.358,0.235 2.645,0.513 2.085,2.003 4.169,3.999 6.282,5.987 0.304,0.283 -0.47,0.513 -1.633,0.511 -8.507,-0.007 -16.96,-0.009 -25.362,-0.017 -1.164,0 -2.343,-0.228 -2.636,-0.502 -2.123,-1.996 -4.199,-3.984 -6.284,-5.988 -0.287,-0.277 0.426,-0.504 1.589,-0.504 M 10.071,9.932 c 7.506,0.007 15.05,0 22.608,0.007 1.058,0.002 2.239,0.326 2.645,0.714 2.972,2.858 5.912,5.689 8.838,8.544 0.399,0.389 -0.093,0.724 -1.149,0.722 -7.559,-0.006 -15.059,-0.008 -22.557,-0.008 -1.057,0 -2.247,-0.333 -2.653,-0.722 -2.972,-2.857 -5.927,-5.694 -8.89,-8.543 -0.405,-0.389 0.101,-0.714 1.158,-0.714 m 104.544,0.042 c 7.613,0.006 15.112,0.008 22.558,0.008 1.056,0 2.245,0.323 2.644,0.711 2.917,2.849 5.857,5.681 8.83,8.536 0.405,0.391 -0.102,0.715 -1.159,0.715 -7.445,0 -14.997,-0.002 -22.556,-0.009 -1.057,0 -2.239,-0.323 -2.644,-0.714 -2.972,-2.855 -5.866,-5.687 -8.83,-8.535 -0.406,-0.389 0.101,-0.714 1.157,-0.712 M 44.464,9.947 c -1.056,0 -1.616,0.326 -1.21,0.714 2.963,2.85 5.904,5.681 8.829,8.536 0.407,0.397 1.596,0.722 2.706,0.722 7.498,0 15.103,0.002 22.609,0.008 1.057,0.002 1.563,-0.323 1.149,-0.722 -2.964,-2.848 -5.911,-5.686 -8.829,-8.536 -0.399,-0.389 -1.589,-0.714 -2.644,-0.714 -7.499,0 -15.111,-0.008 -22.61,-0.008 m 34.288,0.017 c 7.498,0 15.104,0.002 22.662,0.01 1.058,0 2.239,0.323 2.645,0.712 2.963,2.848 5.857,5.68 8.829,8.535 0.405,0.391 -0.102,0.714 -1.158,0.714 -7.55,0 -15.164,-0.008 -22.662,-0.008 -1.003,0 -2.245,-0.323 -2.644,-0.714 -2.926,-2.856 -5.973,-5.694 -8.89,-8.544 -0.401,-0.389 0.215,-0.705 1.218,-0.705 m 70.099,0.025 c -1.056,0 -1.563,0.324 -1.157,0.712 2.955,2.841 5.857,5.681 8.821,8.528 0.405,0.391 1.596,0.724 2.652,0.724 h 22.548 c 1.056,0 1.563,-0.325 1.158,-0.716 -2.963,-2.847 -5.91,-5.678 -8.874,-8.526 -0.405,-0.391 -1.587,-0.714 -2.644,-0.714 -7.506,-0.008 -15.059,-0.008 -22.504,-0.008 m 34.227,0.008 c 7.559,0.006 15.112,0.008 22.609,0.008 0.952,0 2.134,0.323 2.539,0.714 2.964,2.847 5.912,5.679 8.875,8.526 0.414,0.399 -0.092,0.724 -1.097,0.724 -7.505,-0.008 -15.006,-0.008 -22.611,-0.008 -1.001,0 -2.185,-0.325 -2.591,-0.716 -2.971,-2.855 -5.866,-5.686 -8.828,-8.534 -0.407,-0.391 0.1,-0.716 1.104,-0.714 m 35.713,0.017 c -1.057,0 -1.563,0.322 -1.156,0.714 2.955,2.838 5.909,5.677 8.872,8.527 0.407,0.389 1.588,0.714 2.644,0.714 7.499,0 15.058,0.008 22.662,0.008 1.058,0 1.564,-0.326 1.161,-0.714 -2.965,-2.849 -5.912,-5.681 -8.877,-8.528 -0.405,-0.39 -1.587,-0.714 -2.643,-0.714 -7.605,0 -15.164,-0.007 -22.663,-0.007 m 34.492,0.007 c 7.453,0.006 14.901,0.008 22.407,0.016 1.057,0 2.24,0.325 2.634,0.706 2.965,2.848 5.912,5.681 8.875,8.528 0.406,0.388 -0.101,0.713 -1.157,0.713 -7.498,0 -14.945,-0.002 -22.399,-0.007 -1.059,-0.002 -2.239,-0.326 -2.643,-0.714 -2.965,-2.849 -5.913,-5.681 -8.876,-8.528 -0.404,-0.39 0.102,-0.715 1.159,-0.714 m 34.129,0.016 c -1.057,0 -1.563,0.325 -1.158,0.714 2.957,2.84 5.912,5.681 8.866,8.52 0.405,0.388 1.588,0.711 2.645,0.713 7.504,0.006 15.006,0.008 22.556,0.008 1.003,0 1.563,-0.324 1.158,-0.713 -2.955,-2.84 -5.901,-5.672 -8.867,-8.52 -0.404,-0.389 -1.64,-0.714 -2.643,-0.714 -7.551,0 -15.11,-0.008 -22.557,-0.008 m 35.662,0.016 c 7.497,0 14.998,0 22.557,0.009 1.056,0.002 2.237,0.324 2.644,0.713 2.955,2.839 5.908,5.672 8.918,8.52 0.411,0.389 -0.101,0.716 -1.158,0.714 -7.558,-0.006 -15.111,-0.008 -22.556,-0.008 -1.003,0 -2.24,-0.325 -2.644,-0.714 -2.965,-2.848 -5.918,-5.68 -8.929,-8.528 -0.402,-0.381 0.163,-0.706 1.168,-0.706 m 34.28,0.009 c -1.057,0 -1.564,0.324 -1.16,0.713 2.965,2.847 5.91,5.672 8.919,8.52 0.413,0.389 1.589,0.714 2.644,0.714 7.499,0 15.105,0.002 22.717,0.008 1.056,0.002 1.562,-0.326 1.158,-0.714 -2.955,-2.839 -5.91,-5.671 -8.919,-8.52 -0.412,-0.388 -1.589,-0.714 -2.644,-0.714 -7.604,0 -15.209,0 -22.715,-0.007 m 34.445,0.015 c 7.447,0 14.946,0.002 22.505,0.008 0.951,0.002 2.231,0.325 2.644,0.714 3.001,2.842 5.907,5.673 8.91,8.512 0.411,0.388 -0.155,0.713 -1.158,0.713 -7.551,0 -15.057,-0.007 -22.505,-0.007 -1.003,0 -2.179,-0.326 -2.59,-0.714 -3.003,-2.839 -5.956,-5.671 -8.911,-8.512 -0.404,-0.389 0.103,-0.714 1.105,-0.714 m 35.549,0.008 c -1.005,0 -1.572,0.325 -1.159,0.714 3.011,2.849 5.954,5.673 8.909,8.512 0.407,0.388 1.641,0.713 2.644,0.713 7.507,0.008 15.06,0.008 22.662,0.008 1.057,0 1.564,-0.324 1.158,-0.714 -2.944,-2.831 -5.945,-5.662 -8.908,-8.509 -0.407,-0.391 -1.589,-0.716 -2.643,-0.716 -7.606,0 -15.159,0 -22.663,-0.008 m 34.34,0.016 c 13.261,0.008 26.571,0.01 39.938,0.018 1.057,0 2.239,0.323 2.643,0.714 2.956,2.839 5.905,5.67 8.849,8.502 0.407,0.389 -0.101,0.714 -1.156,0.714 -13.308,0 -26.622,-0.009 -39.825,-0.009 -1.055,0 -2.232,-0.324 -2.645,-0.713 -3.001,-2.84 -5.953,-5.671 -8.908,-8.511 -0.407,-0.39 0.1,-0.715 1.104,-0.715 m 30.648,12.911 c -1.057,0 -1.569,0.322 -1.166,0.705 3.003,2.84 5.953,5.671 8.892,8.494 0.407,0.389 1.589,0.714 2.644,0.714 h 22.706 c 1.057,0 1.565,-0.325 1.169,-0.706 -2.947,-2.831 -5.9,-5.662 -8.894,-8.493 -0.412,-0.392 -1.578,-0.706 -2.636,-0.706 -7.558,-0.008 -15.164,-0.008 -22.715,-0.008 m -34.28,-0.009 c 7.499,0 15.059,0.009 22.556,0.009 1.057,0 2.234,0.322 2.636,0.705 2.995,2.832 5.956,5.671 8.895,8.494 0.405,0.389 -0.104,0.714 -1.159,0.714 h -22.549 c -1.056,0 -2.233,-0.325 -2.643,-0.714 -2.993,-2.831 -5.946,-5.662 -8.893,-8.494 -0.405,-0.391 0.102,-0.714 1.157,-0.714 m -34.279,-0.008 c -1.056,0 -1.569,0.323 -1.159,0.714 2.993,2.831 5.956,5.671 8.903,8.502 0.405,0.389 1.587,0.714 2.644,0.714 h 22.547 c 1.005,0 1.563,-0.325 1.158,-0.714 -2.947,-2.831 -5.899,-5.662 -8.9,-8.502 -0.404,-0.383 -1.633,-0.706 -2.636,-0.706 -7.499,0 -15.058,-0.008 -22.557,-0.008 m -35.707,-0.01 c 7.606,0 15.166,0.01 22.665,0.01 1.055,0 2.179,0.323 2.582,0.706 3.001,2.839 5.97,5.679 8.962,8.51 0.411,0.389 -0.109,0.706 -1.166,0.706 h -22.654 c -1.057,0 -2.239,-0.325 -2.645,-0.714 -2.946,-2.831 -5.945,-5.663 -8.9,-8.502 -0.406,-0.39 0.102,-0.716 1.156,-0.716 m -34.384,-0.007 c -1.056,0 -1.563,0.325 -1.158,0.715 2.954,2.839 5.911,5.679 8.857,8.51 0.407,0.389 1.589,0.714 2.643,0.714 h 22.655 c 1.057,0 1.563,-0.325 1.159,-0.714 -2.948,-2.831 -5.908,-5.671 -8.902,-8.502 -0.412,-0.39 -1.588,-0.716 -2.645,-0.716 -7.551,0 -15.11,-0.007 -22.609,-0.007 M 319.354,22.97 c 7.611,0.008 15.164,0.008 22.714,0.008 0.951,0 2.127,0.325 2.538,0.715 3.003,2.839 5.964,5.679 8.911,8.51 0.407,0.389 -0.102,0.714 -1.105,0.714 h -22.706 c -1.005,0 -2.188,-0.325 -2.592,-0.714 -2.955,-2.839 -5.91,-5.679 -8.865,-8.517 -0.406,-0.391 0.101,-0.716 1.105,-0.716 m -35.6,-0.008 c -1.058,0 -1.564,0.324 -1.159,0.714 2.965,2.848 5.92,5.688 8.875,8.527 0.405,0.389 1.589,0.714 2.643,0.714 h 22.549 c 1.057,0 1.564,-0.325 1.158,-0.714 -2.954,-2.839 -5.911,-5.679 -8.866,-8.517 -0.405,-0.391 -1.587,-0.716 -2.644,-0.716 -7.55,0 -15.103,0 -22.556,-0.008 m -34.333,-0.009 c 7.559,0.009 15.217,0.009 22.768,0.009 1.057,0 2.185,0.324 2.592,0.714 2.955,2.841 5.918,5.688 8.875,8.527 0.404,0.389 -0.051,0.716 -1.107,0.714 -7.611,-0.006 -15.217,-0.008 -22.768,-0.008 -1.056,0 -2.239,-0.325 -2.644,-0.714 -2.954,-2.84 -5.91,-5.678 -8.872,-8.528 -0.407,-0.389 0.099,-0.714 1.156,-0.714 m -34.386,-0.008 c -0.95,0 -1.51,0.326 -1.105,0.714 2.965,2.848 5.874,5.696 8.831,8.536 0.404,0.389 1.641,0.714 2.644,0.714 h 22.652 c 1.057,0 1.564,-0.325 1.161,-0.714 -2.955,-2.84 -5.91,-5.678 -8.877,-8.528 -0.403,-0.389 -1.587,-0.714 -2.644,-0.714 -7.549,0 -15.154,0 -22.662,-0.008 m -35.652,-0.008 c 7.453,0.008 15.059,0.008 22.664,0.008 1.003,0 2.237,0.326 2.643,0.714 2.963,2.848 5.874,5.696 8.829,8.536 0.405,0.389 -0.155,0.714 -1.158,0.714 h -22.654 c -1.055,0 -2.237,-0.325 -2.643,-0.714 -2.956,-2.84 -5.913,-5.688 -8.838,-8.544 -0.391,-0.38 0.101,-0.714 1.157,-0.714 m -34.165,0 c -1.056,0 -1.564,0.326 -1.158,0.714 2.963,2.848 5.921,5.697 8.83,8.537 0.406,0.396 1.596,0.721 2.651,0.721 h 22.444 c 1.055,0 1.556,-0.325 1.157,-0.714 -2.916,-2.847 -5.874,-5.696 -8.838,-8.544 -0.405,-0.388 -1.587,-0.714 -2.644,-0.714 z M 110.779,22.93 h 22.76 c 1.057,0 2.239,0.325 2.644,0.714 2.973,2.855 5.883,5.704 8.838,8.544 0.414,0.396 -0.093,0.721 -1.149,0.721 -7.657,0 -15.27,-0.008 -22.769,-0.008 -1.002,0 -2.238,-0.325 -2.644,-0.713 -2.954,-2.84 -5.873,-5.698 -8.837,-8.544 -0.405,-0.389 0.154,-0.714 1.157,-0.714 M 75.074,22.922 c -1.056,0 -1.562,0.325 -1.158,0.714 2.973,2.854 5.929,5.704 8.846,8.552 0.399,0.388 1.589,0.713 2.645,0.713 h 22.549 c 1.056,0 1.615,-0.325 1.21,-0.713 -2.964,-2.848 -5.92,-5.698 -8.847,-8.552 -0.398,-0.389 -1.64,-0.714 -2.643,-0.714 z M 23.571,22.905 c 13.21,0.009 26.465,0.009 39.771,0.009 1.057,0 2.254,0.333 2.654,0.722 2.917,2.846 5.882,5.704 8.846,8.552 0.405,0.388 -0.102,0.713 -1.157,0.713 H 33.92 c -1.055,0 -2.237,-0.325 -2.652,-0.722 -2.963,-2.847 -5.92,-5.697 -8.846,-8.551 -0.407,-0.398 0.093,-0.723 1.149,-0.723 M 37.028,35.888 H 93.9 c 1.057,0 2.231,0.315 2.644,0.714 2.981,2.863 5.892,5.711 8.855,8.559 0.413,0.397 -0.101,0.714 -1.158,0.714 -19.01,0 -37.959,0.008 -56.863,0.008 -1.057,0 -2.178,-0.317 -2.592,-0.714 -2.963,-2.849 -5.935,-5.704 -8.915,-8.567 -0.414,-0.399 0.101,-0.714 1.157,-0.714 m 68.542,0 c -1.003,0 -1.565,0.315 -1.157,0.714 2.934,2.863 5.891,5.711 8.855,8.559 0.413,0.397 1.641,0.714 2.644,0.714 7.499,0 15.041,-0.008 22.645,-0.008 1.057,0 1.571,-0.317 1.157,-0.714 -2.955,-2.84 -5.911,-5.688 -8.845,-8.551 -0.408,-0.399 -1.589,-0.714 -2.644,-0.714 z m 35.856,0 h 22.601 c 1.003,0 2.178,0.315 2.592,0.714 2.971,2.855 5.928,5.702 8.837,8.543 0.407,0.397 -0.103,0.712 -1.105,0.714 -7.491,0.006 -14.988,0.008 -22.593,0.008 -1.055,0 -2.23,-0.317 -2.644,-0.714 -2.954,-2.84 -5.866,-5.688 -8.846,-8.551 -0.414,-0.399 0.102,-0.714 1.158,-0.714 m 34.219,0 c -1.004,0 -1.514,0.315 -1.106,0.714 2.925,2.855 5.883,5.702 8.838,8.543 0.414,0.397 1.588,0.714 2.644,0.714 h 22.55 c 1.055,0 1.571,-0.317 1.156,-0.714 -2.955,-2.841 -5.918,-5.688 -8.891,-8.543 -0.412,-0.399 -1.533,-0.714 -2.589,-0.714 z m 34.269,0 h 22.655 c 1.005,0 2.185,0.315 2.592,0.714 2.927,2.855 5.874,5.694 8.829,8.536 0.414,0.396 -0.102,0.712 -1.105,0.712 -7.499,0 -15.05,0.002 -22.593,0.009 -1.003,0 -2.177,-0.317 -2.591,-0.714 -2.955,-2.841 -5.918,-5.688 -8.891,-8.543 -0.415,-0.399 0.102,-0.714 1.104,-0.714 m 35.75,0 c -1.056,0 -1.571,0.315 -1.156,0.714 2.971,2.855 5.926,5.694 8.881,8.536 0.415,0.396 1.589,0.712 2.644,0.712 7.501,0 15.095,-0.009 22.646,-0.009 1.057,0 1.625,-0.315 1.211,-0.714 -2.946,-2.831 -5.901,-5.67 -8.873,-8.525 -0.415,-0.399 -1.589,-0.714 -2.698,-0.714 z m 34.536,0 h 22.443 c 1.057,0 2.232,0.315 2.644,0.714 2.963,2.847 5.92,5.686 8.875,8.525 0.412,0.399 -0.103,0.714 -1.158,0.714 H 290.56 c -1.054,0 -2.283,-0.315 -2.697,-0.714 -2.945,-2.831 -5.894,-5.67 -8.821,-8.525 -0.407,-0.399 0.101,-0.714 1.158,-0.714 m 34.167,0 c -1.057,0 -1.573,0.315 -1.158,0.714 2.963,2.847 5.918,5.686 8.873,8.525 0.414,0.399 1.581,0.706 2.636,0.706 h 22.549 c 1.002,0 1.63,-0.314 1.21,-0.714 -2.994,-2.831 -5.955,-5.67 -8.919,-8.517 -0.412,-0.399 -1.641,-0.714 -2.644,-0.714 z m 35.696,0 h 22.549 c 1.055,0 2.23,0.315 2.644,0.714 2.963,2.847 5.864,5.678 8.857,8.509 0.42,0.399 -0.101,0.714 -1.159,0.714 -7.551,0 -15.041,0.008 -22.54,0.008 -0.949,0 -2.17,-0.314 -2.59,-0.714 -2.993,-2.831 -5.956,-5.67 -8.919,-8.517 -0.413,-0.399 0.155,-0.714 1.158,-0.714 m 34.271,0 c -1.057,0 -1.571,0.315 -1.158,0.714 2.965,2.847 5.964,5.678 8.91,8.509 0.415,0.399 1.588,0.714 2.644,0.714 7.551,0 15.102,0 22.752,-0.008 1.055,0 1.579,-0.307 1.166,-0.706 -2.946,-2.831 -5.955,-5.671 -8.91,-8.509 -0.415,-0.399 -1.589,-0.714 -2.644,-0.714 z m 34.482,0 h 22.497 c 1.003,0 2.229,0.315 2.644,0.714 2.955,2.838 5.908,5.67 8.9,8.502 0.421,0.398 -0.153,0.713 -1.158,0.713 h -22.495 c -1.003,0 -2.171,-0.315 -2.582,-0.706 -2.992,-2.831 -5.955,-5.671 -8.91,-8.509 -0.413,-0.399 0.05,-0.714 1.104,-0.714 m 35.539,0 c -1.003,0 -1.578,0.315 -1.159,0.714 3.003,2.838 5.956,5.67 8.904,8.502 0.414,0.398 1.642,0.715 2.643,0.713 7.491,-0.005 15.042,-0.007 22.647,-0.007 1.054,0 1.571,-0.316 1.156,-0.714 -2.937,-2.824 -5.938,-5.656 -8.893,-8.494 -0.413,-0.399 -1.587,-0.714 -2.643,-0.714 z m 34.325,0 h 39.815 c 1.057,0 2.232,0.315 2.644,0.714 2.957,2.838 5.894,5.663 8.833,8.486 0.413,0.398 -0.102,0.714 -1.159,0.714 -13.253,0 -26.501,0.008 -39.753,0.008 -1.057,0 -2.224,-0.316 -2.644,-0.714 -2.985,-2.824 -5.841,-5.656 -8.841,-8.494 -0.421,-0.399 0.048,-0.714 1.105,-0.714 m -3.623,12.908 c -1.109,0 -1.58,0.315 -1.166,0.706 2.992,2.831 5.885,5.654 8.839,8.494 0.413,0.399 1.65,0.724 2.707,0.724 18.948,-0.008 37.851,-0.01 56.855,-0.019 1.055,0 1.563,-0.322 1.141,-0.729 -2.956,-2.839 -5.895,-5.662 -8.824,-8.478 -0.415,-0.399 -1.588,-0.714 -2.643,-0.714 -19.056,0.006 -37.96,0.008 -56.909,0.016 m -34.263,0.008 c 7.499,0 15.042,-0.008 22.541,-0.008 1.003,0 2.223,0.315 2.644,0.714 2.984,2.823 5.927,5.646 8.884,8.486 0.421,0.406 -0.139,0.732 -1.142,0.732 -7.499,0 -15.048,0 -22.488,0.007 -1.054,0 -2.23,-0.325 -2.659,-0.731 -3.003,-2.84 -5.946,-5.663 -8.894,-8.494 -0.406,-0.391 0.057,-0.706 1.114,-0.706 m -35.689,0.009 c -1.056,0 -1.571,0.314 -1.166,0.705 2.947,2.832 5.894,5.663 8.849,8.503 0.413,0.398 1.648,0.722 2.706,0.722 7.551,0 15.153,-0.002 22.644,-0.008 1.054,-0.002 1.569,-0.325 1.15,-0.723 -3.011,-2.848 -5.955,-5.671 -8.895,-8.494 -0.412,-0.399 -1.586,-0.714 -2.641,-0.714 -7.501,0 -15.096,0.009 -22.647,0.009 m -34.473,0.007 c 7.543,-0.007 15.094,-0.007 22.698,-0.007 1.057,0 2.23,0.314 2.644,0.712 2.939,2.825 5.891,5.656 8.892,8.496 0.429,0.406 -0.084,0.731 -1.14,0.731 -7.605,0 -15.156,0 -22.699,0.008 -1.054,0 -2.239,-0.325 -2.651,-0.722 -2.965,-2.85 -5.918,-5.681 -8.911,-8.513 -0.41,-0.388 0.112,-0.705 1.167,-0.705 m -34.317,0.008 c -1.001,0 -1.517,0.317 -1.113,0.706 2.955,2.839 5.895,5.662 8.858,8.512 0.414,0.396 1.596,0.722 2.599,0.722 7.605,0 15.207,-0.002 22.75,-0.008 1.003,-0.002 1.518,-0.325 1.097,-0.722 -3.009,-2.85 -5.953,-5.673 -8.901,-8.504 -0.413,-0.397 -1.587,-0.714 -2.591,-0.714 -7.497,0 -15.102,0 -22.699,0.008 m -35.634,0.008 c 7.491,-0.008 15.04,-0.008 22.592,-0.008 1.055,0 2.229,0.317 2.644,0.714 2.947,2.831 5.893,5.662 8.849,8.504 0.422,0.404 -0.086,0.729 -1.143,0.729 -7.551,0 -15.094,0.008 -22.592,0.008 -1.054,0 -2.185,-0.325 -2.6,-0.721 -2.963,-2.85 -5.91,-5.681 -8.865,-8.52 -0.405,-0.389 0.058,-0.704 1.115,-0.706 m -34.325,0 c -1.054,0.002 -1.557,0.325 -1.158,0.714 2.908,2.841 5.85,5.673 8.813,8.519 0.415,0.398 1.596,0.722 2.651,0.722 7.551,0 15.208,0 22.805,-0.008 1.054,-0.002 1.51,-0.325 1.096,-0.721 -2.962,-2.85 -5.91,-5.681 -8.857,-8.512 -0.412,-0.397 -1.535,-0.714 -2.59,-0.714 -7.604,0 -15.217,-0.008 -22.76,0 m -34.42,0.008 h 22.652 c 1.057,0 2.231,0.317 2.644,0.714 2.947,2.833 5.902,5.672 8.857,8.511 0.423,0.406 -0.084,0.731 -1.141,0.731 -7.604,0 -15.147,0.008 -22.644,0.008 -1.005,0 -2.241,-0.326 -2.654,-0.722 -2.964,-2.848 -5.92,-5.687 -8.875,-8.528 -0.412,-0.397 0.156,-0.714 1.161,-0.714 m -35.69,0.008 c -1.057,0 -1.571,0.317 -1.149,0.721 2.955,2.842 5.848,5.673 8.813,8.521 0.413,0.396 1.595,0.721 2.652,0.721 7.497,0 15.102,0 22.646,-0.007 1.053,0 1.615,-0.326 1.201,-0.722 -2.963,-2.848 -5.91,-5.679 -8.865,-8.521 -0.415,-0.396 -1.641,-0.713 -2.644,-0.713 z m -34.21,0.008 h 22.496 c 1.055,0 2.23,0.317 2.644,0.713 2.954,2.842 5.856,5.681 8.813,8.521 0.42,0.406 -0.086,0.729 -1.143,0.729 -7.549,0 -15.04,0.008 -22.486,0.008 -1.055,0 -2.185,-0.323 -2.6,-0.722 -2.963,-2.846 -5.965,-5.686 -8.873,-8.527 -0.416,-0.405 0.093,-0.722 1.149,-0.722 m -34.421,0.01 c -1.003,0 -1.573,0.315 -1.15,0.72 2.955,2.841 5.858,5.68 8.821,8.527 0.414,0.4 1.65,0.724 2.653,0.724 7.499,0 15.101,-0.002 22.751,-0.01 1.056,0 1.563,-0.323 1.149,-0.722 -2.964,-2.846 -5.865,-5.686 -8.821,-8.527 -0.413,-0.397 -1.587,-0.712 -2.643,-0.712 z M 50.51,48.894 c 24.547,-0.008 49.304,-0.016 74.018,-0.016 1.003,0 2.236,0.314 2.643,0.712 2.91,2.841 5.858,5.68 8.831,8.535 0.413,0.399 -0.201,0.723 -1.204,0.725 -24.652,0.005 -49.409,0.015 -73.903,0.023 -1.055,0 -2.238,-0.325 -2.652,-0.722 -2.963,-2.849 -5.927,-5.696 -8.891,-8.544 -0.414,-0.398 0.102,-0.713 1.158,-0.713 M 63.994,61.85 c -1.056,0 -1.563,0.325 -1.157,0.713 2.963,2.85 5.857,5.681 8.804,8.512 0.405,0.39 1.58,0.706 2.635,0.706 18.852,0 37.748,-0.008 56.758,-0.008 1.057,0 1.564,-0.325 1.158,-0.713 -2.946,-2.831 -5.849,-5.673 -8.813,-8.52 -0.405,-0.389 -1.588,-0.714 -2.643,-0.714 -19.003,0.008 -37.951,0.016 -56.742,0.024 m 68.412,-0.024 c 7.491,-0.006 15.04,-0.008 22.645,-0.008 1.057,0 2.245,0.325 2.644,0.714 2.917,2.847 5.913,5.689 8.813,8.52 0.4,0.388 -0.165,0.704 -1.219,0.706 -7.544,0.006 -15.094,0.008 -22.593,0.008 -1.003,0 -2.23,-0.318 -2.636,-0.706 -2.946,-2.831 -5.895,-5.673 -8.812,-8.52 -0.399,-0.389 0.156,-0.714 1.158,-0.714 m 35.839,-0.015 c -1.057,0 -1.558,0.324 -1.159,0.712 2.917,2.848 5.866,5.689 8.822,8.529 0.397,0.381 1.579,0.706 2.636,0.706 7.603,0 15.1,-0.002 22.591,-0.008 1.055,-0.003 1.564,-0.325 1.167,-0.706 -2.955,-2.84 -5.904,-5.681 -8.821,-8.528 -0.399,-0.389 -1.589,-0.716 -2.644,-0.714 -7.491,0.006 -14.989,0.009 -22.592,0.009 m 34.262,-0.009 c 32.829,-0.016 65.662,-0.028 98.599,-0.042 32.728,-0.012 65.623,-0.016 98.503,-0.031 1.055,0 2.24,0.325 2.644,0.713 2.965,2.849 5.928,5.697 8.883,8.536 0.405,0.388 -0.094,0.721 -1.151,0.721 -32.827,0.017 -65.777,0.017 -98.508,0.027 -32.944,0.007 -65.833,0.015 -98.671,0.024 -1.057,0 -2.245,-0.325 -2.644,-0.714 -2.899,-2.832 -5.851,-5.673 -8.813,-8.52 -0.405,-0.389 0.104,-0.714 1.158,-0.714 m 208.826,-0.073 c -1.057,10e-4 -1.571,0.325 -1.158,0.713 3.009,2.849 5.979,5.697 8.934,8.536 0.405,0.388 1.589,0.713 2.644,0.713 7.553,0 15.155,0 22.752,-0.007 1.106,0 1.621,-0.326 1.211,-0.714 -3.001,-2.839 -5.972,-5.689 -8.935,-8.535 -0.405,-0.39 -1.59,-0.714 -2.698,-0.714 -7.603,0 -15.207,0.002 -22.75,0.008 m 34.519,-0.017 c 7.444,0 14.943,0 22.486,-0.008 1.003,0 2.239,0.325 2.643,0.714 2.965,2.848 5.981,5.696 8.946,8.544 0.404,0.389 -0.156,0.714 -1.159,0.714 -7.545,0.008 -15.041,0.008 -22.487,0.008 -1.003,0 -2.181,-0.326 -2.592,-0.714 -3.01,-2.847 -5.98,-5.697 -8.943,-8.544 -0.406,-0.389 0.048,-0.714 1.106,-0.714 m 35.53,-0.008 c -1.003,0 -1.572,0.325 -1.158,0.714 3.008,2.848 5.979,5.696 8.944,8.544 0.404,0.389 1.639,0.714 2.642,0.714 7.499,0 15.042,-0.008 22.646,-0.008 1.057,0 1.569,-0.325 1.158,-0.714 -3.01,-2.848 -5.979,-5.696 -8.944,-8.544 -0.404,-0.389 -1.587,-0.714 -2.644,-0.714 -7.604,0 -15.153,0 -22.644,0.008 m 34.306,-0.016 c 13.202,0 26.447,-0.009 39.695,-0.015 1.054,-0.002 2.236,0.322 2.643,0.714 2.963,2.846 5.988,5.704 8.953,8.551 0.405,0.389 -0.104,0.713 -1.159,0.713 -13.247,0.009 -26.501,0.009 -39.694,0.017 -1.055,0 -2.239,-0.325 -2.644,-0.714 -2.963,-2.848 -5.941,-5.705 -8.952,-8.552 -0.411,-0.39 0.102,-0.714 1.158,-0.714"
         style="fill:#948681;fill-opacity:1;fill-rule:evenodd;stroke:none"
         transform="matrix(1.3333333,0,0,-1.3333333,80.278667,749.2852)"
         clip-path="url(#clipPath25)" />
      <path
         id="path26"
         d="M 0,0 H 337.964 L 426.163,-434.839 412.136,-451.671 0,-439.812 Z"
         style="fill:#766864;fill-opacity:1;fill-rule:evenodd;stroke:none"
         transform="matrix(1.3333333,0,0,-1.3333333,1.5325333,216.3796)"
         clip-path="url(#clipPath27)" />
      <path
         id="path28"
         d="m 0,0 h 323.937 l 88.199,-434.839 H 0 Z"
         style="fill:#463d3b;fill-opacity:1;fill-rule:evenodd;stroke:none"
         transform="matrix(1.3333333,0,0,-1.3333333,1.5325333,238.82227)"
         clip-path="url(#clipPath29)" />
      <path
         id="path30"
         d="M 0,0 16.573,-89.429 H -42.228 Z"
         style="fill:#2f2825;fill-opacity:1;fill-rule:evenodd;stroke:none"
         transform="matrix(1.3333333,0,0,-1.3333333,190.95707,699.36973)"
         clip-path="url(#clipPath31)" />
      <path
         id="path32"
         d="M 0,0 H 111.427 L 131.042,57.575 142.068,0 124.566,-135.982 H 0 Z"
         style="fill:#766864;fill-opacity:1;fill-rule:evenodd;stroke:none"
         transform="matrix(1.3333333,0,0,-1.3333333,1.5325333,699.36973)"
         clip-path="url(#clipPath33)" />
      <path
         id="path34"
         d="M 0,0 H 131.042 L 106.13,-193.557 H 0 Z"
         style="fill:#948681;fill-opacity:1;fill-rule:evenodd;stroke:none"
         transform="matrix(1.3333333,0,0,-1.3333333,1.5325333,622.6028)"
         clip-path="url(#clipPath35)" />
      <path
         id="path36"
         d="M 0,0 V -57.995 L 5.635,-85.772 H 17.397 Z M 17.626,33.667 41.852,-85.772 H 30.088 L 5.863,33.667 Z m 24.454,0 H 30.317 L 54.542,-85.772 h 11.763 z m 24.454,0 24.225,-119.439 H 78.996 L 54.77,33.667 Z m 24.453,0 H 79.224 L 103.45,-85.772 h 11.763 z m 24.454,0 24.225,-119.439 H 127.904 L 103.677,33.667 Z m 24.454,0 h -11.764 l 24.226,-119.439 h 11.764 z m 24.453,0 24.226,-119.439 H 176.811 L 152.585,33.667 Z m 24.455,0 h -11.764 l 24.226,-119.439 h 11.763 z m 24.453,0 24.226,-119.439 H 225.719 L 201.493,33.667 Z m 24.453,0 h -11.763 l 24.227,-119.439 h 11.763 z m 48.909,0 h -11.764 l 24.228,-119.439 h 11.761 z m -24.455,0 24.226,-119.439 H 274.626 L 250.4,33.667 Z"
         style="fill:#2f2825;fill-opacity:1;fill-rule:evenodd;stroke:none"
         transform="matrix(1.3333333,0,0,-1.3333333,1.5325333,351.43613)"
         clip-path="url(#clipPath37)" />
      <path
         id="path38"
         d="m 0,0 h 162.929 l 4.444,-23.889 c 2.446,-13.136 -6.302,-23.885 -19.442,-23.885 H 32.776 c -13.139,0 -25.887,10.749 -28.332,23.885 z"
         style="fill:#2f2825;fill-opacity:1;fill-rule:evenodd;stroke:none"
         transform="matrix(1.3333333,0,0,-1.3333333,217.14067,672.42573)"
         clip-path="url(#clipPath39)" />
      <path
         id="path40"
         d="m 0,0 h 24.5 v -26.49 l -6.584,-6.584 H 6.584 L 0,-26.49 Z"
         style="fill:#b2a29e;fill-opacity:1;fill-rule:evenodd;stroke:none"
         transform="matrix(1.3333333,0,0,-1.3333333,260.42707,672.42573)"
         clip-path="url(#clipPath41)" />
      <path
         id="path42"
         d="m 201.903,-0.509 h 11.332 v 123.115 h -11.332 z"
         style="fill:#f2eae9;fill-opacity:1;fill-rule:evenodd;stroke:none"
         transform="matrix(1.3333333,0,0,-1.3333333,0,880)"
         clip-path="url(#clipPath43)" />
      <path
         id="path44"
         d="m 0,0 h 24.5 v -26.49 l -6.584,-6.584 H 6.583 L 0,-26.49 Z"
         style="fill:#b2a29e;fill-opacity:1;fill-rule:evenodd;stroke:none"
         transform="matrix(1.3333333,0,0,-1.3333333,312.664,672.42573)"
         clip-path="url(#clipPath45)" />
      <path
         id="path46"
         d="m 241.081,-0.509 h 11.331 v 123.115 h -11.331 z"
         style="fill:#f2eae9;fill-opacity:1;fill-rule:evenodd;stroke:none"
         transform="matrix(1.3333333,0,0,-1.3333333,0,880)"
         clip-path="url(#clipPath47)" />
      <path
         id="path48"
         d="M 361.923,558.716 H 42.19 v 101.07 h 319.733 z"
         style="fill:#ffffff;fill-opacity:1;fill-rule:evenodd;stroke:none"
         transform="matrix(1.3333333,0,0,-1.3333333,0,880)"
         clip-path="url(#clipPath49)" />
      <path
         id="path50"
         d="M 355.187,565.453 H 48.926 v 94.333 h 306.261 z"
         style="fill:#d7c9c4;fill-opacity:1;fill-rule:evenodd;stroke:none"
         transform="matrix(1.3333333,0,0,-1.3333333,0,880)"
         clip-path="url(#clipPath51)" />
      <path
         id="path52"
         d="M 330.077,590.564 H 74.038 v 69.222 h 256.039 z"
         style="fill:#766864;fill-opacity:1;fill-rule:evenodd;stroke:none"
         transform="matrix(1.3333333,0,0,-1.3333333,0,880)"
         clip-path="url(#clipPath53)" />
    </g>
  </g>
</svg>
