<?xml version="1.0" encoding="UTF-8" standalone="no"?>
<!-- Created with Inkscape (http://www.inkscape.org/) -->

<svg
   version="1.1"
   id="svg1"
   width="880"
   height="880"
   viewBox="0 0 880 880"
   sodipodi:docname="hand-of-zombies.svg"
   inkscape:version="1.3.2 (091e20e, 2023-11-25, custom)"
   xmlns:inkscape="http://www.inkscape.org/namespaces/inkscape"
   xmlns:sodipodi="http://sodipodi.sourceforge.net/DTD/sodipodi-0.dtd"
   xmlns="http://www.w3.org/2000/svg"
   xmlns:svg="http://www.w3.org/2000/svg">
  <defs
     id="defs1">
    <clipPath
       clipPathUnits="userSpaceOnUse"
       id="clipPath4">
      <path
         d="M 0,660 H 660 V 0 H 0 Z"
         transform="translate(-330.35941,-114.624)"
         id="path4" />
    </clipPath>
    <clipPath
       clipPathUnits="userSpaceOnUse"
       id="clipPath6">
      <path
         d="M 0,660 H 660 V 0 H 0 Z"
         transform="translate(-330.35941,-147.3594)"
         id="path6" />
    </clipPath>
    <clipPath
       clipPathUnits="userSpaceOnUse"
       id="clipPath8">
      <path
         d="M 0,660 H 660 V 0 H 0 Z"
         transform="translate(-556.06541,-384.46041)"
         id="path8" />
    </clipPath>
    <clipPath
       clipPathUnits="userSpaceOnUse"
       id="clipPath10">
      <path
         d="M 0,660 H 660 V 0 H 0 Z"
         transform="translate(-426.22951,-223.2988)"
         id="path10" />
    </clipPath>
    <clipPath
       clipPathUnits="userSpaceOnUse"
       id="clipPath12">
      <path
         d="M 0,660 H 660 V 0 H 0 Z"
         transform="translate(-659.71001,-143.5723)"
         id="path12" />
    </clipPath>
    <clipPath
       clipPathUnits="userSpaceOnUse"
       id="clipPath14">
      <path
         d="M 0,660 H 660 V 0 H 0 Z"
         transform="translate(-351.24121,-184.7803)"
         id="path14" />
    </clipPath>
    <clipPath
       clipPathUnits="userSpaceOnUse"
       id="clipPath16">
      <path
         d="M 0,660 H 660 V 0 H 0 Z"
         transform="translate(-189.81741,-443.16501)"
         id="path16" />
    </clipPath>
    <clipPath
       clipPathUnits="userSpaceOnUse"
       id="clipPath18">
      <path
         d="M 0,660 H 660 V 0 H 0 Z"
         transform="translate(-282.835,-561.90532)"
         id="path18" />
    </clipPath>
    <clipPath
       clipPathUnits="userSpaceOnUse"
       id="clipPath20">
      <path
         d="M 0,660 H 660 V 0 H 0 Z"
         transform="translate(-491.47271,-468.01461)"
         id="path20" />
    </clipPath>
    <clipPath
       clipPathUnits="userSpaceOnUse"
       id="clipPath22">
      <path
         d="M 0,660 H 660 V 0 H 0 Z"
         transform="translate(-471.61041,-366.72171)"
         id="path22" />
    </clipPath>
    <clipPath
       clipPathUnits="userSpaceOnUse"
       id="clipPath24">
      <path
         d="M 0,660 H 660 V 0 H 0 Z"
         transform="translate(-227.27491,-267.5635)"
         id="path24" />
    </clipPath>
    <clipPath
       clipPathUnits="userSpaceOnUse"
       id="clipPath26">
      <path
         d="M 0,660 H 660 V 0 H 0 Z"
         transform="translate(-354.55181,-423.92331)"
         id="path26" />
    </clipPath>
    <clipPath
       clipPathUnits="userSpaceOnUse"
       id="clipPath28">
      <path
         d="M 0,660 H 660 V 0 H 0 Z"
         transform="translate(-351.24121,-184.7803)"
         id="path28" />
    </clipPath>
    <clipPath
       clipPathUnits="userSpaceOnUse"
       id="clipPath30">
      <path
         d="M 0,660 H 660 V 0 H 0 Z"
         transform="translate(-257.38531,-173.3115)"
         id="path30" />
    </clipPath>
    <clipPath
       clipPathUnits="userSpaceOnUse"
       id="clipPath32">
      <path
         d="M 0,660 H 660 V 0 H 0 Z"
         transform="translate(-401.59381,-182.9746)"
         id="path32" />
    </clipPath>
  </defs>
  <sodipodi:namedview
     id="namedview1"
     pagecolor="#ffffff"
     bordercolor="#000000"
     borderopacity="0.25"
     inkscape:showpageshadow="2"
     inkscape:pageopacity="0.0"
     inkscape:pagecheckerboard="0"
     inkscape:deskcolor="#d1d1d1"
     inkscape:zoom="0.67272727"
     inkscape:cx="439.25676"
     inkscape:cy="440"
     inkscape:window-width="1440"
     inkscape:window-height="830"
     inkscape:window-x="-6"
     inkscape:window-y="-6"
     inkscape:window-maximized="1"
     inkscape:current-layer="g1">
    <inkscape:page
       x="0"
       y="0"
       inkscape:label="1"
       id="page1"
       width="880"
       height="880"
       margin="0.86586535 0.38666666 0.86266667 1.34172"
       bleed="0" />
  </sodipodi:namedview>
  <g
     id="g1"
     inkscape:groupmode="layer"
     inkscape:label="1">
    <g
       id="group-MC0">
      <path
         id="path2"
         d="M 1.006,0.65 H 659.71 V 659.353 H 1.006 Z"
         style="fill:#39424e;fill-opacity:1;fill-rule:nonzero;stroke:none"
         transform="matrix(1.3333333,0,0,-1.3333333,0,880)" />
      <path
         id="path3"
         d="m 0,0 c 142.496,0 258.716,116.221 258.716,258.717 0,142.497 -116.22,258.717 -258.716,258.717 -142.497,0 -258.717,-116.22 -258.717,-258.717 C -258.717,116.221 -142.497,0 0,0"
         style="fill:#424d5a;fill-opacity:1;fill-rule:evenodd;stroke:none"
         transform="matrix(1.3333333,0,0,-1.3333333,440.4792,727.168)"
         clip-path="url(#clipPath4)" />
      <path
         id="path5"
         d="M 0,0 C 124.466,0 225.98,101.515 225.98,225.982 225.98,350.448 124.466,451.963 0,451.963 -124.467,451.963 -225.982,350.448 -225.982,225.982 -225.982,101.515 -124.467,0 0,0"
         style="fill:#cbd8e6;fill-opacity:1;fill-rule:evenodd;stroke:none"
         transform="matrix(1.3333333,0,0,-1.3333333,440.4792,683.5208)"
         clip-path="url(#clipPath6)" />
      <path
         id="path7"
         d="m 0,0 c 0.18,-3.685 0.274,-7.391 0.274,-11.119 0,-45.584 -13.507,-88.005 -36.723,-123.506 -26.259,3.705 -58.097,11.106 -96.662,23.288 -82.126,25.944 -90.59,-42.65 -252.403,-21.671 -7.946,1.031 -16.814,-1.517 -26.683,-5.755 -16.071,23.438 -27.836,50.054 -34.164,78.717 10.407,4.157 22.13,9.955 35.352,17.754 72.273,42.637 146.284,-32.673 270.481,25.96 C -79.144,12.646 -45.853,11.421 0,0 m -82.651,163.815 c 28.37,-23.227 50.984,-53.218 65.386,-87.508 -20.696,-5.936 -51.68,-7.751 -95.472,-2.456 -24.828,3.002 -89.033,-49.623 -164.676,-49.623 -130.187,0 -74.629,22.302 -171.791,-1.782 4.798,32.212 16.386,62.206 33.272,88.473 25.728,-8.311 51.758,-11.131 73.969,10.33 62.965,60.839 68.863,-29.056 227.532,34.465 10.769,4.31 21.442,6.902 31.78,8.101"
         style="fill:#bacddc;fill-opacity:1;fill-rule:evenodd;stroke:none"
         transform="matrix(1.3333333,0,0,-1.3333333,741.42053,367.38613)"
         clip-path="url(#clipPath8)" />
      <path
         id="path9"
         d="m 0,0 c 8.999,-18.836 1.936,-41.011 -15.774,-49.525 -17.71,-8.516 -39.364,-0.148 -48.364,18.69 -8.999,18.836 -1.936,41.011 15.775,49.525 C -30.652,27.207 -8.999,18.839 0,0"
         style="fill:#a3b7c7;fill-opacity:1;fill-rule:evenodd;stroke:none"
         transform="matrix(1.3333333,0,0,-1.3333333,568.306,582.26827)"
         clip-path="url(#clipPath10)" />
      <path
         id="path11"
         d="M 0,0 V -142.923 H -658.703 V 0 c 88.951,50.511 203.857,80.971 329.351,80.971 C -203.858,80.971 -88.95,50.511 0,0"
         style="fill:#1b1c1e;fill-opacity:1;fill-rule:evenodd;stroke:none"
         transform="matrix(1.3333333,0,0,-1.3333333,879.61333,688.57027)"
         clip-path="url(#clipPath12)" />
      <path
         id="path13"
         d="m 0,0 -8.615,79.161 c -0.871,8.005 1.31,15.213 6.469,21.395 3.653,4.373 5.85,9.253 6.811,15.067 l 0.15,0.902 c 1.228,7.436 0.09,14.189 -3.507,20.811 l -0.701,1.293 c -1.605,2.949 -2.517,5.722 -2.982,9.047 l -1.604,11.503 -2.09,-0.891 c -4.989,-2.124 -7.978,-6.892 -7.717,-12.308 l 0.331,-6.887 0.631,-8.074 c 0.085,-1.085 -0.249,-2.049 -0.987,-2.847 -0.027,-0.029 -0.055,-0.058 -0.082,-0.085 -0.616,-0.631 -1.4,-0.924 -2.277,-0.856 -0.879,0.072 -1.605,0.487 -2.113,1.205 l -10.331,14.635 -10.612,17.813 -3.049,9.381 c -1.091,3.359 -2.238,6.245 -3.705,9.297 -1.46,3.042 -4.595,4.715 -7.935,4.238 l -3.882,-0.554 0.854,-3.682 c 1.092,-4.701 1.795,-8.786 2.325,-13.54 0.711,-6.363 2.382,-11.686 5.432,-17.315 l 4.085,-7.532 -16.39,8.338 -4.454,12.886 0.563,8.947 c 0.264,4.177 -2.433,7.864 -6.493,8.879 l -0.703,0.176 -5.685,-17.813 0.189,2.523 c 0.222,2.969 -1.638,5.617 -4.507,6.414 l -1.936,0.538 -2.747,-15.729 3.884,-17.434 16.471,-13.851 -12.302,-1.118 -6.442,8.905 -0.379,7.959 h -7.391 l -0.799,-11.994 c -0.101,-1.506 0.219,-2.828 0.999,-4.122 l 5.764,-9.563 c 0.938,-1.555 2.361,-2.522 4.152,-2.82 l 7.637,-1.274 c 2.18,-0.362 3.925,-1.459 5.2,-3.264 l 12.182,-17.258 c 4.336,-6.144 6.472,-12.534 6.702,-20.05 l 2.506,-82.202 z"
         style="fill:#1b1c1e;fill-opacity:1;fill-rule:evenodd;stroke:none"
         transform="matrix(1.3333333,0,0,-1.3333333,468.3216,633.62627)"
         clip-path="url(#clipPath14)" />
      <path
         id="path15"
         d="m 0,0 c 21.616,0 37.549,-17.887 35.586,-39.953 -1.963,-22.064 -21.079,-39.951 -42.695,-39.951 -21.618,0 -37.55,17.887 -35.586,39.951 C -40.733,-17.887 -21.617,0 0,0"
         style="fill:#a3b7c7;fill-opacity:1;fill-rule:evenodd;stroke:none"
         transform="matrix(1.3333333,0,0,-1.3333333,253.08987,289.11333)"
         clip-path="url(#clipPath16)" />
      <path
         id="path17"
         d="M 0,0 C 15.249,0 26.486,-9.602 25.101,-21.446 23.717,-33.29 10.233,-42.892 -5.015,-42.892 c -15.247,0 -26.486,9.602 -25.101,21.446 C -28.732,-9.602 -15.248,0 0,0"
         style="fill:#a3b7c7;fill-opacity:1;fill-rule:evenodd;stroke:none"
         transform="matrix(1.3333333,0,0,-1.3333333,377.11333,130.79293)"
         clip-path="url(#clipPath18)" />
      <path
         id="path19"
         d="m 0,0 c 8.735,-12.498 7.301,-27.21 -3.199,-32.859 -10.502,-5.651 -26.097,-0.098 -34.83,12.4 -8.735,12.498 -7.302,27.21 3.198,32.86 C -24.329,18.05 -8.734,12.499 0,0"
         style="fill:#a3b7c7;fill-opacity:1;fill-rule:evenodd;stroke:none"
         transform="matrix(1.3333333,0,0,-1.3333333,655.29693,255.98053)"
         clip-path="url(#clipPath20)" />
      <path
         id="path21"
         d="m 0,0 c -7.419,20.304 -29.687,29.131 -49.738,19.715 -20.052,-9.416 -30.292,-33.509 -22.874,-53.813 7.417,-20.304 29.685,-29.13 49.738,-19.715 C -2.824,-44.397 7.418,-20.305 0,0"
         style="fill:#a3b7c7;fill-opacity:1;fill-rule:evenodd;stroke:none"
         transform="matrix(1.3333333,0,0,-1.3333333,628.81387,391.03773)"
         clip-path="url(#clipPath22)" />
      <path
         id="path23"
         d="m 0,0 c 7.814,-11.183 6.533,-24.343 -2.862,-29.398 -9.395,-5.053 -23.346,-0.086 -31.16,11.094 -7.814,11.181 -6.532,24.343 2.862,29.397 C -21.765,16.147 -7.814,11.181 0,0"
         style="fill:#a3b7c7;fill-opacity:1;fill-rule:evenodd;stroke:none"
         transform="matrix(1.3333333,0,0,-1.3333333,303.0332,523.24867)"
         clip-path="url(#clipPath24)" />
      <path
         id="path25"
         d="m 0,0 c 5.011,-10.488 1.078,-22.834 -8.783,-27.575 -9.861,-4.741 -21.918,-0.082 -26.927,10.406 -5.012,10.488 -1.08,22.834 8.782,27.575 C -17.066,15.148 -5.011,10.488 0,0"
         style="fill:#a3b7c7;fill-opacity:1;fill-rule:evenodd;stroke:none"
         transform="matrix(1.3333333,0,0,-1.3333333,472.73573,314.76893)"
         clip-path="url(#clipPath26)" />
      <path
         id="path27"
         d="m 0,0 -8.615,79.161 c -0.871,8.005 1.31,15.213 6.469,21.395 3.653,4.373 5.85,9.253 6.811,15.067 l 0.15,0.902 c 1.228,7.436 0.09,14.189 -3.507,20.811 l -0.701,1.293 c -1.605,2.949 -2.517,5.722 -2.982,9.047 l -1.604,11.503 -2.09,-0.891 c -4.989,-2.124 -7.978,-6.892 -7.717,-12.308 l 0.331,-6.887 0.631,-8.074 c 0.085,-1.085 -0.249,-2.049 -0.987,-2.847 -0.027,-0.029 -0.055,-0.058 -0.082,-0.085 -0.616,-0.631 -1.4,-0.924 -2.277,-0.856 -0.879,0.072 -1.605,0.487 -2.113,1.205 l -10.331,14.635 -10.612,17.813 -3.049,9.381 c -1.091,3.359 -2.238,6.245 -3.705,9.297 -1.46,3.042 -4.595,4.715 -7.935,4.238 l -3.882,-0.554 0.854,-3.682 c 1.092,-4.701 1.795,-8.786 2.325,-13.54 0.711,-6.363 2.382,-11.686 5.432,-17.315 l 4.085,-7.532 -16.39,8.338 -4.454,12.886 0.563,8.947 c 0.264,4.177 -2.433,7.864 -6.493,8.879 l -0.703,0.176 -5.685,-17.813 0.189,2.523 c 0.222,2.969 -1.638,5.617 -4.507,6.414 l -1.936,0.538 -2.747,-15.729 3.884,-17.434 16.471,-13.851 -12.302,-1.118 -6.442,8.905 -0.379,7.959 h -7.391 l -0.799,-11.994 c -0.101,-1.506 0.219,-2.828 0.999,-4.122 l 5.764,-9.563 c 0.938,-1.555 2.361,-2.522 4.152,-2.82 l 7.637,-1.274 c 2.18,-0.362 3.925,-1.459 5.2,-3.264 l 12.182,-17.258 c 4.336,-6.144 6.472,-12.534 6.702,-20.05 l 2.506,-82.202 z"
         style="fill:#1b1c1e;fill-opacity:1;fill-rule:evenodd;stroke:none"
         transform="matrix(1.3333333,0,0,-1.3333333,468.3216,633.62627)"
         clip-path="url(#clipPath28)" />
      <path
         id="path29"
         d="m 0,0 -5.751,52.849 c -0.582,5.344 0.873,10.157 4.318,14.285 2.438,2.918 3.906,6.176 4.547,10.057 l 0.1,0.603 c 0.82,4.964 0.06,9.472 -2.342,13.894 L 0.404,92.55 c -1.07,1.97 -1.679,3.821 -1.989,6.042 l -1.072,7.679 -1.395,-0.594 c -3.331,-1.42 -5.326,-4.603 -5.153,-8.218 l 0.223,-4.599 0.42,-5.391 c 0.057,-0.724 -0.167,-1.367 -0.66,-1.9 -0.017,-0.019 -0.035,-0.038 -0.053,-0.056 -0.412,-0.42 -0.934,-0.617 -1.521,-0.571 -0.586,0.047 -1.072,0.324 -1.411,0.804 l -6.897,9.771 -7.084,11.892 -2.035,6.262 c -0.729,2.243 -1.495,4.17 -2.473,6.207 -0.977,2.03 -3.068,3.147 -5.299,2.829 l -2.591,-0.371 0.57,-2.457 c 0.729,-3.138 1.198,-5.866 1.553,-9.04 0.474,-4.246 1.589,-7.801 3.626,-11.558 l 2.727,-5.029 -10.944,5.566 -2.972,8.602 0.377,5.974 c 0.175,2.788 -1.625,5.251 -4.336,5.927 l -0.469,0.119 -3.796,-11.893 0.126,1.685 c 0.149,1.983 -1.092,3.75 -3.008,4.282 l -1.292,0.358 -1.835,-10.5 2.594,-11.639 10.996,-9.248 -8.213,-0.746 -4.302,5.947 -0.253,5.312 h -4.934 l -0.533,-8.008 c -0.068,-1.006 0.146,-1.887 0.667,-2.751 l 3.849,-6.385 c 0.625,-1.038 1.575,-1.684 2.771,-1.883 l 5.098,-0.849 c 1.456,-0.243 2.622,-0.974 3.472,-2.18 l 8.133,-11.521 c 2.895,-4.101 4.321,-8.368 4.475,-13.386 l 1.672,-54.878 z"
         style="fill:#1b1c1e;fill-opacity:1;fill-rule:evenodd;stroke:none"
         transform="matrix(1.3333333,0,0,-1.3333333,343.1804,648.918)"
         clip-path="url(#clipPath30)" />
      <path
         id="path31"
         d="m 0,0 5.751,52.85 c 0.582,5.344 -0.874,10.157 -4.318,14.283 -2.439,2.92 -3.907,6.178 -4.548,10.057 l -0.099,0.604 c -0.82,4.965 -0.061,9.474 2.341,13.893 l 0.469,0.865 c 1.069,1.969 1.679,3.819 1.99,6.039 l 1.07,7.678 1.396,-0.593 c 3.33,-1.418 5.326,-4.601 5.152,-8.218 L 8.982,92.86 8.561,87.471 c -0.057,-0.724 0.168,-1.369 0.66,-1.902 0.017,-0.018 0.036,-0.038 0.054,-0.056 0.411,-0.421 0.934,-0.617 1.521,-0.57 0.585,0.047 1.071,0.323 1.41,0.803 l 6.898,9.771 7.083,11.892 2.036,6.263 c 0.729,2.241 1.495,4.169 2.473,6.206 0.976,2.032 3.068,3.148 5.298,2.83 l 2.592,-0.37 -0.57,-2.458 c -0.73,-3.139 -1.199,-5.865 -1.553,-9.039 -0.474,-4.249 -1.589,-7.802 -3.627,-11.56 l -2.726,-5.029 10.943,5.566 2.973,8.604 -0.378,5.972 c -0.173,2.79 1.625,5.25 4.336,5.929 l 0.47,0.116 3.795,-11.89 -0.127,1.683 c -0.147,1.982 1.094,3.751 3.01,4.282 l 1.292,0.359 1.834,-10.499 -2.593,-11.641 -10.996,-9.247 8.213,-0.747 4.302,5.947 0.252,5.313 h 4.933 l 0.535,-8.007 c 0.068,-1.006 -0.146,-1.887 -0.668,-2.753 l -3.847,-6.383 c -0.626,-1.039 -1.576,-1.685 -2.773,-1.883 l -5.098,-0.851 c -1.457,-0.243 -2.621,-0.974 -3.472,-2.18 L 38.914,60.42 C 36.018,56.319 34.593,52.053 34.439,47.034 L 32.767,-7.843 Z"
         style="fill:#1b1c1e;fill-opacity:1;fill-rule:evenodd;stroke:none"
         transform="matrix(1.3333333,0,0,-1.3333333,535.4584,636.03387)"
         clip-path="url(#clipPath32)" />
    </g>
  </g>
</svg>
