<?xml version="1.0" encoding="UTF-8" standalone="no"?>
<!-- Created with Inkscape (http://www.inkscape.org/) -->

<svg
   version="1.1"
   id="svg1"
   width="880"
   height="880"
   viewBox="0 0 880 880"
   sodipodi:docname="snowing-in-mountain-forest.svg"
   inkscape:version="1.3.2 (091e20e, 2023-11-25, custom)"
   xmlns:inkscape="http://www.inkscape.org/namespaces/inkscape"
   xmlns:sodipodi="http://sodipodi.sourceforge.net/DTD/sodipodi-0.dtd"
   xmlns="http://www.w3.org/2000/svg"
   xmlns:svg="http://www.w3.org/2000/svg">
  <defs
     id="defs1">
    <clipPath
       clipPathUnits="userSpaceOnUse"
       id="clipPath40">
      <path
         d="M 0,660 H 660 V 0 H 0 Z"
         transform="translate(-1.0649001,-367.27441)"
         id="path40" />
    </clipPath>
    <clipPath
       clipPathUnits="userSpaceOnUse"
       id="clipPath42">
      <path
         d="M 0,660 H 660 V 0 H 0 Z"
         transform="translate(-191.5518,-439.65331)"
         id="path42" />
    </clipPath>
    <clipPath
       clipPathUnits="userSpaceOnUse"
       id="clipPath44">
      <path
         d="M 0,660 H 660 V 0 H 0 Z"
         transform="translate(-247.50681,-139.5244)"
         id="path44" />
    </clipPath>
    <clipPath
       clipPathUnits="userSpaceOnUse"
       id="clipPath46">
      <path
         d="M 0,660 H 660 V 0 H 0 Z"
         transform="translate(-221.96191,-276.54391)"
         id="path46" />
    </clipPath>
    <clipPath
       clipPathUnits="userSpaceOnUse"
       id="clipPath48">
      <path
         d="M 0,660 H 660 V 0 H 0 Z"
         transform="translate(-191.5518,-439.65331)"
         id="path48" />
    </clipPath>
    <clipPath
       clipPathUnits="userSpaceOnUse"
       id="clipPath50">
      <path
         d="M 0,660 H 660 V 0 H 0 Z"
         transform="translate(-240.99121,-174.4746)"
         id="path50" />
    </clipPath>
    <clipPath
       clipPathUnits="userSpaceOnUse"
       id="clipPath52">
      <path
         d="M 0,660 H 660 V 0 H 0 Z"
         transform="translate(-218.48541,-295.1914)"
         id="path52" />
    </clipPath>
    <clipPath
       clipPathUnits="userSpaceOnUse"
       id="clipPath54">
      <path
         d="M 0,660 H 660 V 0 H 0 Z"
         transform="translate(-586.71581,-491.26031)"
         id="path54" />
    </clipPath>
    <clipPath
       clipPathUnits="userSpaceOnUse"
       id="clipPath56">
      <path
         d="M 0,660 H 660 V 0 H 0 Z"
         transform="translate(-642.67091,-191.13381)"
         id="path56" />
    </clipPath>
    <clipPath
       clipPathUnits="userSpaceOnUse"
       id="clipPath58">
      <path
         d="M 0,660 H 660 V 0 H 0 Z"
         transform="translate(-617.12702,-328.15331)"
         id="path58" />
    </clipPath>
    <clipPath
       clipPathUnits="userSpaceOnUse"
       id="clipPath60">
      <path
         d="M 0,660 H 660 V 0 H 0 Z"
         transform="translate(-586.71581,-491.26031)"
         id="path60" />
    </clipPath>
    <clipPath
       clipPathUnits="userSpaceOnUse"
       id="clipPath62">
      <path
         d="M 0,660 H 660 V 0 H 0 Z"
         transform="translate(-636.15632,-226.08301)"
         id="path62" />
    </clipPath>
    <clipPath
       clipPathUnits="userSpaceOnUse"
       id="clipPath64">
      <path
         d="M 0,660 H 660 V 0 H 0 Z"
         transform="translate(-613.64942,-346.79881)"
         id="path64" />
    </clipPath>
    <clipPath
       clipPathUnits="userSpaceOnUse"
       id="clipPath66">
      <path
         d="M 0,660 H 660 V 0 H 0 Z"
         transform="translate(-521.89451,-456.35891)"
         id="path66" />
    </clipPath>
    <clipPath
       clipPathUnits="userSpaceOnUse"
       id="clipPath68">
      <path
         d="M 0,660 H 660 V 0 H 0 Z"
         transform="translate(-577.84961,-156.22851)"
         id="path68" />
    </clipPath>
    <clipPath
       clipPathUnits="userSpaceOnUse"
       id="clipPath70">
      <path
         d="M 0,660 H 660 V 0 H 0 Z"
         transform="translate(-552.30571,-293.248)"
         id="path70" />
    </clipPath>
    <clipPath
       clipPathUnits="userSpaceOnUse"
       id="clipPath72">
      <path
         d="M 0,660 H 660 V 0 H 0 Z"
         transform="translate(-521.89451,-456.35891)"
         id="path72" />
    </clipPath>
    <clipPath
       clipPathUnits="userSpaceOnUse"
       id="clipPath74">
      <path
         d="M 0,660 H 660 V 0 H 0 Z"
         transform="translate(-571.33501,-191.1787)"
         id="path74" />
    </clipPath>
    <clipPath
       clipPathUnits="userSpaceOnUse"
       id="clipPath76">
      <path
         d="M 0,660 H 660 V 0 H 0 Z"
         transform="translate(-548.82811,-311.89751)"
         id="path76" />
    </clipPath>
    <clipPath
       clipPathUnits="userSpaceOnUse"
       id="clipPath78">
      <path
         d="M 0,660 H 660 V 0 H 0 Z"
         transform="translate(-121.97901,-562.76861)"
         id="path78" />
    </clipPath>
    <clipPath
       clipPathUnits="userSpaceOnUse"
       id="clipPath80">
      <path
         d="M 0,660 H 660 V 0 H 0 Z"
         transform="translate(-195.3066,-169.459)"
         id="path80" />
    </clipPath>
    <clipPath
       clipPathUnits="userSpaceOnUse"
       id="clipPath82">
      <path
         d="M 0,660 H 660 V 0 H 0 Z"
         transform="translate(-161.8296,-349.01811)"
         id="path82" />
    </clipPath>
    <clipPath
       clipPathUnits="userSpaceOnUse"
       id="clipPath84">
      <path
         d="M 0,660 H 660 V 0 H 0 Z"
         transform="translate(-121.97901,-562.76861)"
         id="path84" />
    </clipPath>
    <clipPath
       clipPathUnits="userSpaceOnUse"
       id="clipPath86">
      <path
         d="M 0,660 H 660 V 0 H 0 Z"
         transform="translate(-186.76761,-215.26171)"
         id="path86" />
    </clipPath>
    <clipPath
       clipPathUnits="userSpaceOnUse"
       id="clipPath88">
      <path
         d="M 0,660 H 660 V 0 H 0 Z"
         transform="translate(-157.2739,-373.45651)"
         id="path88" />
    </clipPath>
    <clipPath
       clipPathUnits="userSpaceOnUse"
       id="clipPath90">
      <path
         d="M 0,660 H 660 V 0 H 0 Z"
         transform="translate(-660.49022,-233.89261)"
         id="path90" />
    </clipPath>
    <clipPath
       clipPathUnits="userSpaceOnUse"
       id="clipPath92">
      <path
         d="M 0,660 H 660 V 0 H 0 Z"
         transform="translate(-24.871101,-328.25101)"
         id="path92" />
    </clipPath>
    <clipPath
       clipPathUnits="userSpaceOnUse"
       id="clipPath94">
      <path
         d="M 0,660 H 660 V 0 H 0 Z"
         transform="translate(-27.775401,9.9750003e-4)"
         id="path94" />
    </clipPath>
    <clipPath
       clipPathUnits="userSpaceOnUse"
       id="clipPath96">
      <path
         d="M 0,660 H 660 V 0 H 0 Z"
         transform="translate(-64.721702,-114.502)"
         id="path96" />
    </clipPath>
    <clipPath
       clipPathUnits="userSpaceOnUse"
       id="clipPath98">
      <path
         d="M 0,660 H 660 V 0 H 0 Z"
         transform="translate(-24.871101,-328.25101)"
         id="path98" />
    </clipPath>
    <clipPath
       clipPathUnits="userSpaceOnUse"
       id="clipPath100">
      <path
         d="M 0,660 H 660 V 0 H 0 Z"
         transform="translate(-81.027805,-27.041003)"
         id="path100" />
    </clipPath>
    <clipPath
       clipPathUnits="userSpaceOnUse"
       id="clipPath102">
      <path
         d="M 0,660 H 660 V 0 H 0 Z"
         transform="translate(-60.165502,-138.9385)"
         id="path102" />
    </clipPath>
    <clipPath
       clipPathUnits="userSpaceOnUse"
       id="clipPath104">
      <path
         d="M 0,660 H 660 V 0 H 0 Z"
         transform="translate(-598.36432,9.9750003e-4)"
         id="path104" />
    </clipPath>
    <clipPath
       clipPathUnits="userSpaceOnUse"
       id="clipPath106">
      <path
         d="M 0,660 H 660 V 0 H 0 Z"
         transform="translate(-620.70611,9.9750003e-4)"
         id="path106" />
    </clipPath>
    <clipPath
       clipPathUnits="userSpaceOnUse"
       id="clipPath108">
      <path
         d="M 0,660 H 660 V 0 H 0 Z"
         transform="translate(-660.49022,-171.6973)"
         id="path108" />
    </clipPath>
    <clipPath
       clipPathUnits="userSpaceOnUse"
       id="clipPath110">
      <path
         d="M 0,660 H 660 V 0 H 0 Z"
         transform="translate(-185.0869,-598.18801)"
         id="path110" />
    </clipPath>
  </defs>
  <sodipodi:namedview
     id="namedview1"
     pagecolor="#ffffff"
     bordercolor="#000000"
     borderopacity="0.25"
     inkscape:showpageshadow="2"
     inkscape:pageopacity="0.0"
     inkscape:pagecheckerboard="0"
     inkscape:deskcolor="#d1d1d1"
     inkscape:zoom="0.67272727"
     inkscape:cx="439.25676"
     inkscape:cy="440"
     inkscape:window-width="1440"
     inkscape:window-height="830"
     inkscape:window-x="-6"
     inkscape:window-y="-6"
     inkscape:window-maximized="1"
     inkscape:current-layer="g1">
    <inkscape:page
       x="0"
       y="0"
       inkscape:label="1"
       id="page1"
       width="880"
       height="880"
       margin="0 0 0.76266664 1.4186667"
       bleed="0" />
  </sodipodi:namedview>
  <g
     id="g1"
     inkscape:groupmode="layer"
     inkscape:label="1">
    <g
       id="group-MC0">
      <path
         id="path2"
         d="M 0,0 V -199.606 -659.428 H 658.936 V 0 Z"
         style="fill:#9cceff;fill-opacity:1;fill-rule:nonzero;stroke:none"
         transform="matrix(1.3333333,0,0,-1.3333333,1.4184,0.7624)" />
      <path
         id="path3"
         d="m 0,0 3.773,-20.242 -2.207,-0.94 2.335,0.258 4.37,-23.44 -6.161,-3.904 6.592,1.591 2.966,-15.902 -8.196,-4.946 8.596,2.795 5.167,-27.719 H 0 -17.235 l 1.483,7.952 9.832,-3.512 -9.329,6.216 3.683,19.749 5.577,-2.079 -5.326,3.427 2.699,14.474 0.842,4.52 4.302,-1.461 -4.033,2.91 3.108,16.671 2.9,-1.069 -2.76,1.81 z"
         style="fill:#5fa6ed;fill-opacity:1;fill-rule:evenodd;stroke:none"
         transform="matrix(1.3333333,0,0,-1.3333333,617.16533,291.58853)" />
      <path
         id="path4"
         d="M 0,0 -28.526,18.767 -30.225,9.66 -5.574,-6.56 h 6.797 z m -2.411,12.938 1.542,-8.275 -26.978,17.746 0.268,1.437 5.577,-2.08 -5.326,3.427 0.686,3.684 15.082,-9.921 -0.981,-0.592 1.26,0.409 z"
         style="fill:#85c2ff;fill-opacity:1;fill-rule:evenodd;stroke:none"
         transform="matrix(1.3333333,0,0,-1.3333333,638.5156,406.10747)" />
      <path
         id="path5"
         d="m 0,0 0.303,-1.617 -1.879,1.236 z m -1.871,10.039 -12.169,8.004 -1.698,-9.107 12.635,-8.315 2.672,1.692 z m -2.412,12.936 1.542,-8.273 -10.619,6.987 0.261,1.406 2.9,-1.069 -2.76,1.81 0.804,4.317 z"
         style="fill:#85c2ff;fill-opacity:1;fill-rule:evenodd;stroke:none"
         transform="matrix(1.3333333,0,0,-1.3333333,628.76827,353.82427)" />
      <path
         id="path6"
         d="m 0,0 3.773,-20.242 -2.207,-0.94 2.335,0.258 4.37,-23.44 -6.161,-3.904 6.592,1.591 2.966,-15.902 -8.196,-4.946 8.596,2.795 5.167,-27.719 -17.235,0 z"
         style="fill:#4a92d9;fill-opacity:1;fill-rule:evenodd;stroke:none"
         transform="matrix(1.3333333,0,0,-1.3333333,617.16533,291.58853)" />
      <path
         id="path7"
         d="m 0,0 -14.149,-9.307 v -7.253 h 4.52 l 11.325,7.455 z m -1.887,10.112 1.207,-6.468 -13.469,-8.86 v 7.261 z"
         style="fill:#5fa6ed;fill-opacity:1;fill-rule:evenodd;stroke:none"
         transform="matrix(1.3333333,0,0,-1.3333333,636.0312,392.77347)" />
      <path
         id="path8"
         d="m 0,0 -7.708,-5.072 v -10.226 l 9.406,6.189 -0.704,3.773 -6.592,-1.591 6.161,3.904 z M -1.885,10.11 -0.68,3.644 -7.708,-0.982 V 6.28 Z"
         style="fill:#5fa6ed;fill-opacity:1;fill-rule:evenodd;stroke:none"
         transform="matrix(1.3333333,0,0,-1.3333333,627.44267,346.7096)" />
      <path
         id="path9"
         d="m 0,0 8.032,-5.269 -8.436,3.111 -9.045,-48.516 11.739,-8.464 -12.524,4.252 -2.453,-13.161 -7.852,-42.117 15.501,-9.975 -16.234,6.05 -10.714,-57.466 27.146,-18.098 -28.613,10.225 -4.314,-23.137 h 50.159 27.121 v 78.061 l -17.02,-5.536 17.02,10.271 V -79 l -1.796,9.633 -19.188,-4.626 17.932,11.361 L 23.745,5.58 16.948,4.831 23.374,7.564 12.392,66.471 Z"
         style="fill:#5fa6ed;fill-opacity:1;fill-rule:nonzero;stroke:none"
         transform="matrix(1.3333333,0,0,-1.3333333,827.316,222.9796)" />
      <path
         id="path10"
         d="m 0,0 15.501,-9.975 -16.234,6.051 -0.776,-4.172 61.561,-40.503 v 21.13 l -13.355,8.787 -3.665,-1.194 2.858,1.726 -43.891,28.874 z m -8.428,-45.208 68.48,-45.052 v 29.76 l -63.539,41.802 z"
         style="fill:#85c2ff;fill-opacity:1;fill-rule:nonzero;stroke:none"
         transform="matrix(1.3333333,0,0,-1.3333333,799.9308,369.8656)" />
      <path
         id="path11"
         d="m 0,0 8.032,-5.269 -8.436,3.111 -0.762,-4.094 30.907,-20.332 -4.49,24.08 -22.908,15.073 z m -8.086,-43.361 36.774,-24.195 7.773,4.924 -4.189,22.48 -35.415,23.297 z m 41.211,-27.114 5.468,-3.596 -0.876,4.704 z"
         style="fill:#85c2ff;fill-opacity:1;fill-rule:nonzero;stroke:none"
         transform="matrix(1.3333333,0,0,-1.3333333,827.316,222.9796)" />
      <path
         id="path12"
         d="m 0,0 h 27.121 v 78.06 l -17.02,-5.535 17.02,10.271 v 40.769 l -1.796,9.632 -19.188,-4.626 17.932,11.362 -12.716,68.212 -6.797,-0.749 6.426,2.732 L 0,269.036 Z"
         style="fill:#4a92d9;fill-opacity:1;fill-rule:nonzero;stroke:none"
         transform="matrix(1.3333333,0,0,-1.3333333,843.8388,493.066)" />
      <path
         id="path13"
         d="m 0,0 v -21.128 l 27.121,17.842 v 21.128 z m 0,-33.033 v -21.104 h 13.151 l 13.97,9.189 v 29.757 z"
         style="fill:#5fa6ed;fill-opacity:1;fill-rule:nonzero;stroke:none"
         transform="matrix(1.3333333,0,0,-1.3333333,843.8388,420.8836)" />
      <path
         id="path14"
         d="m 0,0 v -21.128 l 20.454,13.455 -3.511,18.819 z m 0,-33.03 v -29.76 l 27.121,17.842 v 1.512 l -1.796,9.631 -19.188,-4.626 17.932,11.362 -1.639,8.793 z"
         style="fill:#5fa6ed;fill-opacity:1;fill-rule:nonzero;stroke:none"
         transform="matrix(1.3333333,0,0,-1.3333333,843.8388,270.3964)" />
      <path
         id="path15"
         d="m 0,0 5.609,-30.089 -3.282,-1.393 3.471,0.381 6.497,-34.84 -9.159,-5.803 9.8,2.364 4.407,-23.637 -12.184,-7.353 12.777,4.158 7.682,-41.2 H 0 -25.617 l 2.203,11.817 14.612,-5.222 -13.863,9.243 5.472,29.352 8.29,-3.089 -7.917,5.092 4.011,21.514 1.254,6.722 6.395,-2.173 -5.995,4.321 4.622,24.782 4.306,-1.589 -4.104,2.692 z"
         style="fill:#5fa6ed;fill-opacity:1;fill-rule:evenodd;stroke:none"
         transform="matrix(1.3333333,0,0,-1.3333333,452.85813,298.06707)" />
      <path
         id="path16"
         d="m 0,0 -42.402,27.896 -2.524,-13.54 36.64,-24.103 H 1.817 Z m -3.585,19.23 2.292,-12.299 -40.099,26.38 0.398,2.132 8.29,-3.09 -7.917,5.092 1.023,5.478 22.415,-14.746 -1.459,-0.882 1.872,0.611 z"
         style="fill:#85c2ff;fill-opacity:1;fill-rule:evenodd;stroke:none"
         transform="matrix(1.3333333,0,0,-1.3333333,484.5924,468.2864)" />
      <path
         id="path17"
         d="m 0,0 0.446,-2.404 -2.791,1.838 z M -2.781,14.922 -20.869,26.82 -23.393,13.281 -4.611,0.925 l 3.97,2.514 z m -3.585,19.23 2.292,-12.301 -15.786,10.386 0.391,2.09 4.307,-1.589 -4.105,2.693 1.198,6.419 z"
         style="fill:#85c2ff;fill-opacity:1;fill-rule:evenodd;stroke:none"
         transform="matrix(1.3333333,0,0,-1.3333333,470.10547,390.57427)" />
      <path
         id="path18"
         d="m 0,0 5.609,-30.089 -3.282,-1.393 3.471,0.381 6.497,-34.84 -9.159,-5.803 9.8,2.364 4.407,-23.637 -12.184,-7.353 12.777,4.158 7.682,-41.2 H 0 Z"
         style="fill:#4a92d9;fill-opacity:1;fill-rule:evenodd;stroke:none"
         transform="matrix(1.3333333,0,0,-1.3333333,452.85813,298.06707)" />
      <path
         id="path19"
         d="m 0,0 -21.029,-13.837 v -10.778 h 6.719 l 16.833,11.076 z m -2.8,15.028 1.791,-9.615 -20.02,-13.168 v 10.79 z"
         style="fill:#5fa6ed;fill-opacity:1;fill-rule:evenodd;stroke:none"
         transform="matrix(1.3333333,0,0,-1.3333333,480.8972,448.46227)" />
      <path
         id="path20"
         d="m 0,0 -11.457,-7.536 v -15.2 l 13.98,9.197 -1.044,5.608 -9.8,-2.364 9.159,5.803 z M -2.802,15.03 -1.011,5.417 -11.457,-1.457 V 9.335 Z"
         style="fill:#5fa6ed;fill-opacity:1;fill-rule:evenodd;stroke:none"
         transform="matrix(1.3333333,0,0,-1.3333333,468.13413,379.99933)" />
      <path
         id="path21"
         d="m 0,0 7.771,-41.688 -4.549,-1.933 4.813,0.531 8.998,-48.271 -12.689,-8.041 13.577,3.273 6.105,-32.751 -16.88,-10.185 17.708,5.758 10.642,-57.083 H 0 -35.496 l 3.054,16.375 20.248,-7.236 -19.209,12.806 7.58,40.67 11.488,-4.282 -10.969,7.057 5.555,29.806 1.737,9.315 8.862,-3.011 -8.306,5.99 6.401,34.335 5.971,-2.204 -5.685,3.731 z"
         style="fill:#5fa6ed;fill-opacity:1;fill-rule:evenodd;stroke:none"
         transform="matrix(1.3333333,0,0,-1.3333333,395.53973,276.8776)" />
      <path
         id="path22"
         d="m 0,0 -58.749,38.65 -3.498,-18.759 50.766,-33.398 H 2.518 Z m -4.969,26.645 3.177,-17.043 -55.559,36.551 0.55,2.954 11.488,-4.281 -10.968,7.057 1.414,7.59 31.06,-20.433 -2.025,-1.222 2.597,0.844 z"
         style="fill:#85c2ff;fill-opacity:1;fill-rule:evenodd;stroke:none"
         transform="matrix(1.3333333,0,0,-1.3333333,439.50973,512.72133)" />
      <path
         id="path23"
         d="m 0,0 0.621,-3.328 -3.87,2.545 z m -3.853,20.674 -25.063,16.487 -3.496,-18.759 26.023,-17.12 5.5,3.486 z m -4.969,26.644 3.177,-17.043 -21.873,14.391 0.542,2.898 5.971,-2.204 -5.686,3.731 1.656,8.893 z"
         style="fill:#85c2ff;fill-opacity:1;fill-rule:evenodd;stroke:none"
         transform="matrix(1.3333333,0,0,-1.3333333,419.43493,405.04947)" />
      <path
         id="path24"
         d="m 0,0 7.771,-41.688 -4.549,-1.933 4.813,0.531 8.998,-48.271 -12.689,-8.041 13.577,3.273 6.105,-32.751 -16.88,-10.185 17.708,5.758 10.642,-57.083 H 0 Z"
         style="fill:#4a92d9;fill-opacity:1;fill-rule:evenodd;stroke:none"
         transform="matrix(1.3333333,0,0,-1.3333333,395.53973,276.8776)" />
      <path
         id="path25"
         d="m 0,0 -29.137,-19.169 v -14.935 h 9.308 l 23.325,15.347 z m -3.881,20.825 2.483,-13.32 -27.739,-18.25 V 4.208 Z"
         style="fill:#5fa6ed;fill-opacity:1;fill-rule:evenodd;stroke:none"
         transform="matrix(1.3333333,0,0,-1.3333333,434.38933,485.25907)" />
      <path
         id="path26"
         d="m 0,0 -15.874,-10.442 v -21.06 l 19.37,12.743 -1.449,7.769 -13.577,-3.273 12.689,8.04 z M -3.883,20.823 -1.4,7.505 -15.874,-2.018 v 14.953 z"
         style="fill:#5fa6ed;fill-opacity:1;fill-rule:evenodd;stroke:none"
         transform="matrix(1.3333333,0,0,-1.3333333,416.70507,390.39587)" />
      <path
         id="path27"
         d="m 0,0 10.983,-58.909 -6.429,-2.731 6.798,0.749 12.718,-68.212 -17.931,-11.359 19.187,4.621 8.628,-46.275 -23.854,-14.397 25.019,8.14 15.04,-80.665 H 0 -50.158 l 4.313,23.138 28.613,-10.225 -27.145,18.097 10.714,57.468 16.233,-6.05 -15.502,9.974 7.853,42.118 2.454,13.164 12.523,-4.257 -11.739,8.465 9.046,48.518 8.436,-3.112 -8.034,5.269 z"
         style="fill:#5fa6ed;fill-opacity:1;fill-rule:evenodd;stroke:none"
         transform="matrix(1.3333333,0,0,-1.3333333,84.072933,138.4824)" />
      <path
         id="path28"
         d="m 0,0 -83.017,54.614 -4.941,-26.506 71.735,-47.196 H 3.559 Z m -7.019,37.65 4.489,-24.083 -78.51,51.65 0.777,4.173 16.233,-6.05 -15.501,9.974 2,10.723 43.89,-28.873 -2.858,-1.727 3.667,1.195 z"
         style="fill:#85c2ff;fill-opacity:1;fill-rule:evenodd;stroke:none"
         transform="matrix(1.3333333,0,0,-1.3333333,146.20573,471.74867)" />
      <path
         id="path29"
         d="m 0,0 0.876,-4.703 -5.467,3.598 z M -5.446,29.216 -40.861,52.514 -45.802,26.006 -9.028,1.814 -1.256,6.738 Z m -7.02,37.653 4.489,-24.083 -30.907,20.333 0.763,4.094 8.436,-3.112 -8.033,5.269 2.342,12.569 z"
         style="fill:#85c2ff;fill-opacity:1;fill-rule:evenodd;stroke:none"
         transform="matrix(1.3333333,0,0,-1.3333333,117.84053,319.60347)" />
      <path
         id="path30"
         d="m 0,0 10.983,-58.909 -6.429,-2.731 6.798,0.749 12.718,-68.212 -17.931,-11.359 19.187,4.621 8.628,-46.275 -23.854,-14.397 25.019,8.14 15.04,-80.665 H 0 Z"
         style="fill:#4a92d9;fill-opacity:1;fill-rule:evenodd;stroke:none"
         transform="matrix(1.3333333,0,0,-1.3333333,84.072933,138.4824)" />
      <path
         id="path31"
         d="m 0,0 -41.173,-27.088 v -21.106 h 13.152 L 4.941,-26.51 Z m -5.485,29.423 3.508,-18.82 -39.196,-25.788 V 5.944 Z"
         style="fill:#5fa6ed;fill-opacity:1;fill-rule:evenodd;stroke:none"
         transform="matrix(1.3333333,0,0,-1.3333333,138.97067,432.94013)" />
      <path
         id="path32"
         d="m 0,0 -22.431,-14.756 v -29.758 l 27.372,18.007 -2.046,10.976 -19.187,-4.622 17.931,11.36 z m -5.486,29.425 3.509,-18.82 -20.454,-13.458 v 21.129 z"
         style="fill:#5fa6ed;fill-opacity:1;fill-rule:evenodd;stroke:none"
         transform="matrix(1.3333333,0,0,-1.3333333,113.98053,298.8952)" />
      <path
         id="path33"
         d="m 0,0 10.982,-58.909 -6.429,-2.732 6.797,0.75 12.718,-68.213 -17.93,-11.36 19.186,4.623 8.627,-46.277 -23.853,-14.395 25.02,8.138 15.038,-80.662 H 0 -50.16 l 4.313,23.137 28.614,-10.225 -27.145,18.097 10.715,57.468 16.23,-6.049 -15.5,9.971 7.854,42.12 2.453,13.162 12.522,-4.255 -11.737,8.465 9.045,48.517 8.436,-3.113 -8.033,5.271 z"
         style="fill:#5fa6ed;fill-opacity:1;fill-rule:evenodd;stroke:none"
         transform="matrix(1.3333333,0,0,-1.3333333,747.24213,86.126267)" />
      <path
         id="path34"
         d="m 0,0 -83.019,54.616 -4.942,-26.508 71.738,-47.193 h 19.78 z m -7.02,37.65 4.49,-24.083 -78.512,51.652 0.779,4.173 16.231,-6.05 -15.5,9.972 2,10.725 43.888,-28.875 -2.858,-1.725 3.668,1.193 z"
         style="fill:#85c2ff;fill-opacity:1;fill-rule:evenodd;stroke:none"
         transform="matrix(1.3333333,0,0,-1.3333333,809.37507,419.3952)" />
      <path
         id="path35"
         d="m 0,0 0.877,-4.703 -5.468,3.598 z M -5.447,29.216 -40.861,52.514 -45.802,26.007 -9.028,1.814 -1.256,6.736 Z m -7.018,37.651 4.487,-24.081 -30.906,20.331 0.764,4.094 8.435,-3.112 -8.032,5.271 2.342,12.568 z"
         style="fill:#85c2ff;fill-opacity:1;fill-rule:evenodd;stroke:none"
         transform="matrix(1.3333333,0,0,-1.3333333,781.00787,267.24733)" />
      <path
         id="path36"
         d="m 0,0 10.982,-58.909 -6.429,-2.732 6.797,0.75 12.718,-68.213 -17.93,-11.36 19.186,4.623 8.627,-46.277 -23.853,-14.395 25.02,8.138 15.038,-80.662 H 0 Z"
         style="fill:#4a92d9;fill-opacity:1;fill-rule:evenodd;stroke:none"
         transform="matrix(1.3333333,0,0,-1.3333333,747.24213,86.126267)" />
      <path
         id="path37"
         d="m 0,0 -41.172,-27.09 v -21.104 h 13.151 L 4.94,-26.509 Z m -5.485,29.423 3.509,-18.82 -39.196,-25.787 V 5.945 Z"
         style="fill:#5fa6ed;fill-opacity:1;fill-rule:evenodd;stroke:none"
         transform="matrix(1.3333333,0,0,-1.3333333,802.138,380.584)" />
      <path
         id="path38"
         d="m 0,0 -22.43,-14.756 v -29.76 l 27.37,18.009 -2.045,10.976 -19.187,-4.624 17.931,11.36 z M -5.486,29.423 -1.977,10.603 -22.43,-2.852 v 21.128 z"
         style="fill:#5fa6ed;fill-opacity:1;fill-rule:evenodd;stroke:none"
         transform="matrix(1.3333333,0,0,-1.3333333,777.1484,246.53907)" />
      <path
         id="path39"
         d="M 0,0 V -233.892 H 659.425 V 8.31 C 584.088,24.891 505.97,15.688 434.622,-19.074 291.256,-88.921 133.816,-81.544 0,0"
         style="fill:#bdddfc;fill-opacity:1;fill-rule:evenodd;stroke:none"
         transform="matrix(1.3333333,0,0,-1.3333333,1.4198667,390.3008)"
         clip-path="url(#clipPath40)" />
      <path
         id="path41"
         d="m 0,0 13.188,-70.736 -7.719,-3.278 8.162,0.898 15.271,-81.905 -21.531,-13.641 23.039,5.553 10.36,-55.57 -28.642,-17.282 30.043,9.772 18.057,-96.856 H 0 -60.227 l 5.179,27.781 34.357,-12.276 -32.594,21.73 12.864,69.002 19.492,-7.263 -18.613,11.974 9.428,50.575 2.947,15.804 15.038,-5.108 -14.095,10.163 10.86,58.257 10.131,-3.737 -9.647,6.328 z"
         style="fill:#536069;fill-opacity:1;fill-rule:evenodd;stroke:none"
         transform="matrix(1.3333333,0,0,-1.3333333,255.4024,293.7956)"
         clip-path="url(#clipPath42)" />
      <path
         id="path43"
         d="m 0,0 -99.684,65.58 -5.933,-31.829 86.138,-56.667 H 4.273 Z m -8.429,45.21 5.392,-28.918 -94.272,62.019 0.934,5.01 19.491,-7.263 -18.613,11.974 2.401,12.879 52.701,-34.674 -3.432,-2.069 4.404,1.433 z"
         style="fill:#6d7b85;fill-opacity:1;fill-rule:evenodd;stroke:none"
         transform="matrix(1.3333333,0,0,-1.3333333,330.00907,693.96747)"
         clip-path="url(#clipPath44)" />
      <path
         id="path45"
         d="m 0,0 1.052,-5.648 -6.565,4.319 z m -6.54,35.082 -42.524,27.972 -5.934,-31.827 44.157,-29.05 9.333,5.912 z m -8.429,45.208 5.392,-28.918 -37.113,24.414 0.916,4.918 10.13,-3.738 -9.646,6.328 2.813,15.091 z"
         style="fill:#6d7b85;fill-opacity:1;fill-rule:evenodd;stroke:none"
         transform="matrix(1.3333333,0,0,-1.3333333,295.9492,511.2748)"
         clip-path="url(#clipPath46)" />
      <path
         id="path47"
         d="m 0,0 13.188,-70.736 -7.719,-3.278 8.162,0.898 15.271,-81.905 -21.531,-13.641 23.039,5.553 10.36,-55.57 -28.642,-17.282 30.043,9.772 18.057,-96.856 H 0 Z"
         style="fill:#3d4a52;fill-opacity:1;fill-rule:evenodd;stroke:none"
         transform="matrix(1.3333333,0,0,-1.3333333,255.4024,293.7956)"
         clip-path="url(#clipPath48)" />
      <path
         id="path49"
         d="m 0,0 -49.439,-32.525 v -25.341 h 15.794 L 5.934,-31.827 Z M -6.587,35.331 -2.374,12.732 -49.439,-18.231 V 7.14 Z"
         style="fill:#536069;fill-opacity:1;fill-rule:evenodd;stroke:none"
         transform="matrix(1.3333333,0,0,-1.3333333,321.3216,647.3672)"
         clip-path="url(#clipPath50)" />
      <path
         id="path51"
         d="m 0,0 -26.934,-17.718 v -35.733 l 32.868,21.622 -2.457,13.182 -23.039,-5.553 21.53,13.641 z m -6.587,35.332 4.213,-22.6 -24.56,-16.157 v 25.369 z"
         style="fill:#536069;fill-opacity:1;fill-rule:evenodd;stroke:none"
         transform="matrix(1.3333333,0,0,-1.3333333,291.31387,486.41147)"
         clip-path="url(#clipPath52)" />
      <path
         id="path53"
         d="m 0,0 13.188,-70.735 -7.718,-3.279 8.162,0.901 15.269,-81.907 -21.53,-13.643 23.04,5.556 10.36,-55.569 -28.642,-17.284 30.042,9.77 18.057,-96.855 H 0 -60.226 l 5.18,27.784 34.356,-12.28 -32.595,21.73 12.865,69.005 19.492,-7.264 -18.613,11.975 9.429,50.574 2.945,15.804 15.038,-5.107 -14.095,10.162 10.862,58.256 10.13,-3.737 -9.648,6.33 z"
         style="fill:#536069;fill-opacity:1;fill-rule:evenodd;stroke:none"
         transform="matrix(1.3333333,0,0,-1.3333333,782.28773,224.98627)"
         clip-path="url(#clipPath54)" />
      <path
         id="path55"
         d="m 0,0 -99.684,65.578 -5.932,-31.829 86.137,-56.668 H 4.272 Z m -8.428,45.208 5.391,-28.916 -94.273,62.019 0.935,5.009 19.492,-7.263 -18.613,11.974 2.4,12.878 52.7,-34.672 -3.43,-2.071 4.402,1.433 z"
         style="fill:#6d7b85;fill-opacity:1;fill-rule:evenodd;stroke:none"
         transform="matrix(1.3333333,0,0,-1.3333333,856.89453,625.15493)"
         clip-path="url(#clipPath56)" />
      <path
         id="path57"
         d="m 0,0 1.051,-5.648 -6.566,4.317 z m -6.541,35.08 -42.524,27.974 -5.934,-31.829 44.157,-29.05 9.332,5.912 z m -8.428,45.207 5.391,-28.915 -37.113,24.413 0.918,4.916 10.129,-3.737 -9.647,6.33 2.814,15.091 z"
         style="fill:#6d7b85;fill-opacity:1;fill-rule:evenodd;stroke:none"
         transform="matrix(1.3333333,0,0,-1.3333333,822.836,442.46227)"
         clip-path="url(#clipPath58)" />
      <path
         id="path59"
         d="m 0,0 13.188,-70.735 -7.718,-3.279 8.162,0.901 15.269,-81.907 -21.53,-13.643 23.04,5.556 10.36,-55.569 -28.642,-17.284 30.042,9.77 18.057,-96.855 H 0 Z"
         style="fill:#3d4a52;fill-opacity:1;fill-rule:evenodd;stroke:none"
         transform="matrix(1.3333333,0,0,-1.3333333,782.28773,224.98627)"
         clip-path="url(#clipPath60)" />
      <path
         id="path61"
         d="m 0,0 -49.441,-32.524 v -25.344 h 15.793 l 39.581,26.039 z m -6.588,35.332 4.214,-22.603 -47.067,-30.96 V 7.138 Z"
         style="fill:#536069;fill-opacity:1;fill-rule:evenodd;stroke:none"
         transform="matrix(1.3333333,0,0,-1.3333333,848.2084,578.556)"
         clip-path="url(#clipPath62)" />
      <path
         id="path63"
         d="m 0,0 -26.934,-17.716 v -35.733 l 32.869,21.622 -2.457,13.181 -23.04,-5.555 21.53,13.642 z m -6.586,35.331 4.212,-22.598 -24.56,-16.158 v 25.371 z"
         style="fill:#536069;fill-opacity:1;fill-rule:evenodd;stroke:none"
         transform="matrix(1.3333333,0,0,-1.3333333,818.1992,417.6016)"
         clip-path="url(#clipPath64)" />
      <path
         id="path65"
         d="m 0,0 13.189,-70.735 -7.719,-3.281 8.163,0.899 15.269,-81.905 -21.531,-13.64 23.04,5.551 10.36,-55.567 -28.642,-17.282 30.042,9.769 18.058,-96.855 H 0 -60.226 l 5.18,27.781 34.356,-12.277 -32.595,21.73 12.865,69.004 19.492,-7.263 -18.613,11.975 9.429,50.572 2.945,15.805 15.038,-5.109 -14.095,10.164 10.862,58.256 10.13,-3.735 -9.648,6.327 z"
         style="fill:#536069;fill-opacity:1;fill-rule:evenodd;stroke:none"
         transform="matrix(1.3333333,0,0,-1.3333333,695.85933,271.52147)"
         clip-path="url(#clipPath66)" />
      <path
         id="path67"
         d="m 0,0 -99.682,65.582 -5.934,-31.829 86.137,-56.669 H 4.273 Z m -8.428,45.21 5.391,-28.918 -94.271,62.019 0.933,5.011 19.492,-7.262 -18.613,11.974 2.4,12.877 52.7,-34.672 -3.43,-2.069 4.402,1.433 z"
         style="fill:#6d7b85;fill-opacity:1;fill-rule:evenodd;stroke:none"
         transform="matrix(1.3333333,0,0,-1.3333333,770.46613,671.69533)"
         clip-path="url(#clipPath68)" />
      <path
         id="path69"
         d="m 0,0 1.051,-5.648 -6.566,4.321 z m -6.541,35.079 -42.523,27.975 -5.935,-31.827 44.157,-29.05 9.333,5.912 z m -8.428,45.211 5.391,-28.918 -37.112,24.415 0.917,4.916 10.129,-3.735 -9.647,6.326 2.814,15.091 z"
         style="fill:#6d7b85;fill-opacity:1;fill-rule:evenodd;stroke:none"
         transform="matrix(1.3333333,0,0,-1.3333333,736.4076,489.00267)"
         clip-path="url(#clipPath70)" />
      <path
         id="path71"
         d="m 0,0 13.189,-70.735 -7.719,-3.281 8.163,0.899 15.269,-81.905 -21.531,-13.64 23.04,5.551 10.36,-55.567 -28.642,-17.282 30.042,9.769 18.058,-96.855 H 0 Z"
         style="fill:#3d4a52;fill-opacity:1;fill-rule:evenodd;stroke:none"
         transform="matrix(1.3333333,0,0,-1.3333333,695.85933,271.52147)"
         clip-path="url(#clipPath72)" />
      <path
         id="path73"
         d="m 0,0 -49.441,-32.523 v -25.343 h 15.795 L 5.933,-31.828 Z M -6.588,35.331 -2.374,12.733 -49.441,-18.23 V 7.14 Z"
         style="fill:#536069;fill-opacity:1;fill-rule:evenodd;stroke:none"
         transform="matrix(1.3333333,0,0,-1.3333333,761.78,625.09507)"
         clip-path="url(#clipPath74)" />
      <path
         id="path75"
         d="M 0,0 -26.934,-17.721 V -53.453 L 5.935,-31.829 3.478,-18.65 -19.562,-24.2 1.969,-10.561 Z M -6.586,35.329 -2.374,12.73 -26.934,-3.425 v 25.37 z"
         style="fill:#536069;fill-opacity:1;fill-rule:evenodd;stroke:none"
         transform="matrix(1.3333333,0,0,-1.3333333,731.7708,464.13667)"
         clip-path="url(#clipPath76)" />
      <path
         id="path77"
         d="m 0,0 17.282,-92.696 -10.115,-4.297 10.696,1.179 20.011,-107.335 -28.214,-17.877 30.191,7.276 13.576,-72.819 -37.534,-22.651 39.37,12.804 23.663,-126.928 H 0 -78.926 l 6.788,36.411 45.023,-16.091 -42.714,28.475 16.859,90.431 25.543,-9.52 -24.392,15.694 12.356,66.273 3.862,20.713 19.705,-6.695 -18.47,13.318 14.233,76.343 13.275,-4.896 -12.641,8.292 z"
         style="fill:#536069;fill-opacity:1;fill-rule:evenodd;stroke:none"
         transform="matrix(1.3333333,0,0,-1.3333333,162.63867,129.64187)"
         clip-path="url(#clipPath78)" />
      <path
         id="path79"
         d="m 0,0 -130.633,85.939 -7.776,-41.71 112.881,-74.263 H 5.599 Z m -11.045,59.246 7.064,-37.896 -123.54,81.274 1.223,6.567 25.544,-9.519 -24.392,15.693 3.145,16.874 69.064,-45.434 -4.498,-2.715 5.771,1.877 z"
         style="fill:#6d7b85;fill-opacity:1;fill-rule:evenodd;stroke:none"
         transform="matrix(1.3333333,0,0,-1.3333333,260.4088,654.05467)"
         clip-path="url(#clipPath80)" />
      <path
         id="path81"
         d="m 0,0 1.38,-7.401 -8.605,5.66 z m -8.571,45.971 -55.725,36.662 -7.776,-41.71 57.867,-38.07 12.229,7.748 z m -11.045,59.244 7.065,-37.894 -48.635,31.996 1.203,6.441 13.274,-4.895 -12.641,8.292 3.686,19.778 z"
         style="fill:#6d7b85;fill-opacity:1;fill-rule:evenodd;stroke:none"
         transform="matrix(1.3333333,0,0,-1.3333333,215.7728,414.64253)"
         clip-path="url(#clipPath82)" />
      <path
         id="path83"
         d="m 0,0 17.282,-92.696 -10.115,-4.297 10.696,1.179 20.011,-107.335 -28.214,-17.877 30.191,7.276 13.576,-72.819 -37.534,-22.651 39.37,12.804 23.663,-126.928 H 0 Z"
         style="fill:#3d4a52;fill-opacity:1;fill-rule:evenodd;stroke:none"
         transform="matrix(1.3333333,0,0,-1.3333333,162.63867,129.64187)"
         clip-path="url(#clipPath84)" />
      <path
         id="path85"
         d="m 0,0 -64.789,-42.623 v -33.214 h 20.697 L 7.776,-41.713 Z M -8.632,46.297 -3.111,16.682 -64.789,-23.893 V 9.353 Z"
         style="fill:#536069;fill-opacity:1;fill-rule:evenodd;stroke:none"
         transform="matrix(1.3333333,0,0,-1.3333333,249.02347,592.9844)"
         clip-path="url(#clipPath86)" />
      <path
         id="path87"
         d="M 0,0 -35.295,-23.221 V -70.048 L 7.776,-41.71 4.556,-24.438 -25.635,-31.714 2.58,-13.837 Z M -8.632,46.299 -3.11,16.684 -35.295,-4.49 v 33.249 z"
         style="fill:#536069;fill-opacity:1;fill-rule:evenodd;stroke:none"
         transform="matrix(1.3333333,0,0,-1.3333333,209.69853,382.058)"
         clip-path="url(#clipPath88)" />
      <path
         id="path89"
         d="M 0,0 V -233.894 H -659.426 V -59.67 c 75.338,24.347 153.457,23.196 224.805,-4.21 C -291.256,-118.946 -133.815,-95.34 0,0"
         style="fill:#edf6ff;fill-opacity:1;fill-rule:evenodd;stroke:none"
         transform="matrix(1.3333333,0,0,-1.3333333,880.6536,568.1432)"
         clip-path="url(#clipPath90)" />
      <path
         id="path91"
         d="m 0,0 17.282,-92.696 -10.115,-4.298 10.696,1.178 20.012,-107.333 -28.215,-17.877 30.191,7.277 13.576,-72.821 -37.535,-22.651 39.371,12.803 5.935,-31.834 h -85.005 v 133.287 l 7.911,-2.69 -7.911,5.705 v 64.255 l 3.673,19.705 13.275,-4.899 -12.642,8.295 z"
         style="fill:#29343b;fill-opacity:1;fill-rule:evenodd;stroke:none"
         transform="matrix(1.3333333,0,0,-1.3333333,33.161467,442.332)"
         clip-path="url(#clipPath92)" />
      <path
         id="path93"
         d="M 0,0 -26.711,17.575 V 50.822 L 17.486,21.746 12.988,19.031 18.759,20.908 50.538,0 Z"
         style="fill:#29343b;fill-opacity:1;fill-rule:evenodd;stroke:none"
         transform="matrix(1.3333333,0,0,-1.3333333,37.033867,880.00133)"
         clip-path="url(#clipPath94)" />
      <path
         id="path95"
         d="m 0,0 1.379,-7.403 -8.604,5.661 z m -8.571,45.971 -55.087,36.24 V 35.384 L -14.206,2.85 -1.976,10.6 Z m -11.046,59.244 7.066,-37.896 -48.635,31.995 1.202,6.445 13.274,-4.899 -12.642,8.295 3.688,19.774 z"
         style="fill:#29343b;fill-opacity:1;fill-rule:evenodd;stroke:none"
         transform="matrix(1.3333333,0,0,-1.3333333,86.2956,727.33067)"
         clip-path="url(#clipPath96)" />
      <path
         id="path97"
         d="m 0,0 17.282,-92.696 -10.115,-4.298 10.696,1.178 20.012,-107.333 -28.215,-17.877 30.191,7.277 13.576,-72.821 -37.535,-22.651 39.371,12.803 5.935,-31.834 H 0 Z"
         style="fill:#29343b;fill-opacity:1;fill-rule:evenodd;stroke:none"
         transform="matrix(1.3333333,0,0,-1.3333333,33.161467,442.332)"
         clip-path="url(#clipPath98)" />
      <path
         id="path99"
         d="M 0,0 5.041,-27.042 H -41.103 Z"
         style="fill:#29343b;fill-opacity:1;fill-rule:evenodd;stroke:none"
         transform="matrix(1.3333333,0,0,-1.3333333,108.03707,843.94533)"
         clip-path="url(#clipPath100)" />
      <path
         id="path101"
         d="M 0,0 -35.294,-23.219 V -70.046 L 7.777,-41.71 4.556,-24.436 -25.635,-31.714 2.58,-13.837 Z M -8.632,46.299 -3.11,16.686 -35.294,-4.488 v 33.246 z"
         style="fill:#29343b;fill-opacity:1;fill-rule:evenodd;stroke:none"
         transform="matrix(1.3333333,0,0,-1.3333333,80.220667,694.74867)"
         clip-path="url(#clipPath102)" />
      <path
         id="path103"
         d="m 0,0 14.551,78.056 25.544,-9.52 -24.394,15.693 12.357,66.275 3.862,20.711 19.705,-6.695 -18.472,13.321 14.236,76.342 13.274,-4.896 -12.642,8.294 14.105,75.657 0,-333.238 z"
         style="fill:#29343b;fill-opacity:1;fill-rule:evenodd;stroke:none"
         transform="matrix(1.3333333,0,0,-1.3333333,797.81907,880.00133)"
         clip-path="url(#clipPath104)" />
      <path
         id="path105"
         d="m 0,0 h 39.784 v 20.654 l -51.909,34.151 -7.776,-41.71 z m 39.784,39.386 -48.799,32.102 1.224,6.568 25.544,-9.52 -24.394,15.693 3.147,16.876 43.278,-28.474 z"
         style="fill:#29343b;fill-opacity:1;fill-rule:evenodd;stroke:none"
         transform="matrix(1.3333333,0,0,-1.3333333,827.60813,880.00133)"
         clip-path="url(#clipPath106)" />
      <path
         id="path107"
         d="M 0,0 -26.825,17.646 -19.051,59.357 0,46.824 Z m 0,65.556 -15.94,10.487 1.203,6.441 13.274,-4.895 -12.641,8.294 3.686,19.773 L 0,98.803 Z"
         style="fill:#29343b;fill-opacity:1;fill-rule:evenodd;stroke:none"
         transform="matrix(1.3333333,0,0,-1.3333333,880.6536,651.07027)"
         clip-path="url(#clipPath108)" />
      <path
         id="path109"
         d="m 0,0 c 5.851,0 10.595,-4.744 10.595,-10.595 0,-5.851 -4.744,-10.596 -10.595,-10.596 -5.853,0 -10.596,4.745 -10.596,10.596 C -10.596,-4.744 -5.853,0 0,0 m 84.766,-78.533 c 5.852,0 10.595,-4.743 10.595,-10.595 0,-5.854 -4.743,-10.597 -10.595,-10.597 -5.851,0 -10.597,4.743 -10.597,10.597 0,5.852 4.746,10.595 10.597,10.595 m 91.621,-87.257 c 2.065,0 3.739,-1.676 3.739,-3.742 0,-2.065 -1.674,-3.739 -3.739,-3.739 -2.066,0 -3.739,1.674 -3.739,3.739 0,2.066 1.673,3.742 3.739,3.742 m 38.021,129.64 c 5.164,0 9.35,-4.186 9.35,-9.349 0,-5.164 -4.186,-9.349 -9.35,-9.349 -5.165,0 -9.348,4.185 -9.348,9.349 0,5.163 4.183,9.349 9.348,9.349 M 320.363,4.987 c 2.411,0 4.365,-1.954 4.365,-4.363 0,-2.41 -1.954,-4.362 -4.365,-4.362 -2.408,0 -4.361,1.952 -4.361,4.362 0,2.409 1.953,4.363 4.361,4.363 m -70.428,-128.396 c 2.752,0 4.985,-2.231 4.985,-4.985 0,-2.755 -2.233,-4.986 -4.985,-4.986 -2.755,0 -4.988,2.231 -4.988,4.986 0,2.754 2.233,4.985 4.988,4.985 m 4.36,-132.17 c 8.597,0 15.563,-6.969 15.563,-15.564 0,-8.596 -6.966,-15.564 -15.563,-15.564 -8.595,0 -15.564,6.968 -15.564,15.564 0,8.595 6.969,15.564 15.564,15.564 m 91.671,-135.275 c 5.056,0 9.157,-4.1 9.157,-9.156 0,-5.058 -4.101,-9.159 -9.157,-9.159 -5.058,0 -9.158,4.101 -9.158,9.159 0,5.056 4.1,9.156 9.158,9.156 M 216.9,-477.43 c 1.723,0 3.117,-1.395 3.117,-3.117 0,-1.723 -1.394,-3.117 -3.117,-3.117 -1.72,0 -3.116,1.394 -3.116,3.117 0,1.722 1.396,3.117 3.116,3.117 m 84.765,-49.862 c 2.41,0 4.364,-1.955 4.364,-4.363 0,-2.408 -1.954,-4.364 -4.364,-4.364 -2.408,0 -4.362,1.956 -4.362,4.364 0,2.408 1.954,4.363 4.362,4.363 M 78.533,-548.485 c 1.721,0 3.117,-1.393 3.117,-3.116 0,-1.721 -1.396,-3.114 -3.117,-3.114 -1.72,0 -3.116,1.393 -3.116,3.114 0,1.723 1.396,3.116 3.116,3.116 m -155.198,110.041 c 7.488,0 13.557,-6.068 13.557,-13.556 0,-7.489 -6.069,-13.557 -13.557,-13.557 -7.487,0 -13.558,6.068 -13.558,13.557 0,7.488 6.071,13.556 13.558,13.556 m -26.251,127.357 c 3.293,0 5.964,-2.67 5.964,-5.963 0,-3.293 -2.671,-5.963 -5.964,-5.963 -3.292,0 -5.964,2.67 -5.964,5.963 0,3.293 2.672,5.963 5.964,5.963 m 87.616,-8.97 c 4.611,0 8.349,-3.739 8.349,-8.349 0,-4.61 -3.738,-8.349 -8.349,-8.349 -4.611,0 -8.349,3.739 -8.349,8.349 0,4.61 3.738,8.349 8.349,8.349 m 122.504,-30.225 c 7.229,0 13.088,-5.859 13.088,-13.089 0,-7.228 -5.859,-13.087 -13.088,-13.087 -7.229,0 -13.089,5.859 -13.089,13.087 0,7.23 5.86,13.089 13.089,13.089 m 124.032,-18.698 c 6.197,0 11.22,-5.023 11.22,-11.22 0,-6.196 -5.023,-11.217 -11.22,-11.217 -6.196,0 -11.219,5.021 -11.219,11.217 0,6.197 5.023,11.22 11.219,11.22 m 178.937,60.992 c 6.927,0 12.54,-5.615 12.54,-12.54 0,-6.925 -5.613,-12.539 -12.54,-12.539 -6.925,0 -12.539,5.614 -12.539,12.539 0,6.925 5.614,12.54 12.539,12.54 m 17.247,180 c -2.081,0 -3.77,-1.69 -3.77,-3.771 0,-2.084 1.689,-3.772 3.77,-3.772 2.084,0 3.772,1.688 3.772,3.772 0,2.081 -1.688,3.771 -3.772,3.771 M 413.855,24.931 c 4.476,0 8.104,-3.628 8.104,-8.102 0,-4.475 -3.628,-8.103 -8.104,-8.103 -4.473,0 -8.101,3.628 -8.101,8.103 0,4.474 3.628,8.102 8.101,8.102 M 114.684,38.643 c 1.721,0 3.115,-1.395 3.115,-3.115 0,-1.721 -1.394,-3.116 -3.115,-3.116 -1.722,0 -3.116,1.395 -3.116,3.116 0,1.72 1.394,3.115 3.116,3.115 m 251.179,-534.772 c 2.066,0 3.74,-1.674 3.74,-3.74 0,-2.065 -1.674,-3.739 -3.74,-3.739 -2.065,0 -3.739,1.674 -3.739,3.739 0,2.066 1.674,3.74 3.739,3.74 m -203.81,-63.574 c 5.164,0 9.349,-4.185 9.349,-9.348 0,-5.164 -4.185,-9.35 -9.349,-9.35 -5.163,0 -9.349,4.186 -9.349,9.35 0,5.163 4.186,9.348 9.349,9.348 m -233.73,19.945 c 4.131,0 7.48,-3.35 7.48,-7.481 0,-4.131 -3.349,-7.478 -7.48,-7.478 -4.131,0 -7.479,3.347 -7.479,7.478 0,4.131 3.348,7.481 7.479,7.481 m 10.293,312.476 c 2.767,0 5.011,-2.244 5.011,-5.011 0,-2.77 -2.244,-5.014 -5.011,-5.014 -2.769,0 -5.012,2.244 -5.012,5.014 0,2.767 2.243,5.011 5.012,5.011 m 101.897,42.794 c 2.065,0 3.739,-1.677 3.739,-3.742 0,-2.065 -1.674,-3.739 -3.739,-3.739 -2.065,0 -3.741,1.674 -3.741,3.739 0,2.065 1.676,3.742 3.741,3.742 M -126.526,22.438 c 2.754,0 4.986,-2.232 4.986,-4.985 0,-2.755 -2.232,-4.987 -4.986,-4.987 -2.753,0 -4.986,2.232 -4.986,4.987 0,2.753 2.233,4.985 4.986,4.985"
         style="fill:#ffffff;fill-opacity:1;fill-rule:evenodd;stroke:none"
         transform="matrix(1.3333333,0,0,-1.3333333,246.78253,82.416)"
         clip-path="url(#clipPath110)" />
    </g>
  </g>
</svg>
